<svg xmlns="http://www.w3.org/2000/svg" xmlns:xlink="http://www.w3.org/1999/xlink" width="98" height="98" viewBox="0 0 98 98">
  <defs>
    <filter id="Trazado_982547" x="0" y="0" width="98" height="98" filterUnits="userSpaceOnUse">
      <feOffset dy="3" input="SourceAlpha"/>
      <feGaussianBlur stdDeviation="3" result="blur"/>
      <feFlood flood-opacity="0.161"/>
      <feComposite operator="in" in2="blur"/>
      <feComposite in="SourceGraphic"/>
    </filter>
    <clipPath id="clip-path">
      <path id="path8121" d="M0-682.665H48.414v48.414H0Z" transform="translate(0 682.665)"/>
    </clipPath>
  </defs>
  <g id="Grupo_1231249" data-name="Grupo 1231249" transform="translate(-196.016 -1248.047)">
    <g id="Grupo_1230063" data-name="Grupo 1230063" transform="translate(0 83.105)">
      <g id="Grupo_1230049" data-name="Grupo 1230049">
        <g id="Grupo_1229405" data-name="Grupo 1229405" transform="translate(0.016 -5854.171)">
          <g id="Grupo_1208936" data-name="Grupo 1208936" transform="translate(5 5098.279)">
            <g id="Grupo_1208171" data-name="Grupo 1208171" transform="translate(0 -2047.18)">
              <g id="Grupo_1207739" data-name="Grupo 1207739" transform="translate(0 1882.462)">
                <g id="Grupo_1207712" data-name="Grupo 1207712">
                  <g id="Grupo_1207285" data-name="Grupo 1207285" transform="translate(0 344.552)">
                    <g id="Grupo_1206883" data-name="Grupo 1206883" transform="translate(0 -209)">
                      <g id="Grupo_1204569" data-name="Grupo 1204569" transform="translate(-81 -1890.336)">
                        <g id="Grupo_1203962" data-name="Grupo 1203962" transform="translate(281 3846.336)">
                          <g id="Grupo_1203498" data-name="Grupo 1203498" transform="translate(0)">
                            <g id="Grupo_1202589" data-name="Grupo 1202589">
                              <g id="Grupo_1172010" data-name="Grupo 1172010">
                                <g id="Grupo_1171046" data-name="Grupo 1171046">
                                  <g id="Grupo_1148525" data-name="Grupo 1148525">
                                    <g transform="matrix(1, 0, 0, 1, -9, -6)" filter="url(#Trazado_982547)">
                                      <g id="Trazado_982547-2" data-name="Trazado 982547" transform="translate(9 6)" fill="#fdfbec">
                                        <path d="M 39.99999237060547 78.49998474121094 C 34.8018684387207 78.49998474121094 29.76002502441406 77.48226165771484 25.0145263671875 75.47508239746094 C 20.43014717102051 73.53604888916016 16.31264877319336 70.75984954833984 12.77639198303223 67.22359466552734 C 9.240137100219727 63.68733596801758 6.463936805725098 59.5698356628418 4.524903297424316 54.98546981811523 C 2.517725706100464 50.23995971679688 1.500003457069397 45.19811630249023 1.500003457069397 39.99999237060547 C 1.500003457069397 34.8018684387207 2.517725706100464 29.76002502441406 4.524903297424316 25.0145263671875 C 6.463936805725098 20.43014717102051 9.240137100219727 16.31264877319336 12.77639198303223 12.77639198303223 C 16.31264877319336 9.240137100219727 20.43014717102051 6.463936805725098 25.0145263671875 4.524903297424316 C 29.76002502441406 2.517725706100464 34.8018684387207 1.500003457069397 39.99999237060547 1.500003457069397 C 45.19811630249023 1.500003457069397 50.23995971679688 2.517725706100464 54.98546981811523 4.524903297424316 C 59.5698356628418 6.463936805725098 63.68733596801758 9.240137100219727 67.22359466552734 12.77639198303223 C 70.75984954833984 16.31264877319336 73.53604888916016 20.43014717102051 75.47508239746094 25.0145263671875 C 77.48226165771484 29.76002502441406 78.49998474121094 34.8018684387207 78.49998474121094 39.99999237060547 C 78.49998474121094 45.19812393188477 77.48226165771484 50.23995971679688 75.47508239746094 54.98546981811523 C 73.53604888916016 59.5698356628418 70.75984954833984 63.68733596801758 67.22359466552734 67.22359466552734 C 63.68733596801758 70.75984954833984 59.5698356628418 73.53604888916016 54.98546981811523 75.47508239746094 C 50.23995971679688 77.48226165771484 45.19812393188477 78.49998474121094 39.99999237060547 78.49998474121094 Z" stroke="none"/>
                                        <path d="M 39.99999237060547 2.999992370605469 C 35.00370025634766 2.999992370605469 30.1584587097168 3.97784423828125 25.59884643554688 5.906402587890625 C 21.19327163696289 7.769805908203125 17.23603057861328 10.43805694580078 13.83704376220703 13.83704376220703 C 10.43805694580078 17.23603057861328 7.769805908203125 21.19327163696289 5.906402587890625 25.59884643554688 C 3.97784423828125 30.1584587097168 2.999992370605469 35.00370025634766 2.999992370605469 39.99999237060547 C 2.999992370605469 44.99628448486328 3.97784423828125 49.84152603149414 5.906402587890625 54.40113830566406 C 7.769805908203125 58.80671310424805 10.43805694580078 62.76395416259766 13.83704376220703 66.16294097900391 C 17.23603057861328 69.56191253662109 21.19327163696289 72.23016357421875 25.59884643554688 74.09356689453125 C 30.1584587097168 76.02212524414062 35.00370025634766 76.99997711181641 39.99999237060547 76.99997711181641 C 44.99628448486328 76.99997711181641 49.84152603149414 76.02212524414062 54.40113830566406 74.09356689453125 C 58.80671310424805 72.23016357421875 62.76395416259766 69.56191253662109 66.16294097900391 66.16294097900391 C 69.56191253662109 62.76395416259766 72.23016357421875 58.80671310424805 74.09356689453125 54.40113830566406 C 76.02212524414062 49.84152603149414 76.99997711181641 44.99628448486328 76.99997711181641 39.99999237060547 C 76.99997711181641 35.00370025634766 76.02212524414062 30.1584587097168 74.09356689453125 25.59884643554688 C 72.23016357421875 21.19327163696289 69.56191253662109 17.23603057861328 66.16294097900391 13.83704376220703 C 62.76395416259766 10.43805694580078 58.80671310424805 7.769805908203125 54.40113830566406 5.906402587890625 C 49.84152603149414 3.97784423828125 44.99628448486328 2.999992370605469 39.99999237060547 2.999992370605469 M 39.99999237060547 -7.62939453125e-06 C 62.09137725830078 -7.62939453125e-06 79.99997711181641 17.90860748291016 79.99997711181641 39.99999237060547 C 79.99997711181641 62.09137725830078 62.09137725830078 79.99997711181641 39.99999237060547 79.99997711181641 C 17.90860748291016 79.99997711181641 -7.62939453125e-06 62.09137725830078 -7.62939453125e-06 39.99999237060547 C -7.62939453125e-06 17.90860748291016 17.90860748291016 -7.62939453125e-06 39.99999237060547 -7.62939453125e-06 Z" stroke="none" fill="#83793c"/>
                                      </g>
                                    </g>
                                  </g>
                                </g>
                              </g>
                            </g>
                          </g>
                        </g>
                      </g>
                    </g>
                  </g>
                  <g id="g8115" transform="translate(215.793 2790.01)">
                    <g id="g8117" transform="translate(0 -682.665)">
                      <g id="g8119" clip-path="url(#clip-path)">
                        <g id="g8125" transform="translate(-33.259 0.709)">
                          <path id="path8127" d="M-338.457-377.826h-25.835v-25.108c5.31-7.679,37.755-5.416,25.835,25.108" transform="translate(364.292 406.667)" fill="#fbdf63"/>
                        </g>
                        <g id="g8129" transform="translate(-33.259 0.709)">
                          <path id="path8131" d="M-338.457-377.826h-.619c6.164-24.728-15.887-30.6-25.216-24.374v-.734c5.31-7.679,37.755-5.416,25.835,25.108" transform="translate(364.292 406.667)" fill="#f9d11f"/>
                        </g>
                      </g>
                    </g>
                    <g id="g8265" transform="translate(0 -682.665)">
                      <g id="g8267" clip-path="url(#clip-path)">
                        <g id="g8273" transform="translate(-33.259 51.036)">
                          <path id="path8275" d="M-338.457-377.654h-25.835v-25.1c5.31-7.676,37.755-5.413,25.835,25.1" transform="translate(364.292 406.481)" fill="#003343"/>
                        </g>
                        <g id="g8277" transform="translate(-33.259 51.036)">
                          <path id="path8279" d="M-338.457-377.654h-.619c6.164-24.717-15.887-30.585-25.216-24.362v-.734c5.31-7.676,37.755-5.413,25.835,25.1" transform="translate(364.292 406.481)" fill="#002439"/>
                        </g>
                      </g>
                    </g>
                    <g id="g8281" transform="translate(0 -682.665)">
                      <g id="g8283" clip-path="url(#clip-path)">
                        <g id="g8289" transform="translate(17.066 51.014)">
                          <path id="path8291" d="M-338.457-377.826h-25.835v-25.108c5.31-7.679,37.755-5.416,25.835,25.108" transform="translate(364.292 406.667)" fill="#ff7e50"/>
                        </g>
                        <g id="g8293" transform="translate(17.066 51.014)">
                          <path id="path8295" d="M-338.457-377.826h-.619c6.164-24.728-15.887-30.6-25.216-24.374v-.734c5.31-7.679,37.755-5.416,25.835,25.108" transform="translate(364.292 406.667)" fill="#ff6247"/>
                        </g>
                        <g id="g8297" transform="translate(2.941 54.225)">
                          <path id="path8299" d="M-233.028-131.751v15.573h-14.6c-12.2-25.649,14.6-34.273,14.6-15.573" transform="translate(250.816 141.808)" fill="#ffa68a"/>
                        </g>
                        <g id="g8301" transform="translate(2.941 54.225)">
                          <path id="path8303" d="M-233.028-131.751c-.9-16.1-20.23-9.82-14.176,15.573h-.427c-12.2-25.649,14.6-34.273,14.6-15.573" transform="translate(250.816 141.808)" fill="#ff7e50"/>
                        </g>
                      </g>
                    </g>
                  </g>
                </g>
              </g>
            </g>
          </g>
        </g>
      </g>
    </g>
    <g id="en-linea_1_" data-name="en-linea (1)" transform="translate(219.966 1270.668)">
      <path id="Trazado_1232153" data-name="Trazado 1232153" d="M53.089,392H8v3.34a1.675,1.675,0,0,0,1.67,1.67H54.759a1.675,1.675,0,0,0,1.67-1.67V392Zm0,0" transform="translate(-7.165 -351.086)" fill="#acabb1"/>
      <path id="Trazado_1232154" data-name="Trazado 1232154" d="M81.749,91.34v28.39H40V91.34A3.349,3.349,0,0,1,43.34,88H78.409A3.34,3.34,0,0,1,81.749,91.34Zm0,0" transform="translate(-35.825 -78.815)" fill="#78b9eb"/>
      <path id="Trazado_1232155" data-name="Trazado 1232155" d="M200,392h8.35v1.67a.835.835,0,0,1-.835.835h-6.68a.835.835,0,0,1-.835-.835Zm0,0" transform="translate(-179.125 -351.086)" fill="#898890"/>
      <path id="Trazado_1232156" data-name="Trazado 1232156" d="M179.69,291.289H168V287.13a3.34,3.34,0,0,1,2.421-3.215l2.213-.634,2.881,2.163,2.881-2.163,2.213.634a3.34,3.34,0,0,1,2.421,3.215v4.158Zm0,0" transform="translate(-150.465 -253.714)" fill="#ff6243"/>
      <path id="Trazado_1232157" data-name="Trazado 1232157" d="M218.161,262.143l-2.881,2.162-2.881-2.162,1.211-.342v-2.121a3.317,3.317,0,0,0,3.34,0V261.8Zm0,0" transform="translate(-190.23 -232.576)" fill="#ffdaaa"/>
      <path id="Trazado_1232158" data-name="Trazado 1232158" d="M214.68,201.67v1.67a3.362,3.362,0,0,1-.977,2.363,3.527,3.527,0,0,1-.693.526A3.34,3.34,0,0,1,208,203.34v-1.67h.985a4.974,4.974,0,0,0,2.78-.843L213.01,200l.376.743a1.634,1.634,0,0,0,1.294.91Zm0,0" transform="translate(-186.29 -179.125)" fill="#ffdaaa"/>
      <path id="Trazado_1232159" data-name="Trazado 1232159" d="M227.34,259.68v.835a3.317,3.317,0,0,1-3.34,0v-.835A3.317,3.317,0,0,0,227.34,259.68Zm0,0" transform="translate(-200.62 -232.576)" fill="#f2ca96"/>
      <path id="Trazado_1232160" data-name="Trazado 1232160" d="M204.175,168a4.175,4.175,0,0,1,4.175,4.175v.835h-.634a.81.81,0,0,1-.2-.017,1.634,1.634,0,0,1-1.294-.91l-.376-.743-1.244.827a4.974,4.974,0,0,1-2.78.843H200v-.835A4.175,4.175,0,0,1,204.175,168Zm0,0" transform="translate(-179.125 -150.465)" fill="#57565c"/>
      <path id="Trazado_1232161" data-name="Trazado 1232161" d="M23.942,45.009a6.02,6.02,0,0,0-.417-.835,8.339,8.339,0,0,0-7.014-4.167,2.852,2.852,0,0,0-.434,0,8.338,8.338,0,0,0-4.793,15.013,8.2,8.2,0,0,0,4.793,1.67,2.854,2.854,0,0,0,.434,0,8.343,8.343,0,0,0,8.133-8.342,8.249,8.249,0,0,0-.7-3.34Zm0,0" transform="translate(-7.109 -35.824)" fill="#00ccb3"/>
      <path id="Trazado_1232162" data-name="Trazado 1232162" d="M290.37,8h-16.7A1.675,1.675,0,0,0,272,9.67V19.69a1.675,1.675,0,0,0,1.67,1.67h3.34v4.175l3.34-4.175h10.02a1.675,1.675,0,0,0,1.67-1.67V9.67A1.675,1.675,0,0,0,290.37,8Zm0,0" transform="translate(-243.611 -7.165)" fill="#ffd422"/>
      <path id="Trazado_1232163" data-name="Trazado 1232163" d="M49.264,183.38h-2.5V160h-1.67v23.38H5.01V165.845H3.34V183.38H.835a.835.835,0,0,0-.835.835v3.34a2.505,2.505,0,0,0,2.5,2.5H47.594a2.505,2.505,0,0,0,2.5-2.5v-3.34A.835.835,0,0,0,49.264,183.38ZM21.71,185.05h6.68v.835H21.71Zm26.72,2.5a.835.835,0,0,1-.835.835H2.5a.835.835,0,0,1-.835-.835v-2.5H20.04v.835a1.67,1.67,0,0,0,1.67,1.67h6.68a1.67,1.67,0,0,0,1.67-1.67v-.835h18.37Zm0,0" transform="translate(0 -143.3)"/>
      <path id="Trazado_1232164" data-name="Trazado 1232164" d="M192,80h5.845v1.67H192Zm0,0" transform="translate(-171.96 -71.65)"/>
      <path id="Trazado_1232165" data-name="Trazado 1232165" d="M91.378,172.7a4.193,4.193,0,0,0-3.028,4.018v3.323H80v1.67h33.4v-1.67h-8.35v-3.323a4.192,4.192,0,0,0-3.027-4.018l-2.818-.8v-1.06a4.156,4.156,0,0,0,1.67-3.318v-.835a.835.835,0,0,0,.835-.835v-.835a5.01,5.01,0,0,0-10.02,0v.835a.835.835,0,0,0,.835.835v.835a4.156,4.156,0,0,0,1.67,3.318v1.06Zm12,4.018v3.323h-1.67V176.7h-1.67v3.34H93.36V176.7H91.69v3.34H90.02v-3.323a2.517,2.517,0,0,1,1.816-2.412l1.816-.517L96.2,175.7a.834.834,0,0,0,1,0l2.547-1.911,1.816.518a2.516,2.516,0,0,1,1.816,2.412ZM96.7,161.67a3.34,3.34,0,0,1,3.34,3.317.836.836,0,0,1-.551-.44l-.371-.744a.835.835,0,0,0-1.211-.323l-1.242.828a4.164,4.164,0,0,1-2.316.7H93.36A3.34,3.34,0,0,1,96.7,161.67Zm-2.352,5.01a5.827,5.827,0,0,0,3.242-.982l.457-.3a2.467,2.467,0,0,0,1.157,1.044v1.078a2.5,2.5,0,1,1-5.01,0v-.835Zm2.352,5.01a4.163,4.163,0,0,0,.835-.084v.919a.828.828,0,0,0,.288.618l-1.123.843-1.123-.843a.828.828,0,0,0,.288-.618v-.919A4.163,4.163,0,0,0,96.7,171.69Zm0,0" transform="translate(-71.65 -143.3)"/>
      <path id="Trazado_1232166" data-name="Trazado 1232166" d="M266.505,15.03h2.5v3.34a.835.835,0,0,0,.559.788.861.861,0,0,0,.276.047.834.834,0,0,0,.652-.313l3.089-3.862H283.2a2.505,2.505,0,0,0,2.5-2.5V2.5A2.505,2.505,0,0,0,283.2,0h-16.7A2.505,2.505,0,0,0,264,2.5v10.02A2.505,2.505,0,0,0,266.505,15.03ZM265.67,2.5a.835.835,0,0,1,.835-.835h16.7a.835.835,0,0,1,.835.835v10.02a.835.835,0,0,1-.835.835h-10.02a.834.834,0,0,0-.652.313l-1.853,2.316V14.195a.835.835,0,0,0-.835-.835h-3.34a.835.835,0,0,1-.835-.835Zm0,0" transform="translate(-236.446)"/>
      <path id="Trazado_1232167" data-name="Trazado 1232167" d="M312,32h11.69v1.67H312Zm0,0" transform="translate(-279.436 -28.66)"/>
      <path id="Trazado_1232168" data-name="Trazado 1232168" d="M312,64h11.69v1.67H312Zm0,0" transform="translate(-279.436 -57.32)"/>
      <path id="Trazado_1232169" data-name="Trazado 1232169" d="M312,96h11.69v1.67H312Zm0,0" transform="translate(-279.436 -85.98)"/>
      <path id="Trazado_1232170" data-name="Trazado 1232170" d="M9.185,50.37A9.185,9.185,0,1,0,0,41.185,9.185,9.185,0,0,0,9.185,50.37ZM16.65,40.35H14.172a16.081,16.081,0,0,0-.312-2.5h2.046A7.438,7.438,0,0,1,16.65,40.35Zm-8.3,5.845v2.226a4.851,4.851,0,0,1-1.606-2.226Zm-2.135-1.67a14.261,14.261,0,0,1-.348-2.5H8.35v2.5Zm3.805,3.9V46.195h1.606A4.851,4.851,0,0,1,10.02,48.421Zm0-3.9v-2.5H12.5a14.261,14.261,0,0,1-.348,2.5Zm4.153-2.5H16.65a7.438,7.438,0,0,1-.744,2.5H13.861a16.031,16.031,0,0,0,.311-2.5ZM12.5,40.35H10.02v-2.5h2.135a14.26,14.26,0,0,1,.348,2.5ZM10.02,36.175V33.949a4.851,4.851,0,0,1,1.606,2.226ZM8.35,33.949v2.226H6.743A4.851,4.851,0,0,1,8.35,33.949Zm0,3.9v2.5H5.867a14.26,14.26,0,0,1,.348-2.5ZM4.2,40.35H1.719a7.438,7.438,0,0,1,.744-2.5H4.509a16.031,16.031,0,0,0-.311,2.5Zm0,1.67a16.031,16.031,0,0,0,.311,2.5H2.463a7.438,7.438,0,0,1-.744-2.5Zm-.6,4.175H4.968A9.954,9.954,0,0,0,5.7,47.839,7.558,7.558,0,0,1,3.6,46.195Zm9.065,1.644a9.955,9.955,0,0,0,.737-1.644H14.77a7.558,7.558,0,0,1-2.1,1.644Zm2.1-11.664H13.4a9.954,9.954,0,0,0-.737-1.644A7.558,7.558,0,0,1,14.77,36.175ZM5.7,34.531a9.954,9.954,0,0,0-.737,1.644H3.6A7.557,7.557,0,0,1,5.7,34.531Zm0,0" transform="translate(0 -28.66)"/>
      <path id="Trazado_1232171" data-name="Trazado 1232171" d="M319.515,218.5V216h-1.67v1.67H312v1.67h6.68A.835.835,0,0,0,319.515,218.5Zm0,0" transform="translate(-279.436 -193.455)"/>
      <path id="Trazado_1232172" data-name="Trazado 1232172" d="M368,184h1.67v1.67H368Zm0,0" transform="translate(-329.591 -164.795)"/>
      <path id="Trazado_1232173" data-name="Trazado 1232173" d="M80,224h1.67v1.67H80Zm0,0" transform="translate(-71.65 -200.62)"/>
      <path id="Trazado_1232174" data-name="Trazado 1232174" d="M80,258.5a.835.835,0,0,0,.835.835h5.01v-1.67H81.67V256H80Zm0,0" transform="translate(-71.65 -229.28)"/>
      <path id="Trazado_1232175" data-name="Trazado 1232175" d="M336,320h1.67v1.67H336Zm0,0" transform="translate(-300.931 -286.601)"/>
      <path id="Trazado_1232176" data-name="Trazado 1232176" d="M336,288h1.67v1.67H336Zm0,0" transform="translate(-300.931 -257.941)"/>
    </g>
  </g>
</svg>
