<svg xmlns="http://www.w3.org/2000/svg" xmlns:xlink="http://www.w3.org/1999/xlink" width="98" height="98" viewBox="0 0 98 98">
  <defs>
    <filter id="Trazado_982547" x="0" y="0" width="98" height="98" filterUnits="userSpaceOnUse">
      <feOffset dy="3" input="SourceAlpha"/>
      <feGaussianBlur stdDeviation="3" result="blur"/>
      <feFlood flood-opacity="0.161"/>
      <feComposite operator="in" in2="blur"/>
      <feComposite in="SourceGraphic"/>
    </filter>
    <clipPath id="clip-path">
      <path id="path8121" d="M0-682.665H48.414v48.414H0Z" transform="translate(0 682.665)"/>
    </clipPath>
  </defs>
  <g id="Grupo_1231250" data-name="Grupo 1231250" transform="translate(-615.151 -1250.105)">
    <g id="Grupo_1230062" data-name="Grupo 1230062" transform="translate(0 83.105)">
      <g id="Grupo_1230050" data-name="Grupo 1230050" transform="translate(419.135 2.058)">
        <g id="Grupo_1229405" data-name="Grupo 1229405" transform="translate(0.016 -5854.171)">
          <g id="Grupo_1208936" data-name="Grupo 1208936" transform="translate(5 5098.279)">
            <g id="Grupo_1208171" data-name="Grupo 1208171" transform="translate(0 -2047.18)">
              <g id="Grupo_1207739" data-name="Grupo 1207739" transform="translate(0 1882.462)">
                <g id="Grupo_1207712" data-name="Grupo 1207712">
                  <g id="Grupo_1207285" data-name="Grupo 1207285" transform="translate(0 344.552)">
                    <g id="Grupo_1206883" data-name="Grupo 1206883" transform="translate(0 -209)">
                      <g id="Grupo_1204569" data-name="Grupo 1204569" transform="translate(-81 -1890.336)">
                        <g id="Grupo_1203962" data-name="Grupo 1203962" transform="translate(281 3846.336)">
                          <g id="Grupo_1203498" data-name="Grupo 1203498" transform="translate(0)">
                            <g id="Grupo_1202589" data-name="Grupo 1202589">
                              <g id="Grupo_1172010" data-name="Grupo 1172010">
                                <g id="Grupo_1171046" data-name="Grupo 1171046">
                                  <g id="Grupo_1148525" data-name="Grupo 1148525">
                                    <g transform="matrix(1, 0, 0, 1, -9, -6)" filter="url(#Trazado_982547)">
                                      <g id="Trazado_982547-2" data-name="Trazado 982547" transform="translate(9 6)" fill="#fdfbec">
                                        <path d="M 39.99999237060547 78.49998474121094 C 34.8018684387207 78.49998474121094 29.76002502441406 77.48226165771484 25.0145263671875 75.47508239746094 C 20.43014717102051 73.53604888916016 16.31264877319336 70.75984954833984 12.77639198303223 67.22359466552734 C 9.240137100219727 63.68733596801758 6.463936805725098 59.5698356628418 4.524903297424316 54.98546981811523 C 2.517725706100464 50.23995971679688 1.500003457069397 45.19811630249023 1.500003457069397 39.99999237060547 C 1.500003457069397 34.8018684387207 2.517725706100464 29.76002502441406 4.524903297424316 25.0145263671875 C 6.463936805725098 20.43014717102051 9.240137100219727 16.31264877319336 12.77639198303223 12.77639198303223 C 16.31264877319336 9.240137100219727 20.43014717102051 6.463936805725098 25.0145263671875 4.524903297424316 C 29.76002502441406 2.517725706100464 34.8018684387207 1.500003457069397 39.99999237060547 1.500003457069397 C 45.19811630249023 1.500003457069397 50.23995971679688 2.517725706100464 54.98546981811523 4.524903297424316 C 59.5698356628418 6.463936805725098 63.68733596801758 9.240137100219727 67.22359466552734 12.77639198303223 C 70.75984954833984 16.31264877319336 73.53604888916016 20.43014717102051 75.47508239746094 25.0145263671875 C 77.48226165771484 29.76002502441406 78.49998474121094 34.8018684387207 78.49998474121094 39.99999237060547 C 78.49998474121094 45.19812393188477 77.48226165771484 50.23995971679688 75.47508239746094 54.98546981811523 C 73.53604888916016 59.5698356628418 70.75984954833984 63.68733596801758 67.22359466552734 67.22359466552734 C 63.68733596801758 70.75984954833984 59.5698356628418 73.53604888916016 54.98546981811523 75.47508239746094 C 50.23995971679688 77.48226165771484 45.19812393188477 78.49998474121094 39.99999237060547 78.49998474121094 Z" stroke="none"/>
                                        <path d="M 39.99999237060547 2.999992370605469 C 35.00370025634766 2.999992370605469 30.1584587097168 3.97784423828125 25.59884643554688 5.906402587890625 C 21.19327163696289 7.769805908203125 17.23603057861328 10.43805694580078 13.83704376220703 13.83704376220703 C 10.43805694580078 17.23603057861328 7.769805908203125 21.19327163696289 5.906402587890625 25.59884643554688 C 3.97784423828125 30.1584587097168 2.999992370605469 35.00370025634766 2.999992370605469 39.99999237060547 C 2.999992370605469 44.99628448486328 3.97784423828125 49.84152603149414 5.906402587890625 54.40113830566406 C 7.769805908203125 58.80671310424805 10.43805694580078 62.76395416259766 13.83704376220703 66.16294097900391 C 17.23603057861328 69.56191253662109 21.19327163696289 72.23016357421875 25.59884643554688 74.09356689453125 C 30.1584587097168 76.02212524414062 35.00370025634766 76.99997711181641 39.99999237060547 76.99997711181641 C 44.99628448486328 76.99997711181641 49.84152603149414 76.02212524414062 54.40113830566406 74.09356689453125 C 58.80671310424805 72.23016357421875 62.76395416259766 69.56191253662109 66.16294097900391 66.16294097900391 C 69.56191253662109 62.76395416259766 72.23016357421875 58.80671310424805 74.09356689453125 54.40113830566406 C 76.02212524414062 49.84152603149414 76.99997711181641 44.99628448486328 76.99997711181641 39.99999237060547 C 76.99997711181641 35.00370025634766 76.02212524414062 30.1584587097168 74.09356689453125 25.59884643554688 C 72.23016357421875 21.19327163696289 69.56191253662109 17.23603057861328 66.16294097900391 13.83704376220703 C 62.76395416259766 10.43805694580078 58.80671310424805 7.769805908203125 54.40113830566406 5.906402587890625 C 49.84152603149414 3.97784423828125 44.99628448486328 2.999992370605469 39.99999237060547 2.999992370605469 M 39.99999237060547 -7.62939453125e-06 C 62.09137725830078 -7.62939453125e-06 79.99997711181641 17.90860748291016 79.99997711181641 39.99999237060547 C 79.99997711181641 62.09137725830078 62.09137725830078 79.99997711181641 39.99999237060547 79.99997711181641 C 17.90860748291016 79.99997711181641 -7.62939453125e-06 62.09137725830078 -7.62939453125e-06 39.99999237060547 C -7.62939453125e-06 17.90860748291016 17.90860748291016 -7.62939453125e-06 39.99999237060547 -7.62939453125e-06 Z" stroke="none" fill="#83793c"/>
                                      </g>
                                    </g>
                                  </g>
                                </g>
                              </g>
                            </g>
                          </g>
                        </g>
                      </g>
                    </g>
                  </g>
                  <g id="g8115" transform="translate(215.793 2790.01)">
                    <g id="g8117" transform="translate(0 -682.665)">
                      <g id="g8119" clip-path="url(#clip-path)">
                        <g id="g8125" transform="translate(-33.259 0.709)">
                          <path id="path8127" d="M-338.457-377.826h-25.835v-25.108c5.31-7.679,37.755-5.416,25.835,25.108" transform="translate(364.292 406.667)" fill="#fbdf63"/>
                        </g>
                        <g id="g8129" transform="translate(-33.259 0.709)">
                          <path id="path8131" d="M-338.457-377.826h-.619c6.164-24.728-15.887-30.6-25.216-24.374v-.734c5.31-7.679,37.755-5.416,25.835,25.108" transform="translate(364.292 406.667)" fill="#f9d11f"/>
                        </g>
                      </g>
                    </g>
                    <g id="g8265" transform="translate(0 -682.665)">
                      <g id="g8267" clip-path="url(#clip-path)">
                        <g id="g8273" transform="translate(-33.259 51.036)">
                          <path id="path8275" d="M-338.457-377.654h-25.835v-25.1c5.31-7.676,37.755-5.413,25.835,25.1" transform="translate(364.292 406.481)" fill="#003343"/>
                        </g>
                        <g id="g8277" transform="translate(-33.259 51.036)">
                          <path id="path8279" d="M-338.457-377.654h-.619c6.164-24.717-15.887-30.585-25.216-24.362v-.734c5.31-7.676,37.755-5.413,25.835,25.1" transform="translate(364.292 406.481)" fill="#002439"/>
                        </g>
                      </g>
                    </g>
                    <g id="g8281" transform="translate(0 -682.665)">
                      <g id="g8283" clip-path="url(#clip-path)">
                        <g id="g8289" transform="translate(17.066 51.014)">
                          <path id="path8291" d="M-338.457-377.826h-25.835v-25.108c5.31-7.679,37.755-5.416,25.835,25.108" transform="translate(364.292 406.667)" fill="#ff7e50"/>
                        </g>
                        <g id="g8293" transform="translate(17.066 51.014)">
                          <path id="path8295" d="M-338.457-377.826h-.619c6.164-24.728-15.887-30.6-25.216-24.374v-.734c5.31-7.679,37.755-5.416,25.835,25.108" transform="translate(364.292 406.667)" fill="#ff6247"/>
                        </g>
                        <g id="g8297" transform="translate(2.941 54.225)">
                          <path id="path8299" d="M-233.028-131.751v15.573h-14.6c-12.2-25.649,14.6-34.273,14.6-15.573" transform="translate(250.816 141.808)" fill="#ffa68a"/>
                        </g>
                        <g id="g8301" transform="translate(2.941 54.225)">
                          <path id="path8303" d="M-233.028-131.751c-.9-16.1-20.23-9.82-14.176,15.573h-.427c-12.2-25.649,14.6-34.273,14.6-15.573" transform="translate(250.816 141.808)" fill="#ff7e50"/>
                        </g>
                      </g>
                    </g>
                  </g>
                </g>
              </g>
            </g>
          </g>
        </g>
      </g>
    </g>
    <g id="idea_543744" transform="translate(575.009 1267.853)">
      <path id="Trazado_1232177" data-name="Trazado 1232177" d="M97.871,144.754h0a18.762,18.762,0,0,0,18.762-18.762v-.178a18.762,18.762,0,0,0-18.762-18.762h0a18.762,18.762,0,0,0-18.762,18.762v.178A18.762,18.762,0,0,0,97.871,144.754Z" transform="translate(-9.49 -95.238)" fill="#ffc639"/>
      <path id="Trazado_1232178" data-name="Trazado 1232178" d="M186.707,437.233v5a2.144,2.144,0,0,0,2.144,2.144h9.4a2.144,2.144,0,0,0,2.144-2.144v-5Z" transform="translate(-105.213 -388.979)" fill="#2fba6a"/>
      <path id="Trazado_1232179" data-name="Trazado 1232179" d="M405.558,147.541v-6.369a1.55,1.55,0,0,1,1.545-1.545h0a1.55,1.55,0,0,1,1.545,1.545v6.369Z" transform="translate(-299.911 -124.218)" fill="#ff4a4a"/>
      <path id="Trazado_1232180" data-name="Trazado 1232180" d="M88.112,24.792,79.6,20.47,98.25,11,116.9,20.47l-8.526,4.33Z" transform="translate(-9.93 -9.786)" fill="#00298e"/>
      <path id="Trazado_1232181" data-name="Trazado 1232181" d="M163.21,89.987a8.992,8.992,0,0,1,6.245,2.513,9.026,9.026,0,0,1,9.8-1.784V83.038a31.505,31.505,0,0,0-19.629,0v7.689A8.993,8.993,0,0,1,163.21,89.987Z" transform="translate(-81.124 -72.479)" fill="#0049a0"/>
      <path id="Trazado_1232182" data-name="Trazado 1232182" d="M348.606,277.769a1.1,1.1,0,0,0,1.551-.175,14.162,14.162,0,0,0,3.045-9.489,1.1,1.1,0,1,0-2.2.1,11.956,11.956,0,0,1-2.566,8.012A1.1,1.1,0,0,0,348.606,277.769Z" transform="translate(-248.875 -237.58)"/>
      <path id="Trazado_1232183" data-name="Trazado 1232183" d="M325.024,368.8a1.1,1.1,0,0,0,1.249,1.82l.018-.012a1.1,1.1,0,0,0-1.249-1.82Z" transform="translate(-227.844 -327.919)"/>
      <path id="Trazado_1232184" data-name="Trazado 1232184" d="M69.559,269.26h0a1.1,1.1,0,0,0,0-2.207h-.021a1.1,1.1,0,0,0,0,2.207Z" transform="translate(0 -237.581)"/>
      <path id="Trazado_1232185" data-name="Trazado 1232185" d="M110.309,14.547v-3.9c0-.011,0-.022,0-.034s0-.016,0-.024a1.1,1.1,0,0,0-.608-.986L90.829.117a1.1,1.1,0,0,0-1,0L71.3,9.627a1.1,1.1,0,0,0,.011,1.97L78.145,15a19.4,19.4,0,0,0-1.671,1.451,19.779,19.779,0,0,0-5.562,10.056,1.1,1.1,0,1,0,2.158.462,17.58,17.58,0,0,1,4.944-8.937,17.2,17.2,0,0,1,1.578-1.36v1.571a1.1,1.1,0,0,0,1.542,1.013,7.933,7.933,0,0,1,8.635,1.56,1.1,1.1,0,0,0,1.528,0,7.934,7.934,0,0,1,8.616-1.568,1.1,1.1,0,0,0,1.539-1.014V16.969a17.2,17.2,0,0,1,1.509,1.369,17.717,17.717,0,0,1-.139,24.83,17.422,17.422,0,0,1-6.139,3.983H93.089V41.942c0-1.327.148-2.069.481-2.406s1.137-.509,2.5-.509a4.3,4.3,0,1,0-4.3-4.3,1.1,1.1,0,0,0,2.207,0,2.1,2.1,0,1,1,2.1,2.1c-1.442,0-3.054.138-4.068,1.163a5.44,5.44,0,0,0-1.119,3.958V47.15h-1.1V41.942a5.44,5.44,0,0,0-1.119-3.958c-1.014-1.025-2.626-1.163-4.068-1.163a2.1,2.1,0,1,1,2.1-2.1,1.1,1.1,0,1,0,2.207,0,4.3,4.3,0,1,0-4.3,4.3c1.361,0,2.155.162,2.5.509s.481,1.078.481,2.406V47.15H83.99A17.621,17.621,0,0,1,73,34.071a1.1,1.1,0,1,0-2.167.422A19.845,19.845,0,0,0,82.4,48.889v4.369a3.251,3.251,0,0,0,3.248,3.248h9.4A3.251,3.251,0,0,0,98.3,53.258V48.875A19.833,19.833,0,0,0,110.2,30.793a19.9,19.9,0,0,0-1-6.367h1.551a1.1,1.1,0,0,0,1.1-1.1V16.954A2.652,2.652,0,0,0,110.309,14.547ZM96.088,53.258a1.042,1.042,0,0,1-1.04,1.04h-9.4a1.042,1.042,0,0,1-1.04-1.04v-.326H89.23a1.1,1.1,0,1,0,0-2.207H84.611V49.358H96.088v3.9ZM90.338,2.341l16.41,8.251-5.3,2.661V10.547A1.1,1.1,0,0,0,100.7,9.5a36.859,36.859,0,0,0-7.123-1.462l-.019,0c-.076-.007-1.881-.16-3.222-.16s-2.645.139-2.749.151A36.874,36.874,0,0,0,80.347,9.5a1.1,1.1,0,0,0-.755,1.047v2.71l-5.339-2.663ZM99.246,16.7a10.156,10.156,0,0,0-8.712,1.859A10.156,10.156,0,0,0,81.8,16.707V11.368a36.258,36.258,0,0,1,6.009-1.146h.01c.013,0,1.285-.138,2.515-.138,1.2,0,2.885.14,3.024.152a36.323,36.323,0,0,1,5.888,1.134Zm5.294.092a19.4,19.4,0,0,0-1.874-1.681l5.436-2.732v2.166a2.652,2.652,0,0,0-1.545,2.407v2.255A20.09,20.09,0,0,0,104.54,16.794Zm5.107,5.425h-.883V16.954a.441.441,0,1,1,.883,0Z" transform="translate(-2.013 0)"/>
      <path id="Trazado_1232186" data-name="Trazado 1232186" d="M267.069,461.824h.052a1.1,1.1,0,1,0,0-2.207h-.052a1.1,1.1,0,1,0,0,2.207Z" transform="translate(-175.724 -408.893)"/>
    </g>
  </g>
</svg>
