<svg xmlns="http://www.w3.org/2000/svg" xmlns:xlink="http://www.w3.org/1999/xlink" width="98" height="98" viewBox="0 0 98 98">
  <defs>
    <filter id="Trazado_982547" x="0" y="0" width="98" height="98" filterUnits="userSpaceOnUse">
      <feOffset dy="3" input="SourceAlpha"/>
      <feGaussianBlur stdDeviation="3" result="blur"/>
      <feFlood flood-opacity="0.161"/>
      <feComposite operator="in" in2="blur"/>
      <feComposite in="SourceGraphic"/>
    </filter>
    <clipPath id="clip-path">
      <path id="path8121" d="M0-682.665H48.414v48.414H0Z" transform="translate(0 682.665)"/>
    </clipPath>
  </defs>
  <g id="Grupo_1231268" data-name="Grupo 1231268" transform="translate(-196.016 -1419.047)">
    <g id="Grupo_1230064" data-name="Grupo 1230064" transform="translate(0 254.105)">
      <g id="Grupo_1230049" data-name="Grupo 1230049">
        <g id="Grupo_1229405" data-name="Grupo 1229405" transform="translate(0.016 -5854.171)">
          <g id="Grupo_1208936" data-name="Grupo 1208936" transform="translate(5 5098.279)">
            <g id="Grupo_1208171" data-name="Grupo 1208171" transform="translate(0 -2047.18)">
              <g id="Grupo_1207739" data-name="Grupo 1207739" transform="translate(0 1882.462)">
                <g id="Grupo_1207712" data-name="Grupo 1207712">
                  <g id="Grupo_1207285" data-name="Grupo 1207285" transform="translate(0 344.552)">
                    <g id="Grupo_1206883" data-name="Grupo 1206883" transform="translate(0 -209)">
                      <g id="Grupo_1204569" data-name="Grupo 1204569" transform="translate(-81 -1890.336)">
                        <g id="Grupo_1203962" data-name="Grupo 1203962" transform="translate(281 3846.336)">
                          <g id="Grupo_1203498" data-name="Grupo 1203498" transform="translate(0)">
                            <g id="Grupo_1202589" data-name="Grupo 1202589">
                              <g id="Grupo_1172010" data-name="Grupo 1172010">
                                <g id="Grupo_1171046" data-name="Grupo 1171046">
                                  <g id="Grupo_1148525" data-name="Grupo 1148525">
                                    <g transform="matrix(1, 0, 0, 1, -9, -6)" filter="url(#Trazado_982547)">
                                      <g id="Trazado_982547-2" data-name="Trazado 982547" transform="translate(9 6)" fill="#fdfbec">
                                        <path d="M 39.99999237060547 78.49998474121094 C 34.8018684387207 78.49998474121094 29.76002502441406 77.48226165771484 25.0145263671875 75.47508239746094 C 20.43014717102051 73.53604888916016 16.31264877319336 70.75984954833984 12.77639198303223 67.22359466552734 C 9.240137100219727 63.68733596801758 6.463936805725098 59.5698356628418 4.524903297424316 54.98546981811523 C 2.517725706100464 50.23995971679688 1.500003457069397 45.19811630249023 1.500003457069397 39.99999237060547 C 1.500003457069397 34.8018684387207 2.517725706100464 29.76002502441406 4.524903297424316 25.0145263671875 C 6.463936805725098 20.43014717102051 9.240137100219727 16.31264877319336 12.77639198303223 12.77639198303223 C 16.31264877319336 9.240137100219727 20.43014717102051 6.463936805725098 25.0145263671875 4.524903297424316 C 29.76002502441406 2.517725706100464 34.8018684387207 1.500003457069397 39.99999237060547 1.500003457069397 C 45.19811630249023 1.500003457069397 50.23995971679688 2.517725706100464 54.98546981811523 4.524903297424316 C 59.5698356628418 6.463936805725098 63.68733596801758 9.240137100219727 67.22359466552734 12.77639198303223 C 70.75984954833984 16.31264877319336 73.53604888916016 20.43014717102051 75.47508239746094 25.0145263671875 C 77.48226165771484 29.76002502441406 78.49998474121094 34.8018684387207 78.49998474121094 39.99999237060547 C 78.49998474121094 45.19812393188477 77.48226165771484 50.23995971679688 75.47508239746094 54.98546981811523 C 73.53604888916016 59.5698356628418 70.75984954833984 63.68733596801758 67.22359466552734 67.22359466552734 C 63.68733596801758 70.75984954833984 59.5698356628418 73.53604888916016 54.98546981811523 75.47508239746094 C 50.23995971679688 77.48226165771484 45.19812393188477 78.49998474121094 39.99999237060547 78.49998474121094 Z" stroke="none"/>
                                        <path d="M 39.99999237060547 2.999992370605469 C 35.00370025634766 2.999992370605469 30.1584587097168 3.97784423828125 25.59884643554688 5.906402587890625 C 21.19327163696289 7.769805908203125 17.23603057861328 10.43805694580078 13.83704376220703 13.83704376220703 C 10.43805694580078 17.23603057861328 7.769805908203125 21.19327163696289 5.906402587890625 25.59884643554688 C 3.97784423828125 30.1584587097168 2.999992370605469 35.00370025634766 2.999992370605469 39.99999237060547 C 2.999992370605469 44.99628448486328 3.97784423828125 49.84152603149414 5.906402587890625 54.40113830566406 C 7.769805908203125 58.80671310424805 10.43805694580078 62.76395416259766 13.83704376220703 66.16294097900391 C 17.23603057861328 69.56191253662109 21.19327163696289 72.23016357421875 25.59884643554688 74.09356689453125 C 30.1584587097168 76.02212524414062 35.00370025634766 76.99997711181641 39.99999237060547 76.99997711181641 C 44.99628448486328 76.99997711181641 49.84152603149414 76.02212524414062 54.40113830566406 74.09356689453125 C 58.80671310424805 72.23016357421875 62.76395416259766 69.56191253662109 66.16294097900391 66.16294097900391 C 69.56191253662109 62.76395416259766 72.23016357421875 58.80671310424805 74.09356689453125 54.40113830566406 C 76.02212524414062 49.84152603149414 76.99997711181641 44.99628448486328 76.99997711181641 39.99999237060547 C 76.99997711181641 35.00370025634766 76.02212524414062 30.1584587097168 74.09356689453125 25.59884643554688 C 72.23016357421875 21.19327163696289 69.56191253662109 17.23603057861328 66.16294097900391 13.83704376220703 C 62.76395416259766 10.43805694580078 58.80671310424805 7.769805908203125 54.40113830566406 5.906402587890625 C 49.84152603149414 3.97784423828125 44.99628448486328 2.999992370605469 39.99999237060547 2.999992370605469 M 39.99999237060547 -7.62939453125e-06 C 62.09137725830078 -7.62939453125e-06 79.99997711181641 17.90860748291016 79.99997711181641 39.99999237060547 C 79.99997711181641 62.09137725830078 62.09137725830078 79.99997711181641 39.99999237060547 79.99997711181641 C 17.90860748291016 79.99997711181641 -7.62939453125e-06 62.09137725830078 -7.62939453125e-06 39.99999237060547 C -7.62939453125e-06 17.90860748291016 17.90860748291016 -7.62939453125e-06 39.99999237060547 -7.62939453125e-06 Z" stroke="none" fill="#83793c"/>
                                      </g>
                                    </g>
                                  </g>
                                </g>
                              </g>
                            </g>
                          </g>
                        </g>
                      </g>
                    </g>
                  </g>
                  <g id="g8115" transform="translate(215.793 2790.01)">
                    <g id="g8117" transform="translate(0 -682.665)">
                      <g id="g8119" clip-path="url(#clip-path)">
                        <g id="g8125" transform="translate(-33.259 0.709)">
                          <path id="path8127" d="M-338.457-377.826h-25.835v-25.108c5.31-7.679,37.755-5.416,25.835,25.108" transform="translate(364.292 406.667)" fill="#fbdf63"/>
                        </g>
                        <g id="g8129" transform="translate(-33.259 0.709)">
                          <path id="path8131" d="M-338.457-377.826h-.619c6.164-24.728-15.887-30.6-25.216-24.374v-.734c5.31-7.679,37.755-5.416,25.835,25.108" transform="translate(364.292 406.667)" fill="#f9d11f"/>
                        </g>
                      </g>
                    </g>
                    <g id="g8265" transform="translate(0 -682.665)">
                      <g id="g8267" clip-path="url(#clip-path)">
                        <g id="g8273" transform="translate(-33.259 51.036)">
                          <path id="path8275" d="M-338.457-377.654h-25.835v-25.1c5.31-7.676,37.755-5.413,25.835,25.1" transform="translate(364.292 406.481)" fill="#003343"/>
                        </g>
                        <g id="g8277" transform="translate(-33.259 51.036)">
                          <path id="path8279" d="M-338.457-377.654h-.619c6.164-24.717-15.887-30.585-25.216-24.362v-.734c5.31-7.676,37.755-5.413,25.835,25.1" transform="translate(364.292 406.481)" fill="#002439"/>
                        </g>
                      </g>
                    </g>
                    <g id="g8281" transform="translate(0 -682.665)">
                      <g id="g8283" clip-path="url(#clip-path)">
                        <g id="g8289" transform="translate(17.066 51.014)">
                          <path id="path8291" d="M-338.457-377.826h-25.835v-25.108c5.31-7.679,37.755-5.416,25.835,25.108" transform="translate(364.292 406.667)" fill="#ff7e50"/>
                        </g>
                        <g id="g8293" transform="translate(17.066 51.014)">
                          <path id="path8295" d="M-338.457-377.826h-.619c6.164-24.728-15.887-30.6-25.216-24.374v-.734c5.31-7.679,37.755-5.416,25.835,25.108" transform="translate(364.292 406.667)" fill="#ff6247"/>
                        </g>
                        <g id="g8297" transform="translate(2.941 54.225)">
                          <path id="path8299" d="M-233.028-131.751v15.573h-14.6c-12.2-25.649,14.6-34.273,14.6-15.573" transform="translate(250.816 141.808)" fill="#ffa68a"/>
                        </g>
                        <g id="g8301" transform="translate(2.941 54.225)">
                          <path id="path8303" d="M-233.028-131.751c-.9-16.1-20.23-9.82-14.176,15.573h-.427c-12.2-25.649,14.6-34.273,14.6-15.573" transform="translate(250.816 141.808)" fill="#ff7e50"/>
                        </g>
                      </g>
                    </g>
                  </g>
                </g>
              </g>
            </g>
          </g>
        </g>
      </g>
    </g>
    <g id="examen_1_" data-name="examen (1)" transform="translate(207.229 1442.947)">
      <g id="Grupo_1231266" data-name="Grupo 1231266" transform="translate(15.757 0.708)">
        <g id="Grupo_1231264" data-name="Grupo 1231264" transform="translate(0)">
          <g id="Grupo_1231263" data-name="Grupo 1231263" transform="translate(0 6.853)">
            <g id="Grupo_1231262" data-name="Grupo 1231262">
              <g id="Grupo_1231261" data-name="Grupo 1231261">
                <g id="Grupo_1231260" data-name="Grupo 1231260">
                  <g id="Grupo_1231259" data-name="Grupo 1231259">
                    <g id="Grupo_1231254" data-name="Grupo 1231254" transform="translate(12.953 28.382)">
                      <path id="Trazado_1232197" data-name="Trazado 1232197" d="M215.672,389.886h-8.366l1.172-9H214.5Z" transform="translate(-202.825 -380.884)" fill="#c1bcc4"/>
                      <path id="Trazado_1232198" data-name="Trazado 1232198" d="M159.817,461.074a3.061,3.061,0,0,1,3.061-3.061h11.207a3.061,3.061,0,0,1,3.061,3.061,1.326,1.326,0,0,1-1.326,1.326H161.143A1.326,1.326,0,0,1,159.817,461.074Z" transform="translate(-159.817 -450.735)" fill="#f7f4f7"/>
                      <path id="Trazado_1232199" data-name="Trazado 1232199" d="M251.853,458.013h-6.165a3.061,3.061,0,0,1,3.061,3.061,1.326,1.326,0,0,1-1.326,1.326h6.165a1.326,1.326,0,0,0,1.326-1.326A3.061,3.061,0,0,0,251.853,458.013Z" transform="translate(-237.585 -450.735)" fill="#edeaed"/>
                    </g>
                    <g id="Grupo_1231256" data-name="Grupo 1231256" transform="translate(0 0)">
                      <g id="Grupo_1231255" data-name="Grupo 1231255">
                        <path id="Trazado_1232200" data-name="Trazado 1232200" d="M63.733,111.633H25.425a2.876,2.876,0,0,1-2.876-2.876V82.994a2.876,2.876,0,0,1,2.876-2.876H63.733a2.876,2.876,0,0,1,2.876,2.876v25.764A2.876,2.876,0,0,1,63.733,111.633Z" transform="translate(-22.549 -80.118)" fill="#bed8fb"/>
                        <path id="Trazado_1232201" data-name="Trazado 1232201" d="M22.55,359.6v2.266a2.876,2.876,0,0,0,2.876,2.876H63.734a2.876,2.876,0,0,0,2.876-2.876V359.6Z" transform="translate(-22.55 -333.227)" fill="#f7f4f7"/>
                      </g>
                    </g>
                    <g id="Grupo_1231258" data-name="Grupo 1231258" transform="translate(35.019)">
                      <g id="Grupo_1231257" data-name="Grupo 1231257">
                        <path id="Trazado_1232202" data-name="Trazado 1232202" d="M399.813,80.118h-6.165a2.876,2.876,0,0,1,2.876,2.876v25.764a2.876,2.876,0,0,1-2.876,2.876h6.165a2.876,2.876,0,0,0,2.876-2.876V82.994A2.876,2.876,0,0,0,399.813,80.118Z" transform="translate(-393.648 -80.118)" fill="#9dc6fb"/>
                        <path id="Trazado_1232203" data-name="Trazado 1232203" d="M396.524,359.6v2.266a2.876,2.876,0,0,1-2.876,2.876h6.165a2.876,2.876,0,0,0,2.876-2.876V359.6Z" transform="translate(-393.648 -333.227)" fill="#edeaed"/>
                      </g>
                    </g>
                  </g>
                </g>
              </g>
            </g>
          </g>
          <path id="Trazado_1232204" data-name="Trazado 1232204" d="M87.877,9.037V40.726h31.73V9.037A1.537,1.537,0,0,0,118.07,7.5H89.414A1.537,1.537,0,0,0,87.877,9.037Z" transform="translate(-81.712 -7.5)" fill="#edeaed"/>
          <path id="Trazado_1232205" data-name="Trazado 1232205" d="M348.668,7.5H342.5a1.537,1.537,0,0,1,1.537,1.537V40.726h6.165V9.037A1.537,1.537,0,0,0,348.668,7.5Z" transform="translate(-312.31 -7.5)" fill="#e0dde0"/>
        </g>
        <g id="Grupo_1231265" data-name="Grupo 1231265" transform="translate(10.028 4.572)">
          <path id="Trazado_1232206" data-name="Trazado 1232206" d="M132.89,60.724h-3.363a.708.708,0,0,1-.708-.708V56.653a.708.708,0,0,1,.708-.708h3.363a.708.708,0,0,1,.708.708v3.363A.708.708,0,0,1,132.89,60.724Z" transform="translate(-128.819 -55.945)" fill="#ecbe6b"/>
          <path id="Trazado_1232207" data-name="Trazado 1232207" d="M132.89,163.005h-3.363a.708.708,0,0,1-.708-.708v-3.363a.708.708,0,0,1,.708-.708h3.363a.708.708,0,0,1,.708.708V162.3A.708.708,0,0,1,132.89,163.005Z" transform="translate(-128.819 -148.574)" fill="#9bc4f9"/>
          <path id="Trazado_1232208" data-name="Trazado 1232208" d="M132.89,265.287h-3.363a.708.708,0,0,1-.708-.708v-3.363a.708.708,0,0,1,.708-.708h3.363a.708.708,0,0,1,.708.708v3.363A.708.708,0,0,1,132.89,265.287Z" transform="translate(-128.819 -241.204)" fill="#b3e59f"/>
        </g>
      </g>
      <g id="Grupo_1231267" data-name="Grupo 1231267" transform="translate(15.049 0)">
        <path id="Trazado_1232209" data-name="Trazado 1232209" d="M237.383,55.417H223.544a.708.708,0,1,0,0,1.415h13.839a.708.708,0,0,0,0-1.415Z" transform="translate(-203.228 -50.188)"/>
        <path id="Trazado_1232210" data-name="Trazado 1232210" d="M223.544,91.233h9.97a.708.708,0,1,0,0-1.415h-9.97a.708.708,0,1,0,0,1.415Z" transform="translate(-203.228 -81.342)"/>
        <path id="Trazado_1232211" data-name="Trazado 1232211" d="M237.383,158.85H223.544a.708.708,0,1,0,0,1.415h13.839a.708.708,0,0,0,0-1.415Z" transform="translate(-203.228 -143.86)"/>
        <path id="Trazado_1232212" data-name="Trazado 1232212" d="M223.544,194.667h9.97a.708.708,0,1,0,0-1.415h-9.97a.708.708,0,1,0,0,1.415Z" transform="translate(-203.228 -175.015)"/>
        <path id="Trazado_1232213" data-name="Trazado 1232213" d="M237.383,263.7H223.544a.708.708,0,1,0,0,1.415h13.839a.708.708,0,0,0,0-1.415Z" transform="translate(-203.228 -238.817)"/>
        <path id="Trazado_1232214" data-name="Trazado 1232214" d="M233.514,298.1h-9.97a.708.708,0,1,0,0,1.415h9.97a.708.708,0,1,0,0-1.415Z" transform="translate(-203.228 -269.972)"/>
        <path id="Trazado_1232215" data-name="Trazado 1232215" d="M56.941,6.853H54.359V2.245A2.248,2.248,0,0,0,52.114,0H23.459a2.248,2.248,0,0,0-2.245,2.245V6.853H18.633a3.588,3.588,0,0,0-3.584,3.584V36.2a3.588,3.588,0,0,0,3.584,3.584H33.15l-.355,2.73H31.771A3.773,3.773,0,0,0,28,46.281a2.036,2.036,0,0,0,2.034,2.034H44.713a2.036,2.036,0,0,0,2.034-2.034,3.773,3.773,0,0,0-3.768-3.768H41.954l-.355-2.73H56.941A3.588,3.588,0,0,0,60.524,36.2V10.436a3.587,3.587,0,0,0-3.583-3.583ZM42.978,43.929a2.356,2.356,0,0,1,2.353,2.353.619.619,0,0,1-.618.618H30.036a.619.619,0,0,1-.618-.618,2.356,2.356,0,0,1,2.353-2.353Zm-8.756-1.415.355-2.73h5.594l.355,2.73ZM59.109,36.2a2.171,2.171,0,0,1-2.168,2.168H18.633A2.171,2.171,0,0,1,16.465,36.2V34.642H59.108V36.2Zm0-2.974H54.359V23.388a.708.708,0,0,0-1.415,0v9.838H22.629V14.143a.708.708,0,1,0-1.415,0V33.226H16.465V10.436a2.171,2.171,0,0,1,2.168-2.168h2.581v2.566a.708.708,0,1,0,1.415,0V2.245a.831.831,0,0,1,.83-.83H52.114a.831.831,0,0,1,.83.83V20.085a.708.708,0,1,0,1.415,0V8.268h2.581a2.171,2.171,0,0,1,2.168,2.168v22.79Z" transform="translate(-15.049 0)"/>
        <path id="Trazado_1232216" data-name="Trazado 1232216" d="M126.1,48.446h-3.363a1.418,1.418,0,0,0-1.416,1.416v3.363a1.418,1.418,0,0,0,1.416,1.416H126.1a1.418,1.418,0,0,0,1.416-1.416V49.862A1.418,1.418,0,0,0,126.1,48.446Zm0,4.779h-3.363V49.861H126.1v3.363Z" transform="translate(-111.291 -43.874)"/>
        <path id="Trazado_1232217" data-name="Trazado 1232217" d="M126.1,150.727h-3.363a1.418,1.418,0,0,0-1.416,1.416v3.363a1.418,1.418,0,0,0,1.416,1.416H126.1a1.418,1.418,0,0,0,1.416-1.416v-3.363A1.418,1.418,0,0,0,126.1,150.727Zm0,4.779h-3.363v-3.363H126.1v3.363Z" transform="translate(-111.291 -136.504)"/>
        <path id="Trazado_1232218" data-name="Trazado 1232218" d="M126.1,253.009h-3.363a1.418,1.418,0,0,0-1.416,1.416v3.363a1.418,1.418,0,0,0,1.416,1.416H126.1a1.418,1.418,0,0,0,1.416-1.416v-3.363A1.418,1.418,0,0,0,126.1,253.009Zm0,4.779h-3.363v-3.363H126.1v3.363Z" transform="translate(-111.291 -229.134)"/>
      </g>
    </g>
  </g>
</svg>
