<svg xmlns="http://www.w3.org/2000/svg" xmlns:xlink="http://www.w3.org/1999/xlink" width="98" height="98" viewBox="0 0 98 98">
  <defs>
    <filter id="Trazado_982547" x="0" y="0" width="98" height="98" filterUnits="userSpaceOnUse">
      <feOffset dy="3" input="SourceAlpha"/>
      <feGaussianBlur stdDeviation="3" result="blur"/>
      <feFlood flood-opacity="0.161"/>
      <feComposite operator="in" in2="blur"/>
      <feComposite in="SourceGraphic"/>
    </filter>
    <clipPath id="clip-path">
      <path id="path8121" d="M0-682.665H48.414v48.414H0Z" transform="translate(0 682.665)"/>
    </clipPath>
  </defs>
  <g id="Grupo_1231275" data-name="Grupo 1231275" transform="translate(-615.151 -1421.105)">
    <g id="Grupo_1230065" data-name="Grupo 1230065" transform="translate(0 254.105)">
      <g id="Grupo_1230050" data-name="Grupo 1230050" transform="translate(419.135 2.058)">
        <g id="Grupo_1229405" data-name="Grupo 1229405" transform="translate(0.016 -5854.171)">
          <g id="Grupo_1208936" data-name="Grupo 1208936" transform="translate(5 5098.279)">
            <g id="Grupo_1208171" data-name="Grupo 1208171" transform="translate(0 -2047.18)">
              <g id="Grupo_1207739" data-name="Grupo 1207739" transform="translate(0 1882.462)">
                <g id="Grupo_1207712" data-name="Grupo 1207712">
                  <g id="Grupo_1207285" data-name="Grupo 1207285" transform="translate(0 344.552)">
                    <g id="Grupo_1206883" data-name="Grupo 1206883" transform="translate(0 -209)">
                      <g id="Grupo_1204569" data-name="Grupo 1204569" transform="translate(-81 -1890.336)">
                        <g id="Grupo_1203962" data-name="Grupo 1203962" transform="translate(281 3846.336)">
                          <g id="Grupo_1203498" data-name="Grupo 1203498" transform="translate(0)">
                            <g id="Grupo_1202589" data-name="Grupo 1202589">
                              <g id="Grupo_1172010" data-name="Grupo 1172010">
                                <g id="Grupo_1171046" data-name="Grupo 1171046">
                                  <g id="Grupo_1148525" data-name="Grupo 1148525">
                                    <g transform="matrix(1, 0, 0, 1, -9, -6)" filter="url(#Trazado_982547)">
                                      <g id="Trazado_982547-2" data-name="Trazado 982547" transform="translate(9 6)" fill="#fdfbec">
                                        <path d="M 39.99999237060547 78.49998474121094 C 34.8018684387207 78.49998474121094 29.76002502441406 77.48226165771484 25.0145263671875 75.47508239746094 C 20.43014717102051 73.53604888916016 16.31264877319336 70.75984954833984 12.77639198303223 67.22359466552734 C 9.240137100219727 63.68733596801758 6.463936805725098 59.5698356628418 4.524903297424316 54.98546981811523 C 2.517725706100464 50.23995971679688 1.500003457069397 45.19811630249023 1.500003457069397 39.99999237060547 C 1.500003457069397 34.8018684387207 2.517725706100464 29.76002502441406 4.524903297424316 25.0145263671875 C 6.463936805725098 20.43014717102051 9.240137100219727 16.31264877319336 12.77639198303223 12.77639198303223 C 16.31264877319336 9.240137100219727 20.43014717102051 6.463936805725098 25.0145263671875 4.524903297424316 C 29.76002502441406 2.517725706100464 34.8018684387207 1.500003457069397 39.99999237060547 1.500003457069397 C 45.19811630249023 1.500003457069397 50.23995971679688 2.517725706100464 54.98546981811523 4.524903297424316 C 59.5698356628418 6.463936805725098 63.68733596801758 9.240137100219727 67.22359466552734 12.77639198303223 C 70.75984954833984 16.31264877319336 73.53604888916016 20.43014717102051 75.47508239746094 25.0145263671875 C 77.48226165771484 29.76002502441406 78.49998474121094 34.8018684387207 78.49998474121094 39.99999237060547 C 78.49998474121094 45.19812393188477 77.48226165771484 50.23995971679688 75.47508239746094 54.98546981811523 C 73.53604888916016 59.5698356628418 70.75984954833984 63.68733596801758 67.22359466552734 67.22359466552734 C 63.68733596801758 70.75984954833984 59.5698356628418 73.53604888916016 54.98546981811523 75.47508239746094 C 50.23995971679688 77.48226165771484 45.19812393188477 78.49998474121094 39.99999237060547 78.49998474121094 Z" stroke="none"/>
                                        <path d="M 39.99999237060547 2.999992370605469 C 35.00370025634766 2.999992370605469 30.1584587097168 3.97784423828125 25.59884643554688 5.906402587890625 C 21.19327163696289 7.769805908203125 17.23603057861328 10.43805694580078 13.83704376220703 13.83704376220703 C 10.43805694580078 17.23603057861328 7.769805908203125 21.19327163696289 5.906402587890625 25.59884643554688 C 3.97784423828125 30.1584587097168 2.999992370605469 35.00370025634766 2.999992370605469 39.99999237060547 C 2.999992370605469 44.99628448486328 3.97784423828125 49.84152603149414 5.906402587890625 54.40113830566406 C 7.769805908203125 58.80671310424805 10.43805694580078 62.76395416259766 13.83704376220703 66.16294097900391 C 17.23603057861328 69.56191253662109 21.19327163696289 72.23016357421875 25.59884643554688 74.09356689453125 C 30.1584587097168 76.02212524414062 35.00370025634766 76.99997711181641 39.99999237060547 76.99997711181641 C 44.99628448486328 76.99997711181641 49.84152603149414 76.02212524414062 54.40113830566406 74.09356689453125 C 58.80671310424805 72.23016357421875 62.76395416259766 69.56191253662109 66.16294097900391 66.16294097900391 C 69.56191253662109 62.76395416259766 72.23016357421875 58.80671310424805 74.09356689453125 54.40113830566406 C 76.02212524414062 49.84152603149414 76.99997711181641 44.99628448486328 76.99997711181641 39.99999237060547 C 76.99997711181641 35.00370025634766 76.02212524414062 30.1584587097168 74.09356689453125 25.59884643554688 C 72.23016357421875 21.19327163696289 69.56191253662109 17.23603057861328 66.16294097900391 13.83704376220703 C 62.76395416259766 10.43805694580078 58.80671310424805 7.769805908203125 54.40113830566406 5.906402587890625 C 49.84152603149414 3.97784423828125 44.99628448486328 2.999992370605469 39.99999237060547 2.999992370605469 M 39.99999237060547 -7.62939453125e-06 C 62.09137725830078 -7.62939453125e-06 79.99997711181641 17.90860748291016 79.99997711181641 39.99999237060547 C 79.99997711181641 62.09137725830078 62.09137725830078 79.99997711181641 39.99999237060547 79.99997711181641 C 17.90860748291016 79.99997711181641 -7.62939453125e-06 62.09137725830078 -7.62939453125e-06 39.99999237060547 C -7.62939453125e-06 17.90860748291016 17.90860748291016 -7.62939453125e-06 39.99999237060547 -7.62939453125e-06 Z" stroke="none" fill="#83793c"/>
                                      </g>
                                    </g>
                                  </g>
                                </g>
                              </g>
                            </g>
                          </g>
                        </g>
                      </g>
                    </g>
                  </g>
                  <g id="g8115" transform="translate(215.793 2790.01)">
                    <g id="g8117" transform="translate(0 -682.665)">
                      <g id="g8119" clip-path="url(#clip-path)">
                        <g id="g8125" transform="translate(-33.259 0.709)">
                          <path id="path8127" d="M-338.457-377.826h-25.835v-25.108c5.31-7.679,37.755-5.416,25.835,25.108" transform="translate(364.292 406.667)" fill="#fbdf63"/>
                        </g>
                        <g id="g8129" transform="translate(-33.259 0.709)">
                          <path id="path8131" d="M-338.457-377.826h-.619c6.164-24.728-15.887-30.6-25.216-24.374v-.734c5.31-7.679,37.755-5.416,25.835,25.108" transform="translate(364.292 406.667)" fill="#f9d11f"/>
                        </g>
                      </g>
                    </g>
                    <g id="g8265" transform="translate(0 -682.665)">
                      <g id="g8267" clip-path="url(#clip-path)">
                        <g id="g8273" transform="translate(-33.259 51.036)">
                          <path id="path8275" d="M-338.457-377.654h-25.835v-25.1c5.31-7.676,37.755-5.413,25.835,25.1" transform="translate(364.292 406.481)" fill="#003343"/>
                        </g>
                        <g id="g8277" transform="translate(-33.259 51.036)">
                          <path id="path8279" d="M-338.457-377.654h-.619c6.164-24.717-15.887-30.585-25.216-24.362v-.734c5.31-7.676,37.755-5.413,25.835,25.1" transform="translate(364.292 406.481)" fill="#002439"/>
                        </g>
                      </g>
                    </g>
                    <g id="g8281" transform="translate(0 -682.665)">
                      <g id="g8283" clip-path="url(#clip-path)">
                        <g id="g8289" transform="translate(17.066 51.014)">
                          <path id="path8291" d="M-338.457-377.826h-25.835v-25.108c5.31-7.679,37.755-5.416,25.835,25.108" transform="translate(364.292 406.667)" fill="#ff7e50"/>
                        </g>
                        <g id="g8293" transform="translate(17.066 51.014)">
                          <path id="path8295" d="M-338.457-377.826h-.619c6.164-24.728-15.887-30.6-25.216-24.374v-.734c5.31-7.679,37.755-5.416,25.835,25.108" transform="translate(364.292 406.667)" fill="#ff6247"/>
                        </g>
                        <g id="g8297" transform="translate(2.941 54.225)">
                          <path id="path8299" d="M-233.028-131.751v15.573h-14.6c-12.2-25.649,14.6-34.273,14.6-15.573" transform="translate(250.816 141.808)" fill="#ffa68a"/>
                        </g>
                        <g id="g8301" transform="translate(2.941 54.225)">
                          <path id="path8303" d="M-233.028-131.751c-.9-16.1-20.23-9.82-14.176,15.573h-.427c-12.2-25.649,14.6-34.273,14.6-15.573" transform="translate(250.816 141.808)" fill="#ff7e50"/>
                        </g>
                      </g>
                    </g>
                  </g>
                </g>
              </g>
            </g>
          </g>
        </g>
      </g>
    </g>
    <g id="environmental-education_13441814" transform="translate(630.277 1434.386)">
      <g id="Grupo_1231270" data-name="Grupo 1231270" transform="translate(9.039 7.768)">
        <circle id="Elipse_11568" data-name="Elipse 11568" cx="18.527" cy="18.527" r="18.527" transform="translate(6.292 0)" fill="#b6e6fa"/>
        <path id="Trazado_1232219" data-name="Trazado 1232219" d="M74.552,26.362A18.594,18.594,0,0,1,91.889,7.811c-.415-.028-.834-.043-1.256-.043a18.594,18.594,0,0,0,0,37.188c.422,0,.841-.015,1.256-.043A18.594,18.594,0,0,1,74.552,26.362Z" transform="translate(-65.707 -7.768)" fill="#54c9f3"/>
        <path id="Trazado_1232220" data-name="Trazado 1232220" d="M227.583,12.626l2.29,4.711h3.834l3.25-3.242A18.619,18.619,0,0,0,219.18,8.158l3.805,4.468Z" transform="translate(-198.059 -7.768)" fill="#b6efbb"/>
        <path id="Trazado_1232221" data-name="Trazado 1232221" d="M77.608,82.948l4.894-3.8-1.4-4.768H76.346A18.63,18.63,0,0,0,72.512,90.46L77.608,87Z" transform="translate(-65.707 -67.682)" fill="#b6efbb"/>
        <path id="Trazado_1232222" data-name="Trazado 1232222" d="M387.886,129.613l-4.815,1.818v2.178l2.33,2.352-1.025,3.855,3.354,2.9a18.662,18.662,0,0,0,.156-13.108Z" transform="translate(-345.478 -117.367)" fill="#b6efbb"/>
        <path id="Trazado_1232223" data-name="Trazado 1232223" d="M58.707,414l-.84-3.519-23.9,5.729L9.879,410.478,9.039,414,33.965,419.9Z" transform="translate(-9.039 -370.002)" fill="#ffaa81"/>
        <path id="Trazado_1232224" data-name="Trazado 1232224" d="M68.172,378.013h0a6.629,6.629,0,0,0-5.117-6.367l-15.027-3.588L47.068,373l21.1,5.017,21.1-5.059-.959-4.938-15.2,3.63a6.464,6.464,0,0,0-4.933,6.367h0" transform="translate(-43.246 -331.809)" fill="#fff"/>
        <g id="Grupo_1231269" data-name="Grupo 1231269" transform="translate(19.901 14.695)">
          <path id="Trazado_1232225" data-name="Trazado 1232225" d="M212.064,157.475a4.1,4.1,0,0,1,1.019-2.484c1.358-1.359,3.954-.966,3.954-.966s.393,2.6-.966,3.954-4.007.966-4.007.966-2.648.393-4.006-.966-.966-3.954-.966-3.954,2.6-.393,3.954.966a4.1,4.1,0,0,1,1.018,2.484" transform="translate(-207.039 -153.973)" fill="#feef8f"/>
        </g>
        <path id="Trazado_1232226" data-name="Trazado 1232226" d="M170.635,221.087s-5.606-.849-8.541,2.086a8.565,8.565,0,0,0-2.13,5.366,9.167,9.167,0,0,0-2.27-5.366c-2.935-2.935-8.541-2.086-8.541-2.086s-.849,5.606,2.086,8.541,8.795,2.086,8.795,2.086,5.58.849,8.515-2.086S170.635,221.087,170.635,221.087Z" transform="translate(-134.968 -199.545)" fill="#feef8f"/>
        <path id="Trazado_1232227" data-name="Trazado 1232227" d="M74.552,86.276a18.518,18.518,0,0,1,4.307-11.9H76.346A18.63,18.63,0,0,0,72.512,90.46l2.231-1.514A18.76,18.76,0,0,1,74.552,86.276Z" transform="translate(-65.707 -67.682)" fill="#54e072"/>
        <path id="Trazado_1232228" data-name="Trazado 1232228" d="M153.752,229.631c-2.935-2.935-2.086-8.541-2.086-8.541s.217-.033.588-.063a14.86,14.86,0,0,0-3.1.063s-.849,5.606,2.086,8.541c2.333,2.333,6.516,2.275,8.132,2.153A8.909,8.909,0,0,1,153.752,229.631Z" transform="translate(-134.968 -199.547)" fill="#f7d700"/>
        <path id="Trazado_1232229" data-name="Trazado 1232229" d="M260.318,231.713l-.07-3.175a8.564,8.564,0,0,1,2.13-5.366,8.67,8.67,0,0,1,5.441-2.149c-1.514-.124-5.6-.209-7.953,2.149a8.565,8.565,0,0,0-2.13,5.366l.07,3.175a14.729,14.729,0,0,0,3.093.063C260.532,231.745,260.318,231.713,260.318,231.713Z" transform="translate(-232.739 -199.543)" fill="#f7d700"/>
        <path id="Trazado_1232230" data-name="Trazado 1232230" d="M50.451,369.014l-2.424-.579-.959,4.938,2.607.62Z" transform="translate(-43.246 -332.185)" fill="#dededf"/>
        <path id="Trazado_1232231" data-name="Trazado 1232231" d="M12.5,411.1l-2.625-.624L9.039,414l2.633.624Z" transform="translate(-9.039 -370.002)" fill="#fe7732"/>
      </g>
      <g id="Grupo_1231273" data-name="Grupo 1231273" transform="translate(9.039 7.768)">
        <path id="Trazado_1232232" data-name="Trazado 1232232" d="M219.18,11.652l3.805,4.468h4.6l2.29,4.711h3.834l3.25-3.242" transform="translate(-198.059 -11.262)" fill="none" stroke="#000" stroke-miterlimit="10" stroke-width="1.5"/>
        <path id="Trazado_1232233" data-name="Trazado 1232233" d="M76.743,90.46,81.839,87V82.948l4.894-3.8-1.4-4.768H80.577" transform="translate(-69.938 -67.682)" fill="none" stroke="#000" stroke-miterlimit="10" stroke-width="1.5"/>
        <path id="Trazado_1232234" data-name="Trazado 1232234" d="M387.886,129.613l-4.814,1.818v2.178l2.33,2.352-1.025,3.855,3.354,2.9" transform="translate(-345.479 -117.367)" fill="none" stroke="#000" stroke-miterlimit="10" stroke-width="1.5"/>
        <path id="Trazado_1232235" data-name="Trazado 1232235" d="M54.47,415.01,58.707,414l-.84-3.52-23.9,5.729L9.879,410.478,9.039,414,33.965,419.9,53,415.36" transform="translate(-9.039 -370.002)" fill="none" stroke="#000" stroke-miterlimit="10" stroke-width="1.5"/>
        <g id="Grupo_1231271" data-name="Grupo 1231271" transform="translate(3.822 36.208)">
          <path id="Trazado_1232236" data-name="Trazado 1232236" d="M47.069,373.375l.959-4.937,3.99.953" transform="translate(-47.069 -368.396)" fill="none" stroke="#000" stroke-miterlimit="10" stroke-width="1.5"/>
          <path id="Trazado_1232237" data-name="Trazado 1232237" d="M110.929,381.408l9.567,2.284a6.629,6.629,0,0,1,5.118,6.367" transform="translate(-104.511 -380.062)" fill="none" stroke="#000" stroke-miterlimit="10" stroke-width="1.5"/>
          <path id="Trazado_1232238" data-name="Trazado 1232238" d="M278.135,372.955l-.959-4.938-15.2,3.63a6.464,6.464,0,0,0-4.933,6.367h0" transform="translate(-235.935 -368.017)" fill="none" stroke="#000" stroke-miterlimit="10" stroke-width="1.5"/>
        </g>
        <line id="Línea_632" data-name="Línea 632" y2="32.308" transform="translate(24.926 17.594)" fill="none" stroke="#000" stroke-miterlimit="10" stroke-width="1.5"/>
        <circle id="Elipse_11569" data-name="Elipse 11569" cx="18.527" cy="18.527" r="18.527" transform="translate(6.292 0)" fill="none" stroke="#000" stroke-miterlimit="10" stroke-width="1.5"/>
        <g id="Grupo_1231272" data-name="Grupo 1231272" transform="translate(19.901 14.695)">
          <path id="Trazado_1232239" data-name="Trazado 1232239" d="M212.064,157.475a4.1,4.1,0,0,1,1.019-2.484c1.358-1.359,3.954-.966,3.954-.966s.393,2.6-.966,3.954-4.007.966-4.007.966-2.648.393-4.006-.966-.966-3.954-.966-3.954,2.6-.393,3.954.966a4.1,4.1,0,0,1,1.018,2.484" transform="translate(-207.039 -153.973)" fill="none" stroke="#000" stroke-miterlimit="10" stroke-width="1.5"/>
        </g>
        <path id="Trazado_1232240" data-name="Trazado 1232240" d="M170.635,221.087s-5.606-.849-8.541,2.086a8.565,8.565,0,0,0-2.13,5.366,9.167,9.167,0,0,0-2.27-5.366c-2.935-2.935-8.541-2.086-8.541-2.086s-.849,5.606,2.086,8.541,8.795,2.086,8.795,2.086,5.58.849,8.515-2.086S170.635,221.087,170.635,221.087Z" transform="translate(-134.968 -199.545)" fill="none" stroke="#000" stroke-miterlimit="10" stroke-width="1.5"/>
        <line id="Línea_633" data-name="Línea 633" x1="10.601" y2="10.627" transform="translate(25.066 21.543)" fill="none" stroke="#000" stroke-miterlimit="10" stroke-width="1.5"/>
        <line id="Línea_634" data-name="Línea 634" x2="10.881" y2="10.667" transform="translate(14.185 21.543)" fill="none" stroke="#000" stroke-miterlimit="10" stroke-width="1.5"/>
      </g>
      <g id="Grupo_1231274" data-name="Grupo 1231274" transform="translate(31.704 18.149)">
        <line id="Línea_635" data-name="Línea 635" x2="1.508" fill="none" stroke="#000" stroke-miterlimit="10" stroke-width="1.5"/>
        <line id="Línea_636" data-name="Línea 636" x2="1.508" transform="translate(3.015)" fill="none" stroke="#000" stroke-miterlimit="10" stroke-width="1.5"/>
      </g>
    </g>
  </g>
</svg>
