<svg xmlns="http://www.w3.org/2000/svg" xmlns:xlink="http://www.w3.org/1999/xlink" width="295" height="256" viewBox="0 0 295 256">
  <defs>
    <clipPath id="clip-path">
      <rect id="Rect치ngulo_424071" data-name="Rect치ngulo 424071" width="295" height="256" transform="translate(1125.098 323)" fill="#fff" stroke="#707070" stroke-width="1"/>
    </clipPath>
  </defs>
  <g id="Grupo_1231445" data-name="Grupo 1231445" transform="translate(-1125.098 -323)">
    <rect id="Rect치ngulo_424078" data-name="Rect치ngulo 424078" width="190" height="256" rx="11" transform="translate(1193.098 323)" fill="#6ae2f6"/>
    <g id="Enmascarar_grupo_1098764" data-name="Enmascarar grupo 1098764" clip-path="url(#clip-path)">
      <g id="Grupo_1231422" data-name="Grupo 1231422" transform="translate(1125 341.226)">
        <g id="Grupo_1231421" data-name="Grupo 1231421" transform="translate(0)">
          <g id="Grupo_1231410" data-name="Grupo 1231410" transform="translate(79.611 0)">
            <path id="Trazado_1234986" data-name="Trazado 1234986" d="M361.549,469.978c1.474-7.359-.243-25.766-.56-30.22-.341-4.8-1.26-9.556-1.777-14.339-.513-4.744-.69-9.493-1.459-14.22-.879-5.4-2.037-10.781-3.311-16.134a1.532,1.532,0,0,0-1.515-1.073,2.119,2.119,0,0,0-1.944-1.156,258.345,258.345,0,0,0-69.3,4.57c-6.413,1.316-12.686,2.916-18.873,4.75a1.892,1.892,0,0,0-.5.232,1.646,1.646,0,0,0-1.687,1.068,177.142,177.142,0,0,0-4.836,26.17c-1.092,8.823-2.62,17.59-3.052,26.436-.226,4.637-.416,9.279-.4,13.914H361.549Z" transform="translate(-207.326 -184.705)" fill="#005554"/>
            <path id="Trazado_1234987" data-name="Trazado 1234987" d="M379.616,444.549c-.769-9.906-1.867-19.871-4.877-29.3a1.565,1.565,0,0,0-3.026.77c1.522,9.659,3.635,19.188,4.74,28.927a189.513,189.513,0,0,1,.633,29.54c-.094,2.141,3.3,2.141,3.386,0A249.523,249.523,0,0,0,379.616,444.549Z" transform="translate(-240.575 -190.818)" fill="#24403a"/>
            <path id="Trazado_1234988" data-name="Trazado 1234988" d="M314.89,485.165c-.115-1.5-.235-3-.346-4.5-.216-2.923-.353-5.836-.374-8.773a8.5,8.5,0,0,0-.444-3.706,3.843,3.843,0,0,0-3.035-1.889,31.061,31.061,0,0,0-8.856-.962c-1.011.091-1.558,1.39-.606,1.941a25.856,25.856,0,0,0,7.213,2.506,10.2,10.2,0,0,0,1.744.424c.015.1.024.208.039.3.2,1.275.371,2.558.549,3.836.354,2.539.537,5.107.728,7.67q.152,2.025.3,4.049a8.041,8.041,0,0,0,.787,3.71,1.193,1.193,0,0,0,2.135-.273C315.288,488.155,315,486.551,314.89,485.165Z" transform="translate(-220.81 -205.052)" fill="#24403a"/>
            <path id="Trazado_1234989" data-name="Trazado 1234989" d="M206.092,358.932a61.666,61.666,0,0,0,9.893-.756l.043-.006q.225-.07.449-.144l.358-.122a28.767,28.767,0,0,0,5.4-2.554c.049-.038.43-.287.5-.338.2-.136.407-.266.61-.4q.686-.452,1.369-.911c.9-.6,1.788-1.2,2.69-1.8a58.806,58.806,0,0,1,5.782-3.433c.957-.481,1.962-.866,2.9-1.394l.25-.144.026-.017c.177-.129.354-.257.524-.395s.324-.27.478-.414c.064-.06.127-.123.19-.183a.464.464,0,0,0,.079-.1c.038-.13.06-.1,0,0,0,.006,0,.008-.005.014l.044-.052c.07-.088.143-.175.212-.263q.18-.232.346-.474c.094-.137.185-.277.273-.418,0-.007.074-.144.125-.225.33-.672.641-1.346.918-2.042.636-1.605,1.214-3.238,1.912-4.819a21.1,21.1,0,0,1,4.37-6.07q1.147-1.195,2.363-2.321c.4-.372.809-.737,1.213-1.107a4.531,4.531,0,0,1,.354-.324c.02-.014.016-.009.029-.019.133-.154.264-.309.392-.466,2.876-3.522,4.761-7.693,7.365-11.4,2.714-3.863,5.873-7.375,8.76-11.1a119.51,119.51,0,0,0,7.93-11.565q.887-1.474,1.729-2.974c.046-.082.391-.695.157-.28-.2.361,0,0,.035-.066.137-.253.276-.505.412-.758q.409-.76.807-1.526c.64-1.232,1.25-2.477,1.845-3.731a67.778,67.778,0,0,0,.425-16.34,41.6,41.6,0,0,0-5.484-17.669,32.946,32.946,0,0,0-2.668-3.733.825.825,0,0,0-.41-.273.785.785,0,0,0-.46-1.22c-9.991-2.1-15.833-3.335-22.9,4.04-4.279,4.468-11.686,16.628-14.313,22.207-1.356,2.88-2.581,5.818-3.759,8.771-.548,1.372-1.022,2.794-1.635,4.14a2.672,2.672,0,0,1-1,1.315,6.466,6.466,0,0,1-1.829.467c-3.88.822-6.628,5.466-5.432,9.115a10.638,10.638,0,0,0-2.63.734,7.148,7.148,0,0,0-3.245,2.265,4.169,4.169,0,0,0-.7,1.649,9.532,9.532,0,0,0,.107,2.6c.14,1.77-1.222,3.088-2.451,4.19a57.151,57.151,0,0,1-4.844,3.676l-5.08,3.664c-2.768,2-5.835,3.957-7.644,6.985-1.708,1.265-2.257,4.051-2.379,6.082-.258,4.312-.4,8.628-.607,12.94l-.312,6.654c-.479,10.229,6.764,13.9,14.816,13.029C205.223,359.083,205.657,359.011,206.092,358.932Z" transform="translate(-189.951 -145.028)" fill="#f0c27a"/>
            <path id="Trazado_1234990" data-name="Trazado 1234990" d="M359.41,423.079l-40.7-3.938c-6.74-.652-13.487-1.4-20.262-1.767a35.5,35.5,0,0,0-9.9.622,52.41,52.41,0,0,0-9.071,3.267c-6.659,2.9-15.205-.213-21.244,3.876-.9.61,6.235,15.78,8.712,18.969a95.177,95.177,0,0,0,8.147,9.11q2.487,2.468,5.2,4.7a.9.9,0,0,0,1.479-.4c1.427-4.574,3.068-9.108,4.868-13.562s3.9-8.789,5.927-13.16c.968-2.088,1.9-4.245,3.066-6.248,2.1,3.7,1.82,8.474,3.2,12.466a45.44,45.44,0,0,0,3.452,7.03,37.111,37.111,0,0,1,3.018,7.145,25.241,25.241,0,0,0,3.477,7.9,1.109,1.109,0,0,0,1.332.177c8.063-3.715,16.155-7.363,24.228-11.055a107.178,107.178,0,0,0,11.216-5.451,30.719,30.719,0,0,0,8.173-7.393,72.709,72.709,0,0,0,6.6-10.594A1.113,1.113,0,0,0,359.41,423.079Z" transform="translate(-208.952 -191.687)" fill="#fdf8ef"/>
            <path id="Trazado_1234991" data-name="Trazado 1234991" d="M359.438,253.7a44.307,44.307,0,0,0-10.97-14.487,44.951,44.951,0,0,0-7.046-5.272c-2.605-1.475-5.97-1.633-8.962-2.231-2.829-.565-5.454-1.491-8.354-1.2a1.445,1.445,0,0,0-.057-.661,1.819,1.819,0,0,0-2.225-.982c-8.307,1.651-16.589,3.757-24.869,6.044a232.923,232.923,0,0,0-22.374,6.985c-10.41,4.039-17.96,24.07-18.867,34.028a98.255,98.255,0,0,0-.294,10.07,109.927,109.927,0,0,0,.462,11.043c2.156,19.042,3.4,15.269,4.694,32.708.589,7.95-3.26,25.25-4.116,33.541-3.119,28.2,30.215,19.141,51.295,16.925a100.809,100.809,0,0,1,14.212-.518c3.761.137,7.5.416,11.26.432,7.274.031,21.56-.31,27.037-5.8,7.595-7.608-3.51-19.71-.547-51.658.478-8.447,1.845-16.668,3.019-24.805C364.872,283.07,365.849,266.915,359.438,253.7Z" transform="translate(-208.184 -139.186)" fill="#f0c27a"/>
            <path id="Trazado_1234992" data-name="Trazado 1234992" d="M361.733,424.237a11.517,11.517,0,0,1-6.026,4.978c-3.211,1.143-6.7,1.213-10.064,1.418-7.213.441-14.436.7-21.651,1.109s-14.375,1.1-21.544,1.943a187.615,187.615,0,0,1-21.467,1.7,53.029,53.029,0,0,1-11.786-.96,15.647,15.647,0,0,1-4.7-1.879,10.426,10.426,0,0,1-3.261-3.332.617.617,0,0,0-1.128.459c.395,2.923,3.023,5.278,5.565,6.481,3.251,1.54,7.024,1.774,10.563,1.965a135.492,135.492,0,0,0,22.7-1.172c7.639-.875,15.257-1.752,22.934-2.225,7.567-.467,15.146-.725,22.715-1.169,4.029-.236,8.344-.232,12.164-1.687,3.039-1.157,6.185-3.508,6.679-6.948A.923.923,0,0,0,361.733,424.237Z" transform="translate(-209.49 -193.493)" fill="#ebaa43"/>
            <path id="Trazado_1234993" data-name="Trazado 1234993" d="M433.72,317.684a43.548,43.548,0,0,0-5.566-15.847,41.252,41.252,0,0,0-12.164-13.1c1.365-2.243,2.315-5.044.54-7.181-.89-1.072-2.324-1.429-3.609-1.872a5.83,5.83,0,0,1-2.942-2.1c-1.581-2.164-2.087-4.938-2.84-7.467-.838-2.821-1.776-5.61-2.858-8.342a49.947,49.947,0,0,0-8.831-15.019,36.518,36.518,0,0,0-14.89-9.855c-6.853-2.519-14.125-3.505-21.412-4.386a1,1,0,0,0-1,.939.787.787,0,0,0,.209.586c-2.889,15.041,5.166,28.558,9.77,42.115,2.3,6.781,3.892,13.821,6.673,20.426a43.873,43.873,0,0,0,5.06,9.076c2.059,2.793,4.482,5.29,6.7,7.955a34.855,34.855,0,0,1,3.349,4.64c.858,1.465,1.554,3.011,2.323,4.523,1.247,2.454,2.926,5.18,5.955,5.192a14.571,14.571,0,0,0,1.918,3.139,16.2,16.2,0,0,0,2.853,2.933,18.7,18.7,0,0,0,7.867,3.3,36.246,36.246,0,0,0,11.252-.04c1.865-.251,3.721-.583,5.574-.928,1.568-.292,3.386-.506,4.517-1.787a8.034,8.034,0,0,0,1.472-4.239,40.232,40.232,0,0,0,.466-4.333A42.809,42.809,0,0,0,433.72,317.684Z" transform="translate(-236.693 -142.465)" fill="#f0c27a"/>
            <g id="Grupo_1231409" data-name="Grupo 1231409" transform="translate(50.217)">
              <path id="Trazado_1234994" data-name="Trazado 1234994" d="M337.832,147.411c-2.111-32.91-29.842-45.571-57.111-29.931a1.287,1.287,0,0,0-.2-.064,17.68,17.68,0,0,0-12.666,1.781,16.685,16.685,0,0,0-7.374,9.439c-2.222,6.973-.162,14.028,3.24,20.144a35.624,35.624,0,0,0,2.189,6.389l56.025,25.253C322.548,171.183,338.344,155.4,337.832,147.411Zm-75.158-16.892a11.916,11.916,0,0,1,9.662-10.869c-6.111,3-8.932,9.236-9.617,16.048A18.133,18.133,0,0,1,262.674,130.519Z" transform="translate(-259.557 -110.817)" fill="#38312f"/>
              <g id="Grupo_1231407" data-name="Grupo 1231407" transform="translate(19.5 44.6)">
                <path id="Trazado_1234995" data-name="Trazado 1234995" d="M295.565,256.313s-8.873-9.452-8.977-13.111c-.174-6.078,11.071-24.031,11.071-24.031l38.283-1.391-22.109,20.806Z" transform="translate(-286.586 -185.213)" fill="#fdf8ef"/>
                <path id="Trazado_1234996" data-name="Trazado 1234996" d="M330.469,172.638l3.7,45.319-30.7,22.1-5.808-66.589Z" transform="translate(-289.672 -172.638)" fill="#eeb990"/>
                <path id="Trazado_1234997" data-name="Trazado 1234997" d="M299.033,256.312c8.764-23.181,40.378-38.532,40.378-38.532l5.2,17.542s-11.286,11.2-19.831,14.511C314.607,253.779,299.033,256.312,299.033,256.312Z" transform="translate(-290.053 -185.213)" fill="#fdf8ef"/>
              </g>
              <g id="Grupo_1231408" data-name="Grupo 1231408" transform="translate(0.412 11.896)">
                <path id="Trazado_1234998" data-name="Trazado 1234998" d="M288.614,192.235c15.231,2.711,28.509-6.463,34.324-17.473,26.183,1.795,22.846-37.959-.542-26.131a33.613,33.613,0,0,0-6.549-12.79,25.316,25.316,0,0,0-3.022-3.06.1.1,0,0,1-.028-.025c-5.074-4.316-12.62-7.121-23.621-4.339a25.335,25.335,0,0,0-9.727,4.834,26.286,26.286,0,0,0-3.4,3.224C261.16,153.269,264.064,187.865,288.614,192.235Z" transform="translate(-262.034 -127.306)" fill="#eeb990"/>
                <path id="Trazado_1234999" data-name="Trazado 1234999" d="M322.35,209.859c-2.7,1.72-5.261,3.579-8.311,4.646a26.015,26.015,0,0,1-4.606,1.149,28.047,28.047,0,0,1-4.776.432c-.768-.016-1.028,1.239-.234,1.343a19.813,19.813,0,0,0,5.1.175,23.628,23.628,0,0,0,5.054-1.18c3.237-1.15,6.567-2.858,8.687-5.629C323.685,210.245,322.924,209.494,322.35,209.859Z" transform="translate(-272.332 -150.275)" fill="#da893e"/>
                <path id="Trazado_1235000" data-name="Trazado 1235000" d="M360.214,171.663a10.719,10.719,0,0,0-2.161-1.216,6.3,6.3,0,0,0-2.545-.343,9.16,9.16,0,0,0-4.876,1.727,9.7,9.7,0,0,0-3.128,3.928,9.454,9.454,0,0,0-.7,2.41c-.125.8-.3,1.867.328,2.469a.835.835,0,0,0,1.308-.191l.035.014a1.921,1.921,0,0,0,.308-1.055,6.089,6.089,0,0,1,2.141-2.682,4.25,4.25,0,0,1,2.1-.836,2.225,2.225,0,0,1,1.7.713c.362.317,1.143.144,1.11-.443a2.376,2.376,0,0,0-1.848-2.034,4.686,4.686,0,0,0-3.542.666c-.036.021-.067.047-.1.069a7.166,7.166,0,0,1,5.079-2.8,8.467,8.467,0,0,1,4.281.423A.484.484,0,0,0,360.214,171.663Z" transform="translate(-284.24 -139.224)" fill="#da893e"/>
                <path id="Trazado_1235001" data-name="Trazado 1235001" d="M304.962,186.858a2.292,2.292,0,0,0-.113-.5,1.062,1.062,0,0,0-.695-.713.761.761,0,0,0-.729.192,1.271,1.271,0,0,0-.356.745c.022-.12.012-.061-.009.024s-.039.143-.059.214c-.076.269-.136.532-.234.8a.142.142,0,0,0-.009.012c-.04.068-.076.138-.118.2s-.086.133-.133.2l-.048.064-.027.035a2.25,2.25,0,0,1-.227.223c-.059.054-.122.1-.182.157-.014.012-.007.008-.016.015a.129.129,0,0,0-.017.009c-.131.08-.26.158-.4.225-.069.033-.139.064-.208.094.2-.088-.067.019-.092.027-.159.051-.321.088-.484.123-.089.019-.177.038-.267.053l-.087.013c-.325.031-.652.035-.978.037a4.308,4.308,0,0,1-.96-.079.827.827,0,0,0-.936.455.727.727,0,0,0,.291.953,5.841,5.841,0,0,0,2.617.585,4.889,4.889,0,0,0,2.542-.8,4.73,4.73,0,0,0,1.7-2.042A2.6,2.6,0,0,0,304.962,186.858Z" transform="translate(-270.543 -143.548)" fill="#da893e"/>
                <path id="Trazado_1235002" data-name="Trazado 1235002" d="M321.03,140.578a9.8,9.8,0,0,0-5.528-.076c-6.536,1.957,2.711,6.3,5.482,6.766,1.726.288,7.657.731,6.527-2.183C326.706,143.008,323.295,141.251,321.03,140.578Z" transform="translate(-274.915 -130.881)" fill="#38312f"/>
                <path id="Trazado_1235003" data-name="Trazado 1235003" d="M276.5,141.389a5.066,5.066,0,0,0-3.151,1.933c-2.632,3.725,4.891,3.457,6.7,2.786,1.125-.418,4.7-2.239,2.506-3.881C280.991,141.057,278.134,141.047,276.5,141.389Z" transform="translate(-263.658 -131.174)" fill="#38312f"/>
                <path id="Trazado_1235004" data-name="Trazado 1235004" d="M260.741,154.845a12.817,12.817,0,0,1,2.5-4.682A10.712,10.712,0,0,1,267.708,147a10.5,10.5,0,0,1,5.409-.5,12.383,12.383,0,0,1,4.847,1.97,15.36,15.36,0,0,1,5.9,8.042,16.078,16.078,0,0,1,.007,10,13.151,13.151,0,0,1-2.581,4.482,10.228,10.228,0,0,1-9.446,3.376,12.507,12.507,0,0,1-4.676-1.822,15.5,15.5,0,0,1-6.042-7.693A16.216,16.216,0,0,1,260.741,154.845Zm6.916,17.015a9.827,9.827,0,0,0,9.051,1.291,10.419,10.419,0,0,0,6.093-6.934,14.809,14.809,0,0,0-.373-9.178,14.492,14.492,0,0,0-5.521-7.081,9.8,9.8,0,0,0-8.6-1.206,9.524,9.524,0,0,0-3.715,2.539,11.572,11.572,0,0,0-2.31,3.972,14.648,14.648,0,0,0-.009,9.169A14.362,14.362,0,0,0,267.658,171.86Z" transform="translate(-260.129 -132.61)" fill="#fdf8ef"/>
                <path id="Trazado_1235005" data-name="Trazado 1235005" d="M304.453,154.932a14.271,14.271,0,0,1,2.888-4.9,11.023,11.023,0,0,1,5-3.166,10.5,10.5,0,0,1,5.9.048,12.8,12.8,0,0,1,4.945,2.791,17.681,17.681,0,0,1,5.321,9.468,19.02,19.02,0,0,1-.823,10.9,13.76,13.76,0,0,1-3.109,4.741,10.87,10.87,0,0,1-4.971,2.817,10.462,10.462,0,0,1-5.546-.255,13,13,0,0,1-4.614-2.721,18.114,18.114,0,0,1-5.476-8.965A19.536,19.536,0,0,1,304.453,154.932Zm5.538,19.139a11.267,11.267,0,0,0,4.368,2.457,8.845,8.845,0,0,0,4.989.029,9.293,9.293,0,0,0,4.194-2.7,12.6,12.6,0,0,0,2.513-4.315,17.191,17.191,0,0,0,.284-9.792,17.01,17.01,0,0,0-4.851-8.229,11.5,11.5,0,0,0-4.038-2.387,8.83,8.83,0,0,0-4.632-.236,9.109,9.109,0,0,0-4.169,2.349,12,12,0,0,0-2.734,4.16,14.775,14.775,0,0,0-1.071,4.924,19.968,19.968,0,0,0,.45,5.007A16.537,16.537,0,0,0,309.991,174.072Z" transform="translate(-272.191 -132.644)" fill="#fdf8ef"/>
                <path id="Trazado_1235006" data-name="Trazado 1235006" d="M316.786,166.291c.051,2.252,1.226,4.006,2.624,3.918s2.49-1.985,2.439-4.238-1.226-4.006-2.624-3.918S316.735,164.039,316.786,166.291Z" transform="translate(-275.91 -136.984)" fill="#38312f"/>
                <path id="Trazado_1235007" data-name="Trazado 1235007" d="M281.057,166.714c.051,2.252,1.226,4.006,2.624,3.918s2.49-1.985,2.439-4.238-1.226-4.006-2.624-3.918S281.006,164.461,281.057,166.714Z" transform="translate(-265.958 -137.102)" fill="#38312f"/>
                <path id="Trazado_1235008" data-name="Trazado 1235008" d="M295.174,163.839c.755-1.589,1.436-3.208,2.18-4.8a.661.661,0,1,0-1.139-.669,37.394,37.394,0,0,0-3.091,5.129c-.879,1.8-1.667,3.648-2.379,5.516-.631,1.651-1.185,3.489-.534,5.168.62,1.6,2.131,2.327,3.682,2.778.947.276,1.682-1.245.747-1.675-1.086-.5-2.462-1.137-2.637-2.478-.185-1.421.609-3,1.13-4.308C293.76,166.927,294.445,165.372,295.174,163.839Z" transform="translate(-268.427 -135.867)" fill="#da893e"/>
                <path id="Trazado_1235009" data-name="Trazado 1235009" d="M301.755,157.931a10.076,10.076,0,0,0-2.686-.991,12.816,12.816,0,0,0-2.886-.312,11.2,11.2,0,0,0-2.928.4,9.225,9.225,0,0,0-2.707,1.214l.323.669a19.8,19.8,0,0,1,2.62-.631,16.119,16.119,0,0,1,2.64-.213,22.472,22.472,0,0,1,2.656.145c.881.1,1.781.249,2.647.416Z" transform="translate(-268.602 -135.474)" fill="#fdf8ef"/>
              </g>
              <path id="Trazado_1235010" data-name="Trazado 1235010" d="M336.834,141.357c-4.839-6.192-10.193-12.134-17.293-15.91-6.239-3.318-13.855-4.794-20.962-2.861-.548.087-1.093.186-1.634.312a23.668,23.668,0,0,0-5.631,2.154,1.435,1.435,0,0,0-.694.875,1.849,1.849,0,0,0-.061,2.892,34.852,34.852,0,0,0,17.823,7.014,45.372,45.372,0,0,0,9.9-.387,14.668,14.668,0,0,1,3.452-.073c2.637,3.785,3.65,23.458,8.807,21.78,3.836-1.247,2.578-9.32,6.448-14.154A1.352,1.352,0,0,0,336.834,141.357Z" transform="translate(-268.006 -113.855)" fill="#38312f"/>
            </g>
          </g>
          <g id="Grupo_1231417" data-name="Grupo 1231417" transform="translate(211.489)">
            <g id="Grupo_1231416" data-name="Grupo 1231416">
              <path id="Trazado_1235011" data-name="Trazado 1235011" d="M455.417,207.762l.018,10.689s-22.788-2.647-30.767-5.845c0,0-11.249,11.377-35.535,11.212l-.746-4.73-5.448.252-.665-4.712Z" transform="translate(-375.402 -137.821)" fill="#fdf8ef"/>
              <path id="Trazado_1235012" data-name="Trazado 1235012" d="M372.751,121.313l3.215,68.415a2.413,2.413,0,0,0,2.742,2.262l34.7-4.031,8.373-.97c.058,0,.11-.012.161-.014l10.871-.587a2.074,2.074,0,0,1,.341,0l2.418.185L453.5,187.96a2.658,2.658,0,0,0,2.86-2.682L454.069,120.2a2.377,2.377,0,0,0-1.64-2.18l-21.278-7.08a2.179,2.179,0,0,0-.568-.11,1.842,1.842,0,0,0-.367-.013l-7.5.383a1.906,1.906,0,0,0-.271.027l-13.542,2.111L375,118.63A2.646,2.646,0,0,0,372.751,121.313Z" transform="translate(-372.749 -110.816)" fill="#d26634"/>
              <path id="Trazado_1235013" data-name="Trazado 1235013" d="M462.531,201.723c.1.758.32,1.261,1.122,1.451a14.323,14.323,0,0,0,2.126.26c1.5.12,3.018.152,4.505.374,1.508.225,2.954.855,4.516.532a.89.89,0,0,0,.175-.055.67.67,0,0,0,.748-.673,26.387,26.387,0,0,0-.111-2.778c-.1-.848-.185-1.682-.224-2.538s-.074-1.694-.109-2.542a2.455,2.455,0,0,0-.6-1.941,4.28,4.28,0,0,0-1.767-.613c-.745-.176-1.492-.337-2.244-.488-1.5-.3-3.009-.582-4.536-.763-1.083-.128-2.98-.659-3.454.779a10.28,10.28,0,0,0-.317,2.228c-.066.728-.093,1.459-.1,2.188A32.4,32.4,0,0,0,462.531,201.723Z" transform="translate(-397.682 -133.36)" fill="#de8644"/>
              <path id="Trazado_1235014" data-name="Trazado 1235014" d="M422.869,113.341l4.5,74.618,8.373-.97c.058,0,.11-.012.161-.014l10.871-.587a2.074,2.074,0,0,1,.341,0l2.418.185c-1.358-22.017-3.912-62.766-4.992-75.741a1.841,1.841,0,0,0-.367-.013l-7.5.383a1.906,1.906,0,0,0-.271.027Z" transform="translate(-386.71 -110.816)" fill="#38312f"/>
              <path id="Trazado_1235015" data-name="Trazado 1235015" d="M442.986,113.033c.275,9.307.734,18.6,1.308,27.883.566,9.18,1.025,18.371,1.5,27.559.273,5.22.633,10.431.515,15.676a.727.727,0,0,1-1.449.074c-.584-4.616-.776-9.266-1.014-13.923s-.474-9.292-.711-13.939c-.469-9.187-.814-18.384-1.3-27.57q-.412-7.836-.989-15.652A1.07,1.07,0,0,1,442.986,113.033Z" transform="translate(-391.719 -111.168)" fill="#494341"/>
              <g id="Grupo_1231415" data-name="Grupo 1231415" transform="translate(37.872 56.076)">
                <g id="Grupo_1231413" data-name="Grupo 1231413">
                  <g id="Grupo_1231412" data-name="Grupo 1231412">
                    <path id="Trazado_1235016" data-name="Trazado 1235016" d="M425.613,197.571c.835,1.168,2.664,1.482,4.053,1.458a12.034,12.034,0,0,0,7.691-3.244c1.31.763,2.615,1.519,3.925,2.275a4.129,4.129,0,0,0-3.177.049,9.309,9.309,0,0,0-2.409,2.745c-1.619,2.149-3.4,4.222-4.9,6.445s-1.151,4.536-.356,6.847a3.15,3.15,0,0,0,1.726,2.182,11.568,11.568,0,0,0,.166,3.981,6.741,6.741,0,0,0,2.362,3.013,1.773,1.773,0,0,0,2.038.325c.155-.064.316-.134.472-.21-.155,2.746-.675,5.533-.719,8.252a14.873,14.873,0,0,0,1.19,6.506,9.588,9.588,0,0,0,.969,1.658c-.009.768-.063,1.534-.128,2.3-.163,1.853-.372,3.7-.556,5.551-.387,3.855-.738,7.706-1.1,11.557-.078.837-.162,1.68-.241,2.516q-.365,3.808-.723,7.612l-.018.178c-.136,1.418-.434,3.022,1.084,3.762a15.4,15.4,0,0,0,4.593,1.027,35.838,35.838,0,0,0,5.137.317,34.221,34.221,0,0,0,4.542-.35,15.508,15.508,0,0,0,4.584-1.054.554.554,0,0,1,.061-.036,3.528,3.528,0,0,0,2.281-2.326,7.925,7.925,0,0,0-.369-4.11q-.672-2.6-1.173-5.254c-.071-.374-.142-.748-.2-1.122q-.847-4.692-1.289-9.451c-.468-5-.751-10.038-.965-15.076.41-2.832.9-5.661,1.561-8.457.407-1.728.887-3.446,1.434-5.138.538-1.67,1.263-3.257,1.877-4.895a7.566,7.566,0,0,0,.352-4.934c-.233-.809-.565-1.591-.762-2.42a10.782,10.782,0,0,1-.114-2.559,12.773,12.773,0,0,0-1.493-4.969c-.711-1.677-1.457-3.334-2.2-5a.98.98,0,0,0-.453-.715,66.733,66.733,0,0,0-10.1-5.595c-1.571-.715-3.143-1.486-4.759-2.1a5.675,5.675,0,0,0-4.412-.2,17.347,17.347,0,0,0-3.684,2.714,22.018,22.018,0,0,1-4.149,2.8c-.727.369-1.553.644-1.892,1.455A1.722,1.722,0,0,0,425.613,197.571Z" transform="translate(-425.243 -188.544)" fill="#eeb990"/>
                    <path id="Trazado_1235017" data-name="Trazado 1235017" d="M437.465,221.85q1.171-1.2,2.412-2.34t2.522-2.221c.732-.618,1.427-1.566,2.472-1.24a12.423,12.423,0,0,1,2.722,1.524q1.461.926,2.858,1.937a58.97,58.97,0,0,1,5.137,4.258c.465.421-.2,1.05-.683.711-3.258-2.274-6.714-4.308-10.11-6.382-.466-.285-.594-.491-1.08-.124-.416.315-.82.646-1.222.978-.752.621-1.471,1.281-2.177,1.952s-1.4,1.359-2.066,2.064a5.835,5.835,0,0,1-2.085,1.675.309.309,0,0,1-.4-.365A5.451,5.451,0,0,1,437.465,221.85Z" transform="translate(-428.172 -196.188)" fill="#da893e"/>
                    <g id="Grupo_1231411" data-name="Grupo 1231411" transform="translate(11.614 25.647)">
                      <path id="Trazado_1235018" data-name="Trazado 1235018" d="M441.5,228.99a.6.6,0,0,1,.811-.042c.162.133.328.27.491.411.069-.091.136-.183.207-.274a10.158,10.158,0,0,1,.684-.771q.346-.364.708-.714a3.824,3.824,0,0,1,.465-.379,4.251,4.251,0,0,1-.009-2.719c.135-.579,1.143-.534,1.071.08a3.079,3.079,0,0,0,.437,2.239,10.289,10.289,0,0,0,1.553,1.716,19.249,19.249,0,0,0,1.994,1.693c.364.266.717.544,1.075.817a2.181,2.181,0,0,1,.908,1.082.572.572,0,0,1-.482.719,3.988,3.988,0,0,1-1.061,1.367c-.467.516-.913,1.053-1.336,1.6a20.208,20.208,0,0,0-2.264,3.771,27.043,27.043,0,0,0-1.429,4.03A18.545,18.545,0,0,0,444.5,248a.237.237,0,0,1-.473.025,21.091,21.091,0,0,1-.069-4.5,16.8,16.8,0,0,1,1.246-4.43,21.077,21.077,0,0,1,2.234-4.056,19.217,19.217,0,0,1,1.446-1.827,7.306,7.306,0,0,1,1.013-1.037l-.053-.044c-.381-.322-.752-.65-1.112-.994-.7-.67-1.453-1.288-2.19-1.919a11.438,11.438,0,0,1-.862-.8l-.006.008c-.06.064-.128.123-.19.184q-.359.352-.7.716-.514.544-1.02,1.1a2.965,2.965,0,0,1,.247.421,2.375,2.375,0,0,1,.181,1.467,1.586,1.586,0,0,1-1.053,1.142.525.525,0,0,1-.677-.621c.012-.036.02-.073.03-.11a.08.08,0,0,0,0-.009c0-.022.009-.063.01-.069,0-.035.009-.069.012-.1,0-.066.068-.5.081-.581a.128.128,0,0,0,0-.018s0-.009.006-.037a.146.146,0,0,1,.009-.047.147.147,0,0,0-.006.019,2.04,2.04,0,0,0,0-.229c0-.077-.014-.154-.021-.232V231.4c0-.024-.012-.078-.013-.085-.015-.069-.033-.137-.055-.2l-.025-.077c-.009-.02-.024-.054-.027-.061a3.573,3.573,0,0,0-.279-.45c-.046-.064-.095-.128-.145-.19l-.051-.056-.082-.087c-.131-.138-.265-.271-.4-.4A.56.56,0,0,1,441.5,228.99Z" transform="translate(-441.341 -224.094)" fill="#da893e"/>
                      <path id="Trazado_1235019" data-name="Trazado 1235019" d="M443.095,234.894c0,.014-.005.025-.006.037a.133.133,0,0,1,.009-.064v0C443.1,234.884,443.1,234.886,443.095,234.894Z" transform="translate(-441.827 -227.095)" fill="#da893e"/>
                    </g>
                    <path id="Trazado_1235020" data-name="Trazado 1235020" d="M435.488,217.508a14.965,14.965,0,0,1,2.429-3.885,26.246,26.246,0,0,1,3.424-3.262c1.164-.96,2.366-2.292,3.817-2.8a.564.564,0,0,1,.154-.023.216.216,0,0,1,.03-.006h.009c.017,0,.035,0,.052,0a5.405,5.405,0,0,1,2.635.875q1.331.688,2.62,1.449a33.784,33.784,0,0,1,4.8,3.369c.418.359-.121,1.123-.608.824-1.645-1.011-3.274-2.033-4.964-2.975q-1.232-.687-2.5-1.309a9.676,9.676,0,0,1-1.948-1.079,23.787,23.787,0,0,0-3.371,2.179,21.722,21.722,0,0,0-2.951,3.056,15.749,15.749,0,0,0-2.1,3.469,11.327,11.327,0,0,0-.621,1.845,4.717,4.717,0,0,0-.209,2.1c.2.866-1.13,1.289-1.379.426A6.746,6.746,0,0,1,435.488,217.508Z" transform="translate(-427.867 -193.833)" fill="#da893e"/>
                    <path id="Trazado_1235021" data-name="Trazado 1235021" d="M447.766,201.111c1.76.408,3.5.872,5.262,1.278q1.3.3,2.573.669a7.346,7.346,0,0,1,2.4,1.011c.3.224.048.708-.3.73a7.476,7.476,0,0,1-2.631-.477c-.838-.257-1.669-.521-2.493-.812-1.687-.6-3.394-1.138-5.082-1.733C447.118,201.641,447.377,201.02,447.766,201.111Z" transform="translate(-431.391 -192.042)" fill="#da893e"/>
                  </g>
                </g>
                <g id="Grupo_1231414" data-name="Grupo 1231414" transform="translate(11.931 50.345)">
                  <path id="Trazado_1235022" data-name="Trazado 1235022" d="M441.781,265.026c-.021,1.25.982,1.884,2.043,2.332,2.288.967,4.91.728,7.377.68,2.593-.05,5.3-.345,7.543-1.843a4.261,4.261,0,0,0,1.2-1.037,3.112,3.112,0,0,0,.325-1.829,28.378,28.378,0,0,0-.071-4.549.545.545,0,0,0-.624-.423.629.629,0,0,0-.532.072,16.138,16.138,0,0,1-7.669,2.263c-2.831.126-5.562-.6-8.341-.866a.648.648,0,0,0-.756.615C442.164,261.969,441.806,263.5,441.781,265.026Z" transform="translate(-441.781 -258.329)" fill="#38312f"/>
                  <path id="Trazado_1235023" data-name="Trazado 1235023" d="M449.935,268.125l1.576-.126.716-.057c.156-.012.342-.009.516-.027.024-.111.051-.222.076-.333.041-.182.083-.366.118-.549.079-.408.139-.818.176-1.229,0-.035,0-.069.005-.1a.67.67,0,0,1-.082-.048c-.079.007-.252.011-.268.013l-.747.079-.747.079a2.087,2.087,0,0,1-1-.056.616.616,0,0,1-.011-1.076,2.389,2.389,0,0,1,1.058-.225l.862-.075a6.2,6.2,0,0,1,.985-.055q0-.492-.008-.983a5.091,5.091,0,0,0-.045-.951c-.062-.3-.232-.208-.517-.218a8.936,8.936,0,0,1-2.366-.494.374.374,0,0,1,.184-.724,5.1,5.1,0,0,0,1.9.1,1.867,1.867,0,0,1,1.7.3,2.067,2.067,0,0,1,.428,1.507c0,.654,0,1.309-.028,1.963s-.064,1.3-.139,1.954a4.85,4.85,0,0,1-.429,1.9c-.385.63-1.265.493-1.885.506l-2.008.042A.552.552,0,0,1,449.935,268.125Z" transform="translate(-443.902 -259.059)" fill="#605f69"/>
                </g>
              </g>
              <path id="Trazado_1235024" data-name="Trazado 1235024" d="M409.231,151.453c-.277-4.4-.571-10.708-.7-13.688a1.608,1.608,0,0,0-1.8-1.514c-8.15.8-16.07,1.829-24.165,3.223a1.764,1.764,0,0,0-1.477,1.788c.23,4.445.735,9.117,1.325,13.518a1.609,1.609,0,0,0,1.825,1.361l23.437-2.868A1.759,1.759,0,0,0,409.231,151.453Z" transform="translate(-375.071 -117.899)" fill="#de8644"/>
            </g>
            <path id="Trazado_1235025" data-name="Trazado 1235025" d="M468.513,327.665a13.445,13.445,0,0,0-.663-3.239c-.161-.527-.367-1.035-.545-1.555a9.711,9.711,0,0,1-.364-1.95c-.293-2.368-.485-4.752-.773-7.121-.3-2.43-.672-4.838-1.081-7.248q-.3-1.776-.612-3.55a16.606,16.606,0,0,0-.638-3.178c-.951-2.425-3.719-1.549-5.774-1.167l-15.056,2.8c-1.245.232-2.488.469-3.73.724a1.029,1.029,0,0,0-.558.324.764.764,0,0,0-.707.644,32.548,32.548,0,0,1-1.828,6.26,60.341,60.341,0,0,1-2.983,5.9c-.913,1.72-1.769,3.353-1.276,5.286a3.671,3.671,0,0,0,1.867,2.418c-.136.228-.266.469-.407.741-.363.7-.877,1.276-1.177,2.018a12.48,12.48,0,0,0-.682,2.185,4.572,4.572,0,0,0,.29,2.32,7.341,7.341,0,0,0,1.3,2.091,1.619,1.619,0,0,1,.509,1.092,5.76,5.76,0,0,1-.641,1.674,28.388,28.388,0,0,0-1.99,6.739,10.229,10.229,0,0,0-.284,3.123,3.55,3.55,0,0,0,1.386,2.213A42.7,42.7,0,0,0,437.475,351a27.726,27.726,0,0,0,6.215,2.828,11.586,11.586,0,0,0,6.681.351,12.159,12.159,0,0,0,5.047-3.577c1.581-1.711,3.1-3.464,4.628-5.217a61.369,61.369,0,0,0,4.373-5.315,25.106,25.106,0,0,0,3.112-5.976A16.871,16.871,0,0,0,468.513,327.665Z" transform="translate(-388.879 -163.009)" fill="#f0c27a"/>
            <path id="Trazado_1235026" data-name="Trazado 1235026" d="M463.881,289.835c-.927-1.6-2.524-3.935-4.82-3.141,0,0,.267,1.628.333,2.037a2,2,0,0,1-.486,1.605,4.172,4.172,0,0,1-2.1,1.545,25.8,25.8,0,0,1-6.176,1.18c-3.524.35-11.008,1.384-11.231-3.511-2.578.884-2.563,4.394-2.765,5.145a22.152,22.152,0,0,0-.969,4.7c-.07,1.6.475,3.107.471,4.7a33.4,33.4,0,0,1-.734,4.852.671.671,0,0,0,.292.636c1.046.7,1.962,1.56,3.03,2.234a10.562,10.562,0,0,0,3.268,1.411,21.671,21.671,0,0,0,7.251.142,43.951,43.951,0,0,0,8.105-1.64,2.465,2.465,0,0,0,1.837-2.352c.132-1.356.214-2.718.286-4.075.085-1.581.134-3.162.138-4.742a23.347,23.347,0,0,1,.123-2.837,17.9,17.9,0,0,1,2,5.182,18.872,18.872,0,0,1,.327,6.836.7.7,0,0,0,1.011.687,24.242,24.242,0,0,0,2.992-1.374q.7-.376,1.381-.785c.367-.221.954-.472,1.162-.853a3.551,3.551,0,0,0,.17-1.437c.019-.543.008-1.086,0-1.629a20.77,20.77,0,0,0-.247-3.055C467.891,297.21,465.918,293.353,463.881,289.835Z" transform="translate(-390.199 -159.764)" fill="#fdf8ef"/>
          </g>
          <g id="Grupo_1231420" data-name="Grupo 1231420" transform="translate(0 74.19)">
            <path id="Trazado_1235027" data-name="Trazado 1235027" d="M216.322,347.414q-3.788-17.9-7.576-35.8c-.6-2.836-1.169-5.681-1.809-8.508a24.3,24.3,0,0,0-2.549-7.134,25.594,25.594,0,0,0-5.132-5.583,47.925,47.925,0,0,1-4.812-5.491,20.979,20.979,0,0,0-2.438-2.625,14.088,14.088,0,0,0-3.339-1.987,17.505,17.505,0,0,0-7.088-1.646,35.846,35.846,0,0,0-7.888.77c-1.231.235-2.565.333-3.379,1.4a28.182,28.182,0,0,0-2.235,3.573,33.717,33.717,0,0,0-4.326,14.4,46.709,46.709,0,0,0,1.092,14.641c.761,2.818,1.918,5.615,2.247,8.545.323,2.879-1.289,5.705-1.711,8.541-.355,2.381-.517,4.774.835,6.839a5.265,5.265,0,0,0,2.5,2.09,11.457,11.457,0,0,0-.018,6.269,11.747,11.747,0,0,0,2.045,3.852c.421.57.755,1.2,1.2,1.764a20.349,20.349,0,0,1,1.743,2.1,26.435,26.435,0,0,1,2.149,4.592,25.669,25.669,0,0,0,1.773,4.681c1.6,2.679,4.771,4.448,7.775,5.265,4.142,1.125,8.38.7,12.627.118a1.211,1.211,0,0,0,1.479.046,31.209,31.209,0,0,0,5.248-4.207,37.426,37.426,0,0,0,4.251-5.3,38.431,38.431,0,0,0,3.148-5.8,29.059,29.059,0,0,0,1.169-3.055C214.65,350.322,216.715,349.274,216.322,347.414Z" transform="translate(-103.009 -229.465)" fill="#f0c27a"/>
            <g id="Grupo_1231419" data-name="Grupo 1231419">
              <g id="Grupo_1231418" data-name="Grupo 1231418">
                <path id="Trazado_1235028" data-name="Trazado 1235028" d="M151.506,267.386c.174.008.348.012.522.018-.589-.021-.007,0,.1,0,.754-.005,1.514-.017,2.268-.057a26.957,26.957,0,0,0,4.083-.532c.237-.049.473-.1.71-.157l.064-.012c.289-.064.58-.16.858-.242.638-.188,1.273-.391,1.9-.61q1.028-.358,2.029-.794.414-.181.824-.375c.173-.082.9-.32.97-.484q-.543.292-.152.08l.234-.131q.195-.109.387-.222.461-.271.91-.559.817-.526,1.591-1.114.418-.318.82-.655c.122-.1.242-.207.363-.311h0c.451-.437.9-.877,1.312-1.346s.8-.969,1.174-1.477c-4.014-6.551-13.909-22.629-15.8-25.042-3.256-4.153-9.279-5.4-14.641-6.164-2.741-.392-5.562-.433-8.213-1.169-3.89-1.081-7.139-3.575-10.788-5.236s-8.288-2.375-11.686,0a2.081,2.081,0,0,0-1.02,1.372c-.079.873.829,1.443,1.617,1.817,4.528,2.151,9.069,4.3,13.752,6.124a49.488,49.488,0,0,0-13.178,3.54c-.322.136-.7.359-.688.7.011.3.33.476.61.593,10.312,4.309,16.347,9.063,26.917,12.78.792.278,7.013,11.949,11.016,19.59C150.749,267.339,151.127,267.368,151.506,267.386Z" transform="translate(-88.158 -212.93)" fill="#eeb990"/>
                <path id="Trazado_1235029" data-name="Trazado 1235029" d="M79.606,224.97a1.14,1.14,0,0,1,.35-.827,4.855,4.855,0,0,1,3.881-1.514,8.712,8.712,0,0,1,3.95,1.334c-.9-2.465-2.07-4.979-2.969-7.444a.99.99,0,0,1-.083-.616.918.918,0,0,1,.263-.377,3.836,3.836,0,0,1,4.731-.038A10.117,10.117,0,0,1,92.6,219.5a34.865,34.865,0,0,0,4.095,6.981c-.035-2.98.11-5.769.074-8.75q-.013-1.077-.025-2.155l-.045-3.838a1.3,1.3,0,0,1,.2-.869,1.231,1.231,0,0,1,.817-.348,5.124,5.124,0,0,1,4.235,1.43,4.911,4.911,0,0,1,1.31,4.2,5.5,5.5,0,0,1,3.284,3.483,8.156,8.156,0,0,1-.041,4.572,6.708,6.708,0,0,0-.26,1.213,5.823,5.823,0,0,0,1.9,2.324c.949.864,1.935,1.689,2.962,2.462,1,.751,2.04,1.444,3.095,2.117.113.072.231.137.346.207,3.771,1.058,7.838.682,11.759.735a27.435,27.435,0,0,1,10.5,2.21,41.311,41.311,0,0,1,8.686,2.254,19.619,19.619,0,0,1,2.2,1.014c-1.216,2.268-2.253,4.617-3.358,6.939-.313.644-.625,1.289-.945,1.931a3.351,3.351,0,0,0-.364,1.379c-.17.367-.325.741-.47,1.118-9.947-.857-27.038-5.414-33.48-7.512-3.777-1.23-7.148-1.776-10.995-2.8a10.049,10.049,0,0,1-4.392-1.972,9.651,9.651,0,0,1-2.178-3.966c-3.713-2.711-7.612-5.395-11.306-8.131A1.222,1.222,0,0,1,79.606,224.97Z" transform="translate(-79.602 -210.484)" fill="#eeb990"/>
                <path id="Trazado_1235030" data-name="Trazado 1235030" d="M108.168,217.763a1.328,1.328,0,0,1,2.041,0c.185.255-.152.594-.388.357s-.6-.061-.866.081a1.085,1.085,0,0,0-.542.964,17.114,17.114,0,0,0,.316,2.814,56.759,56.759,0,0,1,.069,5.694,26.3,26.3,0,0,0,.312,5.229,11.319,11.319,0,0,0,1.414,4.016,7.221,7.221,0,0,0,3.45,2.9.479.479,0,0,1-.3.91,7.049,7.049,0,0,1-3.764-2.871,12.4,12.4,0,0,1-1.9-4.428c-.848-4.178.323-8.54-.284-12.75C107.593,219.716,107.361,218.556,108.168,217.763Z" transform="translate(-87.398 -212.379)" fill="#da893e"/>
                <path id="Trazado_1235031" data-name="Trazado 1235031" d="M103.965,232.566c.8,2.421-.041,5.2,1.055,7.533,1.158,2.467,3.709,3.663,6.2,4.552a21.442,21.442,0,0,1,4.251,1.8.408.408,0,0,1-.343.726,47.927,47.927,0,0,1-8-3.064,6.4,6.4,0,0,1-2.876-2.927,10.94,10.94,0,0,1-.621-3.793,19.712,19.712,0,0,0-.622-4.6C102.823,232.209,103.775,231.993,103.965,232.566Z" transform="translate(-86.114 -216.541)" fill="#da893e"/>
                <path id="Trazado_1235032" data-name="Trazado 1235032" d="M91.288,229.62c.652,1.4,1.224,2.842,1.967,4.2.359.654.711,1.31,1.048,1.976a6.2,6.2,0,0,1,.846,2.178.353.353,0,0,1-.587.313,6.1,6.1,0,0,1-1.182-2c-.313-.68-.61-1.364-.9-2.053-.6-1.428-1.374-2.765-2.07-4.147C90.136,229.54,91.031,229.066,91.288,229.62Z" transform="translate(-82.598 -215.745)" fill="#da893e"/>
                <path id="Trazado_1235033" data-name="Trazado 1235033" d="M123.147,237.954a11.831,11.831,0,0,0,1.444,1.159,5.737,5.737,0,0,0,1.676.928,9.423,9.423,0,0,0,1.88.112c.642.063,1.284.115,1.929.15.331.018.662.027.993.034l.016-.02a9.877,9.877,0,0,0,1.672-.044c-.019.022-.04.041-.058.063,2.185-.04,4.372-.2,6.553-.1a23.434,23.434,0,0,1,13.549,4.829,21.685,21.685,0,0,1,2.922,2.778,13.776,13.776,0,0,1,2.141,3.48c.182.4-.417.9-.711.5-.7-.957-1.515-1.84-2.283-2.746a22.423,22.423,0,0,0-2.5-2.5,24.422,24.422,0,0,0-6.049-3.758,20.047,20.047,0,0,0-7.051-1.721,76.538,76.538,0,0,0-7.8.489h0a.467.467,0,0,1-.453.016c-.289.01-.579.019-.868.018a11.743,11.743,0,0,1-2.16-.222,16.4,16.4,0,0,1-1.973-.8,19.058,19.058,0,0,1-1.957-.657,6.176,6.176,0,0,1-1.714-1.245C121.858,238.223,122.668,237.477,123.147,237.954Z" transform="translate(-91.465 -218.093)" fill="#da893e"/>
              </g>
              <path id="Trazado_1235034" data-name="Trazado 1235034" d="M201.583,282.473a7.908,7.908,0,0,0-.977-2.148,18.961,18.961,0,0,0-1.3-2.016,23.19,23.19,0,0,0-3.253-3.631c-1.245-1.111-2.586-2.113-3.889-3.158-.71-.569-1.41-1.151-2.076-1.768a18.7,18.7,0,0,0-1.936-1.734,3.439,3.439,0,0,0-4.316.087.5.5,0,0,0-.1.573,14.948,14.948,0,0,0,1.131,2.23c-.568,1.422-2.2,2.589-3.351,3.472a23.186,23.186,0,0,1-4.767,2.76,30.587,30.587,0,0,1-10.628,2.493c-.517.025-1.053.073-1.569.05a1.855,1.855,0,0,1-1.312-.781,8.946,8.946,0,0,1-1.886-3.037.642.642,0,0,0-1.113-.167.548.548,0,0,0-.206.11,6.809,6.809,0,0,0-1.972,5.581,16,16,0,0,0,.991,4.613.047.047,0,0,1,0,.01c.267,2.066.316,4.218.41,6.307.092,2.036.123,4.076.163,6.116a17.335,17.335,0,0,0,.089,2.861c.192.987,1.244,1.26,2.089,1.544a19.194,19.194,0,0,0,2.871.7,9.54,9.54,0,0,0,3.024.19,8.4,8.4,0,0,0,2.975-1.411c1.061-.651,2.115-1.315,3.175-1.967a.876.876,0,0,0,.372-1.148,28.99,28.99,0,0,1-2.183-6.222,22.142,22.142,0,0,1-.711-4.339,44.911,44.911,0,0,0,3.191,4.9,21.771,21.771,0,0,1,1.971,3.348c.453,1,.61,2.736,1.853,3.107a4.824,4.824,0,0,0,2.272-.221,24.121,24.121,0,0,0,2.444-.708c1.556-.538,3.11-1.106,4.618-1.776a22.988,22.988,0,0,0,4.164-2.251,18.815,18.815,0,0,0,3.3-3.341,45.152,45.152,0,0,0,3.19-4.189c.128-.195.251-.4.377-.6.1-.116.2-.23.3-.347q.805-.97,1.579-1.964C201.08,283.963,201.744,283.336,201.583,282.473Z" transform="translate(-101.455 -226.31)" fill="#fdf8ef"/>
            </g>
          </g>
        </g>
        <path id="Trazado_1235035" data-name="Trazado 1235035" d="M262.846,328.98c-.072-5.088-.449-10.151-.834-15.208-.721-9.462-1.391-18.967-.375-28.495a63.089,63.089,0,0,1,3.466-15.509c.243-.646-.6-1.168-.939-.561-9.59,17.4-4.971,38.546-4.309,57.477.1,2.8.02,5.588.017,8.39q0,2.157-.062,4.318a38.237,38.237,0,0,0,.234,4.293c.05.584.724.558.915.09a18.9,18.9,0,0,0,1.134-3.333c.25-1.271.417-2.571.545-3.861A67.012,67.012,0,0,0,262.846,328.98Z" transform="translate(-129.341 -152.365)" fill="#ebaa43"/>
        <path id="Trazado_1235036" data-name="Trazado 1235036" d="M412.727,305.483a2.99,2.99,0,0,0-1.621.545,11.679,11.679,0,0,0-1.215,1.115,23.529,23.529,0,0,0-2.238,2.661,23.187,23.187,0,0,0-3.056,5.986c-.677,1.91-1.188,3.9-1.786,5.854-.1-1.571-.261-3.129-.312-4.591a28.611,28.611,0,0,1,2.387-12.9,29.31,29.31,0,0,1,3.73-6.127c.771-.967,1.62-1.869,2.362-2.86a10.309,10.309,0,0,0,1.616-3.229,1.016,1.016,0,0,0-1.233-1.233A22.064,22.064,0,0,0,399.5,300.74c-2.982,5.417-2.963,11.447-1.862,17.389.65,3.506,1.429,6.98,2.028,10.5a.873.873,0,0,0,.094.68.128.128,0,0,1-.032.012c-.332.05-.8-.723-.985-.928a40.932,40.932,0,0,1-3.554-4.775q-2.392-3.676-4.907-7.26a35.882,35.882,0,0,0-3.167-5.947c-1.293-2.143-2.6-4.278-3.879-6.429a121.751,121.751,0,0,1-7.048-13.286,46.446,46.446,0,0,1-4.151-14.056,41.845,41.845,0,0,1,1.079-14.412,48.8,48.8,0,0,1,6.678-14.807c.879-1.328-1.237-2.488-2.137-1.213-5.8,8.214-8.232,18.616-7.719,28.589a53.905,53.905,0,0,0,2.055,12.107c-1.12-1.963-2.2-3.951-3.206-5.974-1.073-2.156-2.224-4.437-2.35-6.887-.129-2.519,1.153-4.895,2.152-7.132a1.119,1.119,0,0,0-1.945-1.1,12.214,12.214,0,0,0-2.558,7.591,19.168,19.168,0,0,0,2.468,7.8q2,3.944,4.3,7.721a21.28,21.28,0,0,0,3.5,4.557,96.6,96.6,0,0,0,5.115,9.891c1.4,2.41,2.844,4.79,4.284,7.173-2.561,8.767-1.744,17.988-.552,26.932.652,4.89,1.333,9.773,1.853,14.68.466,4.4,1.03,8.831,1.128,13.259a39.556,39.556,0,0,1-.415,6.906,27.579,27.579,0,0,1-2.187,6.779c-.4.913.74,2.039,1.516,1.155,2.757-3.138,3.806-7.69,3.99-11.77a65.091,65.091,0,0,0-1.1-13.044c-.794-5.054-1.547-10.112-2.159-15.191-.575-4.777-1.132-9.57-1.241-14.386a55.56,55.56,0,0,1,.952-12.285,37.621,37.621,0,0,0,2.166,3.314c1.54,2.661,3.118,5.3,4.762,7.9,1.4,2.212,5.971,10.151,8.841,5.61.042-.066.075-.136.115-.2a1.03,1.03,0,0,0,.688-1.043c-.006-.1-.019-.2-.027-.308.058-.151.107-.306.158-.46,2.115-3.314,3.034-7.123,4.294-10.848a24.319,24.319,0,0,1,2.827-5.893,19.165,19.165,0,0,1,2.055-2.531c.381-.4.794-.759,1.186-1.145a3.787,3.787,0,0,0,.861-1.5A.681.681,0,0,0,412.727,305.483Zm-7.9-8.46a18.541,18.541,0,0,1,4.462-3.272c-.657.866-1.4,1.687-2.018,2.5a29.783,29.783,0,0,0-3.162,5.147,33.57,33.57,0,0,0-3.153,11.173c-.354,3.507.208,7.008.242,10.5-.872-4.083-2.011-8.126-2.042-12.332A19.049,19.049,0,0,1,404.827,297.024Z" transform="translate(-158.844 -145.374)" fill="#ebaa43"/>
        <path id="Trazado_1235037" data-name="Trazado 1235037" d="M420.73,297.266a12.759,12.759,0,0,0-8.634,3.9,28.571,28.571,0,0,0-3.277,3.8c-1.025,1.387-1.832,2.888-2.762,4.334-.519.809.721,1.449,1.27.721.936-1.242,1.99-2.409,3-3.589a28.046,28.046,0,0,1,3.262-3.277,19.061,19.061,0,0,1,7.4-3.819A1.06,1.06,0,0,0,420.73,297.266Z" transform="translate(-170.503 -160.492)" fill="#ebaa43"/>
        <path id="Trazado_1235038" data-name="Trazado 1235038" d="M232.971,350.756a23.931,23.931,0,0,0-1.516-6.406,15.261,15.261,0,0,0-2.143-6.137c-.98-1.594-2.724-2.446-4.08-3.662a7.493,7.493,0,0,1-2.208-4c-.847-3.632-.529-7.443-2.275-10.847-.268-.522-1.185-.17-.969.394,1.189,3.1.54,6.516.771,9.745a11.269,11.269,0,0,0,1.224,4.689,10.738,10.738,0,0,0,3.847,3.542.543.543,0,0,0,.319.42c3,1.374,1.569,5.243.317,7.318a26.513,26.513,0,0,1-5.207,6.144,34.622,34.622,0,0,1-6.541,4.5c-1.183.634-2.4,1.208-3.641,1.721-1.2.5-2.7.874-3.631,1.822a.911.911,0,0,0,.41,1.514,6.728,6.728,0,0,0,3.543-.636,36.33,36.33,0,0,0,3.343-1.467,34.812,34.812,0,0,0,6.333-4.026,30.336,30.336,0,0,0,5.054-5.176,17.836,17.836,0,0,0,3.5-6.447c.048.312.092.625.152.934a11.252,11.252,0,0,1-.094,2.118c-.548,3.878-2.618,7.378-4.554,10.706a51.609,51.609,0,0,0-3.151,6.077,14.53,14.53,0,0,0-1.471,6.565,1.125,1.125,0,0,0,2.084.55c1.576-2.152,3.519-4.021,5.152-6.135a34.364,34.364,0,0,0,4.143-6.4A14.2,14.2,0,0,0,232.971,350.756Zm-3.474,6.916a34.274,34.274,0,0,1-3.582,5.883c-.79,1.094-1.624,2.231-2.543,3.279a18.379,18.379,0,0,1,.778-2.259,58.966,58.966,0,0,1,2.859-5.5,43.476,43.476,0,0,0,3.718-7.774A14.1,14.1,0,0,1,229.5,357.672Z" transform="translate(-115.085 -165.973)" fill="#ebaa43"/>
        <path id="Trazado_1235039" data-name="Trazado 1235039" d="M201.669,359.508a18.735,18.735,0,0,0-3.14,1.1,28.938,28.938,0,0,1-3.225,1,51.25,51.25,0,0,1-6.6,1.311,47.339,47.339,0,0,1-6.785.159,31.636,31.636,0,0,1-6.741-.807.835.835,0,0,0-.423,1.615,33.9,33.9,0,0,0,6.966,1.936,28.447,28.447,0,0,0,7.291,0,26.516,26.516,0,0,0,7-1.67c2.084-.854,4.769-1.828,6.271-3.584A.644.644,0,0,0,201.669,359.508Z" transform="translate(-105.945 -177.143)" fill="#ebaa43"/>
        <path id="Trazado_1235040" data-name="Trazado 1235040" d="M245.1,329.083a21.915,21.915,0,0,0-4.2-7.044,21.556,21.556,0,0,0-3.081-2.765c-1.062-.8-2.258-1.377-3.386-2.067-.975-.6-1.835.93-.876,1.542a19.048,19.048,0,0,1,2.8,2.441c.893.856,1.749,1.767,2.562,2.7a38.887,38.887,0,0,1,4.35,5.939C243.817,330.767,245.517,330.17,245.1,329.083Z" transform="translate(-122.37 -165.767)" fill="#ebaa43"/>
        <path id="Trazado_1235041" data-name="Trazado 1235041" d="M336.2,338.613a1.509,1.509,0,0,0-1.649-.695c-11.822,4.031-23.878,8.046-36.5,8.115a43.638,43.638,0,0,1-10.641-1.149.8.8,0,0,0-.405,1.547,52.088,52.088,0,0,0,18.9,1.751,92.207,92.207,0,0,0,18.95-3.992c2.823-.866,5.622-1.8,8.419-2.752a9.617,9.617,0,0,1-1.588,1.238q-1.931,1.31-3.985,2.425a46.934,46.934,0,0,1-8.97,3.726,47.667,47.667,0,0,1-9.389,1.832c-3.259.291-6.526.219-9.784.421a.925.925,0,0,0-.234,1.812,25.8,25.8,0,0,0,8.465.825,50.33,50.33,0,0,0,24.44-7.882C334.4,344.433,338.317,341.634,336.2,338.613Z" transform="translate(-137.215 -171.277)" fill="#ebaa43"/>
        <path id="Trazado_1235042" data-name="Trazado 1235042" d="M325.542,283.616c-6.666,1.144-13.132,3.43-19.956,3.518-6.614.085-13.009-2.146-18.787-5.228a.719.719,0,0,0-.71,1.25,58.151,58.151,0,0,0,9.1,5.026,27.315,27.315,0,0,0,10.228,1.864,50.137,50.137,0,0,0,20.76-4.876C327.1,284.742,326.424,283.465,325.542,283.616Z" transform="translate(-137.023 -156.411)" fill="#ebaa43"/>
      </g>
    </g>
  </g>
</svg>
