<svg xmlns="http://www.w3.org/2000/svg" xmlns:xlink="http://www.w3.org/1999/xlink" width="113" height="113" viewBox="0 0 113 113">
  <defs>
    <filter id="Trazado_982547" x="0" y="0" width="113" height="113" filterUnits="userSpaceOnUse">
      <feOffset dy="3" input="SourceAlpha"/>
      <feGaussianBlur stdDeviation="3" result="blur"/>
      <feFlood flood-opacity="0.161"/>
      <feComposite operator="in" in2="blur"/>
      <feComposite in="SourceGraphic"/>
    </filter>
  </defs>
  <g id="Grupo_1231475" data-name="Grupo 1231475" transform="translate(-1216.574 -4005.116)">
    <g id="Grupo_1230647" data-name="Grupo 1230647" transform="translate(104.574 2774.9)">
      <g id="Grupo_1209049" data-name="Grupo 1209049">
        <g id="Grupo_1208493" data-name="Grupo 1208493" transform="translate(0 -4397.209)">
          <g id="Grupo_1202104" data-name="Grupo 1202104" transform="translate(0 -1149.226)">
            <g id="Grupo_1201923" data-name="Grupo 1201923" transform="translate(-4174.49 4856.378)">
              <g id="Grupo_1176928" data-name="Grupo 1176928" transform="translate(5295.49 1926.273)">
                <g id="Grupo_1172322" data-name="Grupo 1172322" transform="translate(0 0)">
                  <g id="Grupo_1164700" data-name="Grupo 1164700">
                    <g id="Grupo_1160931" data-name="Grupo 1160931">
                      <g id="Grupo_1160749" data-name="Grupo 1160749">
                        <g id="Grupo_1158891" data-name="Grupo 1158891">
                          <g id="Grupo_1157406" data-name="Grupo 1157406">
                            <g id="Grupo_1155793" data-name="Grupo 1155793">
                              <g id="Grupo_1154704" data-name="Grupo 1154704">
                                <g id="Grupo_1150790" data-name="Grupo 1150790">
                                  <g id="Grupo_1154214" data-name="Grupo 1154214">
                                    <g id="Grupo_1152583" data-name="Grupo 1152583">
                                      <g id="Grupo_1146973" data-name="Grupo 1146973">
                                        <g id="Grupo_1146954" data-name="Grupo 1146954">
                                          <g transform="matrix(1, 0, 0, 1, -9, -6)" filter="url(#Trazado_982547)">
                                            <g id="Trazado_982547-2" data-name="Trazado 982547" transform="translate(9 6)" fill="#dce8fa">
                                              <path d="M 47.5000114440918 93.49987030029297 C 41.28938293457031 93.49987030029297 35.26534652709961 92.28384399414062 29.5951976776123 89.88558959960938 C 24.11773109436035 87.56881713867188 19.19814491271973 84.25183868408203 14.97310447692871 80.02680206298828 C 10.74805164337158 75.80176544189453 7.43107795715332 70.88218688964844 5.114304542541504 65.40472412109375 C 2.716038227081299 59.73458862304688 1.500011444091797 53.71054840087891 1.500011444091797 47.49993515014648 C 1.500011444091797 41.28932189941406 2.716038227081299 35.26528167724609 5.114304542541504 29.59514808654785 C 7.43107795715332 24.1176815032959 10.74805164337158 19.1981086730957 14.97310447692871 14.97306823730469 C 19.19814491271973 10.74802875518799 24.11773109436035 7.431055068969727 29.5951976776123 5.11428165435791 C 35.26534652709961 2.716028451919556 41.28938293457031 1.500001788139343 47.5000114440918 1.500001788139343 C 53.71063995361328 1.500001788139343 59.73467636108398 2.716028451919556 65.40482330322266 5.11428165435791 C 70.88229370117188 7.431055068969727 75.8018798828125 10.74802875518799 80.02691650390625 14.97306823730469 C 84.25196838378906 19.1981086730957 87.56894683837891 24.1176815032959 89.88571929931641 29.59514808654785 C 92.28398132324219 35.26528167724609 93.50001525878906 41.28932189941406 93.50001525878906 47.49993515014648 C 93.50001525878906 53.71054840087891 92.28398132324219 59.73458862304688 89.88571929931641 65.40472412109375 C 87.56894683837891 70.88218688964844 84.25196838378906 75.80176544189453 80.02691650390625 80.02680206298828 C 75.8018798828125 84.25183868408203 70.88229370117188 87.56881713867188 65.40482330322266 89.88558959960938 C 59.73467636108398 92.28384399414062 53.71063995361328 93.49987030029297 47.5000114440918 93.49987030029297 Z" stroke="none"/>
                                              <path d="M 47.5000114440918 3 C 41.49122619628906 3 35.66378021240234 4.1761474609375 30.17951965332031 6.495796203613281 C 24.880859375 8.7369384765625 20.12153625488281 11.94596862792969 16.03376770019531 16.03373718261719 C 11.94598388671875 20.12149047851562 8.736968994140625 24.88081359863281 6.495811462402344 30.17947387695312 C 4.176162719726562 35.66371917724609 3.000007629394531 41.49116516113281 3.000007629394531 47.49993515014648 C 3.000007629394531 53.50870513916016 4.176162719726562 59.33615112304688 6.495811462402344 64.82039642333984 C 8.736968994140625 70.11905670166016 11.94598388671875 74.87837982177734 16.03376770019531 78.96613311767578 C 20.12153625488281 83.05390167236328 24.880859375 86.26293182373047 30.17951965332031 88.50407409667969 C 35.66378021240234 90.82372283935547 41.49122619628906 91.99987030029297 47.5000114440918 91.99987030029297 C 53.50879669189453 91.99987030029297 59.33624267578125 90.82372283935547 64.82050323486328 88.50407409667969 C 70.11916351318359 86.26293182373047 74.87848663330078 83.05390167236328 78.96625518798828 78.96613311767578 C 83.05403900146484 74.87837982177734 86.2630615234375 70.11905670166016 88.50421142578125 64.82039642333984 C 90.82386016845703 59.33615112304688 92.00001525878906 53.50870513916016 92.00001525878906 47.49993515014648 C 92.00001525878906 41.49116516113281 90.82386016845703 35.66371917724609 88.50421142578125 30.17947387695312 C 86.2630615234375 24.88081359863281 83.05403900146484 20.12149047851562 78.96625518798828 16.03373718261719 C 74.87848663330078 11.94596862792969 70.11916351318359 8.7369384765625 64.82050323486328 6.495796203613281 C 59.33624267578125 4.1761474609375 53.50879669189453 3 47.5000114440918 3 M 47.5000114440918 0 C 73.73353576660156 0 95.00001525878906 21.26644134521484 95.00001525878906 47.49993515014648 C 95.00001525878906 73.73342895507812 73.73353576660156 94.99987030029297 47.5000114440918 94.99987030029297 C 21.26648712158203 94.99987030029297 7.62939453125e-06 73.73342895507812 7.62939453125e-06 47.49993515014648 C 7.62939453125e-06 21.26644134521484 21.26648712158203 0 47.5000114440918 0 Z" stroke="none" fill="#5692e8"/>
                                            </g>
                                          </g>
                                        </g>
                                      </g>
                                    </g>
                                  </g>
                                </g>
                              </g>
                            </g>
                          </g>
                        </g>
                      </g>
                    </g>
                  </g>
                </g>
              </g>
            </g>
          </g>
        </g>
      </g>
    </g>
    <g id="Grupo_1231474" data-name="Grupo 1231474">
      <g id="brazil_688444" transform="translate(1242.559 4030.543)">
        <path id="Trazado_1235262" data-name="Trazado 1235262" d="M66.692,25.189a2.144,2.144,0,0,0-1.683-2.078l-.907-.193a4.906,4.906,0,0,1-1.664-.692L58.7,19.779l-6.363-1.065L47.77,16.135a5.394,5.394,0,0,0-2.653-.7H41.38l.993-3.249L40.683,8.707a.543.543,0,0,0-.963-.026L38.293,11.26l-1.949-.121a11.449,11.449,0,0,0-4.754.717l-3.338,1.261L26.75,8.07a.8.8,0,0,0-1.117-.488l-2.9,1.426-1.3-.165a.8.8,0,0,0-.9.84l.15,2.806L17.7,14.537l-1.108-1.549a1.28,1.28,0,0,0-1.343-.5l-1.71.415a1.467,1.467,0,0,0-1.1,1.274L12.185,16.5l.351.779a3.964,3.964,0,0,1,.262,2.459L12.185,22.6l-1.562.439a4.021,4.021,0,0,0-2.8,2.9l-.209.826a3.1,3.1,0,0,0,.624,2.74l1.608,1.928a1.909,1.909,0,0,0,1.34.682l3.017.2,5.677.741a3.237,3.237,0,0,0,2.229,2.6l4.8,1.484.664,3.531,2.86,1.783V49.5a.955.955,0,0,0,.957.955l2.228-.006a.955.955,0,0,1,.881.581l1.724,4.057a2.9,2.9,0,0,1-.607,3.126l-2.833,2.881a1.044,1.044,0,0,0,.108,1.56l5.24,4.032L43,60.575a4.345,4.345,0,0,0,.942-2.5l.053-1.1a3.143,3.143,0,0,1,1.891-2.746L49.472,52.7a3.9,3.9,0,0,1,2.1-.274l.324.047a2.636,2.636,0,0,0,2.535-1.1l2.427-3.451a13.5,13.5,0,0,0,2.269-5.541l.943-5.646.443-.144a4.136,4.136,0,0,0,2.36-1.983l.977-2.287A2.857,2.857,0,0,0,66.7,29.456Z" transform="translate(-6.599 -6.607)" fill="#96d200"/>
        <g id="Grupo_1231473" data-name="Grupo 1231473" transform="translate(0.925 1.683)">
          <path id="Trazado_1235264" data-name="Trazado 1235264" d="M80.656,67.012h0" transform="translate(-71.947 -60.715)" fill="#82c300"/>
          <path id="Trazado_1235265" data-name="Trazado 1235265" d="M39.739,59.439l-1.724-4.057a4.764,4.764,0,0,0-3.762-2.863V48.666a3.818,3.818,0,0,0-1.527-3.054l-1.673-1.255-.39-2.073a3.818,3.818,0,0,0-2.625-2.942l-4.455-1.377a3.819,3.819,0,0,0-3.206-2.844L14.7,34.379l-.255-.025-2.063-.129a.921.921,0,0,1-.839-.708h0a.921.921,0,0,1,.644-1.1l1.032-.294a3.818,3.818,0,0,0,2.7-2.876l.781-3.514,6.145-4.254a3.818,3.818,0,0,0,1.645-3.434l-.295-3.912-1.459.718-1.3-.165a.8.8,0,0,0-.9.84l.15,2.806L17.7,20.383l-1.108-1.549a1.28,1.28,0,0,0-1.343-.5l-1.71.415a1.467,1.467,0,0,0-1.1,1.274l-.251,2.326.351.779a3.964,3.964,0,0,1,.262,2.459l-.613,2.864-1.562.439a4.021,4.021,0,0,0-2.8,2.9l-.209.826a3.1,3.1,0,0,0,.624,2.74l1.608,1.928a1.909,1.909,0,0,0,1.34.682l3.017.2,5.677.741a3.237,3.237,0,0,0,2.229,2.6l4.8,1.484.664,3.531,2.86,1.783v7.042a.955.955,0,0,0,.957.955l2.228-.006a.955.955,0,0,1,.881.581l1.724,4.057a2.9,2.9,0,0,1-.607,3.126l-2.833,2.881a1.044,1.044,0,0,0,.108,1.56l1.98,1.523,3.371-3.192q.049-.047.1-.1A6.718,6.718,0,0,0,39.739,59.439Z" transform="translate(-7.524 -14.136)" fill="#82c300"/>
          <path id="Trazado_1235266" data-name="Trazado 1235266" d="M305.941,32.941h0" transform="translate(-270.404 -30.702)" fill="#82c300"/>
        </g>
        <path id="Trazado_1235268" data-name="Trazado 1235268" d="M60.987,18.57a3.02,3.02,0,0,0-2.39-2.939l-.907-.193a4,4,0,0,1-1.361-.566l-3.743-2.447a.894.894,0,0,0-.341-.133l-6.207-1.039-4.427-2.5a6.3,6.3,0,0,0-3.092-.813H35.988l.64-2.095a.893.893,0,0,0-.051-.651L34.887,1.71a1.436,1.436,0,0,0-2.548-.068L31.186,3.727,29.8,3.641a12.267,12.267,0,0,0-5.124.773l-2.44.922L21.007,1.209A1.691,1.691,0,0,0,18.64.174L15.983,1.481,14.95,1.35a1.7,1.7,0,0,0-1.908,1.774l.123,2.306L11.32,6.7l-.6-.836a2.163,2.163,0,0,0-2.28-.848l-1.71.415A2.365,2.365,0,0,0,4.949,7.474L4.7,9.8a.892.892,0,0,0,.074.463l.351.779a3.051,3.051,0,0,1,.2,1.9l-.5,2.337-1.043.293a4.926,4.926,0,0,0-3.421,3.54l-.209.826a4,4,0,0,0,.8,3.53L3.088,26.03a.893.893,0,0,0,.627.319l3.833.254v0c.02,0,.04,0,.06,0a.89.89,0,0,0,.473-.136l.783-.44.406-.668c.418.261-.261-.141,0-.559s.013.051-.406-.21l-.421.21c-.29-.181.29-.181,0,0H7.378l-3.163-.21L2.329,22.33a2.209,2.209,0,0,1-.444-1.949l.209-.826A3.135,3.135,0,0,1,4.267,17.3l1.562-.439a.893.893,0,0,0,.632-.673l.613-2.864a4.824,4.824,0,0,0-.321-3.013L6.5,9.75l.225-2.084a.575.575,0,0,1,.428-.5l1.71-.415a.385.385,0,0,1,.406.151L10.377,8.45a.893.893,0,0,0,1.232.216l2.98-2.048a.893.893,0,0,0,.386-.784l-.144-2.7,1.193.152a.892.892,0,0,0,.507-.085l2.8-1.376L20.8,6.765a.893.893,0,0,0,1.172.581l3.338-1.261a10.48,10.48,0,0,1,4.382-.661l1.949.121a.893.893,0,0,0,.837-.459l1.1-1.988,1.243,2.559L33.927,8.57a.893.893,0,0,0,.854,1.154h3.736a4.509,4.509,0,0,1,2.214.582L45.3,12.885a.891.891,0,0,0,.292.1l6.178,1.034,3.586,2.345a5.777,5.777,0,0,0,1.966.818l.907.193a1.24,1.24,0,0,1,.976,1.206l.01,4.267a1.964,1.964,0,0,1-1.964,1.969.893.893,0,0,0-.821.542l-.96,2.248a3.227,3.227,0,0,1-1.832,1.524l-.443.144a.893.893,0,0,0-.6.7l-.943,5.646A12.675,12.675,0,0,1,49.524,40.8L47.1,44.251a1.74,1.74,0,0,1-1.676.732l-.324-.047a4.8,4.8,0,0,0-2.574.336L38.937,46.8a4.058,4.058,0,0,0-2.432,3.525l-.053,1.1a3.433,3.433,0,0,1-.749,1.986l-4.323,5.423-4.544-3.5a.151.151,0,0,1-.016-.226l2.833-2.881a3.783,3.783,0,0,0,.792-4.1l-1.724-4.057a1.844,1.844,0,0,0-1.7-1.125h0l-2.228.006a.061.061,0,0,1-.062-.061V37.467h.066c.145.091-.213,0-.048,0s.345.091.49,0h-.49c.261-.163,1.063.543,1.063.235s1.532-.072,1.27-.235v-.337c-.418-.262-.524-.771-.786-.352s-.9-.261-.485,0V36.35l-.3.655-.269.124V36.35l-3.455-2.832-.592-3.147a.893.893,0,0,0-.614-.688l-4.8-1.484a2.358,2.358,0,0,1-1.61-1.885.893.893,0,1,0-1.765.277,4.156,4.156,0,0,0,2.847,3.314l4.284,1.324.565,3a.89.89,0,0,0,.4.592h0l2.44,1.525v6.543a1.848,1.848,0,0,0,1.848,1.848h.005l2.228-.006h0a.061.061,0,0,1,.057.037l1.72,4.046a2,2,0,0,1-.418,2.161l-2.833,2.881a1.938,1.938,0,0,0,.2,2.894l5.24,4.032a.893.893,0,0,0,1.243-.151l4.87-6.11a5.208,5.208,0,0,0,1.136-3.014l.053-1.1a2.261,2.261,0,0,1,1.35-1.968l3.585-1.532a3.011,3.011,0,0,1,1.615-.211l.324.047a3.516,3.516,0,0,0,3.394-1.472l2.427-3.451A14.471,14.471,0,0,0,53.4,35.92l.853-5.112a5.008,5.008,0,0,0,2.8-2.386c.012-.023.024-.047.034-.071l.766-1.794A3.753,3.753,0,0,0,61,22.847Z" transform="translate(0 0)"/>
      </g>
      <g id="Grupo_1231468" data-name="Grupo 1231468" transform="translate(1240.735 4030.044)">
        <g id="g1190" transform="translate(32.279 10.039)">
          <path id="path1192" d="M-72.46-48.308a2.513,2.513,0,0,1,2.514,2.513,2.513,2.513,0,0,1-2.514,2.513,2.513,2.513,0,0,1-2.513-2.513,2.513,2.513,0,0,1,2.513-2.513m6.483-1.26a7.553,7.553,0,0,0-6.483-3.767,7.453,7.453,0,0,0-5.526,2.473A7.625,7.625,0,0,0-80-45.735a8.316,8.316,0,0,0,.346,2.268,18.094,18.094,0,0,0,6.145,8.71,2.167,2.167,0,0,0,1.049.418c1.772,0,7.54-6.441,7.54-11.4a7.534,7.534,0,0,0-1.058-3.834" transform="translate(80 53.335)" fill="#ff5d7d" fill-rule="evenodd"/>
        </g>
        <g id="g1194" transform="translate(37.306 15.066)">
          <path id="path1196" d="M-48.308-24.153a2.513,2.513,0,0,0-2.514-2.513,2.513,2.513,0,0,0-2.513,2.513,2.513,2.513,0,0,0,2.513,2.513,2.513,2.513,0,0,0,2.514-2.513" transform="translate(53.335 26.667)" fill="#fff" fill-rule="evenodd"/>
        </g>
        <g id="g1202" transform="translate(32.279 10.039)">
          <path id="path1204" d="M-72.46-182.548c-1.772,0-7.54-6.441-7.54-11.4a7.642,7.642,0,0,1,7.54-7.6,7.642,7.642,0,0,1,7.54,7.6C-64.919-188.988-70.687-182.548-72.46-182.548Z" transform="translate(80 201.544)" fill="none" stroke="#000" stroke-linecap="round" stroke-linejoin="round" stroke-miterlimit="22.926" stroke-width="2"/>
        </g>
        <g id="g1206" transform="translate(37.306 15.066)">
          <path id="path1208" d="M-24.153-48.306A2.518,2.518,0,0,0-21.64-50.82a2.518,2.518,0,0,0-2.514-2.513,2.518,2.518,0,0,0-2.513,2.513A2.518,2.518,0,0,0-24.153-48.306Z" transform="translate(26.667 53.333)" fill="none" stroke="#000" stroke-linecap="round" stroke-linejoin="round" stroke-miterlimit="22.926" stroke-width="2"/>
        </g>
      </g>
    </g>
  </g>
</svg>
