<svg xmlns="http://www.w3.org/2000/svg" width="85" height="78" viewBox="0 0 85 78">
  <g id="Grupo_1231601" data-name="Grupo 1231601" transform="translate(-181 -2156)">
    <g id="Grupo_1229423" data-name="Grupo 1229423" transform="translate(1 -495)">
      <rect id="Rectángulo_423244" data-name="Rectángulo 423244" width="85" height="78" rx="15" transform="translate(180 2651)" fill="#453179"/>
    </g>
    <g id="thought_1984538" transform="translate(161.74 2170.425)">
      <path id="Trazado_1055263" data-name="Trazado 1055263" d="M207.342,120.375H194.623a.877.877,0,0,0-.876.876v6.936a.877.877,0,0,0,.876.876H204.6a1.44,1.44,0,0,1,.714.19l2.905,1.661v-9.662A.877.877,0,0,0,207.342,120.375Zm-10.583,5.784a1.44,1.44,0,1,1,1.44-1.44A1.465,1.465,0,0,1,196.759,126.159Zm4.224,0a1.44,1.44,0,1,1,1.44-1.44A1.465,1.465,0,0,1,200.983,126.159Zm4.224,0a1.44,1.44,0,1,1,1.44-1.44A1.465,1.465,0,0,1,205.206,126.159Z" transform="translate(-137.818 -108.82)" fill="#d9d5e3"/>
      <path id="Trazado_1055264" data-name="Trazado 1055264" d="M63.365,0a19.172,19.172,0,0,0-19.15,19.15v2.516L41.356,31.12a1.44,1.44,0,0,0,.907,1.777l4.872,1.688v6.769a1.44,1.44,0,0,0,1.44,1.44H55.9v4.916a1.44,1.44,0,0,0,1.44,1.44H74.858a1.44,1.44,0,0,0,1.44-1.44V33.272A19.149,19.149,0,0,0,63.365,0ZM73.28,24.575a1.44,1.44,0,0,1-2.154,1.25l-4.728-2.7H56.8a3.76,3.76,0,0,1-3.756-3.756V12.431A3.76,3.76,0,0,1,56.8,8.676H69.524a3.76,3.76,0,0,1,3.756,3.756Z" fill="#d9d5e3"/>
    </g>
  </g>
</svg>
