<svg xmlns="http://www.w3.org/2000/svg" xmlns:xlink="http://www.w3.org/1999/xlink" width="98" height="98" viewBox="0 0 98 98">
  <defs>
    <filter id="Trazado_982547" x="0" y="0" width="98" height="98" filterUnits="userSpaceOnUse">
      <feOffset dy="3" input="SourceAlpha"/>
      <feGaussianBlur stdDeviation="3" result="blur"/>
      <feFlood flood-opacity="0.161"/>
      <feComposite operator="in" in2="blur"/>
      <feComposite in="SourceGraphic"/>
    </filter>
    <clipPath id="clip-path">
      <path id="path8121" d="M0-682.665H48.414v48.414H0Z" transform="translate(0 682.665)"/>
    </clipPath>
  </defs>
  <g id="Grupo_1231387" data-name="Grupo 1231387" transform="translate(-195.151 -2292)">
    <g id="Grupo_1229590" data-name="Grupo 1229590" transform="translate(204.151 2298)">
      <g id="Grupo_1208936" data-name="Grupo 1208936" transform="translate(0)">
        <g id="Grupo_1208171" data-name="Grupo 1208171">
          <g id="Grupo_1207739" data-name="Grupo 1207739">
            <g id="Grupo_1207712" data-name="Grupo 1207712">
              <g id="Grupo_1207285" data-name="Grupo 1207285">
                <g id="Grupo_1206883" data-name="Grupo 1206883">
                  <g id="Grupo_1204569" data-name="Grupo 1204569">
                    <g id="Grupo_1203962" data-name="Grupo 1203962">
                      <g id="Grupo_1203498" data-name="Grupo 1203498">
                        <g id="Grupo_1202589" data-name="Grupo 1202589">
                          <g id="Grupo_1172010" data-name="Grupo 1172010">
                            <g id="Grupo_1171046" data-name="Grupo 1171046">
                              <g id="Grupo_1148525" data-name="Grupo 1148525">
                                <g transform="matrix(1, 0, 0, 1, -9, -6)" filter="url(#Trazado_982547)">
                                  <g id="Trazado_982547-2" data-name="Trazado 982547" transform="translate(9 6)" fill="#fdfbec">
                                    <path d="M 39.99999237060547 78.49998474121094 C 34.8018684387207 78.49998474121094 29.76002502441406 77.48226165771484 25.0145263671875 75.47508239746094 C 20.43014717102051 73.53604888916016 16.31264877319336 70.75984954833984 12.77639198303223 67.22359466552734 C 9.240137100219727 63.68733596801758 6.463936805725098 59.5698356628418 4.524903297424316 54.98546981811523 C 2.517725706100464 50.23995971679688 1.500003457069397 45.19811630249023 1.500003457069397 39.99999237060547 C 1.500003457069397 34.8018684387207 2.517725706100464 29.76002502441406 4.524903297424316 25.0145263671875 C 6.463936805725098 20.43014717102051 9.240137100219727 16.31264877319336 12.77639198303223 12.77639198303223 C 16.31264877319336 9.240137100219727 20.43014717102051 6.463936805725098 25.0145263671875 4.524903297424316 C 29.76002502441406 2.517725706100464 34.8018684387207 1.500003457069397 39.99999237060547 1.500003457069397 C 45.19811630249023 1.500003457069397 50.23995971679688 2.517725706100464 54.98546981811523 4.524903297424316 C 59.5698356628418 6.463936805725098 63.68733596801758 9.240137100219727 67.22359466552734 12.77639198303223 C 70.75984954833984 16.31264877319336 73.53604888916016 20.43014717102051 75.47508239746094 25.0145263671875 C 77.48226165771484 29.76002502441406 78.49998474121094 34.8018684387207 78.49998474121094 39.99999237060547 C 78.49998474121094 45.19812393188477 77.48226165771484 50.23995971679688 75.47508239746094 54.98546981811523 C 73.53604888916016 59.5698356628418 70.75984954833984 63.68733596801758 67.22359466552734 67.22359466552734 C 63.68733596801758 70.75984954833984 59.5698356628418 73.53604888916016 54.98546981811523 75.47508239746094 C 50.23995971679688 77.48226165771484 45.19812393188477 78.49998474121094 39.99999237060547 78.49998474121094 Z" stroke="none"/>
                                    <path d="M 39.99999237060547 2.999992370605469 C 35.00370025634766 2.999992370605469 30.1584587097168 3.97784423828125 25.59884643554688 5.906402587890625 C 21.19327163696289 7.769805908203125 17.23603057861328 10.43805694580078 13.83704376220703 13.83704376220703 C 10.43805694580078 17.23603057861328 7.769805908203125 21.19327163696289 5.906402587890625 25.59884643554688 C 3.97784423828125 30.1584587097168 2.999992370605469 35.00370025634766 2.999992370605469 39.99999237060547 C 2.999992370605469 44.99628448486328 3.97784423828125 49.84152603149414 5.906402587890625 54.40113830566406 C 7.769805908203125 58.80671310424805 10.43805694580078 62.76395416259766 13.83704376220703 66.16294097900391 C 17.23603057861328 69.56191253662109 21.19327163696289 72.23016357421875 25.59884643554688 74.09356689453125 C 30.1584587097168 76.02212524414062 35.00370025634766 76.99997711181641 39.99999237060547 76.99997711181641 C 44.99628448486328 76.99997711181641 49.84152603149414 76.02212524414062 54.40113830566406 74.09356689453125 C 58.80671310424805 72.23016357421875 62.76395416259766 69.56191253662109 66.16294097900391 66.16294097900391 C 69.56191253662109 62.76395416259766 72.23016357421875 58.80671310424805 74.09356689453125 54.40113830566406 C 76.02212524414062 49.84152603149414 76.99997711181641 44.99628448486328 76.99997711181641 39.99999237060547 C 76.99997711181641 35.00370025634766 76.02212524414062 30.1584587097168 74.09356689453125 25.59884643554688 C 72.23016357421875 21.19327163696289 69.56191253662109 17.23603057861328 66.16294097900391 13.83704376220703 C 62.76395416259766 10.43805694580078 58.80671310424805 7.769805908203125 54.40113830566406 5.906402587890625 C 49.84152603149414 3.97784423828125 44.99628448486328 2.999992370605469 39.99999237060547 2.999992370605469 M 39.99999237060547 -7.62939453125e-06 C 62.09137725830078 -7.62939453125e-06 79.99997711181641 17.90860748291016 79.99997711181641 39.99999237060547 C 79.99997711181641 62.09137725830078 62.09137725830078 79.99997711181641 39.99999237060547 79.99997711181641 C 17.90860748291016 79.99997711181641 -7.62939453125e-06 62.09137725830078 -7.62939453125e-06 39.99999237060547 C -7.62939453125e-06 17.90860748291016 17.90860748291016 -7.62939453125e-06 39.99999237060547 -7.62939453125e-06 Z" stroke="none" fill="#83793c"/>
                                  </g>
                                </g>
                              </g>
                            </g>
                          </g>
                        </g>
                      </g>
                    </g>
                  </g>
                </g>
              </g>
              <g id="g8115" transform="translate(15.793 15.793)">
                <g id="g8117">
                  <g id="g8119" clip-path="url(#clip-path)">
                    <g id="g8125" transform="translate(-33.259 0.709)">
                      <path id="path8127" d="M-338.457-377.826h-25.835v-25.108c5.31-7.679,37.755-5.416,25.835,25.108" transform="translate(364.292 406.667)" fill="#fbdf63"/>
                    </g>
                    <g id="g8129" transform="translate(-33.259 0.709)">
                      <path id="path8131" d="M-338.457-377.826h-.619c6.164-24.728-15.887-30.6-25.216-24.374v-.734c5.31-7.679,37.755-5.416,25.835,25.108" transform="translate(364.292 406.667)" fill="#f9d11f"/>
                    </g>
                  </g>
                </g>
                <g id="g8265">
                  <g id="g8267" clip-path="url(#clip-path)">
                    <g id="g8273" transform="translate(-33.259 51.036)">
                      <path id="path8275" d="M-338.457-377.654h-25.835v-25.1c5.31-7.676,37.755-5.413,25.835,25.1" transform="translate(364.292 406.481)" fill="#003343"/>
                    </g>
                    <g id="g8277" transform="translate(-33.259 51.036)">
                      <path id="path8279" d="M-338.457-377.654h-.619c6.164-24.717-15.887-30.585-25.216-24.362v-.734c5.31-7.676,37.755-5.413,25.835,25.1" transform="translate(364.292 406.481)" fill="#002439"/>
                    </g>
                  </g>
                </g>
                <g id="g8281">
                  <g id="g8283" clip-path="url(#clip-path)">
                    <g id="g8289" transform="translate(17.066 51.014)">
                      <path id="path8291" d="M-338.457-377.826h-25.835v-25.108c5.31-7.679,37.755-5.416,25.835,25.108" transform="translate(364.292 406.667)" fill="#ff7e50"/>
                    </g>
                    <g id="g8293" transform="translate(17.066 51.014)">
                      <path id="path8295" d="M-338.457-377.826h-.619c6.164-24.728-15.887-30.6-25.216-24.374v-.734c5.31-7.679,37.755-5.416,25.835,25.108" transform="translate(364.292 406.667)" fill="#ff6247"/>
                    </g>
                    <g id="g8297" transform="translate(2.941 54.225)">
                      <path id="path8299" d="M-233.028-131.751v15.573h-14.6c-12.2-25.649,14.6-34.273,14.6-15.573" transform="translate(250.816 141.808)" fill="#ffa68a"/>
                    </g>
                    <g id="g8301" transform="translate(2.941 54.225)">
                      <path id="path8303" d="M-233.028-131.751c-.9-16.1-20.23-9.82-14.176,15.573h-.427c-12.2-25.649,14.6-34.273,14.6-15.573" transform="translate(250.816 141.808)" fill="#ff7e50"/>
                    </g>
                  </g>
                </g>
              </g>
            </g>
          </g>
        </g>
      </g>
    </g>
    <g id="homeschooling_3700664" transform="translate(209.25 2310)">
      <path id="Trazado_1234814" data-name="Trazado 1234814" d="M48.571,83.463V59.889L68.438,43.72,88.653,59.889V83.541" transform="translate(-33.548 -39.53)" fill="#ddebfd"/>
      <path id="Trazado_1234815" data-name="Trazado 1234815" d="M436.452,212.149l.035.028v23.646l2.875.006V212.177l-.035-.028Z" transform="translate(-384.258 -191.818)" fill="#bed9fd"/>
      <path id="Trazado_1234816" data-name="Trazado 1234816" d="M200.782,330.1l-1.153.469a14.215,14.215,0,0,1-10.7,0l-1.161-.471a.346.346,0,0,1-.216-.321v-7.36H201v7.36A.346.346,0,0,1,200.782,330.1Z" transform="translate(-159.212 -291.522)" fill="#4071f7"/>
      <path id="Trazado_1234817" data-name="Trazado 1234817" d="M154.316,261.1l9.81,4.408a.581.581,0,0,1-.032,1.039l-9.886,4.562a1.988,1.988,0,0,1-1.666,0l-9.886-4.562a.581.581,0,0,1-.032-1.039l9.81-4.408A1.988,1.988,0,0,1,154.316,261.1Z" transform="translate(-118.312 -235.862)" fill="#80b6fc"/>
      <path id="Trazado_1234818" data-name="Trazado 1234818" d="M239.182,300.646l-2.047-.92a.614.614,0,0,1-.331.37L226.165,305a2.137,2.137,0,0,1-.835.2l2.269,1.047a1.988,1.988,0,0,0,1.666,0l9.886-4.562A.581.581,0,0,0,239.182,300.646Z" transform="translate(-193.368 -271.002)" fill="#62a4fb"/>
      <path id="Trazado_1234819" data-name="Trazado 1234819" d="M64.2,25.43,42,7.593a.527.527,0,0,0-.661,0L19.164,25.408a.528.528,0,0,0-.2.411v4.864a.527.527,0,0,0,.858.411L41.341,13.812a.528.528,0,0,1,.661,0l21.537,17.3A.527.527,0,0,0,64.4,30.7V25.841a.528.528,0,0,0-.2-.411Z" transform="translate(-6.781 -6.76)" fill="#f9c8dc"/>
      <path id="Trazado_1234820" data-name="Trazado 1234820" d="M258.63,25.43,236.43,7.593a.527.527,0,0,0-.661,0l-1.763,1.417,19.722,15.846a5.951,5.951,0,0,1,2.224,4.639l2.017,1.621a.527.527,0,0,0,.858-.411V25.841A.528.528,0,0,0,258.63,25.43Z" transform="translate(-201.213 -6.76)" fill="#faafd1"/>
      <path id="Trazado_1234821" data-name="Trazado 1234821" d="M65.315,467.9H21.4a.578.578,0,0,1-.578-.578v-.953a2.346,2.346,0,0,1,2.346-2.346H63.548a2.346,2.346,0,0,1,2.346,2.346v.953A.578.578,0,0,1,65.315,467.9Z" transform="translate(-8.457 -419.555)" fill="#5392f9"/>
      <path id="Trazado_1234822" data-name="Trazado 1234822" d="M439.553,464.025h-2.875a2.346,2.346,0,0,1,2.346,2.346v.952a.578.578,0,0,1-.578.578h2.875a.578.578,0,0,0,.578-.578v-.952A2.346,2.346,0,0,0,439.553,464.025Z" transform="translate(-384.462 -419.556)" fill="#4981f8"/>
      <path id="Trazado_1234823" data-name="Trazado 1234823" d="M145.336,253.663l-9.788,4.4-.046.023a1.3,1.3,0,0,0,.071,2.325l3.58,1.652v5.271a1.06,1.06,0,0,0,.664.987l1.16.471a14.856,14.856,0,0,0,11.239,0l1.153-.469a1.06,1.06,0,0,0,.664-.987V262.06l3.58-1.652a1.3,1.3,0,0,0,.071-2.325l-.046-.023-9.788-4.4A2.7,2.7,0,0,0,145.336,253.663Zm7.26,13.418-.921.374a13.426,13.426,0,0,1-10.157,0l-.928-.377v-4.357l4.869,2.247a2.7,2.7,0,0,0,2.268,0l4.869-2.247Zm-5.471-3.416a1.267,1.267,0,0,1-1.063,0l-9.61-4.434,9.5-4.266.046-.023a1.267,1.267,0,0,1,1.2,0l.046.023,9.5,4.266Z" transform="translate(-111.53 -229.073)"/>
      <path id="Trazado_1234824" data-name="Trazado 1234824" d="M229.11,208.187a.719.719,0,1,0,1.016,1.016,1.936,1.936,0,0,1,2.738,0,.719.719,0,1,0,1.016-1.016,3.374,3.374,0,0,0-4.771,0Z" transform="translate(-196.595 -187.342)"/>
      <path id="Trazado_1234825" data-name="Trazado 1234825" d="M216.385,180.528a.719.719,0,0,0,.508-1.227,6.222,6.222,0,0,0-8.8,0,.719.719,0,0,0,1.016,1.016,4.784,4.784,0,0,1,6.766,0A.716.716,0,0,0,216.385,180.528Z" transform="translate(-177.594 -160.471)"/>
      <path id="Trazado_1234826" data-name="Trazado 1234826" d="M186.565,150.724a.719.719,0,0,0,1.016,0,7.7,7.7,0,0,1,10.893,0,.719.719,0,0,0,1.016-1.016,9.139,9.139,0,0,0-12.925,0A.719.719,0,0,0,186.565,150.724Z" transform="translate(-158.127 -132.94)"/>
      <path id="Trazado_1234827" data-name="Trazado 1234827" d="M56.307,24.916a1.246,1.246,0,0,0,2.027-.971V19.081a1.241,1.241,0,0,0-.466-.971L35.668.273a1.254,1.254,0,0,0-1.561,0L22.268,9.785a.719.719,0,1,0,.9,1.121L34.887,1.489,56.9,19.173v4.373L35.67,6.492a1.254,1.254,0,0,0-1.561,0L12.9,23.525V19.151l8.23-6.612a.719.719,0,1,0-.9-1.121l-8.3,6.67a1.241,1.241,0,0,0-.466.971v4.864a1.246,1.246,0,0,0,2.027.972l.81-.651V43.778a3.069,3.069,0,0,0-2.659,3.037v.952a1.3,1.3,0,0,0,1.3,1.3H26.935a.719.719,0,1,0,0-1.437H13.082v-.812a1.629,1.629,0,0,1,1.627-1.627H55.091a1.629,1.629,0,0,1,1.627,1.627v.812H29.81a.719.719,0,1,0,0,1.437H56.859a1.3,1.3,0,0,0,1.3-1.3v-.952a3.069,3.069,0,0,0-2.333-2.976V24.528ZM54.386,43.75H15.741V23.09L34.89,7.709l19.5,15.664Z"/>
    </g>
  </g>
</svg>
