<svg xmlns="http://www.w3.org/2000/svg" xmlns:xlink="http://www.w3.org/1999/xlink" width="98" height="98" viewBox="0 0 98 98">
  <defs>
    <filter id="Trazado_982547" x="0" y="0" width="98" height="98" filterUnits="userSpaceOnUse">
      <feOffset dy="3" input="SourceAlpha"/>
      <feGaussianBlur stdDeviation="3" result="blur"/>
      <feFlood flood-opacity="0.161"/>
      <feComposite operator="in" in2="blur"/>
      <feComposite in="SourceGraphic"/>
    </filter>
    <clipPath id="clip-path">
      <path id="path8121" d="M0-682.665H48.414v48.414H0Z" transform="translate(0 682.665)"/>
    </clipPath>
  </defs>
  <g id="Grupo_1230644" data-name="Grupo 1230644" transform="translate(-195.151 -2292)">
    <g id="Grupo_1229590" data-name="Grupo 1229590" transform="translate(204.151 2298)">
      <g id="Grupo_1208936" data-name="Grupo 1208936" transform="translate(0)">
        <g id="Grupo_1208171" data-name="Grupo 1208171">
          <g id="Grupo_1207739" data-name="Grupo 1207739">
            <g id="Grupo_1207712" data-name="Grupo 1207712">
              <g id="Grupo_1207285" data-name="Grupo 1207285">
                <g id="Grupo_1206883" data-name="Grupo 1206883">
                  <g id="Grupo_1204569" data-name="Grupo 1204569">
                    <g id="Grupo_1203962" data-name="Grupo 1203962">
                      <g id="Grupo_1203498" data-name="Grupo 1203498">
                        <g id="Grupo_1202589" data-name="Grupo 1202589">
                          <g id="Grupo_1172010" data-name="Grupo 1172010">
                            <g id="Grupo_1171046" data-name="Grupo 1171046">
                              <g id="Grupo_1148525" data-name="Grupo 1148525">
                                <g transform="matrix(1, 0, 0, 1, -9, -6)" filter="url(#Trazado_982547)">
                                  <g id="Trazado_982547-2" data-name="Trazado 982547" transform="translate(9 6)" fill="#fdfbec">
                                    <path d="M 39.99999237060547 78.49998474121094 C 34.8018684387207 78.49998474121094 29.76002502441406 77.48226165771484 25.0145263671875 75.47508239746094 C 20.43014717102051 73.53604888916016 16.31264877319336 70.75984954833984 12.77639198303223 67.22359466552734 C 9.240137100219727 63.68733596801758 6.463936805725098 59.5698356628418 4.524903297424316 54.98546981811523 C 2.517725706100464 50.23995971679688 1.500003457069397 45.19811630249023 1.500003457069397 39.99999237060547 C 1.500003457069397 34.8018684387207 2.517725706100464 29.76002502441406 4.524903297424316 25.0145263671875 C 6.463936805725098 20.43014717102051 9.240137100219727 16.31264877319336 12.77639198303223 12.77639198303223 C 16.31264877319336 9.240137100219727 20.43014717102051 6.463936805725098 25.0145263671875 4.524903297424316 C 29.76002502441406 2.517725706100464 34.8018684387207 1.500003457069397 39.99999237060547 1.500003457069397 C 45.19811630249023 1.500003457069397 50.23995971679688 2.517725706100464 54.98546981811523 4.524903297424316 C 59.5698356628418 6.463936805725098 63.68733596801758 9.240137100219727 67.22359466552734 12.77639198303223 C 70.75984954833984 16.31264877319336 73.53604888916016 20.43014717102051 75.47508239746094 25.0145263671875 C 77.48226165771484 29.76002502441406 78.49998474121094 34.8018684387207 78.49998474121094 39.99999237060547 C 78.49998474121094 45.19812393188477 77.48226165771484 50.23995971679688 75.47508239746094 54.98546981811523 C 73.53604888916016 59.5698356628418 70.75984954833984 63.68733596801758 67.22359466552734 67.22359466552734 C 63.68733596801758 70.75984954833984 59.5698356628418 73.53604888916016 54.98546981811523 75.47508239746094 C 50.23995971679688 77.48226165771484 45.19812393188477 78.49998474121094 39.99999237060547 78.49998474121094 Z" stroke="none"/>
                                    <path d="M 39.99999237060547 2.999992370605469 C 35.00370025634766 2.999992370605469 30.1584587097168 3.97784423828125 25.59884643554688 5.906402587890625 C 21.19327163696289 7.769805908203125 17.23603057861328 10.43805694580078 13.83704376220703 13.83704376220703 C 10.43805694580078 17.23603057861328 7.769805908203125 21.19327163696289 5.906402587890625 25.59884643554688 C 3.97784423828125 30.1584587097168 2.999992370605469 35.00370025634766 2.999992370605469 39.99999237060547 C 2.999992370605469 44.99628448486328 3.97784423828125 49.84152603149414 5.906402587890625 54.40113830566406 C 7.769805908203125 58.80671310424805 10.43805694580078 62.76395416259766 13.83704376220703 66.16294097900391 C 17.23603057861328 69.56191253662109 21.19327163696289 72.23016357421875 25.59884643554688 74.09356689453125 C 30.1584587097168 76.02212524414062 35.00370025634766 76.99997711181641 39.99999237060547 76.99997711181641 C 44.99628448486328 76.99997711181641 49.84152603149414 76.02212524414062 54.40113830566406 74.09356689453125 C 58.80671310424805 72.23016357421875 62.76395416259766 69.56191253662109 66.16294097900391 66.16294097900391 C 69.56191253662109 62.76395416259766 72.23016357421875 58.80671310424805 74.09356689453125 54.40113830566406 C 76.02212524414062 49.84152603149414 76.99997711181641 44.99628448486328 76.99997711181641 39.99999237060547 C 76.99997711181641 35.00370025634766 76.02212524414062 30.1584587097168 74.09356689453125 25.59884643554688 C 72.23016357421875 21.19327163696289 69.56191253662109 17.23603057861328 66.16294097900391 13.83704376220703 C 62.76395416259766 10.43805694580078 58.80671310424805 7.769805908203125 54.40113830566406 5.906402587890625 C 49.84152603149414 3.97784423828125 44.99628448486328 2.999992370605469 39.99999237060547 2.999992370605469 M 39.99999237060547 -7.62939453125e-06 C 62.09137725830078 -7.62939453125e-06 79.99997711181641 17.90860748291016 79.99997711181641 39.99999237060547 C 79.99997711181641 62.09137725830078 62.09137725830078 79.99997711181641 39.99999237060547 79.99997711181641 C 17.90860748291016 79.99997711181641 -7.62939453125e-06 62.09137725830078 -7.62939453125e-06 39.99999237060547 C -7.62939453125e-06 17.90860748291016 17.90860748291016 -7.62939453125e-06 39.99999237060547 -7.62939453125e-06 Z" stroke="none" fill="#83793c"/>
                                  </g>
                                </g>
                              </g>
                            </g>
                          </g>
                        </g>
                      </g>
                    </g>
                  </g>
                </g>
              </g>
              <g id="g8115" transform="translate(15.793 15.793)">
                <g id="g8117">
                  <g id="g8119" clip-path="url(#clip-path)">
                    <g id="g8125" transform="translate(-33.259 0.709)">
                      <path id="path8127" d="M-338.457-377.826h-25.835v-25.108c5.31-7.679,37.755-5.416,25.835,25.108" transform="translate(364.292 406.667)" fill="#fbdf63"/>
                    </g>
                    <g id="g8129" transform="translate(-33.259 0.709)">
                      <path id="path8131" d="M-338.457-377.826h-.619c6.164-24.728-15.887-30.6-25.216-24.374v-.734c5.31-7.679,37.755-5.416,25.835,25.108" transform="translate(364.292 406.667)" fill="#f9d11f"/>
                    </g>
                  </g>
                </g>
                <g id="g8265">
                  <g id="g8267" clip-path="url(#clip-path)">
                    <g id="g8273" transform="translate(-33.259 51.036)">
                      <path id="path8275" d="M-338.457-377.654h-25.835v-25.1c5.31-7.676,37.755-5.413,25.835,25.1" transform="translate(364.292 406.481)" fill="#003343"/>
                    </g>
                    <g id="g8277" transform="translate(-33.259 51.036)">
                      <path id="path8279" d="M-338.457-377.654h-.619c6.164-24.717-15.887-30.585-25.216-24.362v-.734c5.31-7.676,37.755-5.413,25.835,25.1" transform="translate(364.292 406.481)" fill="#002439"/>
                    </g>
                  </g>
                </g>
                <g id="g8281">
                  <g id="g8283" clip-path="url(#clip-path)">
                    <g id="g8289" transform="translate(17.066 51.014)">
                      <path id="path8291" d="M-338.457-377.826h-25.835v-25.108c5.31-7.679,37.755-5.416,25.835,25.108" transform="translate(364.292 406.667)" fill="#ff7e50"/>
                    </g>
                    <g id="g8293" transform="translate(17.066 51.014)">
                      <path id="path8295" d="M-338.457-377.826h-.619c6.164-24.728-15.887-30.6-25.216-24.374v-.734c5.31-7.679,37.755-5.416,25.835,25.108" transform="translate(364.292 406.667)" fill="#ff6247"/>
                    </g>
                    <g id="g8297" transform="translate(2.941 54.225)">
                      <path id="path8299" d="M-233.028-131.751v15.573h-14.6c-12.2-25.649,14.6-34.273,14.6-15.573" transform="translate(250.816 141.808)" fill="#ffa68a"/>
                    </g>
                    <g id="g8301" transform="translate(2.941 54.225)">
                      <path id="path8303" d="M-233.028-131.751c-.9-16.1-20.23-9.82-14.176,15.573h-.427c-12.2-25.649,14.6-34.273,14.6-15.573" transform="translate(250.816 141.808)" fill="#ff7e50"/>
                    </g>
                  </g>
                </g>
              </g>
            </g>
          </g>
        </g>
      </g>
    </g>
    <g id="educacion_16_" data-name="educacion (16)" transform="translate(220.28 2309.613)">
      <g id="Grupo_1230079" data-name="Grupo 1230079" transform="translate(0.818 5.569)">
        <path id="Trazado_1055265" data-name="Trazado 1055265" d="M91.087,233.242a9.394,9.394,0,0,0-.056,6.957l.766,1.5H58.721s-6.158-3.46,0-9.618l32.79-.676Z" transform="translate(-51.581 -210.88)" fill="#f1f2f2"/>
        <path id="Trazado_1055266" data-name="Trazado 1055266" d="M91.8,241.7H58.724s-6.158-3.46,0-9.618l32.791-.676-.425,1.836a9.007,9.007,0,0,0-.467,1.492H60.608a2.108,2.108,0,1,0,0,4.216H90.633a8.1,8.1,0,0,0,.4,1.249Z" transform="translate(-51.584 -210.879)" fill="#dee1e1"/>
        <path id="Trazado_1055267" data-name="Trazado 1055267" d="M74.849,232.183l-30.234-.048c-3.622,0-6.733-2.311-6.733-5.933a8.252,8.252,0,0,1,.123-2.558,6.561,6.561,0,0,1,6.153-4.283H75.176a1.479,1.479,0,0,1,0,2.959H51.7l-2.293.538-1.994-.538H44.159a3.6,3.6,0,0,0,0,7.2H75.176a1.48,1.48,0,0,1,1.469,1.654C76.559,231.909,75.607,232.183,74.849,232.183Z" transform="translate(-35.134 -199.959)" fill="#b7e546"/>
        <path id="Trazado_1055268" data-name="Trazado 1055268" d="M74.253,269.142a1.479,1.479,0,0,1-1.469,1.305l-15.324.918-15.693-.918a6.561,6.561,0,0,1-6-9.213v1.348a6.559,6.559,0,0,0,6.559,6.559Z" transform="translate(-32.743 -237.928)" fill="#abd641"/>
        <path id="Trazado_1055269" data-name="Trazado 1055269" d="M145.93,255.4v-4.313h-3.074l-1.091.11.066,4.017a.186.186,0,0,0,.254.174l.771-.189.863-.338a.186.186,0,0,1,.136,0l1.821.713A.187.187,0,0,0,145.93,255.4Z" transform="translate(-129.364 -228.73)" fill="#ef5227"/>
        <path id="Trazado_1055270" data-name="Trazado 1055270" d="M141.682,251.1v4.111l-.958.375a.187.187,0,0,1-.255-.173V251.1Z" transform="translate(-128.189 -228.733)" fill="#d83724"/>
        <path id="Trazado_1055271" data-name="Trazado 1055271" d="M129.772,173.047v2.1l-.093.932a.653.653,0,0,1-.653.653l-24.851-.093a.652.652,0,0,1-.653-.653l-.186-2.942,12.757-.61Z" transform="translate(-94.518 -157.41)" fill="#fdcd08"/>
        <path id="Trazado_1055272" data-name="Trazado 1055272" d="M437.536,197.8c-.584,1.439-1.171,2.859-1.755,4.3a1.306,1.306,0,0,0,1.2,1.8l1.079.093h2.626a1.306,1.306,0,0,0,1.2-1.8l-1.217-3-.766-1.39h-2.365Z" transform="translate(-395.875 -180.406)" fill="#fdcd08"/>
        <path id="Trazado_1055273" data-name="Trazado 1055273" d="M437.572,197.327a3.544,3.544,0,0,0,2.191-.53l-.655-1.636-1.082.323h0l-1.41-.188c-.178.439-.437,1.063-.615,1.5h0l-1.217,3a1.306,1.306,0,0,0,1.2,1.8h1.492a1.306,1.306,0,0,1-1.2-1.8l.909-2.24A.377.377,0,0,1,437.572,197.327Z" transform="translate(-394.972 -178.015)" fill="#faab18"/>
        <path id="Trazado_1055274" data-name="Trazado 1055274" d="M451.624,160.015a2.172,2.172,0,0,0-1.453-2.055c-.219-.076-.538.059-.783.059a1.831,1.831,0,0,0-1.92,2,1.9,1.9,0,0,0,2.078,1.92c.245,0,.406.211.625.136A2.172,2.172,0,0,0,451.624,160.015Z" transform="translate(-406.561 -144.261)" fill="#fdcd08"/>
        <path id="Trazado_1055275" data-name="Trazado 1055275" d="M448.727,161.154a2.122,2.122,0,0,1-.7.117,2.173,2.173,0,0,1,0-4.346,2.122,2.122,0,0,1,.7.117,2.181,2.181,0,0,0,0,4.111Z" transform="translate(-405.118 -143.344)" fill="#faab18"/>
        <path id="Trazado_1055276" data-name="Trazado 1055276" d="M56.346,19.855,50.2,21.984l-1.678-.172L36.579,26.7a3.913,3.913,0,0,1-2.56,0L22.081,22,20.4,21.985l-6.151-2.129a.783.783,0,0,1,0-1.479l20-6.924a3.2,3.2,0,0,1,2.094,0l20,6.924A.783.783,0,0,1,56.346,19.855Z" transform="translate(-13.263 -11.276)" fill="#868491"/>
        <path id="Trazado_1055277" data-name="Trazado 1055277" d="M115.129,82.141v.631l-13.617,4.714a3.912,3.912,0,0,1-2.561,0L85.336,82.772v-.631a2.743,2.743,0,0,1,2.26-2.7,71.615,71.615,0,0,1,25.272,0,2.745,2.745,0,0,1,2.26,2.7Z" transform="translate(-78.196 -72.064)" fill="#77777f"/>
        <path id="Trazado_1055278" data-name="Trazado 1055278" d="M131.585,98.462v5.56H105.429l-.093-5.374a1.067,1.067,0,0,1,.878-1.05c.266-.048.347-.28.613-.325a69.916,69.916,0,0,1,23.879.139,1.068,1.068,0,0,1,.878,1.05Z" transform="translate(-96.332 -88.386)" fill="#868491"/>
        <path id="Trazado_1055279" data-name="Trazado 1055279" d="M129.772,175.149v1.026a.653.653,0,0,1-.653.653h-25.13a.653.653,0,0,1-.653-.653v-3.128l.839-.61.839.61v1.636a.466.466,0,0,0,.466.466Z" transform="translate(-94.518 -157.41)" fill="#faab18"/>
        <path id="Trazado_1055280" data-name="Trazado 1055280" d="M105.014,106.6v6.748h-1.678v-5.56a1.067,1.067,0,0,1,.878-1.05C104.481,106.7,104.748,106.649,105.014,106.6Z" transform="translate(-94.518 -97.716)" fill="#77777f"/>
        <path id="Trazado_1055281" data-name="Trazado 1055281" d="M73.067,388.586a8.773,8.773,0,0,1,0-6.715l.284-1.261H35.222s-4.292,4.666.279,9.237l38.1.286Z" transform="translate(-31.098 -346.172)" fill="#f1f2f2"/>
        <path id="Trazado_1055282" data-name="Trazado 1055282" d="M73.6,390.137l-38.1-.285c-4.572-4.571-.279-9.237-.279-9.237l38.312.071-.467,1.189a8.738,8.738,0,0,0-.417,1.272H37.656a2.108,2.108,0,1,0,0,4.216H72.662a8.843,8.843,0,0,0,.406,1.228Z" transform="translate(-31.098 -346.176)" fill="#dee1e1"/>
        <path id="Trazado_1055283" data-name="Trazado 1055283" d="M55.5,372.823l-34.473-.064c-3.622,0-6.809-2.044-6.809-5.666,0-1.15-.281-2.732.238-3.672a6.557,6.557,0,0,1,5.743-3.389H56.149a1.479,1.479,0,0,1,0,2.959H47.242l-2.327.515-1.959-.515H20.2a3.6,3.6,0,0,0,0,7.2H56.149a1.481,1.481,0,0,1,1.455,1.747c-.126.689-1.377.886-2.1.886Z" transform="translate(-13.642 -327.513)" fill="#ef5227"/>
        <path id="Trazado_1055284" data-name="Trazado 1055284" d="M52.73,401.454a1.481,1.481,0,0,1-1.456,1.212H15.327a6.56,6.56,0,0,1-5.533-10.082V394.9a6.559,6.559,0,0,0,6.559,6.559Z" transform="translate(-8.768 -357.03)" fill="#d83724"/>
        <path id="Trazado_1055285" data-name="Trazado 1055285" d="M328.572,396.1v-4.348h-2.888l-1.281.078.069,4.083a.186.186,0,0,0,.254.174l.958-.262.677-.265a.186.186,0,0,1,.136,0l1.821.713A.186.186,0,0,0,328.572,396.1Z" transform="translate(-294.973 -356.272)" fill="#fdcd08"/>
        <path id="Trazado_1055286" data-name="Trazado 1055286" d="M324.539,391.745v4.074l-1.144.448a.187.187,0,0,1-.255-.173v-4.348Z" transform="translate(-293.826 -356.268)" fill="#faab18"/>
      </g>
      <path id="Trazado_1055287" data-name="Trazado 1055287" d="M47.594,26.785l-1.552-3.826A2.841,2.841,0,0,0,44.6,18.374c0-.184,0-4.792,0-4.988A1.451,1.451,0,0,0,43.612,12L23.95,5.192a3.861,3.861,0,0,0-2.516,0l-4.9,1.695A.7.7,0,1,0,17,8.209l4.9-1.695a2.456,2.456,0,0,1,1.6,0L43.154,13.32a.07.07,0,0,1,0,.132L36.386,15.8v-.209a1.746,1.746,0,0,0-1.439-1.72,69.19,69.19,0,0,0-24.508,0A1.746,1.746,0,0,0,9,15.586V15.8L2.231,13.453a.07.07,0,0,1,0-.132L13.856,9.3A.7.7,0,1,0,13.4,7.974L1.773,12a1.469,1.469,0,0,0,0,2.776L9,17.276V24.2A7.255,7.255,0,0,0,5.691,37.45,7.257,7.257,0,0,0,7.258,51.793H43.206a2.178,2.178,0,0,0,.044-4.356,8.012,8.012,0,0,1-.017-5.8,2.178,2.178,0,0,0-.027-4.357h-.432a2.178,2.178,0,0,0-2.034-2.959h-.019a8.007,8.007,0,0,1-.132-5.433,1.964,1.964,0,0,0,1.444.633h3.734a1.967,1.967,0,0,0,1.633-.871,1.99,1.99,0,0,0,.193-1.863Zm-2.277-5.664A1.417,1.417,0,1,1,43.9,19.684,1.428,1.428,0,0,1,45.317,21.121Zm-2.116-6.2v3.458a2.841,2.841,0,0,0-1.442,4.584l-.488,1.2H36.386V17.276Zm-32.516.326a67.808,67.808,0,0,1,24.014,0,.349.349,0,0,1,.288.344v4.766H30.678a.7.7,0,0,0,0,1.4h4.309v2.409H10.4V21.752H27.414a.7.7,0,1,0,0-1.4H10.4V15.587a.349.349,0,0,1,.288-.344Zm33.3,24.214a.781.781,0,0,1-.78.78H7.258a4.3,4.3,0,1,0,0,8.6H34.874a.7.7,0,0,0,0-1.4H7.258a2.9,2.9,0,1,1,0-5.8H29.313v3.92a.7.7,0,0,0,.954.651l1.888-.739,1.888.739A.7.7,0,0,0,35,45.555v-3.92h6.751a9.386,9.386,0,0,0,.014,5.8H38.137a.7.7,0,1,0,0,1.4h5.069a.78.78,0,1,1,0,1.56H7.258a5.859,5.859,0,1,1,0-11.718H43.206a.781.781,0,0,1,.78.78ZM30.712,41.635H33.6v2.9l-1.189-.465a.7.7,0,0,0-.51,0l-1.189.465Zm-11.97-5.917h22a.78.78,0,1,1,0,1.56H9.723a5.859,5.859,0,0,1,0-11.718H40.7c-.173.464-.492,1.121-.6,1.56H9.723a4.3,4.3,0,1,0,0,8.6h5.755a.7.7,0,1,0,0-1.4H9.723a2.9,2.9,0,1,1,0-5.8H12.28V32.4a.7.7,0,0,0,.954.651l1.888-.739,1.888.739a.7.7,0,0,0,.954-.651V28.518H39.236a9.387,9.387,0,0,0,0,5.8H18.742a.7.7,0,0,0,0,1.4Zm-5.063-7.2h2.888V31.38l-1.189-.465a.7.7,0,0,0-.51,0l-1.189.465Zm32.562-.652a.567.567,0,0,1-.473.254H42.033a.567.567,0,0,1-.473-.254.586.586,0,0,1-.057-.556l1.431-3.527a2.8,2.8,0,0,0,1.934,0L46.3,27.311a.586.586,0,0,1-.057.556Z" transform="translate(0)"/>
    </g>
  </g>
</svg>
