<svg xmlns="http://www.w3.org/2000/svg" xmlns:xlink="http://www.w3.org/1999/xlink" width="108" height="108" viewBox="0 0 108 108">
  <defs>
    <filter id="Trazado_904820" x="0" y="0" width="108" height="108" filterUnits="userSpaceOnUse">
      <feOffset dy="3" input="SourceAlpha"/>
      <feGaussianBlur stdDeviation="3" result="blur"/>
      <feFlood flood-opacity="0.161"/>
      <feComposite operator="in" in2="blur"/>
      <feComposite in="SourceGraphic"/>
    </filter>
  </defs>
  <g id="Grupo_1231278" data-name="Grupo 1231278" transform="translate(-619.477 -426)">
    <g id="Grupo_1230066" data-name="Grupo 1230066" transform="translate(0 -46.679)">
      <g id="Grupo_1208347" data-name="Grupo 1208347" transform="translate(628.477 478.679)">
        <g id="Grupo_1207936" data-name="Grupo 1207936" transform="translate(0 0)">
          <g id="Grupo_1201662" data-name="Grupo 1201662">
            <g id="Grupo_1173585" data-name="Grupo 1173585">
              <g id="Grupo_1173428" data-name="Grupo 1173428">
                <g id="Grupo_1171958" data-name="Grupo 1171958">
                  <g id="Grupo_1167341" data-name="Grupo 1167341">
                    <g id="Grupo_1166792" data-name="Grupo 1166792">
                      <g transform="matrix(1, 0, 0, 1, -9, -6)" filter="url(#Trazado_904820)">
                        <g id="Trazado_904820-2" data-name="Trazado 904820" transform="translate(9 6)" fill="#effbfe">
                          <path d="M 44.99999618530273 88.49999237060547 C 39.12687301635742 88.49999237060547 33.43022155761719 87.35006713867188 28.06829643249512 85.08216857910156 C 22.88852119445801 82.89130401611328 18.23629570007324 79.75457763671875 14.24084663391113 75.75914001464844 C 10.24540901184082 71.76369476318359 7.108683586120605 67.11146545410156 4.917821407318115 61.93169403076172 C 2.649921178817749 56.56976699829102 1.499996185302734 50.87311553955078 1.499996185302734 44.99999237060547 C 1.499996185302734 39.12686920166016 2.649921178817749 33.43021774291992 4.917821407318115 28.06829261779785 C 7.108683586120605 22.88851737976074 10.24540901184082 18.23630523681641 14.24084663391113 14.24085521697998 C 18.23629570007324 10.24540519714355 22.88852119445801 7.108692169189453 28.06829643249512 4.917829990386963 C 33.43022155761719 2.649929761886597 39.12687301635742 1.500004887580872 44.99999618530273 1.500004887580872 C 50.87311935424805 1.500004887580872 56.56977081298828 2.649929761886597 61.93169784545898 4.917829990386963 C 67.11147308349609 7.108692169189453 71.76369476318359 10.24540519714355 75.75914764404297 14.24085521697998 C 79.75458526611328 18.23630523681641 82.89131164550781 22.88851737976074 85.08216857910156 28.06829261779785 C 87.35007476806641 33.43021774291992 88.5 39.12686920166016 88.5 44.99999237060547 C 88.5 50.87311553955078 87.35007476806641 56.56976699829102 85.08216857910156 61.93169403076172 C 82.89131164550781 67.11146545410156 79.75458526611328 71.76369476318359 75.75914764404297 75.75914001464844 C 71.76369476318359 79.75457763671875 67.11147308349609 82.89130401611328 61.93169784545898 85.08216857910156 C 56.56977081298828 87.35006713867188 50.87311935424805 88.49999237060547 44.99999618530273 88.49999237060547 Z" stroke="none"/>
                          <path d="M 44.99999618530273 2.999992370605469 C 39.32870864868164 2.999992370605469 33.82865142822266 4.11004638671875 28.65262603759766 6.299331665039062 C 23.65165710449219 8.414566040039062 19.15968322753906 11.44333648681641 15.301513671875 15.30150604248047 C 11.44333648681641 19.15967559814453 8.414566040039062 23.65164947509766 6.299339294433594 28.65262222290039 C 4.110054016113281 33.82864761352539 2.999992370605469 39.32870483398438 2.999992370605469 44.99999237060547 C 2.999992370605469 50.67127990722656 4.110054016113281 56.17132186889648 6.299339294433594 61.34736633300781 C 8.414566040039062 66.34833526611328 11.44333648681641 70.84029388427734 15.301513671875 74.69846343994141 C 19.15968322753906 78.55663299560547 23.65165710449219 81.58540344238281 28.65262603759766 83.70063781738281 C 33.82865142822266 85.88992309570312 39.32870864868164 86.99997711181641 44.99999618530273 86.99997711181641 C 50.67128372192383 86.99997711181641 56.17134094238281 85.88992309570312 61.34736633300781 83.70063781738281 C 66.34834289550781 81.58540344238281 70.84030914306641 78.55663299560547 74.69847869873047 74.69846343994141 C 78.55665588378906 70.84029388427734 81.58542633056641 66.34833526611328 83.70065307617188 61.34736633300781 C 85.88993835449219 56.17132186889648 87 50.67127990722656 87 44.99999237060547 C 87 39.32870483398438 85.88993835449219 33.82864761352539 83.70065307617188 28.65262222290039 C 81.58542633056641 23.65164947509766 78.55665588378906 19.15967559814453 74.69847869873047 15.30150604248047 C 70.84030914306641 11.44333648681641 66.34834289550781 8.414566040039062 61.34736633300781 6.299331665039062 C 56.17134094238281 4.11004638671875 50.67128372192383 2.999992370605469 44.99999618530273 2.999992370605469 M 44.99999618530273 -7.62939453125e-06 C 69.85281372070312 -7.62939453125e-06 90 20.14717864990234 90 44.99999237060547 C 90 69.85279083251953 69.85281372070312 89.99997711181641 44.99999618530273 89.99997711181641 C 20.14717864990234 89.99997711181641 -7.62939453125e-06 69.85279083251953 -7.62939453125e-06 44.99999237060547 C -7.62939453125e-06 20.14717864990234 20.14717864990234 -7.62939453125e-06 44.99999618530273 -7.62939453125e-06 Z" stroke="none" fill="#497f88"/>
                        </g>
                      </g>
                    </g>
                  </g>
                </g>
              </g>
            </g>
          </g>
        </g>
      </g>
    </g>
    <g id="habilidad" transform="translate(600.685 447.695)">
      <g id="Grupo_1231276" data-name="Grupo 1231276" transform="translate(49.975 0.863)">
        <path id="Trazado_1232241" data-name="Trazado 1232241" d="M85.173,57.3v4.864a2.262,2.262,0,0,1-2.262,2.262H68.423a2.262,2.262,0,0,1-2.262-2.262V52.836a6.281,6.281,0,0,0-1.43-4c-3.71-4.5-12.821-17.721-4.927-31.3C69.986.017,100.927,6.15,99.7,30.978c-.044.883,0,3.536,0,3.536l2.577,6.306a1.43,1.43,0,0,1-1.029,1.747l-2.976.761v6.69a4.61,4.61,0,0,1-4.835,4.6l-5.156-.28A2.96,2.96,0,0,0,85.173,57.3Z" transform="translate(-56.68 -7.536)" fill="#ffcebf"/>
        <path id="Trazado_1232242" data-name="Trazado 1232242" d="M256.207,416.418l2.8.2a2.959,2.959,0,0,0-1.893,2.762v4.864a2.263,2.263,0,0,1-2.263,2.262H250.84a2.263,2.263,0,0,0,2.263-2.262v-4.864A2.96,2.96,0,0,1,256.207,416.418Z" transform="translate(-228.615 -369.612)" fill="#ffcebf"/>
        <path id="Trazado_1232243" data-name="Trazado 1232243" d="M244.968,42.569l-2.976.76v6.69a4.61,4.61,0,0,1-4.835,4.6l-3.577-.195a4.612,4.612,0,0,0,3.261-4.41V44.59a1.625,1.625,0,0,1,1.223-1.574l1.754-.448a1.43,1.43,0,0,0,1.029-1.747l-2.577-6.307s-.041-2.652,0-3.536c.695-14.078-8.951-22.144-19.292-23.3,12.012-1.355,25.253,6.889,24.443,23.3-.043.884,0,3.536,0,3.536L246,40.822A1.429,1.429,0,0,1,244.968,42.569Z" transform="translate(-200.402 -7.538)" fill="#ffb09e"/>
        <path id="Trazado_1232244" data-name="Trazado 1232244" d="M324.941,416.5a4.625,4.625,0,0,1-1.574.195l-1.217-.085a2.946,2.946,0,0,1,1.212-.2Z" transform="translate(-291.763 -369.613)" fill="#ffcebf"/>
        <path id="Trazado_1232245" data-name="Trazado 1232245" d="M140.071,71.775h-2.59a10.588,10.588,0,0,0-.993-2.432l1.821-1.821a1.291,1.291,0,0,0,0-1.825L136.2,63.59a1.291,1.291,0,0,0-1.825,0l-1.78,1.78a10.592,10.592,0,0,0-2.473-1.063V61.828a1.29,1.29,0,0,0-1.29-1.29h-2.98a1.29,1.29,0,0,0-1.29,1.29v2.4a10.584,10.584,0,0,0-2.585,1.034L120.31,63.59a1.291,1.291,0,0,0-1.825,0L116.378,65.7a1.291,1.291,0,0,0,0,1.825l1.628,1.628a10.591,10.591,0,0,0-1.1,2.626h-2.285a1.29,1.29,0,0,0-1.29,1.29v2.98a1.29,1.29,0,0,0,1.29,1.29H116.9a10.6,10.6,0,0,0,1.1,2.626l-1.628,1.628a1.291,1.291,0,0,0,0,1.825l2.107,2.107a1.291,1.291,0,0,0,1.825,0l1.669-1.669a10.589,10.589,0,0,0,2.585,1.034v2.4a1.29,1.29,0,0,0,1.29,1.29h2.98a1.29,1.29,0,0,0,1.29-1.29V84.8a10.6,10.6,0,0,0,2.473-1.063l1.78,1.78a1.291,1.291,0,0,0,1.825,0l2.107-2.107a1.291,1.291,0,0,0,0-1.825l-1.821-1.821a10.593,10.593,0,0,0,.993-2.432h2.59a1.29,1.29,0,0,0,1.29-1.29v-2.98a1.291,1.291,0,0,0-1.29-1.291Zm-12.88,7.492a4.711,4.711,0,1,1,4.711-4.711A4.711,4.711,0,0,1,127.191,79.267Z" transform="translate(-106.842 -54.471)" fill="#8d9ca8"/>
        <path id="Trazado_1232246" data-name="Trazado 1232246" d="M140.071,71.775h-2.59a10.588,10.588,0,0,0-.993-2.432l1.821-1.821a1.291,1.291,0,0,0,0-1.825L136.2,63.59a1.291,1.291,0,0,0-1.825,0l-1.78,1.78a10.592,10.592,0,0,0-2.473-1.063V61.828a1.29,1.29,0,0,0-1.29-1.29h-2.98a1.29,1.29,0,0,0-1.29,1.29v2.4a10.584,10.584,0,0,0-2.585,1.034L120.31,63.59a1.291,1.291,0,0,0-1.825,0L116.378,65.7a1.291,1.291,0,0,0,0,1.825l1.628,1.628a10.591,10.591,0,0,0-1.1,2.626h-2.285a1.29,1.29,0,0,0-1.29,1.29v2.98a1.29,1.29,0,0,0,1.29,1.29H116.9a10.6,10.6,0,0,0,1.1,2.626l-1.628,1.628a1.291,1.291,0,0,0,0,1.825l2.107,2.107a1.291,1.291,0,0,0,1.825,0l1.669-1.669a10.589,10.589,0,0,0,2.585,1.034v2.4a1.29,1.29,0,0,0,1.29,1.29h2.98a1.29,1.29,0,0,0,1.29-1.29V84.8a10.6,10.6,0,0,0,2.473-1.063l1.78,1.78a1.291,1.291,0,0,0,1.825,0l2.107-2.107a1.291,1.291,0,0,0,0-1.825l-1.821-1.821a10.593,10.593,0,0,0,.993-2.432h2.59a1.29,1.29,0,0,0,1.29-1.29v-2.98a1.291,1.291,0,0,0-1.29-1.291Zm-12.88,7.492a4.711,4.711,0,1,1,4.711-4.711A4.711,4.711,0,0,1,127.191,79.267Z" transform="translate(-106.842 -54.471)" fill="#8d9ca8"/>
        <path id="Trazado_1232247" data-name="Trazado 1232247" d="M227.086,71.773H224.5a10.65,10.65,0,0,0-.994-2.431l1.821-1.821a1.29,1.29,0,0,0,0-1.826l-2.106-2.106a1.29,1.29,0,0,0-1.826,0l-1.78,1.78a10.6,10.6,0,0,0-2.472-1.063V61.827a1.291,1.291,0,0,0-1.291-1.291h-2.98a1.29,1.29,0,0,0-1.28,1.132,14.024,14.024,0,0,1,0,25.771,1.289,1.289,0,0,0,1.28,1.132h2.98a1.29,1.29,0,0,0,1.291-1.29V84.8a10.6,10.6,0,0,0,2.472-1.062l1.78,1.78a1.292,1.292,0,0,0,1.826,0l2.106-2.107a1.288,1.288,0,0,0,0-1.825L223.5,79.766a10.659,10.659,0,0,0,.994-2.432h2.589a1.291,1.291,0,0,0,1.291-1.29v-2.98A1.291,1.291,0,0,0,227.086,71.773Z" transform="translate(-193.858 -54.469)" fill="#7a8c98"/>
        <path id="Trazado_1232248" data-name="Trazado 1232248" d="M286.108,32.432,270.02,48.52l-3.272-3.272L282.836,29.16a1.529,1.529,0,0,1,2.162,0l1.109,1.109a1.529,1.529,0,0,1,0,2.162Z" transform="translate(-242.702 -26.288)" fill="#6c7fd8"/>
        <path id="Trazado_1232249" data-name="Trazado 1232249" d="M299.543,32.431,283.455,48.519l-1.535-1.535,14.519-14.553a1.529,1.529,0,0,0,0-2.162l-.638-.638.47-.472a1.528,1.528,0,0,1,2.162,0l1.109,1.109a1.529,1.529,0,0,1,0,2.162Z" transform="translate(-256.138 -26.287)" fill="#4f66d0"/>
        <path id="Trazado_1232250" data-name="Trazado 1232250" d="M251.583,176.445l-3.272-3.272-2.285,4.417a.846.846,0,0,0,1.14,1.14Z" transform="translate(-224.266 -154.213)" fill="#adbbc4"/>
        <path id="Trazado_1232251" data-name="Trazado 1232251" d="M254.418,189.881,250,192.166a.822.822,0,0,1-.872-.058l3.753-3.761Z" transform="translate(-227.101 -167.65)" fill="#8d9ca8"/>
        <path id="Trazado_1232252" data-name="Trazado 1232252" d="M392.648,32.432l-2.317,2.317-3.272-3.272,2.317-2.317a1.529,1.529,0,0,1,2.163,0l1.109,1.109A1.529,1.529,0,0,1,392.648,32.432Z" transform="translate(-349.243 -26.288)" fill="#f9629f"/>
        <path id="Trazado_1232253" data-name="Trazado 1232253" d="M405.958,32.431l-2.317,2.317L402.09,33.2l.763-.766a1.529,1.529,0,0,0,0-2.162l-.639-.639.472-.47a1.528,1.528,0,0,1,2.162,0l1.109,1.109a1.529,1.529,0,0,1,0,2.162Z" transform="translate(-362.553 -26.287)" fill="#f9438e"/>
      </g>
      <g id="Grupo_1231277" data-name="Grupo 1231277" transform="translate(49.108 0)">
        <path id="Trazado_1232254" data-name="Trazado 1232254" d="M96.4,33.929a.869.869,0,0,0-.036-.107l-2.515-6.157c-.008-.585-.032-2.6,0-3.319a23.842,23.842,0,0,0-3.07-13.529l.887-.887h0l2.317-2.317a2.391,2.391,0,0,0,0-3.377c-.126-.121-1.179-1.194-1.29-1.272a2.391,2.391,0,0,0-3.2.163L86.753,5.876A23.473,23.473,0,0,0,67.935.218a21.826,21.826,0,0,0-8.8,3.159,20.35,20.35,0,0,0-6.778,7.055,23.671,23.671,0,0,0-1.964,19.747,38.942,38.942,0,0,0,6.972,12.533A5.432,5.432,0,0,1,58.6,46.162V55.49a3.124,3.124,0,0,0,3.12,3.12H76.206a3.125,3.125,0,0,0,3.121-3.12V50.627a2.1,2.1,0,0,1,2.2-2.1l5.16.281a5.469,5.469,0,0,0,5.735-5.463V40.687a.858.858,0,0,0-1.717,0v2.657a3.752,3.752,0,0,1-3.93,3.748l-5.16-.281a3.819,3.819,0,0,0-4.006,3.815V55.49a1.405,1.405,0,0,1-1.4,1.4H61.718a1.4,1.4,0,0,1-1.4-1.4V46.162a7.154,7.154,0,0,0-1.626-4.543A37.185,37.185,0,0,1,52.03,29.662a22.017,22.017,0,0,1,1.811-18.368,18.649,18.649,0,0,1,6.211-6.466,20.125,20.125,0,0,1,8.114-2.909A21.754,21.754,0,0,1,85.537,7.091L81.6,11.031,79.943,9.375a2.152,2.152,0,0,0-3.04,0L75.579,10.7a11.467,11.467,0,0,0-1.463-.628V8.221a2.152,2.152,0,0,0-2.15-2.15h-2.98a2.152,2.152,0,0,0-2.148,2.15V9.97a11.413,11.413,0,0,0-1.566.627L64.051,9.376a2.147,2.147,0,0,0-3.039,0L58.9,11.482a2.155,2.155,0,0,0,0,3.039l1.171,1.171a11.43,11.43,0,0,0-.679,1.616H57.75a2.152,2.152,0,0,0-2.149,2.15v2.98a2.151,2.151,0,0,0,2.149,2.149H59.4a11.451,11.451,0,0,0,.679,1.616L58.9,27.374a2.151,2.151,0,0,0,0,3.039l2.107,2.107a2.151,2.151,0,0,0,3.039,0L65.273,31.3a11.459,11.459,0,0,0,1.566.627v1.75a2.151,2.151,0,0,0,2.149,2.149h2.98a2.152,2.152,0,0,0,2.15-2.149V31.823a11.463,11.463,0,0,0,1.463-.628L76.9,32.521a2.155,2.155,0,0,0,3.039,0l2.105-2.106a2.147,2.147,0,0,0,0-3.039L80.674,26a11.558,11.558,0,0,0,.578-1.413H83.2a2.152,2.152,0,0,0,2.15-2.149v-2.98A2.151,2.151,0,0,0,84.1,17.5l5.43-5.43a22.308,22.308,0,0,1,2.612,12.187c-.044.9,0,3.482,0,3.591a.86.86,0,0,0,.064.311l2.551,6.243a.571.571,0,0,1-.421.654l-2.976.76a.859.859,0,1,0,.425,1.664l2.977-.76a2.287,2.287,0,0,0,1.646-2.8ZM81.615,17.558l0,0L77.292,21.88l-2.058-2.058.048-.048.017-.017L87.792,7.265,89.85,9.323Zm-9.1,7.039,1.727-3.337,1.611,1.611ZM92.773,5.451a.671.671,0,0,1,0,.948l-1.71,1.71L89.006,6.051l1.71-1.71a.672.672,0,0,1,.948,0ZM83.2,19.025a.433.433,0,0,1,.433.433v2.98a.433.433,0,0,1-.433.432H80.614a.858.858,0,0,0-.829.634,9.819,9.819,0,0,1-.914,2.237.859.859,0,0,0,.142,1.027l1.822,1.822a.43.43,0,0,1,0,.61L78.729,31.3a.435.435,0,0,1-.612,0l-1.78-1.78a.859.859,0,0,0-1.043-.133,9.747,9.747,0,0,1-2.272.976.858.858,0,0,0-.623.826v2.479a.433.433,0,0,1-.433.432h-2.98a.432.432,0,0,1-.432-.432v-2.4a.859.859,0,0,0-.647-.832,9.752,9.752,0,0,1-2.375-.95.858.858,0,0,0-1.028.141l-1.669,1.669a.432.432,0,0,1-.611,0L60.118,29.2a.432.432,0,0,1,0-.611l1.628-1.628a.858.858,0,0,0,.132-1.043A9.714,9.714,0,0,1,60.863,23.5a.859.859,0,0,0-.829-.636H57.75a.432.432,0,0,1-.432-.432v-2.98a.433.433,0,0,1,.432-.433h2.285a.859.859,0,0,0,.829-.636,9.71,9.71,0,0,1,1.015-2.412.859.859,0,0,0-.133-1.044l-1.627-1.626a.434.434,0,0,1,0-.612l2.108-2.107a.43.43,0,0,1,.61,0l1.669,1.668a.858.858,0,0,0,1.027.141,9.7,9.7,0,0,1,2.374-.949.859.859,0,0,0,.648-.832V8.22a.433.433,0,0,1,.432-.433h2.98a.433.433,0,0,1,.433.433V10.7a.858.858,0,0,0,.622.825,9.76,9.76,0,0,1,2.273.977.858.858,0,0,0,1.043-.132l1.78-1.78a.433.433,0,0,1,.612,0l1.656,1.656-5.5,5.5a5.573,5.573,0,0,0-9.615.86.858.858,0,1,0,1.558.722,3.854,3.854,0,0,1,6.815-.341,2.067,2.067,0,0,0-.385.444l-2.283,4.413a1.7,1.7,0,0,0-.186.926,3.848,3.848,0,0,1-3.959-2.2.858.858,0,1,0-1.556.725,5.569,5.569,0,0,0,6.72,2.963,1.7,1.7,0,0,0,1.277-.119l4.417-2.285A.915.915,0,0,0,77.9,23.7l4.676-4.676H83.2Z" transform="translate(-49.108 0)"/>
        <path id="Trazado_1232255" data-name="Trazado 1232255" d="M317.008,302.819a.858.858,0,0,0,.859-.858v-.713h.713a.858.858,0,0,0,0-1.717h-.713v-.713a.858.858,0,1,0-1.717,0v.713h-.713a.858.858,0,1,0,0,1.717h.713v.713A.858.858,0,0,0,317.008,302.819Z" transform="translate(-284.191 -263.853)"/>
      </g>
    </g>
  </g>
</svg>
