<svg xmlns="http://www.w3.org/2000/svg" xmlns:xlink="http://www.w3.org/1999/xlink" width="108" height="108" viewBox="0 0 108 108">
  <defs>
    <filter id="Trazado_904820" x="0" y="0" width="108" height="108" filterUnits="userSpaceOnUse">
      <feOffset dy="3" input="SourceAlpha"/>
      <feGaussianBlur stdDeviation="3" result="blur"/>
      <feFlood flood-opacity="0.161"/>
      <feComposite operator="in" in2="blur"/>
      <feComposite in="SourceGraphic"/>
    </filter>
  </defs>
  <g id="Grupo_1231285" data-name="Grupo 1231285" transform="translate(-620 -3038)">
    <g id="Grupo_1230248" data-name="Grupo 1230248" transform="translate(629 3044)">
      <g id="Grupo_1208347" data-name="Grupo 1208347" transform="translate(0 0)">
        <g id="Grupo_1207936" data-name="Grupo 1207936">
          <g id="Grupo_1201662" data-name="Grupo 1201662">
            <g id="Grupo_1173585" data-name="Grupo 1173585">
              <g id="Grupo_1173428" data-name="Grupo 1173428">
                <g id="Grupo_1171958" data-name="Grupo 1171958">
                  <g id="Grupo_1167341" data-name="Grupo 1167341">
                    <g id="Grupo_1166792" data-name="Grupo 1166792">
                      <g transform="matrix(1, 0, 0, 1, -9, -6)" filter="url(#Trazado_904820)">
                        <g id="Trazado_904820-2" data-name="Trazado 904820" transform="translate(9 6)" fill="#edf3fc">
                          <path d="M 44.99999618530273 88.5 C 39.12687301635742 88.5 33.43022155761719 87.35007476806641 28.06829643249512 85.08216857910156 C 22.88852119445801 82.89131164550781 18.23629570007324 79.75458526611328 14.24084663391113 75.75914764404297 C 10.24540901184082 71.76369476318359 7.108683586120605 67.11147308349609 4.917821407318115 61.93169784545898 C 2.649921178817749 56.56977081298828 1.499996185302734 50.87311935424805 1.499996185302734 44.99999618530273 C 1.499996185302734 39.12687301635742 2.649921178817749 33.43022155761719 4.917821407318115 28.06829643249512 C 7.108683586120605 22.88852119445801 10.24540901184082 18.23629570007324 14.24084663391113 14.24084663391113 C 18.23629570007324 10.24540901184082 22.88852119445801 7.108683586120605 28.06829643249512 4.917821407318115 C 33.43022155761719 2.649921178817749 39.12687301635742 1.499996185302734 44.99999618530273 1.499996185302734 C 50.87311935424805 1.499996185302734 56.56977081298828 2.649921178817749 61.93169784545898 4.917821407318115 C 67.11147308349609 7.108683586120605 71.76369476318359 10.24540901184082 75.75914764404297 14.24084663391113 C 79.75458526611328 18.23629570007324 82.89131164550781 22.88852119445801 85.08216857910156 28.06829643249512 C 87.35007476806641 33.43022155761719 88.5 39.12687301635742 88.5 44.99999618530273 C 88.5 50.87311935424805 87.35007476806641 56.56977081298828 85.08216857910156 61.93169784545898 C 82.89131164550781 67.11147308349609 79.75458526611328 71.76369476318359 75.75914764404297 75.75914764404297 C 71.76369476318359 79.75458526611328 67.11147308349609 82.89131164550781 61.93169784545898 85.08216857910156 C 56.56977081298828 87.35007476806641 50.87311935424805 88.5 44.99999618530273 88.5 Z" stroke="none"/>
                          <path d="M 44.99999618530273 2.999992370605469 C 39.32870864868164 2.999992370605469 33.82865142822266 4.110054016113281 28.65262603759766 6.299339294433594 C 23.65165710449219 8.414566040039062 19.15968322753906 11.44333648681641 15.301513671875 15.301513671875 C 11.44333648681641 19.15968322753906 8.414566040039062 23.65165710449219 6.299339294433594 28.65262603759766 C 4.110054016113281 33.82865142822266 2.999992370605469 39.32870864868164 2.999992370605469 44.99999618530273 C 2.999992370605469 50.67128372192383 4.110054016113281 56.17134094238281 6.299339294433594 61.34736633300781 C 8.414566040039062 66.34834289550781 11.44333648681641 70.84030914306641 15.301513671875 74.69847869873047 C 19.15968322753906 78.55665588378906 23.65165710449219 81.58542633056641 28.65262603759766 83.70065307617188 C 33.82865142822266 85.88993835449219 39.32870864868164 87 44.99999618530273 87 C 50.67128372192383 87 56.17134094238281 85.88993835449219 61.34736633300781 83.70065307617188 C 66.34834289550781 81.58542633056641 70.84030914306641 78.55665588378906 74.69847869873047 74.69847869873047 C 78.55665588378906 70.84030914306641 81.58542633056641 66.34834289550781 83.70065307617188 61.34736633300781 C 85.88993835449219 56.17134094238281 87 50.67128372192383 87 44.99999618530273 C 87 39.32870864868164 85.88993835449219 33.82865142822266 83.70065307617188 28.65262603759766 C 81.58542633056641 23.65165710449219 78.55665588378906 19.15968322753906 74.69847869873047 15.301513671875 C 70.84030914306641 11.44333648681641 66.34834289550781 8.414566040039062 61.34736633300781 6.299339294433594 C 56.17134094238281 4.110054016113281 50.67128372192383 2.999992370605469 44.99999618530273 2.999992370605469 M 44.99999618530273 -7.62939453125e-06 C 69.85281372070312 -7.62939453125e-06 90 20.14717864990234 90 44.99999618530273 C 90 69.85281372070312 69.85281372070312 90 44.99999618530273 90 C 20.14717864990234 90 -7.62939453125e-06 69.85281372070312 -7.62939453125e-06 44.99999618530273 C -7.62939453125e-06 20.14717864990234 20.14717864990234 -7.62939453125e-06 44.99999618530273 -7.62939453125e-06 Z" stroke="none" fill="#5692e8"/>
                        </g>
                      </g>
                    </g>
                  </g>
                </g>
              </g>
            </g>
          </g>
        </g>
      </g>
    </g>
    <g id="aprender-en-linea_7_" data-name="aprender-en-linea (7)" transform="translate(644.676 3024.915)">
      <path id="Trazado_1232268" data-name="Trazado 1232268" d="M62.825,423.227H9.1a1.6,1.6,0,0,1-1.6-1.6V419.1a1.6,1.6,0,0,1,1.6-1.6H62.825a1.6,1.6,0,0,1,1.6,1.6v2.52A1.6,1.6,0,0,1,62.825,423.227Z" transform="translate(-6.641 -336.916)" fill="#a9dbf5"/>
      <path id="Trazado_1232269" data-name="Trazado 1232269" d="M463.936,417.5H460.5a1.6,1.6,0,0,1,1.6,1.6v2.52a1.6,1.6,0,0,1-1.6,1.6h3.436a1.6,1.6,0,0,0,1.6-1.6V419.1A1.6,1.6,0,0,0,463.936,417.5Z" transform="translate(-407.752 -336.916)" fill="#88c3e0"/>
      <path id="Trazado_1232270" data-name="Trazado 1232270" d="M87.964,151.862H43.292A2.291,2.291,0,0,1,41,149.573v-29.78a2.291,2.291,0,0,1,2.291-2.291H87.963a2.291,2.291,0,0,1,2.291,2.291v29.78A2.291,2.291,0,0,1,87.964,151.862Z" transform="translate(-36.304 -71.279)" fill="#4380a0"/>
      <path id="Trazado_1232271" data-name="Trazado 1232271" d="M426.727,149.571a2.291,2.291,0,0,1-2.291,2.291H421a2.291,2.291,0,0,0,2.291-2.291V119.791A2.291,2.291,0,0,0,421,117.5h3.431a2.29,2.29,0,0,1,2.291,2.291Z" transform="translate(-372.777 -71.279)" fill="#3b7191"/>
      <path id="Trazado_1232272" data-name="Trazado 1232272" d="M113.382,174.99H71V147.5h42.381Z" transform="translate(-62.867 -97.843)" fill="#bbf7ff"/>
      <path id="Trazado_1232273" data-name="Trazado 1232273" d="M411,147.5h3.436v27.49H411Z" transform="translate(-363.918 -97.843)" fill="#8bf0ff"/>
      <path id="Trazado_1232274" data-name="Trazado 1232274" d="M125.838,116.458h-16.2a.642.642,0,0,1-.642-.642V95.879a.642.642,0,0,1,.642-.642h16.2Z" transform="translate(-96.515 -51.566)" fill="#f75632"/>
      <path id="Trazado_1232275" data-name="Trazado 1232275" d="M272.2,116.458H256V95.237h16.2a.642.642,0,0,1,.642.642v19.938A.642.642,0,0,1,272.2,116.458Z" transform="translate(-226.676 -51.566)" fill="#e33629"/>
      <path id="Trazado_1232276" data-name="Trazado 1232276" d="M148.429,71.533,134.945,66.87a.642.642,0,0,1-.432-.606V45.142a.642.642,0,0,1,.852-.606l13.064,4.518Z" transform="translate(-119.105 -6.641)" fill="#f3f3f3"/>
      <path id="Trazado_1232277" data-name="Trazado 1232277" d="M256,71.533l13.484-4.663a.642.642,0,0,0,.432-.606V45.142a.642.642,0,0,0-.852-.606L256,49.053Z" transform="translate(-226.676 -6.641)" fill="#e4e4e4"/>
      <path id="Trazado_1232278" data-name="Trazado 1232278" d="M221.564,420.249h-7.278A1.286,1.286,0,0,1,213,418.963V417.5h9.851v1.463A1.286,1.286,0,0,1,221.564,420.249Z" transform="translate(-188.602 -336.916)" fill="#88c3e0"/>
      <g id="Grupo_1231284" data-name="Grupo 1231284" transform="translate(0 37)">
        <path id="Trazado_1232279" data-name="Trazado 1232279" d="M56.184,79.725H54.464a3.13,3.13,0,0,0,.346-1.433V48.511a3.154,3.154,0,0,0-3.15-3.15H47.021V44.312a1.5,1.5,0,0,0-1.5-1.5H44.1V38.5a1.5,1.5,0,0,0-1.991-1.418l-2.706.936a.859.859,0,0,0,.562,1.624l2.418-.836V59.467l-12.2,4.218V43.024L36.5,40.84a.859.859,0,1,0-.561-1.624L29.324,41.5,16.54,37.082A1.5,1.5,0,0,0,14.549,38.5v4.311H13.127a1.5,1.5,0,0,0-1.5,1.5v1.05H6.987a3.154,3.154,0,0,0-3.15,3.15v3.055a.859.859,0,0,0,1.718,0V48.512A1.433,1.433,0,0,1,6.987,47.08h4.639V48.8H8.133a.859.859,0,0,0-.859.859v27.49a.859.859,0,0,0,.859.859H50.514a.859.859,0,0,0,.859-.859V49.657a.859.859,0,0,0-.859-.859H47.021V47.079h4.638a1.433,1.433,0,0,1,1.432,1.432V78.292a1.433,1.433,0,0,1-1.432,1.432H6.988a1.433,1.433,0,0,1-1.432-1.432V55.243a.859.859,0,0,0-1.718,0v23.05a3.128,3.128,0,0,0,.346,1.432H2.463A2.466,2.466,0,0,0,0,82.188v2.52a2.466,2.466,0,0,0,2.463,2.463H36.618a.859.859,0,1,0,0-1.718H2.463a.745.745,0,0,1-.745-.745v-2.52a.745.745,0,0,1,.745-.745H23.539v.6a2.148,2.148,0,0,0,2.146,2.146h7.278a2.148,2.148,0,0,0,2.145-2.146v-.6H56.184a.745.745,0,0,1,.745.745v2.52a.745.745,0,0,1-.745.745H40.369a.859.859,0,0,0,0,1.718H56.184a2.466,2.466,0,0,0,2.463-2.463v-2.52a2.466,2.466,0,0,0-2.463-2.463ZM43.088,61.04a1.5,1.5,0,0,0,1.01-1.418V44.529h1.2v19.5H34.436ZM16.267,38.806l12.2,4.218V63.685l-12.2-4.218Zm-2.922,5.724h1.2V59.622a1.5,1.5,0,0,0,1.01,1.418l8.652,2.992H13.345Zm36.31,5.986V76.288H8.993V50.517h2.635V64.25a1.5,1.5,0,0,0,1.5,1.5H45.52a1.5,1.5,0,0,0,1.5-1.5V50.516ZM33.39,82.047a.428.428,0,0,1-.427.427H25.685a.428.428,0,0,1-.427-.427v-.6H33.39Z" transform="translate(0 -37)"/>
        <path id="Trazado_1232280" data-name="Trazado 1232280" d="M173.416,309.387H150.848a.859.859,0,1,0,0,1.718h22.568a.859.859,0,1,0,0-1.718Z" transform="translate(-132.809 -278.186)"/>
        <path id="Trazado_1232281" data-name="Trazado 1232281" d="M165.484,341.2H150.848a.859.859,0,1,0,0,1.718h14.636a.859.859,0,1,0,0-1.718Z" transform="translate(-132.809 -306.357)"/>
      </g>
    </g>
  </g>
</svg>
