<svg xmlns="http://www.w3.org/2000/svg" xmlns:xlink="http://www.w3.org/1999/xlink" width="98" height="98" viewBox="0 0 98 98">
  <defs>
    <filter id="Trazado_982547" x="0" y="0" width="98" height="98" filterUnits="userSpaceOnUse">
      <feOffset dy="3" input="SourceAlpha"/>
      <feGaussianBlur stdDeviation="3" result="blur"/>
      <feFlood flood-opacity="0.161"/>
      <feComposite operator="in" in2="blur"/>
      <feComposite in="SourceGraphic"/>
    </filter>
    <clipPath id="clip-path">
      <path id="path8121" d="M0-682.665H48.414v48.414H0Z" transform="translate(0 682.665)"/>
    </clipPath>
  </defs>
  <g id="Grupo_1231289" data-name="Grupo 1231289" transform="translate(-195.4 -298)">
    <g id="Grupo_1230269" data-name="Grupo 1230269" transform="translate(1 -2867)">
      <g id="Grupo_1229882" data-name="Grupo 1229882" transform="translate(203.4 3171)">
        <g id="Grupo_1208936" data-name="Grupo 1208936" transform="translate(0)">
          <g id="Grupo_1208171" data-name="Grupo 1208171">
            <g id="Grupo_1207739" data-name="Grupo 1207739">
              <g id="Grupo_1207712" data-name="Grupo 1207712">
                <g id="Grupo_1207285" data-name="Grupo 1207285">
                  <g id="Grupo_1206883" data-name="Grupo 1206883">
                    <g id="Grupo_1204569" data-name="Grupo 1204569">
                      <g id="Grupo_1203962" data-name="Grupo 1203962">
                        <g id="Grupo_1203498" data-name="Grupo 1203498">
                          <g id="Grupo_1202589" data-name="Grupo 1202589">
                            <g id="Grupo_1172010" data-name="Grupo 1172010">
                              <g id="Grupo_1171046" data-name="Grupo 1171046">
                                <g id="Grupo_1148525" data-name="Grupo 1148525">
                                  <g transform="matrix(1, 0, 0, 1, -9, -6)" filter="url(#Trazado_982547)">
                                    <g id="Trazado_982547-2" data-name="Trazado 982547" transform="translate(9 6)" fill="#fdfbec">
                                      <path d="M 39.99999237060547 78.49998474121094 C 34.8018684387207 78.49998474121094 29.76002502441406 77.48226165771484 25.0145263671875 75.47508239746094 C 20.43014717102051 73.53604888916016 16.31264877319336 70.75984954833984 12.77639198303223 67.22359466552734 C 9.240137100219727 63.68733596801758 6.463936805725098 59.5698356628418 4.524903297424316 54.98546981811523 C 2.517725706100464 50.23995971679688 1.500003457069397 45.19811630249023 1.500003457069397 39.99999237060547 C 1.500003457069397 34.8018684387207 2.517725706100464 29.76002502441406 4.524903297424316 25.0145263671875 C 6.463936805725098 20.43014717102051 9.240137100219727 16.31264877319336 12.77639198303223 12.77639198303223 C 16.31264877319336 9.240137100219727 20.43014717102051 6.463936805725098 25.0145263671875 4.524903297424316 C 29.76002502441406 2.517725706100464 34.8018684387207 1.500003457069397 39.99999237060547 1.500003457069397 C 45.19811630249023 1.500003457069397 50.23995971679688 2.517725706100464 54.98546981811523 4.524903297424316 C 59.5698356628418 6.463936805725098 63.68733596801758 9.240137100219727 67.22359466552734 12.77639198303223 C 70.75984954833984 16.31264877319336 73.53604888916016 20.43014717102051 75.47508239746094 25.0145263671875 C 77.48226165771484 29.76002502441406 78.49998474121094 34.8018684387207 78.49998474121094 39.99999237060547 C 78.49998474121094 45.19812393188477 77.48226165771484 50.23995971679688 75.47508239746094 54.98546981811523 C 73.53604888916016 59.5698356628418 70.75984954833984 63.68733596801758 67.22359466552734 67.22359466552734 C 63.68733596801758 70.75984954833984 59.5698356628418 73.53604888916016 54.98546981811523 75.47508239746094 C 50.23995971679688 77.48226165771484 45.19812393188477 78.49998474121094 39.99999237060547 78.49998474121094 Z" stroke="none"/>
                                      <path d="M 39.99999237060547 2.999992370605469 C 35.00370025634766 2.999992370605469 30.1584587097168 3.97784423828125 25.59884643554688 5.906402587890625 C 21.19327163696289 7.769805908203125 17.23603057861328 10.43805694580078 13.83704376220703 13.83704376220703 C 10.43805694580078 17.23603057861328 7.769805908203125 21.19327163696289 5.906402587890625 25.59884643554688 C 3.97784423828125 30.1584587097168 2.999992370605469 35.00370025634766 2.999992370605469 39.99999237060547 C 2.999992370605469 44.99628448486328 3.97784423828125 49.84152603149414 5.906402587890625 54.40113830566406 C 7.769805908203125 58.80671310424805 10.43805694580078 62.76395416259766 13.83704376220703 66.16294097900391 C 17.23603057861328 69.56191253662109 21.19327163696289 72.23016357421875 25.59884643554688 74.09356689453125 C 30.1584587097168 76.02212524414062 35.00370025634766 76.99997711181641 39.99999237060547 76.99997711181641 C 44.99628448486328 76.99997711181641 49.84152603149414 76.02212524414062 54.40113830566406 74.09356689453125 C 58.80671310424805 72.23016357421875 62.76395416259766 69.56191253662109 66.16294097900391 66.16294097900391 C 69.56191253662109 62.76395416259766 72.23016357421875 58.80671310424805 74.09356689453125 54.40113830566406 C 76.02212524414062 49.84152603149414 76.99997711181641 44.99628448486328 76.99997711181641 39.99999237060547 C 76.99997711181641 35.00370025634766 76.02212524414062 30.1584587097168 74.09356689453125 25.59884643554688 C 72.23016357421875 21.19327163696289 69.56191253662109 17.23603057861328 66.16294097900391 13.83704376220703 C 62.76395416259766 10.43805694580078 58.80671310424805 7.769805908203125 54.40113830566406 5.906402587890625 C 49.84152603149414 3.97784423828125 44.99628448486328 2.999992370605469 39.99999237060547 2.999992370605469 M 39.99999237060547 -7.62939453125e-06 C 62.09137725830078 -7.62939453125e-06 79.99997711181641 17.90860748291016 79.99997711181641 39.99999237060547 C 79.99997711181641 62.09137725830078 62.09137725830078 79.99997711181641 39.99999237060547 79.99997711181641 C 17.90860748291016 79.99997711181641 -7.62939453125e-06 62.09137725830078 -7.62939453125e-06 39.99999237060547 C -7.62939453125e-06 17.90860748291016 17.90860748291016 -7.62939453125e-06 39.99999237060547 -7.62939453125e-06 Z" stroke="none" fill="#83793c"/>
                                    </g>
                                  </g>
                                </g>
                              </g>
                            </g>
                          </g>
                        </g>
                      </g>
                    </g>
                  </g>
                </g>
                <g id="g8115" transform="translate(15.793 15.793)">
                  <g id="g8117">
                    <g id="g8119" clip-path="url(#clip-path)">
                      <g id="g8125" transform="translate(-33.259 0.709)">
                        <path id="path8127" d="M-338.457-377.826h-25.835v-25.108c5.31-7.679,37.755-5.416,25.835,25.108" transform="translate(364.292 406.667)" fill="#fbdf63"/>
                      </g>
                      <g id="g8129" transform="translate(-33.259 0.709)">
                        <path id="path8131" d="M-338.457-377.826h-.619c6.164-24.728-15.887-30.6-25.216-24.374v-.734c5.31-7.679,37.755-5.416,25.835,25.108" transform="translate(364.292 406.667)" fill="#f9d11f"/>
                      </g>
                    </g>
                  </g>
                  <g id="g8265">
                    <g id="g8267" clip-path="url(#clip-path)">
                      <g id="g8273" transform="translate(-33.259 51.036)">
                        <path id="path8275" d="M-338.457-377.654h-25.835v-25.1c5.31-7.676,37.755-5.413,25.835,25.1" transform="translate(364.292 406.481)" fill="#003343"/>
                      </g>
                      <g id="g8277" transform="translate(-33.259 51.036)">
                        <path id="path8279" d="M-338.457-377.654h-.619c6.164-24.717-15.887-30.585-25.216-24.362v-.734c5.31-7.676,37.755-5.413,25.835,25.1" transform="translate(364.292 406.481)" fill="#002439"/>
                      </g>
                    </g>
                  </g>
                  <g id="g8281">
                    <g id="g8283" clip-path="url(#clip-path)">
                      <g id="g8289" transform="translate(17.066 51.014)">
                        <path id="path8291" d="M-338.457-377.826h-25.835v-25.108c5.31-7.679,37.755-5.416,25.835,25.108" transform="translate(364.292 406.667)" fill="#ff7e50"/>
                      </g>
                      <g id="g8293" transform="translate(17.066 51.014)">
                        <path id="path8295" d="M-338.457-377.826h-.619c6.164-24.728-15.887-30.6-25.216-24.374v-.734c5.31-7.679,37.755-5.416,25.835,25.108" transform="translate(364.292 406.667)" fill="#ff6247"/>
                      </g>
                      <g id="g8297" transform="translate(2.941 54.225)">
                        <path id="path8299" d="M-233.028-131.751v15.573h-14.6c-12.2-25.649,14.6-34.273,14.6-15.573" transform="translate(250.816 141.808)" fill="#ffa68a"/>
                      </g>
                      <g id="g8301" transform="translate(2.941 54.225)">
                        <path id="path8303" d="M-233.028-131.751c-.9-16.1-20.23-9.82-14.176,15.573h-.427c-12.2-25.649,14.6-34.273,14.6-15.573" transform="translate(250.816 141.808)" fill="#ff7e50"/>
                      </g>
                    </g>
                  </g>
                </g>
              </g>
            </g>
          </g>
        </g>
      </g>
    </g>
    <g id="international-literacy-day_1_" data-name="international-literacy-day (1)" transform="translate(219.158 315.997)">
      <g id="Grupo_1231287" data-name="Grupo 1231287" transform="translate(0.986 0.989)">
        <path id="Trazado_1232282" data-name="Trazado 1232282" d="M36,383.689c7.165-2.408,15.232-4.845,21.693.14,6.461-4.985,14.528-2.548,21.693-.14v-4.647c-6.836-1.832-15.736-5.958-21.693,0-5.958-5.958-14.857-1.832-21.693,0Z" transform="translate(-33.438 -339.856)" fill="#e8eaf0" fill-rule="evenodd"/>
        <path id="Trazado_1232283" data-name="Trazado 1232283" d="M34.259,429.39c-6.461-4.985-14.528-2.548-21.693-.14-.869.292-1.725.584-2.564.862l1.02,3.819c6.6-1.769,16.19-6.158,21.838-.51h2.8c5.648-5.648,15.235-1.259,21.838.51l1.02-3.819c-.838-.278-1.694-.57-2.564-.862C48.788,426.842,40.721,424.4,34.259,429.39Z" transform="translate(-10.002 -385.415)" fill="#b278d3" fill-rule="evenodd"/>
        <path id="Trazado_1232284" data-name="Trazado 1232284" d="M273.069,27.544a16.271,16.271,0,0,0-15.486-17.369V10.2c.683,1.566-2.279,3.942.705,5.7,1.536.9,1.47,1.874-.031,2.277a1.522,1.522,0,0,0,.026,3.02c3.744,0,2.123,3.512,3.6,5.485.8,1.071,2.735,1.428,2.97-.083.385-2.476,1.437-1.489,2.578-1.964,1.662-.692,1.125,2.061,2.718,2.981a3.127,3.127,0,0,0,2.777-.032Z" transform="translate(-232.58 -10.158)" fill="#cbe558" fill-rule="evenodd"/>
        <path id="Trazado_1232285" data-name="Trazado 1232285" d="M109.1,21.041a1.522,1.522,0,0,1-.026-3.02c1.5-.4,1.567-1.372.031-2.277-2.985-1.758-.023-4.134-.705-5.7v-.026A16.271,16.271,0,0,0,91.422,25.11h.258c1.839-.468,2.412.644,3.385-.726.52-.731,1.371-1.717,2.306-1.47a1.375,1.375,0,0,1,.887,1.789c-.236,1.16-.221,2.445.924,2.664,1.247.238,1.826-1.308,2.906-2.387a1.653,1.653,0,0,1,2.865,1.381c-.078,1.263-.738,2.02-2.017,3.121a7.533,7.533,0,0,0-2.412,2.9c-.763,1.945-2.576,4.738-3.886,5.494l-.194.194a16.27,16.27,0,0,0,27.438-10.679l-.146.039a3.126,3.126,0,0,1-2.777.032c-1.593-.92-1.057-3.673-2.718-2.981-1.141.475-2.193-.512-2.578,1.964-.235,1.511-2.17,1.154-2.97.083-1.473-1.973.148-5.485-3.6-5.485Z" transform="translate(-83.393 -10.002)" fill="#66e0f7" fill-rule="evenodd"/>
        <path id="Trazado_1232286" data-name="Trazado 1232286" d="M104.573,144.043a1.653,1.653,0,0,0-2.865-1.381c-1.079,1.079-1.659,2.626-2.906,2.387-1.144-.219-1.159-1.5-.924-2.664a1.375,1.375,0,0,0-.887-1.789c-.935-.247-1.786.739-2.306,1.47-.974,1.37-1.547.258-3.385.726h-.258a16.233,16.233,0,0,0,4.724,12.666q.148.148.3.291l.194-.194c1.31-.757,3.124-3.55,3.886-5.494a7.533,7.533,0,0,1,2.412-2.9C103.835,146.063,104.5,145.306,104.573,144.043Z" transform="translate(-83.014 -127.684)" fill="#cbe558" fill-rule="evenodd"/>
      </g>
      <g id="Grupo_1231288" data-name="Grupo 1231288" transform="translate(-0.001 0.003)">
        <path id="Trazado_1232287" data-name="Trazado 1232287" d="M49.81,374.6c-.549-.182-1.105-.37-1.668-.56l-.22-.074V370.03a.986.986,0,0,0-.731-.952c-1.032-.277-2.1-.6-3.241-.951a42.115,42.115,0,0,0-9.893-2.166,12.05,12.05,0,0,0-8.815,2.726,12.048,12.048,0,0,0-8.815-2.726,42.122,42.122,0,0,0-9.893,2.166c-1.136.347-2.208.674-3.241.951a.986.986,0,0,0-.731.952v3.938l-.224.076c-.561.19-1.117.377-1.664.559a.986.986,0,0,0-.642,1.19l1.02,3.819a.986.986,0,0,0,1.208.7c1.084-.29,2.226-.644,3.436-1.018a44.578,44.578,0,0,1,9.543-2.2c3.425-.241,6.011.563,7.906,2.457a.986.986,0,0,0,.7.289h2.8a.986.986,0,0,0,.7-.289c1.895-1.894,4.482-2.7,7.906-2.457a44.573,44.573,0,0,1,9.543,2.2c1.21.374,2.353.728,3.436,1.018a.986.986,0,0,0,1.208-.7l1.02-3.819a.986.986,0,0,0-.642-1.19Zm-6.435-4.589c.89.272,1.743.532,2.575.768v2.528a44.97,44.97,0,0,0-9.564-2.276,16.374,16.374,0,0,0-10.157,1.929v-2.512h0C30.845,366.188,37.495,368.218,43.375,370.013Zm4.409,8.126c-.769-.223-1.575-.472-2.413-.731-6.235-1.929-13.966-4.321-19.126.453h-2c-5.16-4.774-12.891-2.383-19.126-.453-.839.259-1.644.509-2.413.731l-.524-1.959.793-.267c1.995-.674,4.058-1.37,6.135-1.924a.986.986,0,0,0-.508-1.905c-1.375.367-2.73.79-4.061,1.227v-2.529c.833-.236,1.685-.5,2.575-.768,5.881-1.8,12.53-3.825,17.146.437h0v2.511a14.916,14.916,0,0,0-6.553-1.983.986.986,0,0,0-.149,1.967,12.811,12.811,0,0,1,7.085,2.653.986.986,0,0,0,1.2,0c6.313-4.87,14.469-2.116,21.666.314l.8.269Z" transform="translate(0.001 -329.857)"/>
        <path id="Trazado_1232288" data-name="Trazado 1232288" d="M124.819,418.733h0a.986.986,0,1,0,.987.986A.986.986,0,0,0,124.819,418.733Z" transform="translate(-111.622 -377.444)"/>
        <path id="Trazado_1232289" data-name="Trazado 1232289" d="M98.258,34.515a17.256,17.256,0,0,0,12.2-29.458,17.256,17.256,0,0,0-24.4,24.4A17.144,17.144,0,0,0,98.258,34.515Zm15.284-17.256q0,.2,0,.393a1.712,1.712,0,0,1-1.477-.059,2.514,2.514,0,0,1-.815-1.349,2.67,2.67,0,0,0-1.262-1.739,1.878,1.878,0,0,0-1.514.051,1.887,1.887,0,0,1-.631.09c-1.038.041-2.177.282-2.542,2.633-.023.149-.053.157-.091.166a1.322,1.322,0,0,1-1.114-.522,4.544,4.544,0,0,1-.6-2.048c-.215-1.526-.54-3.833-3.789-3.833-.134,0-.322-.207-.356-.464-.014-.11-.059-.445.585-.618,1.48-.4,1.807-1.237,1.871-1.7.083-.607-.127-1.512-1.594-2.377C99.087,5.22,99.2,4.717,99.68,3.358a7.556,7.556,0,0,0,.371-1.28,15.288,15.288,0,0,1,13.49,15.181ZM87.451,6.452A15.18,15.18,0,0,1,98.058,1.976c-.061.23-.153.489-.235.72-.448,1.258-1.2,3.363,1.386,4.884a2.788,2.788,0,0,1,.513.373,2.123,2.123,0,0,1-.3.1,2.526,2.526,0,0,0-2.03,2.78A2.419,2.419,0,0,0,99.7,13.014c1.47,0,1.6.478,1.836,2.136a6.129,6.129,0,0,0,.97,2.953,3.25,3.25,0,0,0,3.17,1.256,2.083,2.083,0,0,0,1.565-1.777,2.042,2.042,0,0,1,.28-.93,2.2,2.2,0,0,1,.392-.035,3.682,3.682,0,0,0,1.267-.222c.07.149.151.369.211.531a4.127,4.127,0,0,0,1.679,2.376,3.388,3.388,0,0,0,1.72.465,3.783,3.783,0,0,0,.552-.041,15.289,15.289,0,0,1-24.776,9.357,16.833,16.833,0,0,0,3.48-5.355,6.083,6.083,0,0,1,1.913-2.32l.224-.191c1.227-1.056,2.251-2.072,2.358-3.808a2.721,2.721,0,0,0-1.529-2.751A2.69,2.69,0,0,0,92,15.269a10.985,10.985,0,0,0-.945,1.124c-.564.738-.839,1.039-1.078.993-.107-.021-.127-.05-.14-.07a2.3,2.3,0,0,1,0-1.429,2.357,2.357,0,0,0-1.6-2.938c-1.142-.3-2.273.321-3.362,1.852-.184.258-.273.294-.274.294a2.045,2.045,0,0,1-.444-.034,6.187,6.187,0,0,0-1.01-.072,15.169,15.169,0,0,1,4.31-8.537ZM82.977,16.973a3.7,3.7,0,0,1,.912.042,2.336,2.336,0,0,0,2.588-1.073c.67-.943,1.1-1.127,1.25-1.088.237.063.225.382.172.639a3.786,3.786,0,0,0,.3,2.92,2.131,2.131,0,0,0,1.408.908c1.475.282,2.329-.835,3.015-1.732a9.328,9.328,0,0,1,.773-.927.724.724,0,0,1,.812-.208.788.788,0,0,1,.372.832c-.051.822-.411,1.345-1.676,2.435l-.209.177a7.842,7.842,0,0,0-2.477,3.107,14.465,14.465,0,0,1-3.088,4.725,15.177,15.177,0,0,1-4.152-10.473q0-.143,0-.286Z" transform="translate(-73.015 -0.003)"/>
      </g>
    </g>
  </g>
</svg>
