<svg xmlns="http://www.w3.org/2000/svg" xmlns:xlink="http://www.w3.org/1999/xlink" width="98" height="98" viewBox="0 0 98 98">
  <defs>
    <filter id="Trazado_982547" x="0" y="0" width="98" height="98" filterUnits="userSpaceOnUse">
      <feOffset dy="3" input="SourceAlpha"/>
      <feGaussianBlur stdDeviation="3" result="blur"/>
      <feFlood flood-opacity="0.161"/>
      <feComposite operator="in" in2="blur"/>
      <feComposite in="SourceGraphic"/>
    </filter>
    <clipPath id="clip-path">
      <path id="path8121" d="M0-682.665H48.414v48.414H0Z" transform="translate(0 682.665)"/>
    </clipPath>
  </defs>
  <g id="Grupo_1231349" data-name="Grupo 1231349" transform="translate(-195.151 -3574)">
    <g id="Grupo_1230632" data-name="Grupo 1230632" transform="translate(0 1282)">
      <g id="Grupo_1229590" data-name="Grupo 1229590" transform="translate(204.151 2298)">
        <g id="Grupo_1208936" data-name="Grupo 1208936" transform="translate(0)">
          <g id="Grupo_1208171" data-name="Grupo 1208171">
            <g id="Grupo_1207739" data-name="Grupo 1207739">
              <g id="Grupo_1207712" data-name="Grupo 1207712">
                <g id="Grupo_1207285" data-name="Grupo 1207285">
                  <g id="Grupo_1206883" data-name="Grupo 1206883">
                    <g id="Grupo_1204569" data-name="Grupo 1204569">
                      <g id="Grupo_1203962" data-name="Grupo 1203962">
                        <g id="Grupo_1203498" data-name="Grupo 1203498">
                          <g id="Grupo_1202589" data-name="Grupo 1202589">
                            <g id="Grupo_1172010" data-name="Grupo 1172010">
                              <g id="Grupo_1171046" data-name="Grupo 1171046">
                                <g id="Grupo_1148525" data-name="Grupo 1148525">
                                  <g transform="matrix(1, 0, 0, 1, -9, -6)" filter="url(#Trazado_982547)">
                                    <g id="Trazado_982547-2" data-name="Trazado 982547" transform="translate(9 6)" fill="#fdfbec">
                                      <path d="M 39.99999237060547 78.49998474121094 C 34.8018684387207 78.49998474121094 29.76002502441406 77.48226165771484 25.0145263671875 75.47508239746094 C 20.43014717102051 73.53604888916016 16.31264877319336 70.75984954833984 12.77639198303223 67.22359466552734 C 9.240137100219727 63.68733596801758 6.463936805725098 59.5698356628418 4.524903297424316 54.98546981811523 C 2.517725706100464 50.23995971679688 1.500003457069397 45.19811630249023 1.500003457069397 39.99999237060547 C 1.500003457069397 34.8018684387207 2.517725706100464 29.76002502441406 4.524903297424316 25.0145263671875 C 6.463936805725098 20.43014717102051 9.240137100219727 16.31264877319336 12.77639198303223 12.77639198303223 C 16.31264877319336 9.240137100219727 20.43014717102051 6.463936805725098 25.0145263671875 4.524903297424316 C 29.76002502441406 2.517725706100464 34.8018684387207 1.500003457069397 39.99999237060547 1.500003457069397 C 45.19811630249023 1.500003457069397 50.23995971679688 2.517725706100464 54.98546981811523 4.524903297424316 C 59.5698356628418 6.463936805725098 63.68733596801758 9.240137100219727 67.22359466552734 12.77639198303223 C 70.75984954833984 16.31264877319336 73.53604888916016 20.43014717102051 75.47508239746094 25.0145263671875 C 77.48226165771484 29.76002502441406 78.49998474121094 34.8018684387207 78.49998474121094 39.99999237060547 C 78.49998474121094 45.19812393188477 77.48226165771484 50.23995971679688 75.47508239746094 54.98546981811523 C 73.53604888916016 59.5698356628418 70.75984954833984 63.68733596801758 67.22359466552734 67.22359466552734 C 63.68733596801758 70.75984954833984 59.5698356628418 73.53604888916016 54.98546981811523 75.47508239746094 C 50.23995971679688 77.48226165771484 45.19812393188477 78.49998474121094 39.99999237060547 78.49998474121094 Z" stroke="none"/>
                                      <path d="M 39.99999237060547 2.999992370605469 C 35.00370025634766 2.999992370605469 30.1584587097168 3.97784423828125 25.59884643554688 5.906402587890625 C 21.19327163696289 7.769805908203125 17.23603057861328 10.43805694580078 13.83704376220703 13.83704376220703 C 10.43805694580078 17.23603057861328 7.769805908203125 21.19327163696289 5.906402587890625 25.59884643554688 C 3.97784423828125 30.1584587097168 2.999992370605469 35.00370025634766 2.999992370605469 39.99999237060547 C 2.999992370605469 44.99628448486328 3.97784423828125 49.84152603149414 5.906402587890625 54.40113830566406 C 7.769805908203125 58.80671310424805 10.43805694580078 62.76395416259766 13.83704376220703 66.16294097900391 C 17.23603057861328 69.56191253662109 21.19327163696289 72.23016357421875 25.59884643554688 74.09356689453125 C 30.1584587097168 76.02212524414062 35.00370025634766 76.99997711181641 39.99999237060547 76.99997711181641 C 44.99628448486328 76.99997711181641 49.84152603149414 76.02212524414062 54.40113830566406 74.09356689453125 C 58.80671310424805 72.23016357421875 62.76395416259766 69.56191253662109 66.16294097900391 66.16294097900391 C 69.56191253662109 62.76395416259766 72.23016357421875 58.80671310424805 74.09356689453125 54.40113830566406 C 76.02212524414062 49.84152603149414 76.99997711181641 44.99628448486328 76.99997711181641 39.99999237060547 C 76.99997711181641 35.00370025634766 76.02212524414062 30.1584587097168 74.09356689453125 25.59884643554688 C 72.23016357421875 21.19327163696289 69.56191253662109 17.23603057861328 66.16294097900391 13.83704376220703 C 62.76395416259766 10.43805694580078 58.80671310424805 7.769805908203125 54.40113830566406 5.906402587890625 C 49.84152603149414 3.97784423828125 44.99628448486328 2.999992370605469 39.99999237060547 2.999992370605469 M 39.99999237060547 -7.62939453125e-06 C 62.09137725830078 -7.62939453125e-06 79.99997711181641 17.90860748291016 79.99997711181641 39.99999237060547 C 79.99997711181641 62.09137725830078 62.09137725830078 79.99997711181641 39.99999237060547 79.99997711181641 C 17.90860748291016 79.99997711181641 -7.62939453125e-06 62.09137725830078 -7.62939453125e-06 39.99999237060547 C -7.62939453125e-06 17.90860748291016 17.90860748291016 -7.62939453125e-06 39.99999237060547 -7.62939453125e-06 Z" stroke="none" fill="#83793c"/>
                                    </g>
                                  </g>
                                </g>
                              </g>
                            </g>
                          </g>
                        </g>
                      </g>
                    </g>
                  </g>
                </g>
                <g id="g8115" transform="translate(15.793 15.793)">
                  <g id="g8117">
                    <g id="g8119" clip-path="url(#clip-path)">
                      <g id="g8125" transform="translate(-33.259 0.709)">
                        <path id="path8127" d="M-338.457-377.826h-25.835v-25.108c5.31-7.679,37.755-5.416,25.835,25.108" transform="translate(364.292 406.667)" fill="#fbdf63"/>
                      </g>
                      <g id="g8129" transform="translate(-33.259 0.709)">
                        <path id="path8131" d="M-338.457-377.826h-.619c6.164-24.728-15.887-30.6-25.216-24.374v-.734c5.31-7.679,37.755-5.416,25.835,25.108" transform="translate(364.292 406.667)" fill="#f9d11f"/>
                      </g>
                    </g>
                  </g>
                  <g id="g8265">
                    <g id="g8267" clip-path="url(#clip-path)">
                      <g id="g8273" transform="translate(-33.259 51.036)">
                        <path id="path8275" d="M-338.457-377.654h-25.835v-25.1c5.31-7.676,37.755-5.413,25.835,25.1" transform="translate(364.292 406.481)" fill="#003343"/>
                      </g>
                      <g id="g8277" transform="translate(-33.259 51.036)">
                        <path id="path8279" d="M-338.457-377.654h-.619c6.164-24.717-15.887-30.585-25.216-24.362v-.734c5.31-7.676,37.755-5.413,25.835,25.1" transform="translate(364.292 406.481)" fill="#002439"/>
                      </g>
                    </g>
                  </g>
                  <g id="g8281">
                    <g id="g8283" clip-path="url(#clip-path)">
                      <g id="g8289" transform="translate(17.066 51.014)">
                        <path id="path8291" d="M-338.457-377.826h-25.835v-25.108c5.31-7.679,37.755-5.416,25.835,25.108" transform="translate(364.292 406.667)" fill="#ff7e50"/>
                      </g>
                      <g id="g8293" transform="translate(17.066 51.014)">
                        <path id="path8295" d="M-338.457-377.826h-.619c6.164-24.728-15.887-30.6-25.216-24.374v-.734c5.31-7.679,37.755-5.416,25.835,25.108" transform="translate(364.292 406.667)" fill="#ff6247"/>
                      </g>
                      <g id="g8297" transform="translate(2.941 54.225)">
                        <path id="path8299" d="M-233.028-131.751v15.573h-14.6c-12.2-25.649,14.6-34.273,14.6-15.573" transform="translate(250.816 141.808)" fill="#ffa68a"/>
                      </g>
                      <g id="g8301" transform="translate(2.941 54.225)">
                        <path id="path8303" d="M-233.028-131.751c-.9-16.1-20.23-9.82-14.176,15.573h-.427c-12.2-25.649,14.6-34.273,14.6-15.573" transform="translate(250.816 141.808)" fill="#ff7e50"/>
                      </g>
                    </g>
                  </g>
                </g>
              </g>
            </g>
          </g>
        </g>
      </g>
    </g>
    <g id="sentidos_2_" data-name="sentidos (2)" transform="translate(216.464 3583.201)">
      <g id="Grupo_1231338" data-name="Grupo 1231338" transform="translate(5.018 11.995)">
        <circle id="Elipse_11573" data-name="Elipse 11573" cx="22.078" cy="22.078" r="22.078" fill="#02c7dd"/>
      </g>
      <g id="Grupo_1231339" data-name="Grupo 1231339" transform="translate(15.131 13.352)">
        <path id="Trazado_1232386" data-name="Trazado 1232386" d="M159.512,74.888a22.084,22.084,0,0,1-19.6,39.277,22.081,22.081,0,1,0,19.6-39.277Z" transform="translate(-139.907 -74.888)" fill="#07b2cd"/>
      </g>
      <g id="Grupo_1231340" data-name="Grupo 1231340" transform="translate(17.332 6.701)">
        <path id="Trazado_1232387" data-name="Trazado 1232387" d="M160.263,19.6a3.617,3.617,0,0,0,.849,1.549c1.47,1.885,4.738,4.665,8.915,4.665,4.248,0,7.556-2.874,8.988-4.76a3.4,3.4,0,0,0,.775-1.454,3.4,3.4,0,0,0-.775-1.454c-1.433-1.885-4.74-4.76-8.988-4.76a11.877,11.877,0,0,0-8.7,4.4,4.222,4.222,0,0,0-1.06,1.811Z" transform="translate(-160.263 -13.391)" fill="#dcf5f8"/>
      </g>
      <g id="Grupo_1231341" data-name="Grupo 1231341" transform="translate(24.433 10.252)">
        <circle id="Elipse_11574" data-name="Elipse 11574" cx="2.663" cy="2.663" r="2.663" transform="translate(0 0)" fill="#017297"/>
      </g>
      <g id="Grupo_1231342" data-name="Grupo 1231342" transform="translate(39.876 19.42)">
        <path id="Trazado_1232388" data-name="Trazado 1232388" d="M383.316,143a4.567,4.567,0,0,0-1.882-2.411,4.052,4.052,0,0,1-1.875-2.9l-.506-4.046a3.016,3.016,0,0,0-5.986,0l-.506,4.046a4.052,4.052,0,0,1-1.875,2.9A4.567,4.567,0,0,0,368.805,143a1.671,1.671,0,0,0,1.585,2.2h1.617a2.78,2.78,0,0,1,2.224,1.112,2.286,2.286,0,0,0,3.658,0,2.78,2.78,0,0,1,2.224-1.112h1.617A1.671,1.671,0,0,0,383.316,143Z" transform="translate(-368.718 -130.997)" fill="#ffe5c2"/>
      </g>
      <g id="Grupo_1231343" data-name="Grupo 1231343" transform="translate(32.776 43.201)">
        <path id="Trazado_1232389" data-name="Trazado 1232389" d="M309.82,366.866a5.128,5.128,0,0,1-5.028-4.122l-1.671-8.356a2.925,2.925,0,0,1,4.491-3.008,3.982,3.982,0,0,0,4.417,0,2.925,2.925,0,0,1,4.491,3.008l-1.671,8.356A5.128,5.128,0,0,1,309.82,366.866Z" transform="translate(-303.063 -350.889)" fill="#e94444"/>
      </g>
      <g id="Grupo_1231344" data-name="Grupo 1231344" transform="translate(0.811 17.85)">
        <path id="Trazado_1232390" data-name="Trazado 1232390" d="M7.5,131.449a4.4,4.4,0,0,0,8.8.27c0-.046,0-.093.006-.139a7.693,7.693,0,0,1,1.978-4.853A6.162,6.162,0,1,0,7.5,122.646Z" transform="translate(-7.5 -116.483)" fill="#ffdfcf"/>
      </g>
      <g id="Grupo_1231345" data-name="Grupo 1231345" transform="translate(20.721 29.919)">
        <path id="Trazado_1232391" data-name="Trazado 1232391" d="M201.31,234.053v-5.692a.286.286,0,0,0-.286-.286h-6.1a.286.286,0,0,0-.286.286v5.692a.286.286,0,0,1-.286.286h-2.465a.286.286,0,0,0-.225.462l6.089,7.77a.286.286,0,0,0,.45,0l6.089-7.77a.286.286,0,0,0-.225-.462H201.6A.286.286,0,0,1,201.31,234.053Z" transform="translate(-191.597 -228.075)" fill="#ffc344"/>
      </g>
      <g id="Grupo_1231346" data-name="Grupo 1231346" transform="translate(7.861 42.313)">
        <path id="Trazado_1232392" data-name="Trazado 1232392" d="M83.11,342.681H78.327a1.905,1.905,0,0,0-1.905,1.905v3.436a1.9,1.9,0,0,0-2.687.007l-.769.769a.952.952,0,0,0,0,1.347l4.905,4.905h0l.025.025a1.685,1.685,0,0,1,.5,1.194v2.207a.571.571,0,0,0,.571.571h4.774a.571.571,0,0,0,.571-.571v-2.2a1.724,1.724,0,0,1,.514-1.223,4.916,4.916,0,0,0,1.459-3.5v-5.7A3.175,3.175,0,0,0,83.11,342.681Z" transform="translate(-72.688 -342.681)" fill="#eb9c8d"/>
      </g>
      <g id="Grupo_1231347" data-name="Grupo 1231347" transform="translate(23.758 23.176)">
        <path id="Trazado_1232393" data-name="Trazado 1232393" d="M226.07,169.278h-6.1a.286.286,0,0,1-.286-.286v-2.979a.286.286,0,0,1,.286-.286h6.1a.286.286,0,0,1,.286.286v2.979A.286.286,0,0,1,226.07,169.278Z" transform="translate(-219.68 -165.728)" fill="#ffc344"/>
      </g>
      <g id="Grupo_1231348" data-name="Grupo 1231348" transform="translate(0 5.89)">
        <path id="Trazado_1232394" data-name="Trazado 1232394" d="M225.37,42.195a3.474,3.474,0,1,0-3.474,3.474A3.478,3.478,0,0,0,225.37,42.195Zm-5.326,0a1.852,1.852,0,1,1,1.852,1.852A1.854,1.854,0,0,1,220.044,42.195Z" transform="translate(-194.8 -35.17)"/>
        <path id="Trazado_1232395" data-name="Trazado 1232395" d="M55.243,31.166a5.4,5.4,0,0,0-2.216-2.838,3.24,3.24,0,0,1-1.506-2.32l-.506-4.046a3.825,3.825,0,0,0-6.261-2.452,23.056,23.056,0,0,0-7.28-5.842,1.885,1.885,0,0,0,.2-.753,4.859,4.859,0,0,0-1.248-2.33c-.917-1.1-4.3-4.695-9.327-4.695a10.8,10.8,0,0,0-4.271.9.811.811,0,1,0,.639,1.491A9.188,9.188,0,0,1,27.1,7.512a11.081,11.081,0,0,1,8.081,4.111,5.471,5.471,0,0,1,.858,1.291,4.8,4.8,0,0,1-.6.964A11.109,11.109,0,0,1,27.1,18.317a11.157,11.157,0,0,1-8.276-4.352,5.126,5.126,0,0,1-.663-1.051,5.468,5.468,0,0,1,.858-1.291,12.261,12.261,0,0,1,1.463-1.468.811.811,0,1,0-1.05-1.237,13.907,13.907,0,0,0-1.66,1.666,4.858,4.858,0,0,0-1.248,2.33,1.886,1.886,0,0,0,.195.752,22.785,22.785,0,0,0-6.034,4.453A6.964,6.964,0,0,0,0,24.013v8.8a5.231,5.231,0,0,0,1.658,3.812,5.157,5.157,0,0,0,2.883,1.359,22.881,22.881,0,0,0,3.753,9.142l-.728.728a1.764,1.764,0,0,0,0,2.494l4.905,4.905.027.026h0a.879.879,0,0,1,.257.619v2.207a1.384,1.384,0,0,0,1.383,1.383h4.774A1.384,1.384,0,0,0,20.3,58.109V55.934a23.02,23.02,0,0,0,13.6,0,5.939,5.939,0,0,0,11.457-.718l1.671-8.356a3.736,3.736,0,0,0-.008-1.511,22.893,22.893,0,0,0,2.95-10.423,1.979,1.979,0,0,1,1.3-.493h1.617a2.482,2.482,0,0,0,2.355-3.267ZM1.622,32.816v-8.8a5.351,5.351,0,0,1,5.35-5.351q.112,0,.224,0a5.351,5.351,0,0,1,3.787,8.891A8.523,8.523,0,0,0,8.8,32.925c0,.038,0,.076,0,.113a3.591,3.591,0,0,1-7.175-.222ZM45.436,46.541,43.765,54.9a4.317,4.317,0,0,1-8.466,0l-1.671-8.356a2.115,2.115,0,0,1,3.246-2.174,4.8,4.8,0,0,0,1.847.738v8.467a.811.811,0,1,0,1.622,0V45.105a4.8,4.8,0,0,0,1.847-.738,2.115,2.115,0,0,1,3.178,1.089c0,.016.01.032.015.048A2.111,2.111,0,0,1,45.436,46.541Zm8.149-14.087a.851.851,0,0,1-.7.357H51.271A3.608,3.608,0,0,0,48.4,34.247a1.475,1.475,0,0,1-2.36,0,3.609,3.609,0,0,0-2.873-1.437H41.548a.86.86,0,0,1-.816-1.132A3.773,3.773,0,0,1,42.28,29.7a4.858,4.858,0,0,0,2.244-3.487.811.811,0,0,0-1.61-.2,3.241,3.241,0,0,1-1.506,2.32,5.4,5.4,0,0,0-2.216,2.838,2.482,2.482,0,0,0,2.355,3.267h1.617a1.978,1.978,0,0,1,1.575.788,3.071,3.071,0,0,0,2.478,1.239,3.113,3.113,0,0,0,1.029-.173A21.28,21.28,0,0,1,46.114,43.6q-.053-.058-.109-.114a3.746,3.746,0,0,0-4.714-.467,3.167,3.167,0,0,1-1.713.534h-.092a3.167,3.167,0,0,1-1.713-.534,3.736,3.736,0,0,0-5.736,3.841l1.5,7.488a21.4,21.4,0,0,1-12.324.167,5.7,5.7,0,0,0,1.059-3.325v-.259a.811.811,0,0,0-1.622,0v.259a4.091,4.091,0,0,1-1.219,2.925,2.518,2.518,0,0,0-.754,1.8V57.87h-4.3V55.9a2.512,2.512,0,0,0-.735-1.769l-.025-.025-.025-.024L8.714,49.2a.142.142,0,0,1,0-.2l.769-.769a1.1,1.1,0,0,1,1.543,0l0,0,2.216,2.216a2.213,2.213,0,0,0,2.047.59,1.175,1.175,0,0,1,.248-.026,1.155,1.155,0,0,1,1.11.82.811.811,0,0,0,1.551-.476,2.769,2.769,0,0,0-2.661-1.965,2.8,2.8,0,0,0-.593.063.6.6,0,0,1-.555-.152l-1.985-1.985v-3.1A1.1,1.1,0,0,1,13.5,43.124h.358v3.13a.811.811,0,0,0,1.622,0v-3.13h2.8a2.367,2.367,0,0,1,2.364,2.364v1.549a.811.811,0,1,0,1.622,0V45.488A3.991,3.991,0,0,0,18.283,41.5H13.5a2.719,2.719,0,0,0-2.716,2.716v2.128a2.747,2.747,0,0,0-1.058,0A21.258,21.258,0,0,1,6.18,37.94a5.219,5.219,0,0,0,4.236-4.806c0-.055.006-.109.007-.163A6.9,6.9,0,0,1,12.2,28.632a6.947,6.947,0,0,0-.25-9.487A21.171,21.171,0,0,1,17.6,15.037a12.628,12.628,0,0,0,9.5,4.9,12.752,12.752,0,0,0,9.5-4.9,21.424,21.424,0,0,1,7.151,5.8,3.809,3.809,0,0,0-.322,1.126l-.024.194a.811.811,0,0,0,1.61.2l.024-.194a2.205,2.205,0,0,1,4.377,0l.506,4.046A4.857,4.857,0,0,0,52.156,29.7,3.773,3.773,0,0,1,53.7,31.679a.85.85,0,0,1-.118.775Z" transform="translate(0 -5.89)"/>
        <path id="Trazado_1232396" data-name="Trazado 1232396" d="M197.365,226.839h-1.94v-5.166a1.1,1.1,0,0,0-1.1-1.1h-6.1a1.1,1.1,0,0,0-1.1,1.1v5.166h-1.94a1.1,1.1,0,0,0-.863,1.773l6.089,7.77a1.1,1.1,0,0,0,1.727,0l6.089-7.77a1.1,1.1,0,0,0-.863-1.773Zm-6.089,8.015-5.01-6.393h1.386a1.1,1.1,0,0,0,1.1-1.1V222.2H193.8v5.166a1.1,1.1,0,0,0,1.1,1.1h1.386Z" transform="translate(-164.18 -197.358)"/>
        <path id="Trazado_1232397" data-name="Trazado 1232397" d="M35.3,154.888a.811.811,0,0,0-.811-.811.038.038,0,0,1-.029-.012.036.036,0,0,1-.011-.028v-2.3a.6.6,0,0,1,.176-.424l.02-.02a2.222,2.222,0,0,0,0-3.144l-.02-.02a.6.6,0,0,1-.176-.424v-2.473a1.8,1.8,0,0,1,1.8-1.8l.079,0a1.8,1.8,0,0,1,1.272,2.991.811.811,0,0,0,1.214,1.076,3.423,3.423,0,0,0-2.428-5.687l-.137,0a3.427,3.427,0,0,0-3.423,3.424v2.473a2.207,2.207,0,0,0,.651,1.571l.02.02a.6.6,0,0,1,0,.849l-.02.02a2.207,2.207,0,0,0-.651,1.571v2.3A1.662,1.662,0,0,0,34.49,155.7.811.811,0,0,0,35.3,154.888Z" transform="translate(-29.277 -127.111)"/>
        <path id="Trazado_1232398" data-name="Trazado 1232398" d="M213.277,163.4h6.1a1.1,1.1,0,0,0,1.1-1.1v-2.979a1.1,1.1,0,0,0-1.1-1.1h-6.1a1.1,1.1,0,0,0-1.1,1.1V162.3A1.1,1.1,0,0,0,213.277,163.4Zm.525-3.55h5.054v1.928H213.8Z" transform="translate(-189.233 -141.753)"/>
      </g>
    </g>
  </g>
</svg>
