<svg xmlns="http://www.w3.org/2000/svg" xmlns:xlink="http://www.w3.org/1999/xlink" width="98" height="98" viewBox="0 0 98 98">
  <defs>
    <filter id="Trazado_982547" x="0" y="0" width="98" height="98" filterUnits="userSpaceOnUse">
      <feOffset dy="3" input="SourceAlpha"/>
      <feGaussianBlur stdDeviation="3" result="blur"/>
      <feFlood flood-opacity="0.161"/>
      <feComposite operator="in" in2="blur"/>
      <feComposite in="SourceGraphic"/>
    </filter>
    <clipPath id="clip-path">
      <path id="path8121" d="M0-682.665H48.414v48.414H0Z" transform="translate(0 682.665)"/>
    </clipPath>
  </defs>
  <g id="Grupo_1231382" data-name="Grupo 1231382" transform="translate(-825.151 -3753)">
    <g id="Grupo_1230635" data-name="Grupo 1230635" transform="translate(0 1461)">
      <g id="Grupo_1229591" data-name="Grupo 1229591" transform="translate(834.151 2298)">
        <g id="Grupo_1208936" data-name="Grupo 1208936" transform="translate(0)">
          <g id="Grupo_1208171" data-name="Grupo 1208171">
            <g id="Grupo_1207739" data-name="Grupo 1207739">
              <g id="Grupo_1207712" data-name="Grupo 1207712">
                <g id="Grupo_1207285" data-name="Grupo 1207285">
                  <g id="Grupo_1206883" data-name="Grupo 1206883">
                    <g id="Grupo_1204569" data-name="Grupo 1204569">
                      <g id="Grupo_1203962" data-name="Grupo 1203962">
                        <g id="Grupo_1203498" data-name="Grupo 1203498">
                          <g id="Grupo_1202589" data-name="Grupo 1202589">
                            <g id="Grupo_1172010" data-name="Grupo 1172010">
                              <g id="Grupo_1171046" data-name="Grupo 1171046">
                                <g id="Grupo_1148525" data-name="Grupo 1148525">
                                  <g transform="matrix(1, 0, 0, 1, -9, -6)" filter="url(#Trazado_982547)">
                                    <g id="Trazado_982547-2" data-name="Trazado 982547" transform="translate(9 6)" fill="#fdfbec">
                                      <path d="M 39.99999237060547 78.49998474121094 C 34.8018684387207 78.49998474121094 29.76002502441406 77.48226165771484 25.0145263671875 75.47508239746094 C 20.43014717102051 73.53604888916016 16.31264877319336 70.75984954833984 12.77639198303223 67.22359466552734 C 9.240137100219727 63.68733596801758 6.463936805725098 59.5698356628418 4.524903297424316 54.98546981811523 C 2.517725706100464 50.23995971679688 1.500003457069397 45.19811630249023 1.500003457069397 39.99999237060547 C 1.500003457069397 34.8018684387207 2.517725706100464 29.76002502441406 4.524903297424316 25.0145263671875 C 6.463936805725098 20.43014717102051 9.240137100219727 16.31264877319336 12.77639198303223 12.77639198303223 C 16.31264877319336 9.240137100219727 20.43014717102051 6.463936805725098 25.0145263671875 4.524903297424316 C 29.76002502441406 2.517725706100464 34.8018684387207 1.500003457069397 39.99999237060547 1.500003457069397 C 45.19811630249023 1.500003457069397 50.23995971679688 2.517725706100464 54.98546981811523 4.524903297424316 C 59.5698356628418 6.463936805725098 63.68733596801758 9.240137100219727 67.22359466552734 12.77639198303223 C 70.75984954833984 16.31264877319336 73.53604888916016 20.43014717102051 75.47508239746094 25.0145263671875 C 77.48226165771484 29.76002502441406 78.49998474121094 34.8018684387207 78.49998474121094 39.99999237060547 C 78.49998474121094 45.19812393188477 77.48226165771484 50.23995971679688 75.47508239746094 54.98546981811523 C 73.53604888916016 59.5698356628418 70.75984954833984 63.68733596801758 67.22359466552734 67.22359466552734 C 63.68733596801758 70.75984954833984 59.5698356628418 73.53604888916016 54.98546981811523 75.47508239746094 C 50.23995971679688 77.48226165771484 45.19812393188477 78.49998474121094 39.99999237060547 78.49998474121094 Z" stroke="none"/>
                                      <path d="M 39.99999237060547 2.999992370605469 C 35.00370025634766 2.999992370605469 30.1584587097168 3.97784423828125 25.59884643554688 5.906402587890625 C 21.19327163696289 7.769805908203125 17.23603057861328 10.43805694580078 13.83704376220703 13.83704376220703 C 10.43805694580078 17.23603057861328 7.769805908203125 21.19327163696289 5.906402587890625 25.59884643554688 C 3.97784423828125 30.1584587097168 2.999992370605469 35.00370025634766 2.999992370605469 39.99999237060547 C 2.999992370605469 44.99628448486328 3.97784423828125 49.84152603149414 5.906402587890625 54.40113830566406 C 7.769805908203125 58.80671310424805 10.43805694580078 62.76395416259766 13.83704376220703 66.16294097900391 C 17.23603057861328 69.56191253662109 21.19327163696289 72.23016357421875 25.59884643554688 74.09356689453125 C 30.1584587097168 76.02212524414062 35.00370025634766 76.99997711181641 39.99999237060547 76.99997711181641 C 44.99628448486328 76.99997711181641 49.84152603149414 76.02212524414062 54.40113830566406 74.09356689453125 C 58.80671310424805 72.23016357421875 62.76395416259766 69.56191253662109 66.16294097900391 66.16294097900391 C 69.56191253662109 62.76395416259766 72.23016357421875 58.80671310424805 74.09356689453125 54.40113830566406 C 76.02212524414062 49.84152603149414 76.99997711181641 44.99628448486328 76.99997711181641 39.99999237060547 C 76.99997711181641 35.00370025634766 76.02212524414062 30.1584587097168 74.09356689453125 25.59884643554688 C 72.23016357421875 21.19327163696289 69.56191253662109 17.23603057861328 66.16294097900391 13.83704376220703 C 62.76395416259766 10.43805694580078 58.80671310424805 7.769805908203125 54.40113830566406 5.906402587890625 C 49.84152603149414 3.97784423828125 44.99628448486328 2.999992370605469 39.99999237060547 2.999992370605469 M 39.99999237060547 -7.62939453125e-06 C 62.09137725830078 -7.62939453125e-06 79.99997711181641 17.90860748291016 79.99997711181641 39.99999237060547 C 79.99997711181641 62.09137725830078 62.09137725830078 79.99997711181641 39.99999237060547 79.99997711181641 C 17.90860748291016 79.99997711181641 -7.62939453125e-06 62.09137725830078 -7.62939453125e-06 39.99999237060547 C -7.62939453125e-06 17.90860748291016 17.90860748291016 -7.62939453125e-06 39.99999237060547 -7.62939453125e-06 Z" stroke="none" fill="#83793c"/>
                                    </g>
                                  </g>
                                </g>
                              </g>
                            </g>
                          </g>
                        </g>
                      </g>
                    </g>
                  </g>
                </g>
                <g id="g8115" transform="translate(15.793 15.793)">
                  <g id="g8117">
                    <g id="g8119" clip-path="url(#clip-path)">
                      <g id="g8125" transform="translate(-33.259 0.709)">
                        <path id="path8127" d="M-338.457-377.826h-25.835v-25.108c5.31-7.679,37.755-5.416,25.835,25.108" transform="translate(364.292 406.667)" fill="#fbdf63"/>
                      </g>
                      <g id="g8129" transform="translate(-33.259 0.709)">
                        <path id="path8131" d="M-338.457-377.826h-.619c6.164-24.728-15.887-30.6-25.216-24.374v-.734c5.31-7.679,37.755-5.416,25.835,25.108" transform="translate(364.292 406.667)" fill="#f9d11f"/>
                      </g>
                    </g>
                  </g>
                  <g id="g8265">
                    <g id="g8267" clip-path="url(#clip-path)">
                      <g id="g8273" transform="translate(-33.259 51.036)">
                        <path id="path8275" d="M-338.457-377.654h-25.835v-25.1c5.31-7.676,37.755-5.413,25.835,25.1" transform="translate(364.292 406.481)" fill="#003343"/>
                      </g>
                      <g id="g8277" transform="translate(-33.259 51.036)">
                        <path id="path8279" d="M-338.457-377.654h-.619c6.164-24.717-15.887-30.585-25.216-24.362v-.734c5.31-7.676,37.755-5.413,25.835,25.1" transform="translate(364.292 406.481)" fill="#002439"/>
                      </g>
                    </g>
                  </g>
                  <g id="g8281">
                    <g id="g8283" clip-path="url(#clip-path)">
                      <g id="g8289" transform="translate(17.066 51.014)">
                        <path id="path8291" d="M-338.457-377.826h-25.835v-25.108c5.31-7.679,37.755-5.416,25.835,25.108" transform="translate(364.292 406.667)" fill="#ff7e50"/>
                      </g>
                      <g id="g8293" transform="translate(17.066 51.014)">
                        <path id="path8295" d="M-338.457-377.826h-.619c6.164-24.728-15.887-30.6-25.216-24.374v-.734c5.31-7.679,37.755-5.416,25.835,25.108" transform="translate(364.292 406.667)" fill="#ff6247"/>
                      </g>
                      <g id="g8297" transform="translate(2.941 54.225)">
                        <path id="path8299" d="M-233.028-131.751v15.573h-14.6c-12.2-25.649,14.6-34.273,14.6-15.573" transform="translate(250.816 141.808)" fill="#ffa68a"/>
                      </g>
                      <g id="g8301" transform="translate(2.941 54.225)">
                        <path id="path8303" d="M-233.028-131.751c-.9-16.1-20.23-9.82-14.176,15.573h-.427c-12.2-25.649,14.6-34.273,14.6-15.573" transform="translate(250.816 141.808)" fill="#ff7e50"/>
                      </g>
                    </g>
                  </g>
                </g>
              </g>
            </g>
          </g>
        </g>
      </g>
    </g>
    <g id="recreo_2_" data-name="recreo (2)" transform="translate(851.556 3774.84)">
      <path id="Trazado_1232432" data-name="Trazado 1232432" d="M188.813,297.666v4.068a12.268,12.268,0,0,0,3.216-.1v-.32a7.315,7.315,0,0,1,1.282-4.239,8.1,8.1,0,0,1-4.5.589Zm0,0" transform="translate(-170.541 -269.041)" fill="#a2f9f9"/>
      <path id="Trazado_1232433" data-name="Trazado 1232433" d="M225.476,285.182a2.542,2.542,0,0,1-.195,3.183v4.512h1.444a2.012,2.012,0,0,1,3.778-.688,2.013,2.013,0,0,1,3.778.688h5.848V282.708a7.074,7.074,0,0,0-3.207-6.075,9.618,9.618,0,0,1-4.193.956H229.89a10.986,10.986,0,0,1-4.049-.737,7.2,7.2,0,0,0-2.95,5.95V284l.24.024h0l-.07-.186a.779.779,0,0,1,.454-1l.2-.075a.78.78,0,0,1,1,.454Zm0,0" transform="translate(-201.403 -250.526)" fill="#48e5e1"/>
      <path id="Trazado_1232434" data-name="Trazado 1232434" d="M223.131,286.128h0l-.07-.186a.78.78,0,0,1,.454-1l.2-.075a.779.779,0,0,1,1,.454l.754,1.97a2.618,2.618,0,0,1,.228.393l.087.02v-2.793a7.2,7.2,0,0,1,2.244-5.356,10.33,10.33,0,0,1-2.194-.594,7.2,7.2,0,0,0-2.95,5.95v1.2Zm0,0" transform="translate(-201.403 -252.63)" fill="#41ceca"/>
      <path id="Trazado_1232435" data-name="Trazado 1232435" d="M247.371,435.1v-3.044a1.966,1.966,0,0,1,.226-.915,2.012,2.012,0,0,0-3.778.688h-1.444v4.657a.608.608,0,0,1-.609.6h4.185v-.007a2.011,2.011,0,0,0,1.646-1.067,1.965,1.965,0,0,1-.226-.917Zm0,0" transform="translate(-218.497 -389.476)" fill="#a2f9f9"/>
      <path id="Trazado_1232436" data-name="Trazado 1232436" d="M303.029,437.081v.007h8.142a2.631,2.631,0,1,0,0-5.261h-6.01a2.01,2.01,0,0,0-4,.227V435.1A2,2,0,0,0,303.029,437.081Zm0,0" transform="translate(-272.282 -389.476)" fill="#a2f9f9"/>
      <path id="Trazado_1232437" data-name="Trazado 1232437" d="M304.035,435.1v-3.044a1.974,1.974,0,0,1,.571-1.388,2.011,2.011,0,0,0-3.445,1.388V435.1a2,2,0,0,0,1.872,1.984v.007h2.875v-.007A2,2,0,0,1,304.035,435.1Zm0,0" transform="translate(-272.286 -389.476)" fill="#91e0e0"/>
      <path id="Trazado_1232438" data-name="Trazado 1232438" d="M287.393,286.1h-2.839a12.123,12.123,0,0,1-1.3-.07,2.3,2.3,0,0,0,4.59.059C287.692,286.093,287.543,286.1,287.393,286.1Zm0,0" transform="translate(-256.066 -259.034)" fill="#ffd5b3"/>
      <path id="Trazado_1232439" data-name="Trazado 1232439" d="M217.152,90.156h-.038V88.815c0-.1,0-.207-.006-.31a2.4,2.4,0,0,1-.7.385,5.006,5.006,0,0,1-1.664.306c-2.883,0-4.187-3.034-4.2-3.064l-.089-.213-.086.215c-.015.039-1.6,3.934-4.237,3.934a2.934,2.934,0,0,1-.881-.14c-1.251-.394-1.665-1.346-1.229-2.829l-.171-.075c-.812,1.355-2.057,2.969-3.378,2.969a1.627,1.627,0,0,1-.458-.066,1.594,1.594,0,0,1-1.045-.852,3.705,3.705,0,0,1,.219-2.87l-.173-.077c-1.094,2.294-2.258,3.409-3.558,3.409a2.306,2.306,0,0,1-.448-.045v5.786c0,6.231,4.312,9.6,9.631,9.6h2.839a9.628,9.628,0,0,0,9.311-7.137,2.363,2.363,0,0,0,.359.028c1.649,0,2.986-1.7,2.986-3.8s-1.337-3.8-2.986-3.8Zm0,0" transform="translate(-176.156 -77.81)" fill="#ffd5b3"/>
      <path id="Trazado_1232440" data-name="Trazado 1232440" d="M197.9,116.662V110.2c0-.225.008-.448.024-.668a3.013,3.013,0,0,1-2.912,1.439v5.691c0,6.232,4.312,9.6,9.631,9.6H207.5c-5.3-.014-9.6-3.377-9.6-9.6Zm0,0" transform="translate(-176.155 -99.195)" fill="#e5bfa1"/>
      <path id="Trazado_1232441" data-name="Trazado 1232441" d="M265.358,217.885a3.23,3.23,0,0,1-3.241-3.211.607.607,0,0,1,.609-.6h5.263a.607.607,0,0,1,.609.6A3.23,3.23,0,0,1,265.358,217.885Zm0,0" transform="translate(-236.928 -193.868)" fill="#fb8276"/>
      <path id="Trazado_1232442" data-name="Trazado 1232442" d="M265.026,214.674a.607.607,0,0,1,.609-.6h-2.909a.607.607,0,0,0-.609.6,3.244,3.244,0,0,0,4.7,2.868A3.211,3.211,0,0,1,265.026,214.674Zm0,0" transform="translate(-236.928 -193.868)" fill="#e1756a"/>
      <path id="Trazado_1232443" data-name="Trazado 1232443" d="M195.707,7.5h-3.071a10.4,10.4,0,0,0-10.419,10.38v.156a2.816,2.816,0,0,0,.683.381c2.207.875,3.7-1.346,4.615-3.266-.682,1.651-.659,3.4.887,3.848,1.492.436,2.924-1.244,3.943-2.946-.349,1.19-.272,2.453,1.291,2.946,3.291,1.037,5.235-3.848,5.235-3.848s1.795,4.293,5.983,2.811a2.425,2.425,0,0,0,1.232-.948A10.4,10.4,0,0,0,195.707,7.5Zm0,0" transform="translate(-164.569 -6.792)" fill="#f7931e"/>
      <path id="Trazado_1232444" data-name="Trazado 1232444" d="M185.1,18.036v-.156A10.4,10.4,0,0,1,195.518,7.5h-2.877a10.4,10.4,0,0,0-10.418,10.38v.156a2.808,2.808,0,0,0,.683.381,2.431,2.431,0,0,0,2.372-.258c-.062-.039-.122-.08-.178-.123Zm0,0" transform="translate(-164.573 -6.793)" fill="#de841b"/>
      <path id="Trazado_1232445" data-name="Trazado 1232445" d="M100.469,247.112v-.689a1.335,1.335,0,0,0-1.341-1.329h-3.9a1.335,1.335,0,0,0-1.341,1.329v.689Zm0,0" transform="translate(-84.574 -221.964)" fill="#89c947"/>
      <path id="Trazado_1232446" data-name="Trazado 1232446" d="M96.812,247.112v-.689a1.335,1.335,0,0,1,1.341-1.329H95.228a1.335,1.335,0,0,0-1.341,1.329v.689Zm0,0" transform="translate(-84.574 -221.964)" fill="#7bb540"/>
      <path id="Trazado_1232447" data-name="Trazado 1232447" d="M80.039,277.1a.609.609,0,0,1-.609.6H69.313a.608.608,0,0,1-.609-.6V267.076a.608.608,0,0,1,.609-.6H79.43a.609.609,0,0,1,.609.6Zm0,0" transform="translate(-61.768 -241.325)" fill="#d5e962"/>
      <path id="Trazado_1232448" data-name="Trazado 1232448" d="M71.621,277.1V272.82l-.57-.548a1.048,1.048,0,0,1,.57-1.792v-3.4a.608.608,0,0,1,.609-.6H69.312a.608.608,0,0,0-.609.6V277.1a.608.608,0,0,0,.609.6H72.23A.608.608,0,0,1,71.621,277.1Zm0,0" transform="translate(-61.767 -241.325)" fill="#bfd158"/>
      <path id="Trazado_1232449" data-name="Trazado 1232449" d="M102.2,302.192a.348.348,0,0,1-.161-.039l-1.438-.745-1.438.745a.35.35,0,0,1-.365-.026.339.339,0,0,1-.138-.334l.274-1.578L97.766,299.1a.338.338,0,0,1-.088-.35.347.347,0,0,1,.28-.233l1.608-.23.719-1.435a.349.349,0,0,1,.622,0l.719,1.435,1.607.23a.346.346,0,0,1,.28.233.337.337,0,0,1-.088.35l-1.163,1.117.275,1.578a.339.339,0,0,1-.138.334A.35.35,0,0,1,102.2,302.192Zm0,0" transform="translate(-87.992 -268.66)" fill="#89c947"/>
      <path id="Trazado_1232450" data-name="Trazado 1232450" d="M19.336,396.116a.609.609,0,0,1-.61.6H8.609a.608.608,0,0,1-.609-.6V386.092a.608.608,0,0,1,.609-.6H18.726a.609.609,0,0,1,.61.6Zm0,0" transform="translate(-6.793 -349.108)" fill="#fb8276"/>
      <path id="Trazado_1232451" data-name="Trazado 1232451" d="M10.89,396.117v-4.028l-.453-.443a2.226,2.226,0,0,1,0-3.19,2.313,2.313,0,0,1,.453-.344v-2.018a.608.608,0,0,1,.609-.6H8.609a.608.608,0,0,0-.609.6v10.024a.608.608,0,0,0,.609.6H11.5a.608.608,0,0,1-.609-.6Zm0,0" transform="translate(-6.793 -349.109)" fill="#e1756a"/>
      <path id="Trazado_1232452" data-name="Trazado 1232452" d="M37.382,422.692a.289.289,0,0,1-.2-.082l-2.533-2.478a1.518,1.518,0,0,1,0-2.178,1.6,1.6,0,0,1,2.226,0l.509.5.509-.5a1.6,1.6,0,0,1,2.226,0,1.518,1.518,0,0,1,0,2.178l-2.533,2.478A.29.29,0,0,1,37.382,422.692Zm0,0" transform="translate(-30.507 -378.102)" fill="#ef5050"/>
      <path id="Trazado_1232453" data-name="Trazado 1232453" d="M137.2,387.8l-2.346-.236a.722.722,0,0,1-.646-.791l.02-.2a.722.722,0,0,1,.791-.647l1.694.171.013-.126-2.068-.208a.719.719,0,0,1-.5-.279h-5.44a.608.608,0,0,0-.609.6v10.024a.608.608,0,0,0,.609.6h10.117a.608.608,0,0,0,.609-.6v-9.169a2.663,2.663,0,0,1-2.244.854Zm0,0" transform="translate(-115.566 -349.108)" fill="#ffc502"/>
      <path id="Trazado_1232454" data-name="Trazado 1232454" d="M130.992,396.117v-3.268l-.5-.865a1.847,1.847,0,0,1,0-1.759l.5-.865v-3.268a.608.608,0,0,1,.609-.6h-2.879a.608.608,0,0,0-.609.6v10.024a.608.608,0,0,0,.609.6H131.6A.608.608,0,0,1,130.992,396.117Zm0,0" transform="translate(-115.57 -349.109)" fill="#e5b102"/>
      <path id="Trazado_1232455" data-name="Trazado 1232455" d="M160.356,422.975a1.174,1.174,0,0,1-.914-.523l-.883-1.516a1.15,1.15,0,0,1,0-1.046l.883-1.516a1.174,1.174,0,0,1,.914-.523h1.767a1.172,1.172,0,0,1,.914.523l.883,1.516a1.15,1.15,0,0,1,0,1.046l-.883,1.516a1.173,1.173,0,0,1-.914.523Zm0,0" transform="translate(-143.029 -378.417)" fill="#fcdb67"/>
      <path id="Trazado_1232456" data-name="Trazado 1232456" d="M259.649,318.305a1.928,1.928,0,0,0-2.564.877,7.567,7.567,0,0,1-8.61,3.959,2.538,2.538,0,0,1-.44,2.808l.018-.018v1.012a11.427,11.427,0,0,0,12.471-6.1,1.887,1.887,0,0,0-.875-2.539Zm0,0" transform="translate(-224.175 -288.092)" fill="#a2f9f9"/>
      <path id="Trazado_1232457" data-name="Trazado 1232457" d="M190.821,346.482l.02-.2a.723.723,0,0,1,.792-.647l1.694.171.013-.126-2.068-.208a.722.722,0,0,1-.647-.791l.02-.2a.722.722,0,0,1,.791-.647l2.068.208.013-.126-1.694-.17a.722.722,0,0,1-.647-.791l.02-.2a.722.722,0,0,1,.791-.647l1.92.193h0l-.07-.185a.78.78,0,0,1,.454-1l.2-.075a.78.78,0,0,1,1,.454l.754,1.97a2.551,2.551,0,0,1,.456,1.726,2.619,2.619,0,0,1-2.895,2.311l-2.345-.236a.722.722,0,0,1-.646-.791Zm0,0" transform="translate(-172.179 -308.816)" fill="#ffd5b3"/>
      <path id="Trazado_1232458" data-name="Trazado 1232458" d="M41.159,20.658c1.962-.1,3.532-2.086,3.532-4.508a4.371,4.371,0,0,0-3.025-4.438v-.576a3.215,3.215,0,0,0,.439-.519.709.709,0,0,0,.119-.455A11.11,11.11,0,0,0,31.139,0H28.068A11.12,11.12,0,0,0,16.941,11.088v.156a.708.708,0,0,0,.277.561,3.539,3.539,0,0,0,.853.477c.026.01.052.018.077.028v5.157A10.117,10.117,0,0,0,21.2,25.121,9.248,9.248,0,0,0,23.147,26.5a7.962,7.962,0,0,0-.828.957,7.326,7.326,0,0,1-2.807.554c-.179,0-.356-.008-.533-.021V25.752a1.316,1.316,0,0,0-1.317-1.312H16.6a2.044,2.044,0,0,0-2.048-2.018h-3.9A2.045,2.045,0,0,0,8.605,24.44H7.546a1.316,1.316,0,0,0-1.317,1.312v9.92H1.817A1.316,1.316,0,0,0,.5,36.984V47.008A1.316,1.316,0,0,0,1.817,48.32H27.454a.7.7,0,0,0,.157-.018,2.709,2.709,0,0,0,1.488-.65,2.711,2.711,0,0,0,1.486.65.694.694,0,0,0,.16.018h8.142a3.336,3.336,0,0,0,.546-6.632V40.3a.708.708,0,1,0-1.416,0v1.345H33.432a2.723,2.723,0,0,0-4.332-1.1,2.723,2.723,0,0,0-4.331,1.1h-.182V39.683a12,12,0,0,0,1.526.1,12.12,12.12,0,0,0,10.872-6.716,2.595,2.595,0,0,0-1.2-3.49,2.641,2.641,0,0,0-3.506,1.2,6.755,6.755,0,0,1-2.761,2.906.708.708,0,1,0,.693,1.235A8.166,8.166,0,0,0,33.545,31.4a1.22,1.22,0,0,1,1.621-.553,1.179,1.179,0,0,1,.549,1.588,10.71,10.71,0,0,1-11.129,5.813V38.1a3.254,3.254,0,0,0,.647-1.646,3.178,3.178,0,0,0,.01-.519,8.239,8.239,0,0,0,1.459.032.708.708,0,1,0-.1-1.413,6.782,6.782,0,0,1-1.836-.126c-.021-.034-.042-.067-.063-.1l-.723-1.89a1.481,1.481,0,0,0-1.748-.917,6.481,6.481,0,0,1,2.315-4.4,11.274,11.274,0,0,0,2,.5,3.008,3.008,0,0,0,5.844.094,10.332,10.332,0,0,0,3.051-.8,6.43,6.43,0,0,1,2.576,5.264v4.813a.708.708,0,1,0,1.416,0V32.181A7.727,7.727,0,0,0,36.8,26.2a10.3,10.3,0,0,0,4.355-5.545ZM29.582,42.577a1.3,1.3,0,0,1,2.593-.146.708.708,0,0,0,.7.627h6.01a1.923,1.923,0,1,1,0,3.846H30.844l-.05-.005a1.292,1.292,0,0,1-1.211-1.277Zm-5,.481h.736a.707.707,0,0,0,.7-.627A1.3,1.3,0,0,1,28.3,41.74a2.665,2.665,0,0,0-.135.837v3.044a2.654,2.654,0,0,0,.135.834,1.3,1.3,0,0,1-.894.443l-.05.005h-2.77ZM18.979,29.413c.177.011.355.017.533.017a8.824,8.824,0,0,0,1.828-.192,8.233,8.233,0,0,0-.555,2.741,11.656,11.656,0,0,1-1.273.07c-.178,0-.356-.005-.533-.014Zm.115,10.729a.509.509,0,0,1,.3.171l.883,1.516a.485.485,0,0,1,0,.334L19.4,43.678a.51.51,0,0,1-.3.171H17.327a.509.509,0,0,1-.3-.171l-.883-1.516a.484.484,0,0,1,0-.333l.883-1.516a.509.509,0,0,1,.3-.171h1.767Zm-8.44-16.3h3.9a.627.627,0,0,1,.632.6H10.022a.627.627,0,0,1,.632-.6Zm-3.01,2.018h9.92v9.817H7.644ZM11.835,46.9H1.915V37.088h9.92Zm11.335,0h-9.92V37.088h4.775a1.418,1.418,0,0,0-.068.311l-.02.2a1.426,1.426,0,0,0,.392,1.131h-1A1.871,1.871,0,0,0,15.8,39.6l-.883,1.516a1.847,1.847,0,0,0,0,1.759l.883,1.516a1.871,1.871,0,0,0,1.526.874h1.767a1.869,1.869,0,0,0,1.525-.875l.883-1.516a1.849,1.849,0,0,0,0-1.759L20.62,39.6a1.617,1.617,0,0,0-.254-.324l1.2.121c.115.011.231.017.345.017a3.4,3.4,0,0,0,1.262-.241ZM22.3,33.923a.708.708,0,0,0,.1-.676l-.07-.185a.069.069,0,0,1,0-.055.07.07,0,0,1,.041-.038l.2-.075a.073.073,0,0,1,.026-.005.075.075,0,0,1,.068.049l.754,1.97a.7.7,0,0,0,.082.154,1.851,1.851,0,0,1,.331,1.248A1.9,1.9,0,0,1,21.909,38c-.067,0-.136,0-.2-.01l-2.345-.236a.015.015,0,0,1-.013-.016l.02-.2a.015.015,0,0,1,.016-.013h0l1.694.17a.708.708,0,0,0,.775-.633l.013-.126a.708.708,0,0,0-.633-.776l-2.068-.208a.017.017,0,0,1-.013-.016l.02-.2c0-.011.012-.012.016-.013l2.068.208a.708.708,0,0,0,.775-.633l.013-.126a.708.708,0,0,0-.633-.775l-1.694-.17a.017.017,0,0,1-.013-.016l.02-.2c0-.011.012-.012.016-.013l1.92.193.018,0A.706.706,0,0,0,22.3,33.923Zm7.182-5.377a1.59,1.59,0,0,1-1.372-.781c.126,0,.252.006.379.006h2.36a1.589,1.589,0,0,1-1.368.775Zm1.847-2.191H28.487c-5.42,0-8.923-3.489-8.923-8.888V12.514a3.49,3.49,0,0,0,2.033-.949q.176-.158.346-.34a2.647,2.647,0,0,0,.149.386,2.4,2.4,0,0,0,1.544,1.274c1.152.337,2.316-.158,3.472-1.472a2.641,2.641,0,0,0,1.748,1.468,3.744,3.744,0,0,0,1.131.179,4.568,4.568,0,0,0,3.48-1.94,9.83,9.83,0,0,0,.886-1.287,6.49,6.49,0,0,0,1.2,1.271A.708.708,0,1,0,36.436,10a5.515,5.515,0,0,1-1.479-1.911A.708.708,0,0,0,34.3,7.65H34.3a.709.709,0,0,0-.652.446c-.017.043-1.732,4.265-4.364,3.435-.649-.2-1.254-.61-.825-2.071A.708.708,0,0,0,27.17,8.9c-1.149,1.918-2.292,2.877-3.138,2.63A.984.984,0,0,1,23.368,11a3.182,3.182,0,0,1,.233-2.37.708.708,0,0,0-1.293-.575c-1.759,3.688-3.231,3.1-3.715,2.913a2.414,2.414,0,0,1-.233-.107,9.7,9.7,0,0,1,9.708-9.444h3.071a9.749,9.749,0,0,1,9.648,8.6,1.72,1.72,0,0,1-.737.489,4.84,4.84,0,0,1-.861.223.708.708,0,0,0,.221,1.4,6.161,6.161,0,0,0,.84-.2v.421a.707.707,0,0,0,.708.708H41c1.253.006,2.271,1.392,2.271,3.1s-1.022,3.1-2.279,3.1a1.655,1.655,0,0,1-.253-.02.708.708,0,0,0-.791.518,8.921,8.921,0,0,1-8.626,6.61Zm0,0"/>
      <path id="Trazado_1232459" data-name="Trazado 1232459" d="M343.384,156.6a.708.708,0,0,0-.708.708v1.161a.708.708,0,1,0,1.416,0v-1.161A.708.708,0,0,0,343.384,156.6Zm0,0" transform="translate(-309.884 -141.819)"/>
      <path id="Trazado_1232460" data-name="Trazado 1232460" d="M232.567,156.6a.708.708,0,0,0-.708.708v1.161a.708.708,0,1,0,1.416,0v-1.161A.708.708,0,0,0,232.567,156.6Zm0,0" transform="translate(-209.525 -141.819)"/>
      <path id="Trazado_1232461" data-name="Trazado 1232461" d="M283.569,168.018h.459a.708.708,0,1,0,0-1.416h-.21v-.657a.708.708,0,1,0-1.416,0v.892A1.174,1.174,0,0,0,283.569,168.018Zm0,0" transform="translate(-255.299 -149.644)"/>
      <path id="Trazado_1232462" data-name="Trazado 1232462" d="M261.2,206.566h-5.263a1.316,1.316,0,0,0-1.317,1.312,3.949,3.949,0,0,0,7.9,0A1.316,1.316,0,0,0,261.2,206.566Zm-2.632,3.816a2.523,2.523,0,0,1-2.531-2.4H261.1A2.524,2.524,0,0,1,258.566,210.382Zm0,0" transform="translate(-230.136 -187.072)"/>
      <path id="Trazado_1232463" data-name="Trazado 1232463" d="M96.546,291.019l-1.241-.177-.553-1.1a1.057,1.057,0,0,0-1.888,0l-.553,1.1-1.242.178a1.049,1.049,0,0,0-.581,1.795l.892.856-.21,1.207a1.055,1.055,0,0,0,1.526,1.11l1.112-.576,1.109.574a1.06,1.06,0,0,0,.491.121,1.052,1.052,0,0,0,1.039-1.229l-.21-1.207.891-.856a1.049,1.049,0,0,0-.582-1.8Zm-1.561,1.892a.706.706,0,0,0-.207.632l.149.855-.793-.411a.708.708,0,0,0-.651,0l-.792.411.149-.855a.708.708,0,0,0-.207-.632l-.62-.6.867-.124a.709.709,0,0,0,.532-.384l.4-.793.4.793a.708.708,0,0,0,.533.384l.867.124Zm0,0" transform="translate(-81.205 -261.867)"/>
      <path id="Trazado_1232464" data-name="Trazado 1232464" d="M29.894,416.328a1,1,0,0,0,1.395,0l2.533-2.478a2.225,2.225,0,0,0,0-3.19,2.308,2.308,0,0,0-3.216,0l-.015.014-.014-.014a2.308,2.308,0,0,0-3.216,0,2.225,2.225,0,0,0,0,3.19Zm-1.544-4.655a.892.892,0,0,1,1.237,0l.509.5a.708.708,0,0,0,.99,0l.509-.5a.891.891,0,0,1,1.237,0,.81.81,0,0,1,0,1.166l-2.241,2.192-2.241-2.192a.81.81,0,0,1,0-1.166Zm0,0" transform="translate(-23.716 -371.314)"/>
      <path id="Trazado_1232465" data-name="Trazado 1232465" d="M422.165,157.868a.7.7,0,0,0,.336-.085,2.536,2.536,0,0,0,.923-3.319.708.708,0,0,0-1.3.562c.02.045.465,1.1-.3,1.512a.708.708,0,0,0,.337,1.33Zm0,0" transform="translate(-381.229 -139.5)"/>
    </g>
  </g>
</svg>
