<svg xmlns="http://www.w3.org/2000/svg" xmlns:xlink="http://www.w3.org/1999/xlink" width="108" height="108" viewBox="0 0 108 108">
  <defs>
    <filter id="Trazado_904820" x="0" y="0" width="108" height="108" filterUnits="userSpaceOnUse">
      <feOffset dy="3" input="SourceAlpha"/>
      <feGaussianBlur stdDeviation="3" result="blur"/>
      <feFlood flood-opacity="0.161"/>
      <feComposite operator="in" in2="blur"/>
      <feComposite in="SourceGraphic"/>
    </filter>
  </defs>
  <g id="Grupo_1231383" data-name="Grupo 1231383" transform="translate(-200.524 -4947.89)">
    <g id="Grupo_1230636" data-name="Grupo 1230636" transform="translate(209.524 4953.89)">
      <g id="Grupo_1208347" data-name="Grupo 1208347" transform="translate(0 0)">
        <g id="Grupo_1207936" data-name="Grupo 1207936">
          <g id="Grupo_1201662" data-name="Grupo 1201662">
            <g id="Grupo_1173585" data-name="Grupo 1173585">
              <g id="Grupo_1173428" data-name="Grupo 1173428">
                <g id="Grupo_1171958" data-name="Grupo 1171958">
                  <g id="Grupo_1167341" data-name="Grupo 1167341">
                    <g id="Grupo_1166792" data-name="Grupo 1166792">
                      <g transform="matrix(1, 0, 0, 1, -9, -6)" filter="url(#Trazado_904820)">
                        <g id="Trazado_904820-2" data-name="Trazado 904820" transform="translate(9 6)" fill="#edf3fc">
                          <path d="M 44.99999618530273 88.49999237060547 C 39.12687301635742 88.49999237060547 33.43022155761719 87.35006713867188 28.06829643249512 85.08216857910156 C 22.88852119445801 82.89130401611328 18.23629570007324 79.75457763671875 14.24084663391113 75.75914001464844 C 10.24540901184082 71.76369476318359 7.108683586120605 67.11146545410156 4.917821407318115 61.93169403076172 C 2.649921178817749 56.56976699829102 1.499996185302734 50.87311553955078 1.499996185302734 44.99999237060547 C 1.499996185302734 39.12686920166016 2.649921178817749 33.43021774291992 4.917821407318115 28.06829261779785 C 7.108683586120605 22.88851737976074 10.24540901184082 18.23630523681641 14.24084663391113 14.24085521697998 C 18.23629570007324 10.24540519714355 22.88852119445801 7.108692169189453 28.06829643249512 4.917829990386963 C 33.43022155761719 2.649929761886597 39.12687301635742 1.500004887580872 44.99999618530273 1.500004887580872 C 50.87311935424805 1.500004887580872 56.56977081298828 2.649929761886597 61.93169784545898 4.917829990386963 C 67.11147308349609 7.108692169189453 71.76369476318359 10.24540519714355 75.75914764404297 14.24085521697998 C 79.75458526611328 18.23630523681641 82.89131164550781 22.88851737976074 85.08216857910156 28.06829261779785 C 87.35007476806641 33.43021774291992 88.5 39.12686920166016 88.5 44.99999237060547 C 88.5 50.87311553955078 87.35007476806641 56.56976699829102 85.08216857910156 61.93169403076172 C 82.89131164550781 67.11146545410156 79.75458526611328 71.76369476318359 75.75914764404297 75.75914001464844 C 71.76369476318359 79.75457763671875 67.11147308349609 82.89130401611328 61.93169784545898 85.08216857910156 C 56.56977081298828 87.35006713867188 50.87311935424805 88.49999237060547 44.99999618530273 88.49999237060547 Z" stroke="none"/>
                          <path d="M 44.99999618530273 2.999992370605469 C 39.32870864868164 2.999992370605469 33.82865142822266 4.11004638671875 28.65262603759766 6.299331665039062 C 23.65165710449219 8.414566040039062 19.15968322753906 11.44333648681641 15.301513671875 15.30150604248047 C 11.44333648681641 19.15967559814453 8.414566040039062 23.65164947509766 6.299339294433594 28.65262222290039 C 4.110054016113281 33.82864761352539 2.999992370605469 39.32870483398438 2.999992370605469 44.99999237060547 C 2.999992370605469 50.67127990722656 4.110054016113281 56.17132186889648 6.299339294433594 61.34736633300781 C 8.414566040039062 66.34833526611328 11.44333648681641 70.84029388427734 15.301513671875 74.69846343994141 C 19.15968322753906 78.55663299560547 23.65165710449219 81.58540344238281 28.65262603759766 83.70063781738281 C 33.82865142822266 85.88992309570312 39.32870864868164 86.99997711181641 44.99999618530273 86.99997711181641 C 50.67128372192383 86.99997711181641 56.17134094238281 85.88992309570312 61.34736633300781 83.70063781738281 C 66.34834289550781 81.58540344238281 70.84030914306641 78.55663299560547 74.69847869873047 74.69846343994141 C 78.55665588378906 70.84029388427734 81.58542633056641 66.34833526611328 83.70065307617188 61.34736633300781 C 85.88993835449219 56.17132186889648 87 50.67127990722656 87 44.99999237060547 C 87 39.32870483398438 85.88993835449219 33.82864761352539 83.70065307617188 28.65262222290039 C 81.58542633056641 23.65164947509766 78.55665588378906 19.15967559814453 74.69847869873047 15.30150604248047 C 70.84030914306641 11.44333648681641 66.34834289550781 8.414566040039062 61.34736633300781 6.299331665039062 C 56.17134094238281 4.11004638671875 50.67128372192383 2.999992370605469 44.99999618530273 2.999992370605469 M 44.99999618530273 -7.62939453125e-06 C 69.85281372070312 -7.62939453125e-06 90 20.14717864990234 90 44.99999237060547 C 90 69.85279083251953 69.85281372070312 89.99997711181641 44.99999618530273 89.99997711181641 C 20.14717864990234 89.99997711181641 -7.62939453125e-06 69.85279083251953 -7.62939453125e-06 44.99999237060547 C -7.62939453125e-06 20.14717864990234 20.14717864990234 -7.62939453125e-06 44.99999618530273 -7.62939453125e-06 Z" stroke="none" fill="#5692e8"/>
                        </g>
                      </g>
                    </g>
                  </g>
                </g>
              </g>
            </g>
          </g>
        </g>
      </g>
    </g>
    <g id="Creative" transform="translate(224.71 4973.277)">
      <path id="Trazado_1232466" data-name="Trazado 1232466" d="M59.358,7V44.085H38.46A5.041,5.041,0,0,1,40.11,41.9a12.424,12.424,0,0,0,1.678-1.52H56.576V7Z" transform="translate(-2.657 -0.364)" fill="#ff7956"/>
      <path id="Trazado_1232467" data-name="Trazado 1232467" d="M56.105,6.709V40.085H41.318a13.694,13.694,0,0,0,3.662-9.271A12.98,12.98,0,0,0,32,17.834V6.709A3.709,3.709,0,0,1,35.709,3h20.4Z" transform="translate(-2.186 -0.073)" fill="#ffeb99"/>
      <path id="Trazado_1232468" data-name="Trazado 1232468" d="M21.654,41.251a13.545,13.545,0,0,1-2.661-14.3,12.9,12.9,0,0,1,9.883-7.788,13.685,13.685,0,0,1,2.1-.167,12.98,12.98,0,0,1,12.98,12.98A13.694,13.694,0,0,1,40.3,41.251a12.423,12.423,0,0,1-1.678,1.52,5.041,5.041,0,0,0-1.65,2.188,5.452,5.452,0,0,0-.426,2.142v1.567H25.418V47.1a5.492,5.492,0,0,0-.51-2.318,5.2,5.2,0,0,0-1.622-2.049,13.02,13.02,0,0,1-1.632-1.483Zm18.6-9.271a3.685,3.685,0,0,0-2.1-3.328,3.6,3.6,0,0,0,.241-1.307,3.709,3.709,0,0,0-7.3-.927,3.39,3.39,0,0,0-.121.927,3.391,3.391,0,0,0-.121-.927,3.709,3.709,0,0,0-7.3.927,3.6,3.6,0,0,0,.241,1.307,3.691,3.691,0,0,0,0,6.657,3.6,3.6,0,0,0-.241,1.307,3.709,3.709,0,1,0,7.417,0,3.709,3.709,0,0,0,7.417,0,3.6,3.6,0,0,0-.241-1.307,3.685,3.685,0,0,0,2.1-3.328Z" transform="translate(-1.167 -1.239)" fill="#ffcd00"/>
      <path id="Trazado_1232469" data-name="Trazado 1232469" d="M39.176,29.017a3.691,3.691,0,0,1,0,6.657,3.6,3.6,0,0,1,.241,1.307,3.709,3.709,0,1,1-7.417,0V27.709a3.391,3.391,0,0,1,.121-.927,3.709,3.709,0,0,1,7.3.927A3.6,3.6,0,0,1,39.176,29.017Z" transform="translate(-2.186 -1.604)" fill="#ff9811"/>
      <path id="Trazado_1232470" data-name="Trazado 1232470" d="M36.98,51a1.854,1.854,0,1,1,0,3.709H25.854a1.854,1.854,0,0,1,0-3.709Z" transform="translate(-1.603 -3.571)" fill="#46f8ff"/>
      <path id="Trazado_1232471" data-name="Trazado 1232471" d="M26,55H37.126A5.563,5.563,0,0,1,26,55Z" transform="translate(-1.749 -3.862)" fill="#ff7956"/>
      <path id="Trazado_1232472" data-name="Trazado 1232472" d="M24.1,35.673a3.691,3.691,0,0,1,0-6.657,3.6,3.6,0,0,1-.241-1.307,3.709,3.709,0,0,1,7.3-.927,3.391,3.391,0,0,1,.121.927v9.271a3.709,3.709,0,1,1-7.417,0,3.6,3.6,0,0,1,.241-1.307Z" transform="translate(-1.457 -1.604)" fill="#ff9811"/>
      <path id="Trazado_1232473" data-name="Trazado 1232473" d="M30.105,15.053v2.781A13.686,13.686,0,0,0,28,18a12.9,12.9,0,0,0-9.883,7.788,13.545,13.545,0,0,0,2.661,14.3H6V3H26.4a3.709,3.709,0,0,1,3.709,3.709Z" transform="translate(-0.291 -0.073)" fill="#ffeb99"/>
      <path id="Trazado_1232474" data-name="Trazado 1232474" d="M23.814,43.909l-.417.176H3V7H5.781V40.377H20.56a13.019,13.019,0,0,0,1.632,1.483,5.2,5.2,0,0,1,1.622,2.049Z" transform="translate(-0.073 -0.364)" fill="#ff7956"/>
      <rect id="Rectángulo_424065" data-name="Rectángulo 424065" width="1.854" height="3.709" transform="translate(28.887 11.271)"/>
      <rect id="Rectángulo_424066" data-name="Rectángulo 424066" width="1.854" height="3.709" transform="translate(15.391 17.629) rotate(-45)"/>
      <rect id="Rectángulo_424067" data-name="Rectángulo 424067" width="3.709" height="1.854" transform="translate(10.344 29.814)"/>
      <rect id="Rectángulo_424068" data-name="Rectángulo 424068" width="3.709" height="1.854" transform="translate(45.575 29.814)"/>
      <rect id="Rectángulo_424069" data-name="Rectángulo 424069" width="3.709" height="1.854" transform="translate(40.303 18.941) rotate(-45)"/>
      <path id="Trazado_1232475" data-name="Trazado 1232475" d="M56.7,5.709H54.847V2.927A.927.927,0,0,0,53.919,2h-20.4a4.619,4.619,0,0,0-3.709,1.883A4.619,4.619,0,0,0,26.105,2H5.709a.927.927,0,0,0-.927.927V5.709H2.927A.927.927,0,0,0,2,6.636V43.721a.927.927,0,0,0,.927.927H18.688V42.794H3.854V7.563h.927v32.45a.927.927,0,0,0,.927.927H16.834V39.085H6.636V3.854h19.47a2.781,2.781,0,0,1,2.781,2.781v2.8h1.854v-2.8a2.781,2.781,0,0,1,2.781-2.781h19.47V39.085h-10.2V40.94H53.919a.927.927,0,0,0,.927-.927V7.563h.927V42.794H42.794v1.854H56.7a.927.927,0,0,0,.927-.927V6.636A.927.927,0,0,0,56.7,5.709Z"/>
      <path id="Trazado_1232476" data-name="Trazado 1232476" d="M39.105,43.437a14.488,14.488,0,0,0,5.708-11.531,13.916,13.916,0,0,0-26.751-5.377A14.378,14.378,0,0,0,22.655,43.4a4.574,4.574,0,0,1,1.762,3.632v.809a2.765,2.765,0,0,0,.05,5.237,6.49,6.49,0,0,0,12.88,0,2.765,2.765,0,0,0,.05-5.237v-.807a4.483,4.483,0,0,1,1.709-3.594ZM23.777,41.919a12.7,12.7,0,0,1-4-14.684,12.061,12.061,0,0,1,23.178,4.671A12.794,12.794,0,0,1,37.99,41.955a6.346,6.346,0,0,0-2.448,5.076v.636H26.271v-.639a6.441,6.441,0,0,0-2.494-5.109Zm7.13,15.02a4.643,4.643,0,0,1-4.543-3.709H35.45A4.643,4.643,0,0,1,30.907,56.939Zm5.563-5.563H25.344a.927.927,0,0,1,0-1.854H36.469a.927.927,0,0,1,0,1.854Z" transform="translate(-1.093 -1.165)"/>
      <path id="Trazado_1232477" data-name="Trazado 1232477" d="M31.2,39.66a4.621,4.621,0,0,0,8.256-3.633,4.6,4.6,0,0,0,0-7.51A4.627,4.627,0,0,0,31.2,24.872a4.624,4.624,0,0,0-8.251,3.645,4.6,4.6,0,0,0,0,7.51A4.622,4.622,0,0,0,31.2,39.66Zm1.02-12.722a2.781,2.781,0,0,1,5.47.7c0,.034-.007.066-.009.1a4.688,4.688,0,0,0-3.235.526l.927,1.606a2.719,2.719,0,0,1,2.606-.087,2.777,2.777,0,1,1-2.606,4.9l-.927,1.606a4.557,4.557,0,0,0,3.236.528c0,.032.008.063.008.093a2.781,2.781,0,1,1-5.563,0V27.636A2.5,2.5,0,0,1,32.219,26.938Zm-7.51,9.969c0-.033.007-.064.008-.093a4.564,4.564,0,0,0,.919.093,4.648,4.648,0,0,0,2.318-.625l-.927-1.606a2.719,2.719,0,0,1-2.606.087,2.775,2.775,0,1,1,2.606-4.9l.927-1.606a4.739,4.739,0,0,0-3.235-.525c0-.033-.009-.066-.009-.1a2.781,2.781,0,0,1,5.477-.676,2.442,2.442,0,0,1,.085.676v9.271a2.781,2.781,0,1,1-5.563,0Z" transform="translate(-1.385 -1.53)"/>
    </g>
  </g>
</svg>
