<svg xmlns="http://www.w3.org/2000/svg" xmlns:xlink="http://www.w3.org/1999/xlink" width="400" height="401" viewBox="0 0 400 401">
  <defs>
    <clipPath id="clip-path">
      <rect id="Rect치ngulo_424064" data-name="Rect치ngulo 424064" width="400" height="401" transform="translate(-19.971 -19.07)" fill="#fff" stroke="#707070" stroke-width="1"/>
    </clipPath>
  </defs>
  <g id="Grupo_1231385" data-name="Grupo 1231385" transform="translate(-170 -5405)">
    <rect id="Rect치ngulo_424070" data-name="Rect치ngulo 424070" width="203" height="320" rx="17" transform="translate(262 5466)" fill="#f3de50"/>
    <g id="Enmascarar_grupo_1098763" data-name="Enmascarar grupo 1098763" transform="translate(189.97 5424.07)" clip-path="url(#clip-path)">
      <g id="Grupo_1231384" data-name="Grupo 1231384" transform="translate(1.348 22.796)">
        <path id="Trazado_1232779" data-name="Trazado 1232779" d="M1131.658,222.7c-.044.047-.089.086-.134.126.037.02.071.041.108.061C1131.643,222.821,1131.643,222.752,1131.658,222.7Z" transform="translate(-941.925 -220.06)" fill="#bde2ea"/>
        <path id="Trazado_1232825" data-name="Trazado 1232825" d="M925.623,314.541l.182.146,0,0-.087-.151Z" transform="translate(-776.343 -293.914)" fill="#bde2ea"/>
        <path id="Trazado_1233322" data-name="Trazado 1233322" d="M946.418,228.218a1.127,1.127,0,0,1,.517.237l.12-.143-.076.009a1,1,0,0,1-.584-.223l-.094.081Z" transform="translate(-792.972 -224.403)" fill="#bde2ea"/>
        <path id="Trazado_1233335" data-name="Trazado 1233335" d="M1165.494,247.031a.83.83,0,0,1-.471.288l.01.051a1.588,1.588,0,0,1,.913-.24l.02-.132-.243.054Z" transform="translate(-968.865 -239.602)" fill="#bde2ea"/>
        <path id="Trazado_1233365" data-name="Trazado 1233365" d="M1184.24,212.991a1.18,1.18,0,0,1,.053.289l.183-.03a1.255,1.255,0,0,1-.165-.294Z" transform="translate(-984.318 -212.227)" fill="#bde2ea"/>
        <path id="Trazado_1233408" data-name="Trazado 1233408" d="M1191.574,216.669a1.649,1.649,0,0,1-.259.037l.136.216a.963.963,0,0,1,.287.549l0,.16a1.015,1.015,0,0,1,.33.083,1.42,1.42,0,0,1-.512-.907Z" transform="translate(-990.008 -215.213)" fill="#bde2ea"/>
        <path id="Trazado_1234624" data-name="Trazado 1234624" d="M1079.566,1084.34a28.714,28.714,0,0,1-22.187,16.175v33.128c.657-.014,1.312-.023,1.961-.023a70.49,70.49,0,0,1,11.145.816c3.6-6.078,8.906-12.889,9.641-21.988.553-6.847,1.836-13.936,5.194-19.68l1.48-6.867Z" transform="translate(-882.299 -912.977)" fill="#f3de50"/>
        <path id="Trazado_1234626" data-name="Trazado 1234626" d="M911.651,1156.27V1130.4a28.617,28.617,0,0,1-17.245-8.9,7.4,7.4,0,0,1-8.895,4.37V1126l3.148,18.45A28.413,28.413,0,0,1,911.651,1156.27Z" transform="translate(-744.086 -942.859)" fill="#f3de50"/>
        <path id="Trazado_1234627" data-name="Trazado 1234627" d="M530.065,1632.917c-.02-.107-.032-.217-.049-.325l-1.7,1.568c.529-.348,1.082-.687,1.635-1.026,0-.036-.007-.072-.007-.079Z" transform="translate(-456.839 -1353.872)" fill="#f0f9fc"/>
        <path id="Trazado_1234632" data-name="Trazado 1234632" d="M316.255,1850.708c-33.642,0-62.3-10.526-73.189-25.266-22.321,2-39.955,5.46-49.092,9.7-4.433,2.055-6.868,4.292-6.868,6.633,0,10.049,44.856,18.2,100.189,18.2,31.214,0,59.092-2.593,77.467-6.657-7.912-1.614-14.264-3.485-18.628-5.537A149.448,149.448,0,0,1,316.255,1850.708Z" transform="translate(-182.443 -1508.957)" fill="#a6d9e1"/>
        <path id="Trazado_1234633" data-name="Trazado 1234633" d="M1177.1,1868.457a.307.307,0,0,1-.308.3h0a.307.307,0,0,1-.3-.313l-13.11-.206s0-.006,0-.009l-40.9-.083v.039h-69.106c-.2,0-.4.015-.6.015a30.2,30.2,0,0,1-19.441-7.056c-8.449,6-20.265,10.756-34.11,13.6,4.364,2.051,10.716,3.923,18.628,5.537,18.351,3.744,45.085,6.1,74.856,6.1,55.333,0,100.189-8.147,100.189-18.2,0-3.361-5.022-6.507-13.768-9.209l-.15,9.507Z" transform="translate(-835.528 -1535.927)" fill="#a6d9e1"/>
        <path id="Trazado_1234635" data-name="Trazado 1234635" d="M1026.518,1166.94a28.05,28.05,0,0,1-7.515,0v25.874a28.266,28.266,0,0,1,3.79,7.406q1.879-.112,3.725-.152V1166.94Z" transform="translate(-851.438 -979.402)" fill="#8f92b3"/>
        <path id="Trazado_1234636" data-name="Trazado 1234636" d="M954.268,1094.092a28.715,28.715,0,0,0,22.187-16.175l-7.252-1.563H930.377a18.927,18.927,0,0,1-1.217,2.422,7.468,7.468,0,0,1,.347,6.418,28.619,28.619,0,0,0,17.245,8.9,28.068,28.068,0,0,0,7.516,0Z" transform="translate(-779.188 -906.555)" fill="#ce7812"/>
        <path id="Trazado_1234637" data-name="Trazado 1234637" d="M670.064,802.668c0,.1.008.2.009.3a71.018,71.018,0,0,1,.494-7.969A60.662,60.662,0,0,0,670.064,802.668Z" transform="translate(-570.828 -680.295)" fill="#e89720"/>
        <path id="Trazado_1234638" data-name="Trazado 1234638" d="M673.249,786.926c.038-.277.075-.537.112-.785C673.32,786.4,673.286,786.664,673.249,786.926Z" transform="translate(-573.389 -673.171)" fill="#e89720"/>
        <path id="Trazado_1234639" data-name="Trazado 1234639" d="M693.672,652.753a52.447,52.447,0,0,1,5.2-11.584l-.753-7.027h-7.764a54.72,54.72,0,0,1,1.982-14.866,60.075,60.075,0,0,0-15.911,29.844C676.454,649.125,680.748,649.884,693.672,652.753Z" transform="translate(-575.945 -538.982)" fill="#e89720"/>
        <path id="Trazado_1234640" data-name="Trazado 1234640" d="M770.57,738.962l-.053-.234-.821-7.654a52.441,52.441,0,0,0-5.2,11.584c2.067.459,4.348.97,6.876,1.543v-2.486A25.362,25.362,0,0,1,770.57,738.962Z" transform="translate(-646.768 -628.888)" fill="#ce7812"/>
        <path id="Trazado_1234641" data-name="Trazado 1234641" d="M956.037,1038.32q-.26.643-.514,1.242H961.8Z" transform="translate(-800.389 -875.969)" fill="#ce7812"/>
        <path id="Trazado_1234642" data-name="Trazado 1234642" d="M978.3,1050.875l-14.588-3.145c-.249-.054-.487-.13-.73-.2l-13.286-2.864h-6.276c-1.6,3.786-2.949,6.205-2.949,6.205H978.3Z" transform="translate(-788.282 -881.075)" fill="#e8654d"/>
        <path id="Trazado_1234643" data-name="Trazado 1234643" d="M1332.029,948.5a48.012,48.012,0,0,1,.364,5.68c1.2.041,2.457.136,3.748.26l4.459-20.684a23.761,23.761,0,0,1,18.695,24.831,27.323,27.323,0,0,0-21.083-31.552l-6.247,21.35A.253.253,0,0,1,1332.029,948.5Z" transform="translate(-1103.117 -786.479)" fill="#e16c6a"/>
        <path id="Trazado_1234644" data-name="Trazado 1234644" d="M1357.749,961.362l-4.459,20.684c.478.046.946.082,1.438.14,10.035,1.181,16.744,4.054,21.24,7.336a23.675,23.675,0,0,0-18.22-28.16Z" transform="translate(-1120.265 -814.081)" fill="#e16c6a"/>
        <path id="Trazado_1234645" data-name="Trazado 1234645" d="M1222.432,897.468h-9.289l-1.142,5.3,2.24.483a27.33,27.33,0,0,1,21.024,21.279c.007,0,.01-.009.018-.01a.219.219,0,0,1,.209.092l6.247-21.35,1.694-5.791Z" transform="translate(-1006.643 -762.698)" fill="#135b9f"/>
        <path id="Trazado_1234646" data-name="Trazado 1234646" d="M1079.286,956.061l-23.864-5.145c.243.067.481.143.73.2l14.588,3.145,7.252,1.563,7.236,1.56,5.528-25.642a23.75,23.75,0,0,1,18.58,20.413l.182,0a47.615,47.615,0,0,0-.36-5.605.239.239,0,0,1,.188-.262,27.329,27.329,0,0,0-21.024-21.279l-2.24-.483Z" transform="translate(-880.725 -784.458)" fill="#e16c6a"/>
        <path id="Trazado_1234647" data-name="Trazado 1234647" d="M1207.078,961.362,1201.55,987l-1.48,6.867c4.26-7.285,11.873-12.395,25.589-12.1A23.749,23.749,0,0,0,1207.078,961.362Z" transform="translate(-997.048 -814.081)" fill="#e16c6a"/>
        <path id="Trazado_1234648" data-name="Trazado 1234648" d="M1007.076,897.467h-4.981c1.595,6.683.12,6.207-2.115,3.426a37.533,37.533,0,0,1-41.8,24.078l-.032.078,5.761,1.242,13.286,2.864,23.864,5.145,6.8-31.536,1.142-5.3h-1.923Z" transform="translate(-802.499 -762.697)" fill="#3b72ae"/>
        <path id="Trazado_1234649" data-name="Trazado 1234649" d="M969.968,857.3h31.252c-1-1.7-1.665-2.913-1.665-2.913l-32.6,2.719q.407.674.753,1.376A2.756,2.756,0,0,1,969.968,857.3Z" transform="translate(-809.582 -728.056)" fill="#3b72ae"/>
        <path id="Trazado_1234650" data-name="Trazado 1234650" d="M1000.114,900.442c-.757-.942-1.6-2.146-2.442-3.426H963.018a2.73,2.73,0,0,1-.73-.11c2.274,9.257-1.061,20.4-3.975,27.615a37.534,37.534,0,0,0,41.8-24.078Z" transform="translate(-802.632 -762.246)" fill="#3b72ae"/>
        <path id="Trazado_1234651" data-name="Trazado 1234651" d="M1458.923,897.468h-4.557C1457.692,902.529,1461.058,906.416,1458.923,897.468Z" transform="translate(-1201.548 -762.698)" fill="#e16c6a"/>
        <path id="Trazado_1234652" data-name="Trazado 1234652" d="M1178.33,695.191v11.3c.312-.24.611-.465.89-.664l2.556-10.633h-3.445Z" transform="translate(-979.565 -600.031)" fill="#e16c6a"/>
        <path id="Trazado_1234653" data-name="Trazado 1234653" d="M1151.9,540.235h.014v11.4l3.012,13.786h.433l2.441-10.153a5.63,5.63,0,0,1,.923-1.977c-2.248-10.132-7.224-17.661-13.241-19.47C1149.447,535.706,1151.8,537.917,1151.9,540.235Z" transform="translate(-953.148 -470.256)" fill="#aacdee"/>
        <path id="Trazado_1234654" data-name="Trazado 1234654" d="M811.487,509.99a12.741,12.741,0,0,0-2.15,1.515,10.3,10.3,0,0,1,5.24-1.492c3.558,0,6.864,1.982,9.615,5.377l57.388,1.466c-.1-2.317-2.452-4.529-6.419-6.42-4.583-2.185-11.314-3.941-19.221-4.935l-.283,1.656s0,0,0,.006l-.1.6-.03-.006a10.085,10.085,0,0,1-19.88-3.014c-.8.04-1.6.09-2.38.146q-.913.065-1.8.145-.746.067-1.478.143-1.614.169-3.148.384-2.046.288-3.931.655-1.233.24-2.386.512c-.323.076-.644.153-.957.232a43.037,43.037,0,0,0-4.534,1.4c-.824.31-1.584.637-2.288.977-.381.184-.741.372-1.084.565Z" transform="translate(-682.829 -446.877)" fill="#aacdee"/>
        <path id="Trazado_1234655" data-name="Trazado 1234655" d="M1045.87,494.966s0,0,0-.006l.283-1.656.636-3.727h0Z" transform="translate(-873.044 -434.681)" fill="#e16c6a"/>
        <path id="Trazado_1234656" data-name="Trazado 1234656" d="M951.935,425.018a10.084,10.084,0,0,0,11.512-7.649c-.535-.117-11.41-2.64-13.048-14.512a18.991,18.991,0,0,1-3.126-10.512l-2.393,14.025-.329,1.928-.866,5.074c-.056.329-.093.656-.117.982A10.092,10.092,0,0,0,951.935,425.018Z" transform="translate(-790.753 -356.488)" fill="#e16c6a"/>
        <path id="Trazado_1234657" data-name="Trazado 1234657" d="M992.665,454.555a19.058,19.058,0,0,1-14.1-8.528c1.638,11.872,12.513,14.4,13.048,14.512l.03.006.1-.6Z" transform="translate(-818.918 -399.658)" fill="#d63331"/>
        <path id="Trazado_1234658" data-name="Trazado 1234658" d="M965.726,308.755a19.058,19.058,0,0,0,14.1,8.528h0c.24.023.473.065.716.079a19.116,19.116,0,0,0,20.232-17.931l.741-12.294c-21.027-1.758-31.3-11.809-31.3-11.809,1.638,6.306,0,9.539-2.246,11.2a8.37,8.37,0,0,1-5.371,11.561c0,.052,0,.1,0,.156A18.992,18.992,0,0,0,965.726,308.755ZM979.4,290.86a1.305,1.305,0,1,1-1.305-1.305A1.3,1.3,0,0,1,979.4,290.86Zm-4.149,12.327a4.445,4.445,0,0,0,4.86,2,.242.242,0,0,1,.134.466,4.946,4.946,0,0,1-1.205.137,4.754,4.754,0,0,1-4.2-2.351.242.242,0,0,1,.412-.255ZM993,293.3A1.305,1.305,0,1,1,994.3,294.6,1.305,1.305,0,0,1,993,293.3Zm3.468,7.865a3.131,3.131,0,1,1-2.9-3.35A3.13,3.13,0,0,1,996.465,301.161Zm-23.322-7.086a3.132,3.132,0,1,1-3.351,2.9A3.131,3.131,0,0,1,973.143,294.076Zm13.725-2.773a.241.241,0,0,1,.266.214l1,9.186a2.266,2.266,0,0,1-.363,1.7,2.07,2.07,0,0,1-1.649.707h-.008a.242.242,0,0,1-.008-.484,1.613,1.613,0,0,0,1.281-.52,1.814,1.814,0,0,0,.268-1.325l-1-9.209A.241.241,0,0,1,986.868,291.3Z" transform="translate(-806.079 -262.386)" fill="#e16c6a"/>
        <path id="Trazado_1234659" data-name="Trazado 1234659" d="M1083.207,366.37a1.813,1.813,0,0,1-.268,1.325,1.615,1.615,0,0,1-1.281.521.242.242,0,0,0,.008.484h.008a2.07,2.07,0,0,0,1.649-.707,2.265,2.265,0,0,0,.363-1.7l-1-9.186a.242.242,0,0,0-.481.052Z" transform="translate(-901.635 -327.978)"/>
        <path id="Trazado_1234660" data-name="Trazado 1234660" d="M1025.067,417.046a.242.242,0,0,0-.079.333,4.754,4.754,0,0,0,4.2,2.351,4.949,4.949,0,0,0,1.2-.137.242.242,0,1,0-.133-.466,4.445,4.445,0,0,1-4.86-2A.242.242,0,0,0,1025.067,417.046Z" transform="translate(-856.222 -376.323)"/>
        <path id="Trazado_1234661" data-name="Trazado 1234661" d="M948.566,226.784c.053.54.125,1.105.224,1.706a8.381,8.381,0,0,1,2.532.329c-.319-3.232-.246-7.658,2.407-8.369a.242.242,0,0,1,.126.468c-2.367.634-2.353,4.966-2.024,8.065a8.321,8.321,0,0,1,4.77,4.39c2.245-1.657,3.884-4.89,2.246-11.2,0,0,10.27,10.05,31.3,11.808,1.086.091,2.193.166,3.337.21,0,0,1.5-8.674-2.532-15.754a16.386,16.386,0,0,0-3.53-4.333c-.2-.172-.411-.335-.622-.5a16.849,16.849,0,0,0-2.382-1.552c-.037-.02-.071-.041-.108-.061a18.734,18.734,0,0,0-1.9-.872,22.076,22.076,0,0,0-3.4-1.018c-.385-.084-.767-.172-1.172-.241a36.786,36.786,0,0,0-9.5-.516c-.391.036-.77.079-1.136.13a20.558,20.558,0,0,0-2.232.433q-.505.128-.973.276a15.129,15.129,0,0,0-2.317.937,11.473,11.473,0,0,0-3.527,2.713,8.172,8.172,0,0,0-1.812,3.265,7.833,7.833,0,0,0-2.31-.044,7.36,7.36,0,0,0-.854.16,5.7,5.7,0,0,0-2.932,1.739,6.149,6.149,0,0,0-1.048,1.687,8.27,8.27,0,0,0-.449,1.4,12.245,12.245,0,0,0-.293,2.58A19.6,19.6,0,0,0,948.566,226.784Zm15.362-10.2a.242.242,0,0,1,.332-.353c7.906,7.417,24.007,11.278,24.168,11.316a.242.242,0,0,1-.055.477l-.055-.006C988.155,227.978,971.929,224.086,963.928,216.582Zm18.979,6.148a.242.242,0,0,1-.088.467l-.088-.016c-.093-.036-9.444-3.685-14.382-7.365a.242.242,0,0,1,.29-.389C973.523,219.068,982.813,222.694,982.907,222.73Zm4.758,1.956a.242.242,0,0,1-.112.323l-.105.024a.241.241,0,0,1-.218-.136,21.209,21.209,0,0,0-13.581-10.108.242.242,0,0,1,.114-.47A21.717,21.717,0,0,1,987.665,224.686Zm3.505,6.919-.04,0c-.211-.035-21.175-3.6-29.464-11.814a.242.242,0,0,1,.341-.344c8.18,8.11,28.992,11.646,29.2,11.681a.242.242,0,0,1-.04.481ZM966.7,211.487c7.553-.912,13.569.421,17.881,3.959a18.845,18.845,0,0,1,6.382,11.927.242.242,0,0,1-.223.26h-.018a.242.242,0,0,1-.241-.223,18.337,18.337,0,0,0-6.211-11.594c-4.206-3.448-10.094-4.744-17.512-3.848a.242.242,0,1,1-.057-.481Z" transform="translate(-794.709 -209.234)" fill="#183c6a"/>
        <path id="Trazado_1234662" data-name="Trazado 1234662" d="M1045.158,272.769c-.21-.035-21.022-3.571-29.2-11.681a.242.242,0,0,0-.342.344c8.289,8.218,29.253,11.779,29.464,11.814l.04,0a.242.242,0,0,0,.04-.481Z" transform="translate(-848.656 -250.878)" fill="#3b72ae"/>
        <path id="Trazado_1234663" data-name="Trazado 1234663" d="M965.067,266.943a.242.242,0,0,0-.126-.468c-2.653.711-2.726,5.137-2.407,8.369.171.05.341.1.509.164C962.714,271.909,962.7,267.577,965.067,266.943Z" transform="translate(-805.921 -255.259)" fill="#3b72ae"/>
        <path id="Trazado_1234664" data-name="Trazado 1234664" d="M923.025,321.473a8.371,8.371,0,0,0-3.443-13.42c-.168-.061-.338-.114-.509-.164a8.351,8.351,0,0,0-7.15,1.186l0,0a8.371,8.371,0,0,0-1.478,1.315c-.1.119-.2.246-.293.369a8.378,8.378,0,0,0,.414,10.847,8.469,8.469,0,0,0,.63.617,8.394,8.394,0,0,0,11.832-.751Zm-9.2-2.236a4.4,4.4,0,0,1,5.821-6.61.242.242,0,0,1-.32.363,3.884,3.884,0,0,0-5.295.13c1.065.552,4.475,2.52,4.966,5.282a.243.243,0,0,1-.2.28l-.042,0a.242.242,0,0,1-.238-.2c-.467-2.63-4.008-4.578-4.832-5a3.9,3.9,0,0,0,.458,5.385.241.241,0,0,1,.021.341l-.181.082Z" transform="translate(-762.459 -288.304)" fill="#e16c6a"/>
        <path id="Trazado_1234665" data-name="Trazado 1234665" d="M930.455,335.184A3.895,3.895,0,0,1,930,329.8c-.1-.053-.172-.086-.177-.088a.242.242,0,1,1,.2-.439c.027.012.144.069.316.158a3.884,3.884,0,0,1,5.295-.13.242.242,0,0,0,.321-.363,4.4,4.4,0,0,0-5.822,6.61l.16.06.181-.082A.242.242,0,0,0,930.455,335.184Z" transform="translate(-778.771 -304.614)"/>
        <path id="Trazado_1234666" data-name="Trazado 1234666" d="M933.968,335.181a.242.242,0,0,0,.117.322c.005,0,.073.035.177.088.824.42,4.364,2.367,4.832,5a.242.242,0,0,0,.239.2l.042,0a.242.242,0,0,0,.2-.28c-.491-2.762-3.9-4.729-4.966-5.282-.172-.09-.289-.146-.316-.158A.243.243,0,0,0,933.968,335.181Z" transform="translate(-783.037 -310.406)"/>
        <path id="Trazado_1234667" data-name="Trazado 1234667" d="M1040.8,220.075c7.418-.9,13.305.4,17.512,3.848a18.339,18.339,0,0,1,6.211,11.594.242.242,0,0,0,.241.223h.018a.242.242,0,0,0,.223-.26,18.848,18.848,0,0,0-6.382-11.927c-4.312-3.538-10.328-4.871-17.881-3.959a.242.242,0,1,0,.057.481Z" transform="translate(-868.747 -217.342)" fill="#3b72ae"/>
        <path id="Trazado_1234668" data-name="Trazado 1234668" d="M1051.527,256.477l.055.006a.242.242,0,0,0,.055-.477c-.161-.038-16.262-3.9-24.168-11.316a.242.242,0,0,0-.332.353C1035.139,252.547,1051.364,256.439,1051.527,256.477Z" transform="translate(-857.919 -237.695)" fill="#3b72ae"/>
        <path id="Trazado_1234669" data-name="Trazado 1234669" d="M1076.15,235.353a.241.241,0,0,0,.177.292,21.211,21.211,0,0,1,13.581,10.108.241.241,0,0,0,.218.136l.105-.024a.242.242,0,0,0,.113-.323,21.708,21.708,0,0,0-13.9-10.367A.243.243,0,0,0,1076.15,235.353Z" transform="translate(-897.389 -230.09)" fill="#3b72ae"/>
        <path id="Trazado_1234670" data-name="Trazado 1234670" d="M1049.581,240.719a.242.242,0,0,0,.049.339c4.938,3.679,14.289,7.328,14.382,7.365l.088.016a.242.242,0,0,0,.088-.467c-.094-.036-9.383-3.662-14.268-7.3A.241.241,0,0,0,1049.581,240.719Z" transform="translate(-875.99 -234.475)" fill="#3b72ae"/>
        <path id="Trazado_1234671" data-name="Trazado 1234671" d="M799.606,787.9l1.142.259a25.164,25.164,0,0,1-1.142-2.746Z" transform="translate(-675.003 -672.588)" fill="#aacdee"/>
        <path id="Trazado_1234672" data-name="Trazado 1234672" d="M917.7,779.732l7.01.548Z" transform="translate(-769.973 -668.017)" fill="#aacdee"/>
        <path id="Trazado_1234673" data-name="Trazado 1234673" d="M892.887,583.864c-.362-15.776-6.451-23.074-6.451-23.074,17.857,11.927,15.287,42.317,15.287,42.318l31.531,2.465a106.344,106.344,0,0,1,9.346-8.516v-11.3s-.609-11.414-1.5-20.637l1.5,6.851v-11.4h-.014L885.2,559.112C889.586,564.526,892.56,573.537,892.887,583.864Z" transform="translate(-743.835 -490.599)" fill="#aacdee"/>
        <path id="Trazado_1234674" data-name="Trazado 1234674" d="M812.761,711.746h0l-.7-6.077-1.2-10.477H787.208l.753,7.027.821,7.654Z" transform="translate(-665.033 -600.031)" fill="#e16c6a"/>
        <path id="Trazado_1234675" data-name="Trazado 1234675" d="M747.559,563.677h34.674c0-.654-.018-1.268-.033-1.895-.326-10.327-3.3-19.339-7.689-24.752-2.752-3.395-6.058-5.377-9.616-5.377a10.3,10.3,0,0,0-5.24,1.492c-4.383,2.564-8.01,8.261-10.115,15.666A54.714,54.714,0,0,0,747.559,563.677Z" transform="translate(-633.148 -468.517)" fill="#aacdee"/>
        <path id="Trazado_1234676" data-name="Trazado 1234676" d="M1175.1,864.4l.01-.055c-1.324-.667-2.2-1.131-2.2-1.131.128.408.248.8.365,1.186Z" transform="translate(-975.206 -735.151)" fill="#6169a3"/>
        <path id="Trazado_1234677" data-name="Trazado 1234677" d="M1191.173,839.176l0-.013-.017,0A.073.073,0,0,0,1191.173,839.176Z" transform="translate(-989.882 -715.81)" fill="#6169a3"/>
        <path id="Trazado_1234678" data-name="Trazado 1234678" d="M1185.862,625.47l-2.441,10.153-2.556,10.633c9.711-6.948-.49,10.475-.49,10.475l3.715.483,7.63-31.744a5.679,5.679,0,0,1,5.521-4.352h-5.859a5.752,5.752,0,0,0-5.522,4.352Z" transform="translate(-981.211 -540.463)" fill="#6169a3"/>
        <path id="Trazado_1234679" data-name="Trazado 1234679" d="M1200.444,625.473l-7.63,31.744,7.167.931c22.438,2.111-8.042,5.59-8.754,5.67l0,.013c3.156,2.446,5.507,4.375,7.214,5.882h7.285a2.761,2.761,0,0,1,0,5.522h54.357a4.751,4.751,0,0,0,4.62-3.641l10.724-44.612a4.751,4.751,0,0,0-4.62-5.862h-64.839A5.677,5.677,0,0,0,1200.444,625.473Zm24.425,18.465c1.921-5.827,7.514-9.22,12.493-7.579s7.457,7.7,5.536,13.522-7.514,9.22-12.492,7.579S1222.948,649.764,1224.869,643.937Z" transform="translate(-989.935 -540.465)" fill="#8f92b3"/>
        <path id="Trazado_1234680" data-name="Trazado 1234680" d="M1184.224,869.044l-.109-.055c0,.018-.007.037-.01.055Z" transform="translate(-984.21 -739.796)" fill="#8f92b3"/>
        <path id="Trazado_1234681" data-name="Trazado 1234681" d="M1007.715,874.79c-1.235-1.879-2.463-3.919-3.4-5.522H973.061a2.756,2.756,0,0,0-2.26,1.182,20.679,20.679,0,0,1,1.529,4.23,2.731,2.731,0,0,0,.731.11Z" transform="translate(-812.675 -740.02)" fill="#8f92b3"/>
        <path id="Trazado_1234682" data-name="Trazado 1234682" d="M1176.714,869.268h-1.947c.676,2.226,1.176,4.046,1.528,5.522h16.193a2.761,2.761,0,1,0,0-5.522H1185.2C1195.415,878.285,1182.314,872.084,1176.714,869.268Z" transform="translate(-976.7 -740.02)" fill="#8f92b3"/>
        <path id="Trazado_1234683" data-name="Trazado 1234683" d="M1365.9,718.337c4.978,1.641,10.572-1.752,12.492-7.579s-.558-11.881-5.536-13.522-10.572,1.752-12.493,7.579S1360.925,716.7,1365.9,718.337Z" transform="translate(-1125.432 -601.344)" fill="#cbd0ea"/>
        <path id="Trazado_1234684" data-name="Trazado 1234684" d="M861.475,786.655h0l-2.017-9.895c.5-.509.988-.994,1.462-1.466l-31.531-2.465h0l-3.15-.246-7.01-.548-23.979-1.874.053.234a25.482,25.482,0,0,0,.8,2.754,25.135,25.135,0,0,0,1.142,2.746c4.832,1.1,10.485,2.4,17.1,3.953,7.371,1.728,11.91,5.192,14.525,9.527Z" transform="translate(-671.501 -660.32)" fill="#e16c6a"/>
        <path id="Trazado_1234685" data-name="Trazado 1234685" d="M1124.6,751.951c-.474.472-.958.957-1.462,1.466l2.017,9.895h0s.669,1.211,1.665,2.913c.938,1.6,2.166,3.643,3.4,5.522.841,1.281,1.685,2.484,2.442,3.426,2.235,2.781,3.71,3.257,2.115-3.426-.352-1.476-.852-3.3-1.528-5.522-.117-.384-.237-.778-.365-1.186,0,0,.879.464,2.2,1.131l.109.055c5.6,2.816,18.7,9.017,8.489,0-1.707-1.508-4.059-3.436-7.214-5.882l-.014-.011.017,0c.711-.081,31.191-3.559,8.754-5.67l-7.167-.931-3.715-.483s10.2-17.423.49-10.475c-.278.2-.578.424-.889.664A106.612,106.612,0,0,0,1124.6,751.951Z" transform="translate(-935.178 -636.978)" fill="#e16c6a"/>
        <path id="Trazado_1234686" data-name="Trazado 1234686" d="M1329.83,1035.861a47.665,47.665,0,0,1,.36,5.606c.162,0,.319,0,.483.008a48.04,48.04,0,0,0-.364-5.68.235.235,0,0,0-.063-.114.219.219,0,0,0-.21-.093c-.007,0-.01.009-.018.01A.237.237,0,0,0,1329.83,1035.861Z" transform="translate(-1101.398 -873.77)" fill="#d63331"/>
        <path id="Trazado_1234687" data-name="Trazado 1234687" d="M896.646,609.205h0l7.01.548,3.15.246h0s2.57-30.39-15.287-42.317c0,0,6.089,7.3,6.451,23.074.014.627.037,1.241.033,1.895h-3.261l1.2,10.477Z" transform="translate(-748.918 -497.491)" fill="#50a1d9"/>
        <path id="Trazado_1234688" data-name="Trazado 1234688" d="M1170.69,589.8c.888,9.223,1.5,20.637,1.5,20.637h3.012l-3.012-13.785Z" transform="translate(-973.422 -515.281)" fill="#50a1d9"/>
        <path id="Trazado_1234689" data-name="Trazado 1234689" d="M704.834,805.562a18.651,18.651,0,0,1,18.651,18.65,18.428,18.428,0,0,1-1.438,7.131h1s1.346-2.42,2.949-6.206q.254-.6.514-1.242l.032-.078c2.914-7.219,6.249-18.357,3.975-27.614a20.679,20.679,0,0,0-1.53-4.23q-.346-.7-.753-1.376c-2.614-4.335-7.154-7.8-14.525-9.527-6.619-1.552-12.272-2.855-17.1-3.953l-1.142-.259c-2.528-.573-4.808-1.084-6.876-1.543-12.924-2.869-17.219-3.628-17.245-3.632h0s-.24,1.028-.509,2.831c-.037.248-.074.508-.112.785-.041.3-.081.618-.121.95a71.019,71.019,0,0,0-.494,7.969c-.01,1.625.034,3.363.156,5.187A21.3,21.3,0,0,1,698.8,805.827q.774.142,1.526.307A18.663,18.663,0,0,1,704.834,805.562Z" transform="translate(-570.858 -661.544)" fill="#f2ac58"/>
        <path id="Trazado_1234690" data-name="Trazado 1234690" d="M1119.13,363.031a1.305,1.305,0,1,0-1.305-1.306A1.305,1.305,0,0,0,1119.13,363.031Z" transform="translate(-930.909 -330.815)"/>
        <path id="Trazado_1234691" data-name="Trazado 1234691" d="M1035.09,349.284a1.305,1.305,0,1,0,1.305-1.305A1.305,1.305,0,0,0,1035.09,349.284Z" transform="translate(-864.375 -320.81)"/>
        <path id="Trazado_1234692" data-name="Trazado 1234692" d="M1106.956,390.1a3.131,3.131,0,1,0,2.9,3.35A3.132,3.132,0,0,0,1106.956,390.1Z" transform="translate(-919.466 -354.68)" fill="#f4a4a6"/>
        <path id="Trazado_1234693" data-name="Trazado 1234693" d="M1002.19,377.275a3.132,3.132,0,1,0-2.9-3.351A3.131,3.131,0,0,0,1002.19,377.275Z" transform="translate(-835.581 -339.339)" fill="#f4a4a6"/>
        <path id="Trazado_1234694" data-name="Trazado 1234694" d="M560.2,1690.854c-26.212,0-52.683-16.918-62.18-41.668a51.16,51.16,0,0,0-6.134-1.568,17.709,17.709,0,0,1-21.713-4.213,38.04,38.04,0,0,0-4.232.479l-.156-.1.1-.156a37.668,37.668,0,0,1,4.06-.469,17.763,17.763,0,0,1-2.431-3.924l0,.006-.062.015-.118-.071a10.949,10.949,0,0,1-1.223-3.822c-.553.339-1.105.678-1.634,1.026l-11.138,10.29a20.725,20.725,0,0,0,.282,25.906c10.889,14.741,39.547,25.266,73.189,25.266a149.382,149.382,0,0,0,29.879-2.935c13.845-2.841,25.661-7.6,34.11-13.6-.07-.058-.137-.12-.206-.179C582.4,1687.319,572.163,1690.854,560.2,1690.854Z" transform="translate(-392.998 -1356.094)" fill="#e9b353"/>
        <path id="Trazado_1234695" data-name="Trazado 1234695" d="M1042.084,1336.024q-1.845.039-3.725.152c.074.217.163.426.232.646,1.152,3.678,2.1,7.3,2.879,10.84a28.268,28.268,0,0,1,6.006-.225,24.1,24.1,0,0,1,4.657,1.027c-.988-3.86.654-7.591,3.058-11.648a70.52,70.52,0,0,0-11.145-.816C1043.4,1336,1042.74,1336.011,1042.084,1336.024Z" transform="translate(-867.004 -1115.358)" fill="#e9b353"/>
        <path id="Trazado_1234696" data-name="Trazado 1234696" d="M995.572,1494.04c-.765,0-1.5.029-2.222.07l-.057.063c-15.631.9-21.244,11.045-22.319,13.345a45.336,45.336,0,0,1,27.559-9.623,126.725,126.725,0,0,1,5.257-26.835c.019-.062.043-.123.063-.185a22.8,22.8,0,0,1-2.106,4.237C989.627,1487.694,995.572,1494.04,995.572,1494.04Z" transform="translate(-812.814 -1223.823)" fill="#e9b353"/>
        <path id="Trazado_1234697" data-name="Trazado 1234697" d="M1140.86,1439.9a26.956,26.956,0,0,1,2.727-5.405c-.789-.225-1.539-.471-2.244-.736A12.551,12.551,0,0,1,1140.86,1439.9Z" transform="translate(-949.433 -1193.973)" fill="#e9b353"/>
        <path id="Trazado_1234698" data-name="Trazado 1234698" d="M973.47,1619.544q1.861-.708,3.945-1.316a62.849,62.849,0,0,1,22.73-2.078q.117-2.866.374-5.924A45.074,45.074,0,0,0,973.47,1619.544Z" transform="translate(-814.821 -1335.885)" fill="#e9b353"/>
        <path id="Trazado_1234699" data-name="Trazado 1234699" d="M757.252,1642.876c-21.29,6.156-24.747,21.459-24.779,21.613l-.131.106-.028,0-.1-.158a14.735,14.735,0,0,1,.576-1.82c-.535-.129-1.055-.234-1.556-.312-.177-.027-.341-.037-.513-.058-.357-.044-.715-.09-1.054-.11-.188-.011-.363-.008-.546-.012-.308-.008-.617-.017-.91-.007-.171.006-.332.022-.5.034-.288.02-.576.041-.848.076-.144.019-.28.044-.419.067-.281.046-.558.094-.821.155-.11.025-.215.054-.322.081-.281.072-.555.148-.814.234-.073.024-.143.049-.214.074-.285.1-.56.2-.817.316l-.1.044c-.289.128-.564.261-.818.4-.147.079-.295.156-.43.237a11.269,11.269,0,0,0-1.027.687l-.031.022c-.126.1-.239.187-.347.276l-.088.072c-.1.082-.185.16-.267.234l-.084.077c-.072.068-.139.132-.2.19l-.069.07c-.049.05-.1.1-.132.138l-.054.06-.018.02.008.007v.188l-.093.039-.094-.04a63.52,63.52,0,0,0-6.453-5.684,48.473,48.473,0,0,0-13.554-6.816c9.5,24.751,35.968,41.669,62.18,41.669,11.965,0,22.205-3.536,30.395-9.72a30.3,30.3,0,0,1-9.9-16.262l-.315.121s-2.727-11.5-2.071-28.37A62.576,62.576,0,0,0,757.252,1642.876Z" transform="translate(-594.583 -1360.278)" fill="#e9b353"/>
        <path id="Trazado_1234700" data-name="Trazado 1234700" d="M544.908,1607.868l-2.18-2.36-5.739,5.3c.018.108.03.217.049.324l0,0,.142.123a10.757,10.757,0,0,0,1.2,3.8l-.054.174a17.769,17.769,0,0,0,2.431,3.924c.967-.068,2.082-.12,3.332-.134A27.825,27.825,0,0,1,544.908,1607.868Z" transform="translate(-463.812 -1332.09)" fill="#e9b353"/>
        <path id="Trazado_1234701" data-name="Trazado 1234701" d="M572.935,1676.933c-.842-.161-1.667-.307-2.451-.425a61.662,61.662,0,0,0-13.088-.567,17.709,17.709,0,0,0,21.713,4.213c-1.282-.243-2.532-.435-3.73-.575Z" transform="translate(-480.223 -1388.631)" fill="#e9b353"/>
        <path id="Trazado_1234702" data-name="Trazado 1234702" d="M1054.24,1394.357a138.961,138.961,0,0,1,2.9,38.095c.986-.144,2.016-.251,3.094-.314l.141.126-.069.077c.722-.041,1.458-.07,2.223-.07,0,0-5.947-6.347,6.175-18.927a22.793,22.793,0,0,0,2.106-4.237c.122-.38.249-.757.387-1.127a12.536,12.536,0,0,0,.483-6.141c-2.609-.983-4.591-2.237-5.511-3.735a10.658,10.658,0,0,1-1.27-2.945,24.105,24.105,0,0,0-4.657-1.027A28.34,28.34,0,0,0,1054.24,1394.357Z" transform="translate(-879.775 -1162.054)" fill="#e49e1d"/>
        <path id="Trazado_1234703" data-name="Trazado 1234703" d="M806.976,1764.43l-.088.072C806.916,1764.477,806.947,1764.454,806.976,1764.43Z" transform="translate(-680.859 -1459.893)" fill="#e49e1d"/>
        <path id="Trazado_1234704" data-name="Trazado 1234704" d="M837.086,1751.2c-.144.019-.28.044-.419.067C836.806,1751.243,836.942,1751.217,837.086,1751.2Z" transform="translate(-704.807 -1449.253)" fill="#e49e1d"/>
        <path id="Trazado_1234705" data-name="Trazado 1234705" d="M803.737,1767.422l.069-.07Z" transform="translate(-678.325 -1462.242)" fill="#e49e1d"/>
        <path id="Trazado_1234706" data-name="Trazado 1234706" d="M825.793,1753.93c-.073.024-.143.049-.214.074C825.65,1753.981,825.72,1753.956,825.793,1753.93Z" transform="translate(-695.89 -1451.449)" fill="#e49e1d"/>
        <path id="Trazado_1234707" data-name="Trazado 1234707" d="M805.182,1765.99l-.084.077Z" transform="translate(-679.42 -1461.147)" fill="#e49e1d"/>
        <path id="Trazado_1234708" data-name="Trazado 1234708" d="M820.988,1755.93l-.1.044C820.921,1755.959,820.954,1755.944,820.988,1755.93Z" transform="translate(-692.117 -1453.057)" fill="#e49e1d"/>
        <path id="Trazado_1234709" data-name="Trazado 1234709" d="M843.14,1750.671c.166-.011.327-.028.5-.034C843.467,1750.641,843.306,1750.659,843.14,1750.671Z" transform="translate(-710.012 -1448.8)" fill="#e49e1d"/>
        <path id="Trazado_1234710" data-name="Trazado 1234710" d="M802.84,1768.41l-.054.06C802.8,1768.453,802.819,1768.433,802.84,1768.41Z" transform="translate(-677.56 -1463.093)" fill="#e49e1d"/>
        <path id="Trazado_1234711" data-name="Trazado 1234711" d="M831.152,1752.33c-.11.025-.215.054-.322.081C830.937,1752.383,831.042,1752.355,831.152,1752.33Z" transform="translate(-700.113 -1450.162)" fill="#e49e1d"/>
        <path id="Trazado_1234712" data-name="Trazado 1234712" d="M859.012,1751.351c-.177-.027-.34-.037-.513-.058C858.672,1751.316,858.835,1751.324,859.012,1751.351Z" transform="translate(-722.364 -1449.328)" fill="#e49e1d"/>
        <path id="Trazado_1234713" data-name="Trazado 1234713" d="M809.138,1762.9l-.031.022Z" transform="translate(-682.644 -1458.662)" fill="#e49e1d"/>
        <path id="Trazado_1234714" data-name="Trazado 1234714" d="M850.875,1750.679c-.188-.011-.363-.008-.546-.013C850.512,1750.671,850.687,1750.669,850.875,1750.679Z" transform="translate(-715.794 -1448.824)" fill="#e49e1d"/>
        <path id="Trazado_1234715" data-name="Trazado 1234715" d="M573.274,1617.56a27.825,27.825,0,0,0-.815,11.146,62.953,62.953,0,0,1,10.008.687c.68.1,1.39.224,2.115.358l-4.133-4.474c-.159-.156-.325-.3-.479-.468Z" transform="translate(-492.177 -1341.783)" fill="#e49e1d"/>
        <path id="Trazado_1234716" data-name="Trazado 1234716" d="M891.087,1641.536q-2.087.6-3.945,1.316c-.245.188-.49.368-.734.564l-.084.029-.047-.009-.008-.018-.049-.024,0-.039a38.437,38.437,0,0,0-13.844,9.233,23.544,23.544,0,0,0-5.555,8.966c-.044-.011-.084-.015-.128-.026a14.805,14.805,0,0,0-.576,1.82l.1.158.028,0,.131-.106c.032-.153,3.489-15.457,24.779-21.613a62.568,62.568,0,0,1,22.644-2.069c0-.088.008-.177.011-.265A62.827,62.827,0,0,0,891.087,1641.536Z" transform="translate(-728.493 -1359.192)"/>
        <path id="Trazado_1234717" data-name="Trazado 1234717" d="M969.854,1602.266c.073-.058.147-.111.22-.169,1.075-2.3,6.688-12.444,22.319-13.345l.057-.064.069-.078-.141-.126c-1.079.063-2.108.17-3.094.314,0,.069-.007.143-.011.211a26.625,26.625,0,0,0-14.357,6.562A21.747,21.747,0,0,0,969.854,1602.266Z" transform="translate(-811.913 -1318.401)"/>
        <path id="Trazado_1234718" data-name="Trazado 1234718" d="M969.065,1660.725l-.055-.026.008.018Z" transform="translate(-811.235 -1376.475)"/>
        <path id="Trazado_1234719" data-name="Trazado 1234719" d="M969.194,1618.481c-.073.057-.147.111-.22.169-.072.158-.11.252-.11.252-.035.014-.065.03-.1.044l0,.039.049.024.055.027.084-.03c.244-.2.49-.375.734-.564a45.083,45.083,0,0,1,27.049-9.318c.008-.089.014-.177.022-.266A45.338,45.338,0,0,0,969.194,1618.481Z" transform="translate(-811.034 -1334.784)"/>
        <path id="Trazado_1234720" data-name="Trazado 1234720" d="M552.461,1675.418c.784.118,1.608.264,2.451.425l-.307-.333c-.725-.134-1.434-.257-2.115-.358a62.957,62.957,0,0,0-10.008-.687c-1.25.015-2.365.067-3.332.135a37.654,37.654,0,0,0-4.06.469l-.1.156.156.1a37.983,37.983,0,0,1,4.232-.479A61.765,61.765,0,0,1,552.461,1675.418Z" transform="translate(-462.2 -1387.54)"/>
        <path id="Trazado_1234721" data-name="Trazado 1234721" d="M775.365,1746.381a50.638,50.638,0,0,0-6.547-5.59,63.425,63.425,0,0,1,6.453,5.684l.094.04.093-.039v-.188l-.008-.007C775.4,1746.338,775.365,1746.381,775.365,1746.381Z" transform="translate(-650.244 -1440.883)"/>
        <path id="Trazado_1234722" data-name="Trazado 1234722" d="M536.892,1634.354l-.142-.123,0,0-.12.139.007.079a10.945,10.945,0,0,0,1.223,3.822l.118.071.062-.015,0-.006.054-.174A10.765,10.765,0,0,1,536.892,1634.354Z" transform="translate(-463.52 -1355.189)"/>
        <path id="Trazado_1234723" data-name="Trazado 1234723" d="M746.677,1718.5l-3.595-3.892-5.784,1.356a49.085,49.085,0,0,1,6.172,3.771,50.649,50.649,0,0,1,6.547,5.591s.035-.042.087-.1l.018-.02.054-.06c.036-.039.083-.088.132-.137l.069-.07c.058-.058.125-.122.2-.19l.084-.077c.082-.074.169-.152.267-.234.028-.024.058-.048.088-.072.108-.089.221-.181.347-.276l.031-.022a11.27,11.27,0,0,1,1.027-.687A28.443,28.443,0,0,1,746.677,1718.5Z" transform="translate(-624.896 -1419.826)" fill="#4b2e25"/>
        <path id="Trazado_1234724" data-name="Trazado 1234724" d="M845.532,964.345a11.1,11.1,0,0,1-2.159,6.579,7.329,7.329,0,0,1,.638.635,7.441,7.441,0,0,1,.938,1.342,18.874,18.874,0,0,0,1.217-2.422,18.428,18.428,0,0,0,1.438-7.131,18.585,18.585,0,0,0-23.16-18.078c7.974,1.746,14.011,5.349,16.039,9.743A11.147,11.147,0,0,1,845.532,964.345Z" transform="translate(-694.977 -800.68)" fill="#1e274c"/>
        <path id="Trazado_1234725" data-name="Trazado 1234725" d="M787.252,1712.613a28.651,28.651,0,0,0,5.768,4.835c.254-.137.529-.27.818-.4l.1-.044c.258-.112.532-.216.817-.316.071-.025.141-.05.214-.074.259-.085.533-.161.814-.234.107-.027.211-.056.322-.081.263-.06.54-.109.821-.155.14-.023.275-.048.419-.067.272-.036.56-.056.848-.076.166-.011.327-.028.5-.034.292-.01.6,0,.91.007.182,0,.358,0,.546.013.339.021.7.066,1.054.11.173.021.336.031.513.058.5.077,1.021.183,1.556.312.044.011.084.015.128.026a23.542,23.542,0,0,1,5.555-8.966Z" transform="translate(-665.068 -1414.134)" fill="#4b2e25"/>
        <path id="Trazado_1234726" data-name="Trazado 1234726" d="M1012.584,1421.05a52.273,52.273,0,0,1-2.076,5.482l.49.233A41.4,41.4,0,0,0,1012.584,1421.05Z" transform="translate(-844.606 -1183.753)" fill="#d4373f"/>
        <path id="Trazado_1234727" data-name="Trazado 1234727" d="M739.847,1273.432a2.968,2.968,0,0,1-2.485,2.937l16.977,8.734-.578-.361-5.785-2.957c3.92-23.305,18.946-31.489,18.946-31.489-7.473,6.393-8.458,16.994-8.458,16.994l4.615,1.676.228-.386-2.654-1.182c6.412-14.4,17.929-23.254,25.723-19.783,6,2.673,8.041,11.877,5.738,22.54a45.023,45.023,0,0,1-2.4,10.359l-.121.12-.079.014-.091-.021-6.948-3.292-.012-.014-9.944,17.133a28.657,28.657,0,0,1-4.412,6.58l17.9,13.264a26.626,26.626,0,0,1,14.357-6.562c0-.068.008-.142.011-.211a138.966,138.966,0,0,0-2.9-38.095c-.778-3.54-1.726-7.162-2.878-10.84-.069-.221-.158-.429-.232-.646a28.251,28.251,0,0,0-26.781-19.223l.05.292a8.99,8.99,0,0,1-17.169,4.953,33.956,33.956,0,0,0-15.515,26.506l1.914-.008A2.977,2.977,0,0,1,739.847,1273.432Z" transform="translate(-623.004 -1037.129)" fill="#d4373f"/>
        <path id="Trazado_1234728" data-name="Trazado 1234728" d="M186.244,1686.468l-21.032-22.152a12.875,12.875,0,0,0-1.921.384l20,21.066,1.75,1.843Z" transform="translate(-163.291 -1379.382)" fill="#4b2e25"/>
        <path id="Trazado_1234729" data-name="Trazado 1234729" d="M238.945,1678.938c-.047-.073-.181-.285-.7-.285l-.134,0c-.393.024-.633.134-.716.325-.219.514.443,1.7,1.1,2.568C238.9,1680.669,239.274,1679.453,238.945,1678.938Z" transform="translate(-222.847 -1390.912)" fill="#4b2e25"/>
        <path id="Trazado_1234730" data-name="Trazado 1234730" d="M197.907,1685.238l5.992-5.689,2.623-2.491-.006-.006-1.4,1.292-9.2-9.953.017-.02c-8.234-4.988-15.12-5.275-18.731-4.93Zm-3.526-14.616a1.327,1.327,0,0,1-.782,1.233,1.183,1.183,0,0,1-.4.067c-1.23,0-2.932-1.57-3.142-1.768l-.038-.06-.067-.051c-.209-.245-2.025-2.431-1.515-3.627a1.327,1.327,0,0,1,1.271-.718,1.45,1.45,0,0,1,1.424.578c.519.816.026,2.242-.342,3.077.853-.324,2.3-.74,3.091-.182A1.447,1.447,0,0,1,194.381,1670.622Z" transform="translate(-174.485 -1378.597)" fill="#4b2e25"/>
        <path id="Trazado_1234731" data-name="Trazado 1234731" d="M249.6,1695.164c-.5-.357-1.733-.044-2.633.316.837.7,1.983,1.426,2.507,1.234.2-.071.318-.306.361-.7C249.905,1695.383,249.674,1695.217,249.6,1695.164Z" transform="translate(-230.579 -1404.064)" fill="#4b2e25"/>
        <path id="Trazado_1234732" data-name="Trazado 1234732" d="M193.567,1684.013l.235.1.223-.089a.324.324,0,0,0,.012-.457l-20.7-21.8-.384-.405a.324.324,0,1,0-.469.446l.05.052Z" transform="translate(-170.614 -1376.927)" fill="#fff"/>
        <path id="Trazado_1234733" data-name="Trazado 1234733" d="M246.465,1691.985c-.786-.558-2.238-.142-3.091.182-.142.322-.267.563-.307.636a.323.323,0,0,1-.25.167l-.033,0-.18-.064.038.06c.21.2,1.912,1.768,3.142,1.768a1.183,1.183,0,0,0,.4-.067,1.327,1.327,0,0,0,.782-1.233A1.449,1.449,0,0,0,246.465,1691.985Zm-.139,1.381c-.044.391-.166.626-.361.7-.524.193-1.671-.529-2.507-1.234.9-.359,2.133-.672,2.633-.316C246.167,1692.567,246.4,1692.734,246.326,1693.366Z" transform="translate(-227.072 -1401.414)" fill="#fff"/>
        <path id="Trazado_1234734" data-name="Trazado 1234734" d="M235.952,1679.82a.322.322,0,0,0,.25-.167c.04-.073.165-.315.307-.636.368-.835.861-2.261.342-3.077a1.451,1.451,0,0,0-1.424-.578,1.327,1.327,0,0,0-1.271.718c-.51,1.2,1.306,3.382,1.515,3.627l.067.051.18.064Zm-1.2-3.488c.082-.192.322-.3.716-.325l.134,0c.524,0,.658.212.7.285.329.516-.046,1.732-.451,2.613C235.194,1678.028,234.533,1676.846,234.752,1676.333Z" transform="translate(-220.207 -1388.262)" fill="#fff"/>
        <path id="Trazado_1234735" data-name="Trazado 1234735" d="M568.478,1607.773l6.7,7.249c.154.165.32.313.479.468l-9.331-10.1-.024.023Z" transform="translate(-487.381 -1331.996)" fill="#ec9998"/>
        <path id="Trazado_1234736" data-name="Trazado 1234736" d="M476.678,1431.933a24.213,24.213,0,0,0-9.789,5.142,21.227,21.227,0,0,1,18.454-2.7,22.563,22.563,0,0,1,2.991-2.49Z" transform="translate(-407.439 -1192.468)" fill="#ec9998"/>
        <path id="Trazado_1234737" data-name="Trazado 1234737" d="M565.207,1437.74a20.32,20.32,0,0,0-1.715,1.491l.22.081C564.108,1438.86,564.6,1438.337,565.207,1437.74Z" transform="translate(-485.125 -1197.175)" fill="#ec9998"/>
        <path id="Trazado_1234738" data-name="Trazado 1234738" d="M281.971,1693.06l1.4-1.292.119-.108-9.513-10.02-1.182,1.447-.017.02Z" transform="translate(-251.337 -1393.314)" fill="#ec9998"/>
        <path id="Trazado_1234739" data-name="Trazado 1234739" d="M345.29,1443.256a.909.909,0,0,1-.377-.658,3.448,3.448,0,0,1,1.231-2.141,21.13,21.13,0,0,0-22.862,6.759l-8.067,9.873L293.795,1483.3a32.3,32.3,0,0,1,15.5,4.9Z" transform="translate(-268.24 -1198.549)" fill="#ec9998"/>
        <path id="Trazado_1234740" data-name="Trazado 1234740" d="M467.044,1459.777l-22.333,27.889,19.718-24.132a21.19,21.19,0,0,1,4.032-3.794A3.128,3.128,0,0,1,467.044,1459.777Z" transform="translate(-389.603 -1214.866)" fill="#ec9998"/>
        <path id="Trazado_1234741" data-name="Trazado 1234741" d="M558.519,1445.437l-.22-.081c-.743.735-1.3,1.462-1.263,1.961a.475.475,0,0,0,.222.361C557.125,1447.329,557.482,1446.622,558.519,1445.437Z" transform="translate(-479.931 -1203.299)" fill="#ec9998"/>
        <path id="Trazado_1234742" data-name="Trazado 1234742" d="M605.667,1586.385l-25.049-27.116,0-.271-3.544-3.836L566.421,1565l9.331,10.1,4.133,4.474.307.333,2.445,2.646c1.2.139,2.448.332,3.73.575a51.135,51.135,0,0,1,6.134,1.568,49.162,49.162,0,0,1,7.382,3.045Z" transform="translate(-487.48 -1291.603)" fill="#4b2e25"/>
        <path id="Trazado_1234743" data-name="Trazado 1234743" d="M298.935,1685.237l8.615-8.18-.006-.006-1.4,1.292-9.057-9.8-.137.066-.135-.047a.217.217,0,0,1-.034-.3h0a32.3,32.3,0,0,0-15.5-4.9,23.573,23.573,0,0,0-3.046.086Zm-7.893-15.145-.067-.051c-.208-.245-2.024-2.431-1.514-3.627a1.327,1.327,0,0,1,1.271-.718,1.448,1.448,0,0,1,1.423.578c.519.816.026,2.243-.342,3.077.853-.324,2.307-.74,3.091-.182a1.448,1.448,0,0,1,.5,1.452,1.327,1.327,0,0,1-.782,1.233,1.175,1.175,0,0,1-.4.067c-1.23,0-2.931-1.569-3.141-1.768Z" transform="translate(-255.729 -1378.596)" fill="#4b2e25"/>
        <path id="Trazado_1234744" data-name="Trazado 1234744" d="M339.967,1678.938c-.046-.073-.181-.285-.7-.285l-.135,0c-.393.024-.633.134-.716.325-.219.514.443,1.7,1.1,2.568C339.922,1680.669,340.3,1679.453,339.967,1678.938Z" transform="translate(-304.087 -1390.912)" fill="#4b2e25"/>
        <path id="Trazado_1234745" data-name="Trazado 1234745" d="M350.852,1696.017c.072-.633-.159-.8-.236-.852-.5-.356-1.733-.044-2.634.315.839.7,1.987,1.427,2.508,1.234C350.686,1696.641,350.808,1696.408,350.852,1696.017Z" transform="translate(-311.816 -1404.064)" fill="#4b2e25"/>
        <path id="Trazado_1234746" data-name="Trazado 1234746" d="M277.825,1678.927l8.24,8.68,1.2-1.141-21.033-22.152a12.952,12.952,0,0,0-1.921.384l2.856,3.008,9.513,10.018Z" transform="translate(-244.532 -1379.381)" fill="#4b2e25"/>
        <path id="Trazado_1234747" data-name="Trazado 1234747" d="M294.591,1684.013l.235.1.222-.089a.324.324,0,0,0,.012-.457l-20.7-21.8-.385-.405a.324.324,0,0,0-.469.446l.05.052Z" transform="translate(-251.854 -1376.927)" fill="#fff"/>
        <path id="Trazado_1234748" data-name="Trazado 1234748" d="M347.208,1694.67a1.327,1.327,0,0,0,.782-1.233,1.448,1.448,0,0,0-.5-1.452c-.784-.558-2.238-.142-3.091.182-.142.323-.267.563-.307.636a.324.324,0,0,1-.251.167l-.033,0-.18-.064.039.06c.21.2,1.911,1.768,3.141,1.768A1.153,1.153,0,0,0,347.208,1694.67Zm-2.731-1.841c.9-.36,2.135-.672,2.634-.316.076.054.308.219.236.852-.044.391-.166.626-.361.7C346.465,1694.255,345.317,1693.534,344.478,1692.829Z" transform="translate(-308.312 -1401.414)" fill="#fff"/>
        <path id="Trazado_1234749" data-name="Trazado 1234749" d="M336.978,1679.82a.323.323,0,0,0,.251-.167c.04-.073.165-.314.307-.636.368-.834.862-2.261.342-3.077a1.449,1.449,0,0,0-1.423-.578,1.327,1.327,0,0,0-1.271.718c-.509,1.2,1.306,3.382,1.514,3.627l.067.051.18.064Zm-1.2-3.488c.082-.192.323-.3.716-.325l.135,0c.523,0,.658.212.7.285.329.516-.046,1.732-.451,2.613C336.221,1678.028,335.56,1676.846,335.779,1676.333Z" transform="translate(-301.452 -1388.262)" fill="#fff"/>
        <path id="Trazado_1234750" data-name="Trazado 1234750" d="M612.136,1431.671c-.785.457-2,1.149-3.382,1.891a21.343,21.343,0,0,1,6.985-.16l-2.34-1.735Z" transform="translate(-521.524 -1192.29)" fill="#ec9998"/>
        <path id="Trazado_1234751" data-name="Trazado 1234751" d="M624.346,1500.05l.015-.033.3.012,16.106-14.878-4.433-3.29L620.8,1496.214Z" transform="translate(-531.213 -1232.655)" fill="#ec9998"/>
        <path id="Trazado_1234752" data-name="Trazado 1234752" d="M406.322,1477.265l5.74-5.3.024-.023,10.649-9.837,15.536-14.353-10.91-8.094a21.353,21.353,0,0,0-6.985.16c-2.77,1.485-6.233,3.172-8.373,3.6a21.188,21.188,0,0,0-4.032,3.794l-19.718,24.132-13.717,17.129-.031.014,9.057,9.8,1.4-1.292,8.526-7.876,11.138-10.289Z" transform="translate(-333.145 -1198.544)" fill="#ec9998"/>
        <path id="Trazado_1234753" data-name="Trazado 1234753" d="M640.534,1513.456l28.652,31.015.078.091,21.7-5.084a38.431,38.431,0,0,1,13.844-9.234c.035-.014.065-.03.1-.044,0,0,.038-.094.11-.252a21.727,21.727,0,0,1,5.061-6.694l-17.9-13.264c-8.739,9.474-18.059,1.292-18.059,1.292l-17.149-12.724-.173.087-.129-.043-.032-.024Z" transform="translate(-547.08 -1246.083)" fill="#4b2e25"/>
        <path id="Trazado_1234754" data-name="Trazado 1234754" d="M822.177,1173.629a8.994,8.994,0,0,0,7.353-10.378l-.051-.292-3.148-18.45a16.93,16.93,0,0,1-2.786,9.373c-1.459,10.577-11.145,12.826-11.626,12.931a8.872,8.872,0,0,0,.442,1.391A8.99,8.99,0,0,0,822.177,1173.629Z" transform="translate(-684.905 -961.364)" fill="#ec9998"/>
        <path id="Trazado_1234755" data-name="Trazado 1234755" d="M819.69,1192.37a16.983,16.983,0,0,1-12.565,7.6l.911,5.338.028-.005C808.544,1205.2,818.231,1202.946,819.69,1192.37Z" transform="translate(-681.05 -999.853)" fill="#e05c5a"/>
        <path id="Trazado_1234756" data-name="Trazado 1234756" d="M708.89,1088.254l1.8,10.241c-.172.031-.328.049-.479.062a17.029,17.029,0,0,0,16.737,10.456c.217-.012.425-.05.638-.071a17.007,17.007,0,0,0,15.35-16.972v-.135a7.449,7.449,0,0,1-5.311-8.674,11.169,11.169,0,0,1-5.643-3.984,52.366,52.366,0,0,1-23.675.032,17.025,17.025,0,0,0-.063,2.616l.044.722.437,7.244Zm5.8.476a1.163,1.163,0,1,1,1.164-1.163A1.163,1.163,0,0,1,714.685,1088.73Zm5.921,9.957a4.238,4.238,0,0,1-3.743,2.1,4.36,4.36,0,0,1-1.074-.122.215.215,0,0,1,.118-.414,3.91,3.91,0,0,0,4.332-1.786.216.216,0,0,1,.366.227Zm8.329-6.875a4.152,4.152,0,1,1-4.443-3.84A4.152,4.152,0,0,1,728.935,1091.812Z" transform="translate(-601.51 -908.825)" fill="#ec9998"/>
        <path id="Trazado_1234757" data-name="Trazado 1234757" d="M707.919,1125.53l-.167,1.538-.722,6.648s-.382,2.337,2.21,2.116c.151-.013.307-.032.479-.062Z" transform="translate(-600.539 -946.102)" fill="#ec9998"/>
        <path id="Trazado_1234758" data-name="Trazado 1234758" d="M750.7,1177.234a3.91,3.91,0,0,1-4.332,1.786.215.215,0,1,0-.118.414,4.345,4.345,0,0,0,1.074.122,4.237,4.237,0,0,0,3.743-2.1.215.215,0,0,0-.366-.227Z" transform="translate(-631.968 -987.6)"/>
        <path id="Trazado_1234759" data-name="Trazado 1234759" d="M859.64,1399.7l-19.063-8.491-.228.386-9.318,15.775.578.361,18.178,9.353,9.944-17.133A.209.209,0,0,1,859.64,1399.7Z" transform="translate(-700.275 -1159.756)" fill="#ec9998"/>
        <path id="Trazado_1234760" data-name="Trazado 1234760" d="M887.945,1310.508v-.022a.216.216,0,0,1,.287-.1l6.247,2.959a52.217,52.217,0,0,0,2.076-5.482,46.721,46.721,0,0,0,.048-19.413.216.216,0,1,1,.421-.094,45.675,45.675,0,0,1,.664,15.238c2.3-10.663.263-19.867-5.738-22.54-7.794-3.471-19.311,5.386-25.723,19.783l2.654,1.182Z" transform="translate(-728.579 -1070.563)" fill="#d4373f"/>
        <path id="Trazado_1234761" data-name="Trazado 1234761" d="M736.474,1116.08a1.163,1.163,0,1,0,1.164,1.163A1.163,1.163,0,0,0,736.474,1116.08Z" transform="translate(-623.298 -938.502)"/>
        <path id="Trazado_1234762" data-name="Trazado 1234762" d="M699.084,972.118A11.151,11.151,0,0,1,714.119,956.1c-2.028-4.394-8.066-8-16.039-9.743q-.751-.165-1.526-.307a21.29,21.29,0,0,1-21.007,24.8,21.225,21.225,0,0,1-8.236-1.652,35.1,35.1,0,0,0,8.1,2.955,52.367,52.367,0,0,0,23.676-.032Z" transform="translate(-568.613 -801.767)" fill="#1e274c"/>
        <path id="Trazado_1234763" data-name="Trazado 1234763" d="M643.2,876.459a21.308,21.308,0,0,0-21.3-21.3,21.3,21.3,0,1,0,21.3,21.3Z" transform="translate(-514.973 -728.676)" fill="#1e274c"/>
        <path id="Trazado_1234764" data-name="Trazado 1234764" d="M838.3,1005.775a11.129,11.129,0,1,0-12.282,4.091,7.455,7.455,0,0,1,12.282-4.091Z" transform="translate(-689.905 -835.531)" fill="#1e274c"/>
        <path id="Trazado_1234765" data-name="Trazado 1234765" d="M870.026,1082.017a7.48,7.48,0,1,0-6.939,1.587A7.394,7.394,0,0,0,870.026,1082.017Zm-6.527-3.329a.215.215,0,0,1-.212.177l-.039,0a.215.215,0,0,1-.174-.25c.438-2.461,3.476-4.214,4.425-4.706a3.461,3.461,0,0,0-4.72-.116.215.215,0,0,1-.284-.323,3.924,3.924,0,1,1,5.186,5.89l-.142.053-.161-.073a.214.214,0,0,1,.019-.3,3.471,3.471,0,0,0,.407-4.8C867.071,1074.611,863.916,1076.348,863.5,1078.688Z" transform="translate(-721.662 -900.596)" fill="#ec9998"/>
        <path id="Trazado_1234766" data-name="Trazado 1234766" d="M887.766,1088.432a.216.216,0,0,1-.1.286s-.065.03-.158.078a3.471,3.471,0,0,1-.407,4.8.214.214,0,0,0-.019.3l.161.074.142-.054a3.924,3.924,0,1,0-5.186-5.89.215.215,0,1,0,.284.323,3.462,3.462,0,0,1,4.72.116c.154-.08.258-.13.281-.141A.213.213,0,0,1,887.766,1088.432Z" transform="translate(-741.361 -915.156)"/>
        <path id="Trazado_1234767" data-name="Trazado 1234767" d="M890.329,1093.879a.216.216,0,0,0-.182-.391c-.024.011-.128.061-.281.141-.949.492-3.987,2.245-4.425,4.706a.215.215,0,0,0,.173.25l.039,0a.216.216,0,0,0,.212-.177c.416-2.341,3.571-4.078,4.306-4.453C890.263,1093.908,890.324,1093.881,890.329,1093.879Z" transform="translate(-744.026 -920.317)"/>
        <path id="Trazado_1234768" data-name="Trazado 1234768" d="M667.951,1605.7l-.078-.091-28.652-31.015-.3-.013-.015.033,0,.271L663.953,1602l3.595,3.892a28.489,28.489,0,0,0,5.74,4.878c.135-.08.283-.157.43-.237A28.693,28.693,0,0,1,667.951,1605.7Z" transform="translate(-545.767 -1307.217)"/>
        <path id="Trazado_1234769" data-name="Trazado 1234769" d="M771.674,1128.482a4.152,4.152,0,1,0,3.84-4.442A4.152,4.152,0,0,0,771.674,1128.482Z" transform="translate(-652.532 -944.894)" fill="#f4a4a6"/>
        <path id="Trazado_1234770" data-name="Trazado 1234770" d="M986.16,1320.735a.216.216,0,1,0-.421.094,46.719,46.719,0,0,1-.048,19.413,41.177,41.177,0,0,1-1.586,5.715l-.49-.233-6.247-2.959a.217.217,0,0,0-.287.1v.022a.208.208,0,0,0,.092.251l.012.014,6.948,3.292.091.021.079-.014.121-.12a45.012,45.012,0,0,0,2.4-10.359A45.657,45.657,0,0,0,986.16,1320.735Z" transform="translate(-817.715 -1102.945)" fill="#c5162c"/>
        <path id="Trazado_1234771" data-name="Trazado 1234771" d="M816.591,1316.5l-4.615-1.676s.985-10.6,8.458-16.994c0,0-15.026,8.184-18.946,31.489l5.785,2.957Z" transform="translate(-676.517 -1084.665)" fill="#c5162c"/>
        <path id="Trazado_1234772" data-name="Trazado 1234772" d="M386.8,1486.985l22.333-27.889-.168-.058a1.263,1.263,0,0,1-.222-.145l-36,44.95h0a.217.217,0,0,0,.034.3l.135.047.137-.066.031-.014Z" transform="translate(-331.696 -1214.186)" fill="#e05c5a"/>
        <path id="Trazado_1234773" data-name="Trazado 1234773" d="M702.991,1403.793a2.976,2.976,0,0,0-2.988-2.965l-1.914.008-8.975.034,11.391,5.861A2.967,2.967,0,0,0,702.991,1403.793Z" transform="translate(-586.149 -1167.49)" fill="#aacdee"/>
        <path id="Trazado_1234774" data-name="Trazado 1234774" d="M465.642,1407.413l.271.038c.907-.845,1.981-1.806,3.245-2.9,0,0-15.706-1.1-13.461-2.875l-15.268.059.552,2.32a2.945,2.945,0,0,1-2.634,3.612c.1.009.19.028.289.028l15.089-.058,11.656-.046C465.5,1407.51,465.595,1407.446,465.642,1407.413Z" transform="translate(-384.487 -1168.175)" fill="#aacdee"/>
        <path id="Trazado_1234775" data-name="Trazado 1234775" d="M626.734,1429.57c-.162.1-.4.238-.709.416l1.263,0Z" transform="translate(-535.413 -1190.604)" fill="#aacdee"/>
        <path id="Trazado_1234776" data-name="Trazado 1234776" d="M372.522,1187.753l.241-.027a2.945,2.945,0,0,0,2.634-3.612l-.552-2.32-11.07-46.512-1.15-4.832a2.956,2.956,0,0,0-5.751,1.369l2.89,12.143,9.882,41.52A2.956,2.956,0,0,0,372.522,1187.753Z" transform="translate(-318.902 -948.232)" fill="#aacdee"/>
        <path id="Trazado_1234777" data-name="Trazado 1234777" d="M630.474,1393.816l18.366,13.625a.216.216,0,0,1,.044.3l17.149,12.724s9.32,8.182,18.059-1.292a28.667,28.667,0,0,0,4.412-6.58l-18.178-9.353-16.977-8.734-11.391-5.861-5.87-3.02c.137.583.277,1.18.419,1.805Z" transform="translate(-538.99 -1155.267)" fill="#ec9998"/>
        <path id="Trazado_1234778" data-name="Trazado 1234778" d="M539.507,1331.319c-1.264,1.091-2.338,2.052-3.245,2.9l.029.019a.215.215,0,0,1-.056.3c-.331.226-.805.57-1.317.972-.6.6-1.1,1.12-1.495,1.572-1.037,1.186-1.394,1.892-1.261,2.241l.136.086c1.727.839,10.518-4.005,13.761-5.943l.24.011.021.015,6.031-6.383c-.142-.625-.281-1.222-.419-1.805-7.263-30.8-7.983-3.6-7.983-3.6l-8.9-4.048c-18.187-9.062,3.97,8.418,3.97,8.418-8.445.875-12.09,1.674-12.971,2.369C523.8,1330.216,539.507,1331.319,539.507,1331.319Z" transform="translate(-454.835 -1094.942)" fill="#ec9998"/>
        <path id="Trazado_1234779" data-name="Trazado 1234779" d="M555.6,1433.691a3.133,3.133,0,0,0,1.417-.037c2.14-.429,5.6-2.117,8.373-3.6,1.385-.742,2.6-1.434,3.382-1.891.3-.177.547-.32.709-.416l.554.411,2.34,1.735,10.911,8.094,4.434,3.29.032.024.129.043.173-.087a.216.216,0,0,0-.044-.3l-18.366-13.625-.021-.015-.24-.012c-3.243,1.938-12.034,6.781-13.761,5.943l-.135-.086a.475.475,0,0,1-.222-.361c-.036-.5.52-1.227,1.263-1.961a20.334,20.334,0,0,1,1.716-1.491c.511-.4.985-.746,1.317-.972a.215.215,0,0,0,.056-.3l-.029-.019-.271-.038-.26.181a22.578,22.578,0,0,0-2.991,2.49,3.448,3.448,0,0,0-1.231,2.141.91.91,0,0,0,.377.658,1.248,1.248,0,0,0,.222.145Z" transform="translate(-478.161 -1188.78)" fill="#e05c5a"/>
        <path id="Trazado_1234780" data-name="Trazado 1234780" d="M1864.819,1796.435l-.192-.04a1.154,1.154,0,0,0-.678.316c-.38.309-.539.6-.487.9.124.7,1.4,1.433,2.412,1.844C1865.771,1798.276,1865.436,1796.715,1864.819,1796.435Z" transform="translate(-1530.528 -1485.598)" fill="#2d9b91"/>
        <path id="Trazado_1234781" data-name="Trazado 1234781" d="M1863.529,1819.956c.344.3.634.4.861.3.625-.259,1.008-1.81,1.149-2.981-1.02.38-2.322,1.074-2.469,1.767C1863.009,1819.339,1863.159,1819.637,1863.529,1819.956Z" transform="translate(-1530.21 -1502.392)" fill="#2d9b91"/>
        <path id="Trazado_1234782" data-name="Trazado 1234782" d="M1839.629,1756.328l.029,0-.031,14.9-2.093,0v.009l13.109.206h0l.521-33.089c-.506.382-1.07.842-1.671,1.382C1846.329,1742.585,1842.121,1747.741,1839.629,1756.328Zm2.315-.879c.223-1.054,1.8-1.807,2.709-2.161-.9-.382-2.452-1.184-2.641-2.246a1.548,1.548,0,0,1,.705-1.484,1.413,1.413,0,0,1,1.514-.359c1.278.578,1.434,3.672,1.447,4.022a.309.309,0,0,1-.016.08.3.3,0,0,1,.015.083c-.025.35-.279,3.438-1.574,3.976a1.069,1.069,0,0,1-.416.084,1.7,1.7,0,0,1-1.086-.491A1.544,1.544,0,0,1,1841.943,1755.448Z" transform="translate(-1509.685 -1438.923)" fill="#2d9b91"/>
        <path id="Trazado_1234783" data-name="Trazado 1234783" d="M1907.63,1764.854h0l1.871.03.15-9.507.4-25.227a14.141,14.141,0,0,0-1.89,1.152Z" transform="translate(-1566.055 -1432.324)" fill="#2d9b91"/>
        <path id="Trazado_1234784" data-name="Trazado 1234784" d="M1904.48,1767.822h0a.307.307,0,0,0,.3.313h0a.308.308,0,0,0,.308-.3h0l.527-33.553,0-.114a.307.307,0,0,0-.3-.313.29.29,0,0,0-.313.3l-.009.578Z" transform="translate(-1563.521 -1435.302)" fill="#fff"/>
        <path id="Trazado_1234785" data-name="Trazado 1234785" d="M1861.677,1818.768a1.077,1.077,0,0,0,.416-.084c1.3-.537,1.549-3.625,1.574-3.975a.31.31,0,0,0-.015-.083.3.3,0,0,1-.107.179l-.184.061-.1-.016c-.078-.026-.311-.108-.618-.239-.914.354-2.487,1.107-2.709,2.161a1.543,1.543,0,0,0,.657,1.5A1.7,1.7,0,0,0,1861.677,1818.768Zm-1.14-1.868c.147-.693,1.449-1.387,2.469-1.767-.141,1.172-.525,2.722-1.15,2.981-.226.094-.517-.006-.861-.3C1860.625,1817.491,1860.474,1817.194,1860.537,1816.9Z" transform="translate(-1527.676 -1500.247)" fill="#fff"/>
        <path id="Trazado_1234786" data-name="Trazado 1234786" d="M1863.675,1797.669l.184-.061a.3.3,0,0,0,.107-.179.3.3,0,0,0,.016-.08c-.013-.35-.17-3.444-1.447-4.022a1.414,1.414,0,0,0-1.514.359,1.548,1.548,0,0,0-.705,1.483c.19,1.061,1.739,1.863,2.641,2.246.307.13.54.212.618.239Zm-2.751-2.608c-.053-.294.107-.587.486-.9a1.154,1.154,0,0,1,.678-.316l.192.04c.617.279.951,1.84,1.055,3.016C1862.328,1796.495,1861.047,1795.756,1860.924,1795.061Z" transform="translate(-1527.989 -1483.051)" fill="#fff"/>
        <path id="Trazado_1234787" data-name="Trazado 1234787" d="M1628.66,1819.723l40.9.082,2.093.006.029-14.9-.029,0-43-6.145Z" transform="translate(-1341.712 -1487.5)" fill="#e16c6a"/>
        <path id="Trazado_1234788" data-name="Trazado 1234788" d="M1373.338,1217.9l-.458,7.6.688,6.344s.364,2.23-2.108,2.019a16.245,16.245,0,0,1-15.968,9.976c-.206-.012-.4-.048-.608-.068l-.781,4.576s0,.006,0,.009l-.087.508-.025-.005a8.588,8.588,0,0,1-.422,1.327,32.443,32.443,0,0,1,10.527,11.06c11.271-.03,19.723-4.565,15.588-13.833-3.968-8.9-4.023-23.378-3.567-32.511a11.572,11.572,0,0,1-3.113-1.337A16.217,16.217,0,0,1,1373.338,1217.9Z" transform="translate(-1120.489 -1016.9)" fill="#643f1d"/>
        <path id="Trazado_1234789" data-name="Trazado 1234789" d="M1305.473,1684.936a30.317,30.317,0,0,1-29.723,30.308h69.106V1677.9l-39.114-9.111-4.017,1.534A30.184,30.184,0,0,1,1305.473,1684.936Z" transform="translate(-1057.909 -1382.983)" fill="#b0397d"/>
        <path id="Trazado_1234790" data-name="Trazado 1234790" d="M1181.691,1691.24a30.181,30.181,0,0,0-3.748-14.608l-56.117,21.434a30.3,30.3,0,0,0,9.9,16.262c.069.059.136.121.206.179a30.2,30.2,0,0,0,19.441,7.056c.2,0,.4-.011.6-.015A30.319,30.319,0,0,0,1181.691,1691.24Z" transform="translate(-934.126 -1389.287)" fill="#b0397d"/>
        <path id="Trazado_1234791" data-name="Trazado 1234791" d="M1285.35,1400.58a8.581,8.581,0,0,1-8.464,5.28c-1.831,1.459-4.734,2.467-8.147,3.064a9.981,9.981,0,0,1,8.224,7.5l5.341,23.063,15.542-8a2.835,2.835,0,0,1,.479-5.632l1.827.007a32.422,32.422,0,0,0-14.8-25.286Z" transform="translate(-1052.27 -1167.291)" fill="#76c5bd"/>
        <path id="Trazado_1234792" data-name="Trazado 1234792" d="M1157.381,1485.961s-15.129,11.5-21.437-7.509l.57-.293-.547.186-6.79-27.55a9.985,9.985,0,0,1,6.08-11.59,54.817,54.817,0,0,1-17.195-1.686,26.95,26.95,0,0,0-2.727,5.405c-.137.37-.265.747-.387,1.127-.02.062-.043.123-.063.185a126.734,126.734,0,0,0-5.257,26.835c-.008.09-.014.177-.022.266q-.261,3.057-.374,5.925c0,.088-.008.177-.011.265-.656,16.865,2.071,28.37,2.071,28.37l.316-.121,56.117-21.434,4.017-1.534.114-.043v-7.542Z" transform="translate(-923.907 -1196.996)" fill="#76c5bd"/>
        <path id="Trazado_1234793" data-name="Trazado 1234793" d="M1356.29,1372.4a.076.076,0,0,0,0-.009l.781-4.576h0Z" transform="translate(-1122.678 -1140.945)" fill="#e16c6a"/>
        <path id="Trazado_1234794" data-name="Trazado 1234794" d="M1318.808,1371.8a8.6,8.6,0,0,0,.422-1.327,15.407,15.407,0,0,1-8.51-5.682,38.683,38.683,0,0,0,1.42,6.734,4.745,4.745,0,0,1-1.8,5.555A8.581,8.581,0,0,0,1318.808,1371.8Z" transform="translate(-1085.729 -1138.51)" fill="#e16c6a"/>
        <path id="Trazado_1234795" data-name="Trazado 1234795" d="M1319.047,1354l.025.006.087-.508.782-4.584a16.162,16.162,0,0,1-9.824-4.605c.112,1.38.249,2.727.42,4.011A15.4,15.4,0,0,0,1319.047,1354Z" transform="translate(-1085.546 -1122.035)" fill="#d63331"/>
        <path id="Trazado_1234796" data-name="Trazado 1234796" d="M1318.3,1236.485h0c.2.02.4.055.608.068a16.245,16.245,0,0,0,15.967-9.976c-.144-.012-.293-.029-.457-.059l1.717-9.77.159,1.466.458-7.6a16.23,16.23,0,0,0-.335-4.336,14,14,0,0,1-2.315-1.773,7.041,7.041,0,0,1-2.737,4.353c-3.319,2.363-8.334,1.184-12.03-2.535a7.311,7.311,0,0,1-2.895,5.314c-2.127,1.514-4.951,1.571-7.679.441a7.124,7.124,0,0,1-.644,4.4c-.1,4.92-.05,10.4.356,15.4A16.156,16.156,0,0,0,1318.3,1236.485Zm11.254-7.9a4.136,4.136,0,0,1-1.023.116,4.04,4.04,0,0,1-3.571-2,.205.205,0,0,1,.349-.216,3.775,3.775,0,0,0,4.132,1.7.205.205,0,0,1,.113.4Zm2.162-12.491a1.11,1.11,0,1,1-1.11-1.11A1.11,1.11,0,0,1,1331.716,1216.094Zm-6.8,4.623a3.961,3.961,0,1,1-3.664-4.238A3.961,3.961,0,0,1,1324.915,1220.718Z" transform="translate(-1083.905 -1009.612)" fill="#e16c6a"/>
        <path id="Trazado_1234797" data-name="Trazado 1234797" d="M1442.61,1276.8c.164.03.313.047.457.059,2.472.212,2.108-2.019,2.108-2.019l-.688-6.344-.159-1.466Z" transform="translate(-1192.095 -1059.893)" fill="#e16c6a"/>
        <path id="Trazado_1234798" data-name="Trazado 1234798" d="M1398.649,1318.058a3.777,3.777,0,0,1-4.132-1.7.205.205,0,0,0-.349.216,4.04,4.04,0,0,0,3.571,2,4.143,4.143,0,0,0,1.023-.116.205.205,0,0,0-.113-.395Z" transform="translate(-1153.114 -1099.48)"/>
        <path id="Trazado_1234799" data-name="Trazado 1234799" d="M1210.439,1455.354l6.79,27.55.546-.186,17.428-8.966-5.341-23.063a9.982,9.982,0,0,0-8.225-7.5,44.75,44.75,0,0,1-5.119.574A9.983,9.983,0,0,0,1210.439,1455.354Z" transform="translate(-1005.17 -1201.557)" fill="#e16c6a"/>
        <path id="Trazado_1234800" data-name="Trazado 1234800" d="M1417.47,1259.134a1.11,1.11,0,1,0,1.11-1.11A1.11,1.11,0,0,0,1417.47,1259.134Z" transform="translate(-1171.877 -1052.65)"/>
        <path id="Trazado_1234801" data-name="Trazado 1234801" d="M1308.948,1242.239c-.169-.07-.337-.15-.505-.229-.057,1.457-.105,3.01-.138,4.628A7.133,7.133,0,0,0,1308.948,1242.239Z" transform="translate(-1084.088 -1039.773)" fill="#f08049"/>
        <path id="Trazado_1234802" data-name="Trazado 1234802" d="M1353.676,1269.281a3.961,3.961,0,1,0,4.238-3.664A3.96,3.96,0,0,0,1353.676,1269.281Z" transform="translate(-1120.567 -1058.748)" fill="#f4a282"/>
        <path id="Trazado_1234803" data-name="Trazado 1234803" d="M1526,1555.82l-.861.639,2.041.008c-.73-.395-1.179-.646-1.179-.646Z" transform="translate(-1258.467 -1292.133)" fill="#adb4c2"/>
        <path id="Trazado_1234804" data-name="Trazado 1234804" d="M1562.01,1533.219c1.275,1.1,2.344,2.061,3.239,2.9l25.877.1c.095,0,.184-.018.277-.027a2.808,2.808,0,0,1-2.513-3.446l.526-2.214-14.566-.056C1576.994,1532.168,1562.01,1533.219,1562.01,1533.219Z" transform="translate(-1288.114 -1271.752)" fill="#adb4c2"/>
        <path id="Trazado_1234805" data-name="Trazado 1234805" d="M1405.27,1532.5a2.833,2.833,0,0,0,2.372,2.8l10.868-5.591-8.562-.033-1.827-.007A2.841,2.841,0,0,0,1405.27,1532.5Z" transform="translate(-1162.066 -1271.107)" fill="#adb4c2"/>
        <path id="Trazado_1234806" data-name="Trazado 1234806" d="M1698.96,1322.923a2.808,2.808,0,0,0,2.513,3.446c.078.006.15.027.23.027a2.819,2.819,0,0,0,2.743-2.167l1.251-5.256,10.934-45.94a2.82,2.82,0,1,0-5.487-1.305l-10.184,42.791-1.474,6.191Z" transform="translate(-1398.183 -1061.928)" fill="#adb4c2"/>
        <path id="Trazado_1234807" data-name="Trazado 1234807" d="M1279.642,1523.636l-15.542,8-17.428,8.967-.57.293c6.309,19.008,21.438,7.509,21.438,7.509l14.474-10.739,18.731-13.9.861-.639-5.9-6.239c.136-.6.268-1.166.4-1.723l-5.6,2.881Z" transform="translate(-1034.067 -1259.438)" fill="#e16c6a"/>
        <path id="Trazado_1234808" data-name="Trazado 1234808" d="M1505.329,1465.579h0s.449.251,1.179.646c4.395,2.376,19.055,10,8.416.032-.9-.839-1.964-1.8-3.239-2.9,0,0,14.984-1.052,12.841-2.742-.841-.663-4.318-1.425-12.375-2.26,0,0,21.138-16.677,3.787-8.031l-8.492,3.863s-.686-25.954-7.615,3.43c-.131.556-.264,1.126-.4,1.723Z" transform="translate(-1237.791 -1201.891)" fill="#e16c6a"/>
        <path id="Trazado_1234809" data-name="Trazado 1234809" d="M1512.06,1162.03a16.1,16.1,0,0,1,.584,2.39A13.429,13.429,0,0,0,1512.06,1162.03Z" transform="translate(-1247.945 -975.454)" fill="#7d4e24"/>
        <path id="Trazado_1234810" data-name="Trazado 1234810" d="M1440.97,1179.338a10.852,10.852,0,0,1,.005,4.307,14.019,14.019,0,0,0,2.315,1.774,11.576,11.576,0,0,0,3.113,1.337,7.392,7.392,0,0,0,6.244-.918c2.166-1.542,3.146-4.26,2.925-7.272Z" transform="translate(-1190.776 -988.752)" fill="#7d4e24"/>
        <path id="Trazado_1234811" data-name="Trazado 1234811" d="M1362.736,1188.634c3.7,3.719,8.711,4.9,12.03,2.535a7.041,7.041,0,0,0,2.737-4.353,10.856,10.856,0,0,0-.005-4.307l-15.454.817A12.106,12.106,0,0,1,1362.736,1188.634Z" transform="translate(-1127.305 -991.922)" fill="#7d4e24"/>
        <path id="Trazado_1234812" data-name="Trazado 1234812" d="M1309.516,1197.745c2.728,1.13,5.552,1.073,7.679-.441a7.311,7.311,0,0,0,2.894-5.314,12.136,12.136,0,0,0-.692-5.309l-9.771.517s-.379,4.321-.615,10.318C1309.179,1197.6,1309.345,1197.674,1309.516,1197.745Z" transform="translate(-1084.657 -995.278)" fill="#7d4e24"/>
        <path id="Trazado_1234813" data-name="Trazado 1234813" d="M1156.828,1065.962c-.492-.058-.96-.094-1.438-.14-1.291-.124-2.55-.219-3.748-.26-.164-.006-.321,0-.483-.009l-.182,0c-13.715-.3-21.329,4.811-25.589,12.1-3.358,5.744-4.641,12.833-5.195,19.68-.735,9.1-6.041,15.91-9.641,21.988-2.4,4.056-4.046,7.787-3.057,11.648a10.649,10.649,0,0,0,1.27,2.945c.92,1.5,2.9,2.752,5.511,3.735.7.265,1.455.511,2.244.736a54.821,54.821,0,0,0,17.195,1.686,44.747,44.747,0,0,0,5.119-.574c3.413-.6,6.316-1.605,8.147-3.064a4.745,4.745,0,0,0,1.8-5.555,38.7,38.7,0,0,1-1.42-6.734c-.171-1.283-.308-2.63-.42-4.011-.406-5-.456-10.483-.356-15.4.033-1.618.081-3.171.138-4.628.236-6,.615-10.318.615-10.318l9.771-.517,15.454-.817,14.6-.772h0a8.329,8.329,0,0,0-.1-.849,16.1,16.1,0,0,0-.584-2.39,22.324,22.324,0,0,0-8.412-11.134C1173.572,1070.017,1166.864,1067.142,1156.828,1065.962Z" transform="translate(-922.366 -897.857)" fill="#7d4e24"/>
      </g>
    </g>
  </g>
</svg>
