<svg xmlns="http://www.w3.org/2000/svg" xmlns:xlink="http://www.w3.org/1999/xlink" width="98" height="98" viewBox="0 0 98 98">
  <defs>
    <filter id="Trazado_982547" x="0" y="0" width="98" height="98" filterUnits="userSpaceOnUse">
      <feOffset dy="3" input="SourceAlpha"/>
      <feGaussianBlur stdDeviation="3" result="blur"/>
      <feFlood flood-opacity="0.161"/>
      <feComposite operator="in" in2="blur"/>
      <feComposite in="SourceGraphic"/>
    </filter>
    <clipPath id="clip-path">
      <path id="path8121" d="M0-682.665H48.414v48.414H0Z" transform="translate(0 682.665)"/>
    </clipPath>
  </defs>
  <g id="Grupo_1230627" data-name="Grupo 1230627" transform="translate(9 6)">
    <g id="Grupo_1229885" data-name="Grupo 1229885" transform="translate(0)">
      <g id="Grupo_1208936" data-name="Grupo 1208936">
        <g id="Grupo_1208171" data-name="Grupo 1208171">
          <g id="Grupo_1207739" data-name="Grupo 1207739">
            <g id="Grupo_1207712" data-name="Grupo 1207712">
              <g id="Grupo_1207285" data-name="Grupo 1207285">
                <g id="Grupo_1206883" data-name="Grupo 1206883">
                  <g id="Grupo_1204569" data-name="Grupo 1204569">
                    <g id="Grupo_1203962" data-name="Grupo 1203962">
                      <g id="Grupo_1203498" data-name="Grupo 1203498">
                        <g id="Grupo_1202589" data-name="Grupo 1202589">
                          <g id="Grupo_1172010" data-name="Grupo 1172010">
                            <g id="Grupo_1171046" data-name="Grupo 1171046">
                              <g id="Grupo_1148525" data-name="Grupo 1148525">
                                <g transform="matrix(1, 0, 0, 1, -9, -6)" filter="url(#Trazado_982547)">
                                  <g id="Trazado_982547-2" data-name="Trazado 982547" transform="translate(9 6)" fill="#fdfbec">
                                    <path d="M 39.99999237060547 78.49998474121094 C 34.80186080932617 78.49998474121094 29.76002502441406 77.48226165771484 25.0145149230957 75.47508239746094 C 20.43014717102051 73.53604888916016 16.31264877319336 70.75984954833984 12.77639198303223 67.22359466552734 C 9.240137100219727 63.68733596801758 6.463936805725098 59.5698356628418 4.524903297424316 54.98546981811523 C 2.517725706100464 50.23995971679688 1.500003457069397 45.19812393188477 1.500003457069397 39.99999237060547 C 1.500003457069397 34.8018684387207 2.517725706100464 29.76002502441406 4.524903297424316 25.0145263671875 C 6.463936805725098 20.43014717102051 9.240137100219727 16.31264877319336 12.77639198303223 12.77639198303223 C 16.31264877319336 9.240137100219727 20.43014717102051 6.463936805725098 25.0145149230957 4.524903297424316 C 29.76002502441406 2.517725706100464 34.8018684387207 1.500003457069397 39.99999237060547 1.500003457069397 C 45.19811630249023 1.500003457069397 50.23995971679688 2.517725706100464 54.98546981811523 4.524903297424316 C 59.5698356628418 6.463936805725098 63.68733596801758 9.240137100219727 67.22359466552734 12.77639198303223 C 70.75984954833984 16.31264877319336 73.53604888916016 20.43014717102051 75.47508239746094 25.0145263671875 C 77.48226165771484 29.76002502441406 78.49998474121094 34.8018684387207 78.49998474121094 39.99999237060547 C 78.49998474121094 45.19812393188477 77.48226165771484 50.23995971679688 75.47508239746094 54.98546981811523 C 73.53604888916016 59.5698356628418 70.75984954833984 63.68733596801758 67.22359466552734 67.22359466552734 C 63.68733596801758 70.75984954833984 59.5698356628418 73.53604888916016 54.98546981811523 75.47508239746094 C 50.23995971679688 77.48226165771484 45.19812393188477 78.49998474121094 39.99999237060547 78.49998474121094 Z" stroke="none"/>
                                    <path d="M 39.99999237060547 2.999992370605469 C 35.00370025634766 2.999992370605469 30.1584587097168 3.97784423828125 25.59884643554688 5.906402587890625 C 21.19327163696289 7.769805908203125 17.23603057861328 10.43805694580078 13.83704376220703 13.83704376220703 C 10.43805694580078 17.23603057861328 7.769805908203125 21.19327163696289 5.906402587890625 25.59884643554688 C 3.97784423828125 30.1584587097168 2.999992370605469 35.00370025634766 2.999992370605469 39.99999237060547 C 2.999992370605469 44.99628448486328 3.97784423828125 49.84152603149414 5.906402587890625 54.40113830566406 C 7.769805908203125 58.80671310424805 10.43805694580078 62.76395416259766 13.83704376220703 66.16294097900391 C 17.23603057861328 69.56191253662109 21.19327163696289 72.23016357421875 25.59884643554688 74.09356689453125 C 30.1584587097168 76.02212524414062 35.00370025634766 76.99997711181641 39.99999237060547 76.99997711181641 C 44.99628448486328 76.99997711181641 49.84152603149414 76.02212524414062 54.40113830566406 74.09356689453125 C 58.80671310424805 72.23016357421875 62.76395416259766 69.56191253662109 66.16294097900391 66.16294097900391 C 69.56191253662109 62.76395416259766 72.23016357421875 58.80671310424805 74.09356689453125 54.40113830566406 C 76.02212524414062 49.84152603149414 76.99997711181641 44.99628448486328 76.99997711181641 39.99999237060547 C 76.99997711181641 35.00370025634766 76.02212524414062 30.1584587097168 74.09356689453125 25.59884643554688 C 72.23016357421875 21.19327163696289 69.56191253662109 17.23603057861328 66.16294097900391 13.83704376220703 C 62.76395416259766 10.43805694580078 58.80671310424805 7.769805908203125 54.40113830566406 5.906402587890625 C 49.84152603149414 3.97784423828125 44.99628448486328 2.999992370605469 39.99999237060547 2.999992370605469 M 39.99999237060547 -7.62939453125e-06 C 62.09137725830078 -7.62939453125e-06 79.99997711181641 17.90860748291016 79.99997711181641 39.99999237060547 C 79.99997711181641 62.09137725830078 62.09137725830078 79.99997711181641 39.99999237060547 79.99997711181641 C 17.90860748291016 79.99997711181641 -7.62939453125e-06 62.09137725830078 -7.62939453125e-06 39.99999237060547 C -7.62939453125e-06 17.90860748291016 17.90860748291016 -7.62939453125e-06 39.99999237060547 -7.62939453125e-06 Z" stroke="none" fill="#83793c"/>
                                  </g>
                                </g>
                              </g>
                            </g>
                          </g>
                        </g>
                      </g>
                    </g>
                  </g>
                </g>
              </g>
              <g id="g8115" transform="translate(15.793 15.793)">
                <g id="g8117">
                  <g id="g8119" clip-path="url(#clip-path)">
                    <g id="g8125" transform="translate(-33.259 0.709)">
                      <path id="path8127" d="M-338.457-377.826h-25.835v-25.108c5.31-7.679,37.755-5.416,25.835,25.108" transform="translate(364.292 406.667)" fill="#fbdf63"/>
                    </g>
                    <g id="g8129" transform="translate(-33.259 0.709)">
                      <path id="path8131" d="M-338.457-377.826h-.619c6.164-24.728-15.887-30.6-25.216-24.374v-.734c5.31-7.679,37.755-5.416,25.835,25.108" transform="translate(364.292 406.667)" fill="#f9d11f"/>
                    </g>
                  </g>
                </g>
                <g id="g8265">
                  <g id="g8267" clip-path="url(#clip-path)">
                    <g id="g8273" transform="translate(-33.259 51.036)">
                      <path id="path8275" d="M-338.457-377.654h-25.835v-25.1c5.31-7.676,37.755-5.413,25.835,25.1" transform="translate(364.292 406.481)" fill="#003343"/>
                    </g>
                    <g id="g8277" transform="translate(-33.259 51.036)">
                      <path id="path8279" d="M-338.457-377.654h-.619c6.164-24.717-15.887-30.585-25.216-24.362v-.734c5.31-7.676,37.755-5.413,25.835,25.1" transform="translate(364.292 406.481)" fill="#002439"/>
                    </g>
                  </g>
                </g>
                <g id="g8281">
                  <g id="g8283" clip-path="url(#clip-path)">
                    <g id="g8289" transform="translate(17.066 51.014)">
                      <path id="path8291" d="M-338.457-377.826h-25.835v-25.108c5.31-7.679,37.755-5.416,25.835,25.108" transform="translate(364.292 406.667)" fill="#ff7e50"/>
                    </g>
                    <g id="g8293" transform="translate(17.066 51.014)">
                      <path id="path8295" d="M-338.457-377.826h-.619c6.164-24.728-15.887-30.6-25.216-24.374v-.734c5.31-7.679,37.755-5.416,25.835,25.108" transform="translate(364.292 406.667)" fill="#ff6247"/>
                    </g>
                    <g id="g8297" transform="translate(2.941 54.225)">
                      <path id="path8299" d="M-233.028-131.751v15.573h-14.6c-12.2-25.649,14.6-34.273,14.6-15.573" transform="translate(250.816 141.808)" fill="#ffa68a"/>
                    </g>
                    <g id="g8301" transform="translate(2.941 54.225)">
                      <path id="path8303" d="M-233.028-131.751c-.9-16.1-20.23-9.82-14.176,15.573h-.427c-12.2-25.649,14.6-34.273,14.6-15.573" transform="translate(250.816 141.808)" fill="#ff7e50"/>
                    </g>
                  </g>
                </g>
              </g>
            </g>
          </g>
        </g>
      </g>
    </g>
    <g id="educacion-a-distancia_2_" data-name="educacion-a-distancia (2)" transform="translate(16.219 16.22)">
      <g id="Grupo_1231293" data-name="Grupo 1231293" transform="translate(0.977 0.697)">
        <path id="Trazado_1232290" data-name="Trazado 1232290" d="M50.122,375.466l-3.077,3.971-16.019-1.99-13.277,1.99H11.073a.557.557,0,0,1-.514-.773l1.34-3.2a7.922,7.922,0,0,1,5.822-4.72l6.667-1.271a1.951,1.951,0,0,0,1.586-1.916v-.929a7.344,7.344,0,0,0,10.075,0v.929a1.951,1.951,0,0,0,1.586,1.916l6.667,1.271a7.922,7.922,0,0,1,5.822,4.72Z" transform="translate(-10.515 -333.27)" fill="#e6edf4"/>
        <path id="Trazado_1232291" data-name="Trazado 1232291" d="M187,293.9v6.756c-2.424,3.85-8.132,4.13-10.075,0V293.9Z" transform="translate(-161.464 -267.296)" fill="#ffbc87"/>
        <path id="Trazado_1232292" data-name="Trazado 1232292" d="M204.03,390.3l-2.9,2.851a.279.279,0,0,1-.391,0l-2.9-2.851,3.094-2.129Z" transform="translate(-180.44 -352.809)" fill="#f99be3"/>
        <path id="Trazado_1232293" data-name="Trazado 1232293" d="M195,445.482l-3.863-2.792a.279.279,0,0,0-.324,0l-3.951,2.794,4.216,2.153Z" transform="translate(-170.483 -402.216)" fill="#ef89d7"/>
        <path id="Trazado_1232294" data-name="Trazado 1232294" d="M25.653,411.624a23.783,23.783,0,0,0-5.944-3.977.839.839,0,0,1-.381-1.153,8.822,8.822,0,0,1,5.452-4.319,1.833,1.833,0,0,1,1.252.111,68.705,68.705,0,0,1,12.757,7.91.372.372,0,0,0,.454,0A68.76,68.76,0,0,1,52,402.286a1.835,1.835,0,0,1,1.253-.111,8.82,8.82,0,0,1,5.451,4.319.838.838,0,0,1-.38,1.153l-3.374,3.977h-29.3Z" transform="translate(-18.419 -365.456)" fill="#85808e"/>
        <path id="Trazado_1232295" data-name="Trazado 1232295" d="M130,131.524v-6.207l-.98-.455H107.691l-.775.455v6.207Z" transform="translate(-97.961 -113.959)" fill="#d1a08f"/>
        <path id="Trazado_1232296" data-name="Trazado 1232296" d="M89.632,193.862h20.792a3.032,3.032,0,0,0,3.032-3.032v-1.085a1.621,1.621,0,0,0-1.621-1.621H88.221a1.621,1.621,0,0,0-1.621,1.621v1.085A3.032,3.032,0,0,0,89.632,193.862Z" transform="translate(-79.532 -171.346)" fill="#ffbc87"/>
        <path id="Trazado_1232297" data-name="Trazado 1232297" d="M138.969,74.776a12.916,12.916,0,0,0-7.517-9.182l-.016.007-.016-.007a12.916,12.916,0,0,0-7.517,9.182,2.838,2.838,0,0,1-2.7,2.2v3.375a7.222,7.222,0,0,0,2.285,5.273l3.443,3.225a6.54,6.54,0,0,0,4.484,1.772h.032a6.54,6.54,0,0,0,4.484-1.772l3.443-3.225a7.222,7.222,0,0,0,2.285-5.273V76.976a2.838,2.838,0,0,1-2.7-2.2Z" transform="translate(-110.925 -60.198)" fill="#fed2a5"/>
        <g id="Grupo_1231290" data-name="Grupo 1231290" transform="translate(2.518)">
          <path id="Trazado_1232298" data-name="Trazado 1232298" d="M106.915,29.9l.716,2.01-.716,1.776v5.491a22.617,22.617,0,0,1,10.511,2.346,2.205,2.205,0,0,0,2.059,0,21.608,21.608,0,0,1,8.236-2.252,4.47,4.47,0,0,1,1.719-.482l-.021-8.889Z" transform="translate(-100.479 -27.816)" fill="#767482"/>
          <path id="Trazado_1232299" data-name="Trazado 1232299" d="M130,29.9v9.277c-.8,0-1.556.034-2.275.093V35.16a1.476,1.476,0,0,0-1.476-1.476h-19.33V29.9Z" transform="translate(-100.481 -27.817)" fill="#656477"/>
          <path id="Trazado_1232300" data-name="Trazado 1232300" d="M72.385,7.624,68,7.5H38.537a.911.911,0,0,0-.911.911V9.954a.911.911,0,0,0,.911.911H67.824l4.662-.13a.911.911,0,0,0,.911-.911l-.1-1.29a.911.911,0,0,0-.911-.911Z" transform="translate(-37.626 -7.5)" fill="#85808e"/>
          <path id="Trazado_1232301" data-name="Trazado 1232301" d="M366.235,8.41V9.954a.91.91,0,0,1-.91.91H360.25a.91.91,0,0,0,.91-.91V8.41a.91.91,0,0,0-.91-.91h5.075A.91.91,0,0,1,366.235,8.41Z" transform="translate(-330.281 -7.5)" fill="#767482"/>
          <path id="Trazado_1232302" data-name="Trazado 1232302" d="M44.491,96.216a1.556,1.556,0,0,1,1.556,1.556v3.154a.227.227,0,0,1-.227.227H43.162a.228.228,0,0,1-.227-.227V97.772A1.556,1.556,0,0,1,44.491,96.216Z" transform="translate(-42.442 -87.975)" fill="#f7e07c"/>
        </g>
        <path id="Trazado_1232303" data-name="Trazado 1232303" d="M237.637,369.843l-3.414,2.785a.186.186,0,0,1-.269-.037l-2.8-3.962h0a7.327,7.327,0,0,0,5.035-2l1.386,1.008A1.393,1.393,0,0,1,237.637,369.843Z" transform="translate(-210.657 -333.269)" fill="#f5f8f9"/>
        <path id="Trazado_1232304" data-name="Trazado 1232304" d="M162.823,368.632l-2.8,3.962a.186.186,0,0,1-.269.037l-3.414-2.785a1.393,1.393,0,0,1,.061-2.206l1.386-1.008a7.327,7.327,0,0,0,5.035,2Z" transform="translate(-142.328 -333.271)" fill="#f5f8f9"/>
        <g id="Grupo_1231292" data-name="Grupo 1231292" transform="translate(27.173 27.453)">
          <path id="Trazado_1232305" data-name="Trazado 1232305" d="M321.381,306.288a9.311,9.311,0,0,0-3.526-1.545s-.094.191-.127.185a9.2,9.2,0,0,0-1.79-.226,16.257,16.257,0,0,0-2.669.42,1.423,1.423,0,0,1-.315-.086,9.381,9.381,0,0,0-4.746,3.6l-1.257,4.42.319,4.359a9.337,9.337,0,0,0,1.059,1.924c1.7,2.373,4.476,3.053,7.616,3.053,5.168,0,8.334-3.323,8.334-8.49C324.277,310.764,323.754,307.986,321.381,306.288Z" transform="translate(-306.587 -304.548)" fill="#90d1fc"/>
          <path id="Trazado_1232306" data-name="Trazado 1232306" d="M334.834,321.78a9.358,9.358,0,0,1-13.054,13.054,9.358,9.358,0,0,0,14.58.812c.246-.274-.027-.734.217-1.012,2.176-2.474,1.91-7.166,1.265-7.976-.13-.164.379-.385.305-.579A9.386,9.386,0,0,0,334.834,321.78Z" transform="translate(-320.04 -320.039)" fill="#66c1ff"/>
          <path id="Trazado_1232307" data-name="Trazado 1232307" d="M438.292,366.091a8.2,8.2,0,0,1-2.109,5.888l-.215-.777a1.539,1.539,0,0,0-1.416-.937,1.522,1.522,0,0,0-.352.041,5.612,5.612,0,0,1-.554.257,1.558,1.558,0,0,1-1.335-.725l-.09-.142a2.688,2.688,0,0,1-.149-2.606,1.279,1.279,0,0,1,1.151-.723,1.3,1.3,0,0,1,.283.032,1.061,1.061,0,0,0,1-1.767l-.364-.381a1.061,1.061,0,0,1,0-1.461,1.626,1.626,0,0,1,1.535-.471l.581.127,1.464.52A8.3,8.3,0,0,1,438.292,366.091Z" transform="translate(-419.844 -356.776)" fill="#beedb9"/>
          <path id="Trazado_1232308" data-name="Trazado 1232308" d="M456.551,367.743a9.354,9.354,0,0,0-.605-3.309l-1.695-.371a9.4,9.4,0,0,1-2.611,8.117c.228,0,.459-.089.687-.082a1.539,1.539,0,0,1,1.416.937l.414.965A9.35,9.35,0,0,0,456.551,367.743Z" transform="translate(-437.837 -358.395)" fill="#ace0a4"/>
          <g id="Grupo_1231291" data-name="Grupo 1231291">
            <path id="Trazado_1232309" data-name="Trazado 1232309" d="M308.429,352.578a1.213,1.213,0,0,1-.689,1.093l-.43.207a1.211,1.211,0,0,0-.672.89l-.026.153a1.212,1.212,0,0,1-1.254,1.008l-1.636-.06a9.373,9.373,0,0,1,.939-8.779l1.059,3.029a1.213,1.213,0,0,0,.626.7l1.392.663a1.212,1.212,0,0,1,.692,1.1Z" transform="translate(-303.04 -342.998)" fill="#beedb9"/>
            <path id="Trazado_1232310" data-name="Trazado 1232310" d="M369.813,435.6l-.77,1.207a1.264,1.264,0,0,1-1.064.584,1.267,1.267,0,0,1-1.145-.731l-.387-.835a1.262,1.262,0,0,1,.189-1.356l.235-.272a1.942,1.942,0,0,1,2.633-.289A1.264,1.264,0,0,1,369.813,435.6Z" transform="translate(-360.45 -421.402)" fill="#beedb9"/>
            <path id="Trazado_1232311" data-name="Trazado 1232311" d="M376.254,306.15a1.992,1.992,0,0,1-.767.753l-.147.08a1.308,1.308,0,0,0-.678,1.062,1.307,1.307,0,0,1-1.3,1.222h-.02a1.035,1.035,0,0,1-.935-.621l-.556-1.273a1.307,1.307,0,0,1,.1-1.234l.332-.514a1.308,1.308,0,0,0-.234-1.691l-.463-.408a9.3,9.3,0,0,1,1.629-.39,9.512,9.512,0,0,1,1.361-.1,9.379,9.379,0,0,1,1.911.2,3.426,3.426,0,0,1-.229,2.914Z" transform="translate(-365.215 -303.04)" fill="#beedb9"/>
          </g>
        </g>
      </g>
      <g id="Grupo_1231294" data-name="Grupo 1231294" transform="translate(0 0)">
        <path id="Trazado_1232312" data-name="Trazado 1232312" d="M212.1,230.11a3.147,3.147,0,0,0,2.849,0,.7.7,0,0,0-.633-1.242,1.75,1.75,0,0,1-1.584,0,.7.7,0,0,0-.633,1.242Z" transform="translate(-192.053 -207.539)"/>
        <path id="Trazado_1232313" data-name="Trazado 1232313" d="M202.279,270.33a5.162,5.162,0,0,0,4.674,0,.7.7,0,1,0-.632-1.241,3.765,3.765,0,0,1-3.409,0,.7.7,0,0,0-.633,1.241Z" transform="translate(-183.144 -244.024)"/>
        <path id="Trazado_1232314" data-name="Trazado 1232314" d="M169,184.47a3.481,3.481,0,0,0-3.909,0,.7.7,0,0,0,.763,1.166,2.1,2.1,0,0,1,2.384,0A.7.7,0,1,0,169,184.47Z" transform="translate(-149.465 -166.79)"/>
        <path id="Trazado_1232315" data-name="Trazado 1232315" d="M252.122,185.637a.7.7,0,0,0,.763-1.166,3.481,3.481,0,0,0-3.909,0,.7.7,0,1,0,.763,1.166A2.1,2.1,0,0,1,252.122,185.637Z" transform="translate(-225.561 -166.79)"/>
        <path id="Trazado_1232316" data-name="Trazado 1232316" d="M37.507,27.453a10.072,10.072,0,0,0-9.519,6.818l-.781-.568V29.373l1.322-1.238a.7.7,0,1,0-.953-1.017L25.513,29.05a5.911,5.911,0,0,1-8.082,0L13.963,25.8A6.584,6.584,0,0,1,11.88,21V18.22a3.6,3.6,0,0,0,2.7-2.677,14.36,14.36,0,0,1,.687-2.14q.444.1.879.211a.7.7,0,1,0,.354-1.348,25.925,25.925,0,0,0-5.954-.817V4.782H32.4v6.667a23.192,23.192,0,0,0-10.217,2.435,1.525,1.525,0,0,1-1.424,0c-.288-.152-.591-.3-.9-.44a.7.7,0,1,0-.575,1.269c.284.129.562.265.825.4a2.917,2.917,0,0,0,2.725,0A19.285,19.285,0,0,1,27.679,13.4a14.48,14.48,0,0,1,.688,2.142,3.6,3.6,0,0,0,2.7,2.677V21a6.584,6.584,0,0,1-1.285,3.9.7.7,0,1,0,1.122.826,8.03,8.03,0,0,0,.641-1.024q.162-.309.3-.632A3.76,3.76,0,0,0,35.7,20.323V19.231a2.333,2.333,0,0,0-1.9-2.289V4.782h4.869a1.616,1.616,0,0,0,1.614-1.614V1.614A1.616,1.616,0,0,0,38.664,0H4.281A1.616,1.616,0,0,0,2.667,1.614V3.168A1.616,1.616,0,0,0,4.281,4.782h.45V8.412a2.267,2.267,0,0,0-1.567,2.154v3.407a.7.7,0,0,0,.7.7H6.994a.7.7,0,0,0,.7-.7V10.565A2.267,2.267,0,0,0,6.124,8.412V4.782H9.15V16.942a2.333,2.333,0,0,0-1.9,2.289v1.093a3.76,3.76,0,0,0,3.856,3.751q.134.322.3.632a7.966,7.966,0,0,0,1.608,2.112l2.728,2.555V33.7l-1.189.865a1.99,1.99,0,0,0-.825,1.565,2.047,2.047,0,0,0,.011.273l-4.2.8q-.33-.159-.657-.31a2.53,2.53,0,0,0-1.728-.151A9.572,9.572,0,0,0,1.273,41.4a1.513,1.513,0,0,0-.109,1.2,1.542,1.542,0,0,0,.329.562L.055,46.595a.7.7,0,1,0,1.285.538L2.7,43.883a22.444,22.444,0,0,1,5.036,3.492.7.7,0,0,0,.948-1.021A24.282,24.282,0,0,0,2.569,42.26a.139.139,0,0,1-.071-.193,8.174,8.174,0,0,1,5.022-3.978,1.136,1.136,0,0,1,.776.07,57.549,57.549,0,0,1,5.156,2.736.7.7,0,1,0,.712-1.2q-1.3-.776-2.592-1.461l2.836-.541c.067.062,3.639,2.969,3.707,3.026a.7.7,0,0,0,.993-.116l.317-.413.964.948-1.9,1.342q-.751-.521-1.5-1.018a.7.7,0,1,0-.767,1.163c1.65,1.087,3.307,2.276,4.925,3.534a.7.7,0,0,0,.855,0,76.606,76.606,0,0,1,6.366-4.458A10.055,10.055,0,0,0,30.3,44.516a.7.7,0,1,0,1-.971,8.692,8.692,0,0,1-1.34-1.791c.071,0,.507.026.569.025a1.911,1.911,0,0,0,1.882-1.589l.026-.154a.517.517,0,0,1,.286-.379l.431-.206a1.91,1.91,0,0,0,0-3.446l-1.392-.663a.519.519,0,0,1-.266-.3l-.93-2.7a8.705,8.705,0,0,1,3.793-2.9l.185.163a.606.606,0,0,1,.108.78l-.33.511a1.992,1.992,0,0,0-.153,1.883l.553,1.265a1.731,1.731,0,0,0,1.558,1.035H36.3a2,2,0,0,0,1.992-1.866.6.6,0,0,1,.312-.49l.146-.08a2.659,2.659,0,0,0,1.033-1.014,4.082,4.082,0,0,0,.532-2.314,8.707,8.707,0,0,1,4.707,3.894l-.889-.2a2.335,2.335,0,0,0-2.193.673,1.757,1.757,0,0,0,.006,2.42l.364.381a.364.364,0,0,1-.344.607,1.966,1.966,0,0,0-2.217,1.067,3.364,3.364,0,0,0,.189,3.282l.09.141a2.258,2.258,0,0,0,2.419.99.842.842,0,0,1,.968.491l.231.543a8.659,8.659,0,0,1-9.861,1.722.7.7,0,1,0-.6,1.258,9.964,9.964,0,0,0,4.32.973,10.054,10.054,0,1,0,0-20.108ZM31.761,16.9h0a2.153,2.153,0,0,1-2.036-1.681,15.956,15.956,0,0,0-.647-2.081,25.713,25.713,0,0,1,3.325-.3V16.9Zm2.541,2.33v1.093a2.361,2.361,0,0,1-2.02,2.333A7.96,7.96,0,0,0,32.458,21v-2.7h.908a.937.937,0,0,1,.936.936Zm-28-8.666v2.71H4.557v-2.71a.87.87,0,0,1,1.741,0ZM4.281,3.389a.221.221,0,0,1-.221-.221V1.614a.221.221,0,0,1,.221-.221H38.664a.221.221,0,0,1,.221.221V3.168a.221.221,0,0,1-.221.221c-3.4,0-30.292,0-34.383,0ZM8.643,20.324V19.231a.937.937,0,0,1,.936-.936h.908V21a7.96,7.96,0,0,0,.176,1.657,2.361,2.361,0,0,1-2.02-2.333ZM11.186,16.9h-.643V12.843a25.662,25.662,0,0,1,3.325.3,15.824,15.824,0,0,0-.647,2.081A2.152,2.152,0,0,1,11.186,16.9ZM27.612,35.723a10.031,10.031,0,0,0-.13,1.036L24.5,39.188l-1.929-2.513a8,8,0,0,0,3.973-1.729S27.6,35.713,27.612,35.723Zm-10.48-5.114a7.3,7.3,0,0,0,8.682,0v3.138a6.653,6.653,0,0,1-8.682,0Zm1.308,8.58-3.1-2.527a.611.611,0,0,1,.027-.967l1.028-.748a8,8,0,0,0,3.973,1.729Zm1.84-.109,1.192-1.553,1.192,1.553-1.192,1.173Zm1.294,5.653q-.931-.714-1.876-1.4l1.77-1.251,1.857,1.342q-.879.637-1.751,1.3Zm2.951-2.157-1.976-1.428.971-.955.317.413a.7.7,0,0,0,.993.116l2.677-2.183a10.022,10.022,0,0,0,.361,1.837q-1.674,1.038-3.343,2.2ZM31.156,36.6l1.392.663a.516.516,0,0,1,0,.932l-.431.206a1.912,1.912,0,0,0-1.057,1.4l-.026.154a.515.515,0,0,1-.534.429l-1.185-.057a8.675,8.675,0,0,1,.311-6.412l.545,1.582a1.921,1.921,0,0,0,.985,1.1Zm7.419-5.663a1.267,1.267,0,0,1-.492.483l-.146.08A1.987,1.987,0,0,0,36.9,33.121a.6.6,0,0,1-.61.564.335.335,0,0,1-.3-.2l-.553-1.265a.6.6,0,0,1,.046-.569l.33-.511a2.01,2.01,0,0,0,.019-2.132,8.689,8.689,0,0,1,3.021-.058,2.692,2.692,0,0,1-.279,1.986Zm3.556,10.279a.864.864,0,0,1-.925-.379l-.09-.141a1.979,1.979,0,0,1-.111-1.931.579.579,0,0,1,.653-.315,1.758,1.758,0,0,0,1.661-2.927l-.364-.381a.364.364,0,0,1,0-.5.934.934,0,0,1,.878-.269l1.9.422a8.649,8.649,0,0,1-1.087,7.613A2.232,2.232,0,0,0,42.132,41.216Z" transform="translate(0 0)"/>
        <path id="Trazado_1232317" data-name="Trazado 1232317" d="M360.873,431.29a1.958,1.958,0,0,0,1.958-.882l.77-1.207a1.967,1.967,0,0,0-.479-2.623,2.648,2.648,0,0,0-3.579.391l-.235.272a1.963,1.963,0,0,0-.293,2.1l.387.834A1.956,1.956,0,0,0,360.873,431.29Zm-.51-3.139.235-.272a1.25,1.25,0,0,1,1.689-.185.568.568,0,0,1,.139.758l-.77,1.207a.566.566,0,0,1-.99-.066l-.387-.834A.567.567,0,0,1,360.363,428.151Z" transform="translate(-325.5 -386.479)"/>
      </g>
    </g>
  </g>
</svg>
