<svg xmlns="http://www.w3.org/2000/svg" xmlns:xlink="http://www.w3.org/1999/xlink" width="113" height="113" viewBox="0 0 113 113">
  <defs>
    <filter id="Trazado_982547" x="0" y="0" width="113" height="113" filterUnits="userSpaceOnUse">
      <feOffset dy="3" input="SourceAlpha"/>
      <feGaussianBlur stdDeviation="3" result="blur"/>
      <feFlood flood-opacity="0.161"/>
      <feComposite operator="in" in2="blur"/>
      <feComposite in="SourceGraphic"/>
    </filter>
  </defs>
  <g id="Grupo_1231308" data-name="Grupo 1231308" transform="translate(-273.727 -2608.215)">
    <g id="Grupo_1230629" data-name="Grupo 1230629" transform="translate(-838.273 1377.999)">
      <g id="Grupo_1209049" data-name="Grupo 1209049">
        <g id="Grupo_1208493" data-name="Grupo 1208493" transform="translate(0 -4397.209)">
          <g id="Grupo_1202104" data-name="Grupo 1202104" transform="translate(0 -1149.226)">
            <g id="Grupo_1201923" data-name="Grupo 1201923" transform="translate(-4174.49 4856.378)">
              <g id="Grupo_1176928" data-name="Grupo 1176928" transform="translate(5295.49 1926.273)">
                <g id="Grupo_1172322" data-name="Grupo 1172322" transform="translate(0 0)">
                  <g id="Grupo_1164700" data-name="Grupo 1164700">
                    <g id="Grupo_1160931" data-name="Grupo 1160931">
                      <g id="Grupo_1160749" data-name="Grupo 1160749">
                        <g id="Grupo_1158891" data-name="Grupo 1158891">
                          <g id="Grupo_1157406" data-name="Grupo 1157406">
                            <g id="Grupo_1155793" data-name="Grupo 1155793">
                              <g id="Grupo_1154704" data-name="Grupo 1154704">
                                <g id="Grupo_1150790" data-name="Grupo 1150790">
                                  <g id="Grupo_1154214" data-name="Grupo 1154214">
                                    <g id="Grupo_1152583" data-name="Grupo 1152583">
                                      <g id="Grupo_1146973" data-name="Grupo 1146973">
                                        <g id="Grupo_1146954" data-name="Grupo 1146954">
                                          <g transform="matrix(1, 0, 0, 1, -9, -6)" filter="url(#Trazado_982547)">
                                            <g id="Trazado_982547-2" data-name="Trazado 982547" transform="translate(9 6)" fill="#dce8fa">
                                              <path d="M 47.5000114440918 93.49987030029297 C 41.28938293457031 93.49987030029297 35.26534652709961 92.28384399414062 29.5951976776123 89.88558959960938 C 24.11773109436035 87.56881713867188 19.19814491271973 84.25183868408203 14.97310447692871 80.02680206298828 C 10.74805164337158 75.80176544189453 7.43107795715332 70.88218688964844 5.114304542541504 65.40472412109375 C 2.716038227081299 59.73458862304688 1.500011444091797 53.71054840087891 1.500011444091797 47.49993515014648 C 1.500011444091797 41.28932189941406 2.716038227081299 35.26528167724609 5.114304542541504 29.59514808654785 C 7.43107795715332 24.1176815032959 10.74805164337158 19.1981086730957 14.97310447692871 14.97306823730469 C 19.19814491271973 10.74802875518799 24.11773109436035 7.431055068969727 29.5951976776123 5.11428165435791 C 35.26534652709961 2.716028451919556 41.28938293457031 1.500001788139343 47.5000114440918 1.500001788139343 C 53.71063995361328 1.500001788139343 59.73467636108398 2.716028451919556 65.40482330322266 5.11428165435791 C 70.88229370117188 7.431055068969727 75.8018798828125 10.74802875518799 80.02691650390625 14.97306823730469 C 84.25196838378906 19.1981086730957 87.56894683837891 24.1176815032959 89.88571929931641 29.59514808654785 C 92.28398132324219 35.26528167724609 93.50001525878906 41.28932189941406 93.50001525878906 47.49993515014648 C 93.50001525878906 53.71054840087891 92.28398132324219 59.73458862304688 89.88571929931641 65.40472412109375 C 87.56894683837891 70.88218688964844 84.25196838378906 75.80176544189453 80.02691650390625 80.02680206298828 C 75.8018798828125 84.25183868408203 70.88229370117188 87.56881713867188 65.40482330322266 89.88558959960938 C 59.73467636108398 92.28384399414062 53.71063995361328 93.49987030029297 47.5000114440918 93.49987030029297 Z" stroke="none"/>
                                              <path d="M 47.5000114440918 3 C 41.49122619628906 3 35.66378021240234 4.1761474609375 30.17951965332031 6.495796203613281 C 24.880859375 8.7369384765625 20.12153625488281 11.94596862792969 16.03376770019531 16.03373718261719 C 11.94598388671875 20.12149047851562 8.736968994140625 24.88081359863281 6.495811462402344 30.17947387695312 C 4.176162719726562 35.66371917724609 3.000007629394531 41.49116516113281 3.000007629394531 47.49993515014648 C 3.000007629394531 53.50870513916016 4.176162719726562 59.33615112304688 6.495811462402344 64.82039642333984 C 8.736968994140625 70.11905670166016 11.94598388671875 74.87837982177734 16.03376770019531 78.96613311767578 C 20.12153625488281 83.05390167236328 24.880859375 86.26293182373047 30.17951965332031 88.50407409667969 C 35.66378021240234 90.82372283935547 41.49122619628906 91.99987030029297 47.5000114440918 91.99987030029297 C 53.50879669189453 91.99987030029297 59.33624267578125 90.82372283935547 64.82050323486328 88.50407409667969 C 70.11916351318359 86.26293182373047 74.87848663330078 83.05390167236328 78.96625518798828 78.96613311767578 C 83.05403900146484 74.87837982177734 86.2630615234375 70.11905670166016 88.50421142578125 64.82039642333984 C 90.82386016845703 59.33615112304688 92.00001525878906 53.50870513916016 92.00001525878906 47.49993515014648 C 92.00001525878906 41.49116516113281 90.82386016845703 35.66371917724609 88.50421142578125 30.17947387695312 C 86.2630615234375 24.88081359863281 83.05403900146484 20.12149047851562 78.96625518798828 16.03373718261719 C 74.87848663330078 11.94596862792969 70.11916351318359 8.7369384765625 64.82050323486328 6.495796203613281 C 59.33624267578125 4.1761474609375 53.50879669189453 3 47.5000114440918 3 M 47.5000114440918 0 C 73.73353576660156 0 95.00001525878906 21.26644134521484 95.00001525878906 47.49993515014648 C 95.00001525878906 73.73342895507812 73.73353576660156 94.99987030029297 47.5000114440918 94.99987030029297 C 21.26648712158203 94.99987030029297 7.62939453125e-06 73.73342895507812 7.62939453125e-06 47.49993515014648 C 7.62939453125e-06 21.26644134521484 21.26648712158203 0 47.5000114440918 0 Z" stroke="none" fill="#5692e8"/>
                                            </g>
                                          </g>
                                        </g>
                                      </g>
                                    </g>
                                  </g>
                                </g>
                              </g>
                            </g>
                          </g>
                        </g>
                      </g>
                    </g>
                  </g>
                </g>
              </g>
            </g>
          </g>
        </g>
      </g>
    </g>
    <g id="idea_5_" data-name="idea (5)" transform="translate(294.561 2630.959)">
      <g id="Grupo_1231306" data-name="Grupo 1231306" transform="translate(13.681 0.908)">
        <g id="Grupo_1231304" data-name="Grupo 1231304">
          <g id="Grupo_1231302" data-name="Grupo 1231302" transform="translate(12.327)">
            <g id="Grupo_1231299" data-name="Grupo 1231299">
              <g id="Grupo_1231295" data-name="Grupo 1231295" transform="translate(13.807)">
                <path id="Trazado_1232318" data-name="Trazado 1232318" d="M319.178,19.722l-.157-3.11-3.1-.392a8.3,8.3,0,0,0-1-2.1l1.653-2.633L314.247,9.4l-2.472,1.9a8.429,8.429,0,0,0-2.2-.78L308.866,7.5l-3.133.159-.4,3.075a8.426,8.426,0,0,0-2.114,1l-2.651-1.639-2.1,2.311,1.91,2.453a8.3,8.3,0,0,0-.787,2.189l-3.042.7.157,3.11,3.1.392a8.3,8.3,0,0,0,1,2.1l-1.653,2.633,2.327,2.087,2.472-1.9a8.43,8.43,0,0,0,2.2.78l.705,3.019,3.133-.158.4-3.075a8.427,8.427,0,0,0,2.114-1l2.651,1.639,2.1-2.311-1.91-2.453a8.3,8.3,0,0,0,.787-2.189Zm-11.1,3.332a4.325,4.325,0,1,1,4.133-4.539A4.341,4.341,0,0,1,308.081,23.054Z" transform="translate(-296.548 -7.5)" fill="#7974e3"/>
              </g>
              <g id="Grupo_1231298" data-name="Grupo 1231298" transform="translate(0 7.455)">
                <g id="Grupo_1231297" data-name="Grupo 1231297">
                  <path id="Trazado_1232319" data-name="Trazado 1232319" d="M182.511,95.463l19.638,8.61,8.744-19.943-3.61-9.267-13.2-5.789Z" transform="translate(-182.511 -69.075)" fill="#f0f0ff"/>
                  <g id="Grupo_1231296" data-name="Grupo 1231296" transform="translate(15.576 9.228)">
                    <path id="Trazado_1232320" data-name="Trazado 1232320" d="M319.122,151.12l-7.963,18.162,4.062,1.781,8.744-19.943-2.27-5.827Z" transform="translate(-311.159 -145.293)" fill="#e8e8ff"/>
                  </g>
                  <path id="Trazado_1232321" data-name="Trazado 1232321" d="M366.531,116.886l-2.836,6.42,6.445,2.847Z" transform="translate(-341.758 -111.097)" fill="#cfcfff"/>
                </g>
              </g>
            </g>
            <g id="Grupo_1231301" data-name="Grupo 1231301" transform="translate(18.629 27.65)">
              <g id="Grupo_1231300" data-name="Grupo 1231300">
                <path id="Trazado_1232322" data-name="Trazado 1232322" d="M336.372,269.387h15.521v15.472H336.372Z" transform="translate(-336.372 -265.329)" fill="#96e1ff"/>
                <path id="Trazado_1232323" data-name="Trazado 1232323" d="M468.385,251.341l-3.817,4.058V239.927l3.817-4.058Z" transform="translate(-449.047 -235.869)" fill="#fdf486"/>
                <path id="Trazado_1232324" data-name="Trazado 1232324" d="M351.893,239.927H336.372l3.817-4.058H355.71Z" transform="translate(-336.372 -235.869)" fill="#fd6dc3"/>
              </g>
            </g>
            <path id="Trazado_1232325" data-name="Trazado 1232325" d="M276.354,366.1l1.793-1.8-1.456-2.086a6.762,6.762,0,0,0,.719-1.754l2.494-.44-.01-2.547-2.5-.456a6.868,6.868,0,0,0-.733-1.758l1.439-2.076-1.808-1.807-2.075,1.441a6.865,6.865,0,0,0-1.759-.732L272,349.6l-2.547-.008-.438,2.495a6.762,6.762,0,0,0-1.753.721l-2.087-1.454-1.793,1.8,1.456,2.086a6.762,6.762,0,0,0-.719,1.754l-2.494.44.01,2.547,2.5.456a6.866,6.866,0,0,0,.733,1.758l-1.439,2.076,1.808,1.807,2.075-1.441a6.867,6.867,0,0,0,1.759.732l.458,2.5,2.547.008.438-2.495a6.761,6.761,0,0,0,1.753-.721Zm-7.842-5.121a3.2,3.2,0,1,1,4.539.014A3.21,3.21,0,0,1,268.512,360.982Z" transform="translate(-252.047 -308.17)" fill="#7974e3"/>
          </g>
          <g id="Grupo_1231303" data-name="Grupo 1231303" transform="translate(0 6.085)">
            <path id="Trazado_1232326" data-name="Trazado 1232326" d="M99.159,57.759c-.148,0-.3,0-.446,0a18.545,18.545,0,0,0-8.269,34.862v3.113a2.3,2.3,0,0,0,2.293,2.3h6.421Z" transform="translate(-80.698 -57.759)" fill="#fdf486"/>
            <path id="Trazado_1232327" data-name="Trazado 1232327" d="M186.559,390.46h-6.421v5.078a4.13,4.13,0,0,0,4.13,4.13h2.291Z" transform="translate(-168.098 -350.178)" fill="#cfcfff"/>
          </g>
        </g>
        <g id="Grupo_1231305" data-name="Grupo 1231305" transform="translate(32.81 43.215)">
          <path id="Trazado_1232328" data-name="Trazado 1232328" d="M356.568,373.51l2.494-.44-.01-2.547-2.5-.456a6.868,6.868,0,0,0-.733-1.758l1.439-2.076-1.808-1.807-2.075,1.441a6.861,6.861,0,0,0-1.688-.712,8.834,8.834,0,0,1,.759,13.007,6.727,6.727,0,0,0,.978-.472l2.087,1.454,1.793-1.8-1.456-2.086A6.759,6.759,0,0,0,356.568,373.51Z" transform="translate(-351.688 -364.426)" fill="#6b64e8"/>
        </g>
      </g>
      <g id="Grupo_1231307" data-name="Grupo 1231307" transform="translate(4.449 0)">
        <path id="Trazado_1232329" data-name="Trazado 1232329" d="M125.306,28.513a.918.918,0,0,0-.9-.863H113.953l1.7-3.867a.92.92,0,0,0,.015-.694l-.868-2.228a9.334,9.334,0,0,0,1.4-.649l2.176,1.346a.911.911,0,0,0,1.149-.161l2.1-2.311a.908.908,0,0,0,.045-1.169l-1.563-2.006a9.208,9.208,0,0,0,.474-1.319l2.5-.576a.908.908,0,0,0,.7-.931l-.157-3.11a.908.908,0,0,0-.793-.855L120.288,8.8a9.2,9.2,0,0,0-.6-1.264l1.352-2.154a.908.908,0,0,0-.163-1.159l-2.326-2.087a.908.908,0,0,0-1.16-.044l-2.029,1.558a9.335,9.335,0,0,0-1.337-.474L113.444.7a.907.907,0,0,0-.93-.7L109.381.16a.908.908,0,0,0-.855.791L108.2,3.468a9.326,9.326,0,0,0-1.282.606l-2.176-1.346a.908.908,0,0,0-1.149.161l-2.1,2.311a.908.908,0,0,0-.045,1.169l1.562,2.006a9.228,9.228,0,0,0-.384,1.02L98.369,7.532a.908.908,0,0,0-1.2.467l-3.61,8.234V2.127a.908.908,0,0,0-1.816,0V6.1a19.382,19.382,0,0,0-15.41,8.852.908.908,0,0,0,1.523.99A17.568,17.568,0,0,1,91.746,7.922V46.367h-5.6a1.391,1.391,0,0,1-1.385-1.394V41.86a.908.908,0,0,0-.478-.8A17.64,17.64,0,0,1,75.81,20.3a.908.908,0,0,0-1.734-.541,19.457,19.457,0,0,0,8.87,22.636v2.58a3.214,3.214,0,0,0,2.293,3.078v4.3a5.044,5.044,0,0,0,5.038,5.038h1.469V60.6a.908.908,0,0,0,1.816,0V38.868l9.253,4.057-.208,1.186a7.67,7.67,0,0,0-.893.367l-1.631-1.136a.908.908,0,0,0-1.161.1l-1.793,1.8a.908.908,0,0,0-.1,1.162l1.138,1.629a7.675,7.675,0,0,0-.367.893l-1.942.343a.908.908,0,0,0-.75.9l.01,2.547a.908.908,0,0,0,.745.89l1.953.357a7.768,7.768,0,0,0,.377.905L97.07,56.482a.908.908,0,0,0,.1,1.16l1.808,1.807a.908.908,0,0,0,1.16.1l1.617-1.123a7.776,7.776,0,0,0,.906.376l.358,1.953a.908.908,0,0,0,.89.744l2.547.008h0a.908.908,0,0,0,.894-.751l.341-1.942a7.665,7.665,0,0,0,.893-.367l1.63,1.136a.907.907,0,0,0,1.161-.1l1.793-1.8a.908.908,0,0,0,.1-1.162L112.142,54.9a7.676,7.676,0,0,0,.367-.893l1.942-.343a.908.908,0,0,0,.75-.9l-.01-2.547a.908.908,0,0,0-.745-.89l-1.836-.335c2.6-.012,5.238-.012,7.8-.012a.926.926,0,0,0,.833-.27l3.817-4.058a.909.909,0,0,0,.247-.622V28.558C125.309,28.543,125.307,28.528,125.306,28.513Zm-3.005.953-2.069,2.2H107.2l2.069-2.2ZM112.053,13.822a.925.925,0,0,0-.482-.5l-3.447-1.511a3.446,3.446,0,1,1,4.535,3.571Zm-.9,2.7.981,2.518,1.037,2.663-3.6-1.592Zm-6.367-8.812-1.44-1.849,1.081-1.188,2.009,1.243a.908.908,0,0,0,.975-.013,7.516,7.516,0,0,1,1.886-.891.908.908,0,0,0,.631-.751l.3-2.323,1.618-.082.532,2.281a.908.908,0,0,0,.7.683,7.514,7.514,0,0,1,1.967.7.908.908,0,0,0,.971-.086L117.9,3.989l1.2,1.073-1.246,1.985a.908.908,0,0,0,.013.985,7.4,7.4,0,0,1,.894,1.869.908.908,0,0,0,.752.628l2.343.3.08,1.591-2.3.531a.908.908,0,0,0-.685.7,7.387,7.387,0,0,1-.7,1.949.908.908,0,0,0,.087.982l1.44,1.849-1.082,1.188-2.009-1.243a.908.908,0,0,0-.975.013,7.52,7.52,0,0,1-1.565.782l-.816-2.1a5.238,5.238,0,1,0-6.911-6.017l-2.111-.926a7.417,7.417,0,0,1,.577-1.442.908.908,0,0,0-.087-.982ZM90.277,55.574a3.225,3.225,0,0,1-3.222-3.222v-4.17h4.691v7.391Zm3.286-34.818,4.909-11.2,11.537,5.058L107.541,20.2A.908.908,0,0,0,108,21.4l5.617,2.481L111.97,27.65h-3.09a.908.908,0,0,0-.661.286L104.4,31.994a1.668,1.668,0,0,0-.262,1.016v8.409H103.9L93.563,36.886Zm19.819,31.25-1.741.307a.908.908,0,0,0-.722.67A5.851,5.851,0,0,1,110.3,54.5a.908.908,0,0,0,.039.979l1.021,1.462-.718.719-1.463-1.019a.908.908,0,0,0-.979-.038,5.854,5.854,0,0,1-1.518.624.908.908,0,0,0-.67.723l-.306,1.741-1.028,0-.322-1.756a.908.908,0,0,0-.664-.715,5.963,5.963,0,0,1-1.526-.635.908.908,0,0,0-.98.036l-1.452,1.008-.735-.734L100,55.441a.908.908,0,0,0,.035-.98,5.968,5.968,0,0,1-.636-1.526.908.908,0,0,0-.715-.663l-1.756-.321,0-1.028,1.741-.307a.908.908,0,0,0,.722-.67,5.852,5.852,0,0,1,.623-1.518.908.908,0,0,0-.039-.979l-1.021-1.462.718-.719,1.463,1.019a.907.907,0,0,0,.979.038,5.86,5.86,0,0,1,1.518-.624.908.908,0,0,0,.67-.723l.306-1.741,1.028,0L105.954,45a.908.908,0,0,0,.664.715,5.959,5.959,0,0,1,1.526.635.908.908,0,0,0,.98-.036l1.452-1.008.735.734L110.3,47.489a.908.908,0,0,0-.035.98,5.968,5.968,0,0,1,.636,1.526.908.908,0,0,0,.715.663l1.756.321Zm8.114-6.211c0-.894,0-3.1,0-3.1a.908.908,0,0,0-1.816,0v4.472c-2.293,0-4.633,0-6.946.012l.505-.729a.908.908,0,0,0-.1-1.16l-1.808-1.807a.908.908,0,0,0-1.16-.1L108.546,44.5a7.777,7.777,0,0,0-.906-.376l-.358-1.953a1.079,1.079,0,0,0-1.314-.746c-.015-1.009.094-6.282,0-7.9h13.708V37.95a.908.908,0,0,0,1.816,0s0-3.414,0-4.977l2-2.124V43.67Z" transform="translate(-64.876 0)" fill="#060606"/>
        <path id="Trazado_1232330" data-name="Trazado 1232330" d="M307.265,390.994h-.013a4.09,4.09,0,0,0-4.094,4.111,4.146,4.146,0,0,0,4.128,4.124h.013a4.09,4.09,0,0,0,4.094-4.111,4.146,4.146,0,0,0-4.128-4.124Zm1.647,5.753a2.246,2.246,0,0,1-1.621.667,2.33,2.33,0,0,1-2.318-2.316,2.274,2.274,0,0,1,2.286-2.288,2.33,2.33,0,0,1,2.318,2.316A2.264,2.264,0,0,1,308.912,396.747Z" transform="translate(-266.992 -343.655)" fill="#060606"/>
        <path id="Trazado_1232331" data-name="Trazado 1232331" d="M72.607,50.643a.93.93,0,0,0,.642-1.55l-3.1-3.1a.908.908,0,0,0-1.284,1.284l3.1,3.1A.905.905,0,0,0,72.607,50.643Z" transform="translate(-60.833 -40.191)" fill="#060606"/>
        <path id="Trazado_1232332" data-name="Trazado 1232332" d="M9.709,204.487H5.33a.908.908,0,0,0,0,1.816H9.709A.908.908,0,0,0,9.709,204.487Z" transform="translate(-4.449 -179.729)" fill="#060606"/>
        <path id="Trazado_1232333" data-name="Trazado 1232333" d="M74.253,336.947l-3.1,3.1a.908.908,0,0,0,1.284,1.284l3.1-3.1A.908.908,0,0,0,74.253,336.947Z" transform="translate(-62.844 -295.915)" fill="#060606"/>
      </g>
    </g>
  </g>
</svg>
