<svg xmlns="http://www.w3.org/2000/svg" xmlns:xlink="http://www.w3.org/1999/xlink" width="113" height="113" viewBox="0 0 113 113">
  <defs>
    <filter id="Trazado_982547" x="0" y="0" width="113" height="113" filterUnits="userSpaceOnUse">
      <feOffset dy="3" input="SourceAlpha"/>
      <feGaussianBlur stdDeviation="3" result="blur"/>
      <feFlood flood-opacity="0.161"/>
      <feComposite operator="in" in2="blur"/>
      <feComposite in="SourceGraphic"/>
    </filter>
  </defs>
  <g id="Grupo_1231336" data-name="Grupo 1231336" transform="translate(-902 -2608.215)">
    <g id="Grupo_1230631" data-name="Grupo 1230631" transform="translate(-210 1377.999)">
      <g id="Grupo_1209049" data-name="Grupo 1209049">
        <g id="Grupo_1208493" data-name="Grupo 1208493" transform="translate(0 -4397.209)">
          <g id="Grupo_1202104" data-name="Grupo 1202104" transform="translate(0 -1149.226)">
            <g id="Grupo_1201923" data-name="Grupo 1201923" transform="translate(-4174.49 4856.378)">
              <g id="Grupo_1176928" data-name="Grupo 1176928" transform="translate(5295.49 1926.273)">
                <g id="Grupo_1172322" data-name="Grupo 1172322" transform="translate(0 0)">
                  <g id="Grupo_1164700" data-name="Grupo 1164700">
                    <g id="Grupo_1160931" data-name="Grupo 1160931">
                      <g id="Grupo_1160749" data-name="Grupo 1160749">
                        <g id="Grupo_1158891" data-name="Grupo 1158891">
                          <g id="Grupo_1157406" data-name="Grupo 1157406">
                            <g id="Grupo_1155793" data-name="Grupo 1155793">
                              <g id="Grupo_1154704" data-name="Grupo 1154704">
                                <g id="Grupo_1150790" data-name="Grupo 1150790">
                                  <g id="Grupo_1154214" data-name="Grupo 1154214">
                                    <g id="Grupo_1152583" data-name="Grupo 1152583">
                                      <g id="Grupo_1146973" data-name="Grupo 1146973">
                                        <g id="Grupo_1146954" data-name="Grupo 1146954">
                                          <g transform="matrix(1, 0, 0, 1, -9, -6)" filter="url(#Trazado_982547)">
                                            <g id="Trazado_982547-2" data-name="Trazado 982547" transform="translate(9 6)" fill="#dce8fa">
                                              <path d="M 47.5000114440918 93.49987030029297 C 41.28938293457031 93.49987030029297 35.26534652709961 92.28384399414062 29.5951976776123 89.88558959960938 C 24.11773109436035 87.56881713867188 19.19814491271973 84.25183868408203 14.97310447692871 80.02680206298828 C 10.74805164337158 75.80176544189453 7.43107795715332 70.88218688964844 5.114304542541504 65.40472412109375 C 2.716038227081299 59.73458862304688 1.500011444091797 53.71054840087891 1.500011444091797 47.49993515014648 C 1.500011444091797 41.28932189941406 2.716038227081299 35.26528167724609 5.114304542541504 29.59514808654785 C 7.43107795715332 24.1176815032959 10.74805164337158 19.1981086730957 14.97310447692871 14.97306823730469 C 19.19814491271973 10.74802875518799 24.11773109436035 7.431055068969727 29.5951976776123 5.11428165435791 C 35.26534652709961 2.716028451919556 41.28938293457031 1.500001788139343 47.5000114440918 1.500001788139343 C 53.71063995361328 1.500001788139343 59.73467636108398 2.716028451919556 65.40482330322266 5.11428165435791 C 70.88229370117188 7.431055068969727 75.8018798828125 10.74802875518799 80.02691650390625 14.97306823730469 C 84.25196838378906 19.1981086730957 87.56894683837891 24.1176815032959 89.88571929931641 29.59514808654785 C 92.28398132324219 35.26528167724609 93.50001525878906 41.28932189941406 93.50001525878906 47.49993515014648 C 93.50001525878906 53.71054840087891 92.28398132324219 59.73458862304688 89.88571929931641 65.40472412109375 C 87.56894683837891 70.88218688964844 84.25196838378906 75.80176544189453 80.02691650390625 80.02680206298828 C 75.8018798828125 84.25183868408203 70.88229370117188 87.56881713867188 65.40482330322266 89.88558959960938 C 59.73467636108398 92.28384399414062 53.71063995361328 93.49987030029297 47.5000114440918 93.49987030029297 Z" stroke="none"/>
                                              <path d="M 47.5000114440918 3 C 41.49122619628906 3 35.66378021240234 4.1761474609375 30.17951965332031 6.495796203613281 C 24.880859375 8.7369384765625 20.12153625488281 11.94596862792969 16.03376770019531 16.03373718261719 C 11.94598388671875 20.12149047851562 8.736968994140625 24.88081359863281 6.495811462402344 30.17947387695312 C 4.176162719726562 35.66371917724609 3.000007629394531 41.49116516113281 3.000007629394531 47.49993515014648 C 3.000007629394531 53.50870513916016 4.176162719726562 59.33615112304688 6.495811462402344 64.82039642333984 C 8.736968994140625 70.11905670166016 11.94598388671875 74.87837982177734 16.03376770019531 78.96613311767578 C 20.12153625488281 83.05390167236328 24.880859375 86.26293182373047 30.17951965332031 88.50407409667969 C 35.66378021240234 90.82372283935547 41.49122619628906 91.99987030029297 47.5000114440918 91.99987030029297 C 53.50879669189453 91.99987030029297 59.33624267578125 90.82372283935547 64.82050323486328 88.50407409667969 C 70.11916351318359 86.26293182373047 74.87848663330078 83.05390167236328 78.96625518798828 78.96613311767578 C 83.05403900146484 74.87837982177734 86.2630615234375 70.11905670166016 88.50421142578125 64.82039642333984 C 90.82386016845703 59.33615112304688 92.00001525878906 53.50870513916016 92.00001525878906 47.49993515014648 C 92.00001525878906 41.49116516113281 90.82386016845703 35.66371917724609 88.50421142578125 30.17947387695312 C 86.2630615234375 24.88081359863281 83.05403900146484 20.12149047851562 78.96625518798828 16.03373718261719 C 74.87848663330078 11.94596862792969 70.11916351318359 8.7369384765625 64.82050323486328 6.495796203613281 C 59.33624267578125 4.1761474609375 53.50879669189453 3 47.5000114440918 3 M 47.5000114440918 0 C 73.73353576660156 0 95.00001525878906 21.26644134521484 95.00001525878906 47.49993515014648 C 95.00001525878906 73.73342895507812 73.73353576660156 94.99987030029297 47.5000114440918 94.99987030029297 C 21.26648712158203 94.99987030029297 7.62939453125e-06 73.73342895507812 7.62939453125e-06 47.49993515014648 C 7.62939453125e-06 21.26644134521484 21.26648712158203 0 47.5000114440918 0 Z" stroke="none" fill="#5692e8"/>
                                            </g>
                                          </g>
                                        </g>
                                      </g>
                                    </g>
                                  </g>
                                </g>
                              </g>
                            </g>
                          </g>
                        </g>
                      </g>
                    </g>
                  </g>
                </g>
              </g>
            </g>
          </g>
        </g>
      </g>
    </g>
    <g id="tecnologia_5_" data-name="tecnologia (5)" transform="translate(931.642 2634.857)">
      <g id="Grupo_1231334" data-name="Grupo 1231334" transform="translate(0.866 0.866)">
        <g id="Grupo_1231323" data-name="Grupo 1231323" transform="translate(35.521)">
          <path id="Trazado_1232367" data-name="Trazado 1232367" d="M50.664,1V7.931H42V1Z" transform="translate(-42 -1)" fill="#f0d0b4"/>
        </g>
        <g id="Grupo_1231324" data-name="Grupo 1231324" transform="translate(7.797)">
          <path id="Trazado_1232368" data-name="Trazado 1232368" d="M18.664,1V7.931H10V1Z" transform="translate(-10 -1)" fill="#f0d0b4"/>
        </g>
        <g id="Grupo_1231325" data-name="Grupo 1231325" transform="translate(21.659)">
          <path id="Trazado_1232369" data-name="Trazado 1232369" d="M34.664,1V7.931H26V1Z" transform="translate(-26 -1)" fill="#f0d0b4"/>
        </g>
        <g id="Grupo_1231326" data-name="Grupo 1231326" transform="translate(3.466 12.129)">
          <path id="Trazado_1232370" data-name="Trazado 1232370" d="M50.052,47.922H5V18.466A3.466,3.466,0,0,1,8.466,15H46.586a3.466,3.466,0,0,1,3.466,3.466Z" transform="translate(-5 -15)" fill="#ccd1d9"/>
        </g>
        <g id="Grupo_1231327" data-name="Grupo 1231327" transform="translate(6.931 15.595)">
          <path id="Trazado_1232371" data-name="Trazado 1232371" d="M46.254,44.991H9.866A.867.867,0,0,1,9,44.125V19.866A.867.867,0,0,1,9.866,19H46.254a.867.867,0,0,1,.866.866V44.125A.867.867,0,0,1,46.254,44.991Z" transform="translate(-9 -19)" fill="#69d6f4"/>
        </g>
        <g id="Grupo_1231328" data-name="Grupo 1231328" transform="translate(0 45.052)">
          <path id="Trazado_1232372" data-name="Trazado 1232372" d="M51.25,53H2.733a1.694,1.694,0,0,0-1.222.511A1.694,1.694,0,0,0,1,54.733a5.2,5.2,0,0,0,5.2,5.2H47.784a5.206,5.206,0,0,0,5.2-5.2A1.738,1.738,0,0,0,51.25,53Z" transform="translate(-1 -53)" fill="#969faa"/>
        </g>
        <g id="Grupo_1231329" data-name="Grupo 1231329" transform="translate(43.319 48.517)">
          <path id="Trazado_1232373" data-name="Trazado 1232373" d="M51,57h3.466v3.466H51Z" transform="translate(-51 -57)" fill="#ff826e"/>
        </g>
        <g id="Grupo_1231330" data-name="Grupo 1231330" transform="translate(36.388 48.517)">
          <path id="Trazado_1232374" data-name="Trazado 1232374" d="M43,57h3.466v3.466H43Z" transform="translate(-43 -57)" fill="#ff826e"/>
        </g>
        <g id="Grupo_1231331" data-name="Grupo 1231331" transform="translate(19.927 45.052)">
          <path id="Trazado_1232375" data-name="Trazado 1232375" d="M36.129,53v1.733A1.738,1.738,0,0,1,34.4,56.466H25.733A1.738,1.738,0,0,1,24,54.733V53Z" transform="translate(-24 -53)" fill="#ff826e"/>
        </g>
        <g id="Grupo_1231332" data-name="Grupo 1231332" transform="translate(12.129 25.125)">
          <path id="Trazado_1232376" data-name="Trazado 1232376" d="M42.724,41.263v5.2H37.136v-.026A8.664,8.664,0,1,0,20.2,43.862a8.584,8.584,0,0,0,.4,2.6H15v-5.2l2.2-.7a12.587,12.587,0,0,1,1.074-2.616L17.218,35.9,20.9,32.218l2.045,1.057A12.588,12.588,0,0,1,25.561,32.2l.7-2.2h5.2l.7,2.2a12.588,12.588,0,0,1,2.616,1.074l2.045-1.057L40.506,35.9l-1.057,2.045a12.588,12.588,0,0,1,1.074,2.616Z" transform="translate(-15 -30)" fill="#ffc729"/>
        </g>
        <g id="Grupo_1231333" data-name="Grupo 1231333" transform="translate(17.328 30.323)">
          <path id="Trazado_1232377" data-name="Trazado 1232377" d="M38.328,44.664a8.685,8.685,0,0,1-.39,2.573v.026H31.951a3.422,3.422,0,0,0,1.178-2.6,3.466,3.466,0,1,0-6.931,0,3.422,3.422,0,0,0,1.178,2.6H21.4a8.664,8.664,0,1,1,16.929-2.6Z" transform="translate(-21 -36)" fill="#fcd770"/>
        </g>
      </g>
      <g id="Grupo_1231335" data-name="Grupo 1231335">
        <path id="Trazado_1232378" data-name="Trazado 1232378" d="M51.116,46.922H50.25V18.332A4.337,4.337,0,0,0,45.918,14h-2.6v1.733h2.6a2.6,2.6,0,0,1,2.6,2.6v28.59H5.2V18.332a2.6,2.6,0,0,1,2.6-2.6h2.6V14H7.8a4.337,4.337,0,0,0-4.332,4.332v28.59H2.6a2.6,2.6,0,0,0-2.6,2.6,6.072,6.072,0,0,0,6.065,6.065H47.651a6.072,6.072,0,0,0,6.065-6.065A2.6,2.6,0,0,0,51.116,46.922ZM21.659,48.655h10.4v.866a.867.867,0,0,1-.866.866H22.526a.867.867,0,0,1-.866-.866Zm18.194,5.2H38.121V52.121h1.733Zm6.931,0H45.052V52.121h1.733Zm1.733-.088V50.388h-5.2v3.466H41.586V50.388h-5.2v3.466H6.065a4.337,4.337,0,0,1-4.332-4.332.867.867,0,0,1,.866-.866H19.927v.866a2.6,2.6,0,0,0,2.6,2.6H31.19a2.6,2.6,0,0,0,2.6-2.6v-.866H51.116a.867.867,0,0,1,.866.866A4.34,4.34,0,0,1,48.517,53.766Z" transform="translate(0 -1.871)"/>
        <path id="Trazado_1232379" data-name="Trazado 1232379" d="M20.129,19.733V18H9.733A1.734,1.734,0,0,0,8,19.733V43.991a1.734,1.734,0,0,0,1.733,1.733H46.121a1.734,1.734,0,0,0,1.733-1.733V19.733A1.734,1.734,0,0,0,46.121,18h-10.4v1.733h10.4V43.991H42.655V39.028l-2.369-.759a13.048,13.048,0,0,0-.8-1.931l1.137-2.208L36.058,29.56,33.849,30.7a13.086,13.086,0,0,0-1.931-.8l-.761-2.37H24.7L23.936,29.9A13.048,13.048,0,0,0,22,30.7L19.8,29.558l-4.569,4.569,1.137,2.208a13.087,13.087,0,0,0-.8,1.931l-2.37.761v4.963H9.733V19.733Zm0,22.526a7.8,7.8,0,1,1,15.379,1.733H31.894a4.332,4.332,0,1,0-7.934,0H20.346A7.8,7.8,0,0,1,20.129,42.259Zm5.2,0a2.6,2.6,0,1,1,4.516,1.733H26.009a2.591,2.591,0,0,1-.682-1.733Zm-10.4-1.968,2.041-.653.126-.448a11.167,11.167,0,0,1,1-2.423l.227-.406-.979-1.9,2.783-2.783,1.9.979.406-.227a11.168,11.168,0,0,1,2.423-1l.448-.126.652-2.04h3.934l.653,2.041.448.126a11.167,11.167,0,0,1,2.423,1l.406.227,1.9-.979,2.783,2.783-.979,1.9.227.406a11.167,11.167,0,0,1,1,2.423l.126.448,2.041.652v3.7H37.293a9.53,9.53,0,1,0-18.733,0H14.931Z" transform="translate(-1.069 -2.405)"/>
        <path id="Trazado_1232380" data-name="Trazado 1232380" d="M13,4h3.466V5.733H13Z" transform="translate(-1.737 -0.534)"/>
        <path id="Trazado_1232381" data-name="Trazado 1232381" d="M29,4h3.466V5.733H29Z" transform="translate(-3.875 -0.534)"/>
        <path id="Trazado_1232382" data-name="Trazado 1232382" d="M45,4h3.466V5.733H45Z" transform="translate(-6.013 -0.534)"/>
        <path id="Trazado_1232383" data-name="Trazado 1232383" d="M29.332,23.392h1.733V8.664H35.4V0H25V8.664h4.332Zm-2.6-21.659h6.931v5.2H26.733Z" transform="translate(-3.341)"/>
        <path id="Trazado_1232384" data-name="Trazado 1232384" d="M44.664,12.129H36V23.392h1.733v-9.53H46.4v-5.2h4.332V0h-10.4V8.664h4.332Zm-2.6-10.4H49v5.2H42.065Z" transform="translate(-4.81)"/>
        <path id="Trazado_1232385" data-name="Trazado 1232385" d="M13.332,13.862H22v9.53h1.733V12.129H15.065V8.664H19.4V0H9V8.664h4.332Zm-2.6-12.129h6.931v5.2H10.733Z" transform="translate(-1.203)"/>
      </g>
    </g>
  </g>
</svg>
