<svg xmlns="http://www.w3.org/2000/svg" xmlns:xlink="http://www.w3.org/1999/xlink" width="113" height="113" viewBox="0 0 113 113">
  <defs>
    <filter id="Trazado_982547" x="0" y="0" width="113" height="113" filterUnits="userSpaceOnUse">
      <feOffset dy="3" input="SourceAlpha"/>
      <feGaussianBlur stdDeviation="3" result="blur"/>
      <feFlood flood-opacity="0.161"/>
      <feComposite operator="in" in2="blur"/>
      <feComposite in="SourceGraphic"/>
    </filter>
  </defs>
  <g id="Grupo_1231492" data-name="Grupo 1231492" transform="translate(-793.49 -3052.455)">
    <g id="Grupo_1230841" data-name="Grupo 1230841" transform="translate(0 1822.239)">
      <g id="Grupo_1208492" data-name="Grupo 1208492" transform="translate(0 -4397.209)">
        <g id="Grupo_1177675" data-name="Grupo 1177675" transform="translate(-4493 3707.152)">
          <g id="Grupo_1176928" data-name="Grupo 1176928" transform="translate(5295.49 1926.273)">
            <g id="Grupo_1172322" data-name="Grupo 1172322" transform="translate(0 0)">
              <g id="Grupo_1164700" data-name="Grupo 1164700">
                <g id="Grupo_1160931" data-name="Grupo 1160931">
                  <g id="Grupo_1160749" data-name="Grupo 1160749">
                    <g id="Grupo_1158891" data-name="Grupo 1158891">
                      <g id="Grupo_1157406" data-name="Grupo 1157406">
                        <g id="Grupo_1155793" data-name="Grupo 1155793">
                          <g id="Grupo_1154704" data-name="Grupo 1154704">
                            <g id="Grupo_1150790" data-name="Grupo 1150790">
                              <g id="Grupo_1154214" data-name="Grupo 1154214">
                                <g id="Grupo_1152583" data-name="Grupo 1152583">
                                  <g id="Grupo_1146973" data-name="Grupo 1146973">
                                    <g id="Grupo_1146954" data-name="Grupo 1146954">
                                      <g transform="matrix(1, 0, 0, 1, -9, -6)" filter="url(#Trazado_982547)">
                                        <g id="Trazado_982547-2" data-name="Trazado 982547" transform="translate(9 6)" fill="#fcf8db">
                                          <path d="M 47.5000114440918 93.49987030029297 C 41.28938293457031 93.49987030029297 35.26534652709961 92.28384399414062 29.5951976776123 89.88558959960938 C 24.11773109436035 87.56881713867188 19.19814491271973 84.25183868408203 14.97310447692871 80.02680206298828 C 10.74805164337158 75.80176544189453 7.43107795715332 70.88218688964844 5.114304542541504 65.40472412109375 C 2.716038227081299 59.73458862304688 1.500011444091797 53.71054840087891 1.500011444091797 47.49993515014648 C 1.500011444091797 41.28932189941406 2.716038227081299 35.26528167724609 5.114304542541504 29.59514808654785 C 7.43107795715332 24.1176815032959 10.74805164337158 19.1981086730957 14.97310447692871 14.97306823730469 C 19.19814491271973 10.74802875518799 24.11773109436035 7.431055068969727 29.5951976776123 5.11428165435791 C 35.26534652709961 2.716028451919556 41.28938293457031 1.500001788139343 47.5000114440918 1.500001788139343 C 53.71063995361328 1.500001788139343 59.73467636108398 2.716028451919556 65.40482330322266 5.11428165435791 C 70.88229370117188 7.431055068969727 75.8018798828125 10.74802875518799 80.02691650390625 14.97306823730469 C 84.25196838378906 19.1981086730957 87.56894683837891 24.1176815032959 89.88571929931641 29.59514808654785 C 92.28398132324219 35.26528167724609 93.50001525878906 41.28932189941406 93.50001525878906 47.49993515014648 C 93.50001525878906 53.71054840087891 92.28398132324219 59.73458862304688 89.88571929931641 65.40472412109375 C 87.56894683837891 70.88218688964844 84.25196838378906 75.80176544189453 80.02691650390625 80.02680206298828 C 75.8018798828125 84.25183868408203 70.88229370117188 87.56881713867188 65.40482330322266 89.88558959960938 C 59.73467636108398 92.28384399414062 53.71063995361328 93.49987030029297 47.5000114440918 93.49987030029297 Z" stroke="none"/>
                                          <path d="M 47.5000114440918 3 C 41.49122619628906 3 35.66378021240234 4.1761474609375 30.17951965332031 6.495796203613281 C 24.880859375 8.7369384765625 20.12153625488281 11.94596862792969 16.03376770019531 16.03373718261719 C 11.94598388671875 20.12149047851562 8.736968994140625 24.88081359863281 6.495811462402344 30.17947387695312 C 4.176162719726562 35.66371917724609 3.000007629394531 41.49116516113281 3.000007629394531 47.49993515014648 C 3.000007629394531 53.50870513916016 4.176162719726562 59.33615112304688 6.495811462402344 64.82039642333984 C 8.736968994140625 70.11905670166016 11.94598388671875 74.87837982177734 16.03376770019531 78.96613311767578 C 20.12153625488281 83.05390167236328 24.880859375 86.26293182373047 30.17951965332031 88.50407409667969 C 35.66378021240234 90.82372283935547 41.49122619628906 91.99987030029297 47.5000114440918 91.99987030029297 C 53.50879669189453 91.99987030029297 59.33624267578125 90.82372283935547 64.82050323486328 88.50407409667969 C 70.11916351318359 86.26293182373047 74.87848663330078 83.05390167236328 78.96625518798828 78.96613311767578 C 83.05403900146484 74.87837982177734 86.2630615234375 70.11905670166016 88.50421142578125 64.82039642333984 C 90.82386016845703 59.33615112304688 92.00001525878906 53.50870513916016 92.00001525878906 47.49993515014648 C 92.00001525878906 41.49116516113281 90.82386016845703 35.66371917724609 88.50421142578125 30.17947387695312 C 86.2630615234375 24.88081359863281 83.05403900146484 20.12149047851562 78.96625518798828 16.03373718261719 C 74.87848663330078 11.94596862792969 70.11916351318359 8.7369384765625 64.82050323486328 6.495796203613281 C 59.33624267578125 4.1761474609375 53.50879669189453 3 47.5000114440918 3 M 47.5000114440918 0 C 73.73353576660156 0 95.00001525878906 21.26644134521484 95.00001525878906 47.49993515014648 C 95.00001525878906 73.73342895507812 73.73353576660156 94.99987030029297 47.5000114440918 94.99987030029297 C 21.26648712158203 94.99987030029297 7.62939453125e-06 73.73342895507812 7.62939453125e-06 47.49993515014648 C 7.62939453125e-06 21.26644134521484 21.26648712158203 0 47.5000114440918 0 Z" stroke="none" fill="#83793c"/>
                                        </g>
                                      </g>
                                    </g>
                                  </g>
                                </g>
                              </g>
                            </g>
                          </g>
                        </g>
                      </g>
                    </g>
                  </g>
                </g>
              </g>
            </g>
          </g>
        </g>
      </g>
    </g>
    <g id="dia-internacional-del-nino_1_" data-name="dia-internacional-del-nino (1)" transform="translate(817.178 3074.574)">
      <g id="Grupo_1231490" data-name="Grupo 1231490" transform="translate(1.412 0.919)">
        <path id="Trazado_1235298" data-name="Trazado 1235298" d="M44.665,114.5a26.686,26.686,0,0,0,20.313,43.994q.729,0,1.45-.039l5.935-5.935V140.247L62.33,135.771V117.945Z" transform="translate(-34.578 -101.383)" fill="#696eaf"/>
        <path id="Trazado_1235299" data-name="Trazado 1235299" d="M261.086,144.45A26.707,26.707,0,0,0,257.48,115.7L234.395,119v17.826l10.034,4.476Z" transform="translate(-206.643 -102.436)" fill="#696eaf"/>
        <path id="Trazado_1235300" data-name="Trazado 1235300" d="M72.141,191.949A31.153,31.153,0,0,1,40.988,160.8c0-.229,0-.458.009-.686a26.694,26.694,0,0,0,23.982,38.4q.729,0,1.45-.039l5.935-5.935v-.592c-.074,0-.148,0-.222,0Z" transform="translate(-34.578 -141.403)" fill="#4c5696"/>
        <path id="Trazado_1235301" data-name="Trazado 1235301" d="M134.644,76.26a26.69,26.69,0,0,1-22.592,15.056l-.693-1.683a2.506,2.506,0,0,1,.862-2.993,2.5,2.5,0,0,0,1.052-2.04,3.334,3.334,0,0,0-.677-2.564l-1.307-1.394a2.5,2.5,0,0,1-.242-3.123l.351-.514a2.5,2.5,0,0,0-1.287-3.79l-3.794-1.246a1.492,1.492,0,0,1-.825-.669l-2.6-4.476a1.493,1.493,0,0,0-2.562-.034L99.7,67.8a1.494,1.494,0,0,1-2.717-1.161l1.347-5.158a1.493,1.493,0,0,1,.762-.951l2.746-1.413a1.492,1.492,0,0,0,.774-1.652,2.892,2.892,0,0,0-2.336-2.224c-1.4-.293-2.3-.23-3.423-.912l-3.984-2.418a4.608,4.608,0,0,1-2.033-2.651l-.553-1.9h0a26.685,26.685,0,0,1,40.749.148l-1.085,1.928a2.6,2.6,0,0,1-2.062,1.32,2.6,2.6,0,0,0-2.086,1.364l-.993,1.851a2.6,2.6,0,0,1-2.481,1.366c-.62-.041-.737-.061-1.032-.061a4.833,4.833,0,0,0-3.561,1.565c-1.813,1.98-.942,4.081-2.434,6.064l-2.264,3.021a1.575,1.575,0,0,0,.336,2.219l1.962,1.423a1.578,1.578,0,0,0,1.321.249c2.681-.668,2.854-.811,3.51-.811a3.041,3.041,0,0,1,2.169.909c1.645,1.671,3.439.356,5.143,1.264a16.573,16.573,0,0,1,2,1.108Z" transform="translate(-80.201 -34.246)" fill="#71d9b8"/>
        <path id="Trazado_1235302" data-name="Trazado 1235302" d="M254.451,34.132a5.431,5.431,0,0,1-6.391-.249,1.417,1.417,0,0,1,.146-2.44,5.333,5.333,0,0,0,.684-.41,4.553,4.553,0,0,0,1.856-3.327,4.534,4.534,0,0,1,7.645-2.851Z" transform="translate(-218.082 -21.624)" fill="#fd8b9b"/>
        <path id="Trazado_1235303" data-name="Trazado 1235303" d="M304.986,18.733a12.218,12.218,0,0,1,24.356,0l-12.178,2.421Z" transform="translate(-268.581 -7.5)" fill="#fd8b9b"/>
        <path id="Trazado_1235304" data-name="Trazado 1235304" d="M315.119,8.891a12.223,12.223,0,0,0-10.133,11.063l3.542.7A14.553,14.553,0,0,1,315.119,8.891Z" transform="translate(-268.581 -8.72)" fill="#e75b70"/>
        <path id="Trazado_1235305" data-name="Trazado 1235305" d="M329.1,67.53a12.217,12.217,0,1,1-24.435,0c0-.331.013-.66.039-.984,2.955-.092,8.434-.81,12.178-4.554,3.745,3.744,9.223,4.462,12.178,4.554C329.086,66.87,329.1,67.2,329.1,67.53Z" transform="translate(-268.3 -55.313)" fill="#ffdcce"/>
        <path id="Trazado_1235306" data-name="Trazado 1235306" d="M8.2,339a11.783,11.783,0,0,0-.17,1.272c-.026.324-.039.654-.039.984a12.217,12.217,0,0,0,24.435,0c0-.33-.013-.66-.039-.984A12.087,12.087,0,0,0,32.22,339L20.21,332.371Z" transform="translate(-7.993 -292.549)" fill="#da9d81"/>
        <path id="Trazado_1235307" data-name="Trazado 1235307" d="M11.83,371.4a14.566,14.566,0,0,1,.713-4.513L8.2,369.284a11.778,11.778,0,0,0-.17,1.272c-.026.324-.039.654-.039.984a12.22,12.22,0,0,0,10.48,12.094A14.568,14.568,0,0,1,11.83,371.4Z" transform="translate(-7.994 -322.836)" fill="#c7856a"/>
        <path id="Trazado_1235308" data-name="Trazado 1235308" d="M21.708,305.158A12.22,12.22,0,0,0,9.7,315.12h6.041a2.519,2.519,0,0,0,1.781-.738l2.4-2.4a2.519,2.519,0,0,1,3.563,0l2.4,2.4a2.519,2.519,0,0,0,1.781.738h6.042a12.221,12.221,0,0,0-12.009-9.962Z" transform="translate(-9.491 -268.672)" fill="#475066"/>
        <path id="Trazado_1235309" data-name="Trazado 1235309" d="M267.233,398.642a31.4,31.4,0,0,1-4.5-.325c0,.048,0,.093.007.133a2.5,2.5,0,0,1-1.052,2.04,2.506,2.506,0,0,0-.862,2.993l.693,1.683a26.628,26.628,0,0,0,18.987-9.488A31.03,31.03,0,0,1,267.233,398.642Z" transform="translate(-229.67 -348.096)" fill="#30ca99"/>
        <path id="Trazado_1235310" data-name="Trazado 1235310" d="M19.436,306.894A12.228,12.228,0,0,0,9.7,316.643h3.781A14.575,14.575,0,0,1,19.436,306.894Z" transform="translate(-9.492 -270.195)" fill="#303646"/>
        <path id="Trazado_1235311" data-name="Trazado 1235311" d="M308.241,97.512A14.708,14.708,0,0,1,308.319,96a24.207,24.207,0,0,1-3.614.386c-.026.324-.039.653-.039.984a12.222,12.222,0,0,0,9.582,11.931A14.544,14.544,0,0,1,308.241,97.512Z" transform="translate(-268.301 -85.148)" fill="#ffcabd"/>
      </g>
      <g id="Grupo_1231491" data-name="Grupo 1231491" transform="translate(0.493 0)">
        <path id="Trazado_1235312" data-name="Trazado 1235312" d="M347.583,115.518a.919.919,0,0,0-.919.919v1.182a.919.919,0,0,0,1.839,0v-1.182A.919.919,0,0,0,347.583,115.518Z" transform="translate(-304.231 -101.358)"/>
        <path id="Trazado_1235313" data-name="Trazado 1235313" d="M447.926,115.518a.919.919,0,0,0-.919.919v1.182a.919.919,0,1,0,1.839,0v-1.182A.919.919,0,0,0,447.926,115.518Z" transform="translate(-392.274 -101.358)"/>
        <path id="Trazado_1235314" data-name="Trazado 1235314" d="M388.373,125.1a.919.919,0,0,0-1.3.089,1.229,1.229,0,0,1-1.857,0,.919.919,0,0,0-1.386,1.208,3.068,3.068,0,0,0,4.629,0A.919.919,0,0,0,388.373,125.1Z" transform="translate(-336.646 -109.565)"/>
        <path id="Trazado_1235315" data-name="Trazado 1235315" d="M50.913,413.179a.919.919,0,0,0-.919.919v1.182a.919.919,0,0,0,1.839,0V414.1A.919.919,0,0,0,50.913,413.179Z" transform="translate(-43.926 -362.533)"/>
        <path id="Trazado_1235316" data-name="Trazado 1235316" d="M151.256,413.179a.919.919,0,0,0-.919.919v1.182a.919.919,0,0,0,1.839,0V414.1A.919.919,0,0,0,151.256,413.179Z" transform="translate(-131.969 -362.533)"/>
        <path id="Trazado_1235317" data-name="Trazado 1235317" d="M91.7,422.758a.919.919,0,0,0-1.3.089,1.23,1.23,0,0,1-1.857,0,.919.919,0,1,0-1.386,1.208,3.068,3.068,0,0,0,4.629,0A.919.919,0,0,0,91.7,422.758Z" transform="translate(-76.342 -370.739)"/>
        <path id="Trazado_1235318" data-name="Trazado 1235318" d="M184.712,13.137c0-.35-.014-.705-.042-1.057h0a13.137,13.137,0,0,0-21.39-9.128,5.46,5.46,0,0,0-7.246.913c-.876-.083-1.762-.128-2.641-.128a27.591,27.591,0,0,0-13.878,3.739.919.919,0,1,0,.926,1.589,25.8,25.8,0,0,1,14.58-3.438,5.654,5.654,0,0,0-.28,1.287,3.6,3.6,0,0,1-2.036,3,2.336,2.336,0,0,0-.245,4.027,6.459,6.459,0,0,0,6.094.948,13.014,13.014,0,0,0,2.994,6.735,5.842,5.842,0,0,0-1.7,1.268c-2.02,2.205-1.19,4.4-2.492,6.134L155.1,32.048a2.5,2.5,0,0,0,.532,3.514c2.018,1.457,1.982,1.452,2.2,1.574a2.482,2.482,0,0,0,1.848.246c2.833-.707,2.811-.784,3.287-.784a2.109,2.109,0,0,1,1.514.634c1.945,1.977,4.021.714,5.362,1.428,2.831,1.527.459.023,6.439,4.54a25.727,25.727,0,0,1-10.062,10.5.919.919,0,1,0,.916,1.594,27.634,27.634,0,0,0,12.693-31.937,13.117,13.117,0,0,0,4.89-10.218Zm-13.137-11.3A11.3,11.3,0,0,1,182.7,11.175c-3.782-.284-7.761-1.51-10.478-4.226a.92.92,0,0,0-1.3,0c-2.683,2.683-6.649,3.939-10.478,4.226a11.3,11.3,0,0,1,11.128-9.336ZM158.441,12.913a4.556,4.556,0,0,1-4.959-.5.5.5,0,0,1,.047-.853,5.449,5.449,0,0,0,3.043-4.473A3.611,3.611,0,0,1,161.9,4.253,13.1,13.1,0,0,0,158.441,12.913ZM177.08,41.5c-5.866-4.4-3.285-2.794-6.376-4.46-1.981-1.056-3.634.209-4.92-1.1a3.987,3.987,0,0,0-2.824-1.183c-.909,0-1.445.3-3.754.844a.656.656,0,0,1-.536-.106l-1.962-1.423a.655.655,0,0,1-.14-.923l2.263-3.02c1.444-1.918.993-3.814,1.893-5.345a3.9,3.9,0,0,1,2.225-1.743,13.12,13.12,0,0,0,8.623,3.23h.011a13.088,13.088,0,0,0,6.647-1.808,25.778,25.778,0,0,1,.929,6.877A25.52,25.52,0,0,1,177.08,41.5Zm-5.5-17.065h-.007a11.308,11.308,0,0,1-11.293-11.4,18.973,18.973,0,0,0,11.3-4.173c3.149,2.729,7.141,3.871,11.3,4.173A11.311,11.311,0,0,1,171.58,24.435Z" transform="translate(-122.074 0)"/>
        <path id="Trazado_1235319" data-name="Trazado 1235319" d="M.718,114.892a12.732,12.732,0,0,0-.183,1.368,13.132,13.132,0,0,0,23.372,9.23,27.688,27.688,0,0,0,18.009-.757.919.919,0,0,0-.673-1.711,25.616,25.616,0,0,1-7.381,1.7l-.442-1.072a1.578,1.578,0,0,1,.544-1.893,3.4,3.4,0,0,0,1.432-2.913,3.917,3.917,0,0,0-.919-3.069l-1.307-1.394a1.594,1.594,0,0,1-.153-1.976,6.983,6.983,0,0,0,.646-1.039,3.425,3.425,0,0,0-2.055-4.656c-3.887-1.328-3.917-1.168-4.111-1.5l-2.6-4.475a2.412,2.412,0,0,0-4.139-.055l-.622,1.009a.575.575,0,0,1-1.045-.445l1.348-5.16a.573.573,0,0,1,.292-.365L23.473,94.3c2.443-1.252,1.2-5.068-1.808-5.6-1.429-.3-2.18-.225-3.118-.795l-3.984-2.418c-1.716-1.043-1.707-2.748-2.041-3.541a26.024,26.024,0,0,1,3.351-3.161.919.919,0,1,0-1.138-1.444A27.827,27.827,0,0,0,10.8,81.13l-.013.017A27.635,27.635,0,0,0,5.4,107.078a13.083,13.083,0,0,0-4.682,7.814ZM13.63,128.614A11.31,11.31,0,0,1,2.368,116.4q.017-.214.042-.425H7.662a3.419,3.419,0,0,0,2.431-1.007l2.4-2.4a1.6,1.6,0,0,1,2.263,0l2.4,2.4A3.416,3.416,0,0,0,19.6,115.98h5.251c.017.143.031.27.043.425a11.311,11.311,0,0,1-11.262,12.21ZM11.113,83.689a5.543,5.543,0,0,0,2.5,3.375l3.984,2.418c1.928,1.171,3.777.6,4.774,1.548a1.921,1.921,0,0,1,.578,1.1.579.579,0,0,1-.311.538c-2.685,1.428-2.9,1.39-3.377,1.884-.671.7-.521.951-1.947,6.225A2.413,2.413,0,0,0,21.7,102.65l.623-1.009a.573.573,0,0,1,.984.013l2.6,4.476a2.41,2.41,0,0,0,1.334,1.081l3.794,1.246a1.592,1.592,0,0,1,1.005,1c.494,1.453-1.129,1.764-1.142,3.827-.011,1.749,1.049,2.418,2.238,3.753.61.65.38,1.364.428,1.973a1.585,1.585,0,0,1-.666,1.253,3.41,3.41,0,0,0-1.178,4.092l.186.453a25.774,25.774,0,0,1-6.9-.91,13.118,13.118,0,0,0,1.72-7.632h0A13.14,13.14,0,0,0,8.081,105.407c-.576.268-1.029.54-1.088.572a25.811,25.811,0,0,1,4.12-22.29Zm2.517,22.329h.019a11.3,11.3,0,0,1,10.825,8.123H19.6a1.589,1.589,0,0,1-1.131-.469l-2.4-2.4a3.444,3.444,0,0,0-4.838-.024l-.025.024c-2.3,2.225-2.379,2.529-2.93,2.755-.508.208-.469.08-5.484.119a11.308,11.308,0,0,1,10.845-8.123Z" transform="translate(-0.493 -67.693)"/>
      </g>
    </g>
  </g>
</svg>
