<svg xmlns="http://www.w3.org/2000/svg" xmlns:xlink="http://www.w3.org/1999/xlink" width="113" height="113" viewBox="0 0 113 113">
  <defs>
    <filter id="Trazado_982547" x="0" y="0" width="113" height="113" filterUnits="userSpaceOnUse">
      <feOffset dy="3" input="SourceAlpha"/>
      <feGaussianBlur stdDeviation="3" result="blur"/>
      <feFlood flood-opacity="0.161"/>
      <feComposite operator="in" in2="blur"/>
      <feComposite in="SourceGraphic"/>
    </filter>
  </defs>
  <g id="Grupo_1231512" data-name="Grupo 1231512" transform="translate(-9427.902 -3049.455)">
    <g id="Grupo_1230844" data-name="Grupo 1230844" transform="translate(8315.902 1819.239)">
      <g id="Grupo_1209049" data-name="Grupo 1209049">
        <g id="Grupo_1208493" data-name="Grupo 1208493" transform="translate(0 -4397.209)">
          <g id="Grupo_1202104" data-name="Grupo 1202104" transform="translate(0 -1149.226)">
            <g id="Grupo_1201923" data-name="Grupo 1201923" transform="translate(-4174.49 4856.378)">
              <g id="Grupo_1176928" data-name="Grupo 1176928" transform="translate(5295.49 1926.273)">
                <g id="Grupo_1172322" data-name="Grupo 1172322" transform="translate(0 0)">
                  <g id="Grupo_1164700" data-name="Grupo 1164700">
                    <g id="Grupo_1160931" data-name="Grupo 1160931">
                      <g id="Grupo_1160749" data-name="Grupo 1160749">
                        <g id="Grupo_1158891" data-name="Grupo 1158891">
                          <g id="Grupo_1157406" data-name="Grupo 1157406">
                            <g id="Grupo_1155793" data-name="Grupo 1155793">
                              <g id="Grupo_1154704" data-name="Grupo 1154704">
                                <g id="Grupo_1150790" data-name="Grupo 1150790">
                                  <g id="Grupo_1154214" data-name="Grupo 1154214">
                                    <g id="Grupo_1152583" data-name="Grupo 1152583">
                                      <g id="Grupo_1146973" data-name="Grupo 1146973">
                                        <g id="Grupo_1146954" data-name="Grupo 1146954">
                                          <g transform="matrix(1, 0, 0, 1, -9, -6)" filter="url(#Trazado_982547)">
                                            <g id="Trazado_982547-2" data-name="Trazado 982547" transform="translate(9 6)" fill="#fcf8db">
                                              <path d="M 47.5000114440918 93.49987030029297 C 41.28938293457031 93.49987030029297 35.26534652709961 92.28384399414062 29.5951976776123 89.88558959960938 C 24.11773109436035 87.56881713867188 19.19814491271973 84.25183868408203 14.97310447692871 80.02680206298828 C 10.74805164337158 75.80176544189453 7.43107795715332 70.88218688964844 5.114304542541504 65.40472412109375 C 2.716038227081299 59.73458862304688 1.500011444091797 53.71054840087891 1.500011444091797 47.49993515014648 C 1.500011444091797 41.28932189941406 2.716038227081299 35.26528167724609 5.114304542541504 29.59514808654785 C 7.43107795715332 24.1176815032959 10.74805164337158 19.1981086730957 14.97310447692871 14.97306823730469 C 19.19814491271973 10.74802875518799 24.11773109436035 7.431055068969727 29.5951976776123 5.11428165435791 C 35.26534652709961 2.716028451919556 41.28938293457031 1.500001788139343 47.5000114440918 1.500001788139343 C 53.71063995361328 1.500001788139343 59.73467636108398 2.716028451919556 65.40482330322266 5.11428165435791 C 70.88229370117188 7.431055068969727 75.8018798828125 10.74802875518799 80.02691650390625 14.97306823730469 C 84.25196838378906 19.1981086730957 87.56894683837891 24.1176815032959 89.88571929931641 29.59514808654785 C 92.28398132324219 35.26528167724609 93.50001525878906 41.28932189941406 93.50001525878906 47.49993515014648 C 93.50001525878906 53.71054840087891 92.28398132324219 59.73458862304688 89.88571929931641 65.40472412109375 C 87.56894683837891 70.88218688964844 84.25196838378906 75.80176544189453 80.02691650390625 80.02680206298828 C 75.8018798828125 84.25183868408203 70.88229370117188 87.56881713867188 65.40482330322266 89.88558959960938 C 59.73467636108398 92.28384399414062 53.71063995361328 93.49987030029297 47.5000114440918 93.49987030029297 Z" stroke="none"/>
                                              <path d="M 47.5000114440918 3 C 41.49122619628906 3 35.66378021240234 4.1761474609375 30.17951965332031 6.495796203613281 C 24.880859375 8.7369384765625 20.12153625488281 11.94596862792969 16.03376770019531 16.03373718261719 C 11.94598388671875 20.12149047851562 8.736968994140625 24.88081359863281 6.495811462402344 30.17947387695312 C 4.176162719726562 35.66371917724609 3.000007629394531 41.49116516113281 3.000007629394531 47.49993515014648 C 3.000007629394531 53.50870513916016 4.176162719726562 59.33615112304688 6.495811462402344 64.82039642333984 C 8.736968994140625 70.11905670166016 11.94598388671875 74.87837982177734 16.03376770019531 78.96613311767578 C 20.12153625488281 83.05390167236328 24.880859375 86.26293182373047 30.17951965332031 88.50407409667969 C 35.66378021240234 90.82372283935547 41.49122619628906 91.99987030029297 47.5000114440918 91.99987030029297 C 53.50879669189453 91.99987030029297 59.33624267578125 90.82372283935547 64.82050323486328 88.50407409667969 C 70.11916351318359 86.26293182373047 74.87848663330078 83.05390167236328 78.96625518798828 78.96613311767578 C 83.05403900146484 74.87837982177734 86.2630615234375 70.11905670166016 88.50421142578125 64.82039642333984 C 90.82386016845703 59.33615112304688 92.00001525878906 53.50870513916016 92.00001525878906 47.49993515014648 C 92.00001525878906 41.49116516113281 90.82386016845703 35.66371917724609 88.50421142578125 30.17947387695312 C 86.2630615234375 24.88081359863281 83.05403900146484 20.12149047851562 78.96625518798828 16.03373718261719 C 74.87848663330078 11.94596862792969 70.11916351318359 8.7369384765625 64.82050323486328 6.495796203613281 C 59.33624267578125 4.1761474609375 53.50879669189453 3 47.5000114440918 3 M 47.5000114440918 0 C 73.73353576660156 0 95.00001525878906 21.26644134521484 95.00001525878906 47.49993515014648 C 95.00001525878906 73.73342895507812 73.73353576660156 94.99987030029297 47.5000114440918 94.99987030029297 C 21.26648712158203 94.99987030029297 7.62939453125e-06 73.73342895507812 7.62939453125e-06 47.49993515014648 C 7.62939453125e-06 21.26644134521484 21.26648712158203 0 47.5000114440918 0 Z" stroke="none" fill="#83793c"/>
                                            </g>
                                          </g>
                                        </g>
                                      </g>
                                    </g>
                                  </g>
                                </g>
                              </g>
                            </g>
                          </g>
                        </g>
                      </g>
                    </g>
                  </g>
                </g>
              </g>
            </g>
          </g>
        </g>
      </g>
    </g>
    <g id="libertad-de-expresion_1_" data-name="libertad-de-expresion (1)" transform="translate(9391.986 3069)">
      <g id="Grupo_1231510" data-name="Grupo 1231510" transform="translate(69.529 0.933)">
        <g id="Grupo_1231498" data-name="Grupo 1231498" transform="translate(2.526)">
          <path id="Trazado_1235373" data-name="Trazado 1235373" d="M134.383,61.94H98.128a1.734,1.734,0,0,1-1.734-1.734V26.486A18.986,18.986,0,0,1,115.381,7.5h1.749a18.987,18.987,0,0,1,18.987,18.986v33.72A1.733,1.733,0,0,1,134.383,61.94Z" transform="translate(-96.394 -7.5)" fill="#5b6f6f"/>
        </g>
        <g id="Grupo_1231499" data-name="Grupo 1231499" transform="translate(0 47.541)">
          <path id="Trazado_1235374" data-name="Trazado 1235374" d="M119.482,403.85H77.489a1.389,1.389,0,0,1-1.341-1.75l1.1-4.085a11.442,11.442,0,0,1,11.049-8.47h20.382a11.441,11.441,0,0,1,11.049,8.47l1.1,4.085a1.389,1.389,0,0,1-1.342,1.75Z" transform="translate(-76.099 -389.545)" fill="#60b7ff"/>
        </g>
        <g id="Grupo_1231500" data-name="Grupo 1231500" transform="translate(0 48.805)">
          <path id="Trazado_1235375" data-name="Trazado 1235375" d="M120.824,410.992l-1.1-4.085A11.435,11.435,0,0,0,113.9,399.7a11.422,11.422,0,0,1,1.6,3.473l.6,2.22a2.869,2.869,0,0,1-2.771,3.614H76.681l-.533,1.983a1.389,1.389,0,0,0,1.341,1.75h41.993A1.389,1.389,0,0,0,120.824,410.992Z" transform="translate(-76.099 -399.701)" fill="#26a6fe"/>
        </g>
        <g id="Grupo_1231501" data-name="Grupo 1231501" transform="translate(16.403 39.541)">
          <path id="Trazado_1235376" data-name="Trazado 1235376" d="M214.06,338.458h-.324a5.822,5.822,0,0,1-5.822-5.822v-7.38h11.967v7.38A5.822,5.822,0,0,1,214.06,338.458Z" transform="translate(-207.915 -325.256)" fill="#ffe5c2"/>
        </g>
        <g id="Grupo_1231502" data-name="Grupo 1231502" transform="translate(6.677 5.261)">
          <path id="Trazado_1235377" data-name="Trazado 1235377" d="M145.464,49.78a15.71,15.71,0,0,0-15.71,15.71v7.6a12.142,12.142,0,0,0,4.529,9.455c3.539,2.851,8.321,6.216,11.181,6.216s7.642-3.365,11.181-6.216a12.142,12.142,0,0,0,4.529-9.455v-7.6A15.71,15.71,0,0,0,145.464,49.78Z" transform="translate(-129.754 -49.78)" fill="#ffe5c2"/>
        </g>
        <g id="Grupo_1231503" data-name="Grupo 1231503" transform="translate(18.401 5.553)">
          <path id="Trazado_1235378" data-name="Trazado 1235378" d="M230.976,52.121a15.71,15.71,0,0,1,8.865,14.144v7.6a12.142,12.142,0,0,1-4.529,9.455c-3.539,2.851-8.321,6.216-11.181,6.216-.053,0-.108,0-.162-.006a9.4,9.4,0,0,0,3.986,1.28c2.859,0,7.642-3.365,11.181-6.216a12.142,12.142,0,0,0,4.529-9.455v-7.6A15.714,15.714,0,0,0,230.976,52.121Z" transform="translate(-223.97 -52.121)" fill="#fed2a4"/>
        </g>
        <g id="Grupo_1231504" data-name="Grupo 1231504" transform="translate(38.096 20.971)">
          <path id="Trazado_1235379" data-name="Trazado 1235379" d="M382.245,176.026h2.169a3.038,3.038,0,0,1,3.038,3.038v.09a4.258,4.258,0,0,1-2.925,4.044l-2.283.752Z" transform="translate(-382.245 -176.026)" fill="#ffe5c2"/>
        </g>
        <g id="Grupo_1231505" data-name="Grupo 1231505" transform="translate(1.47 20.971)">
          <path id="Trazado_1235380" data-name="Trazado 1235380" d="M93.118,176.026H90.949a3.038,3.038,0,0,0-3.038,3.038v.09a4.258,4.258,0,0,0,2.925,4.044l2.283.752Z" transform="translate(-87.911 -176.026)" fill="#ffe5c2"/>
        </g>
        <g id="Grupo_1231506" data-name="Grupo 1231506" transform="translate(6.677 5.261)">
          <path id="Trazado_1235381" data-name="Trazado 1235381" d="M161.175,65.489a15.71,15.71,0,0,0-31.42,0h0c11.769,0,15.709-4.713,15.709-4.713s3.941,4.713,15.709,4.713Z" transform="translate(-129.755 -49.78)" fill="#e9a876"/>
        </g>
        <g id="Grupo_1231507" data-name="Grupo 1231507" transform="translate(6.677 5.261)">
          <path id="Trazado_1235382" data-name="Trazado 1235382" d="M161.175,65.489a15.71,15.71,0,0,0-31.42,0h0c11.769,0,15.709-4.713,15.709-4.713s3.941,4.713,15.709,4.713Z" transform="translate(-129.755 -49.78)" fill="#e9a876"/>
        </g>
        <g id="Grupo_1231508" data-name="Grupo 1231508" transform="translate(5.727 4.048)">
          <path id="Trazado_1235383" data-name="Trazado 1235383" d="M155.469,56.952c0-8.676-8.009-16.922-16.685-16.922s-16.659,8.246-16.659,16.922h.95c11.769,0,15.709-4.713,15.709-4.713s3.941,4.713,15.709,4.713Z" transform="translate(-122.125 -40.03)" fill="#5b6f6f"/>
        </g>
        <g id="Grupo_1231509" data-name="Grupo 1231509" transform="translate(16.294 24.83)">
          <path id="Trazado_1235384" data-name="Trazado 1235384" d="M219,208.992l-1.726-1.726a.78.78,0,0,0-1.1,0l-2.484,2.484a.78.78,0,0,1-1.1,0l-2.484-2.484a.78.78,0,0,0-1.1,0l-1.726,1.726a.78.78,0,0,0,0,1.1l2.484,2.484a.78.78,0,0,1,0,1.1l-2.484,2.484a.78.78,0,0,0,0,1.1L208.992,219a.78.78,0,0,0,1.1,0l2.484-2.484a.78.78,0,0,1,1.1,0L216.166,219a.78.78,0,0,0,1.1,0L219,217.269a.78.78,0,0,0,0-1.1l-2.484-2.484a.78.78,0,0,1,0-1.1L219,210.1A.78.78,0,0,0,219,208.992Z" transform="translate(-207.038 -207.038)" fill="#fd4755"/>
        </g>
      </g>
      <g id="Grupo_1231511" data-name="Grupo 1231511" transform="translate(68.596 0)">
        <path id="Trazado_1235385" data-name="Trazado 1235385" d="M208.945,213.089a1.713,1.713,0,0,0,2.423,0l1.725-1.725a1.715,1.715,0,0,0,0-2.423l-2.376-2.376,2.376-2.376a1.715,1.715,0,0,0,0-2.423h0l-1.726-1.726a1.713,1.713,0,0,0-2.423,0l-2.376,2.376-2.376-2.376a1.713,1.713,0,0,0-2.423,0l-1.726,1.726a1.715,1.715,0,0,0,0,2.423l2.376,2.376-2.376,2.376a1.715,1.715,0,0,0,0,2.423l1.725,1.725a1.713,1.713,0,0,0,2.423,0l2.376-2.376Zm-3.587-3.8-2.376,2.376-1.509-1.509,2.376-2.376a1.713,1.713,0,0,0,0-2.423l-2.376-2.376,1.509-1.509,2.376,2.376a1.713,1.713,0,0,0,2.423,0l2.376-2.376,1.509,1.509-2.376,2.376a1.715,1.715,0,0,0,0,2.423l2.376,2.376-1.509,1.509-2.376-2.376a1.713,1.713,0,0,0-2.423,0Z" transform="translate(-183.249 -174.709)"/>
        <path id="Trazado_1235386" data-name="Trazado 1235386" d="M115.155,60.787l-1.1-4.085a12.319,12.319,0,0,0-1.347-3.16V28.173a5.182,5.182,0,0,0,1.056-3.14v-.09a3.956,3.956,0,0,0-1.056-2.693V19.92a19.848,19.848,0,0,0-1.27-7.014.933.933,0,1,0-1.747.657,17.986,17.986,0,0,1,1.151,6.357v1.193a3.959,3.959,0,0,0-1.049-.142h-2.2c-11.073-.008-14.928-4.34-14.962-4.379a.929.929,0,0,0-1.428,0c-.038.044-3.892,4.374-14.962,4.383H74.037a3.963,3.963,0,0,0-1.049.142V19.92A18.074,18.074,0,0,1,91.041,1.867H92.79a18.048,18.048,0,0,1,14.971,7.96.933.933,0,0,0,1.547-1.045A19.913,19.913,0,0,0,92.79,0H91.041a19.942,19.942,0,0,0-19.92,19.92v2.33a3.956,3.956,0,0,0-1.055,2.693v.09a5.182,5.182,0,0,0,3.566,4.93l1.681.554a13.013,13.013,0,0,0,4.837,9.167A59.772,59.772,0,0,0,85,43.248v4.294H81.725a12.377,12.377,0,0,0-8.737,3.62V32.633a.933.933,0,0,0-1.867,0v20.91a12.318,12.318,0,0,0-1.347,3.16l-1.1,4.085a2.322,2.322,0,0,0,2.243,2.925h41.993a2.322,2.322,0,0,0,2.243-2.925ZM102.107,47.541H98.833V43.247a59.8,59.8,0,0,0,4.849-3.563,13.013,13.013,0,0,0,4.837-9.167s2.118-.716,2.324-.816V51.161a12.376,12.376,0,0,0-8.737-3.62Zm9.793-22.6v.09a3.318,3.318,0,0,1-2.284,3.157l-1.057.349v-5.7h1.236A2.107,2.107,0,0,1,111.9,24.942Zm-39.967.09v-.09a2.107,2.107,0,0,1,2.1-2.1h1.235v5.7l-1.057-.348A3.318,3.318,0,0,1,71.932,25.033Zm5.207,4.5v-6.7c8.825-.188,13.192-3.008,14.776-4.348,1.584,1.34,5.951,4.16,14.777,4.348V29.5a11.16,11.16,0,0,1-4.182,8.728c-4.81,3.875-8.573,6.01-10.6,6.01s-5.785-2.134-10.6-6.01a11.161,11.161,0,0,1-4.181-8.7ZM91.916,46.107a11.186,11.186,0,0,0,5.05-1.728v3.314a5.05,5.05,0,0,1-10.1,0V44.379A11.186,11.186,0,0,0,91.916,46.107Zm21.359,15.561a.448.448,0,0,1-.362.179H70.919a.456.456,0,0,1-.44-.574l1.1-4.085a10.525,10.525,0,0,1,10.148-7.779h3.49a6.918,6.918,0,0,0,13.4,0h3.49a10.525,10.525,0,0,1,10.147,7.779l1.1,4.085a.447.447,0,0,1-.079.4Z" transform="translate(-68.596 0)"/>
      </g>
    </g>
  </g>
</svg>
