<svg xmlns="http://www.w3.org/2000/svg" xmlns:xlink="http://www.w3.org/1999/xlink" width="113" height="113" viewBox="0 0 113 113">
  <defs>
    <filter id="Trazado_982547" x="0" y="0" width="113" height="113" filterUnits="userSpaceOnUse">
      <feOffset dy="3" input="SourceAlpha"/>
      <feGaussianBlur stdDeviation="3" result="blur"/>
      <feFlood flood-opacity="0.161"/>
      <feComposite operator="in" in2="blur"/>
      <feComposite in="SourceGraphic"/>
    </filter>
  </defs>
  <g id="Grupo_1231515" data-name="Grupo 1231515" transform="translate(-9109.393 -3443.455)">
    <g id="Grupo_1230845" data-name="Grupo 1230845" transform="translate(8315.902 2213.239)">
      <g id="Grupo_1208492" data-name="Grupo 1208492" transform="translate(0 -4397.209)">
        <g id="Grupo_1177675" data-name="Grupo 1177675" transform="translate(-4493 3707.152)">
          <g id="Grupo_1176928" data-name="Grupo 1176928" transform="translate(5295.49 1926.273)">
            <g id="Grupo_1172322" data-name="Grupo 1172322" transform="translate(0 0)">
              <g id="Grupo_1164700" data-name="Grupo 1164700">
                <g id="Grupo_1160931" data-name="Grupo 1160931">
                  <g id="Grupo_1160749" data-name="Grupo 1160749">
                    <g id="Grupo_1158891" data-name="Grupo 1158891">
                      <g id="Grupo_1157406" data-name="Grupo 1157406">
                        <g id="Grupo_1155793" data-name="Grupo 1155793">
                          <g id="Grupo_1154704" data-name="Grupo 1154704">
                            <g id="Grupo_1150790" data-name="Grupo 1150790">
                              <g id="Grupo_1154214" data-name="Grupo 1154214">
                                <g id="Grupo_1152583" data-name="Grupo 1152583">
                                  <g id="Grupo_1146973" data-name="Grupo 1146973">
                                    <g id="Grupo_1146954" data-name="Grupo 1146954">
                                      <g transform="matrix(1, 0, 0, 1, -9, -6)" filter="url(#Trazado_982547)">
                                        <g id="Trazado_982547-2" data-name="Trazado 982547" transform="translate(9 6)" fill="#fcf8db">
                                          <path d="M 47.5000114440918 93.49987030029297 C 41.28938293457031 93.49987030029297 35.26534652709961 92.28384399414062 29.5951976776123 89.88558959960938 C 24.11773109436035 87.56881713867188 19.19814491271973 84.25183868408203 14.97310447692871 80.02680206298828 C 10.74805164337158 75.80176544189453 7.43107795715332 70.88218688964844 5.114304542541504 65.40472412109375 C 2.716038227081299 59.73458862304688 1.500011444091797 53.71054840087891 1.500011444091797 47.49993515014648 C 1.500011444091797 41.28932189941406 2.716038227081299 35.26528167724609 5.114304542541504 29.59514808654785 C 7.43107795715332 24.1176815032959 10.74805164337158 19.1981086730957 14.97310447692871 14.97306823730469 C 19.19814491271973 10.74802875518799 24.11773109436035 7.431055068969727 29.5951976776123 5.11428165435791 C 35.26534652709961 2.716028451919556 41.28938293457031 1.500001788139343 47.5000114440918 1.500001788139343 C 53.71063995361328 1.500001788139343 59.73467636108398 2.716028451919556 65.40482330322266 5.11428165435791 C 70.88229370117188 7.431055068969727 75.8018798828125 10.74802875518799 80.02691650390625 14.97306823730469 C 84.25196838378906 19.1981086730957 87.56894683837891 24.1176815032959 89.88571929931641 29.59514808654785 C 92.28398132324219 35.26528167724609 93.50001525878906 41.28932189941406 93.50001525878906 47.49993515014648 C 93.50001525878906 53.71054840087891 92.28398132324219 59.73458862304688 89.88571929931641 65.40472412109375 C 87.56894683837891 70.88218688964844 84.25196838378906 75.80176544189453 80.02691650390625 80.02680206298828 C 75.8018798828125 84.25183868408203 70.88229370117188 87.56881713867188 65.40482330322266 89.88558959960938 C 59.73467636108398 92.28384399414062 53.71063995361328 93.49987030029297 47.5000114440918 93.49987030029297 Z" stroke="none"/>
                                          <path d="M 47.5000114440918 3 C 41.49122619628906 3 35.66378021240234 4.1761474609375 30.17951965332031 6.495796203613281 C 24.880859375 8.7369384765625 20.12153625488281 11.94596862792969 16.03376770019531 16.03373718261719 C 11.94598388671875 20.12149047851562 8.736968994140625 24.88081359863281 6.495811462402344 30.17947387695312 C 4.176162719726562 35.66371917724609 3.000007629394531 41.49116516113281 3.000007629394531 47.49993515014648 C 3.000007629394531 53.50870513916016 4.176162719726562 59.33615112304688 6.495811462402344 64.82039642333984 C 8.736968994140625 70.11905670166016 11.94598388671875 74.87837982177734 16.03376770019531 78.96613311767578 C 20.12153625488281 83.05390167236328 24.880859375 86.26293182373047 30.17951965332031 88.50407409667969 C 35.66378021240234 90.82372283935547 41.49122619628906 91.99987030029297 47.5000114440918 91.99987030029297 C 53.50879669189453 91.99987030029297 59.33624267578125 90.82372283935547 64.82050323486328 88.50407409667969 C 70.11916351318359 86.26293182373047 74.87848663330078 83.05390167236328 78.96625518798828 78.96613311767578 C 83.05403900146484 74.87837982177734 86.2630615234375 70.11905670166016 88.50421142578125 64.82039642333984 C 90.82386016845703 59.33615112304688 92.00001525878906 53.50870513916016 92.00001525878906 47.49993515014648 C 92.00001525878906 41.49116516113281 90.82386016845703 35.66371917724609 88.50421142578125 30.17947387695312 C 86.2630615234375 24.88081359863281 83.05403900146484 20.12149047851562 78.96625518798828 16.03373718261719 C 74.87848663330078 11.94596862792969 70.11916351318359 8.7369384765625 64.82050323486328 6.495796203613281 C 59.33624267578125 4.1761474609375 53.50879669189453 3 47.5000114440918 3 M 47.5000114440918 0 C 73.73353576660156 0 95.00001525878906 21.26644134521484 95.00001525878906 47.49993515014648 C 95.00001525878906 73.73342895507812 73.73353576660156 94.99987030029297 47.5000114440918 94.99987030029297 C 21.26648712158203 94.99987030029297 7.62939453125e-06 73.73342895507812 7.62939453125e-06 47.49993515014648 C 7.62939453125e-06 21.26644134521484 21.26648712158203 0 47.5000114440918 0 Z" stroke="none" fill="#83793c"/>
                                        </g>
                                      </g>
                                    </g>
                                  </g>
                                </g>
                              </g>
                            </g>
                          </g>
                        </g>
                      </g>
                    </g>
                  </g>
                </g>
              </g>
            </g>
          </g>
        </g>
      </g>
    </g>
    <g id="colegio_9_" data-name="colegio (9)" transform="translate(9135.042 3435.458)">
      <g id="Grupo_1231513" data-name="Grupo 1231513" transform="translate(0.904 28.961)">
        <path id="Trazado_1235387" data-name="Trazado 1235387" d="M256,35.557h6.762v4.83H256Z" transform="translate(-226.053 -35.557)" fill="#ff8086"/>
        <path id="Trazado_1235388" data-name="Trazado 1235388" d="M256,35.557h2.9v4.83H256Z" transform="translate(-226.053 -35.557)" fill="#e5646e"/>
        <path id="Trazado_1235389" data-name="Trazado 1235389" d="M63.529,179.847H11.364L7.5,188.541H67.393Z" transform="translate(-7.5 -162.459)" fill="#ff8086"/>
        <path id="Trazado_1235390" data-name="Trazado 1235390" d="M8.788,227.944l-1.288,2.9H67.393l-1.288-2.9Z" transform="translate(-7.5 -204.759)" fill="#e5646e"/>
        <path id="Trazado_1235391" data-name="Trazado 1235391" d="M79.561,166.239H23.532V139.19H36.09l15.456-15.456L67,139.19H79.561Z" transform="translate(-21.6 -113.108)" fill="#ffc269"/>
        <path id="Trazado_1235392" data-name="Trazado 1235392" d="M207.9,372.234H219.5V382.86H207.9Z" transform="translate(-183.752 -331.661)" fill="#c38c66"/>
        <circle id="Elipse_11587" data-name="Elipse 11587" cx="5.796" cy="5.796" r="5.796" transform="translate(24.151 22.218)" fill="#fff0af"/>
        <circle id="Elipse_11588" data-name="Elipse 11588" cx="2.898" cy="2.898" r="2.898" transform="translate(27.049 25.117)" fill="#fff"/>
        <path id="Trazado_1235393" data-name="Trazado 1235393" d="M191.871,444.379h15.456v3.864H191.871Z" transform="translate(-169.652 -395.112)" fill="#c8c5c9"/>
        <path id="Trazado_1235394" data-name="Trazado 1235394" d="M67,139.19,51.547,123.734,36.09,139.19H23.532v27.049h2.9V144.021a1.932,1.932,0,0,1,1.932-1.932h7.471a3.864,3.864,0,0,0,2.747-1.147l12.966-13.109,12.966,13.109a3.864,3.864,0,0,0,2.747,1.147h12.3v-2.9Z" transform="translate(-21.6 -113.108)" fill="#ffa95f"/>
        <path id="Trazado_1235395" data-name="Trazado 1235395" d="M344.177,292.073H357.7v5.8H344.177Z" transform="translate(-303.604 -261.16)" fill="#edf4ff"/>
        <path id="Trazado_1235396" data-name="Trazado 1235396" d="M347.076,293.039v-.966h-2.9v5.8H357.7v-2.9h-8.694A1.932,1.932,0,0,1,347.076,293.039Z" transform="translate(-303.605 -261.16)" fill="#dbeaff"/>
        <path id="Trazado_1235397" data-name="Trazado 1235397" d="M344.177,372.234H357.7v5.8H344.177Z" transform="translate(-303.604 -331.661)" fill="#edf4ff"/>
        <path id="Trazado_1235398" data-name="Trazado 1235398" d="M347.076,373.2v-.966h-2.9v5.8H357.7v-2.9h-8.694A1.932,1.932,0,0,1,347.076,373.2Z" transform="translate(-303.605 -331.661)" fill="#dbeaff"/>
        <path id="Trazado_1235399" data-name="Trazado 1235399" d="M55.6,292.073H69.121v5.8H55.6Z" transform="translate(-49.801 -261.16)" fill="#edf4ff"/>
        <path id="Trazado_1235400" data-name="Trazado 1235400" d="M58.5,293.039v-.966H55.6v5.8H69.121v-2.9H60.427A1.932,1.932,0,0,1,58.5,293.039Z" transform="translate(-49.801 -261.16)" fill="#dbeaff"/>
        <path id="Trazado_1235401" data-name="Trazado 1235401" d="M55.6,372.234H69.121v4.109H55.6Z" transform="translate(-49.801 -331.661)" fill="#edf4ff"/>
        <path id="Trazado_1235402" data-name="Trazado 1235402" d="M58.5,373.2v-.966H55.6v5.8H69.121v-2.9H60.427A1.932,1.932,0,0,1,58.5,373.2Z" transform="translate(-49.801 -331.661)" fill="#dbeaff"/>
      </g>
      <g id="Grupo_1231514" data-name="Grupo 1231514" transform="translate(0 28.057)">
        <path id="Trazado_1235403" data-name="Trazado 1235403" d="M60.8,81.188H59.769V55.947H60.8a.9.9,0,0,0,.826-1.271l-3.864-8.694a.9.9,0,0,0-.826-.537H37.987l-6.233-6.233V34.695h5.858a.9.9,0,0,0,.9-.9v-4.83a.9.9,0,0,0-.9-.9H30.85a.9.9,0,0,0-.9.9V39.213l-6.233,6.233H4.768a.9.9,0,0,0-.826.537L.078,54.676A.9.9,0,0,0,.9,55.947H1.932V81.188H.9A.9.9,0,0,0,.9,83H60.8a.9.9,0,0,0,0-1.808Zm-24.088-48.3H31.754V29.865h4.955ZM5.355,47.253H21.906L15.02,54.14H2.294ZM3.739,55.947H15.394a.9.9,0,0,0,.639-.265L30.85,40.865,45.668,55.682a.9.9,0,0,0,.639.265h6.762a.9.9,0,0,0,0-1.808H46.681l-6.887-6.887H56.346l3.061,6.887H56.933a.9.9,0,1,0,0,1.808h1.028V81.188H39.482v-2.96a.9.9,0,0,0-.9-.9H37.55v-7.79a.9.9,0,0,0-.9-.9H25.054a.9.9,0,0,0-.9.9v7.79H23.122a.9.9,0,0,0-.9.9v2.96H3.739Zm32,14.49v6.887H31.754V70.438Zm-5.8,6.887H25.958V70.438h3.989Zm7.728,1.808v2.056H24.026V79.132Z" transform="translate(0 -28.057)"/>
        <path id="Trazado_1235404" data-name="Trazado 1235404" d="M207.1,225.827a6.7,6.7,0,1,0-6.7-6.7A6.708,6.708,0,0,0,207.1,225.827Zm0-11.592a4.892,4.892,0,1,1-4.892,4.892A4.9,4.9,0,0,1,207.1,214.235Z" transform="translate(-176.252 -190.209)"/>
        <path id="Trazado_1235405" data-name="Trazado 1235405" d="M249.4,257.213a.9.9,0,0,0,.9-.9v-1.373l1.432-.716a.9.9,0,1,0-.808-1.617l-1.932.966a.9.9,0,0,0-.5.808v1.932A.9.9,0,0,0,249.4,257.213Z" transform="translate(-218.553 -225.458)"/>
        <path id="Trazado_1235406" data-name="Trazado 1235406" d="M62.525,364.734H49a.9.9,0,0,0-.9.9v5.8a.9.9,0,0,0,.9.9h1.932a.9.9,0,0,0,0-1.808H49.9v-3.988h4.955v3.988H54.8a.9.9,0,0,0,0,1.808h7.728a.9.9,0,0,0,.9-.9v-5.8A.9.9,0,0,0,62.525,364.734Zm-.9,5.8H56.667v-3.988h4.955Z" transform="translate(-42.301 -324.161)"/>
        <path id="Trazado_1235407" data-name="Trazado 1235407" d="M62.525,284.573H49a.9.9,0,0,0-.9.9v5.8a.9.9,0,0,0,.9.9H62.525a.9.9,0,0,0,.9-.9v-5.8A.9.9,0,0,0,62.525,284.573ZM49.9,286.381h4.955v3.989H49.9Zm11.717,3.988H56.667v-3.988h4.955Z" transform="translate(-42.301 -253.66)"/>
        <path id="Trazado_1235408" data-name="Trazado 1235408" d="M337.581,372.338h13.524a.9.9,0,0,0,.9-.9v-5.8a.9.9,0,0,0-.9-.9H337.581a.9.9,0,0,0-.9.9v5.8A.9.9,0,0,0,337.581,372.338ZM350.2,370.53h-4.955v-3.988H350.2Zm-11.717-3.988h4.955v3.988h-4.955Z" transform="translate(-296.104 -324.161)"/>
        <path id="Trazado_1235409" data-name="Trazado 1235409" d="M337.581,292.176h13.524a.9.9,0,0,0,.9-.9v-5.8a.9.9,0,0,0-.9-.9H337.581a.9.9,0,0,0-.9.9v5.8A.9.9,0,0,0,337.581,292.176Zm12.621-1.808h-4.955V286.38H350.2Zm-11.717-3.988h4.955v3.988h-4.955Z" transform="translate(-296.104 -253.659)"/>
      </g>
    </g>
  </g>
</svg>
