<svg xmlns="http://www.w3.org/2000/svg" xmlns:xlink="http://www.w3.org/1999/xlink" width="400" height="415" viewBox="0 0 400 415">
  <defs>
    <clipPath id="clip-path">
      <rect id="Rectángulo_424081" data-name="Rectángulo 424081" width="400" height="415" transform="translate(1020.098 4229)" fill="#fff" stroke="#707070" stroke-width="1"/>
    </clipPath>
    <clipPath id="clip-path-2">
      <rect id="Rectángulo_424086" data-name="Rectángulo 424086" width="473" height="473" transform="translate(0.375 0.375)"/>
    </clipPath>
  </defs>
  <g id="Grupo_1231569" data-name="Grupo 1231569" transform="translate(-1020.098 -4229)">
    <rect id="Rectángulo_424089" data-name="Rectángulo 424089" width="284" height="287" rx="15" transform="translate(1087.098 4304)" fill="#f3de50"/>
    <g id="Grupo_1231568" data-name="Grupo 1231568">
      <g id="Enmascarar_grupo_1098767" data-name="Enmascarar grupo 1098767" clip-path="url(#clip-path)">
        <g id="OBJECTS" transform="translate(987.722 4170.625)">
          <g id="Grupo_1231562" data-name="Grupo 1231562">
            <g id="Grupo_1231557" data-name="Grupo 1231557" clip-path="url(#clip-path-2)">
              <g id="Grupo_1231556" data-name="Grupo 1231556" transform="translate(-13.909 117.343)">
                <rect id="Rectángulo_424085" data-name="Rectángulo 424085" width="512.627" height="132.996" transform="translate(0 258.828)" fill="#2b3043"/>
                <g id="Grupo_1231525" data-name="Grupo 1231525" transform="translate(58.712 154.184)">
                  <g id="Grupo_1231524" data-name="Grupo 1231524" transform="translate(11.558 5.829)">
                    <path id="Trazado_1235414" data-name="Trazado 1235414" d="M71.6,272.84c-19.916-3.817-40.037,9.9-46.307,28.726C17.548,324.833,35.509,354.049,61,355.221a42.273,42.273,0,0,0,14.741-2.188c12.382-3.959,23.707-12.822,28.074-25.066a38.571,38.571,0,0,0,2.083-14.341C105.2,294.461,90.436,276.45,71.6,272.84Z" transform="translate(-23.476 -272.2)" fill="#37c6ed"/>
                    <path id="Trazado_1235415" data-name="Trazado 1235415" d="M41.239,282.425c1.236.175,5.457,2.171,5.991,3.3a2.706,2.706,0,0,0,.622,1.036,1.628,1.628,0,0,0,1.422.157,16.694,16.694,0,0,0,3.281-1.716,3.4,3.4,0,0,1,3.518-.128c.764.567,1.011,2.118,1.363,3,.539,1.351.967,2.854.559,3.713-.865,1.823-3.609,2.173-4.474,4a10.651,10.651,0,0,0-1.458,5.353c.09,1.011.462,2.077.039,3-.551,1.2-2.092,1.476-3.394,1.7s-4.176,1.694-3.965,3c.522,3.23,4.206,5.557,7.51,7.387-.257.827.777,1.53,1.64,1.468s1.648-.546,2.508-.643c.94-.106,1.9.259,2.826.077a10.085,10.085,0,0,0,2.012-.891c.674-.3,2.22-.55,2.768-.058a52.831,52.831,0,0,1,10.4,1.108c.054,3.448,1.585,7.1-.036,10.143a11.414,11.414,0,0,1-3.909,4.511q1.279,4.193,2.556,8.387a3.338,3.338,0,0,1,.191,1.908c-.31,1.023-1.983,1.923-1.785,2.973.488,2.586,1.02,5.605,1.508,8.191-1.546.077-3.574.177-5.113.341l-1.626-4.206a14.531,14.531,0,0,0-1.261-2.7,9.825,9.825,0,0,0-2.381-2.683c-1.526-3.674-3.617-6.731-5.39-10.294a25.421,25.421,0,0,1-9.809-6.109,9.924,9.924,0,0,1-.01-2.822q.312-3.4.626-6.8a14.593,14.593,0,0,1-2.932-3.024,6.932,6.932,0,0,0-2.26-2.463c-.883-.418-2.068-.379-2.618-1.187a9.184,9.184,0,0,0-6.213-3.615c-1.437-.182-2.992.216-4.286-.433a5.816,5.816,0,0,1-1.495-1.23c-.442-.456-1.991-2.182-2.433-2.638C28.881,294.544,32.978,287.157,41.239,282.425Z" transform="translate(-23.91 -274.171)" fill="#60a9a1"/>
                    <path id="Trazado_1235416" data-name="Trazado 1235416" d="M102.1,357.619a29.67,29.67,0,0,0,12.957-15.459" transform="translate(-38.634 -285.687)" fill="none" stroke="#2b3043" stroke-miterlimit="10" stroke-width="2"/>
                    <path id="Trazado_1235417" data-name="Trazado 1235417" d="M119.85,337.216l1.417-4.129" transform="translate(-42.056 -283.938)" fill="none" stroke="#2b3043" stroke-miterlimit="10" stroke-width="2"/>
                    <path id="Trazado_1235418" data-name="Trazado 1235418" d="M27.258,309.543c.853,1.455,1.933,3.066,3.606,3.277a8.156,8.156,0,0,0,1.84-.113,8.8,8.8,0,0,1,7.659,3.243,6.117,6.117,0,0,0,4.683,2.5c1.149,1.468,2.153,3.544,3.3,5.013" transform="translate(-24.205 -279.399)" fill="none" stroke="#204c30" stroke-linecap="round" stroke-linejoin="round" stroke-miterlimit="10" stroke-width="2"/>
                    <path id="Trazado_1235419" data-name="Trazado 1235419" d="M56.334,321.189l-2.621-1.871a10.946,10.946,0,0,1-3.193-3.005,3.728,3.728,0,0,1-.025-4.147,45.571,45.571,0,0,0,5.741-1.694" transform="translate(-28.566 -279.578)" fill="none" stroke="#204c30" stroke-linecap="round" stroke-linejoin="round" stroke-miterlimit="10" stroke-width="2"/>
                    <path id="Trazado_1235420" data-name="Trazado 1235420" d="M58.531,306.735a5.419,5.419,0,0,0,.177-3.385" transform="translate(-30.234 -278.205)" fill="none" stroke="#204c30" stroke-linecap="round" stroke-linejoin="round" stroke-miterlimit="10" stroke-width="2"/>
                    <path id="Trazado_1235421" data-name="Trazado 1235421" d="M58.759,297.245a5.663,5.663,0,0,1,1.462-2.912,9.062,9.062,0,0,1,3.89-2.586,20.427,20.427,0,0,0-1.992-7.054c-1.9.668-4.909,1.494-6.813,2.162" transform="translate(-29.613 -274.608)" fill="none" stroke="#204c30" stroke-linecap="round" stroke-linejoin="round" stroke-miterlimit="10" stroke-width="2"/>
                    <path id="Trazado_1235422" data-name="Trazado 1235422" d="M50.31,285.241l-4.3-2.536" transform="translate(-27.82 -274.225)" fill="none" stroke="#204c30" stroke-linecap="round" stroke-linejoin="round" stroke-miterlimit="10" stroke-width="2"/>
                    <path id="Trazado_1235423" data-name="Trazado 1235423" d="M52.676,329.206q-.545,3.728-.887,7.484a53.559,53.559,0,0,0,10.751,6.436c1.528,3.086,3.2,6.283,4.733,9.368a49.863,49.863,0,0,0,2.828,4.259,18.335,18.335,0,0,1,2.621,5.98,12.344,12.344,0,0,0,4.323-.292" transform="translate(-28.934 -283.19)" fill="none" stroke="#204c30" stroke-linecap="round" stroke-linejoin="round" stroke-miterlimit="10" stroke-width="2"/>
                    <path id="Trazado_1235424" data-name="Trazado 1235424" d="M58.342,323.842a3,3,0,0,0,2.4,1.311,8.875,8.875,0,0,0,2.8-.4l.586-.149a5.408,5.408,0,0,1,2.841-.2c.628.186,1.538.475,1.749-.145" transform="translate(-30.198 -282.156)" fill="none" stroke="#204c30" stroke-linecap="round" stroke-linejoin="round" stroke-miterlimit="10" stroke-width="2"/>
                    <path id="Trazado_1235425" data-name="Trazado 1235425" d="M75.884,324.521a58.815,58.815,0,0,0,7.759.743c.513,2.785,1.159,6.195.849,9.009-1.1,1.159-2.3,2.945-3.4,4.1a3.954,3.954,0,0,0-.721.935c-.53,1.079.006,2.355.537,3.433.615,1.249.578,3.354,1.013,4.676a4.657,4.657,0,0,1,.275,3.1c-.294.753-.983,1.356-1.053,2.162-.17,1.953.712,4.3,1.463,6.107" transform="translate(-33.58 -282.286)" fill="none" stroke="#204c30" stroke-linecap="round" stroke-linejoin="round" stroke-miterlimit="10" stroke-width="2"/>
                    <path id="Trazado_1235426" data-name="Trazado 1235426" d="M117.033,314.367c-2.041-1.911-5.774-3.394-8.545-3.017a3.774,3.774,0,0,1-1.828.006,4.871,4.871,0,0,1-1.316-1,12.671,12.671,0,0,1-1.9-1.9c-1.986-2.584-2.439-4.374-2.028-6.8a18.424,18.424,0,0,0-.316-8.231,5.275,5.275,0,0,0-1.643-2.865c-.346-.259-1.216.264-2.163,1.023a4.727,4.727,0,0,1-6.658-.7,2.573,2.573,0,0,0-2.324-1.288,23.712,23.712,0,0,1-4.324.546c-1.455-.063-2.782-4.605-2.884-5.393a3.488,3.488,0,0,1,.249-1.772,20.72,20.72,0,0,0,.848-2.483c.658-2.458-2.6-4.9.061-7.614,9.837,1.829,15,5.168,20.529,10.545C111.476,291.878,116.651,302.208,117.033,314.367Z" transform="translate(-34.581 -272.331)" fill="#60a9a1"/>
                    <path id="Trazado_1235427" data-name="Trazado 1235427" d="M82.219,273.122a3.343,3.343,0,0,0-.952,2.714,9.9,9.9,0,0,0,.778,2.862" transform="translate(-34.616 -272.377)" fill="none" stroke="#204c30" stroke-linecap="round" stroke-linejoin="round" stroke-miterlimit="10" stroke-width="2"/>
                    <path id="Trazado_1235428" data-name="Trazado 1235428" d="M81.917,282.434a23,23,0,0,1-1.457,3.559" transform="translate(-34.462 -274.173)" fill="none" stroke="#204c30" stroke-linecap="round" stroke-linejoin="round" stroke-miterlimit="10" stroke-width="2"/>
                    <path id="Trazado_1235429" data-name="Trazado 1235429" d="M81.1,288.6l1.137,2.882a2.976,2.976,0,0,0,.672,1.153,2.087,2.087,0,0,0,1.655.43,9.573,9.573,0,0,0,1.7-.462,11.608,11.608,0,0,1,3.281-.521" transform="translate(-34.585 -275.362)" fill="none" stroke="#204c30" stroke-linecap="round" stroke-linejoin="round" stroke-miterlimit="10" stroke-width="2"/>
                    <path id="Trazado_1235430" data-name="Trazado 1235430" d="M92.941,294.594a4.544,4.544,0,0,0,3.724,2.284" transform="translate(-36.868 -276.517)" fill="none" stroke="#204c30" stroke-linecap="round" stroke-linejoin="round" stroke-miterlimit="10" stroke-width="2"/>
                    <path id="Trazado_1235431" data-name="Trazado 1235431" d="M102.145,295.683a1.623,1.623,0,0,1,1.92.554,4.743,4.743,0,0,1,.782,2q.149.668.3,1.336" transform="translate(-38.642 -276.701)" fill="none" stroke="#204c30" stroke-linecap="round" stroke-linejoin="round" stroke-miterlimit="10" stroke-width="2"/>
                    <path id="Trazado_1235432" data-name="Trazado 1235432" d="M106.79,304.434a40.939,40.939,0,0,0-.739,5.641c-.015.258,0,.565.212.706" transform="translate(-39.395 -278.414)" fill="none" stroke="#204c30" stroke-linecap="round" stroke-linejoin="round" stroke-miterlimit="10" stroke-width="2"/>
                    <path id="Trazado_1235433" data-name="Trazado 1235433" d="M108.027,315.452a27.537,27.537,0,0,0,2.791,3.313" transform="translate(-39.776 -280.538)" fill="none" stroke="#204c30" stroke-linecap="round" stroke-linejoin="round" stroke-miterlimit="10" stroke-width="2"/>
                    <path id="Trazado_1235434" data-name="Trazado 1235434" d="M114.579,320.738a11.282,11.282,0,0,1,4.774.13" transform="translate(-41.04 -281.52)" fill="none" stroke="#204c30" stroke-linecap="round" stroke-linejoin="round" stroke-miterlimit="10" stroke-width="2"/>
                    <path id="Trazado_1235435" data-name="Trazado 1235435" d="M122.882,322.242l1.288,1.191" transform="translate(-42.64 -281.847)" fill="none" stroke="#204c30" stroke-linecap="round" stroke-linejoin="round" stroke-miterlimit="10" stroke-width="2"/>
                    <path id="Trazado_1235436" data-name="Trazado 1235436" d="M38.657,301.963a31.5,31.5,0,0,0,4.9,2.022" transform="translate(-26.403 -277.938)" fill="none" stroke="#204c30" stroke-linecap="round" stroke-linejoin="round" stroke-miterlimit="10" stroke-width="2"/>
                    <path id="Trazado_1235437" data-name="Trazado 1235437" d="M38.1,298.452l4.553,1.871" transform="translate(-26.296 -277.261)" fill="none" stroke="#204c30" stroke-linecap="round" stroke-linejoin="round" stroke-miterlimit="10" stroke-width="2"/>
                    <path id="Trazado_1235438" data-name="Trazado 1235438" d="M29.633,336.889A30.109,30.109,0,0,1,26.7,320.176" transform="translate(-24.062 -281.449)" fill="none" stroke="#004963" stroke-linecap="round" stroke-linejoin="round" stroke-miterlimit="10" stroke-width="2"/>
                    <path id="Trazado_1235439" data-name="Trazado 1235439" d="M31.849,344.8A13.608,13.608,0,0,0,33.477,348" transform="translate(-25.09 -286.197)" fill="none" stroke="#004963" stroke-linecap="round" stroke-linejoin="round" stroke-miterlimit="10" stroke-width="2"/>
                    <path id="Trazado_1235440" data-name="Trazado 1235440" d="M36.14,352.818a69.078,69.078,0,0,0,5.541,5.787" transform="translate(-25.918 -287.742)" fill="none" stroke="#004963" stroke-linecap="round" stroke-linejoin="round" stroke-miterlimit="10" stroke-width="2"/>
                    <path id="Trazado_1235441" data-name="Trazado 1235441" d="M113.888,297.509a32.305,32.305,0,0,1,3.817,6.547" transform="translate(-40.906 -277.079)" fill="none" stroke="#204c30" stroke-linecap="round" stroke-linejoin="round" stroke-miterlimit="10" stroke-width="2"/>
                    <path id="Trazado_1235442" data-name="Trazado 1235442" d="M120.442,309.6a7.587,7.587,0,0,1,.994,2.8" transform="translate(-42.17 -279.411)" fill="none" stroke="#204c30" stroke-linecap="round" stroke-linejoin="round" stroke-miterlimit="10" stroke-width="2"/>
                    <path id="Trazado_1235443" data-name="Trazado 1235443" d="M69.494,337.525l4.066,1.715" transform="translate(-32.348 -284.793)" fill="none" stroke="#204c30" stroke-linecap="round" stroke-linejoin="round" stroke-miterlimit="10" stroke-width="2"/>
                  </g>
                  <path id="Trazado_1235444" data-name="Trazado 1235444" d="M105.524,369.743q-1.59-2.464-3.406-4.771c1.19-.725,2.439-1.744,3.628-2.469a49.926,49.926,0,0,0,3.463,4.383A29.019,29.019,0,0,0,105.524,369.743Z" transform="translate(-27.079 -283.779)" fill="#f4f4f4"/>
                  <path id="Trazado_1235445" data-name="Trazado 1235445" d="M42.428,282.252q-1.59-2.464-3.406-4.771c1.19-.725,2.439-1.744,3.628-2.469a49.922,49.922,0,0,0,3.463,4.383A29.085,29.085,0,0,0,42.428,282.252Z" transform="translate(-14.915 -266.912)" fill="none" stroke="#2b3043" stroke-miterlimit="10" stroke-width="2"/>
                  <path id="Trazado_1235446" data-name="Trazado 1235446" d="M102.314,365.543l3.154,3.83" transform="translate(-27.117 -284.366)" fill="none" stroke="#2b3043" stroke-miterlimit="10" stroke-width="2"/>
                  <path id="Trazado_1235447" data-name="Trazado 1235447" d="M107.048,362.67l3.353,4.419" transform="translate(-28.03 -283.812)" fill="none" stroke="#2b3043" stroke-miterlimit="10" stroke-width="2"/>
                  <path id="Trazado_1235448" data-name="Trazado 1235448" d="M95.5,344.64c-.505.779-1.16.977-1.825,1.625a48.74,48.74,0,0,1-30.633,13.608c-32.493,2.062-53.433-27.612-46.6-58.038,3.159-14.06,13.717-25.851,26.059-33.289l-.057.112-3.015-3.681c-11.082,5.806-21.457,15.852-26.088,27.474s-5.75,25.637-1.7,37.473a80.2,80.2,0,0,0,9.67,18.585c1.821,2.68,4.546,4.571,6.84,6.86,7.131,7.113,17.963,9.467,27.983,10.493,8.187.838,15.1-.453,22.892-3.109a41.618,41.618,0,0,0,19.818-14.36c-1.318-1.9-2.159-1.9-3.477-3.8" transform="translate(-9.158 -264.978)" fill="#c17e11"/>
                  <path id="Trazado_1235449" data-name="Trazado 1235449" d="M39.227,278.86l2.866,3.576" transform="translate(-14.955 -267.654)" fill="none" stroke="#2b3043" stroke-miterlimit="10" stroke-width="2"/>
                  <path id="Trazado_1235450" data-name="Trazado 1235450" d="M43.3,274.988l3.117,4.387" transform="translate(-15.739 -266.908)" fill="none" stroke="#2b3043" stroke-miterlimit="10" stroke-width="2"/>
                  <path id="Trazado_1235451" data-name="Trazado 1235451" d="M64.856,400.079c11.133.342,20.755,2.412,22.089,4.524,2.029,3.213-4.814,4.131-8.226,4.532-11.609,1.363-25.3,2.634-36.281-.836-1.6-.505-3.373-1.258-3.7-2.573-.383-1.556,1.529-2.889,3.435-3.417A70.512,70.512,0,0,1,58.2,400.09" transform="translate(-14.852 -291.024)" fill="#c17e11"/>
                  <path id="Trazado_1235452" data-name="Trazado 1235452" d="M62.433,402.231a111.338,111.338,0,0,0,.434-12.388" transform="translate(-19.429 -289.05)" fill="none" stroke="#2b3043" stroke-miterlimit="10" stroke-width="2"/>
                  <path id="Trazado_1235453" data-name="Trazado 1235453" d="M70.533,391.375a112.713,112.713,0,0,1,.075,11.323" transform="translate(-20.99 -289.346)" fill="none" stroke="#2b3043" stroke-miterlimit="10" stroke-width="2"/>
                </g>
                <g id="Grupo_1231546" data-name="Grupo 1231546" transform="translate(163.845)">
                  <g id="Grupo_1231526" data-name="Grupo 1231526" transform="translate(46.754 2.911)">
                    <path id="Trazado_1235454" data-name="Trazado 1235454" d="M295.409,155.1c.389,11.1-2.8,29.467-1.594,33.725s16.362,16.863,14.488,36.62-18.907,33.9-52.461,32.533-44.285-16.01-44.285-34.917,14.008-28.412,15.52-37.03-6.32-14.32-7.684-24.5,20.268-33.684,31.084-31.47,17.8.069,29.637,6.933S294.949,141.988,295.409,155.1Z" transform="translate(-207.955 -127.172)" fill="#2b3043"/>
                    <path id="Trazado_1235455" data-name="Trazado 1235455" d="M226.874,189.191c-7.52,13.409-17.564,18.635-19.012,35.583-1.746,20.436,17.919,29.065,17.919,29.065" transform="translate(-207.752 -130.328)" fill="none" stroke="#485972" stroke-linecap="round" stroke-linejoin="round" stroke-miterlimit="10" stroke-width="0.956"/>
                    <path id="Trazado_1235456" data-name="Trazado 1235456" d="M268.767,129.4s19.387-8.808,29.688,7.444c9.317,14.7-5.587,29.858-5.587,29.858" transform="translate(-211.001 -127.017)" fill="none" stroke="#485972" stroke-linecap="round" stroke-linejoin="round" stroke-miterlimit="10" stroke-width="0.956"/>
                  </g>
                  <g id="Grupo_1231529" data-name="Grupo 1231529" transform="translate(51.717 72.061)">
                    <g id="Grupo_1231527" data-name="Grupo 1231527">
                      <path id="Trazado_1235457" data-name="Trazado 1235457" d="M246.039,200.058l-2.725,33.725L213,241.107s15.841,36.11,47.692,34.577,46.159-34.066,46.159-34.066l-29.467-8.176-2.555-32.533Z" transform="translate(-212.995 -200.057)" fill="#d69f82"/>
                      <path id="Trazado_1235458" data-name="Trazado 1235458" d="M277.813,216.192l-1.2-15.283-28.786-.852-1.245,15.407C256.139,225.527,268.562,225.382,277.813,216.192Z" transform="translate(-214.783 -200.057)" fill="#d69f82" opacity="0.57"/>
                    </g>
                    <g id="Grupo_1231528" data-name="Grupo 1231528" transform="translate(14.819 48.289)">
                      <line id="Línea_818" data-name="Línea 818" x2="21.187" transform="translate(46.051)" fill="none" stroke="#313d4c" stroke-linecap="round" stroke-linejoin="round" stroke-miterlimit="10" stroke-width="0.956"/>
                      <line id="Línea_819" data-name="Línea 819" x1="21.187" fill="none" stroke="#313d4c" stroke-linecap="round" stroke-linejoin="round" stroke-miterlimit="10" stroke-width="0.956"/>
                    </g>
                  </g>
                  <g id="Grupo_1231538" data-name="Grupo 1231538" transform="translate(0 107.491)">
                    <g id="Grupo_1231531" data-name="Grupo 1231531">
                      <path id="Trazado_1235459" data-name="Trazado 1235459" d="M227.63,237.479s2.923,29.254,28.616,30.66,34.236-29.978,34.236-29.978,50.8,5.968,58.466,30.023-1.856,142.766-32.576,151.292c-26.7,7.409-46.521-30.66-46.521-30.66H237s-19.12,36.025-45.946,28.36-34.887-98.207-32.192-128.385C162.693,245.868,227.63,237.479,227.63,237.479Z" transform="translate(-158.369 -237.479)" fill="#60a9a1"/>
                      <g id="Grupo_1231530" data-name="Grupo 1231530" transform="translate(31.784 83.121)">
                        <path id="Trazado_1235460" data-name="Trazado 1235460" d="M210.511,342.084a151.625,151.625,0,0,1-3.6-16.809s-8.327,5.251-12.159,23.9-2.64,26.145-2.64,26.145C196.531,364.553,201.506,353.688,210.511,342.084Z" transform="translate(-191.941 -325.275)" fill="#2c7a6f" opacity="0.41"/>
                        <path id="Trazado_1235461" data-name="Trazado 1235461" d="M265.844,354.641,262.71,338.2l-3.329,7.8,2.053.658c-5.625,17.822-11.928,34.359-20.013,47.522h32.852c-5.365-9.857-9.519-22.922-12.839-38.2Z" transform="translate(-194.575 -325.963)" fill="#2c7a6f" opacity="0.41"/>
                        <path id="Trazado_1235462" data-name="Trazado 1235462" d="M308.4,345.37s1.416-12.115,2.288-19.013c0,0,8.141,7.754,11.974,26.4s3.406,28.073,3.406,28.073C321.65,370.068,316.416,358.136,308.4,345.37Z" transform="translate(-198.142 -325.333)" fill="#2c7a6f" opacity="0.41"/>
                      </g>
                    </g>
                    <g id="Grupo_1231532" data-name="Grupo 1231532" transform="translate(30.767 2.978)">
                      <path id="Trazado_1235463" data-name="Trazado 1235463" d="M224.555,240.624c1.064,11.672,11.519,34.383,37.345,34.411,24.783.027,36.269-28.32,38.573-33.194" transform="translate(-192.66 -240.624)" fill="none" stroke="#313d4c" stroke-linecap="round" stroke-linejoin="round" stroke-miterlimit="10" stroke-width="0.956"/>
                      <path id="Trazado_1235464" data-name="Trazado 1235464" d="M218.662,336.879c5.579,14.563,19.162,24.527,31.426,29.126" transform="translate(-192.346 -245.749)" fill="none" stroke="#313d4c" stroke-linecap="round" stroke-linejoin="round" stroke-miterlimit="10" stroke-width="0.956"/>
                      <path id="Trazado_1235465" data-name="Trazado 1235465" d="M190.866,378.414c6.388-19.162,19.492-37.136,35.258-58,8.415,12.478,19.07,21.268,32.618,25.293,0,0-9.2,28.871-20.013,47.522S214.1,420.97,202.613,422.558" transform="translate(-190.866 -244.873)" fill="none" stroke="#313d4c" stroke-linecap="round" stroke-linejoin="round" stroke-miterlimit="10" stroke-width="0.956"/>
                      <path id="Trazado_1235466" data-name="Trazado 1235466" d="M324.219,383.194c-5.621-17.118-22.92-44.989-22.92-44.989a134.253,134.253,0,0,1-38.739,17.779s4.214,22.275,12.839,38.2,17.74,23.9,28.682,29.326" transform="translate(-194.684 -245.82)" fill="none" stroke="#313d4c" stroke-linecap="round" stroke-linejoin="round" stroke-miterlimit="10" stroke-width="0.956"/>
                      <path id="Trazado_1235467" data-name="Trazado 1235467" d="M268.947,373.231c13.286.027,30.148-10.021,40.708-20.071" transform="translate(-195.024 -246.616)" fill="none" stroke="#313d4c" stroke-linecap="round" stroke-linejoin="round" stroke-miterlimit="10" stroke-width="0.956"/>
                      <path id="Trazado_1235468" data-name="Trazado 1235468" d="M207.757,325.275a151.39,151.39,0,0,0,3.6,16.809" transform="translate(-191.765 -245.132)" fill="none" stroke="#313d4c" stroke-linecap="round" stroke-linejoin="round" stroke-miterlimit="10" stroke-width="0.956"/>
                      <path id="Trazado_1235469" data-name="Trazado 1235469" d="M310.747,325.275a195.638,195.638,0,0,1-2.351,20.037" transform="translate(-197.124 -245.132)" fill="none" stroke="#313d4c" stroke-linecap="round" stroke-linejoin="round" stroke-miterlimit="10" stroke-width="0.956"/>
                    </g>
                    <g id="Grupo_1231534" data-name="Grupo 1231534" transform="translate(69.684 44.188)">
                      <g id="Grupo_1231533" data-name="Grupo 1231533" transform="translate(0 0.001)">
                        <path id="Trazado_1235470" data-name="Trazado 1235470" d="M298.61,336.043s-2.165-20.111-11.7-31.523-29.644-20.324-46.187-20.366c-8.046-.021-11.895,25.392-5.635,26.266,2.467,7.716,5.634,5.674,11.455,5.854,0,0,6.473.341,9.879,4.258s8.924,31.232,8.924,31.232A143.316,143.316,0,0,0,298.61,336.043Z" transform="translate(-231.972 -284.153)" fill="#d69f82"/>
                        <path id="Trazado_1235471" data-name="Trazado 1235471" d="M257.026,321.112c2.507,2.883,6.157,18.435,7.909,26.45.662-1.1,1.332-2.187,2.022-3.263a96.928,96.928,0,0,1,16.091-18.874,71.007,71.007,0,0,1,11.281-8.273,44.04,44.04,0,0,0-6.816-12.049,49.855,49.855,0,0,0-11.432-10.019,86.746,86.746,0,0,0-16.166,7.088,90.543,90.543,0,0,0-14.107,10.71,36.839,36.839,0,0,0-2.4,3.023,23.537,23.537,0,0,0,3.734.951S253.62,317.194,257.026,321.112Z" transform="translate(-232.581 -284.735)" fill="#d69f82" opacity="0.57"/>
                      </g>
                      <path id="Trazado_1235472" data-name="Trazado 1235472" d="M265.341,351.762a143.225,143.225,0,0,0,33.269-15.721s-2.165-20.111-11.7-31.523-29.644-20.324-46.187-20.366c-8.046-.021-11.895,25.392-5.635,26.266,2.467,7.716,5.634,5.674,11.455,5.854,0,0,6.473.341,9.879,4.258" transform="translate(-231.972 -284.152)" fill="none" stroke="#313d4c" stroke-linecap="round" stroke-linejoin="round" stroke-miterlimit="10" stroke-width="0.956"/>
                      <path id="Trazado_1235473" data-name="Trazado 1235473" d="M243.945,291.27c-7.622-1.022-8.686,19.526-8.686,19.526" transform="translate(-232.147 -284.529)" fill="none" stroke="#313d4c" stroke-linecap="round" stroke-linejoin="round" stroke-miterlimit="10" stroke-width="0.956"/>
                    </g>
                    <g id="Grupo_1231535" data-name="Grupo 1231535" transform="translate(124.618 47.854)">
                      <path id="Trazado_1235474" data-name="Trazado 1235474" d="M307.029,298.594s13.8-.17,24.016-1.362a103.591,103.591,0,0,0,19.077-4.216v-2.938a236.838,236.838,0,0,0-32.533-2.044c-17.374.17-27.593,2.044-27.593,2.044Z" transform="translate(-289.996 -288.024)" fill="#2b3043"/>
                      <path id="Trazado_1235475" data-name="Trazado 1235475" d="M332.283,297.35c.317-.034.631-.07.942-.106a103.591,103.591,0,0,0,19.077-4.216V290.09s-8.9-1.3-20.878-1.83A12.384,12.384,0,0,0,332.283,297.35Z" transform="translate(-292.175 -288.037)" fill="#e6f5ff"/>
                      <path id="Trazado_1235476" data-name="Trazado 1235476" d="M353.5,290.631s4.833.351,4.876.99-4.876,1.134-4.876,1.134Z" transform="translate(-293.378 -288.163)" fill="#2b3043"/>
                    </g>
                    <g id="Grupo_1231537" data-name="Grupo 1231537" transform="translate(67.049 42.076)">
                      <path id="Trazado_1235477" data-name="Trazado 1235477" d="M229.189,319.849s12.6-22.432,22.482-31.119,31.511-7.154,42.582-5.621a121.683,121.683,0,0,1,20.1,4.6l-18.566,2.044s8.857,2.214,9.879,7.835,1.874,20.61-1.192,20.78a3.451,3.451,0,0,1-3.753-2.214c1.709,9.709-5.154,12.69-6.808,6.132-3.466-13.748-22.142-9.823-22.142-9.823L258.73,343C247,338.864,237.089,331.276,229.189,319.849Z" transform="translate(-229.189 -281.922)" fill="#d69f82"/>
                      <g id="Grupo_1231536" data-name="Grupo 1231536" transform="translate(0 0.001)">
                        <path id="Trazado_1235478" data-name="Trazado 1235478" d="M295.785,289.753s8.857,2.214,9.879,7.835,1.874,20.61-1.192,20.78a3.451,3.451,0,0,1-3.753-2.214c1.709,9.709-5.154,12.69-6.808,6.132-3.466-13.748-22.142-9.823-22.142-9.823L258.73,343c-11.726-4.139-21.641-11.726-29.541-23.154,0,0,12.6-22.432,22.482-31.119s31.511-7.154,42.582-5.621a123.373,123.373,0,0,1,19.694,4.391" transform="translate(-229.189 -281.923)" fill="none" stroke="#313d4c" stroke-linecap="round" stroke-linejoin="round" stroke-miterlimit="10" stroke-width="0.956"/>
                        <path id="Trazado_1235479" data-name="Trazado 1235479" d="M280.461,301.392c3.449-.128,20.556,1.448,22.989,15.8" transform="translate(-231.919 -282.959)" fill="none" stroke="#313d4c" stroke-linecap="round" stroke-linejoin="round" stroke-miterlimit="10" stroke-width="0.956"/>
                        <path id="Trazado_1235480" data-name="Trazado 1235480" d="M283.3,293.3c6,.256,22.849,2.677,26.115,13.539" transform="translate(-232.07 -282.529)" fill="none" stroke="#313d4c" stroke-linecap="round" stroke-linejoin="round" stroke-miterlimit="10" stroke-width="0.956"/>
                        <path id="Trazado_1235481" data-name="Trazado 1235481" d="M284.509,287.9c6.388.511,11.587,1.266,14.223,2.172" transform="translate(-232.135 -282.241)" fill="none" stroke="#313d4c" stroke-linecap="round" stroke-linejoin="round" stroke-miterlimit="10" stroke-width="0.956"/>
                      </g>
                    </g>
                  </g>
                  <g id="Grupo_1231544" data-name="Grupo 1231544" transform="translate(53.158 12.738)">
                    <g id="Grupo_1231539" data-name="Grupo 1231539" transform="translate(66.739 34.586)">
                      <path id="Trazado_1235482" data-name="Trazado 1235482" d="M291.274,178.336c6.207-5.8,17.87-6.81,19.077,2.714,1.533,12.093-16.516,24.309-24.66,13.16C283.609,191.361,286.532,182.768,291.274,178.336Z" transform="translate(-285.009 -173.928)" fill="#d69f82"/>
                      <path id="Trazado_1235483" data-name="Trazado 1235483" d="M291.274,178.336c-4.741,4.432-7.665,13.025-5.583,15.874a10.8,10.8,0,0,0,3.559,3.182c1.616-5.012,5.714-14.145,15.631-23.017a10.608,10.608,0,0,0-3.14-.44A16.573,16.573,0,0,0,291.274,178.336Z" transform="translate(-285.009 -173.928)" fill="#d69f82" opacity="0.57"/>
                      <line id="Línea_820" data-name="Línea 820" x1="20.702" y2="7.926" transform="translate(4.732 4.408)" fill="none" stroke="#313d4c" stroke-linecap="round" stroke-linejoin="round" stroke-miterlimit="10" stroke-width="0.956"/>
                      <path id="Trazado_1235484" data-name="Trazado 1235484" d="M291.431,199.418a18.263,18.263,0,0,0-1.424,7.564c0,5.456,1.787,9.879,3.992,9.879s3.992-4.423,3.992-9.879S296.2,197.1,294,197.1" transform="translate(-285.275 -175.162)" fill="none" stroke="#313d4c" stroke-linecap="round" stroke-linejoin="round" stroke-miterlimit="10" stroke-width="0.956"/>
                    </g>
                    <g id="Grupo_1231540" data-name="Grupo 1231540" transform="translate(0 34.586)">
                      <path id="Trazado_1235485" data-name="Trazado 1235485" d="M233.686,178.336c-6.207-5.8-17.87-6.81-19.077,2.714-1.533,12.093,16.516,24.309,24.66,13.16C241.351,191.361,238.427,182.768,233.686,178.336Z" transform="translate(-214.517 -173.928)" fill="#d69f82"/>
                      <path id="Trazado_1235486" data-name="Trazado 1235486" d="M233.987,178.336c-3.778-3.531-9.574-5.281-13.806-3.966,10.2,9.128,14.087,18.542,15.473,23.211a10.68,10.68,0,0,0,3.917-3.369C241.652,191.362,238.729,182.768,233.987,178.336Z" transform="translate(-214.819 -173.928)" fill="#d69f82" opacity="0.57"/>
                      <line id="Línea_821" data-name="Línea 821" x2="20.702" y2="7.926" transform="translate(0 4.408)" fill="none" stroke="#313d4c" stroke-linecap="round" stroke-linejoin="round" stroke-miterlimit="10" stroke-width="0.956"/>
                      <path id="Trazado_1235487" data-name="Trazado 1235487" d="M234.51,199.418a18.264,18.264,0,0,1,1.424,7.564c0,5.456-1.787,9.879-3.992,9.879s-3.992-4.423-3.992-9.879,1.787-9.879,3.992-9.879" transform="translate(-215.232 -175.162)" fill="none" stroke="#313d4c" stroke-linecap="round" stroke-linejoin="round" stroke-miterlimit="10" stroke-width="0.956"/>
                    </g>
                    <path id="Trazado_1235488" data-name="Trazado 1235488" d="M262.914,137.447c-15.912-1.011-38.6,13.1-28.208,48.288s42.072,34.236,52.206,4.6S287.035,138.98,262.914,137.447Z" transform="translate(-215.452 -137.397)" fill="#d69f82"/>
                    <g id="Grupo_1231543" data-name="Grupo 1231543" transform="translate(26.729 28.086)">
                      <g id="Grupo_1231541" data-name="Grupo 1231541" transform="translate(9.388)">
                        <path id="Trazado_1235489" data-name="Trazado 1235489" d="M281.965,167.259c-8.686-1.022-15.33,1.923-16.224,9.2s.894,12.516,0,14.815-2.631,1.788-2.631,1.788" transform="translate(-253.221 -167.062)" fill="none" stroke="#313d4c" stroke-linecap="round" stroke-linejoin="round" stroke-miterlimit="10" stroke-width="0.956"/>
                        <line id="Línea_822" data-name="Línea 822" y2="4.472" transform="translate(20.056 10.416)" fill="none" stroke="#313d4c" stroke-linecap="round" stroke-linejoin="round" stroke-miterlimit="10" stroke-width="1.911"/>
                        <line id="Línea_823" data-name="Línea 823" y2="4.472" transform="translate(0 10.416)" fill="none" stroke="#313d4c" stroke-linecap="round" stroke-linejoin="round" stroke-miterlimit="10" stroke-width="1.911"/>
                      </g>
                      <path id="Trazado_1235490" data-name="Trazado 1235490" d="M253.762,199.373c4.4.169,20.615-1.815,20.615-1.815s-1.626,9.567-10.329,9.612A10.312,10.312,0,0,1,253.762,199.373Z" transform="translate(-243.335 -168.686)" fill="#f6f5f0"/>
                      <g id="Grupo_1231542" data-name="Grupo 1231542" transform="translate(0 18.76)">
                        <path id="Trazado_1235491" data-name="Trazado 1235491" d="M283.315,190.351c0,1.918-2.6,3.474-5.812,3.474s-5.812-1.556-5.812-3.474,2.6-3.474,5.812-3.474S283.315,188.432,283.315,190.351Z" transform="translate(-244.29 -186.877)" fill="#d69f82" opacity="0.57"/>
                        <path id="Trazado_1235492" data-name="Trazado 1235492" d="M254.373,190.351c0,1.918-2.6,3.474-5.812,3.474s-5.812-1.556-5.812-3.474,2.6-3.474,5.812-3.474S254.373,188.432,254.373,190.351Z" transform="translate(-242.749 -186.877)" fill="#d69f82" opacity="0.57"/>
                      </g>
                    </g>
                  </g>
                  <path id="Trazado_1235493" data-name="Trazado 1235493" d="M290.23,166.538c-7.9-1.925-11.655-4.523-19.29-13.967,0,0-25.64,32.818-43.456,19.928-24.017-17.376,9.007-64.214,38.645-43.264C293.21,123.944,303.089,146.269,290.23,166.538Z" transform="translate(-161.609 -123.943)" fill="#2b3043"/>
                  <g id="Grupo_1231545" data-name="Grupo 1231545" transform="translate(65.875 8.01)">
                    <path id="Trazado_1235494" data-name="Trazado 1235494" d="M261.994,132.923c-10.645-2.725-30.278,5.11-34.045,27.252" transform="translate(-227.949 -132.403)" fill="none" stroke="#313d4c" stroke-linecap="round" stroke-linejoin="round" stroke-miterlimit="10" stroke-width="0.956"/>
                    <path id="Trazado_1235495" data-name="Trazado 1235495" d="M230.781,166c7.177,2.794,24.959-2.56,38.176-18.927" transform="translate(-228.1 -133.184)" fill="none" stroke="#313d4c" stroke-linecap="round" stroke-linejoin="round" stroke-miterlimit="10" stroke-width="0.956"/>
                    <path id="Trazado_1235496" data-name="Trazado 1235496" d="M232.166,161.591c6.889-11.923,24.773-21.631,33.63-21.8" transform="translate(-228.174 -132.797)" fill="none" stroke="#313d4c" stroke-linecap="round" stroke-linejoin="round" stroke-miterlimit="10" stroke-width="0.956"/>
                  </g>
                </g>
                <g id="Grupo_1231555" data-name="Grupo 1231555" transform="translate(33.934 227.386)">
                  <g id="Grupo_1231547" data-name="Grupo 1231547" transform="translate(90.218 27.49)">
                    <path id="Trazado_1235497" data-name="Trazado 1235497" d="M146.8,417.147l-30.353,60.935,145.248-9.2,6.132,4.6,4.6-3.066H384.712l-39.09-64.385-88.145,18.013Z" transform="translate(-116.444 -393.84)" fill="#f5474e"/>
                    <path id="Trazado_1235498" data-name="Trazado 1235498" d="M166.878,421.331,146.35,473.977c27.482-14.238,107.134-16.643,123.276-3.562,39.886-13.375,66.9-10.312,103.865.25l-37.084-55.958c-33.756-13.45-57.965-6.252-76.486,13.244C231.842,411.182,200.427,410.965,166.878,421.331Z" transform="translate(-118.036 -393.935)" fill="#f6f5f0"/>
                    <path id="Trazado_1235499" data-name="Trazado 1235499" d="M150.325,408.8l-23.761,60.935c31.809-16.479,124-19.263,142.685-4.122,46.165-15.48,77.43-11.936,120.218.29l-42.923-64.767c-39.071-15.566-67.091-7.237-88.529,15.33C225.517,397.05,189.155,396.8,150.325,408.8Z" transform="translate(-116.983 -393.154)" fill="#f6f5f0"/>
                    <line id="Línea_824" data-name="Línea 824" x1="9.496" y1="41.602" transform="translate(141.884 26.16)" fill="none" stroke="#313d4c" stroke-linecap="round" stroke-linejoin="round" stroke-miterlimit="10" stroke-width="0.956"/>
                    <path id="Trazado_1235500" data-name="Trazado 1235500" d="M150.962,465.395s71.5-23.347,118.909,7.636c0,0,28.356-28.414,97.228-9.765" transform="translate(-118.282 -396.55)" fill="none" stroke="#313d4c" stroke-linecap="round" stroke-linejoin="round" stroke-miterlimit="10" stroke-width="0.956"/>
                  </g>
                  <g id="Grupo_1231550" data-name="Grupo 1231550" transform="translate(337.499 30.176)">
                    <path id="Trazado_1235501" data-name="Trazado 1235501" d="M407.445,453.734l-29.812-32.32h48.759l7.8,28.512Z" transform="translate(-377.633 -397.345)" fill="#37c6ed"/>
                    <path id="Trazado_1235502" data-name="Trazado 1235502" d="M384.206,399.245v23.961l25.261,27.675a19.746,19.746,0,0,0,4.086-19.318c-3.529-11.887-9.473-17.646-9.473-17.646Z" transform="translate(-377.983 -396.164)" fill="#f6f5f0"/>
                    <g id="Grupo_1231548" data-name="Grupo 1231548" transform="translate(6.223 10.144)">
                      <line id="Línea_825" data-name="Línea 825" x2="21.512" y2="21.334" fill="none" stroke="#313d4c" stroke-linecap="round" stroke-linejoin="round" stroke-miterlimit="10" stroke-width="0.956"/>
                      <line id="Línea_826" data-name="Línea 826" x2="26.752" y2="27.959" transform="translate(0 8.432)" fill="none" stroke="#313d4c" stroke-linecap="round" stroke-linejoin="round" stroke-miterlimit="10" stroke-width="0.956"/>
                    </g>
                    <path id="Trazado_1235503" data-name="Trazado 1235503" d="M409.122,428.575a37.65,37.65,0,0,1,0,25.54h83.307c2.793-9.254,3.4-17.929,0-25.54Z" transform="translate(-379.31 -397.726)" fill="#6d9be6"/>
                    <g id="Grupo_1231549" data-name="Grupo 1231549">
                      <path id="Trazado_1235504" data-name="Trazado 1235504" d="M377.633,395.991l29.812,30.849h83.307l-30.37-30.849Z" transform="translate(-377.633 -395.991)" fill="#37c6ed"/>
                      <path id="Trazado_1235505" data-name="Trazado 1235505" d="M409.122,428.575a37.65,37.65,0,0,1,0,25.54h83.307c2.793-9.254,3.4-17.929,0-25.54Z" transform="translate(-379.31 -397.726)" fill="#19acce"/>
                      <path id="Trazado_1235506" data-name="Trazado 1235506" d="M400.2,402.928l15.14,14.763h20.486L418.9,402.928Z" transform="translate(-378.835 -396.36)" fill="#f2b369"/>
                      <line id="Línea_827" data-name="Línea 827" x2="17.629" y2="14.763" transform="translate(52.518 6.568)" fill="none" stroke="#313d4c" stroke-linecap="round" stroke-linejoin="round" stroke-miterlimit="10" stroke-width="0.956"/>
                    </g>
                  </g>
                  <g id="Grupo_1231553" data-name="Grupo 1231553" transform="translate(347.331)">
                    <path id="Trazado_1235507" data-name="Trazado 1235507" d="M417.83,421.861l-29.812-32.319h48.759l7.8,28.511Z" transform="translate(-388.018 -365.472)" fill="#eaa62b"/>
                    <path id="Trazado_1235508" data-name="Trazado 1235508" d="M394.591,367.372v23.961l25.261,27.675a19.746,19.746,0,0,0,4.086-19.318c-3.529-11.887-9.473-17.646-9.473-17.646Z" transform="translate(-388.368 -364.291)" fill="#f6f5f0"/>
                    <g id="Grupo_1231551" data-name="Grupo 1231551" transform="translate(6.223 10.144)">
                      <line id="Línea_828" data-name="Línea 828" x2="21.512" y2="21.334" fill="none" stroke="#313d4c" stroke-linecap="round" stroke-linejoin="round" stroke-miterlimit="10" stroke-width="0.956"/>
                      <line id="Línea_829" data-name="Línea 829" x2="26.752" y2="27.959" transform="translate(0 8.432)" fill="none" stroke="#313d4c" stroke-linecap="round" stroke-linejoin="round" stroke-miterlimit="10" stroke-width="0.956"/>
                    </g>
                    <path id="Trazado_1235509" data-name="Trazado 1235509" d="M419.507,396.7a37.65,37.65,0,0,1,0,25.54h83.307c2.793-9.254,3.4-17.929,0-25.54Z" transform="translate(-389.695 -365.853)" fill="#6d9be6"/>
                    <g id="Grupo_1231552" data-name="Grupo 1231552">
                      <path id="Trazado_1235510" data-name="Trazado 1235510" d="M388.018,364.118l29.812,30.849h83.307l-30.37-30.849Z" transform="translate(-388.018 -364.118)" fill="#eaa62b"/>
                      <path id="Trazado_1235511" data-name="Trazado 1235511" d="M419.507,396.7a37.65,37.65,0,0,1,0,25.54h83.307c2.793-9.254,3.4-17.929,0-25.54Z" transform="translate(-389.695 -365.853)" fill="#c17e11"/>
                      <path id="Trazado_1235512" data-name="Trazado 1235512" d="M410.583,371.055l15.14,14.763h20.486l-16.921-14.763Z" transform="translate(-389.22 -364.487)" fill="#fff"/>
                      <line id="Línea_830" data-name="Línea 830" x2="17.629" y2="14.763" transform="translate(52.518 6.568)" fill="none" stroke="#313d4c" stroke-linecap="round" stroke-linejoin="round" stroke-miterlimit="10" stroke-width="0.956"/>
                    </g>
                  </g>
                  <g id="Grupo_1231554" data-name="Grupo 1231554" transform="translate(0 62.731)">
                    <path id="Trazado_1235513" data-name="Trazado 1235513" d="M103.393,430.378,21.466,451.64c-.871,4.859.032,9.13,3.15,12.669l82.128-21.465s18.234-10.584,17.992-11.558S103.393,430.378,103.393,430.378Z" transform="translate(-21.152 -430.377)" fill="#abc170"/>
                    <path id="Trazado_1235514" data-name="Trazado 1235514" d="M103.393,430.378,21.466,451.64c-.871,4.859.032,9.13,3.15,12.669l82.128-21.465s18.234-10.584,17.992-11.558S103.393,430.378,103.393,430.378Z" transform="translate(-21.152 -430.377)" fill="#eaa62b"/>
                    <path id="Trazado_1235515" data-name="Trazado 1235515" d="M111.365,442.846s18.234-10.584,17.992-11.558-21.343-.91-21.343-.91C107.543,435.171,109.02,438.747,111.365,442.846Z" transform="translate(-25.773 -430.377)" fill="#fbfbf0"/>
                    <path id="Trazado_1235516" data-name="Trazado 1235516" d="M130.206,431.236a.451.451,0,0,0-.054-.034l-.033-.016c-.025-.011-.053-.023-.084-.034a.347.347,0,0,0-.038-.013c-.047-.015-.1-.03-.157-.045l-.007,0c-.058-.014-.121-.028-.189-.042l-.061-.011-.172-.031-.072-.011-.211-.031-.056-.008c-.193-.027-.407-.051-.64-.075l-.067-.007c-.1-.009-.2-.02-.3-.028l-.074-.007-.365-.031-.02,0c-.28-.022-.578-.044-.89-.062l-.044,0-.438-.027-.044,0c-.329-.019-.671-.036-1.026-.053a5.175,5.175,0,0,0,.438,4.142,32.781,32.781,0,0,0,4.5-3.207,1.305,1.305,0,0,0,.093-.114l.009-.014a.5.5,0,0,0,.044-.079.129.129,0,0,0,.007-.017.091.091,0,0,0-.027-.118A.108.108,0,0,0,130.206,431.236Z" transform="translate(-26.676 -430.392)" fill="#f2b369"/>
                    <line id="Línea_831" data-name="Línea 831" x1="76.86" y2="19.701" transform="translate(5.245 3.368)" fill="none" stroke="#19283f" stroke-linecap="round" stroke-linejoin="round" stroke-miterlimit="10" stroke-width="0.956"/>
                    <line id="Línea_832" data-name="Línea 832" x1="71.214" y2="18.371" transform="translate(11.991 7.788)" fill="none" stroke="#19283f" stroke-linecap="round" stroke-linejoin="round" stroke-miterlimit="10" stroke-width="0.956"/>
                  </g>
                </g>
              </g>
            </g>
            <g id="Grupo_1231560" data-name="Grupo 1231560" clip-path="url(#clip-path-2)">
              <g id="Grupo_1231558" data-name="Grupo 1231558" transform="translate(355.131 252.91)">
                <path id="Trazado_1235517" data-name="Trazado 1235517" d="M387.17,267.135c-1.873,3.849-4.7,10.132-6.572,13.982" transform="translate(-375.398 -267.135)" fill="none" stroke="#2b3043" stroke-linecap="round" stroke-linejoin="round" stroke-miterlimit="10" stroke-width="1"/>
                <path id="Trazado_1235518" data-name="Trazado 1235518" d="M377.54,267.885c3.654,3.095,8.886,9.617,12.161,13.112" transform="translate(-375.235 -267.175)" fill="none" stroke="#2b3043" stroke-linecap="round" stroke-linejoin="round" stroke-miterlimit="10" stroke-width="1"/>
                <path id="Trazado_1235519" data-name="Trazado 1235519" d="M391.6,273.553a80.768,80.768,0,0,1-16.5,3.643" transform="translate(-375.105 -267.477)" fill="none" stroke="#2b3043" stroke-linecap="round" stroke-linejoin="round" stroke-miterlimit="10" stroke-width="1"/>
              </g>
              <g id="Grupo_1231559" data-name="Grupo 1231559" transform="translate(75.51 166.659)">
                <path id="Trazado_1235520" data-name="Trazado 1235520" d="M91.822,176.033c-1.873,3.849-4.7,10.132-6.572,13.982" transform="translate(-80.05 -176.033)" fill="none" stroke="#2b3043" stroke-linecap="round" stroke-linejoin="round" stroke-miterlimit="10" stroke-width="1"/>
                <path id="Trazado_1235521" data-name="Trazado 1235521" d="M82.192,176.783c3.654,3.095,8.886,9.617,12.161,13.112" transform="translate(-79.887 -176.073)" fill="none" stroke="#2b3043" stroke-linecap="round" stroke-linejoin="round" stroke-miterlimit="10" stroke-width="1"/>
                <path id="Trazado_1235522" data-name="Trazado 1235522" d="M96.252,182.45a80.77,80.77,0,0,1-16.5,3.643" transform="translate(-79.757 -176.375)" fill="none" stroke="#2b3043" stroke-linecap="round" stroke-linejoin="round" stroke-miterlimit="10" stroke-width="1"/>
              </g>
            </g>
            <g id="Grupo_1231561" data-name="Grupo 1231561" clip-path="url(#clip-path-2)">
              <path id="Trazado_1235523" data-name="Trazado 1235523" d="M-20.452,186.945a13.3,13.3,0,0,1,5.983-11.064A7.008,7.008,0,0,1-9.476,174.6c3.237.628,4.834,4.252,5.673,7.441.636,2.419.448,5.95-2.034,6.267-2.7.344-3.554-3.582-3.03-6.249A40.515,40.515,0,0,1-4.78,170.668c1.947-3.611,4.56-7.02,8.165-8.979s8.346-2.195,11.666.217,4.411,7.738,1.671,10.792a3.09,3.09,0,0,1-2.447,1.2c-1.86-.172-2.472-2.552-2.61-4.415-.237-3.184-.467-6.442.375-9.522s2.977-6,6.044-6.889" transform="translate(1.089 -8.151)" fill="none" stroke="#2b3043" stroke-linecap="round" stroke-linejoin="round" stroke-miterlimit="10" stroke-width="1"/>
              <path id="Trazado_1235525" data-name="Trazado 1235525" d="M436.493,281.31a10.812,10.812,0,0,1,17.275-10.154c2.408,1.846,3.665,6.094,1.04,7.618-1.841,1.069-4.27-.163-5.478-1.916-2.358-3.423-1.516-8.344,1.093-11.581s6.6-5.051,10.607-6.163c5.371-1.492,8.547,3.159,9.285,8.685-3.521,3.264-9.846.5-11.511-4.007s0-9.546,2.24-13.791" transform="translate(-23.237 -13.312)" fill="none" stroke="#60a9a1" stroke-linecap="round" stroke-linejoin="round" stroke-miterlimit="10" stroke-width="1"/>
            </g>
          </g>
          <g id="Grupo_1231563" data-name="Grupo 1231563" transform="translate(77.474 100.447)">
            <path id="Trazado_1235526" data-name="Trazado 1235526" d="M63.413,39.712c-2.469-.2-5.073-.1-7.541-.3-.934-2.827-2.21-5.457-3.057-8.311l-1.974,9.3c-2.344.59-4.666,1.045-7.01,1.635,2.236,1.292,3.665,2.99,5.9,4.282a18.645,18.645,0,0,1-.882,6.481C50.507,51.058,52.8,49.8,54.117,47.8c1.884,1.978,4.045,3.4,5.6,4.968,0,0-1.533-5.849-1.856-8.042C57.857,44.314,63.413,39.712,63.413,39.712Z" transform="translate(-43.831 -31.097)" fill="none" stroke="#2b3043" stroke-linecap="round" stroke-linejoin="round" stroke-miterlimit="10" stroke-width="1"/>
            <path id="Trazado_1235527" data-name="Trazado 1235527" d="M152.5,245.717c-2.469-.2-5.073-.1-7.541-.3-.934-2.827-2.21-5.457-3.057-8.311l-1.974,9.3c-2.344.59-4.666,1.045-7.01,1.635,2.236,1.292,3.665,2.99,5.9,4.282a18.667,18.667,0,0,1-.882,6.481c1.657-1.734,3.951-2.987,5.267-4.991,1.884,1.978,4.045,3.4,5.6,4.968,0,0-1.533-5.849-1.856-8.042C146.946,250.319,152.5,245.717,152.5,245.717Z" transform="translate(-84.551 -113.073)" fill="none" stroke="#2b3043" stroke-linecap="round" stroke-linejoin="round" stroke-miterlimit="10" stroke-width="1"/>
            <path id="Trazado_1235529" data-name="Trazado 1235529" d="M463.546,187.415c-2.469-.2-5.073-.1-7.542-.3-.934-2.827-2.21-5.456-3.057-8.311l-1.974,9.3c-2.344.59-4.666,1.045-7.01,1.635,2.236,1.292,3.665,2.99,5.9,4.282a18.668,18.668,0,0,1-.882,6.481c1.657-1.734,3.951-2.987,5.267-4.991,1.884,1.978,4.045,3.4,5.6,4.968,0,0-1.533-5.849-1.856-8.042C457.989,192.017,463.546,187.415,463.546,187.415Z" transform="translate(-101.114 -109.968)" fill="none" stroke="#2b3043" stroke-linecap="round" stroke-linejoin="round" stroke-miterlimit="10" stroke-width="1"/>
          </g>
          <g id="Grupo_1231567" data-name="Grupo 1231567" transform="translate(104.375 108.913)">
            <g id="Grupo_1231564" data-name="Grupo 1231564" transform="translate(215.111 12.836)">
              <path id="Trazado_1235530" data-name="Trazado 1235530" d="M384.768,129.121a40.842,40.842,0,0,0-30.5,7.341c-18.256,13.6-22.013,40.44-9.441,58.151,10.006,14.1,34.261,18.468,50.669,11.218,14.429-6.361,22.689-21.447,22.749-36.068C418.311,151.355,404.609,132.422,384.768,129.121Zm7.21,69.369c-13.147,5.806-32.564,2.3-40.582-8.987-10.067-14.187-7.058-35.685,7.563-46.579a32.775,32.775,0,0,1,24.436-5.876c15.884,2.645,26.87,17.812,26.809,32.554C410.153,181.314,403.539,193.391,391.977,198.49Z" transform="translate(-337.455 -128.596)" fill="#f5474e"/>
              <path id="Trazado_1235531" data-name="Trazado 1235531" d="M410.656,170.053c-.05,11.713-6.664,23.79-18.226,28.889-13.147,5.806-32.564,2.3-40.582-8.987-10.067-14.187-7.058-35.685,7.563-46.579a32.775,32.775,0,0,1,24.436-5.876C399.73,140.144,410.716,155.311,410.656,170.053Z" transform="translate(-337.907 -129.048)" fill="#fff"/>
              <path id="Trazado_1235532" data-name="Trazado 1235532" d="M380.966,202.954v-6.731" transform="translate(-339.772 -132.198)" fill="none" stroke="#2b3043" stroke-linecap="round" stroke-linejoin="round" stroke-miterlimit="10" stroke-width="2.133"/>
              <path id="Trazado_1235533" data-name="Trazado 1235533" d="M380.911,146.047l-.324-5.55" transform="translate(-339.752 -129.23)" fill="none" stroke="#2b3043" stroke-linecap="round" stroke-linejoin="round" stroke-miterlimit="10" stroke-width="2.133"/>
              <path id="Trazado_1235534" data-name="Trazado 1235534" d="M347.818,168.962l5.3.307" transform="translate(-338.007 -130.746)" fill="none" stroke="#2b3043" stroke-linecap="round" stroke-linejoin="round" stroke-miterlimit="10" stroke-width="2.133"/>
              <path id="Trazado_1235535" data-name="Trazado 1235535" d="M405.141,171.693H411.7" transform="translate(-341.059 -130.891)" fill="none" stroke="#2b3043" stroke-linecap="round" stroke-linejoin="round" stroke-miterlimit="10" stroke-width="2.133"/>
              <path id="Trazado_1235536" data-name="Trazado 1235536" d="M389.937,145.656l1.768-3.029" transform="translate(-340.25 -129.344)" fill="none" stroke="#2b3043" stroke-linecap="round" stroke-linejoin="round" stroke-miterlimit="10" stroke-width="2.133"/>
              <path id="Trazado_1235537" data-name="Trazado 1235537" d="M396.634,150.306a10.649,10.649,0,0,0,2.48-1.833" transform="translate(-340.606 -129.655)" fill="none" stroke="#2b3043" stroke-linecap="round" stroke-linejoin="round" stroke-miterlimit="10" stroke-width="2.133"/>
              <path id="Trazado_1235538" data-name="Trazado 1235538" d="M403,156.9l3.266-2.043" transform="translate(-340.945 -129.995)" fill="none" stroke="#2b3043" stroke-linecap="round" stroke-linejoin="round" stroke-miterlimit="10" stroke-width="2.133"/>
              <path id="Trazado_1235539" data-name="Trazado 1235539" d="M407,164.429l1.768-.252" transform="translate(-341.158 -130.491)" fill="none" stroke="#2b3043" stroke-linecap="round" stroke-linejoin="round" stroke-miterlimit="10" stroke-width="2.133"/>
              <path id="Trazado_1235540" data-name="Trazado 1235540" d="M350.727,161.328l2.537,1.493" transform="translate(-338.162 -130.339)" fill="none" stroke="#2b3043" stroke-linecap="round" stroke-linejoin="round" stroke-miterlimit="10" stroke-width="2.133"/>
              <path id="Trazado_1235541" data-name="Trazado 1235541" d="M353.188,154.828l4.234,2.618" transform="translate(-338.293 -129.993)" fill="none" stroke="#2b3043" stroke-linecap="round" stroke-linejoin="round" stroke-miterlimit="10" stroke-width="2.133"/>
              <path id="Trazado_1235542" data-name="Trazado 1235542" d="M358.774,148.474q1.136,1.514,2.273,3.029" transform="translate(-338.59 -129.655)" fill="none" stroke="#2b3043" stroke-linecap="round" stroke-linejoin="round" stroke-miterlimit="10" stroke-width="2.133"/>
              <path id="Trazado_1235543" data-name="Trazado 1235543" d="M364.894,144.22l1.554,2.5" transform="translate(-338.916 -129.428)" fill="none" stroke="#2b3043" stroke-linecap="round" stroke-linejoin="round" stroke-miterlimit="10" stroke-width="2.133"/>
              <path id="Trazado_1235544" data-name="Trazado 1235544" d="M371.3,141.823l1.478,4.3" transform="translate(-339.257 -129.301)" fill="none" stroke="#2b3043" stroke-linecap="round" stroke-linejoin="round" stroke-miterlimit="10" stroke-width="2.133"/>
              <path id="Trazado_1235545" data-name="Trazado 1235545" d="M348.893,176.536l3.523-.574" transform="translate(-338.064 -131.119)" fill="none" stroke="#2b3043" stroke-linecap="round" stroke-linejoin="round" stroke-miterlimit="10" stroke-width="2.133"/>
              <path id="Trazado_1235546" data-name="Trazado 1235546" d="M351.543,183.346l2.523-1.265" transform="translate(-338.205 -131.444)" fill="none" stroke="#2b3043" stroke-linecap="round" stroke-linejoin="round" stroke-miterlimit="10" stroke-width="2.133"/>
              <path id="Trazado_1235547" data-name="Trazado 1235547" d="M355.269,189.152l2.547-2.247" transform="translate(-338.404 -131.701)" fill="none" stroke="#2b3043" stroke-linecap="round" stroke-linejoin="round" stroke-miterlimit="10" stroke-width="2.133"/>
              <line id="Línea_833" data-name="Línea 833" y1="3.03" x2="2.336" transform="translate(23.249 61.943)" fill="none" stroke="#2b3043" stroke-linecap="round" stroke-linejoin="round" stroke-miterlimit="10" stroke-width="2.133"/>
              <path id="Trazado_1235548" data-name="Trazado 1235548" d="M371.333,199.817q.878-1.518,1.756-3.035" transform="translate(-339.259 -132.227)" fill="none" stroke="#2b3043" stroke-linecap="round" stroke-linejoin="round" stroke-miterlimit="10" stroke-width="2.133"/>
              <path id="Trazado_1235549" data-name="Trazado 1235549" d="M388.624,195.949l1.547,3.013" transform="translate(-340.18 -132.183)" fill="none" stroke="#2b3043" stroke-linecap="round" stroke-linejoin="round" stroke-miterlimit="10" stroke-width="2.133"/>
              <path id="Trazado_1235550" data-name="Trazado 1235550" d="M396.074,191.158l2.72,3.079" transform="translate(-340.577 -131.928)" fill="none" stroke="#2b3043" stroke-linecap="round" stroke-linejoin="round" stroke-miterlimit="10" stroke-width="2.133"/>
              <path id="Trazado_1235551" data-name="Trazado 1235551" d="M400.935,186.27a18.28,18.28,0,0,0,4.961,2.449" transform="translate(-340.835 -131.668)" fill="none" stroke="#2b3043" stroke-linecap="round" stroke-linejoin="round" stroke-miterlimit="10" stroke-width="2.133"/>
              <path id="Trazado_1235552" data-name="Trazado 1235552" d="M404.609,179.411a15.527,15.527,0,0,1,4.288,1.029" transform="translate(-341.031 -131.302)" fill="none" stroke="#2b3043" stroke-linecap="round" stroke-linejoin="round" stroke-miterlimit="10" stroke-width="2.133"/>
              <path id="Trazado_1235553" data-name="Trazado 1235553" d="M378.455,168.686c-.124-4.072,0-9.347.222-12.376a8.32,8.32,0,0,1,.392-2.091,1.694,1.694,0,0,1,3.22.138,11.689,11.689,0,0,1,.408,1.962c.292,2.623.328,7.879.277,12.3" transform="translate(-339.636 -129.902)" fill="none" stroke="#2b3043" stroke-linecap="round" stroke-linejoin="round" stroke-miterlimit="10" stroke-width="2.133"/>
              <path id="Trazado_1235554" data-name="Trazado 1235554" d="M376.986,175.092c-2.495,3.938-7.039,8.451-8.668,12.85-.412,1.112,1.43,2.273,2.488,1.739,1.075-.542,9.141-9.778,10.85-12.759" transform="translate(-339.095 -131.072)" fill="none" stroke="#2b3043" stroke-linecap="round" stroke-linejoin="round" stroke-miterlimit="10" stroke-width="2.133"/>
              <path id="Trazado_1235555" data-name="Trazado 1235555" d="M364.633,161.005q5.308,4.992,11.015,9.536" transform="translate(-338.902 -130.322)" fill="none" stroke="#b71528" stroke-linecap="round" stroke-linejoin="round" stroke-miterlimit="10" stroke-width="2.133"/>
              <path id="Trazado_1235556" data-name="Trazado 1235556" d="M380.031,176.7a4.64,4.64,0,0,0,4.068-1.3c2.542-2.948-1.129-7.033-4.469-6.126C376.042,170.242,376.244,176.25,380.031,176.7Z" transform="translate(-339.564 -130.755)" fill="none" stroke="#2b3043" stroke-linecap="round" stroke-linejoin="round" stroke-miterlimit="10" stroke-width="2.133"/>
              <path id="Trazado_1235557" data-name="Trazado 1235557" d="M406.209,200.444a38.437,38.437,0,0,0,9.067-13.472" transform="translate(-341.116 -131.705)" fill="none" stroke="#b71528" stroke-linecap="round" stroke-linejoin="round" stroke-miterlimit="10" stroke-width="2.133"/>
              <path id="Trazado_1235558" data-name="Trazado 1235558" d="M416.87,182.092a11.748,11.748,0,0,0,1.373-4.709" transform="translate(-341.684 -131.194)" fill="none" stroke="#b71528" stroke-linecap="round" stroke-linejoin="round" stroke-miterlimit="10" stroke-width="2.133"/>
              <path id="Trazado_1235559" data-name="Trazado 1235559" d="M345.253,190.092a34.518,34.518,0,0,1-2.628-26.179" transform="translate(-337.653 -130.477)" fill="none" stroke="#b71528" stroke-linecap="round" stroke-linejoin="round" stroke-miterlimit="10" stroke-width="2.133"/>
              <path id="Trazado_1235560" data-name="Trazado 1235560" d="M343.661,160.694a39.875,39.875,0,0,1,2.653-6.075" transform="translate(-337.786 -129.982)" fill="none" stroke="#b71528" stroke-linecap="round" stroke-linejoin="round" stroke-miterlimit="10" stroke-width="2.133"/>
              <path id="Trazado_1235561" data-name="Trazado 1235561" d="M395.227,136.035a29.284,29.284,0,0,1,14.5,12.177" transform="translate(-340.531 -128.993)" fill="none" stroke="#b71528" stroke-linecap="round" stroke-linejoin="round" stroke-miterlimit="10" stroke-width="2.133"/>
            </g>
            <g id="Grupo_1231566" data-name="Grupo 1231566">
              <g id="Grupo_1231565" data-name="Grupo 1231565" transform="translate(9.903 9.255)">
                <path id="Trazado_1235562" data-name="Trazado 1235562" d="M146.966,170.209c-8.5-2.5-21.938-8.8-24.9-17.147-1.567-4.412-1.98-9.412-.156-13.724a21.16,21.16,0,0,1,6.245-7.77c6.418-5.325,15.387-8.584,23.192-5.645,6.138,2.31,10.5,8.136,12.284,14.446s-1.87,15.392-3.18,21.819" transform="translate(-120.705 -124.815)" fill="#eaa62b"/>
                <path id="Trazado_1235563" data-name="Trazado 1235563" d="M149,169.373a84.472,84.472,0,0,0-8.151-14.005c-.382-.531-1.146-1.1-1.588-.613-.333.364-.062.95.267,1.317a4.676,4.676,0,0,0,3.387,1.575,4.219,4.219,0,0,0,2.214-7.824c-.588.961.258,2.225,1.277,2.7a4.085,4.085,0,0,0,5.018-6.128,1.834,1.834,0,0,0-.711.357c.116,2.075,1.395,3.876,2.56,5.6a80.369,80.369,0,0,1,6.257,11.023" transform="translate(-121.685 -125.964)" fill="none" stroke="#af5700" stroke-linecap="round" stroke-linejoin="round" stroke-miterlimit="10" stroke-width="1.612"/>
                <path id="Trazado_1235564" data-name="Trazado 1235564" d="M148.443,172.311c1.551,2.314,1.887,4,3.438,6.319a8.736,8.736,0,0,0,2.169,2.485,5.888,5.888,0,0,0,4.842.566,26.374,26.374,0,0,0,5.571-2.65c1.3-.809,2.732-1.825,2.894-3.348a5.111,5.111,0,0,0-.971-2.98c-1.9-3.291-2.557-5.122-4.461-8.414" transform="translate(-122.182 -126.917)" fill="#37c6ed"/>
                <path id="Trazado_1235565" data-name="Trazado 1235565" d="M148.656,172.052l7.239-3.817a43.394,43.394,0,0,0,5.706-3.392" transform="translate(-122.194 -126.946)" fill="none" stroke="#2b3043" stroke-linecap="round" stroke-linejoin="round" stroke-miterlimit="10" stroke-width="1"/>
                <path id="Trazado_1235566" data-name="Trazado 1235566" d="M150.937,176.578l7.239-3.817a43.394,43.394,0,0,0,5.706-3.392" transform="translate(-122.315 -127.187)" fill="none" stroke="#2b3043" stroke-linecap="round" stroke-linejoin="round" stroke-miterlimit="10" stroke-width="1"/>
                <path id="Trazado_1235567" data-name="Trazado 1235567" d="M154.133,180.355c2.413-1.272,3.716-2.275,6.129-3.547,1.96-1.033,3.718-1.533,5.5-2.853" transform="translate(-122.485 -127.431)" fill="none" stroke="#2b3043" stroke-linecap="round" stroke-linejoin="round" stroke-miterlimit="10" stroke-width="1"/>
                <path id="Trazado_1235568" data-name="Trazado 1235568" d="M151.977,129.386a18.4,18.4,0,0,1,9.816,13.279" transform="translate(-122.37 -125.058)" fill="none" stroke="#af5700" stroke-linecap="round" stroke-linejoin="round" stroke-miterlimit="10" stroke-width="1.612"/>
                <path id="Trazado_1235569" data-name="Trazado 1235569" d="M142.038,128.943l4.329-.008" transform="translate(-121.841 -125.034)" fill="none" stroke="#af5700" stroke-linecap="round" stroke-linejoin="round" stroke-miterlimit="10" stroke-width="1.612"/>
              </g>
              <path id="Trazado_1235570" data-name="Trazado 1235570" d="M126.489,115.065l3.87,6.178" transform="translate(-111.11 -115.04)" fill="none" stroke="#af5700" stroke-linecap="round" stroke-linejoin="round" stroke-miterlimit="10" stroke-width="1.612"/>
              <path id="Trazado_1235571" data-name="Trazado 1235571" d="M140.023,120.155a18.128,18.128,0,0,1-.056-5.116" transform="translate(-111.819 -115.039)" fill="none" stroke="#af5700" stroke-linecap="round" stroke-linejoin="round" stroke-miterlimit="10" stroke-width="1.612"/>
              <path id="Trazado_1235572" data-name="Trazado 1235572" d="M151.339,121.2q.848-2.562,1.695-5.125" transform="translate(-112.433 -115.094)" fill="none" stroke="#af5700" stroke-linecap="round" stroke-linejoin="round" stroke-miterlimit="10" stroke-width="1.612"/>
              <path id="Trazado_1235573" data-name="Trazado 1235573" d="M119.452,127.209l3.743,2.409" transform="translate(-110.735 -115.687)" fill="none" stroke="#af5700" stroke-linecap="round" stroke-linejoin="round" stroke-miterlimit="10" stroke-width="1.612"/>
              <path id="Trazado_1235574" data-name="Trazado 1235574" d="M110.245,135.977l7.1,3.561" transform="translate(-110.245 -116.154)" fill="none" stroke="#af5700" stroke-linecap="round" stroke-linejoin="round" stroke-miterlimit="10" stroke-width="1.612"/>
            </g>
          </g>
        </g>
      </g>
    </g>
  </g>
</svg>
