<svg xmlns="http://www.w3.org/2000/svg" xmlns:xlink="http://www.w3.org/1999/xlink" width="108" height="108" viewBox="0 0 108 108">
  <defs>
    <filter id="Trazado_904820" x="0" y="0" width="108" height="108" filterUnits="userSpaceOnUse">
      <feOffset dy="3" input="SourceAlpha"/>
      <feGaussianBlur stdDeviation="3" result="blur"/>
      <feFlood flood-opacity="0.161"/>
      <feComposite operator="in" in2="blur"/>
      <feComposite in="SourceGraphic"/>
    </filter>
  </defs>
  <g id="Grupo_1231486" data-name="Grupo 1231486" transform="translate(-200.979 -775)">
    <g id="Grupo_1230838" data-name="Grupo 1230838" transform="translate(-418.498 302.321)">
      <g id="Grupo_1208347" data-name="Grupo 1208347" transform="translate(628.477 478.679)">
        <g id="Grupo_1207936" data-name="Grupo 1207936" transform="translate(0 0)">
          <g id="Grupo_1201662" data-name="Grupo 1201662">
            <g id="Grupo_1173585" data-name="Grupo 1173585">
              <g id="Grupo_1173428" data-name="Grupo 1173428">
                <g id="Grupo_1171958" data-name="Grupo 1171958">
                  <g id="Grupo_1167341" data-name="Grupo 1167341">
                    <g id="Grupo_1166792" data-name="Grupo 1166792">
                      <g transform="matrix(1, 0, 0, 1, -9, -6)" filter="url(#Trazado_904820)">
                        <g id="Trazado_904820-2" data-name="Trazado 904820" transform="translate(9 6)" fill="#edf3fc">
                          <path d="M 44.99999618530273 88.49999237060547 C 39.12687301635742 88.49999237060547 33.43022155761719 87.35006713867188 28.06829643249512 85.08216857910156 C 22.88852119445801 82.89130401611328 18.23629570007324 79.75457763671875 14.24084663391113 75.75914001464844 C 10.24540901184082 71.76369476318359 7.108683586120605 67.11146545410156 4.917821407318115 61.93169403076172 C 2.649921178817749 56.56976699829102 1.499996185302734 50.87311553955078 1.499996185302734 44.99999237060547 C 1.499996185302734 39.12686920166016 2.649921178817749 33.43021774291992 4.917821407318115 28.06829261779785 C 7.108683586120605 22.88851737976074 10.24540901184082 18.23630523681641 14.24084663391113 14.24085521697998 C 18.23629570007324 10.24540519714355 22.88852119445801 7.108692169189453 28.06829643249512 4.917829990386963 C 33.43022155761719 2.649929761886597 39.12687301635742 1.500004887580872 44.99999618530273 1.500004887580872 C 50.87311935424805 1.500004887580872 56.56977081298828 2.649929761886597 61.93169784545898 4.917829990386963 C 67.11147308349609 7.108692169189453 71.76369476318359 10.24540519714355 75.75914764404297 14.24085521697998 C 79.75458526611328 18.23630523681641 82.89131164550781 22.88851737976074 85.08216857910156 28.06829261779785 C 87.35007476806641 33.43021774291992 88.5 39.12686920166016 88.5 44.99999237060547 C 88.5 50.87311553955078 87.35007476806641 56.56976699829102 85.08216857910156 61.93169403076172 C 82.89131164550781 67.11146545410156 79.75458526611328 71.76369476318359 75.75914764404297 75.75914001464844 C 71.76369476318359 79.75457763671875 67.11147308349609 82.89130401611328 61.93169784545898 85.08216857910156 C 56.56977081298828 87.35006713867188 50.87311935424805 88.49999237060547 44.99999618530273 88.49999237060547 Z" stroke="none"/>
                          <path d="M 44.99999618530273 2.999992370605469 C 39.32870864868164 2.999992370605469 33.82865142822266 4.11004638671875 28.65262603759766 6.299331665039062 C 23.65165710449219 8.414566040039062 19.15968322753906 11.44333648681641 15.301513671875 15.30150604248047 C 11.44333648681641 19.15967559814453 8.414566040039062 23.65164947509766 6.299339294433594 28.65262222290039 C 4.110054016113281 33.82864761352539 2.999992370605469 39.32870483398438 2.999992370605469 44.99999237060547 C 2.999992370605469 50.67127990722656 4.110054016113281 56.17132186889648 6.299339294433594 61.34736633300781 C 8.414566040039062 66.34833526611328 11.44333648681641 70.84029388427734 15.301513671875 74.69846343994141 C 19.15968322753906 78.55663299560547 23.65165710449219 81.58540344238281 28.65262603759766 83.70063781738281 C 33.82865142822266 85.88992309570312 39.32870864868164 86.99997711181641 44.99999618530273 86.99997711181641 C 50.67128372192383 86.99997711181641 56.17134094238281 85.88992309570312 61.34736633300781 83.70063781738281 C 66.34834289550781 81.58540344238281 70.84030914306641 78.55663299560547 74.69847869873047 74.69846343994141 C 78.55665588378906 70.84029388427734 81.58542633056641 66.34833526611328 83.70065307617188 61.34736633300781 C 85.88993835449219 56.17132186889648 87 50.67127990722656 87 44.99999237060547 C 87 39.32870483398438 85.88993835449219 33.82864761352539 83.70065307617188 28.65262222290039 C 81.58542633056641 23.65164947509766 78.55665588378906 19.15967559814453 74.69847869873047 15.30150604248047 C 70.84030914306641 11.44333648681641 66.34834289550781 8.414566040039062 61.34736633300781 6.299331665039062 C 56.17134094238281 4.11004638671875 50.67128372192383 2.999992370605469 44.99999618530273 2.999992370605469 M 44.99999618530273 -7.62939453125e-06 C 69.85281372070312 -7.62939453125e-06 90 20.14717864990234 90 44.99999237060547 C 90 69.85279083251953 69.85281372070312 89.99997711181641 44.99999618530273 89.99997711181641 C 20.14717864990234 89.99997711181641 -7.62939453125e-06 69.85279083251953 -7.62939453125e-06 44.99999237060547 C -7.62939453125e-06 20.14717864990234 20.14717864990234 -7.62939453125e-06 44.99999618530273 -7.62939453125e-06 Z" stroke="none" fill="#5692e8"/>
                        </g>
                      </g>
                    </g>
                  </g>
                </g>
              </g>
            </g>
          </g>
        </g>
      </g>
    </g>
    <g id="leer_6_" data-name="leer (6)" transform="translate(200.536 795.434)">
      <g id="Grupo_1231484" data-name="Grupo 1231484" transform="translate(28.01 0.895)">
        <g id="Grupo_1231480" data-name="Grupo 1231480" transform="translate(6.752)">
          <path id="Trazado_1235269" data-name="Trazado 1235269" d="M130.528,27.446a19.682,19.682,0,1,0-39.361,0c0,11.016,8.811,11.847,19.681,11.847S130.528,38.462,130.528,27.446Z" transform="translate(-91.167 -7.5)" fill="#665e66"/>
          <path id="Trazado_1235270" data-name="Trazado 1235270" d="M110.589,39.3c-10.75-.013-19.422-.917-19.422-11.846A19.815,19.815,0,0,1,110.848,7.5c-5.532,0-10.016,8.93-10.016,19.946C100.832,38.294,105.177,39.268,110.589,39.3Z" transform="translate(-91.167 -7.504)" fill="#454045"/>
          <path id="Trazado_1235271" data-name="Trazado 1235271" d="M165.429,84.959a7.912,7.912,0,0,1-7.535,7.5q-5.236.248-10.473.1h-.006q-1.328-.037-2.656-.1a7.911,7.911,0,0,1-7.534-7.5q-.23-4.48-.037-8.962h0q.058-1.4.16-2.792c.645-3.065,3.171-5.686,6.7-7.222.1-.045.209-.09.315-.133a17.833,17.833,0,0,1,4.7-1.192,19.391,19.391,0,0,1,7.149.494h0c4.762,1.266,8.321,4.335,9.1,8.063a0,0,0,0,0,0,0,95.442,95.442,0,0,1,.122,11.741Z" transform="translate(-131.615 -57.716)" fill="#f1d0a5"/>
          <path id="Trazado_1235272" data-name="Trazado 1235272" d="M147.421,102.325h-.006q-1.328-.037-2.656-.1a7.911,7.911,0,0,1-7.534-7.5,95.3,95.3,0,0,1,.123-11.754c.645-3.065,3.171-5.686,6.7-7.222.1-.045.209-.09.315-.133-.242,5.9-.3,14.445-.176,19.276C144.283,98.606,145.639,101.634,147.421,102.325Z" transform="translate(-131.615 -67.483)" fill="#f1b986"/>
          <path id="Trazado_1235273" data-name="Trazado 1235273" d="M156.858,65.15h0c-2.345,4.021-7.967,9.308-10.2,8.046-.818-.463-.712-1.415-.25-2.44a18.166,18.166,0,0,1-3.493,4.29c-1.5,1.268-3.318,2.055-5.073.95h0q.058-1.4.16-2.792c.645-3.065,3.171-5.686,6.7-7.222.1-.045.209-.09.315-.133a17.833,17.833,0,0,1,4.7-1.192,19.39,19.39,0,0,1,7.149.494Z" transform="translate(-132.266 -57.715)" fill="#665e66"/>
          <path id="Trazado_1235274" data-name="Trazado 1235274" d="M142.911,75.046c-1.5,1.268-3.318,2.055-5.073.95h0q.058-1.4.16-2.792c.645-3.065,3.171-5.686,6.7-7.222.1-.045.209-.09.315-.133a17.833,17.833,0,0,1,4.7-1.192,19.118,19.118,0,0,1,2.269-.132C147.063,66.239,136.917,75.046,142.911,75.046Z" transform="translate(-132.266 -57.715)" fill="#454045"/>
          <g id="Grupo_1231479" data-name="Grupo 1231479" transform="translate(8.496 25.433)">
            <ellipse id="Elipse_11585" data-name="Elipse 11585" cx="2.407" cy="1.527" rx="2.407" ry="1.527" fill="#df9380"/>
            <ellipse id="Elipse_11586" data-name="Elipse 11586" cx="2.407" cy="1.527" rx="2.407" ry="1.527" transform="translate(17.615)" fill="#f9a58e"/>
          </g>
          <path id="Trazado_1235275" data-name="Trazado 1235275" d="M166.115,50.872a7.554,7.554,0,0,1-.136,1.43c-.955-4.978-6.86-8.809-14-8.809a19.109,19.109,0,0,0-2.269.132,17.849,17.849,0,0,0-4.42,1.082q-.3.115-.591.243c-3.576,1.557-6.124,4.228-6.726,7.347a7.569,7.569,0,0,1-.134-1.426c0-3.724,2.749-6.983,6.86-8.772q.638-.278,1.319-.507a18.03,18.03,0,0,1,3.691-.82,19.107,19.107,0,0,1,2.269-.132C159.785,40.641,166.115,45.221,166.115,50.872Z" transform="translate(-132.265 -36.684)" fill="#da4a54"/>
          <path id="Trazado_1235276" data-name="Trazado 1235276" d="M146.018,48.612l-.728,3.115q-.3.115-.591.243c-3.576,1.557-6.124,4.228-6.726,7.347a7.569,7.569,0,0,1-.134-1.426c0-3.724,2.749-6.983,6.86-8.772q.638-.278,1.319-.507Z" transform="translate(-132.266 -43.703)" fill="#c32430"/>
        </g>
        <path id="Trazado_1235277" data-name="Trazado 1235277" d="M279.125,260.2v20.183a2.746,2.746,0,0,1-2.163,2.683l-17.927,3.885H256.72v-25.8h2.314l16.765-3.633A2.745,2.745,0,0,1,279.125,260.2Z" transform="translate(-230.201 -227.614)" fill="#80b4fb"/>
        <path id="Trazado_1235278" data-name="Trazado 1235278" d="M90.207,261.155v25.8H87.721l-17.927-3.885a2.746,2.746,0,0,1-2.163-2.683V260.2a2.745,2.745,0,0,1,3.326-2.682l16.765,3.633Z" transform="translate(-63.688 -227.614)" fill="#5490f9"/>
        <path id="Trazado_1235279" data-name="Trazado 1235279" d="M235.9,314.218v-25.8h4.8v25.8" transform="translate(-211.869 -254.878)" fill="#bed8fb"/>
        <g id="Grupo_1231483" data-name="Grupo 1231483" transform="translate(0 35.067)">
          <g id="Grupo_1231481" data-name="Grupo 1231481">
            <path id="Trazado_1235280" data-name="Trazado 1235280" d="M38.063,308.474h-.939a2.51,2.51,0,0,1-2.51-2.51V303.71a2.51,2.51,0,0,1,2.51-2.51h.939a2.51,2.51,0,0,1,2.51,2.51v2.254A2.51,2.51,0,0,1,38.063,308.474Z" transform="translate(-34.614 -301.2)" fill="#f1d0a5"/>
            <path id="Trazado_1235281" data-name="Trazado 1235281" d="M38.547,308.427a2.376,2.376,0,0,1-.482.048h-.94a2.511,2.511,0,0,1-2.51-2.511v-2.253a2.51,2.51,0,0,1,2.51-2.511h.94a2.378,2.378,0,0,1,.482.048,2.509,2.509,0,0,0-2.026,2.463v2.253A2.509,2.509,0,0,0,38.547,308.427Z" transform="translate(-34.615 -301.2)" fill="#f1b986"/>
          </g>
          <g id="Grupo_1231482" data-name="Grupo 1231482" transform="translate(46.906)">
            <path id="Trazado_1235282" data-name="Trazado 1235282" d="M430.918,308.474h-.939a2.51,2.51,0,0,1-2.51-2.51V303.71a2.51,2.51,0,0,1,2.51-2.51h.939a2.51,2.51,0,0,1,2.51,2.51v2.254A2.51,2.51,0,0,1,430.918,308.474Z" transform="translate(-427.469 -301.2)" fill="#f1d0a5"/>
            <path id="Trazado_1235283" data-name="Trazado 1235283" d="M431.4,308.427a2.376,2.376,0,0,1-.482.048h-.94a2.511,2.511,0,0,1-2.51-2.511v-2.253a2.51,2.51,0,0,1,2.51-2.511h.94a2.378,2.378,0,0,1,.482.048,2.509,2.509,0,0,0-2.026,2.463v2.253A2.509,2.509,0,0,0,431.4,308.427Z" transform="translate(-427.47 -301.2)" fill="#f1b986"/>
          </g>
        </g>
      </g>
      <g id="Grupo_1231485" data-name="Grupo 1231485" transform="translate(27.115 0)">
        <path id="Trazado_1235284" data-name="Trazado 1235284" d="M231.6,230.765a.9.9,0,0,0-1.193.425,2.305,2.305,0,0,1-4.165,0,.9.9,0,0,0-1.618.768,4.1,4.1,0,0,0,7.4,0A.9.9,0,0,0,231.6,230.765Z" transform="translate(-200.965 -203.136)"/>
        <path id="Trazado_1235285" data-name="Trazado 1235285" d="M298.881,181.49a6.871,6.871,0,0,0-1.307-.125,2.679,2.679,0,0,0,.145-.881c0-1.056-.577-1.915-1.287-1.915s-1.287.859-1.287,1.915a2.516,2.516,0,0,0,.309,1.241,3.9,3.9,0,0,0-.6.268.9.9,0,0,0,.449,1.672.886.886,0,0,0,.449-.122,4.337,4.337,0,0,1,2.791-.293.9.9,0,0,0,.339-1.759Z" transform="translate(-262.493 -157.248)"/>
        <path id="Trazado_1235286" data-name="Trazado 1235286" d="M179.311,181.992a3.907,3.907,0,0,0-.6-.268,2.516,2.516,0,0,0,.309-1.241c0-1.056-.577-1.915-1.287-1.915s-1.287.859-1.287,1.915a2.675,2.675,0,0,0,.145.881,6.873,6.873,0,0,0-1.306.125.9.9,0,1,0,.339,1.759,4.344,4.344,0,0,1,2.79.293.9.9,0,0,0,.9-1.549Z" transform="translate(-156.953 -157.247)"/>
        <path id="Trazado_1235287" data-name="Trazado 1235287" d="M329.92,312.6,320,314.748a.9.9,0,1,0,.379,1.75l9.916-2.149a.9.9,0,1,0-.379-1.75Z" transform="translate(-284.413 -275.258)"/>
        <path id="Trazado_1235288" data-name="Trazado 1235288" d="M329.92,340.469,320,342.618a.9.9,0,1,0,.379,1.75l9.916-2.149a.9.9,0,1,0-.379-1.75Z" transform="translate(-284.413 -299.8)"/>
        <path id="Trazado_1235289" data-name="Trazado 1235289" d="M78.365,35.067h-.536V33.485a3.64,3.64,0,0,0-4.411-3.557l-2.552.553c2.789-2.049,4.153-5.229,4.153-9.639a20.577,20.577,0,1,0-41.151,0c0,4.41,1.366,7.59,4.155,9.64l-2.554-.554a3.64,3.64,0,0,0-4.412,3.557v1.582h-.536a3.41,3.41,0,0,0-3.406,3.406v2.253a3.41,3.41,0,0,0,3.406,3.406h.536v9.536a3.661,3.661,0,0,0,2.869,3.558l17.927,3.885a.9.9,0,0,0,.19.02h4.8a.9.9,0,0,0,.19-.02L74.96,57.226a3.661,3.661,0,0,0,2.869-3.558V44.132h.536a3.41,3.41,0,0,0,3.406-3.406V38.473a3.41,3.41,0,0,0-3.406-3.406ZM35.658,20.842a18.787,18.787,0,1,1,37.569,0c0,4.061-1.249,6.816-3.9,8.516a8.86,8.86,0,0,0,.14-1.175c.025-.484.044-.926.06-1.352a.9.9,0,0,0-1.79-.067c-.016.417-.035.852-.059,1.327a7.02,7.02,0,0,1-1.02,3.3l-9.915,2.149H52.139L42.3,31.408a7,7,0,0,1-1.029-3.315c-.13-2.516-.155-5.059-.081-7.6a4,4,0,0,0,.9.1,4.466,4.466,0,0,0,1.09-.139c1.971-.5,3.738-2.282,4.931-3.794a2.187,2.187,0,0,0,.6.49c1.753.99,4.273-.615,6.079-2.136A26.412,26.412,0,0,0,59.76,9.382c4.061,1.256,7.109,3.914,7.806,7.149.158,2.224.239,4.477.24,6.7a.9.9,0,0,0,.9.895h0a.9.9,0,0,0,.9-.9c0-2.192-.079-4.414-.23-6.61a8.444,8.444,0,0,0,.142-1.537A9.882,9.882,0,0,0,65,7.123,18.03,18.03,0,0,0,54.474,3.957a20.051,20.051,0,0,0-2.373.138,18.542,18.542,0,0,0-5.264,1.395,13.82,13.82,0,0,0-5.314,3.923,9.06,9.06,0,0,0-2.084,5.671,8.514,8.514,0,0,0,.143,1.545,96.581,96.581,0,0,0-.1,11.555,8.828,8.828,0,0,0,.147,1.218c-2.7-1.7-3.967-4.466-3.967-8.56ZM54.474,6.809a20.045,20.045,0,0,0-2.372.138A18.55,18.55,0,0,0,46.837,8.34,14.456,14.456,0,0,0,42.4,11.278a11.444,11.444,0,0,1,5.151-4.146,16.755,16.755,0,0,1,4.759-1.258,18.274,18.274,0,0,1,2.163-.126c5.427,0,10.1,2.313,12.145,5.613a13.319,13.319,0,0,0-2.343-1.875,18.472,18.472,0,0,0-9.8-2.677ZM47.552,9.983a16.763,16.763,0,0,1,4.76-1.257,18.548,18.548,0,0,1,5.6.2,25.231,25.231,0,0,1-4.28,4.727c-2.972,2.5-4,1.97-4.044,1.946-.318-.179-.056-.888.128-1.295a.9.9,0,0,0-1.594-.812c-.717,1.26-3.082,4.657-5.383,5.233a2.365,2.365,0,0,1-1.484-.078c.035-.711.075-1.421.125-2.13.59-2.7,2.828-5.078,6.168-6.533ZM28.906,40.726V38.473a1.617,1.617,0,0,1,1.615-1.615h.939a1.617,1.617,0,0,1,1.615,1.615v2.254a1.617,1.617,0,0,1-1.615,1.615h-.939A1.617,1.617,0,0,1,28.906,40.726Zm3.942,12.941V43.835a3.41,3.41,0,0,0,2.018-3.109V38.473a3.41,3.41,0,0,0-2.018-3.109V33.485a1.849,1.849,0,0,1,2.241-1.806l16.059,3.48v5.669a.9.9,0,0,0,1.791,0v-5.5h3.009V59.34H52.939V44.41a.9.9,0,1,0-1.791,0V59.125l-16.842-3.65a1.86,1.86,0,0,1-1.458-1.808Zm41.733,1.808-16.842,3.65V35.159L73.8,31.678a1.849,1.849,0,0,1,2.241,1.807v1.879a3.41,3.41,0,0,0-2.018,3.109v2.254a3.41,3.41,0,0,0,2.018,3.109v9.832A1.86,1.86,0,0,1,74.581,55.475Zm5.4-14.749a1.617,1.617,0,0,1-1.615,1.615h-.939a1.617,1.617,0,0,1-1.615-1.615V38.473a1.617,1.617,0,0,1,1.615-1.615h.939a1.617,1.617,0,0,1,1.615,1.615Z" transform="translate(-27.115 0)"/>
      </g>
    </g>
  </g>
</svg>
