<svg xmlns="http://www.w3.org/2000/svg" xmlns:xlink="http://www.w3.org/1999/xlink" width="113" height="113" viewBox="0 0 113 113">
  <defs>
    <filter id="Trazado_982547" x="0" y="0" width="113" height="113" filterUnits="userSpaceOnUse">
      <feOffset dy="3" input="SourceAlpha"/>
      <feGaussianBlur stdDeviation="3" result="blur"/>
      <feFlood flood-opacity="0.161"/>
      <feComposite operator="in" in2="blur"/>
      <feComposite in="SourceGraphic"/>
    </filter>
    <clipPath id="clip-path">
      <path id="path168" d="M0-682.665H88.16v88.16H0Z" transform="translate(0 682.665)"/>
    </clipPath>
  </defs>
  <g id="Grupo_1231470" data-name="Grupo 1231470" transform="translate(-5882.902 -4012.116)">
    <g id="Grupo_1230649" data-name="Grupo 1230649" transform="translate(4770.902 2781.9)">
      <g id="Grupo_1209049" data-name="Grupo 1209049">
        <g id="Grupo_1208493" data-name="Grupo 1208493" transform="translate(0 -4397.209)">
          <g id="Grupo_1202104" data-name="Grupo 1202104" transform="translate(0 -1149.226)">
            <g id="Grupo_1201923" data-name="Grupo 1201923" transform="translate(-4174.49 4856.378)">
              <g id="Grupo_1176928" data-name="Grupo 1176928" transform="translate(5295.49 1926.273)">
                <g id="Grupo_1172322" data-name="Grupo 1172322" transform="translate(0 0)">
                  <g id="Grupo_1164700" data-name="Grupo 1164700">
                    <g id="Grupo_1160931" data-name="Grupo 1160931">
                      <g id="Grupo_1160749" data-name="Grupo 1160749">
                        <g id="Grupo_1158891" data-name="Grupo 1158891">
                          <g id="Grupo_1157406" data-name="Grupo 1157406">
                            <g id="Grupo_1155793" data-name="Grupo 1155793">
                              <g id="Grupo_1154704" data-name="Grupo 1154704">
                                <g id="Grupo_1150790" data-name="Grupo 1150790">
                                  <g id="Grupo_1154214" data-name="Grupo 1154214">
                                    <g id="Grupo_1152583" data-name="Grupo 1152583">
                                      <g id="Grupo_1146973" data-name="Grupo 1146973">
                                        <g id="Grupo_1146954" data-name="Grupo 1146954">
                                          <g transform="matrix(1, 0, 0, 1, -9, -6)" filter="url(#Trazado_982547)">
                                            <g id="Trazado_982547-2" data-name="Trazado 982547" transform="translate(9 6)" fill="#dce8fa">
                                              <path d="M 47.5000114440918 93.49987030029297 C 41.28938293457031 93.49987030029297 35.26534652709961 92.28384399414062 29.5951976776123 89.88558959960938 C 24.11773109436035 87.56881713867188 19.19814491271973 84.25183868408203 14.97310447692871 80.02680206298828 C 10.74805164337158 75.80176544189453 7.43107795715332 70.88218688964844 5.114304542541504 65.40472412109375 C 2.716038227081299 59.73458862304688 1.500011444091797 53.71054840087891 1.500011444091797 47.49993515014648 C 1.500011444091797 41.28932189941406 2.716038227081299 35.26528167724609 5.114304542541504 29.59514808654785 C 7.43107795715332 24.1176815032959 10.74805164337158 19.1981086730957 14.97310447692871 14.97306823730469 C 19.19814491271973 10.74802875518799 24.11773109436035 7.431055068969727 29.5951976776123 5.11428165435791 C 35.26534652709961 2.716028451919556 41.28938293457031 1.500001788139343 47.5000114440918 1.500001788139343 C 53.71063995361328 1.500001788139343 59.73467636108398 2.716028451919556 65.40482330322266 5.11428165435791 C 70.88229370117188 7.431055068969727 75.8018798828125 10.74802875518799 80.02691650390625 14.97306823730469 C 84.25196838378906 19.1981086730957 87.56894683837891 24.1176815032959 89.88571929931641 29.59514808654785 C 92.28398132324219 35.26528167724609 93.50001525878906 41.28932189941406 93.50001525878906 47.49993515014648 C 93.50001525878906 53.71054840087891 92.28398132324219 59.73458862304688 89.88571929931641 65.40472412109375 C 87.56894683837891 70.88218688964844 84.25196838378906 75.80176544189453 80.02691650390625 80.02680206298828 C 75.8018798828125 84.25183868408203 70.88229370117188 87.56881713867188 65.40482330322266 89.88558959960938 C 59.73467636108398 92.28384399414062 53.71063995361328 93.49987030029297 47.5000114440918 93.49987030029297 Z" stroke="none"/>
                                              <path d="M 47.5000114440918 3 C 41.49122619628906 3 35.66378021240234 4.1761474609375 30.17951965332031 6.495796203613281 C 24.880859375 8.7369384765625 20.12153625488281 11.94596862792969 16.03376770019531 16.03373718261719 C 11.94598388671875 20.12149047851562 8.736968994140625 24.88081359863281 6.495811462402344 30.17947387695312 C 4.176162719726562 35.66371917724609 3.000007629394531 41.49116516113281 3.000007629394531 47.49993515014648 C 3.000007629394531 53.50870513916016 4.176162719726562 59.33615112304688 6.495811462402344 64.82039642333984 C 8.736968994140625 70.11905670166016 11.94598388671875 74.87837982177734 16.03376770019531 78.96613311767578 C 20.12153625488281 83.05390167236328 24.880859375 86.26293182373047 30.17951965332031 88.50407409667969 C 35.66378021240234 90.82372283935547 41.49122619628906 91.99987030029297 47.5000114440918 91.99987030029297 C 53.50879669189453 91.99987030029297 59.33624267578125 90.82372283935547 64.82050323486328 88.50407409667969 C 70.11916351318359 86.26293182373047 74.87848663330078 83.05390167236328 78.96625518798828 78.96613311767578 C 83.05403900146484 74.87837982177734 86.2630615234375 70.11905670166016 88.50421142578125 64.82039642333984 C 90.82386016845703 59.33615112304688 92.00001525878906 53.50870513916016 92.00001525878906 47.49993515014648 C 92.00001525878906 41.49116516113281 90.82386016845703 35.66371917724609 88.50421142578125 30.17947387695312 C 86.2630615234375 24.88081359863281 83.05403900146484 20.12149047851562 78.96625518798828 16.03373718261719 C 74.87848663330078 11.94596862792969 70.11916351318359 8.7369384765625 64.82050323486328 6.495796203613281 C 59.33624267578125 4.1761474609375 53.50879669189453 3 47.5000114440918 3 M 47.5000114440918 0 C 73.73353576660156 0 95.00001525878906 21.26644134521484 95.00001525878906 47.49993515014648 C 95.00001525878906 73.73342895507812 73.73353576660156 94.99987030029297 47.5000114440918 94.99987030029297 C 21.26648712158203 94.99987030029297 7.62939453125e-06 73.73342895507812 7.62939453125e-06 47.49993515014648 C 7.62939453125e-06 21.26644134521484 21.26648712158203 0 47.5000114440918 0 Z" stroke="none" fill="#5692e8"/>
                                            </g>
                                          </g>
                                        </g>
                                      </g>
                                    </g>
                                  </g>
                                </g>
                              </g>
                            </g>
                          </g>
                        </g>
                      </g>
                    </g>
                  </g>
                </g>
              </g>
            </g>
          </g>
        </g>
      </g>
    </g>
    <g id="Grupo_1231469" data-name="Grupo 1231469" transform="translate(68.251 -252.992)">
      <g id="g162" transform="translate(5827.071 4958.612)">
        <g id="g164" transform="translate(0 -682.665)">
          <g id="g166" clip-path="url(#clip-path)">
            <g id="g200" transform="translate(31.642 7.354)">
              <path id="path202" d="M-154.048-430.4a.861.861,0,0,1,.31.661v5.06a.861.861,0,0,1-.861.861h-2.234a.86.86,0,0,1-.609-.252l-2.043-2.043a.857.857,0,0,0-.274-.185l-11.046-4.657a.861.861,0,0,1-.527-.793v-6.271a.861.861,0,0,1,.065-.329l1.835-4.443a.861.861,0,0,0-.356-1.069l-3.179-1.89a.861.861,0,0,1-.13-1.385l1.818-1.606a.861.861,0,0,0,.291-.645v-5.685a.861.861,0,0,0-.329-.677l-2.545-2a.861.861,0,0,1-.256-1.025l2.1-4.746a.861.861,0,0,0-.132-.907l-1.818-2.131a.861.861,0,0,1-.064-1.032l1.907-2.893a.861.861,0,0,0-.02-.976l-2.969-4.128a.861.861,0,0,1-.022-.974l.889-1.36a.861.861,0,0,0,0-.936l-2.392-3.729a.861.861,0,0,1,.065-1.018l1.114-1.326a.861.861,0,0,0,.121-.918l-1.478-3.166a.861.861,0,0,1-.007-.711l1.036-2.349a.861.861,0,0,1,.481-.457l3.188-1.217,2.148-.476,4.109,9.968,1.4,11.634-.861,2.774v20.046l1.427,3.043-1.879,7.786,7.517,3.669Z" transform="translate(176.893 494.228)" fill="#96d200"/>
            </g>
            <g id="g204" transform="translate(36.42 6.953)">
              <path id="path206" d="M-133.436-433.107l-3.02-2.517a.861.861,0,0,1-.2-.234l-1.61-2.818a.86.86,0,0,0-.439-.377l-6.06-2.325a.861.861,0,0,1-.479-1.151l2.834-6.425a.861.861,0,0,0-.089-.851l-2.946-4.089a.861.861,0,0,1-.163-.5v-4.312a.861.861,0,0,1,.2-.548l2.014-2.438a.86.86,0,0,0,.177-.731l-2.292-10.533a.861.861,0,0,1,.212-.771l1.7-1.82a.861.861,0,0,0,.184-.871l-2.074-5.956a.86.86,0,0,1,.038-.658l1.209-2.5a.861.861,0,0,0-.019-.787l-5.752-10.563a.861.861,0,0,0-1.063-.393l-2.148.82,5.519,10.136a.861.861,0,0,1,.019.787l-1.209,2.5a.86.86,0,0,0-.038.658l2.074,5.956a.861.861,0,0,1-.184.871l-1.7,1.82a.861.861,0,0,0-.212.771l2.292,10.533a.86.86,0,0,1-.177.731l-2.014,2.438a.861.861,0,0,0-.2.548v4.312a.861.861,0,0,0,.163.5l2.946,4.089a.861.861,0,0,1,.089.851l-2.834,6.425a.861.861,0,0,0,.479,1.151l6.06,2.325a.86.86,0,0,1,.439.377l1.61,2.818a.861.861,0,0,0,.2.234l3.02,2.517a.861.861,0,0,1,.31.661v5.06a.861.861,0,0,1-.861.861h3.444a.861.861,0,0,0,.861-.861v-5.06a.861.861,0,0,0-.31-.661" transform="translate(153.224 497.334)" fill="#86d482"/>
            </g>
            <g id="g224" transform="translate(31.642 6.953)">
              <path id="path226" d="M-86.6-175.205l-.35-1.607a.861.861,0,0,1,.212-.771l1.7-1.82a.861.861,0,0,0,.184-.871l-2.074-5.956a.861.861,0,0,1,.038-.658l1.209-2.5a.861.861,0,0,0-.019-.787l-5.752-10.563a.861.861,0,0,0-1.063-.393l-5.336,2.037a.861.861,0,0,0-.481.457l-1.036,2.349a.861.861,0,0,0,.007.712l1.478,3.166a.861.861,0,0,1-.121.918l-1.114,1.326a.861.861,0,0,0-.065,1.018l2.392,3.729a.861.861,0,0,1,0,.936l-.889,1.36a.861.861,0,0,0,.022.974l2.969,4.128a.861.861,0,0,1,.02.976l-1.906,2.893a.861.861,0,0,0,.064,1.033l1.818,2.131a.861.861,0,0,1,.132.907l-2.1,4.746a.861.861,0,0,0,.255,1.025l2.545,2a.862.862,0,0,1,.329.677v5.685a.861.861,0,0,1-.291.645l-1.818,1.606a.861.861,0,0,0,.13,1.385l3.179,1.89a.861.861,0,0,1,.356,1.069l-1.835,4.443a.86.86,0,0,0-.065.329v6.271a.861.861,0,0,0,.527.793l11.046,4.657a.86.86,0,0,1,.274.184l2.043,2.043a.861.861,0,0,0,.609.252h3.956a.861.861,0,0,0,.861-.861V-136.3a.861.861,0,0,0-.31-.661l-3.02-2.517a.862.862,0,0,1-.2-.234l-1.61-2.818a.86.86,0,0,0-.439-.377l-6.061-2.325a.861.861,0,0,1-.479-1.151l2.833-6.425a.861.861,0,0,0-.089-.851l-2.946-4.089a.861.861,0,0,1-.163-.5v-4.312a.861.861,0,0,1,.2-.548l2.014-2.438a.861.861,0,0,0,.177-.731l-.751-3.449" transform="translate(99.437 201.187)" fill="none" stroke="#000" stroke-linecap="round" stroke-linejoin="round" stroke-miterlimit="10" stroke-width="2"/>
            </g>
          </g>
        </g>
      </g>
      <g id="Grupo_1231468" data-name="Grupo 1231468" transform="translate(5832.386 4294.036)">
        <g id="g1190" transform="translate(32.279 10.039)">
          <path id="path1192" d="M-72.46-48.308a2.513,2.513,0,0,1,2.514,2.513,2.513,2.513,0,0,1-2.514,2.513,2.513,2.513,0,0,1-2.513-2.513,2.513,2.513,0,0,1,2.513-2.513m6.483-1.26a7.553,7.553,0,0,0-6.483-3.767,7.453,7.453,0,0,0-5.526,2.473A7.625,7.625,0,0,0-80-45.735a8.316,8.316,0,0,0,.346,2.268,18.094,18.094,0,0,0,6.145,8.71,2.167,2.167,0,0,0,1.049.418c1.772,0,7.54-6.441,7.54-11.4a7.534,7.534,0,0,0-1.058-3.834" transform="translate(80 53.335)" fill="#ff5d7d" fill-rule="evenodd"/>
        </g>
        <g id="g1194" transform="translate(37.306 15.066)">
          <path id="path1196" d="M-48.308-24.153a2.513,2.513,0,0,0-2.514-2.513,2.513,2.513,0,0,0-2.513,2.513,2.513,2.513,0,0,0,2.513,2.513,2.513,2.513,0,0,0,2.514-2.513" transform="translate(53.335 26.667)" fill="#fff" fill-rule="evenodd"/>
        </g>
        <g id="g1202" transform="translate(32.279 10.039)">
          <path id="path1204" d="M-72.46-182.548c-1.772,0-7.54-6.441-7.54-11.4a7.642,7.642,0,0,1,7.54-7.6,7.642,7.642,0,0,1,7.54,7.6C-64.919-188.988-70.687-182.548-72.46-182.548Z" transform="translate(80 201.544)" fill="none" stroke="#000" stroke-linecap="round" stroke-linejoin="round" stroke-miterlimit="22.926" stroke-width="2"/>
        </g>
        <g id="g1206" transform="translate(37.306 15.066)">
          <path id="path1208" d="M-24.153-48.306A2.518,2.518,0,0,0-21.64-50.82a2.518,2.518,0,0,0-2.514-2.513,2.518,2.518,0,0,0-2.513,2.513A2.518,2.518,0,0,0-24.153-48.306Z" transform="translate(26.667 53.333)" fill="none" stroke="#000" stroke-linecap="round" stroke-linejoin="round" stroke-miterlimit="22.926" stroke-width="2"/>
        </g>
      </g>
    </g>
  </g>
</svg>
