<svg xmlns="http://www.w3.org/2000/svg" xmlns:xlink="http://www.w3.org/1999/xlink" width="113" height="113" viewBox="0 0 113 113">
  <defs>
    <filter id="Trazado_982547" x="0" y="0" width="113" height="113" filterUnits="userSpaceOnUse">
      <feOffset dy="3" input="SourceAlpha"/>
      <feGaussianBlur stdDeviation="3" result="blur"/>
      <feFlood flood-opacity="0.161"/>
      <feComposite operator="in" in2="blur"/>
      <feComposite in="SourceGraphic"/>
    </filter>
  </defs>
  <g id="Grupo_1231472" data-name="Grupo 1231472" transform="translate(-901.098 -4005.116)">
    <g id="Grupo_1230650" data-name="Grupo 1230650" transform="translate(-210.902 2774.9)">
      <g id="Grupo_1209049" data-name="Grupo 1209049">
        <g id="Grupo_1208493" data-name="Grupo 1208493" transform="translate(0 -4397.209)">
          <g id="Grupo_1202104" data-name="Grupo 1202104" transform="translate(0 -1149.226)">
            <g id="Grupo_1201923" data-name="Grupo 1201923" transform="translate(-4174.49 4856.378)">
              <g id="Grupo_1176928" data-name="Grupo 1176928" transform="translate(5295.49 1926.273)">
                <g id="Grupo_1172322" data-name="Grupo 1172322" transform="translate(0 0)">
                  <g id="Grupo_1164700" data-name="Grupo 1164700">
                    <g id="Grupo_1160931" data-name="Grupo 1160931">
                      <g id="Grupo_1160749" data-name="Grupo 1160749">
                        <g id="Grupo_1158891" data-name="Grupo 1158891">
                          <g id="Grupo_1157406" data-name="Grupo 1157406">
                            <g id="Grupo_1155793" data-name="Grupo 1155793">
                              <g id="Grupo_1154704" data-name="Grupo 1154704">
                                <g id="Grupo_1150790" data-name="Grupo 1150790">
                                  <g id="Grupo_1154214" data-name="Grupo 1154214">
                                    <g id="Grupo_1152583" data-name="Grupo 1152583">
                                      <g id="Grupo_1146973" data-name="Grupo 1146973">
                                        <g id="Grupo_1146954" data-name="Grupo 1146954">
                                          <g transform="matrix(1, 0, 0, 1, -9, -6)" filter="url(#Trazado_982547)">
                                            <g id="Trazado_982547-2" data-name="Trazado 982547" transform="translate(9 6)" fill="#dce8fa">
                                              <path d="M 47.5000114440918 93.49987030029297 C 41.28938293457031 93.49987030029297 35.26534652709961 92.28384399414062 29.5951976776123 89.88558959960938 C 24.11773109436035 87.56881713867188 19.19814491271973 84.25183868408203 14.97310447692871 80.02680206298828 C 10.74805164337158 75.80176544189453 7.43107795715332 70.88218688964844 5.114304542541504 65.40472412109375 C 2.716038227081299 59.73458862304688 1.500011444091797 53.71054840087891 1.500011444091797 47.49993515014648 C 1.500011444091797 41.28932189941406 2.716038227081299 35.26528167724609 5.114304542541504 29.59514808654785 C 7.43107795715332 24.1176815032959 10.74805164337158 19.1981086730957 14.97310447692871 14.97306823730469 C 19.19814491271973 10.74802875518799 24.11773109436035 7.431055068969727 29.5951976776123 5.11428165435791 C 35.26534652709961 2.716028451919556 41.28938293457031 1.500001788139343 47.5000114440918 1.500001788139343 C 53.71063995361328 1.500001788139343 59.73467636108398 2.716028451919556 65.40482330322266 5.11428165435791 C 70.88229370117188 7.431055068969727 75.8018798828125 10.74802875518799 80.02691650390625 14.97306823730469 C 84.25196838378906 19.1981086730957 87.56894683837891 24.1176815032959 89.88571929931641 29.59514808654785 C 92.28398132324219 35.26528167724609 93.50001525878906 41.28932189941406 93.50001525878906 47.49993515014648 C 93.50001525878906 53.71054840087891 92.28398132324219 59.73458862304688 89.88571929931641 65.40472412109375 C 87.56894683837891 70.88218688964844 84.25196838378906 75.80176544189453 80.02691650390625 80.02680206298828 C 75.8018798828125 84.25183868408203 70.88229370117188 87.56881713867188 65.40482330322266 89.88558959960938 C 59.73467636108398 92.28384399414062 53.71063995361328 93.49987030029297 47.5000114440918 93.49987030029297 Z" stroke="none"/>
                                              <path d="M 47.5000114440918 3 C 41.49122619628906 3 35.66378021240234 4.1761474609375 30.17951965332031 6.495796203613281 C 24.880859375 8.7369384765625 20.12153625488281 11.94596862792969 16.03376770019531 16.03373718261719 C 11.94598388671875 20.12149047851562 8.736968994140625 24.88081359863281 6.495811462402344 30.17947387695312 C 4.176162719726562 35.66371917724609 3.000007629394531 41.49116516113281 3.000007629394531 47.49993515014648 C 3.000007629394531 53.50870513916016 4.176162719726562 59.33615112304688 6.495811462402344 64.82039642333984 C 8.736968994140625 70.11905670166016 11.94598388671875 74.87837982177734 16.03376770019531 78.96613311767578 C 20.12153625488281 83.05390167236328 24.880859375 86.26293182373047 30.17951965332031 88.50407409667969 C 35.66378021240234 90.82372283935547 41.49122619628906 91.99987030029297 47.5000114440918 91.99987030029297 C 53.50879669189453 91.99987030029297 59.33624267578125 90.82372283935547 64.82050323486328 88.50407409667969 C 70.11916351318359 86.26293182373047 74.87848663330078 83.05390167236328 78.96625518798828 78.96613311767578 C 83.05403900146484 74.87837982177734 86.2630615234375 70.11905670166016 88.50421142578125 64.82039642333984 C 90.82386016845703 59.33615112304688 92.00001525878906 53.50870513916016 92.00001525878906 47.49993515014648 C 92.00001525878906 41.49116516113281 90.82386016845703 35.66371917724609 88.50421142578125 30.17947387695312 C 86.2630615234375 24.88081359863281 83.05403900146484 20.12149047851562 78.96625518798828 16.03373718261719 C 74.87848663330078 11.94596862792969 70.11916351318359 8.7369384765625 64.82050323486328 6.495796203613281 C 59.33624267578125 4.1761474609375 53.50879669189453 3 47.5000114440918 3 M 47.5000114440918 0 C 73.73353576660156 0 95.00001525878906 21.26644134521484 95.00001525878906 47.49993515014648 C 95.00001525878906 73.73342895507812 73.73353576660156 94.99987030029297 47.5000114440918 94.99987030029297 C 21.26648712158203 94.99987030029297 7.62939453125e-06 73.73342895507812 7.62939453125e-06 47.49993515014648 C 7.62939453125e-06 21.26644134521484 21.26648712158203 0 47.5000114440918 0 Z" stroke="none" fill="#5692e8"/>
                                            </g>
                                          </g>
                                        </g>
                                      </g>
                                    </g>
                                  </g>
                                </g>
                              </g>
                            </g>
                          </g>
                        </g>
                      </g>
                    </g>
                  </g>
                </g>
              </g>
            </g>
          </g>
        </g>
      </g>
    </g>
    <g id="colombia_5_" data-name="colombia (5)" transform="translate(864.279 4022.457)">
      <g id="Grupo_1231471" data-name="Grupo 1231471" transform="translate(67.392 1.405)">
        <path id="Trazado_1235256" data-name="Trazado 1235256" d="M203.547,109.617a2.825,2.825,0,1,1-2.825-2.825A2.825,2.825,0,0,1,203.547,109.617Zm-2.825,12.809c1.96,0,8.265-7.005,8.47-12.536q.005-.138.005-.274a8.627,8.627,0,0,0-7.329-8.466,8.136,8.136,0,0,0-1.146-.077,8.59,8.59,0,0,0-8.475,8.543C192.246,115.187,198.73,122.426,200.721,122.426Z" transform="translate(-175.821 -88.201)" fill="#ff5a58" fill-rule="evenodd"/>
        <path id="Trazado_1235257" data-name="Trazado 1235257" d="M235.071,147.2a2.825,2.825,0,1,0-2.825-2.825A2.825,2.825,0,0,0,235.071,147.2Z" transform="translate(-210.171 -122.96)" fill="#fff3db" fill-rule="evenodd"/>
        <path id="Trazado_1235258" data-name="Trazado 1235258" d="M109.342,31.634c-.205,5.531-6.511,12.536-8.47,12.536C98.88,44.17,92.4,36.93,92.4,31.36a8.59,8.59,0,0,1,8.476-8.543,8.112,8.112,0,0,1,1.146.077c-.675-3.156,4.508-8.421,8.445-8.588,3.151-.133-.609-8.653-8.372-1.516-1.315,1.209-5.518,2.376-7.816,3.051-2.649.778-1.262,1.8-3.459,5.1-2.118,3.175-1.84.327-2.835,2.291-1.251,2.467-2.4,2.763-3.328,2.834-2.593.2-4.992,4.773-3.221,7.289,1.942,2.759.627,9.763.892,10.409,1.139,2.778-.53,7.676-3.158,7.832-4.482.266-1.348,2.24-2.825,3.136-1.392.844,1.559,3.474,2.065,3.453,3.162-.125,6.258,6.137,8.058,3.045.508-.872,8.92,2.629,9.079,3.921.337,2.76,2.091,1.132,2.054,2.354-.086,2.9,2.082,1.846,2.2,2.678.542,3.929,5.561,1.956,6.792,1.812,5.8-.678,3.118,8.015,6.6,7.424s1.621-4.817,2.143-8.347c.361-2.442,1.458-2.674.707-5.417-.48-1.754-1.393-2.245-.865-3.532.686-1.672,2.386-.939,3.018-2.158,1.088-2.1-1.359-3.9.178-4.825,3.047-1.825,4.826,3.134,7.693,1.434,2.466-1.462-1.945-5.928-.568-7.464,1.336-1.49-1.913-4.057-.587-6.034,2.8-4.171.84-6.1-1.951-6.39-2.22-.232-4.751-.083-5.274-.9-1.866-2.908-3.427-3.483-5.184-3.665A28.259,28.259,0,0,1,109.342,31.634Z" transform="translate(-75.971 -9.944)" fill="#96d200" fill-rule="evenodd"/>
      </g>
      <path id="Trazado_1235259" data-name="Trazado 1235259" d="M119.616,46.065a11.208,11.208,0,0,0-.91-2.76c-.245-.576-.656-1.9-.656-1.9s.395-3.059-.1-4.173c-.406-.909-.676-1.579-.449-1.917,1.583-2.361,2-4.391,1.227-6.033a4.9,4.9,0,0,0-4.2-2.549c-.634-.066-1.273-.1-1.89-.137a12.954,12.954,0,0,1-2.439-.269c-2.051-3.131-3.937-3.93-6.13-4.156-.693-.072-1.337-.157-1.926-.255a10.107,10.107,0,0,0-2.925-6.166,9.866,9.866,0,0,0-4.347-2.544,6.861,6.861,0,0,1,1.442-2.581c1.629-1.96,3.947-3.379,5.637-3.451a2.465,2.465,0,0,0,2.379-1.89A4.433,4.433,0,0,0,102.046.74C100.806,0,97.4-1.24,92.555,3.211c-.984.9-4.893,2.045-6.771,2.593l-.487.142A3.72,3.72,0,0,0,82.31,8.924a9.036,9.036,0,0,1-1.249,2.689,7.01,7.01,0,0,1-.7.925c-1.348-.2-1.97,1.027-2.216,1.511-1,1.974-1.709,2.028-2.177,2.065a5.772,5.772,0,0,0-4.423,3.6,5.872,5.872,0,0,0,.156,5.913,4.16,4.16,0,0,1,.574,1.5,1.413,1.413,0,0,0,2.763-.59A6.8,6.8,0,0,0,74.007,24a3.251,3.251,0,0,1,.09-3.083c.516-1.1,1.393-1.93,2.085-1.984,1.271-.1,2.92-.588,4.431-3.509,1.083-.033,1.922-.926,2.8-2.24a11.817,11.817,0,0,0,1.6-3.435c.257-.847.257-.847,1.08-1.089l.482-.141c3.384-.987,6.534-1.977,7.892-3.226,2.4-2.208,4.623-2.989,6.1-2.144a2.087,2.087,0,0,1,.995,1.225c-2.951.248-5.829,2.528-7.427,4.451a9.084,9.084,0,0,0-2.081,4.047,9.722,9.722,0,0,0-6.679,2.884A10.06,10.06,0,0,0,82.4,22.82c0,3.727,2.363,7.451,3.771,9.338.609.815,3.763,4.884,6.117,4.884s5.509-4.068,6.117-4.884a19.6,19.6,0,0,0,3.573-7.4q.841.13,1.789.229c1.29.133,2.492.453,4.141,3.023.771,1.2,2.444,1.3,4.561,1.414.584.033,1.188.067,1.755.126a2.355,2.355,0,0,1,1.94.937c.306.654-.064,1.842-1.015,3.261-1.115,1.662-.314,3.456.216,4.642a5.517,5.517,0,0,1,.462,1.27c-1.173,1.354-.4,3.16.278,4.756a6.517,6.517,0,0,1,.714,2.356.265.265,0,0,1-.062.045c-.538.319-.889.211-2.209-.68-1.262-.852-3.169-2.14-5.489-.75-1.755,1.051-1.152,2.811-.863,3.656.257.752.4,1.24.161,1.721a3.1,3.1,0,0,1-.482.167,3.542,3.542,0,0,0-2.593,2.114,3.471,3.471,0,0,0,.3,3.176,6.681,6.681,0,0,1,.513,1.265,3.172,3.172,0,0,1-.109,2.543,10.105,10.105,0,0,0-.633,2.294A17.943,17.943,0,0,0,105.314,66c.178,2.961-.033,3.323-.943,3.477l-.053.007a7.551,7.551,0,0,1-.59-1.922,10.211,10.211,0,0,0-1.358-3.693,4.512,4.512,0,0,0-4.527-1.825,9.45,9.45,0,0,0-1.017.208c-.953.227-2.936.7-3.748.143a1.226,1.226,0,0,1-.463-.954,2.012,2.012,0,0,0-1.768-1.613,2.483,2.483,0,0,1-.334-.089A1.792,1.792,0,0,1,90.43,59,1.863,1.863,0,0,0,88.562,57l-.078-.009a2.413,2.413,0,0,1-.119-.551c-.1-.779-.633-1.717-3.9-3.286a25.465,25.465,0,0,0-5.16-1.9c-.544-.112-1.988-.409-2.646.721a1.35,1.35,0,0,1-.085.131,9.677,9.677,0,0,1-1.815-1.346c-1.346-1.15-2.861-2.444-4.65-2.529a5.606,5.606,0,0,1-1.162-1.185,2.534,2.534,0,0,0,.56-2.433,6.422,6.422,0,0,1,1.159-.152c1.96-.116,3.668-1.848,4.456-4.518a1.413,1.413,0,1,0-2.71-.8C72,40.55,71.2,41.6,70.5,41.642c-1.8.107-2.815.48-3.408,1.248a2.63,2.63,0,0,0-.359,2.253l.008.04a2.18,2.18,0,0,0-.65,2.388c.4,1.318,2.414,3.539,3.788,3.482h.039c.833,0,2.037,1.028,3.007,1.857,1.367,1.168,2.659,2.271,4.173,2.013a2.664,2.664,0,0,0,1.571-.916,19.555,19.555,0,0,1,3.5,1.2A15.226,15.226,0,0,1,85.6,57.081a2.832,2.832,0,0,0,2.026,2.608,2.973,2.973,0,0,0,2.326,2.836,3.842,3.842,0,0,0,1.524,2.207c1.845,1.262,4.445.643,6,.273.27-.064.575-.137.691-.15,1.737-.2,2.18.569,2.8,3.332a9.519,9.519,0,0,0,.857,2.641,2.742,2.742,0,0,0,2.449,1.489,3.386,3.386,0,0,0,.567-.049,3.669,3.669,0,0,0,3.134-2.729,11.442,11.442,0,0,0,.157-3.7,15.6,15.6,0,0,1,.013-3.1,7.365,7.365,0,0,1,.478-1.7,5.875,5.875,0,0,0,.194-4.293,9.426,9.426,0,0,0-.7-1.771c-.309-.626-.3-.638-.216-.852.1-.246.157-.294.776-.476a3.2,3.2,0,0,0,2.19-1.568,4.706,4.706,0,0,0,.008-3.945c-.046-.134-.1-.3-.141-.431.574-.246,1.063-.014,2.239.781,1.215.821,3.052,2.061,5.231.769a2.98,2.98,0,0,0,1.415-3.18ZM96.332,30.215a12.933,12.933,0,0,1-4.04,3.987,12.933,12.933,0,0,1-4.04-3.987c-1.921-2.652-3.023-5.347-3.023-7.394a7.217,7.217,0,0,1,2.138-5.065,6.916,6.916,0,0,1,4.9-2.065h.052a6.911,6.911,0,0,1,4.893,2.065,7.217,7.217,0,0,1,2.138,5.066C99.355,24.867,98.253,27.563,96.332,30.215Z" transform="translate(0)"/>
      <path id="Trazado_1235260" data-name="Trazado 1235260" d="M226.484,131.551a4.238,4.238,0,1,0,4.238,4.238A4.243,4.243,0,0,0,226.484,131.551Zm0,5.65a1.413,1.413,0,1,1,1.413-1.413A1.414,1.414,0,0,1,226.484,137.2Z" transform="translate(-134.192 -112.968)"/>
      <path id="Trazado_1235261" data-name="Trazado 1235261" d="M112.774,227.768a1.413,1.413,0,0,0,1.413-1.413h0a1.413,1.413,0,1,0-1.413,1.414Z" transform="translate(-38.97 -193.167)"/>
    </g>
  </g>
</svg>
