<svg xmlns="http://www.w3.org/2000/svg" xmlns:xlink="http://www.w3.org/1999/xlink" width="113" height="113" viewBox="0 0 113 113">
  <defs>
    <filter id="Trazado_982547" x="0" y="0" width="113" height="113" filterUnits="userSpaceOnUse">
      <feOffset dy="3" input="SourceAlpha"/>
      <feGaussianBlur stdDeviation="3" result="blur"/>
      <feFlood flood-opacity="0.161"/>
      <feComposite operator="in" in2="blur"/>
      <feComposite in="SourceGraphic"/>
    </filter>
  </defs>
  <g id="Grupo_1231494" data-name="Grupo 1231494" transform="translate(-1112 -3052.455)">
    <g id="Grupo_1230842" data-name="Grupo 1230842" transform="translate(0 1822.239)">
      <g id="Grupo_1209049" data-name="Grupo 1209049">
        <g id="Grupo_1208493" data-name="Grupo 1208493" transform="translate(0 -4397.209)">
          <g id="Grupo_1202104" data-name="Grupo 1202104" transform="translate(0 -1149.226)">
            <g id="Grupo_1201923" data-name="Grupo 1201923" transform="translate(-4174.49 4856.378)">
              <g id="Grupo_1176928" data-name="Grupo 1176928" transform="translate(5295.49 1926.273)">
                <g id="Grupo_1172322" data-name="Grupo 1172322" transform="translate(0 0)">
                  <g id="Grupo_1164700" data-name="Grupo 1164700">
                    <g id="Grupo_1160931" data-name="Grupo 1160931">
                      <g id="Grupo_1160749" data-name="Grupo 1160749">
                        <g id="Grupo_1158891" data-name="Grupo 1158891">
                          <g id="Grupo_1157406" data-name="Grupo 1157406">
                            <g id="Grupo_1155793" data-name="Grupo 1155793">
                              <g id="Grupo_1154704" data-name="Grupo 1154704">
                                <g id="Grupo_1150790" data-name="Grupo 1150790">
                                  <g id="Grupo_1154214" data-name="Grupo 1154214">
                                    <g id="Grupo_1152583" data-name="Grupo 1152583">
                                      <g id="Grupo_1146973" data-name="Grupo 1146973">
                                        <g id="Grupo_1146954" data-name="Grupo 1146954">
                                          <g transform="matrix(1, 0, 0, 1, -9, -6)" filter="url(#Trazado_982547)">
                                            <g id="Trazado_982547-2" data-name="Trazado 982547" transform="translate(9 6)" fill="#fcf8db">
                                              <path d="M 47.5000114440918 93.49987030029297 C 41.28938293457031 93.49987030029297 35.26534652709961 92.28384399414062 29.5951976776123 89.88558959960938 C 24.11773109436035 87.56881713867188 19.19814491271973 84.25183868408203 14.97310447692871 80.02680206298828 C 10.74805164337158 75.80176544189453 7.43107795715332 70.88218688964844 5.114304542541504 65.40472412109375 C 2.716038227081299 59.73458862304688 1.500011444091797 53.71054840087891 1.500011444091797 47.49993515014648 C 1.500011444091797 41.28932189941406 2.716038227081299 35.26528167724609 5.114304542541504 29.59514808654785 C 7.43107795715332 24.1176815032959 10.74805164337158 19.1981086730957 14.97310447692871 14.97306823730469 C 19.19814491271973 10.74802875518799 24.11773109436035 7.431055068969727 29.5951976776123 5.11428165435791 C 35.26534652709961 2.716028451919556 41.28938293457031 1.500001788139343 47.5000114440918 1.500001788139343 C 53.71063995361328 1.500001788139343 59.73467636108398 2.716028451919556 65.40482330322266 5.11428165435791 C 70.88229370117188 7.431055068969727 75.8018798828125 10.74802875518799 80.02691650390625 14.97306823730469 C 84.25196838378906 19.1981086730957 87.56894683837891 24.1176815032959 89.88571929931641 29.59514808654785 C 92.28398132324219 35.26528167724609 93.50001525878906 41.28932189941406 93.50001525878906 47.49993515014648 C 93.50001525878906 53.71054840087891 92.28398132324219 59.73458862304688 89.88571929931641 65.40472412109375 C 87.56894683837891 70.88218688964844 84.25196838378906 75.80176544189453 80.02691650390625 80.02680206298828 C 75.8018798828125 84.25183868408203 70.88229370117188 87.56881713867188 65.40482330322266 89.88558959960938 C 59.73467636108398 92.28384399414062 53.71063995361328 93.49987030029297 47.5000114440918 93.49987030029297 Z" stroke="none"/>
                                              <path d="M 47.5000114440918 3 C 41.49122619628906 3 35.66378021240234 4.1761474609375 30.17951965332031 6.495796203613281 C 24.880859375 8.7369384765625 20.12153625488281 11.94596862792969 16.03376770019531 16.03373718261719 C 11.94598388671875 20.12149047851562 8.736968994140625 24.88081359863281 6.495811462402344 30.17947387695312 C 4.176162719726562 35.66371917724609 3.000007629394531 41.49116516113281 3.000007629394531 47.49993515014648 C 3.000007629394531 53.50870513916016 4.176162719726562 59.33615112304688 6.495811462402344 64.82039642333984 C 8.736968994140625 70.11905670166016 11.94598388671875 74.87837982177734 16.03376770019531 78.96613311767578 C 20.12153625488281 83.05390167236328 24.880859375 86.26293182373047 30.17951965332031 88.50407409667969 C 35.66378021240234 90.82372283935547 41.49122619628906 91.99987030029297 47.5000114440918 91.99987030029297 C 53.50879669189453 91.99987030029297 59.33624267578125 90.82372283935547 64.82050323486328 88.50407409667969 C 70.11916351318359 86.26293182373047 74.87848663330078 83.05390167236328 78.96625518798828 78.96613311767578 C 83.05403900146484 74.87837982177734 86.2630615234375 70.11905670166016 88.50421142578125 64.82039642333984 C 90.82386016845703 59.33615112304688 92.00001525878906 53.50870513916016 92.00001525878906 47.49993515014648 C 92.00001525878906 41.49116516113281 90.82386016845703 35.66371917724609 88.50421142578125 30.17947387695312 C 86.2630615234375 24.88081359863281 83.05403900146484 20.12149047851562 78.96625518798828 16.03373718261719 C 74.87848663330078 11.94596862792969 70.11916351318359 8.7369384765625 64.82050323486328 6.495796203613281 C 59.33624267578125 4.1761474609375 53.50879669189453 3 47.5000114440918 3 M 47.5000114440918 0 C 73.73353576660156 0 95.00001525878906 21.26644134521484 95.00001525878906 47.49993515014648 C 95.00001525878906 73.73342895507812 73.73353576660156 94.99987030029297 47.5000114440918 94.99987030029297 C 21.26648712158203 94.99987030029297 7.62939453125e-06 73.73342895507812 7.62939453125e-06 47.49993515014648 C 7.62939453125e-06 21.26644134521484 21.26648712158203 0 47.5000114440918 0 Z" stroke="none" fill="#83793c"/>
                                            </g>
                                          </g>
                                        </g>
                                      </g>
                                    </g>
                                  </g>
                                </g>
                              </g>
                            </g>
                          </g>
                        </g>
                      </g>
                    </g>
                  </g>
                </g>
              </g>
            </g>
          </g>
        </g>
      </g>
    </g>
    <g id="cerebro_8_" data-name="cerebro (8)" transform="translate(1135.85 3074.824)">
      <path id="Trazado_1235320" data-name="Trazado 1235320" d="M67.658,92.292a6.664,6.664,0,0,1,.529,2.594,6.745,6.745,0,0,1-12.878,2.791c-2.8,1.339-3.725,4.244-3.725,7.472v4.784H46.395v-8.3a6.227,6.227,0,0,0-6.226-6.226H27.716a6.226,6.226,0,0,1-6.226-6.06,5.855,5.855,0,0,1,.913-3.279H16.3a8.3,8.3,0,1,1,0-16.6,8.8,8.8,0,0,1,1.183.083v-.083a7.681,7.681,0,0,1-.145-1.557,7.783,7.783,0,0,1,7.783-7.783,7.431,7.431,0,0,1,3.321.757,8.3,8.3,0,0,1,15.472.82,8.82,8.82,0,1,1,13.3,11.487.2.2,0,0,1,0,.073,7.181,7.181,0,0,1,4.742-1.723A7.264,7.264,0,0,1,69.224,78.8a7.151,7.151,0,0,1-1.888,4.877,6.225,6.225,0,0,1,1.888,4.462,6.154,6.154,0,0,1-1.567,4.151Zm0,0" transform="translate(-6.962 -48.709)" fill="#ff9ab3"/>
      <path id="Trazado_1235321" data-name="Trazado 1235321" d="M61.733,76.849A8.3,8.3,0,0,0,55,63.7a8.087,8.087,0,0,0-1.806.208,9.979,9.979,0,0,0,.768-3.84A9.838,9.838,0,0,0,37.253,53a9.339,9.339,0,0,0-16.24-.239,8.443,8.443,0,0,0-2.854-.477,8.831,8.831,0,0,0-8.82,8.82v.519a9.339,9.339,0,1,0,0,18.679h4.493a6.745,6.745,0,0,0-.343,2.273,7.264,7.264,0,0,0,7.264,7.067H33.206a5.189,5.189,0,0,1,5.188,5.188v8.3a1.038,1.038,0,0,0,1.038,1.038h5.188a1.038,1.038,0,0,0,1.038-1.038V98.35c0-2.854.778-4.877,2.3-6.019a7.783,7.783,0,0,0,14.3-4.244,7.619,7.619,0,0,0-.394-2.428A7.264,7.264,0,0,0,63.3,81.342a7.338,7.338,0,0,0-1.567-4.493ZM54.479,93.794a5.676,5.676,0,0,1-5.189-3.352,5.57,5.57,0,0,1-.519-2.356H46.7a7.686,7.686,0,0,0,.363,2.335c-1.733,1.142-3.476,3.373-3.476,7.928V102.1H40.47V94.832a7.264,7.264,0,0,0-7.264-7.264H20.754a5.188,5.188,0,0,1-5.188-5.054,4.889,4.889,0,0,1,.758-2.708,5.561,5.561,0,0,1,2.2-2.013,6.345,6.345,0,0,0,.612-.249,5.338,5.338,0,0,1,1.878-.353h9.08a6.227,6.227,0,0,0,6.226-6.226H34.244a4.151,4.151,0,0,1-4.151,4.151h-9.08a7.694,7.694,0,0,0-3.31.768,5.068,5.068,0,0,1-1.64.27,5.19,5.19,0,0,1-3.86-1.733l-1.557,1.39a7.266,7.266,0,0,0,4.338,2.325l-.062.093H9.339a7.264,7.264,0,1,1,4.026-13.293,7.679,7.679,0,0,0,.83,6.59L15.939,70.4a5.729,5.729,0,0,1,0-6.143l-1.162-.747.062-.083a8.993,8.993,0,0,0-3.373-1.546,6.441,6.441,0,0,1-.052-.778,6.755,6.755,0,0,1,6.745-6.745,6.386,6.386,0,0,1,2.905.674h.073A6.55,6.55,0,0,1,24,57.713l1.806-1.038a8.742,8.742,0,0,0-2.978-3A7.264,7.264,0,0,1,35.749,54.8a9.482,9.482,0,0,0-1.391,3.528l2.075.374a7.783,7.783,0,1,1,13.1,6.942l.156.156-.716.716a5.482,5.482,0,0,1,.467.509l.062.093a6.04,6.04,0,0,1,1.349,3.85,6.227,6.227,0,0,1-6.226,6.226v2.075A8.3,8.3,0,0,0,51.74,66.71,6.145,6.145,0,0,1,55,65.776,6.227,6.227,0,0,1,61.224,72,6.1,6.1,0,0,1,60.187,75.4a7.181,7.181,0,0,0-4.151-1.318v2.075a5.106,5.106,0,0,1,3.611,1.473,5.188,5.188,0,0,1-3.611,8.9v2.075a7.263,7.263,0,0,0,4.078-1.266,6.067,6.067,0,0,1,.072.747,5.718,5.718,0,0,1-5.707,5.707Zm0,0" transform="translate(0 -41.909)" fill="#eb7f9a"/>
      <path id="Trazado_1235322" data-name="Trazado 1235322" d="M172.452,304H160v2.075h12.452a10.377,10.377,0,0,1,9.142,5.469l1.826-.975A12.452,12.452,0,0,0,172.452,304Zm0,0" transform="translate(-139.246 -264.567)" fill="#eb7f9a"/>
      <path id="Trazado_1235323" data-name="Trazado 1235323" d="M397.189,288A5.189,5.189,0,0,0,392,293.189h2.075a3.113,3.113,0,0,1,3.113-3.113Zm0,0" transform="translate(-341.153 -250.643)" fill="#eb7f9a"/>
      <path id="Trazado_1235324" data-name="Trazado 1235324" d="M174.817,59.305a11.414,11.414,0,0,1-6.693,10.377h-9.443a11.415,11.415,0,1,1,16.136-10.377Zm0,0" transform="translate(-132.271 -41.665)" fill="#fce013"/>
      <path id="Trazado_1235325" data-name="Trazado 1235325" d="M194.377,126.528H192.3v-8.3h-2.075v8.3h-2.075v-8.3h-1.038a3.113,3.113,0,1,1,3.113-3.113v1.038H192.3v-1.038a3.113,3.113,0,1,1,3.113,3.113h-1.038Zm0-10.377h1.038a1.038,1.038,0,1,0-1.038-1.038Zm-7.264-2.075a1.038,1.038,0,0,0,0,2.075h1.038v-1.038A1.038,1.038,0,0,0,187.113,114.075Zm0,0" transform="translate(-160.133 -97.472)" fill="#f95925"/>
      <path id="Trazado_1235326" data-name="Trazado 1235326" d="M213.044,216a5.585,5.585,0,0,1-.571.249v4.939h-8.3v-4.939A5.585,5.585,0,0,1,203.6,216Zm0,0" transform="translate(-177.192 -187.982)" fill="#3dcde7"/>
      <g id="Grupo_1231493" data-name="Grupo 1231493" transform="translate(11.415)">
        <path id="Trazado_1235327" data-name="Trazado 1235327" d="M216,256h6.226v1.038a3.113,3.113,0,0,1-6.226,0Zm0,0" transform="translate(-199.397 -222.794)" fill="#f95925"/>
        <path id="Trazado_1235328" data-name="Trazado 1235328" d="M332.98,186.887l1.038-1.8,2.7,1.556-1.037,1.8Zm0,0" transform="translate(-301.203 -161.081)" fill="#f95925"/>
        <path id="Trazado_1235329" data-name="Trazado 1235329" d="M118.273,186.638l2.7-1.556,1.037,1.8-2.7,1.556Zm0,0" transform="translate(-114.346 -161.074)" fill="#f95925"/>
        <path id="Trazado_1235330" data-name="Trazado 1235330" d="M332.984,62.634l2.7-1.556,1.037,1.8-2.7,1.556Zm0,0" transform="translate(-301.207 -53.156)" fill="#f95925"/>
        <path id="Trazado_1235331" data-name="Trazado 1235331" d="M232,0h2.075V3.113H232Zm0,0" transform="translate(-213.321)" fill="#f95925"/>
        <path id="Trazado_1235332" data-name="Trazado 1235332" d="M118.254,62.8l1.038-1.8,2.7,1.556-1.037,1.8Zm0,0" transform="translate(-114.33 -53.088)" fill="#f95925"/>
        <path id="Trazado_1235333" data-name="Trazado 1235333" d="M289.063,4.881,291.656.387l1.8,1.037L290.86,5.918Zm0,0" transform="translate(-262.983 -0.337)" fill="#f95925"/>
        <path id="Trazado_1235334" data-name="Trazado 1235334" d="M157.109,233.49,159.7,229l1.8,1.038-2.594,4.494Zm0,0" transform="translate(-148.145 -199.293)" fill="#f95925"/>
        <path id="Trazado_1235335" data-name="Trazado 1235335" d="M157.1,1.428,158.9.391l2.594,4.493-1.8,1.038Zm0,0" transform="translate(-148.135 -0.34)" fill="#f95925"/>
        <path id="Trazado_1235336" data-name="Trazado 1235336" d="M289.094,230.077l1.8-1.038,2.594,4.493-1.8,1.038Zm0,0" transform="translate(-263.01 -199.33)" fill="#f95925"/>
        <path id="Trazado_1235337" data-name="Trazado 1235337" d="M88,128h5.188v2.075H88Zm0,0" transform="translate(-88 -111.397)" fill="#f95925"/>
        <path id="Trazado_1235338" data-name="Trazado 1235338" d="M352,128h5.188v2.075H352Zm0,0" transform="translate(-317.756 -111.397)" fill="#f95925"/>
      </g>
      <path id="Trazado_1235339" data-name="Trazado 1235339" d="M55,87.515a8.087,8.087,0,0,0-1.806.208,9.979,9.979,0,0,0,.768-3.84,9.817,9.817,0,0,0-4.639-8.364l-1.1,1.764a7.773,7.773,0,0,1,2,11.415A8.615,8.615,0,0,0,48.9,87.661l-1.038,1.785a6.226,6.226,0,0,1-3.238,11.56v2.075A8.3,8.3,0,0,0,51.75,90.525,6.02,6.02,0,0,1,55,89.591a6.227,6.227,0,0,1,6.226,6.226,6.1,6.1,0,0,1-1.038,3.393,7.181,7.181,0,0,0-4.151-1.318v2.075a5.106,5.106,0,0,1,3.611,1.473,5.188,5.188,0,0,1-3.611,8.9v2.075a7.263,7.263,0,0,0,4.078-1.266,6.066,6.066,0,0,1,.072.747,5.707,5.707,0,0,1-11.415,0H46.7a7.561,7.561,0,0,0,.363,2.335c-1.744,1.152-3.476,3.424-3.476,7.928v3.746H40.47v-7.264a7.264,7.264,0,0,0-7.264-7.264H20.754a5.188,5.188,0,0,1-5.188-5.043,5.291,5.291,0,0,1,3.487-4.971l-.072-.187.218-.114-.778-1.349-.114-.28-.1-.187a5.188,5.188,0,0,1-6.465-1.038L10.19,99.6a7.327,7.327,0,0,0,4.774,2.387H9.339a7.264,7.264,0,0,1,0-14.528,7.169,7.169,0,0,1,4.275,1.4l1.224-1.681a9.179,9.179,0,0,0-3.373-1.526,6.632,6.632,0,0,1-.052-.737V84.4H16.6V82.327h-4.66a6.634,6.634,0,0,1,2.169-2.8l-1.245-1.66a8.747,8.747,0,0,0-3.528,7.056v.519a9.339,9.339,0,1,0,0,18.679h4.483a6.942,6.942,0,0,0-.332,2.273,7.264,7.264,0,0,0,7.264,7.067H33.206a5.189,5.189,0,0,1,5.188,5.188v8.3a1.038,1.038,0,0,0,1.038,1.038h5.189a1.038,1.038,0,0,0,1.038-1.038v-4.784c0-2.864.778-4.877,2.3-6.019a7.783,7.783,0,0,0,14.3-4.244,7.619,7.619,0,0,0-.394-2.428,7.264,7.264,0,0,0,1.432-4.317,7.338,7.338,0,0,0-1.567-4.493A8.3,8.3,0,0,0,55,87.515Zm0,0" transform="translate(0 -65.724)"/>
      <path id="Trazado_1235340" data-name="Trazado 1235340" d="M181.594,311.554l1.826-1.038A12.452,12.452,0,0,0,172.452,304H160v2.075h12.452A10.378,10.378,0,0,1,181.594,311.554Zm0,0" transform="translate(-139.246 -264.567)"/>
      <path id="Trazado_1235341" data-name="Trazado 1235341" d="M397.189,290.075V288A5.189,5.189,0,0,0,392,293.189h2.075A3.113,3.113,0,0,1,397.189,290.075Zm0,0" transform="translate(-341.153 -250.643)"/>
      <path id="Trazado_1235342" data-name="Trazado 1235342" d="M151.255,63.7v4.255a1.038,1.038,0,0,0,1.038,1.038,4.151,4.151,0,0,0,8.3,0,1.038,1.038,0,0,0,1.038-1.038V63.7a12.452,12.452,0,1,0-10.377,0Zm4.151.1h4.151v3.113h-6.226V63.806Zm-2.075-10.377h-1.038a1.038,1.038,0,1,1,1.038-1.038Zm4.151,8.3h-2.075V55.5h2.075Zm-1.038,9.339a2.075,2.075,0,0,1-2.075-2.075h4.151A2.075,2.075,0,0,1,156.444,71.07Zm0-29.056a10.377,10.377,0,0,1,4.151,19.872V61.73h-1.038V55.5h1.038a3.113,3.113,0,1,0-3.113-3.113v1.038h-2.075V52.391a3.113,3.113,0,1,0-3.113,3.113h1.038V61.73h-1.038v.156a10.377,10.377,0,0,1,4.151-19.872Zm3.113,11.415V52.391a1.038,1.038,0,1,1,1.038,1.038Zm0,0" transform="translate(-125.313 -34.75)"/>
      <path id="Trazado_1235343" data-name="Trazado 1235343" d="M118.215,186.6l2.7-1.557,1.038,1.8-2.7,1.557Zm0,0" transform="translate(-102.881 -161.041)"/>
      <path id="Trazado_1235344" data-name="Trazado 1235344" d="M332.984,62.634l2.7-1.556,1.037,1.8-2.7,1.556Zm0,0" transform="translate(-289.792 -53.156)"/>
      <path id="Trazado_1235345" data-name="Trazado 1235345" d="M232,0h2.075V3.113H232Zm0,0" transform="translate(-201.907)"/>
      <path id="Trazado_1235346" data-name="Trazado 1235346" d="M333.016,186.872l1.038-1.8,2.7,1.557-1.038,1.8Zm0,0" transform="translate(-289.82 -161.068)"/>
      <path id="Trazado_1235347" data-name="Trazado 1235347" d="M118.254,62.8l1.038-1.8,2.7,1.556-1.037,1.8Zm0,0" transform="translate(-102.915 -53.088)"/>
      <path id="Trazado_1235348" data-name="Trazado 1235348" d="M289.105,4.833,291.7.34l1.8,1.038L290.9,5.871Zm0,0" transform="translate(-251.605 -0.296)"/>
      <path id="Trazado_1235349" data-name="Trazado 1235349" d="M157.109,233.49,159.7,229l1.8,1.038-2.594,4.494Zm0,0" transform="translate(-136.73 -199.293)"/>
      <path id="Trazado_1235350" data-name="Trazado 1235350" d="M157.1,1.428,158.9.391l2.594,4.493-1.8,1.038Zm0,0" transform="translate(-136.721 -0.34)"/>
      <path id="Trazado_1235351" data-name="Trazado 1235351" d="M289.094,230.077l1.8-1.038,2.594,4.493-1.8,1.038Zm0,0" transform="translate(-251.595 -199.33)"/>
      <path id="Trazado_1235352" data-name="Trazado 1235352" d="M352,128h5.188v2.075H352Zm0,0" transform="translate(-306.341 -111.397)"/>
    </g>
  </g>
</svg>
