<svg xmlns="http://www.w3.org/2000/svg" xmlns:xlink="http://www.w3.org/1999/xlink" width="113" height="113" viewBox="0 0 113 113">
  <defs>
    <filter id="Trazado_982547" x="0" y="0" width="113" height="113" filterUnits="userSpaceOnUse">
      <feOffset dy="3" input="SourceAlpha"/>
      <feGaussianBlur stdDeviation="3" result="blur"/>
      <feFlood flood-opacity="0.161"/>
      <feComposite operator="in" in2="blur"/>
      <feComposite in="SourceGraphic"/>
    </filter>
  </defs>
  <g id="Grupo_1231497" data-name="Grupo 1231497" transform="translate(-9109.393 -3049.455)">
    <g id="Grupo_1230843" data-name="Grupo 1230843" transform="translate(8315.902 1819.239)">
      <g id="Grupo_1208492" data-name="Grupo 1208492" transform="translate(0 -4397.209)">
        <g id="Grupo_1177675" data-name="Grupo 1177675" transform="translate(-4493 3707.152)">
          <g id="Grupo_1176928" data-name="Grupo 1176928" transform="translate(5295.49 1926.273)">
            <g id="Grupo_1172322" data-name="Grupo 1172322" transform="translate(0 0)">
              <g id="Grupo_1164700" data-name="Grupo 1164700">
                <g id="Grupo_1160931" data-name="Grupo 1160931">
                  <g id="Grupo_1160749" data-name="Grupo 1160749">
                    <g id="Grupo_1158891" data-name="Grupo 1158891">
                      <g id="Grupo_1157406" data-name="Grupo 1157406">
                        <g id="Grupo_1155793" data-name="Grupo 1155793">
                          <g id="Grupo_1154704" data-name="Grupo 1154704">
                            <g id="Grupo_1150790" data-name="Grupo 1150790">
                              <g id="Grupo_1154214" data-name="Grupo 1154214">
                                <g id="Grupo_1152583" data-name="Grupo 1152583">
                                  <g id="Grupo_1146973" data-name="Grupo 1146973">
                                    <g id="Grupo_1146954" data-name="Grupo 1146954">
                                      <g transform="matrix(1, 0, 0, 1, -9, -6)" filter="url(#Trazado_982547)">
                                        <g id="Trazado_982547-2" data-name="Trazado 982547" transform="translate(9 6)" fill="#fcf8db">
                                          <path d="M 47.5000114440918 93.49987030029297 C 41.28938293457031 93.49987030029297 35.26534652709961 92.28384399414062 29.5951976776123 89.88558959960938 C 24.11773109436035 87.56881713867188 19.19814491271973 84.25183868408203 14.97310447692871 80.02680206298828 C 10.74805164337158 75.80176544189453 7.43107795715332 70.88218688964844 5.114304542541504 65.40472412109375 C 2.716038227081299 59.73458862304688 1.500011444091797 53.71054840087891 1.500011444091797 47.49993515014648 C 1.500011444091797 41.28932189941406 2.716038227081299 35.26528167724609 5.114304542541504 29.59514808654785 C 7.43107795715332 24.1176815032959 10.74805164337158 19.1981086730957 14.97310447692871 14.97306823730469 C 19.19814491271973 10.74802875518799 24.11773109436035 7.431055068969727 29.5951976776123 5.11428165435791 C 35.26534652709961 2.716028451919556 41.28938293457031 1.500001788139343 47.5000114440918 1.500001788139343 C 53.71063995361328 1.500001788139343 59.73467636108398 2.716028451919556 65.40482330322266 5.11428165435791 C 70.88229370117188 7.431055068969727 75.8018798828125 10.74802875518799 80.02691650390625 14.97306823730469 C 84.25196838378906 19.1981086730957 87.56894683837891 24.1176815032959 89.88571929931641 29.59514808654785 C 92.28398132324219 35.26528167724609 93.50001525878906 41.28932189941406 93.50001525878906 47.49993515014648 C 93.50001525878906 53.71054840087891 92.28398132324219 59.73458862304688 89.88571929931641 65.40472412109375 C 87.56894683837891 70.88218688964844 84.25196838378906 75.80176544189453 80.02691650390625 80.02680206298828 C 75.8018798828125 84.25183868408203 70.88229370117188 87.56881713867188 65.40482330322266 89.88558959960938 C 59.73467636108398 92.28384399414062 53.71063995361328 93.49987030029297 47.5000114440918 93.49987030029297 Z" stroke="none"/>
                                          <path d="M 47.5000114440918 3 C 41.49122619628906 3 35.66378021240234 4.1761474609375 30.17951965332031 6.495796203613281 C 24.880859375 8.7369384765625 20.12153625488281 11.94596862792969 16.03376770019531 16.03373718261719 C 11.94598388671875 20.12149047851562 8.736968994140625 24.88081359863281 6.495811462402344 30.17947387695312 C 4.176162719726562 35.66371917724609 3.000007629394531 41.49116516113281 3.000007629394531 47.49993515014648 C 3.000007629394531 53.50870513916016 4.176162719726562 59.33615112304688 6.495811462402344 64.82039642333984 C 8.736968994140625 70.11905670166016 11.94598388671875 74.87837982177734 16.03376770019531 78.96613311767578 C 20.12153625488281 83.05390167236328 24.880859375 86.26293182373047 30.17951965332031 88.50407409667969 C 35.66378021240234 90.82372283935547 41.49122619628906 91.99987030029297 47.5000114440918 91.99987030029297 C 53.50879669189453 91.99987030029297 59.33624267578125 90.82372283935547 64.82050323486328 88.50407409667969 C 70.11916351318359 86.26293182373047 74.87848663330078 83.05390167236328 78.96625518798828 78.96613311767578 C 83.05403900146484 74.87837982177734 86.2630615234375 70.11905670166016 88.50421142578125 64.82039642333984 C 90.82386016845703 59.33615112304688 92.00001525878906 53.50870513916016 92.00001525878906 47.49993515014648 C 92.00001525878906 41.49116516113281 90.82386016845703 35.66371917724609 88.50421142578125 30.17947387695312 C 86.2630615234375 24.88081359863281 83.05403900146484 20.12149047851562 78.96625518798828 16.03373718261719 C 74.87848663330078 11.94596862792969 70.11916351318359 8.7369384765625 64.82050323486328 6.495796203613281 C 59.33624267578125 4.1761474609375 53.50879669189453 3 47.5000114440918 3 M 47.5000114440918 0 C 73.73353576660156 0 95.00001525878906 21.26644134521484 95.00001525878906 47.49993515014648 C 95.00001525878906 73.73342895507812 73.73353576660156 94.99987030029297 47.5000114440918 94.99987030029297 C 21.26648712158203 94.99987030029297 7.62939453125e-06 73.73342895507812 7.62939453125e-06 47.49993515014648 C 7.62939453125e-06 21.26644134521484 21.26648712158203 0 47.5000114440918 0 Z" stroke="none" fill="#83793c"/>
                                        </g>
                                      </g>
                                    </g>
                                  </g>
                                </g>
                              </g>
                            </g>
                          </g>
                        </g>
                      </g>
                    </g>
                  </g>
                </g>
              </g>
            </g>
          </g>
        </g>
      </g>
    </g>
    <g id="libertad-de-expresion" transform="translate(9138.488 3070.494)">
      <g id="Grupo_1231495" data-name="Grupo 1231495" transform="translate(1.461 0.953)">
        <path id="Trazado_1235353" data-name="Trazado 1235353" d="M79.574,79.752a.862.862,0,0,0,.669-.662c.141-.662.253-1.248.338-1.715a1.4,1.4,0,0,0-.9-1.564l-.892-.328a1.393,1.393,0,0,1-.919-1.292c-.02-3.478-1.566-7.8-3.212-9.669l-9.232.6-3.177,11.51-6,17.305,10.911,2.7,2.7-7.293s1.2,1.872,4.66,2.15a1.47,1.47,0,0,0,1.4-.747c.528-.938,1.231-2.4,1.469-2.734a.8.8,0,0,0-.221-1.148c-4.051-2.517-2.247-6.13,2.4-7.109Z" transform="translate(-50.137 -57.291)" fill="#ffa78f"/>
        <path id="Trazado_1235354" data-name="Trazado 1235354" d="M180,79.752a.862.862,0,0,0,.669-.662c.141-.662.253-1.248.338-1.715a1.4,1.4,0,0,0-.9-1.564l-.892-.328a1.393,1.393,0,0,1-.919-1.292c-.02-3.478-1.566-7.8-3.212-9.669l-3.823.248c4.434,10.526,4.346,19.929.39,25.751a7.6,7.6,0,0,0,3.3.969,1.47,1.47,0,0,0,1.4-.747c.528-.938,1.231-2.4,1.469-2.734a.8.8,0,0,0-.221-1.148c-4.051-2.517-2.247-6.13,2.405-7.109Z" transform="translate(-150.566 -57.291)" fill="#f78d7c"/>
        <path id="Trazado_1235355" data-name="Trazado 1235355" d="M51.19,9.767a2.531,2.531,0,0,0-3.547-2.046c-.969.431-1.929.844-2.571,1.118a4.123,4.123,0,0,1-1.616.33H37.068c-20.43,0-16.891,25.45-7.489,25.45h.7a1.4,1.4,0,0,0,1.383-1.193l.768-5.17,2.3-2.367,2.486-3.9A7.952,7.952,0,0,1,42.656,18.4c.844-.136,1.832-.279,2.961-.418,5.421-.667,5.9-5.021,5.573-8.216Z" transform="translate(-20.3 -7.5)" fill="#685e68"/>
        <path id="Trazado_1235356" data-name="Trazado 1235356" d="M208.279,7.721c-.76.338-1.514.665-2.114.922,2.708,2.677,2.991,5.558-.118,9.366l.206-.026c5.421-.667,5.9-5.021,5.573-8.216a2.531,2.531,0,0,0-3.547-2.046Z" transform="translate(-180.937 -7.5)" fill="#554e56"/>
        <path id="Trazado_1235357" data-name="Trazado 1235357" d="M85.463,130.527a3.645,3.645,0,0,1-4.284-3.031,3.7,3.7,0,0,1,3.008-4.147,2.941,2.941,0,0,1,3.438,2.339l.2,1.037Z" transform="translate(-71.864 -108.615)" fill="#ffa78f"/>
        <path id="Trazado_1235358" data-name="Trazado 1235358" d="M29,291.984,26.706,289l-12.589-5.649-3.228,2.363a7.059,7.059,0,0,0-2.89,5.7v19.347a.634.634,0,0,0,.634.634H29.77a.634.634,0,0,0,.634-.634V296.112A6.77,6.77,0,0,0,29,291.984Z" transform="translate(-7.999 -248.377)" fill="#8795de"/>
        <path id="Trazado_1235359" data-name="Trazado 1235359" d="M63.172,291.984,60.877,289l-12.589-5.649-1.157.846,10.7,4.8,2.295,2.983a6.769,6.769,0,0,1,1.4,4.128v15.28h2.409a.634.634,0,0,0,.634-.634V296.112A6.769,6.769,0,0,0,63.172,291.984Z" transform="translate(-42.17 -248.377)" fill="#6c7fd8"/>
        <path id="Trazado_1235360" data-name="Trazado 1235360" d="M42.732,254.481,56.091,260.6a1.685,1.685,0,0,1,.979,1.641l-.209,3.218a.857.857,0,0,1-1.168.742l-15.1-5.94a1.151,1.151,0,0,1-.668-1.443l1.254-3.672A1.142,1.142,0,0,1,42.732,254.481Z" transform="translate(-35.82 -223.075)" fill="#e8edf2"/>
        <path id="Trazado_1235361" data-name="Trazado 1235361" d="M151.682,296.151l-2.325-1.066a1.683,1.683,0,0,1,.344,1.132l-.209,4.322a.847.847,0,0,1-.161.445l1.953.768a.857.857,0,0,0,1.168-.742l.209-3.218A1.685,1.685,0,0,0,151.682,296.151Z" transform="translate(-131.412 -258.622)" fill="#d3dee5"/>
        <path id="Trazado_1235362" data-name="Trazado 1235362" d="M302.424,234.1h5.506v9.7h-5.506Z" transform="translate(-265.094 -205.368)" fill="#685e68"/>
        <path id="Trazado_1235363" data-name="Trazado 1235363" d="M276.919,178.326v-5.094a1.9,1.9,0,0,1,1.9-1.9h9.444v8.9h-9.444A1.9,1.9,0,0,1,276.919,178.326Z" transform="translate(-242.823 -150.556)" fill="#fe646f"/>
        <path id="Trazado_1235364" data-name="Trazado 1235364" d="M367.548,141.943h-1.126v8.9h1.126a7.667,7.667,0,0,1,5.424,2.248l1.8,1.805a.722.722,0,0,0,1.233-.51V138.4a.722.722,0,0,0-1.233-.51l-1.8,1.805a7.668,7.668,0,0,1-5.424,2.248Z" transform="translate(-320.978 -121.172)" fill="#e8edf2"/>
        <path id="Trazado_1235365" data-name="Trazado 1235365" d="M422.465,137.89l-1.429,1.431v14.148l1.429,1.431a.722.722,0,0,0,1.233-.51V138.4A.722.722,0,0,0,422.465,137.89Z" transform="translate(-368.667 -121.172)" fill="#d3dee5"/>
        <path id="Trazado_1235366" data-name="Trazado 1235366" d="M94.817,279.185H89.548a2.273,2.273,0,0,0-2.273,2.273v4.374a2.226,2.226,0,0,1-.166.843L82.862,297.06a1.187,1.187,0,0,1-1.572.639l-17.155-7.468a4.3,4.3,0,1,0-3.432,7.883l20.226,8.8a4.6,4.6,0,0,0,6.095-2.477l6.689-16.353a.753.753,0,0,1,.7-.468h.409a4,4,0,0,0,4-4v-.428A4,4,0,0,0,94.817,279.185Z" transform="translate(-51.763 -244.738)" fill="#ffa78f"/>
        <path id="Trazado_1235367" data-name="Trazado 1235367" d="M254.584,279.78a3.983,3.983,0,0,1,.71,2.275v.428a4,4,0,0,1-4,4h-.409a.753.753,0,0,0-.7.468l-7.292,18.006a4.587,4.587,0,0,1-2.7,2.585,4.6,4.6,0,0,0,5.82-2.585l6.689-16.354a.753.753,0,0,1,.7-.468h.409a4,4,0,0,0,4-4v-.428A4,4,0,0,0,254.584,279.78Z" transform="translate(-210.756 -245.258)" fill="#f78d7c"/>
        <path id="Trazado_1235368" data-name="Trazado 1235368" d="M78.022,369.885l-13.888-6.046a4.3,4.3,0,1,0-3.432,7.883l13.8,6.005Z" transform="translate(-51.763 -318.346)" fill="#685e68"/>
      </g>
      <g id="Grupo_1231496" data-name="Grupo 1231496" transform="translate(0.512 0.002)">
        <path id="Trazado_1235369" data-name="Trazado 1235369" d="M56.409,16.637A1.668,1.668,0,0,0,54.586,17l-1.8,1.805a6.672,6.672,0,0,1-4.751,1.969H37.462a2.858,2.858,0,0,0-2.855,2.855v5.093a2.858,2.858,0,0,0,2.855,2.855h.378v3.194a3.228,3.228,0,0,0-1.818,2.9v4.374a1.271,1.271,0,0,1-.095.483L31.679,52.915a.235.235,0,0,1-.312.127l-6.549-2.851v-1.5a7.765,7.765,0,0,0-1.541-4.627,1.8,1.8,0,0,0,.174-.659l.209-3.218a2.651,2.651,0,0,0-1.532-2.567l-1.4-.64.849-2.293.1.072A8.4,8.4,0,0,0,25.772,36.1a2.425,2.425,0,0,0,2.3-1.228c.244-.434.524-.976.771-1.454.232-.448.549-1.062.643-1.195a1.774,1.774,0,0,0,.292-1.372A1.746,1.746,0,0,0,29,29.715c-1.3-.808-1.931-1.745-1.774-2.638.209-1.19,1.766-2.288,3.875-2.732a1.817,1.817,0,0,0,1.4-1.4c.125-.589.241-1.176.344-1.745a2.349,2.349,0,0,0-1.505-2.624l-.894-.329a.441.441,0,0,1-.295-.4,18.849,18.849,0,0,0-1.128-5.974c3.236-1.216,4.744-4.249,4.278-8.75A3.483,3.483,0,0,0,28.417.307c-1.053.468-2.054.9-2.556,1.112a3.172,3.172,0,0,1-1.245.254H18.229c-4.7,0-8.5,1.279-11.305,3.8A.951.951,0,0,0,8.2,6.888c2.441-2.2,5.816-3.313,10.033-3.313h6.387a5.064,5.064,0,0,0,1.989-.406c.508-.216,1.52-.65,2.585-1.124A1.581,1.581,0,0,1,31.405,3.32c.454,4.379-1.1,6.726-4.744,7.174-1.041.129-2.048.271-2.995.423a8.908,8.908,0,0,0-6.092,4.01l-.54.848a3.935,3.935,0,0,0-.511-.415,3.864,3.864,0,0,0-2.916-.605,4.679,4.679,0,0,0-3.77,5.225,4.561,4.561,0,0,0,1.891,3.058,4.683,4.683,0,0,0,.647.382l-.492,3.319a.451.451,0,0,1-.443.383h-.7C8.98,27.122,7.327,26,6.087,23.95A15.012,15.012,0,0,1,5.724,10.1a.951.951,0,1,0-1.686-.88,16.2,16.2,0,0,0-1.721,8.234A16.076,16.076,0,0,0,4.46,24.936a7.917,7.917,0,0,0,5.123,3.978L8.7,31.467a2.088,2.088,0,0,0-2.78,1.255L4.664,36.393a2.105,2.105,0,0,0-.11.572l-.764.559A8.035,8.035,0,0,0,.512,43.987V63.333A1.587,1.587,0,0,0,2.1,64.918H23.233a1.587,1.587,0,0,0,1.585-1.585V61.641L30.247,64A5.552,5.552,0,0,0,37.6,61.016l6.638-16.23h.276a4.96,4.96,0,0,0,4.954-4.954V39.4a4.961,4.961,0,0,0-4.221-4.9V31.579h2.784a6.671,6.671,0,0,1,4.751,1.97l1.8,1.8a1.672,1.672,0,0,0,2.857-1.183V28.324a.951.951,0,1,0-1.9,0v5.294L54.128,32.2a8.561,8.561,0,0,0-6.1-2.527h-.175v-7h.175a8.56,8.56,0,0,0,6.1-2.527l1.413-1.414v5.151a.951.951,0,0,0,1.9,0v-5.7a1.669,1.669,0,0,0-1.034-1.546Zm-19.9,12.086V23.63a.955.955,0,0,1,.953-.953h8.492v7H37.462a.955.955,0,0,1-.953-.953ZM10.781,53.457a3.348,3.348,0,0,1,2.673-6.139L26.458,52.98l-2.744,6.108ZM13.763,27.02l.466-3.142a4.382,4.382,0,0,0,1.009-.077.951.951,0,1,0-.355-1.868,2.694,2.694,0,0,1-3.167-2.24,2.762,2.762,0,0,1,2.246-3.068,1.99,1.99,0,0,1,2.326,1.583l.2,1.037a.951.951,0,0,0,1.868-.355s-.228-1.185-.246-1.258l1.07-1.681a7.005,7.005,0,0,1,4.79-3.153c1.694-.272,2.678-.375,3.2-.453a17.25,17.25,0,0,1,1.079,5.517,2.351,2.351,0,0,0,1.542,2.178l.893.329a.45.45,0,0,1,.29.5c-.1.53-.2,1.078-.321,1.629-2.92.629-4.949,2.255-5.3,4.252-.171.973-.066,2.838,2.508,4.5-.156.25-.371.662-.7,1.3-.24.464-.512.991-.74,1.395a.518.518,0,0,1-.493.266c-2.821-.225-3.852-1.6-3.937-1.719a.93.93,0,0,0-.893-.441.953.953,0,0,0-.8.629L19,36.184l-8.563-3.925,1.123-3.24a2.365,2.365,0,0,0,2.2-2Zm-7.3,9.988,1.254-3.672a.187.187,0,0,1,.105-.114.186.186,0,0,1,.155,0l13.358,6.123a.738.738,0,0,1,.427.715l-.2,3.089L6.58,37.258a.2.2,0,0,1-.116-.251ZM22.916,63.016H2.413V43.987a6.127,6.127,0,0,1,2.5-4.928l.448-.328a2.106,2.106,0,0,0,.522.3l15.1,5.94a1.805,1.805,0,0,0,.66.125h.026l.037.048a5.853,5.853,0,0,1,1.207,3.549v.675l-8.7-3.789A5.249,5.249,0,1,0,10.022,55.2l12.894,5.613v2.2ZM47.567,39.4v.428a3.056,3.056,0,0,1-3.052,3.052h-.409a1.7,1.7,0,0,0-1.577,1.059L35.841,60.3a3.65,3.65,0,0,1-4.835,1.965l-5.547-2.415L28.2,53.739l2.406,1.047a2.137,2.137,0,0,0,2.832-1.151l4.247-10.384a3.163,3.163,0,0,0,.236-1.2V37.674a1.324,1.324,0,0,1,1.322-1.322h5.269A3.056,3.056,0,0,1,47.567,39.4ZM43.346,34.45h-3.6V31.579h3.6Z" transform="translate(-0.512 -0.002)"/>
        <path id="Trazado_1235370" data-name="Trazado 1235370" d="M479.986,198.946h-2.535a.951.951,0,1,0,0,1.9h2.535a.951.951,0,1,0,0-1.9Z" transform="translate(-416.151 -173.722)"/>
        <path id="Trazado_1235371" data-name="Trazado 1235371" d="M469.7,159.916a.947.947,0,0,0,.615-.226l1.932-1.641a.951.951,0,0,0-1.231-1.449l-1.932,1.641a.951.951,0,0,0,.616,1.676Z" transform="translate(-409.385 -136.547)"/>
        <path id="Trazado_1235372" data-name="Trazado 1235372" d="M472.251,230.445l-1.932-1.641a.951.951,0,1,0-1.231,1.449l1.932,1.641a.951.951,0,0,0,1.231-1.449Z" transform="translate(-409.385 -199.597)"/>
      </g>
    </g>
  </g>
</svg>
