<svg xmlns="http://www.w3.org/2000/svg" xmlns:xlink="http://www.w3.org/1999/xlink" width="98" height="98" viewBox="0 0 98 98">
  <defs>
    <filter id="Trazado_982547" x="0" y="0" width="98" height="98" filterUnits="userSpaceOnUse">
      <feOffset dy="3" input="SourceAlpha"/>
      <feGaussianBlur stdDeviation="3" result="blur"/>
      <feFlood flood-opacity="0.161"/>
      <feComposite operator="in" in2="blur"/>
      <feComposite in="SourceGraphic"/>
    </filter>
    <clipPath id="clip-path">
      <path id="path8121" d="M0-682.665H48.414v48.414H0Z" transform="translate(0 682.665)"/>
    </clipPath>
  </defs>
  <g id="Grupo_1231352" data-name="Grupo 1231352" transform="translate(-825.151 -3574)">
    <g id="Grupo_1230633" data-name="Grupo 1230633" transform="translate(0 1282)">
      <g id="Grupo_1229591" data-name="Grupo 1229591" transform="translate(834.151 2298)">
        <g id="Grupo_1208936" data-name="Grupo 1208936" transform="translate(0)">
          <g id="Grupo_1208171" data-name="Grupo 1208171">
            <g id="Grupo_1207739" data-name="Grupo 1207739">
              <g id="Grupo_1207712" data-name="Grupo 1207712">
                <g id="Grupo_1207285" data-name="Grupo 1207285">
                  <g id="Grupo_1206883" data-name="Grupo 1206883">
                    <g id="Grupo_1204569" data-name="Grupo 1204569">
                      <g id="Grupo_1203962" data-name="Grupo 1203962">
                        <g id="Grupo_1203498" data-name="Grupo 1203498">
                          <g id="Grupo_1202589" data-name="Grupo 1202589">
                            <g id="Grupo_1172010" data-name="Grupo 1172010">
                              <g id="Grupo_1171046" data-name="Grupo 1171046">
                                <g id="Grupo_1148525" data-name="Grupo 1148525">
                                  <g transform="matrix(1, 0, 0, 1, -9, -6)" filter="url(#Trazado_982547)">
                                    <g id="Trazado_982547-2" data-name="Trazado 982547" transform="translate(9 6)" fill="#fdfbec">
                                      <path d="M 39.99999237060547 78.49998474121094 C 34.8018684387207 78.49998474121094 29.76002502441406 77.48226165771484 25.0145263671875 75.47508239746094 C 20.43014717102051 73.53604888916016 16.31264877319336 70.75984954833984 12.77639198303223 67.22359466552734 C 9.240137100219727 63.68733596801758 6.463936805725098 59.5698356628418 4.524903297424316 54.98546981811523 C 2.517725706100464 50.23995971679688 1.500003457069397 45.19811630249023 1.500003457069397 39.99999237060547 C 1.500003457069397 34.8018684387207 2.517725706100464 29.76002502441406 4.524903297424316 25.0145263671875 C 6.463936805725098 20.43014717102051 9.240137100219727 16.31264877319336 12.77639198303223 12.77639198303223 C 16.31264877319336 9.240137100219727 20.43014717102051 6.463936805725098 25.0145263671875 4.524903297424316 C 29.76002502441406 2.517725706100464 34.8018684387207 1.500003457069397 39.99999237060547 1.500003457069397 C 45.19811630249023 1.500003457069397 50.23995971679688 2.517725706100464 54.98546981811523 4.524903297424316 C 59.5698356628418 6.463936805725098 63.68733596801758 9.240137100219727 67.22359466552734 12.77639198303223 C 70.75984954833984 16.31264877319336 73.53604888916016 20.43014717102051 75.47508239746094 25.0145263671875 C 77.48226165771484 29.76002502441406 78.49998474121094 34.8018684387207 78.49998474121094 39.99999237060547 C 78.49998474121094 45.19812393188477 77.48226165771484 50.23995971679688 75.47508239746094 54.98546981811523 C 73.53604888916016 59.5698356628418 70.75984954833984 63.68733596801758 67.22359466552734 67.22359466552734 C 63.68733596801758 70.75984954833984 59.5698356628418 73.53604888916016 54.98546981811523 75.47508239746094 C 50.23995971679688 77.48226165771484 45.19812393188477 78.49998474121094 39.99999237060547 78.49998474121094 Z" stroke="none"/>
                                      <path d="M 39.99999237060547 2.999992370605469 C 35.00370025634766 2.999992370605469 30.1584587097168 3.97784423828125 25.59884643554688 5.906402587890625 C 21.19327163696289 7.769805908203125 17.23603057861328 10.43805694580078 13.83704376220703 13.83704376220703 C 10.43805694580078 17.23603057861328 7.769805908203125 21.19327163696289 5.906402587890625 25.59884643554688 C 3.97784423828125 30.1584587097168 2.999992370605469 35.00370025634766 2.999992370605469 39.99999237060547 C 2.999992370605469 44.99628448486328 3.97784423828125 49.84152603149414 5.906402587890625 54.40113830566406 C 7.769805908203125 58.80671310424805 10.43805694580078 62.76395416259766 13.83704376220703 66.16294097900391 C 17.23603057861328 69.56191253662109 21.19327163696289 72.23016357421875 25.59884643554688 74.09356689453125 C 30.1584587097168 76.02212524414062 35.00370025634766 76.99997711181641 39.99999237060547 76.99997711181641 C 44.99628448486328 76.99997711181641 49.84152603149414 76.02212524414062 54.40113830566406 74.09356689453125 C 58.80671310424805 72.23016357421875 62.76395416259766 69.56191253662109 66.16294097900391 66.16294097900391 C 69.56191253662109 62.76395416259766 72.23016357421875 58.80671310424805 74.09356689453125 54.40113830566406 C 76.02212524414062 49.84152603149414 76.99997711181641 44.99628448486328 76.99997711181641 39.99999237060547 C 76.99997711181641 35.00370025634766 76.02212524414062 30.1584587097168 74.09356689453125 25.59884643554688 C 72.23016357421875 21.19327163696289 69.56191253662109 17.23603057861328 66.16294097900391 13.83704376220703 C 62.76395416259766 10.43805694580078 58.80671310424805 7.769805908203125 54.40113830566406 5.906402587890625 C 49.84152603149414 3.97784423828125 44.99628448486328 2.999992370605469 39.99999237060547 2.999992370605469 M 39.99999237060547 -7.62939453125e-06 C 62.09137725830078 -7.62939453125e-06 79.99997711181641 17.90860748291016 79.99997711181641 39.99999237060547 C 79.99997711181641 62.09137725830078 62.09137725830078 79.99997711181641 39.99999237060547 79.99997711181641 C 17.90860748291016 79.99997711181641 -7.62939453125e-06 62.09137725830078 -7.62939453125e-06 39.99999237060547 C -7.62939453125e-06 17.90860748291016 17.90860748291016 -7.62939453125e-06 39.99999237060547 -7.62939453125e-06 Z" stroke="none" fill="#83793c"/>
                                    </g>
                                  </g>
                                </g>
                              </g>
                            </g>
                          </g>
                        </g>
                      </g>
                    </g>
                  </g>
                </g>
                <g id="g8115" transform="translate(15.793 15.793)">
                  <g id="g8117">
                    <g id="g8119" clip-path="url(#clip-path)">
                      <g id="g8125" transform="translate(-33.259 0.709)">
                        <path id="path8127" d="M-338.457-377.826h-25.835v-25.108c5.31-7.679,37.755-5.416,25.835,25.108" transform="translate(364.292 406.667)" fill="#fbdf63"/>
                      </g>
                      <g id="g8129" transform="translate(-33.259 0.709)">
                        <path id="path8131" d="M-338.457-377.826h-.619c6.164-24.728-15.887-30.6-25.216-24.374v-.734c5.31-7.679,37.755-5.416,25.835,25.108" transform="translate(364.292 406.667)" fill="#f9d11f"/>
                      </g>
                    </g>
                  </g>
                  <g id="g8265">
                    <g id="g8267" clip-path="url(#clip-path)">
                      <g id="g8273" transform="translate(-33.259 51.036)">
                        <path id="path8275" d="M-338.457-377.654h-25.835v-25.1c5.31-7.676,37.755-5.413,25.835,25.1" transform="translate(364.292 406.481)" fill="#003343"/>
                      </g>
                      <g id="g8277" transform="translate(-33.259 51.036)">
                        <path id="path8279" d="M-338.457-377.654h-.619c6.164-24.717-15.887-30.585-25.216-24.362v-.734c5.31-7.676,37.755-5.413,25.835,25.1" transform="translate(364.292 406.481)" fill="#002439"/>
                      </g>
                    </g>
                  </g>
                  <g id="g8281">
                    <g id="g8283" clip-path="url(#clip-path)">
                      <g id="g8289" transform="translate(17.066 51.014)">
                        <path id="path8291" d="M-338.457-377.826h-25.835v-25.108c5.31-7.679,37.755-5.416,25.835,25.108" transform="translate(364.292 406.667)" fill="#ff7e50"/>
                      </g>
                      <g id="g8293" transform="translate(17.066 51.014)">
                        <path id="path8295" d="M-338.457-377.826h-.619c6.164-24.728-15.887-30.6-25.216-24.374v-.734c5.31-7.679,37.755-5.416,25.835,25.108" transform="translate(364.292 406.667)" fill="#ff6247"/>
                      </g>
                      <g id="g8297" transform="translate(2.941 54.225)">
                        <path id="path8299" d="M-233.028-131.751v15.573h-14.6c-12.2-25.649,14.6-34.273,14.6-15.573" transform="translate(250.816 141.808)" fill="#ffa68a"/>
                      </g>
                      <g id="g8301" transform="translate(2.941 54.225)">
                        <path id="path8303" d="M-233.028-131.751c-.9-16.1-20.23-9.82-14.176,15.573h-.427c-12.2-25.649,14.6-34.273,14.6-15.573" transform="translate(250.816 141.808)" fill="#ff7e50"/>
                      </g>
                    </g>
                  </g>
                </g>
              </g>
            </g>
          </g>
        </g>
      </g>
    </g>
    <g id="nino_1_" data-name="nino (1)" transform="translate(848.054 3586.729)">
      <path id="Trazado_1232399" data-name="Trazado 1232399" d="M41.871,375.3a31.725,31.725,0,0,1-14.6-3.67A4.07,4.07,0,0,1,30.8,364.3a23.72,23.72,0,0,0,11.073,2.867,4.07,4.07,0,1,1,0,8.14Z" transform="translate(-22.42 -321.041)" fill="#6ad5bc"/>
      <path id="Trazado_1232400" data-name="Trazado 1232400" d="M30.8,364.3a4.07,4.07,0,0,0-3.525,7.337c.479.23.97.462,1.478.691a11.661,11.661,0,0,0,3.54-7.332C31.788,364.767,31.292,364.533,30.8,364.3Z" transform="translate(-22.42 -321.041)" fill="#ffdacc"/>
      <path id="Trazado_1232401" data-name="Trazado 1232401" d="M285.334,375.3a31.726,31.726,0,0,0,14.6-3.67,4.07,4.07,0,0,0-3.525-7.337,23.72,23.72,0,0,1-11.073,2.867,4.07,4.07,0,1,0,0,8.14Z" transform="translate(-252.592 -321.041)" fill="#6ad5bc"/>
      <path id="Trazado_1232402" data-name="Trazado 1232402" d="M416.657,364.3a4.07,4.07,0,0,1,3.525,7.337c-.478.23-.97.462-1.478.691a11.661,11.661,0,0,1-3.54-7.332C415.667,364.767,416.163,364.533,416.657,364.3Z" transform="translate(-372.842 -321.041)" fill="#ffdacc"/>
      <path id="Trazado_1232403" data-name="Trazado 1232403" d="M161.449,392.133a1.719,1.719,0,0,0,1.7-1.994,12.029,12.029,0,0,0-23.725,0,1.719,1.719,0,0,0,1.7,1.994Z" transform="translate(-125.19 -335.6)" fill="#8ce0df"/>
      <ellipse id="Elipse_11575" data-name="Elipse 11575" cx="6.226" cy="5.818" rx="6.226" ry="5.818" transform="translate(0.765 25.877)" fill="#ffc8bb"/>
      <ellipse id="Elipse_11576" data-name="Elipse 11576" cx="6.226" cy="5.818" rx="6.226" ry="5.818" transform="translate(38.977 25.877)" fill="#ffc8bb"/>
      <path id="Trazado_1232404" data-name="Trazado 1232404" d="M174.1,386.447a22.906,22.906,0,0,0,9.3-1.943,12.027,12.027,0,0,0-18.593,0A22.906,22.906,0,0,0,174.1,386.447Z" transform="translate(-148.006 -335.601)" fill="#6ad5bc"/>
      <ellipse id="Elipse_11577" data-name="Elipse 11577" cx="18.378" cy="16.688" rx="18.378" ry="16.688" transform="translate(7.719 14.411)" fill="#ffdacc"/>
      <path id="Trazado_1232405" data-name="Trazado 1232405" d="M78.348,17.443a15.238,15.238,0,0,1,4.1-3.44.707.707,0,0,1,1.039.61,13.059,13.059,0,0,0,.808,3.9.708.708,0,0,0,.982.365c1.773-.907,5.455-1.8,8.107-1.018a.709.709,0,0,1,.217,1.249,8.282,8.282,0,0,0-2.431,2.98.706.706,0,0,0,.371.953c7.972,3.257,7,11.338,5.314,14.99a.708.708,0,0,1-1.29-.022c-1.144-2.633-3.559-7.38-6.057-9.434a.716.716,0,0,0-1.137.323,7.616,7.616,0,0,1-2.715,3.6.707.707,0,0,1-1.09-.4c-.93-3.572-2.872-7.63-6.4-5.4a.7.7,0,0,1-.747,0c-3.531-2.232-5.473,1.826-6.4,5.4a.707.707,0,0,1-1.09.4,7.615,7.615,0,0,1-2.715-3.6.716.716,0,0,0-1.137-.323c-2.5,2.054-4.913,6.8-6.057,9.434a.708.708,0,0,1-1.289.022c-1.691-3.651-2.658-11.732,5.314-14.99a.706.706,0,0,0,.371-.953,8.28,8.28,0,0,0-2.431-2.98.709.709,0,0,1,.217-1.249c2.653-.785,6.335.111,8.107,1.018a.707.707,0,0,0,.982-.365,13.059,13.059,0,0,0,.808-3.9A.707.707,0,0,1,73.139,14a15.238,15.238,0,0,1,4.1,3.44A.71.71,0,0,0,78.348,17.443Z" transform="translate(-51.7 -6.742)" fill="#e48895"/>
      <path id="Trazado_1232406" data-name="Trazado 1232406" d="M78.348,17.443a15.238,15.238,0,0,1,4.1-3.44.707.707,0,0,1,1.039.61,13.059,13.059,0,0,0,.808,3.9.708.708,0,0,0,.982.365c1.773-.907,5.455-1.8,8.107-1.018a.709.709,0,0,1,.217,1.249,8.282,8.282,0,0,0-2.431,2.98.706.706,0,0,0,.371.953c7.972,3.257,7,11.338,5.314,14.99a.708.708,0,0,1-1.29-.022c-1.144-2.633-3.559-7.38-6.057-9.434a.716.716,0,0,0-1.137.323,7.616,7.616,0,0,1-2.715,3.6.707.707,0,0,1-1.09-.4c-.93-3.572-2.872-7.63-6.4-5.4a.7.7,0,0,1-.747,0c-3.531-2.232-5.473,1.826-6.4,5.4a.707.707,0,0,1-1.09.4,7.615,7.615,0,0,1-2.715-3.6.716.716,0,0,0-1.137-.323c-2.5,2.054-4.913,6.8-6.057,9.434a.708.708,0,0,1-1.289.022c-1.691-3.651-2.658-11.732,5.314-14.99a.706.706,0,0,0,.371-.953,8.28,8.28,0,0,0-2.431-2.98.709.709,0,0,1,.217-1.249c2.653-.785,6.335.111,8.107,1.018a.707.707,0,0,0,.982-.365,13.059,13.059,0,0,0,.808-3.9A.707.707,0,0,1,73.139,14a15.238,15.238,0,0,1,4.1,3.44A.71.71,0,0,0,78.348,17.443Z" transform="translate(-51.7 -6.742)" fill="#e48895"/>
      <path id="Trazado_1232407" data-name="Trazado 1232407" d="M70.79,51.012a.71.71,0,0,1-.482-.061c-1.773-.907-5.455-1.8-8.107-1.018a.709.709,0,0,0-.217,1.249,8.282,8.282,0,0,1,2.431,2.98.706.706,0,0,1-.371.953c-7.972,3.257-7,11.338-5.314,14.99a.708.708,0,0,0,1.289-.022c1.144-2.633,3.559-7.38,6.057-9.434a.716.716,0,0,1,1.137.323,7.616,7.616,0,0,0,2.715,3.6.707.707,0,0,0,1.09-.4A12.459,12.459,0,0,1,73.241,59.3C71.115,57.946,69.94,53.36,70.79,51.012Z" transform="translate(-51.698 -38.814)" fill="#e06e7e"/>
      <g id="Grupo_1231351" data-name="Grupo 1231351" transform="translate(14.541 30.518)">
        <g id="Grupo_1231350" data-name="Grupo 1231350" transform="translate(0 0)">
          <path id="Trazado_1232408" data-name="Trazado 1232408" d="M148.871,252.33c0,1.37-1.393,2.481-3.113,2.482s-3.115-1.109-3.116-2.479,1.393-2.481,3.113-2.482S148.871,250.96,148.871,252.33Z" transform="translate(-142.642 -249.142)" fill="#eda1ab"/>
          <path id="Trazado_1232409" data-name="Trazado 1232409" d="M308.251,252.251c0,1.37,1.4,2.48,3.116,2.479s3.114-1.112,3.113-2.482-1.4-2.48-3.116-2.479S308.25,250.881,308.251,252.251Z" transform="translate(-291.369 -249.068)" fill="#eda1ab"/>
          <path id="Trazado_1232410" data-name="Trazado 1232410" d="M232.152,244.957c0-1.887-1.368-2.063-3.054-2.063s-3.053.179-3.052,2.066a3.072,3.072,0,1,0,6.106,0Z" transform="translate(-217.544 -242.894)" fill="#4f5c6f"/>
        </g>
      </g>
      <path id="Trazado_1232411" data-name="Trazado 1232411" d="M32.721,28.754h0A2.25,2.25,0,0,0,30.474,31a.765.765,0,0,0,.765.764h0A.764.764,0,0,0,32,31a.719.719,0,0,1,.718-.718h0a.718.718,0,0,1,.718.718.765.765,0,0,0,.765.764h0A.764.764,0,0,0,34.968,31a2.247,2.247,0,0,0-2.247-2.246ZM43.484,42.566a30.125,30.125,0,0,1-5.343,2.1,17.772,17.772,0,0,0,5.493-6.555c4.4.956,8.559-2.214,8.559-6.414a6.647,6.647,0,0,0-5.108-6.338,11.276,11.276,0,0,0-1.06-4.487.765.765,0,0,0-1.379.661,11.74,11.74,0,0,1-.124,9.317c-1.3-2.966-3.708-7.536-6.222-9.6a1.481,1.481,0,0,0-2.351.681,6.841,6.841,0,0,1-2.358,3.161c-.922-3.5-2.264-5.617-3.989-6.3a3.784,3.784,0,0,0-3.506.5,3.785,3.785,0,0,0-3.506-.5c-1.725.681-3.067,2.8-3.989,6.3a6.84,6.84,0,0,1-2.358-3.161,1.481,1.481,0,0,0-2.351-.681c-2.507,2.062-4.913,6.617-6.222,9.6A11.907,11.907,0,0,1,7.3,22.1a9.091,9.091,0,0,1,5.336-5.093,1.471,1.471,0,0,0,.773-1.986,9.027,9.027,0,0,0-2.578-3.2,12.16,12.16,0,0,1,7.433,1,1.473,1.473,0,0,0,2.041-.763,13.779,13.779,0,0,0,.859-4.075,14.555,14.555,0,0,1,3.79,3.2,1.475,1.475,0,0,0,2.289,0,14.559,14.559,0,0,1,3.79-3.2,13.777,13.777,0,0,0,.859,4.075,1.473,1.473,0,0,0,2.041.763,12.161,12.161,0,0,1,7.433-1,9.027,9.027,0,0,0-2.578,3.2,1.471,1.471,0,0,0,.773,1.986A10.7,10.7,0,0,1,42.665,18.9a.764.764,0,1,0,1.019-1.14A12.189,12.189,0,0,0,40.2,15.617a7.555,7.555,0,0,1,2.17-2.637,1.474,1.474,0,0,0-.458-2.594c-2.848-.843-6.729.1-8.619,1.044a12.439,12.439,0,0,1-.731-3.581A1.472,1.472,0,0,0,30.4,6.584a15.92,15.92,0,0,0-4.3,3.584,15.924,15.924,0,0,0-4.3-3.584,1.472,1.472,0,0,0-2.159,1.264,12.435,12.435,0,0,1-.731,3.581c-1.891-.948-5.771-1.887-8.619-1.044a1.474,1.474,0,0,0-.458,2.594A7.553,7.553,0,0,1,12,15.617a10.446,10.446,0,0,0-6.885,9.738A6.648,6.648,0,0,0,0,31.7c0,4.2,4.159,7.369,8.559,6.414a17.772,17.772,0,0,0,5.493,6.555,30.133,30.133,0,0,1-5.343-2.1,4.835,4.835,0,1,0-4.187,8.716,36.656,36.656,0,0,0,8.952,3.17,2.483,2.483,0,0,0,2.46,2.846h1.08a.765.765,0,1,0,0-1.529h-1.08a.954.954,0,0,1-.947-1.1,11.315,11.315,0,0,1,4.433-7.2,21,21,0,0,0,13.352,0,11.315,11.315,0,0,1,4.433,7.2.954.954,0,0,1-.946,1.1H20.648a.765.765,0,0,0,0,1.529H36.259a2.483,2.483,0,0,0,2.46-2.846,36.662,36.662,0,0,0,8.952-3.17,4.835,4.835,0,0,0-4.187-8.716ZM45.192,32.3a1.443,1.443,0,0,0,.585-.546,5.186,5.186,0,0,1,1.3.441.765.765,0,0,0,.725-1.347,6.335,6.335,0,0,0-1.443-.53,14.531,14.531,0,0,0,.686-3.379A5.088,5.088,0,0,1,50.664,31.7a5.354,5.354,0,0,1-6.419,4.975,16.087,16.087,0,0,0,.947-4.368ZM1.529,31.7a5.09,5.09,0,0,1,3.623-4.758,14.681,14.681,0,0,0,.681,3.382,6.333,6.333,0,0,0-1.445.531.765.765,0,0,0,.363,1.438c.388,0,.491-.286,1.666-.532A1.443,1.443,0,0,0,7,32.3a16.089,16.089,0,0,0,.947,4.368A5.354,5.354,0,0,1,1.529,31.7ZM5.185,49.9a3.305,3.305,0,0,1,2.862-5.959q.5.242,1.02.481a11.076,11.076,0,0,1-2.9,5.942q-.5-.234-.98-.464Zm8.628,3.057a30.716,30.716,0,0,1-6.179-1.938,12.559,12.559,0,0,0,2.887-5.96,22.7,22.7,0,0,0,7.246,1.764A12.887,12.887,0,0,0,13.813,52.96ZM26.1,47.023c-9.648,0-16.974-6.847-17.57-14.834a1.471,1.471,0,0,0,.5-.616c2.137-4.921,4.381-7.918,5.789-9.1a8.4,8.4,0,0,0,2.978,3.918,1.473,1.473,0,0,0,2.271-.835c.771-2.961,1.869-4.857,3.092-5.34a2.339,2.339,0,0,1,2.163.4,1.47,1.47,0,0,0,1.564,0,2.339,2.339,0,0,1,2.163-.4c1.223.483,2.321,2.38,3.092,5.34a1.473,1.473,0,0,0,2.271.835,8.4,8.4,0,0,0,2.978-3.918c2.128,1.786,4.382,5.864,5.789,9.1a1.472,1.472,0,0,0,.5.616c-.6,8.016-7.955,14.834-17.57,14.834ZM38.38,52.96a12.887,12.887,0,0,0-3.954-6.133,22.7,22.7,0,0,0,7.245-1.764,12.556,12.556,0,0,0,2.888,5.96A30.722,30.722,0,0,1,38.38,52.96ZM47.009,49.9q-.477.229-.979.463a11.071,11.071,0,0,1-2.9-5.941q.518-.238,1.02-.481A3.305,3.305,0,0,1,47.009,49.9ZM28.6,30.16a5.508,5.508,0,0,0-2.494-.406h-.011c-1.239,0-3.817,0-3.816,2.831a4.373,4.373,0,0,0,1.09,2.925A3.634,3.634,0,0,0,26.1,36.763h0a3.634,3.634,0,0,0,2.728-1.257,4.372,4.372,0,0,0,1.087-2.926A2.479,2.479,0,0,0,28.6,30.16Zm-.215,2.422a2.846,2.846,0,0,1-.7,1.907,2.125,2.125,0,0,1-1.588.746h0a2.125,2.125,0,0,1-1.588-.745,2.846,2.846,0,0,1-.7-1.906c0-.991.315-1.3,2.288-1.3h.012a4.487,4.487,0,0,1,1.8.241C28.155,31.649,28.384,31.864,28.384,32.581Zm-8.915-3.82h0a2.247,2.247,0,0,0-2.246,2.248.765.765,0,0,0,.765.764h0a.764.764,0,0,0,.764-.765.718.718,0,0,1,.718-.718h0a.718.718,0,0,1,.718.718.765.765,0,0,0,.765.764h0a.764.764,0,0,0,.764-.765,2.248,2.248,0,0,0-2.247-2.246Z"/>
    </g>
  </g>
</svg>
