<svg xmlns="http://www.w3.org/2000/svg" xmlns:xlink="http://www.w3.org/1999/xlink" width="98" height="98" viewBox="0 0 98 98">
  <defs>
    <filter id="Trazado_982547" x="0" y="0" width="98" height="98" filterUnits="userSpaceOnUse">
      <feOffset dy="3" input="SourceAlpha"/>
      <feGaussianBlur stdDeviation="3" result="blur"/>
      <feFlood flood-opacity="0.161"/>
      <feComposite operator="in" in2="blur"/>
      <feComposite in="SourceGraphic"/>
    </filter>
    <clipPath id="clip-path">
      <path id="path8121" d="M0-682.665H48.414v48.414H0Z" transform="translate(0 682.665)"/>
    </clipPath>
  </defs>
  <g id="Grupo_1231381" data-name="Grupo 1231381" transform="translate(-195.151 -3753)">
    <g id="Grupo_1230634" data-name="Grupo 1230634" transform="translate(0 1461)">
      <g id="Grupo_1229590" data-name="Grupo 1229590" transform="translate(204.151 2298)">
        <g id="Grupo_1208936" data-name="Grupo 1208936" transform="translate(0)">
          <g id="Grupo_1208171" data-name="Grupo 1208171">
            <g id="Grupo_1207739" data-name="Grupo 1207739">
              <g id="Grupo_1207712" data-name="Grupo 1207712">
                <g id="Grupo_1207285" data-name="Grupo 1207285">
                  <g id="Grupo_1206883" data-name="Grupo 1206883">
                    <g id="Grupo_1204569" data-name="Grupo 1204569">
                      <g id="Grupo_1203962" data-name="Grupo 1203962">
                        <g id="Grupo_1203498" data-name="Grupo 1203498">
                          <g id="Grupo_1202589" data-name="Grupo 1202589">
                            <g id="Grupo_1172010" data-name="Grupo 1172010">
                              <g id="Grupo_1171046" data-name="Grupo 1171046">
                                <g id="Grupo_1148525" data-name="Grupo 1148525">
                                  <g transform="matrix(1, 0, 0, 1, -9, -6)" filter="url(#Trazado_982547)">
                                    <g id="Trazado_982547-2" data-name="Trazado 982547" transform="translate(9 6)" fill="#fdfbec">
                                      <path d="M 39.99999237060547 78.49998474121094 C 34.8018684387207 78.49998474121094 29.76002502441406 77.48226165771484 25.0145263671875 75.47508239746094 C 20.43014717102051 73.53604888916016 16.31264877319336 70.75984954833984 12.77639198303223 67.22359466552734 C 9.240137100219727 63.68733596801758 6.463936805725098 59.5698356628418 4.524903297424316 54.98546981811523 C 2.517725706100464 50.23995971679688 1.500003457069397 45.19811630249023 1.500003457069397 39.99999237060547 C 1.500003457069397 34.8018684387207 2.517725706100464 29.76002502441406 4.524903297424316 25.0145263671875 C 6.463936805725098 20.43014717102051 9.240137100219727 16.31264877319336 12.77639198303223 12.77639198303223 C 16.31264877319336 9.240137100219727 20.43014717102051 6.463936805725098 25.0145263671875 4.524903297424316 C 29.76002502441406 2.517725706100464 34.8018684387207 1.500003457069397 39.99999237060547 1.500003457069397 C 45.19811630249023 1.500003457069397 50.23995971679688 2.517725706100464 54.98546981811523 4.524903297424316 C 59.5698356628418 6.463936805725098 63.68733596801758 9.240137100219727 67.22359466552734 12.77639198303223 C 70.75984954833984 16.31264877319336 73.53604888916016 20.43014717102051 75.47508239746094 25.0145263671875 C 77.48226165771484 29.76002502441406 78.49998474121094 34.8018684387207 78.49998474121094 39.99999237060547 C 78.49998474121094 45.19812393188477 77.48226165771484 50.23995971679688 75.47508239746094 54.98546981811523 C 73.53604888916016 59.5698356628418 70.75984954833984 63.68733596801758 67.22359466552734 67.22359466552734 C 63.68733596801758 70.75984954833984 59.5698356628418 73.53604888916016 54.98546981811523 75.47508239746094 C 50.23995971679688 77.48226165771484 45.19812393188477 78.49998474121094 39.99999237060547 78.49998474121094 Z" stroke="none"/>
                                      <path d="M 39.99999237060547 2.999992370605469 C 35.00370025634766 2.999992370605469 30.1584587097168 3.97784423828125 25.59884643554688 5.906402587890625 C 21.19327163696289 7.769805908203125 17.23603057861328 10.43805694580078 13.83704376220703 13.83704376220703 C 10.43805694580078 17.23603057861328 7.769805908203125 21.19327163696289 5.906402587890625 25.59884643554688 C 3.97784423828125 30.1584587097168 2.999992370605469 35.00370025634766 2.999992370605469 39.99999237060547 C 2.999992370605469 44.99628448486328 3.97784423828125 49.84152603149414 5.906402587890625 54.40113830566406 C 7.769805908203125 58.80671310424805 10.43805694580078 62.76395416259766 13.83704376220703 66.16294097900391 C 17.23603057861328 69.56191253662109 21.19327163696289 72.23016357421875 25.59884643554688 74.09356689453125 C 30.1584587097168 76.02212524414062 35.00370025634766 76.99997711181641 39.99999237060547 76.99997711181641 C 44.99628448486328 76.99997711181641 49.84152603149414 76.02212524414062 54.40113830566406 74.09356689453125 C 58.80671310424805 72.23016357421875 62.76395416259766 69.56191253662109 66.16294097900391 66.16294097900391 C 69.56191253662109 62.76395416259766 72.23016357421875 58.80671310424805 74.09356689453125 54.40113830566406 C 76.02212524414062 49.84152603149414 76.99997711181641 44.99628448486328 76.99997711181641 39.99999237060547 C 76.99997711181641 35.00370025634766 76.02212524414062 30.1584587097168 74.09356689453125 25.59884643554688 C 72.23016357421875 21.19327163696289 69.56191253662109 17.23603057861328 66.16294097900391 13.83704376220703 C 62.76395416259766 10.43805694580078 58.80671310424805 7.769805908203125 54.40113830566406 5.906402587890625 C 49.84152603149414 3.97784423828125 44.99628448486328 2.999992370605469 39.99999237060547 2.999992370605469 M 39.99999237060547 -7.62939453125e-06 C 62.09137725830078 -7.62939453125e-06 79.99997711181641 17.90860748291016 79.99997711181641 39.99999237060547 C 79.99997711181641 62.09137725830078 62.09137725830078 79.99997711181641 39.99999237060547 79.99997711181641 C 17.90860748291016 79.99997711181641 -7.62939453125e-06 62.09137725830078 -7.62939453125e-06 39.99999237060547 C -7.62939453125e-06 17.90860748291016 17.90860748291016 -7.62939453125e-06 39.99999237060547 -7.62939453125e-06 Z" stroke="none" fill="#83793c"/>
                                    </g>
                                  </g>
                                </g>
                              </g>
                            </g>
                          </g>
                        </g>
                      </g>
                    </g>
                  </g>
                </g>
                <g id="g8115" transform="translate(15.793 15.793)">
                  <g id="g8117">
                    <g id="g8119" clip-path="url(#clip-path)">
                      <g id="g8125" transform="translate(-33.259 0.709)">
                        <path id="path8127" d="M-338.457-377.826h-25.835v-25.108c5.31-7.679,37.755-5.416,25.835,25.108" transform="translate(364.292 406.667)" fill="#fbdf63"/>
                      </g>
                      <g id="g8129" transform="translate(-33.259 0.709)">
                        <path id="path8131" d="M-338.457-377.826h-.619c6.164-24.728-15.887-30.6-25.216-24.374v-.734c5.31-7.679,37.755-5.416,25.835,25.108" transform="translate(364.292 406.667)" fill="#f9d11f"/>
                      </g>
                    </g>
                  </g>
                  <g id="g8265">
                    <g id="g8267" clip-path="url(#clip-path)">
                      <g id="g8273" transform="translate(-33.259 51.036)">
                        <path id="path8275" d="M-338.457-377.654h-25.835v-25.1c5.31-7.676,37.755-5.413,25.835,25.1" transform="translate(364.292 406.481)" fill="#003343"/>
                      </g>
                      <g id="g8277" transform="translate(-33.259 51.036)">
                        <path id="path8279" d="M-338.457-377.654h-.619c6.164-24.717-15.887-30.585-25.216-24.362v-.734c5.31-7.676,37.755-5.413,25.835,25.1" transform="translate(364.292 406.481)" fill="#002439"/>
                      </g>
                    </g>
                  </g>
                  <g id="g8281">
                    <g id="g8283" clip-path="url(#clip-path)">
                      <g id="g8289" transform="translate(17.066 51.014)">
                        <path id="path8291" d="M-338.457-377.826h-25.835v-25.108c5.31-7.679,37.755-5.416,25.835,25.108" transform="translate(364.292 406.667)" fill="#ff7e50"/>
                      </g>
                      <g id="g8293" transform="translate(17.066 51.014)">
                        <path id="path8295" d="M-338.457-377.826h-.619c6.164-24.728-15.887-30.6-25.216-24.374v-.734c5.31-7.679,37.755-5.416,25.835,25.108" transform="translate(364.292 406.667)" fill="#ff6247"/>
                      </g>
                      <g id="g8297" transform="translate(2.941 54.225)">
                        <path id="path8299" d="M-233.028-131.751v15.573h-14.6c-12.2-25.649,14.6-34.273,14.6-15.573" transform="translate(250.816 141.808)" fill="#ffa68a"/>
                      </g>
                      <g id="g8301" transform="translate(2.941 54.225)">
                        <path id="path8303" d="M-233.028-131.751c-.9-16.1-20.23-9.82-14.176,15.573h-.427c-12.2-25.649,14.6-34.273,14.6-15.573" transform="translate(250.816 141.808)" fill="#ff7e50"/>
                      </g>
                    </g>
                  </g>
                </g>
              </g>
            </g>
          </g>
        </g>
      </g>
    </g>
    <g id="mejor-amiga" transform="translate(216.694 3716.157)">
      <g id="Grupo_1231353" data-name="Grupo 1231353" transform="translate(26.098 62.845)">
        <path id="Trazado_1232412" data-name="Trazado 1232412" d="M256.575,71.276a13.266,13.266,0,0,1,3.139.376,2.661,2.661,0,0,1,2.4-2.113c1.411,0,2.555,1.429,2.555,3.192,0,.13-.007.257-.019.382a2.736,2.736,0,0,1,3.447.054c1,1,.8,2.817-.451,4.064l-.013.013a13.173,13.173,0,0,1,2.173,7.267v2.5H243.339v-2.5a13.236,13.236,0,0,1,13.236-13.236Z" transform="translate(-243.339 -69.539)" fill="#f2b88f"/>
      </g>
      <g id="Grupo_1231354" data-name="Grupo 1231354" transform="translate(26.098 62.845)">
        <path id="Trazado_1232413" data-name="Trazado 1232413" d="M256.575,71.276a13.266,13.266,0,0,1,3.139.376,2.661,2.661,0,0,1,2.4-2.113c1.411,0,2.555,1.429,2.555,3.192,0,.13-.007.257-.019.382a2.736,2.736,0,0,1,3.447.054c1,1,.8,2.817-.451,4.064l-.013.013a13.173,13.173,0,0,1,2.173,7.267v2.5H243.339v-2.5a13.236,13.236,0,0,1,13.236-13.236Z" transform="translate(-243.339 -69.539)" fill="#f2b88f"/>
      </g>
      <g id="Grupo_1231355" data-name="Grupo 1231355" transform="translate(26.098 64.582)">
        <path id="Trazado_1232414" data-name="Trazado 1232414" d="M243.339,98.973v2.5h5.3V99.481c0-5.2,2.708-12.671,7.935-13.744a13.236,13.236,0,0,0-13.236,13.236Z" transform="translate(-243.339 -85.737)" fill="#e3a67b"/>
      </g>
      <g id="Grupo_1231356" data-name="Grupo 1231356" transform="translate(18.818 89.046)">
        <path id="Trazado_1232415" data-name="Trazado 1232415" d="M207.428,324.989c-1.082-6.16-5.874-10.8-11.621-10.8a10.674,10.674,0,0,0-5.294,1.413,11.468,11.468,0,0,0-6.381-1.764c-4.788,0-8.67,2.443-8.67,5.457v1.863l6.467,6.467,23.576.008a2.155,2.155,0,0,0,1.922-2.642Z" transform="translate(-175.463 -313.836)" fill="#a4e7ff"/>
      </g>
      <g id="Grupo_1231357" data-name="Grupo 1231357" transform="translate(18.818 89.054)">
        <path id="Trazado_1232416" data-name="Trazado 1232416" d="M189.137,325.061c.922-5.25,4.539-9.4,9.146-10.508a10.542,10.542,0,0,0-2.475-.295,10.674,10.674,0,0,0-5.294,1.413,11.468,11.468,0,0,0-6.381-1.764c-4.788,0-8.67,2.443-8.67,5.457v1.863l6.467,6.467,9.129.008A2.155,2.155,0,0,1,189.137,325.061Z" transform="translate(-175.463 -313.908)" fill="#5ad6ff"/>
      </g>
      <g id="Grupo_1231358" data-name="Grupo 1231358" transform="translate(35.945 89.551)">
        <circle id="Elipse_11578" data-name="Elipse 11578" cx="3.217" cy="3.217" r="3.217" transform="translate(0 0)" fill="#ffcdbe"/>
      </g>
      <g id="Grupo_1231359" data-name="Grupo 1231359" transform="translate(48.293 78.925)">
        <circle id="Elipse_11579" data-name="Elipse 11579" cx="2.907" cy="2.907" r="2.907" transform="translate(0 0)" fill="#ffdecf"/>
      </g>
      <g id="Grupo_1231360" data-name="Grupo 1231360" transform="translate(27.479 71.482)">
        <path id="Trazado_1232417" data-name="Trazado 1232417" d="M275,156.556a12.517,12.517,0,0,1-6.94-6.484,12.517,12.517,0,0,1-6.94,6.484,14.085,14.085,0,0,1-4.679,1.053,11.684,11.684,0,1,0,22.918-.032A13.964,13.964,0,0,1,275,156.556Z" transform="translate(-256.215 -150.072)" fill="#ffeee5"/>
      </g>
      <g id="Grupo_1231361" data-name="Grupo 1231361" transform="translate(27.479 78.326)">
        <path id="Trazado_1232418" data-name="Trazado 1232418" d="M260.111,214.741c0-.287.009-.572.023-.856a13.877,13.877,0,0,1-3.7.692,11.688,11.688,0,0,0,10.42,13.909A17.348,17.348,0,0,1,260.111,214.741Z" transform="translate(-256.214 -213.885)" fill="#ffdecf"/>
      </g>
      <g id="Grupo_1231365" data-name="Grupo 1231365" transform="translate(32.459 80.501)">
        <g id="Grupo_1231362" data-name="Grupo 1231362" transform="translate(0 0)">
          <path id="Trazado_1232419" data-name="Trazado 1232419" d="M303.457,236.9a.8.8,0,0,1-.8-.8v-1.133a.8.8,0,1,1,1.609,0V236.1A.8.8,0,0,1,303.457,236.9Z" transform="translate(-302.653 -234.16)"/>
        </g>
        <g id="Grupo_1231363" data-name="Grupo 1231363" transform="translate(11.797 0)">
          <path id="Trazado_1232420" data-name="Trazado 1232420" d="M413.457,236.9a.8.8,0,0,1-.8-.8v-1.133a.8.8,0,0,1,1.609,0V236.1A.8.8,0,0,1,413.457,236.9Z" transform="translate(-412.653 -234.16)"/>
        </g>
        <g id="Grupo_1231364" data-name="Grupo 1231364" transform="translate(4.343 1.1)">
          <path id="Trazado_1232421" data-name="Trazado 1232421" d="M345.511,246.732a2.867,2.867,0,0,1-2.162-.984.8.8,0,1,1,1.213-1.057,1.257,1.257,0,0,0,1.9,0,.8.8,0,1,1,1.213,1.057A2.867,2.867,0,0,1,345.511,246.732Z" transform="translate(-343.152 -244.414)"/>
        </g>
      </g>
      <g id="Grupo_1231366" data-name="Grupo 1231366" transform="translate(3.837 89.412)">
        <path id="Trazado_1232422" data-name="Trazado 1232422" d="M59.026,328.037c-1.081-6.153-5.867-10.79-11.608-10.79s-10.527,4.637-11.608,10.79a2.153,2.153,0,0,0,1.92,2.639H57.106A2.153,2.153,0,0,0,59.026,328.037Z" transform="translate(-35.773 -317.247)" fill="#fad989"/>
      </g>
      <g id="Grupo_1231367" data-name="Grupo 1231367" transform="translate(3.837 89.412)">
        <path id="Trazado_1232423" data-name="Trazado 1232423" d="M40.755,328.037c.921-5.244,4.534-9.386,9.135-10.5a10.533,10.533,0,0,0-2.473-.294c-5.741,0-10.527,4.637-11.608,10.79a2.152,2.152,0,0,0,1.92,2.639h4.945A2.152,2.152,0,0,1,40.755,328.037Z" transform="translate(-35.772 -317.247)" fill="#f6ca56"/>
      </g>
      <g id="Grupo_1231368" data-name="Grupo 1231368" transform="translate(12.265 89.536)">
        <circle id="Elipse_11580" data-name="Elipse 11580" cx="3.217" cy="3.217" r="3.217" transform="translate(0 0)" fill="#d69a8a"/>
      </g>
      <g id="Grupo_1231369" data-name="Grupo 1231369" transform="translate(0.804 63.525)">
        <path id="Trazado_1232424" data-name="Trazado 1232424" d="M36.3,92.344a3.591,3.591,0,0,0-1.009-4.924A3.591,3.591,0,0,0,32.7,81.983c.012-.119.018-.239.018-.361a3.591,3.591,0,0,0-4.72-3.409,3.591,3.591,0,0,0-5.809-1.378,3.591,3.591,0,0,0-5.809,1.378,3.591,3.591,0,0,0-4.72,3.409c0,.122.006.242.018.361a3.591,3.591,0,0,0-2.592,5.437,3.591,3.591,0,0,0-1.009,4.924Z" transform="translate(-7.5 -75.875)" fill="#6b7d8e"/>
      </g>
      <g id="Grupo_1231370" data-name="Grupo 1231370" transform="translate(0.804 65.681)">
        <path id="Trazado_1232425" data-name="Trazado 1232425" d="M15.248,95.98a3.591,3.591,0,0,0-3.591,3.591c0,.122.006.242.018.361a3.591,3.591,0,0,0-2.592,5.437,3.591,3.591,0,0,0-1.009,4.924h6.472c.048-1.585.105-2.8.174-3.2a4.761,4.761,0,0,1,.873-2.252,3.056,3.056,0,0,1-1.2-3.062,3.332,3.332,0,0,1,2.41-2.67,3.417,3.417,0,0,1-.422-2.949,3.589,3.589,0,0,0-1.128-.182Z" transform="translate(-7.5 -95.98)" fill="#5f7080"/>
      </g>
      <g id="Grupo_1231373" data-name="Grupo 1231373" transform="translate(0.881 78.701)">
        <g id="Grupo_1231371" data-name="Grupo 1231371" transform="translate(23.388 0)">
          <circle id="Elipse_11581" data-name="Elipse 11581" cx="2.907" cy="2.907" r="2.907" fill="#e1ac9a"/>
        </g>
        <g id="Grupo_1231372" data-name="Grupo 1231372" transform="translate(0 0)">
          <circle id="Elipse_11582" data-name="Elipse 11582" cx="2.907" cy="2.907" r="2.907" fill="#d69a8a"/>
        </g>
      </g>
      <g id="Grupo_1231374" data-name="Grupo 1231374" transform="translate(3.804 76.129)">
        <path id="Trazado_1232426" data-name="Trazado 1232426" d="M47.045,195.44a21.743,21.743,0,0,1-9.257-1.845,1.074,1.074,0,0,0-1.468.563,11.686,11.686,0,1,0,21.631-.1,1.075,1.075,0,0,0-1.48-.548A21.506,21.506,0,0,1,47.045,195.44Z" transform="translate(-35.469 -193.395)" fill="#e7beaf"/>
      </g>
      <g id="Grupo_1231375" data-name="Grupo 1231375" transform="translate(3.796 76.22)">
        <path id="Trazado_1232427" data-name="Trazado 1232427" d="M39.206,198.608a17.728,17.728,0,0,1,.351-3.513h0a14.89,14.89,0,0,1-1.842-.742,1.074,1.074,0,0,0-1.468.563,11.69,11.69,0,0,0,7.585,15.606A17.591,17.591,0,0,1,39.206,198.608Z" transform="translate(-35.396 -194.242)" fill="#e1ac9a"/>
      </g>
      <g id="Grupo_1231379" data-name="Grupo 1231379" transform="translate(8.787 80.486)">
        <g id="Grupo_1231376" data-name="Grupo 1231376">
          <path id="Trazado_1232428" data-name="Trazado 1232428" d="M82.732,236.762a.8.8,0,0,1-.8-.8v-1.134a.8.8,0,1,1,1.609,0v1.134A.8.8,0,0,1,82.732,236.762Z" transform="translate(-81.928 -234.02)"/>
        </g>
        <g id="Grupo_1231377" data-name="Grupo 1231377" transform="translate(11.797)">
          <path id="Trazado_1232429" data-name="Trazado 1232429" d="M192.732,236.762a.8.8,0,0,1-.8-.8v-1.134a.8.8,0,1,1,1.609,0v1.134A.8.8,0,0,1,192.732,236.762Z" transform="translate(-191.928 -234.02)"/>
        </g>
        <g id="Grupo_1231378" data-name="Grupo 1231378" transform="translate(4.344 1.1)">
          <path id="Trazado_1232430" data-name="Trazado 1232430" d="M124.787,246.592a2.867,2.867,0,0,1-2.162-.984.8.8,0,1,1,1.213-1.057,1.257,1.257,0,0,0,1.9,0,.8.8,0,0,1,1.213,1.057A2.868,2.868,0,0,1,124.787,246.592Z" transform="translate(-122.428 -244.275)"/>
        </g>
      </g>
      <g id="Grupo_1231380" data-name="Grupo 1231380" transform="translate(6.04 89.032)">
        <circle id="Elipse_11583" data-name="Elipse 11583" cx="3.754" cy="3.754" r="3.754" transform="translate(0 0)" fill="#ffdecf"/>
      </g>
      <path id="Trazado_1232431" data-name="Trazado 1232431" d="M50.908,85.532c.1.008.194.012.292.012a3.71,3.71,0,0,0,2.175-6.717V77.819A13.983,13.983,0,0,0,51.4,70.632a4.3,4.3,0,0,0,.88-2.13,3.1,3.1,0,0,0-.847-2.6,3.256,3.256,0,0,0-3.268-.713,3.562,3.562,0,0,0-3.284-3.152,3.3,3.3,0,0,0-2.906,1.986,14.072,14.072,0,0,0-9.778,1.7.8.8,0,0,0,.819,1.384,12.464,12.464,0,0,1,9.27-1.372.8.8,0,0,0,.963-.559,1.88,1.88,0,0,1,1.632-1.531c.949,0,1.751,1.094,1.751,2.388,0,.1,0,.2-.015.306a.8.8,0,0,0,1.244.748,1.949,1.949,0,0,1,2.435-.048,1.528,1.528,0,0,1,.386,1.281,2.807,2.807,0,0,1-.83,1.639l-.016.015a.8.8,0,0,0-.107,1.014,12.378,12.378,0,0,1,2.04,6.825v.345a3.7,3.7,0,0,0-1.193.011,13.136,13.136,0,0,1-4.009-.953,11.808,11.808,0,0,1-6.5-6.045.8.8,0,0,0-1.488,0,11.809,11.809,0,0,1-6.5,6.045c-.367.15-.74.283-1.116.4A4.391,4.391,0,0,0,29.6,74.852a4.387,4.387,0,0,0-.457-4.155,12.531,12.531,0,0,1,1.508-1.776.8.8,0,1,0-1.123-1.151,14.128,14.128,0,0,0-1.543,1.782,4.364,4.364,0,0,0-1.172-.561,4.4,4.4,0,0,0-5.068-4.059,4.4,4.4,0,0,0-6.256-1.468A4.4,4.4,0,0,0,9.234,64.93a4.4,4.4,0,0,0-5.068,4.059,4.4,4.4,0,0,0-2.788,5.863,4.387,4.387,0,0,0-.922,5.139,3.71,3.71,0,0,0,3.206,5.326,12.419,12.419,0,0,0,2.7,4.473,4.546,4.546,0,0,0-.91,4.385,15.145,15.145,0,0,0-2.371,5.888,3.18,3.18,0,0,0,.677,2.606,2.667,2.667,0,0,0,2.035.977h11.3a.8.8,0,0,0,0-1.609H5.795a1.065,1.065,0,0,1-.8-.4,1.6,1.6,0,0,1-.325-1.293,13.643,13.643,0,0,1,1.681-4.577,4.548,4.548,0,0,0,6.71.2,4.021,4.021,0,0,0,6.429-2.85,12.315,12.315,0,0,0,1.986-.871,12.82,12.82,0,0,1,4.825,8.1,1.6,1.6,0,0,1-.325,1.293,1.065,1.065,0,0,1-.8.4H20.309a.8.8,0,0,0,0,1.609H48.861a2.669,2.669,0,0,0,2.037-.978,3.183,3.183,0,0,0,.678-2.608A14.555,14.555,0,0,0,46.6,91.314a12.548,12.548,0,0,0,4.305-5.781Zm.461-1.605a12.522,12.522,0,0,0,.188-4.165,2.1,2.1,0,0,1-.188,4.165ZM15.333,92.156c-.345,0-.691-.028-1.034-.065a4.557,4.557,0,0,0-6.677-3.311A10.857,10.857,0,0,1,5.392,77.194a.27.27,0,0,1,.37-.142,22.462,22.462,0,0,0,9.61,1.927,22.176,22.176,0,0,0,9.79-2.016.263.263,0,0,1,.215-.013.273.273,0,0,1,.158.153,10.884,10.884,0,0,1-10.2,15.053Zm11.974-6.839h.033a12.377,12.377,0,0,0,1.5,2.995q-.666-.062-1.35-.062a14.554,14.554,0,0,0-1.709.1A12.326,12.326,0,0,0,27.307,85.317Zm.444-1.686a12.64,12.64,0,0,0,.112-4.011,2.1,2.1,0,0,1-.112,4.011ZM2.837,75.737a.8.8,0,0,0,.235-1.087,2.787,2.787,0,0,1,2.011-4.218.8.8,0,0,0,.7-.878c-.009-.093-.014-.188-.014-.281a2.787,2.787,0,0,1,3.663-2.646.8.8,0,0,0,1.006-.483,2.786,2.786,0,0,1,4.508-1.07.8.8,0,0,0,1.095,0,2.786,2.786,0,0,1,4.508,1.07.8.8,0,0,0,1.006.483,2.787,2.787,0,0,1,3.663,2.646c0,.093,0,.187-.014.281a.8.8,0,0,0,.7.877,2.787,2.787,0,0,1,2.011,4.218.8.8,0,0,0,.235,1.087,2.778,2.778,0,0,1,1.177,2.839,3.689,3.689,0,0,0-1.8-.663,12.451,12.451,0,0,0-.494-1.427,1.879,1.879,0,0,0-2.587-.957,20.861,20.861,0,0,1-9.061,1.842,21.149,21.149,0,0,1-8.9-1.763A1.878,1.878,0,0,0,3.9,76.59a12.454,12.454,0,0,0-.451,1.324,3.689,3.689,0,0,0-1.79.662,2.777,2.777,0,0,1,1.177-2.839ZM1.693,81.609A2.1,2.1,0,0,1,3.1,79.627a12.627,12.627,0,0,0,.114,4,2.105,2.105,0,0,1-1.521-2.019Zm8.1,14.126a2.949,2.949,0,1,1,2.949-2.949A2.953,2.953,0,0,1,9.794,95.735Zm5.688-.569a2.4,2.4,0,0,1-1.52-.54,4.519,4.519,0,0,0,.3-.923c.35.034.7.056,1.053.06h.172a12.631,12.631,0,0,0,2.273-.206,2.417,2.417,0,0,1-2.274,1.607Zm34.509,5.171a1.6,1.6,0,0,1-.326,1.3,1.067,1.067,0,0,1-.8.4H27.613a3.228,3.228,0,0,0,.269-1.974,14.54,14.54,0,0,0-4.974-8.742,12.642,12.642,0,0,0,1.18-.994,12.177,12.177,0,0,1,3.4-.468,12.4,12.4,0,0,1,2.939.345,12.594,12.594,0,0,0,4.73,2.911,4.021,4.021,0,0,0,8.012.006,12.427,12.427,0,0,0,2-.884A12.836,12.836,0,0,1,49.991,100.338ZM36.885,93.565a12.389,12.389,0,0,0,4.553,0,2.413,2.413,0,0,1-4.553,0Zm2.277-1.4A10.918,10.918,0,0,1,28.9,84.9a3.708,3.708,0,0,0,1.626-4.908,4.379,4.379,0,0,0,.258-.644,15.521,15.521,0,0,0,1.9-.637,13.824,13.824,0,0,0,6.635-5.452,13.823,13.823,0,0,0,6.635,5.452,14.809,14.809,0,0,0,3.976,1.022A10.885,10.885,0,0,1,39.163,92.17Z" transform="translate(0 0)"/>
    </g>
  </g>
</svg>
