<svg xmlns="http://www.w3.org/2000/svg" xmlns:xlink="http://www.w3.org/1999/xlink" width="98" height="98" viewBox="0 0 98 98">
  <defs>
    <filter id="Trazado_982547" x="0" y="0" width="98" height="98" filterUnits="userSpaceOnUse">
      <feOffset dy="3" input="SourceAlpha"/>
      <feGaussianBlur stdDeviation="3" result="blur"/>
      <feFlood flood-opacity="0.161"/>
      <feComposite operator="in" in2="blur"/>
      <feComposite in="SourceGraphic"/>
    </filter>
    <clipPath id="clip-path">
      <path id="path8121" d="M0-682.665H48.414v48.414H0Z" transform="translate(0 682.665)"/>
    </clipPath>
  </defs>
  <g id="Grupo_1231519" data-name="Grupo 1231519" transform="translate(-195.151 -2292)">
    <g id="Grupo_1229590" data-name="Grupo 1229590" transform="translate(204.151 2298)">
      <g id="Grupo_1208936" data-name="Grupo 1208936" transform="translate(0)">
        <g id="Grupo_1208171" data-name="Grupo 1208171">
          <g id="Grupo_1207739" data-name="Grupo 1207739">
            <g id="Grupo_1207712" data-name="Grupo 1207712">
              <g id="Grupo_1207285" data-name="Grupo 1207285">
                <g id="Grupo_1206883" data-name="Grupo 1206883">
                  <g id="Grupo_1204569" data-name="Grupo 1204569">
                    <g id="Grupo_1203962" data-name="Grupo 1203962">
                      <g id="Grupo_1203498" data-name="Grupo 1203498">
                        <g id="Grupo_1202589" data-name="Grupo 1202589">
                          <g id="Grupo_1172010" data-name="Grupo 1172010">
                            <g id="Grupo_1171046" data-name="Grupo 1171046">
                              <g id="Grupo_1148525" data-name="Grupo 1148525">
                                <g transform="matrix(1, 0, 0, 1, -9, -6)" filter="url(#Trazado_982547)">
                                  <g id="Trazado_982547-2" data-name="Trazado 982547" transform="translate(9 6)" fill="#fdfbec">
                                    <path d="M 39.99999237060547 78.49998474121094 C 34.8018684387207 78.49998474121094 29.76002502441406 77.48226165771484 25.0145263671875 75.47508239746094 C 20.43014717102051 73.53604888916016 16.31264877319336 70.75984954833984 12.77639198303223 67.22359466552734 C 9.240137100219727 63.68733596801758 6.463936805725098 59.5698356628418 4.524903297424316 54.98546981811523 C 2.517725706100464 50.23995971679688 1.500003457069397 45.19811630249023 1.500003457069397 39.99999237060547 C 1.500003457069397 34.8018684387207 2.517725706100464 29.76002502441406 4.524903297424316 25.0145263671875 C 6.463936805725098 20.43014717102051 9.240137100219727 16.31264877319336 12.77639198303223 12.77639198303223 C 16.31264877319336 9.240137100219727 20.43014717102051 6.463936805725098 25.0145263671875 4.524903297424316 C 29.76002502441406 2.517725706100464 34.8018684387207 1.500003457069397 39.99999237060547 1.500003457069397 C 45.19811630249023 1.500003457069397 50.23995971679688 2.517725706100464 54.98546981811523 4.524903297424316 C 59.5698356628418 6.463936805725098 63.68733596801758 9.240137100219727 67.22359466552734 12.77639198303223 C 70.75984954833984 16.31264877319336 73.53604888916016 20.43014717102051 75.47508239746094 25.0145263671875 C 77.48226165771484 29.76002502441406 78.49998474121094 34.8018684387207 78.49998474121094 39.99999237060547 C 78.49998474121094 45.19812393188477 77.48226165771484 50.23995971679688 75.47508239746094 54.98546981811523 C 73.53604888916016 59.5698356628418 70.75984954833984 63.68733596801758 67.22359466552734 67.22359466552734 C 63.68733596801758 70.75984954833984 59.5698356628418 73.53604888916016 54.98546981811523 75.47508239746094 C 50.23995971679688 77.48226165771484 45.19812393188477 78.49998474121094 39.99999237060547 78.49998474121094 Z" stroke="none"/>
                                    <path d="M 39.99999237060547 2.999992370605469 C 35.00370025634766 2.999992370605469 30.1584587097168 3.97784423828125 25.59884643554688 5.906402587890625 C 21.19327163696289 7.769805908203125 17.23603057861328 10.43805694580078 13.83704376220703 13.83704376220703 C 10.43805694580078 17.23603057861328 7.769805908203125 21.19327163696289 5.906402587890625 25.59884643554688 C 3.97784423828125 30.1584587097168 2.999992370605469 35.00370025634766 2.999992370605469 39.99999237060547 C 2.999992370605469 44.99628448486328 3.97784423828125 49.84152603149414 5.906402587890625 54.40113830566406 C 7.769805908203125 58.80671310424805 10.43805694580078 62.76395416259766 13.83704376220703 66.16294097900391 C 17.23603057861328 69.56191253662109 21.19327163696289 72.23016357421875 25.59884643554688 74.09356689453125 C 30.1584587097168 76.02212524414062 35.00370025634766 76.99997711181641 39.99999237060547 76.99997711181641 C 44.99628448486328 76.99997711181641 49.84152603149414 76.02212524414062 54.40113830566406 74.09356689453125 C 58.80671310424805 72.23016357421875 62.76395416259766 69.56191253662109 66.16294097900391 66.16294097900391 C 69.56191253662109 62.76395416259766 72.23016357421875 58.80671310424805 74.09356689453125 54.40113830566406 C 76.02212524414062 49.84152603149414 76.99997711181641 44.99628448486328 76.99997711181641 39.99999237060547 C 76.99997711181641 35.00370025634766 76.02212524414062 30.1584587097168 74.09356689453125 25.59884643554688 C 72.23016357421875 21.19327163696289 69.56191253662109 17.23603057861328 66.16294097900391 13.83704376220703 C 62.76395416259766 10.43805694580078 58.80671310424805 7.769805908203125 54.40113830566406 5.906402587890625 C 49.84152603149414 3.97784423828125 44.99628448486328 2.999992370605469 39.99999237060547 2.999992370605469 M 39.99999237060547 -7.62939453125e-06 C 62.09137725830078 -7.62939453125e-06 79.99997711181641 17.90860748291016 79.99997711181641 39.99999237060547 C 79.99997711181641 62.09137725830078 62.09137725830078 79.99997711181641 39.99999237060547 79.99997711181641 C 17.90860748291016 79.99997711181641 -7.62939453125e-06 62.09137725830078 -7.62939453125e-06 39.99999237060547 C -7.62939453125e-06 17.90860748291016 17.90860748291016 -7.62939453125e-06 39.99999237060547 -7.62939453125e-06 Z" stroke="none" fill="#83793c"/>
                                  </g>
                                </g>
                              </g>
                            </g>
                          </g>
                        </g>
                      </g>
                    </g>
                  </g>
                </g>
              </g>
              <g id="g8115" transform="translate(15.793 15.793)">
                <g id="g8117">
                  <g id="g8119" clip-path="url(#clip-path)">
                    <g id="g8125" transform="translate(-33.259 0.709)">
                      <path id="path8127" d="M-338.457-377.826h-25.835v-25.108c5.31-7.679,37.755-5.416,25.835,25.108" transform="translate(364.292 406.667)" fill="#fbdf63"/>
                    </g>
                    <g id="g8129" transform="translate(-33.259 0.709)">
                      <path id="path8131" d="M-338.457-377.826h-.619c6.164-24.728-15.887-30.6-25.216-24.374v-.734c5.31-7.679,37.755-5.416,25.835,25.108" transform="translate(364.292 406.667)" fill="#f9d11f"/>
                    </g>
                  </g>
                </g>
                <g id="g8265">
                  <g id="g8267" clip-path="url(#clip-path)">
                    <g id="g8273" transform="translate(-33.259 51.036)">
                      <path id="path8275" d="M-338.457-377.654h-25.835v-25.1c5.31-7.676,37.755-5.413,25.835,25.1" transform="translate(364.292 406.481)" fill="#003343"/>
                    </g>
                    <g id="g8277" transform="translate(-33.259 51.036)">
                      <path id="path8279" d="M-338.457-377.654h-.619c6.164-24.717-15.887-30.585-25.216-24.362v-.734c5.31-7.676,37.755-5.413,25.835,25.1" transform="translate(364.292 406.481)" fill="#002439"/>
                    </g>
                  </g>
                </g>
                <g id="g8281">
                  <g id="g8283" clip-path="url(#clip-path)">
                    <g id="g8289" transform="translate(17.066 51.014)">
                      <path id="path8291" d="M-338.457-377.826h-25.835v-25.108c5.31-7.679,37.755-5.416,25.835,25.108" transform="translate(364.292 406.667)" fill="#ff7e50"/>
                    </g>
                    <g id="g8293" transform="translate(17.066 51.014)">
                      <path id="path8295" d="M-338.457-377.826h-.619c6.164-24.728-15.887-30.6-25.216-24.374v-.734c5.31-7.679,37.755-5.416,25.835,25.108" transform="translate(364.292 406.667)" fill="#ff6247"/>
                    </g>
                    <g id="g8297" transform="translate(2.941 54.225)">
                      <path id="path8299" d="M-233.028-131.751v15.573h-14.6c-12.2-25.649,14.6-34.273,14.6-15.573" transform="translate(250.816 141.808)" fill="#ffa68a"/>
                    </g>
                    <g id="g8301" transform="translate(2.941 54.225)">
                      <path id="path8303" d="M-233.028-131.751c-.9-16.1-20.23-9.82-14.176,15.573h-.427c-12.2-25.649,14.6-34.273,14.6-15.573" transform="translate(250.816 141.808)" fill="#ff7e50"/>
                    </g>
                  </g>
                </g>
              </g>
            </g>
          </g>
        </g>
      </g>
    </g>
    <g id="Page-1" transform="translate(216.911 2307.508)">
      <g id="_026---Idea" data-name="026---Idea" transform="translate(0.424)">
        <path id="Shape" d="M23.207,48.671,22.8,53.6H3.243a1.813,1.813,0,0,1-1.786-2.158L5.428,31.064a.907.907,0,0,1,.889-.734h2.52L5.818,48.481A.914.914,0,0,0,6.987,49.5a31.016,31.016,0,0,1,16.22-.825Z" transform="translate(-0.517 -2.832)" fill="sienna"/>
        <path id="Shape-2" data-name="Shape" d="M54.514,53.6H34.958l-.408-4.932a31.016,31.016,0,0,1,16.22.825.914.914,0,0,0,1.17-1.015L48.92,30.33h2.52a.907.907,0,0,1,.889.734L56.3,51.446A1.813,1.813,0,0,1,54.514,53.6Z" transform="translate(-3.61 -2.832)" fill="sienna"/>
        <path id="Shape-3" data-name="Shape" d="M57.78,51.446,53.809,31.064a.907.907,0,0,0-.889-.734H50.4l.006.036a.907.907,0,0,1,.683.7L55.06,51.446A1.813,1.813,0,0,1,53.274,53.6h2.72a1.813,1.813,0,0,0,1.786-2.158Z" transform="translate(-5.09 -2.832)" fill="#783e22"/>
        <path id="Shape-4" data-name="Shape" d="M48.128,49.235a31.016,31.016,0,0,0-16.22-.825,20.99,20.99,0,0,0-4.125,1.306,20.99,20.99,0,0,0-4.125-1.306,31.016,31.016,0,0,0-16.22.825.914.914,0,0,1-1.17-1.015L9.288,30.069l.254-1.532a.914.914,0,0,1,.762-.753c.617-.091,1.251-.181,1.886-.254a6.467,6.467,0,0,0,5.748,3.509,6.537,6.537,0,0,0,2.239-.4A4.775,4.775,0,0,0,28.309,32.2a7.864,7.864,0,0,0,2.847.535h.054c.19,1.632,1.043,2.593,3.889,3.545a4.959,4.959,0,0,1,2.248,1.487,1.92,1.92,0,0,0,2.221.571,1.893,1.893,0,0,0,1.142-1.732,1.845,1.845,0,0,0-.091-.58,8,8,0,0,0-1.2-2.412A6.744,6.744,0,0,0,42.861,28.9a4.7,4.7,0,0,0,.843-1.324c.526.063,1.043.127,1.559.209a.914.914,0,0,1,.762.753l.254,1.532L49.3,48.22a.914.914,0,0,1-1.17,1.015Z" transform="translate(-0.969 -2.57)" fill="#f5f5f5"/>
        <path id="Shape-5" data-name="Shape" d="M53.107,48.224,50.088,30.073l-.254-1.532a.914.914,0,0,0-.762-.753c-.517-.082-1.034-.145-1.559-.209a4.714,4.714,0,0,1-.453.808.9.9,0,0,1,.052.153l.254,1.532,3.019,18.151a.878.878,0,0,1-.091.544c.544.142,1.088.3,1.638.472a.914.914,0,0,0,1.175-1.016Z" transform="translate(-4.778 -2.575)" fill="#cfd8dc"/>
        <path id="Shape-6" data-name="Shape" d="M34.066,55.492c0,1-2.031,1.813-4.533,1.813S25,56.489,25,55.492l.408-4.932a20.99,20.99,0,0,1,4.125,1.306,20.99,20.99,0,0,1,4.125-1.306Z" transform="translate(-2.718 -4.72)" fill="#783e22"/>
        <path id="Shape-7" data-name="Shape" d="M44.639,23.951a4.58,4.58,0,0,1-.4,1.895,4.7,4.7,0,0,1-.843,1.324,6.744,6.744,0,0,1-3.436,4.715,8,8,0,0,1,1.2,2.412,1.845,1.845,0,0,1,.091.58,1.893,1.893,0,0,1-1.142,1.732,1.92,1.92,0,0,1-2.221-.571,4.959,4.959,0,0,0-2.248-1.487c-2.847-.952-3.7-1.913-3.889-3.545h-.054a7.864,7.864,0,0,1-2.847-.535,4.775,4.775,0,0,1-8.133-1.559,6.477,6.477,0,0,1-7.425-9.955,2.648,2.648,0,0,1-.163-.925,2.824,2.824,0,0,1,2.267-2.774c-.009-.109-.018-.218-.018-.335a3.665,3.665,0,0,1,3.663-3.663,3.578,3.578,0,0,1,1.587.363A5.355,5.355,0,0,1,25.228,9a5.259,5.259,0,0,1,3.518,1.333,2.811,2.811,0,0,1,4.987.408,7.351,7.351,0,0,1,.78-.045,6.762,6.762,0,0,1,6.727,6.2h.027a2.811,2.811,0,0,1,2.811,2.82,2.909,2.909,0,0,1-.363,1.4,4.805,4.805,0,0,1,.925,2.838Z" transform="translate(-1.505 -0.84)" fill="#e91e63"/>
        <path id="Shape-8" data-name="Shape" d="M45.544,21.113a2.909,2.909,0,0,0,.363-1.4A2.811,2.811,0,0,0,43.1,16.9h-.027a6.762,6.762,0,0,0-6.727-6.2,7.351,7.351,0,0,0-.78.045A2.8,2.8,0,0,0,31.6,9.356a2.789,2.789,0,0,1,1.242,1.384,7.351,7.351,0,0,1,.78-.045,6.762,6.762,0,0,1,6.727,6.2h.027a2.811,2.811,0,0,1,2.811,2.82,2.909,2.909,0,0,1-.363,1.4,4.805,4.805,0,0,1,.925,2.838,4.58,4.58,0,0,1-.4,1.895,4.7,4.7,0,0,1-.843,1.324,6.744,6.744,0,0,1-3.436,4.715,8,8,0,0,1,1.2,2.412,1.845,1.845,0,0,1,.091.58,1.876,1.876,0,0,1-.528,1.278,1.872,1.872,0,0,0,3.248-1.278,1.845,1.845,0,0,0-.091-.58,8,8,0,0,0-1.2-2.412,6.744,6.744,0,0,0,3.436-4.715,4.7,4.7,0,0,0,.843-1.324,4.58,4.58,0,0,0,.4-1.895,4.805,4.805,0,0,0-.925-2.838Z" transform="translate(-3.335 -0.84)" fill="#ad1457"/>
        <path id="Shape-9" data-name="Shape" d="M39.97,25.432a.907.907,0,1,0-1.62.816,1.35,1.35,0,0,1-.437,1.709,1.368,1.368,0,0,1-1.969-.5.907.907,0,1,0-1.622.811,3.159,3.159,0,0,0,5.648-2.831Z" transform="translate(-3.58 -2.328)" fill="#ad1457"/>
        <path id="Shape-10" data-name="Shape" d="M33.739,24.526a5.414,5.414,0,0,0,2.248-3.451.907.907,0,1,0-1.781-.341,3.614,3.614,0,0,1-1.5,2.3,3.7,3.7,0,0,1-4.773-.544.908.908,0,1,0-1.342,1.223A5.467,5.467,0,0,0,29.5,25.391a2.7,2.7,0,0,1-2.207,1.135.907.907,0,1,0,0,1.813,4.5,4.5,0,0,0,4.224-2.908,5.463,5.463,0,0,0,2.226-.906Z" transform="translate(-2.845 -1.866)" fill="#ad1457"/>
        <path id="Shape-11" data-name="Shape" d="M20.758,27a1.36,1.36,0,0,1-1.738-1.292v-.023a.9.9,0,0,0-.907-.895.916.916,0,0,0-.907.918,3.164,3.164,0,0,0,3.157,3.163,3.217,3.217,0,0,0,.907-.133A.907.907,0,0,0,20.754,27Z" transform="translate(-1.991 -2.314)" fill="#ad1457"/>
        <path id="Shape-12" data-name="Shape" d="M27.277,16.907A.907.907,0,0,0,26.371,16,4.175,4.175,0,0,0,22.2,20.171a.907.907,0,0,0,1.813,0,2.357,2.357,0,0,1,2.357-2.357.907.907,0,0,0,.907-.907Z" transform="translate(-2.457 -1.494)" fill="#ad1457"/>
        <g id="Grupo_1231518" data-name="Grupo 1231518" transform="translate(4.968)">
          <path id="Shape-13" data-name="Shape" d="M29.907,2.72A.907.907,0,0,1,29,1.813V.907a.907.907,0,0,1,1.813,0v.907A.907.907,0,0,1,29.907,2.72Z" transform="translate(-8.06)" fill="#ffdc00"/>
          <path id="Shape-14" data-name="Shape" d="M46.024,9.6a.907.907,0,0,1-.641-1.548l.907-.907a.907.907,0,1,1,1.282,1.282l-.907.907a.907.907,0,0,1-.641.266Z" transform="translate(-9.564 -0.641)" fill="#ffdc00"/>
          <path id="Shape-15" data-name="Shape" d="M13.7,9.6a.907.907,0,0,1-.641-.266l-.907-.907a.907.907,0,1,1,1.282-1.282l.907.907A.907.907,0,0,1,13.7,9.6Z" transform="translate(-6.461 -0.641)" fill="#ffdc00"/>
          <path id="Shape-16" data-name="Shape" d="M21.38,5.228a.907.907,0,0,1-.838-.559L19.5,2.155a.907.907,0,1,1,1.675-.694l1.042,2.513a.907.907,0,0,1-.49,1.186.919.919,0,0,1-.347.068Z" transform="translate(-7.166 -0.082)" fill="#ffdc00"/>
          <path id="Shape-17" data-name="Shape" d="M38.326,5.228a.919.919,0,0,1-.347-.069.907.907,0,0,1-.49-1.185L38.53,1.461a.907.907,0,1,1,1.675.694L39.163,4.668a.907.907,0,0,1-.838.559Z" transform="translate(-8.846 -0.082)" fill="#ffdc00"/>
          <path id="Shape-18" data-name="Shape" d="M50.231,17.288a.907.907,0,0,1-.347-1.745L52.4,14.5a.907.907,0,0,1,.694,1.675l-2.512,1.041a.907.907,0,0,1-.347.07Z" transform="translate(-9.957 -1.347)" fill="#ffdc00"/>
          <path id="Shape-19" data-name="Shape" d="M9.323,17.288a.907.907,0,0,1-.347-.07L6.463,16.177A.907.907,0,0,1,7.157,14.5L9.67,15.543a.907.907,0,0,1-.347,1.745Z" transform="translate(-5.903 -1.347)" fill="#ffdc00"/>
        </g>
        <path id="Shape-20" data-name="Shape" d="M50.035,28.81a1.813,1.813,0,0,0-1.78-1.471H46.5l-.129-.772a1.822,1.822,0,0,0-1.515-1.5c-.172-.027-.346-.045-.518-.069a5.531,5.531,0,0,0-.689-4.043,3.71,3.71,0,0,0-2.688-4.963,7.715,7.715,0,0,0-7.537-6.3c-.091,0-.171.012-.257.015a3.688,3.688,0,0,0-5.642-.7A6.223,6.223,0,0,0,24.144,8,6.3,6.3,0,0,0,19.2,10.437,4.516,4.516,0,0,0,13.423,14.5a3.732,3.732,0,0,0-2.286,3.438,3.687,3.687,0,0,0,.091.773,7.3,7.3,0,0,0-.869,6.256c-.243.034-.491.063-.725.1a1.824,1.824,0,0,0-1.527,1.5l-.129.774H6.223A1.813,1.813,0,0,0,4.444,28.8L.474,49.187a2.72,2.72,0,0,0,2.675,3.239H22.056c.751,1.238,3.032,1.813,5.182,1.813,2.128,0,4.387-.561,5.16-1.813h18.93A2.72,2.72,0,0,0,54,49.188ZM13.879,19.574a1.915,1.915,0,0,1,.979-3.556,1.88,1.88,0,0,1,1.522.769.907.907,0,0,0,1.456-1.081,3.663,3.663,0,0,0-2.571-1.451,2.756,2.756,0,0,1,2.688-2.182,2.826,2.826,0,0,1,.33.036,5.956,5.956,0,0,0-.19.568.907.907,0,0,0,1.755.453A4.409,4.409,0,0,1,20.319,12a4.477,4.477,0,0,1,3.824-2.182,4.4,4.4,0,0,1,2.4.725,3.685,3.685,0,0,0-.213,1.189.907.907,0,1,0,1.813,0,1.907,1.907,0,1,1,3.814,0,.907.907,0,1,0,1.813,0c0-.07-.017-.136-.021-.206a5.885,5.885,0,0,1,5.369,4.539,3.665,3.665,0,0,0-1.172.585A.907.907,0,1,0,39.037,18.1a1.911,1.911,0,0,1,2.8,2.472,1.934,1.934,0,0,1-.859.794.907.907,0,0,0,.386,1.723A.9.9,0,0,0,41.752,23a3.724,3.724,0,0,0,.677-.423,3.872,3.872,0,0,1-.767,3.867l-.022.023a3.916,3.916,0,0,1-4.624.849,3.674,3.674,0,0,1-1.074-.809.907.907,0,0,0-1.337,1.225,5.5,5.5,0,0,0,1.586,1.2,5.585,5.585,0,0,0,4.188.387,5.779,5.779,0,0,1-3.734,2.289.907.907,0,0,0,.142,1.8.964.964,0,0,0,.144-.011,7.451,7.451,0,0,0,1.608-.47,8.107,8.107,0,0,1,.676,1.557.935.935,0,0,1,.047.293.978.978,0,0,1-.595.9,1.026,1.026,0,0,1-1.17-.315A5.787,5.787,0,0,0,34.845,33.6c-1.959-.656-2.715-1.243-3.036-1.881a8.7,8.7,0,0,0,1.39-.29.907.907,0,1,0-.533-1.733,6.871,6.871,0,0,1-1.565.287,6.729,6.729,0,0,1-3-.453.907.907,0,0,0-1.016.253,3.882,3.882,0,0,1-6.261-4.54.908.908,0,0,0-1.558-.935,5.616,5.616,0,0,0-.725,3.87,5.54,5.54,0,0,1-6.269-7.588,3.655,3.655,0,0,0,.675.538.907.907,0,0,0,.936-1.553ZM9.89,26.857c.418-.062.85-.116,1.278-.172a7.32,7.32,0,0,0,7.951,3.226,5.679,5.679,0,0,0,8.9,1.508,8.7,8.7,0,0,0,1.892.343c.438,1.661,1.7,2.667,4.363,3.559a4.018,4.018,0,0,1,1.846,1.216,2.888,2.888,0,0,0,2.19,1.029,2.753,2.753,0,0,0,1.076-.219,2.792,2.792,0,0,0,1.695-2.567,2.69,2.69,0,0,0-.138-.858,9.911,9.911,0,0,0-.8-1.845,7.643,7.643,0,0,0,3.013-4.608,5.679,5.679,0,0,0,.522-.731c.3.039.607.073.913.124l3.273,19.687a31.121,31.121,0,0,0-19.714,0V35.2a.907.907,0,1,0-1.813,0V46.552a31.127,31.127,0,0,0-19.714-.007ZM2.443,50.278a.9.9,0,0,1-.19-.743l3.97-20.383H7.674L4.828,46.25a1.82,1.82,0,0,0,2.34,2.025,30.332,30.332,0,0,1,14.975-.95l-.27,3.287H3.149a.913.913,0,0,1-.706-.334Zm24.8,2.147c-2.184,0-3.437-.646-3.621-.933l.312-3.763a19.375,19.375,0,0,1,2.918.978.915.915,0,0,0,.392.091.9.9,0,0,0,.393-.091,19.312,19.312,0,0,1,2.917-.985l.312,3.768c-.184.288-1.437.934-3.621.934Zm24.8-2.147a.913.913,0,0,1-.706.334H32.607l-.272-3.293a30.341,30.341,0,0,1,14.981.958,1.819,1.819,0,0,0,2.332-2.03L46.806,29.153h1.451l3.971,20.381A.9.9,0,0,1,52.035,50.278Z" transform="translate(-0.424 -0.747)"/>
      </g>
    </g>
  </g>
</svg>
