<svg xmlns="http://www.w3.org/2000/svg" xmlns:xlink="http://www.w3.org/1999/xlink" width="108" height="108" viewBox="0 0 108 108">
  <defs>
    <filter id="Trazado_904820" x="0" y="0" width="108" height="108" filterUnits="userSpaceOnUse">
      <feOffset dy="3" input="SourceAlpha"/>
      <feGaussianBlur stdDeviation="3" result="blur"/>
      <feFlood flood-opacity="0.161"/>
      <feComposite operator="in" in2="blur"/>
      <feComposite in="SourceGraphic"/>
    </filter>
  </defs>
  <g id="Grupo_1231248" data-name="Grupo 1231248" transform="translate(-200.522 -328.947)">
    <g id="Grupo_1230043" data-name="Grupo 1230043" transform="translate(209.522 334.947)">
      <g id="Grupo_1229404" data-name="Grupo 1229404" transform="translate(0 0)">
        <g id="Grupo_1208347" data-name="Grupo 1208347" transform="translate(0)">
          <g id="Grupo_1207936" data-name="Grupo 1207936">
            <g id="Grupo_1201662" data-name="Grupo 1201662">
              <g id="Grupo_1173585" data-name="Grupo 1173585">
                <g id="Grupo_1173428" data-name="Grupo 1173428">
                  <g id="Grupo_1171958" data-name="Grupo 1171958">
                    <g id="Grupo_1167341" data-name="Grupo 1167341">
                      <g id="Grupo_1166792" data-name="Grupo 1166792">
                        <g transform="matrix(1, 0, 0, 1, -9, -6)" filter="url(#Trazado_904820)">
                          <g id="Trazado_904820-2" data-name="Trazado 904820" transform="translate(9 6)" fill="#ebe9f0">
                            <path d="M 44.99999618530273 88.49999237060547 C 39.12687301635742 88.49999237060547 33.43022155761719 87.35006713867188 28.06829643249512 85.08216857910156 C 22.88852119445801 82.89130401611328 18.23629570007324 79.75457763671875 14.24084663391113 75.75914001464844 C 10.24540901184082 71.76369476318359 7.108683586120605 67.11146545410156 4.917821407318115 61.93169403076172 C 2.649921178817749 56.56976699829102 1.499996185302734 50.87311553955078 1.499996185302734 44.99999237060547 C 1.499996185302734 39.12686920166016 2.649921178817749 33.43021774291992 4.917821407318115 28.06829261779785 C 7.108683586120605 22.88851737976074 10.24540901184082 18.23630523681641 14.24084663391113 14.24085521697998 C 18.23629570007324 10.24540519714355 22.88852119445801 7.108692169189453 28.06829643249512 4.917829990386963 C 33.43022155761719 2.649929761886597 39.12687301635742 1.500004887580872 44.99999618530273 1.500004887580872 C 50.87311935424805 1.500004887580872 56.56977081298828 2.649929761886597 61.93169784545898 4.917829990386963 C 67.11147308349609 7.108692169189453 71.76369476318359 10.24540519714355 75.75914764404297 14.24085521697998 C 79.75458526611328 18.23630523681641 82.89131164550781 22.88851737976074 85.08216857910156 28.06829261779785 C 87.35007476806641 33.43021774291992 88.5 39.12686920166016 88.5 44.99999237060547 C 88.5 50.87311553955078 87.35007476806641 56.56976699829102 85.08216857910156 61.93169403076172 C 82.89131164550781 67.11146545410156 79.75458526611328 71.76369476318359 75.75914764404297 75.75914001464844 C 71.76369476318359 79.75457763671875 67.11147308349609 82.89130401611328 61.93169784545898 85.08216857910156 C 56.56977081298828 87.35006713867188 50.87311935424805 88.49999237060547 44.99999618530273 88.49999237060547 Z" stroke="none"/>
                            <path d="M 44.99999618530273 2.999992370605469 C 39.32870864868164 2.999992370605469 33.82865142822266 4.11004638671875 28.65262603759766 6.299331665039062 C 23.65165710449219 8.414566040039062 19.15968322753906 11.44333648681641 15.301513671875 15.30150604248047 C 11.44333648681641 19.15967559814453 8.414566040039062 23.65164947509766 6.299339294433594 28.65262222290039 C 4.110054016113281 33.82864761352539 2.999992370605469 39.32870483398438 2.999992370605469 44.99999237060547 C 2.999992370605469 50.67127990722656 4.110054016113281 56.17132186889648 6.299339294433594 61.34736633300781 C 8.414566040039062 66.34833526611328 11.44333648681641 70.84029388427734 15.301513671875 74.69846343994141 C 19.15968322753906 78.55663299560547 23.65165710449219 81.58540344238281 28.65262603759766 83.70063781738281 C 33.82865142822266 85.88992309570312 39.32870864868164 86.99997711181641 44.99999618530273 86.99997711181641 C 50.67128372192383 86.99997711181641 56.17134094238281 85.88992309570312 61.34736633300781 83.70063781738281 C 66.34834289550781 81.58540344238281 70.84030914306641 78.55663299560547 74.69847869873047 74.69846343994141 C 78.55665588378906 70.84029388427734 81.58542633056641 66.34833526611328 83.70065307617188 61.34736633300781 C 85.88993835449219 56.17132186889648 87 50.67127990722656 87 44.99999237060547 C 87 39.32870483398438 85.88993835449219 33.82864761352539 83.70065307617188 28.65262222290039 C 81.58542633056641 23.65164947509766 78.55665588378906 19.15967559814453 74.69847869873047 15.30150604248047 C 70.84030914306641 11.44333648681641 66.34834289550781 8.414566040039062 61.34736633300781 6.299331665039062 C 56.17134094238281 4.11004638671875 50.67128372192383 2.999992370605469 44.99999618530273 2.999992370605469 M 44.99999618530273 -7.62939453125e-06 C 69.85281372070312 -7.62939453125e-06 90 20.14717864990234 90 44.99999237060547 C 90 69.85279083251953 69.85281372070312 89.99997711181641 44.99999618530273 89.99997711181641 C 20.14717864990234 89.99997711181641 -7.62939453125e-06 69.85279083251953 -7.62939453125e-06 44.99999237060547 C -7.62939453125e-06 20.14717864990234 20.14717864990234 -7.62939453125e-06 44.99999618530273 -7.62939453125e-06 Z" stroke="none" fill="#5692e8"/>
                          </g>
                        </g>
                      </g>
                    </g>
                  </g>
                </g>
              </g>
            </g>
          </g>
        </g>
      </g>
    </g>
    <g id="en-linea" transform="translate(224 324.415)">
      <g id="Grupo_1231246" data-name="Grupo 1231246" transform="translate(1.264 29.403)">
        <path id="Trazado_1232148" data-name="Trazado 1232148" d="M104.97,196.521v12.357a2.9,2.9,0,0,0,1.84,2.7l16.914,6.645a2.9,2.9,0,0,0,2.122,0l16.674-6.551a2.9,2.9,0,0,0,1.84-2.7V196.521" transform="translate(-93.719 -177.484)" fill="#f0e4f6"/>
        <path id="Trazado_1232149" data-name="Trazado 1232149" d="M85.037,45.4,74.317,40.63l-8.5-3.778-26.4,11.74a2.024,2.024,0,0,0,0,3.7l26.4,11.74,26.4-11.74a2.024,2.024,0,0,0,0-3.7Z" transform="translate(-34.922 -36.852)" fill="#5692e8"/>
        <path id="Trazado_1232150" data-name="Trazado 1232150" d="M15.4,337.115H12.389a1.788,1.788,0,0,1-1.788-1.788v-6.49a2.981,2.981,0,0,1,2.981-2.981H14.2a2.981,2.981,0,0,1,2.981,2.981v6.49A1.788,1.788,0,0,1,15.4,337.115Z" transform="translate(-10.601 -291.399)" fill="#fff3a0"/>
        <path id="Trazado_1232151" data-name="Trazado 1232151" d="M329.556,331.923l2.852,10.645a1.365,1.365,0,0,0,2.284.612,1.365,1.365,0,0,1,1.931,0l3.567,3.567a1.365,1.365,0,0,0,1.986-.059l3.7-4.162a1.365,1.365,0,0,0-.055-1.872l-3.335-3.335a1.365,1.365,0,0,1,0-1.931,1.365,1.365,0,0,0-.612-2.284l-10.645-2.852A1.365,1.365,0,0,0,329.556,331.923Z" transform="translate(-291.485 -295.228)" fill="#ccf5fc"/>
      </g>
      <g id="Grupo_1231247" data-name="Grupo 1231247" transform="translate(0 28.395)">
        <circle id="Elipse_11567" data-name="Elipse 11567" cx="1.195" cy="1.195" r="1.195" transform="translate(44.706 6.177) rotate(-11.355)"/>
        <path id="Trazado_1232152" data-name="Trazado 1232152" d="M59.167,40.1,51.378,36.64a1.195,1.195,0,0,0-.971,2.183L58.2,42.286a.773.773,0,0,1,0,1.413L32.476,55.135a.774.774,0,0,1-.628,0L6.128,43.7a.773.773,0,0,1,0-1.413L31.848,30.85a.772.772,0,0,1,.628,0l8.174,3.634a1.195,1.195,0,1,0,.971-2.183l-8.174-3.634a3.167,3.167,0,0,0-2.57,0L5.158,40.1a3.125,3.125,0,0,0-1.878,2.89V62.765A4.188,4.188,0,0,0,0,66.847v6.481a2.99,2.99,0,0,0,2.987,2.987H5.963a2.99,2.99,0,0,0,2.987-2.987V66.847a4.188,4.188,0,0,0-3.28-4.082V46.11l5.651,2.513V60.8a4.073,4.073,0,0,0,2.6,3.812l16.915,6.646a4.087,4.087,0,0,0,2.995,0l5.036-1.978,2.105,7.857a2.581,2.581,0,0,0,4.318,1.157.191.191,0,0,1,.271,0l3.621,3.621a2.592,2.592,0,0,0,1.826.756h.075a2.591,2.591,0,0,0,1.853-.865l3.755-4.226a2.584,2.584,0,0,0-.1-3.539L53.2,70.651a.192.192,0,0,1,0-.271,2.581,2.581,0,0,0-1.157-4.318l-2.969-.8L50.5,64.7a4.072,4.072,0,0,0,2.6-3.812V48.58l6.066-2.7a3.163,3.163,0,0,0,0-5.78ZM6.56,66.847v6.481a.6.6,0,0,1-.6.6H2.987a.6.6,0,0,1-.6-.6V66.847a1.794,1.794,0,0,1,1.792-1.792h.587A1.794,1.794,0,0,1,6.56,66.847Zm45,1.658a.179.179,0,0,1-.05.185,2.581,2.581,0,0,0,0,3.65L54.9,75.726a.192.192,0,0,1,.008.263l-3.755,4.226a.188.188,0,0,1-.138.064.192.192,0,0,1-.141-.056L47.248,76.6a2.581,2.581,0,0,0-3.65,0,.192.192,0,0,1-.32-.086l-2.9-10.808a.192.192,0,0,1,.235-.235l10.808,2.9a.179.179,0,0,1,.136.136Zm-.848-7.613a1.7,1.7,0,0,1-1.082,1.588l-4.441,1.745-3.954-1.059a2.581,2.581,0,0,0-3.161,3.161l.168.628-5.286,2.076a1.706,1.706,0,0,1-1.249,0L14.792,62.386A1.7,1.7,0,0,1,13.709,60.8V49.685l17.168,7.634a3.168,3.168,0,0,0,2.57,0l17.264-7.676Z" transform="translate(0 -28.395)"/>
      </g>
    </g>
  </g>
</svg>
