<svg xmlns="http://www.w3.org/2000/svg" xmlns:xlink="http://www.w3.org/1999/xlink" width="108" height="108" viewBox="0 0 108 108">
  <defs>
    <filter id="Trazado_904820" x="0" y="0" width="108" height="108" filterUnits="userSpaceOnUse">
      <feOffset dy="3" input="SourceAlpha"/>
      <feGaussianBlur stdDeviation="3" result="blur"/>
      <feFlood flood-opacity="0.161"/>
      <feComposite operator="in" in2="blur"/>
      <feComposite in="SourceGraphic"/>
    </filter>
  </defs>
  <g id="Grupo_1231588" data-name="Grupo 1231588" transform="translate(-166.976 -787)">
    <g id="Grupo_1230139" data-name="Grupo 1230139" transform="translate(0.976 -2303.215)">
      <g id="Grupo_1229775" data-name="Grupo 1229775" transform="translate(0 1440.215)">
        <g id="Grupo_1208498" data-name="Grupo 1208498" transform="translate(175 1656)">
          <g id="Grupo_1207936" data-name="Grupo 1207936" transform="translate(0 0)">
            <g id="Grupo_1201662" data-name="Grupo 1201662">
              <g id="Grupo_1173585" data-name="Grupo 1173585">
                <g id="Grupo_1173428" data-name="Grupo 1173428">
                  <g id="Grupo_1171958" data-name="Grupo 1171958">
                    <g id="Grupo_1167341" data-name="Grupo 1167341">
                      <g id="Grupo_1166792" data-name="Grupo 1166792">
                        <g transform="matrix(1, 0, 0, 1, -9, -6)" filter="url(#Trazado_904820)">
                          <g id="Trazado_904820-2" data-name="Trazado 904820" transform="translate(9 6)" fill="#effbfe">
                            <path d="M 44.99999618530273 88.49999237060547 C 39.12687301635742 88.49999237060547 33.43022155761719 87.35006713867188 28.06829643249512 85.08216857910156 C 22.88852119445801 82.89130401611328 18.23629570007324 79.75457763671875 14.24084663391113 75.75914001464844 C 10.24540901184082 71.76369476318359 7.108683586120605 67.11146545410156 4.917821407318115 61.93169403076172 C 2.649921178817749 56.56976699829102 1.499996185302734 50.87311553955078 1.499996185302734 44.99999237060547 C 1.499996185302734 39.12686920166016 2.649921178817749 33.43021774291992 4.917821407318115 28.06829261779785 C 7.108683586120605 22.88851737976074 10.24540901184082 18.23630523681641 14.24084663391113 14.24085521697998 C 18.23629570007324 10.24540519714355 22.88852119445801 7.108692169189453 28.06829643249512 4.917829990386963 C 33.43022155761719 2.649929761886597 39.12687301635742 1.500004887580872 44.99999618530273 1.500004887580872 C 50.87311935424805 1.500004887580872 56.56977081298828 2.649929761886597 61.93169784545898 4.917829990386963 C 67.11147308349609 7.108692169189453 71.76369476318359 10.24540519714355 75.75914764404297 14.24085521697998 C 79.75458526611328 18.23630523681641 82.89131164550781 22.88851737976074 85.08216857910156 28.06829261779785 C 87.35007476806641 33.43021774291992 88.5 39.12686920166016 88.5 44.99999237060547 C 88.5 50.87311553955078 87.35007476806641 56.56976699829102 85.08216857910156 61.93169403076172 C 82.89131164550781 67.11146545410156 79.75458526611328 71.76369476318359 75.75914764404297 75.75914001464844 C 71.76369476318359 79.75457763671875 67.11147308349609 82.89130401611328 61.93169784545898 85.08216857910156 C 56.56977081298828 87.35006713867188 50.87311935424805 88.49999237060547 44.99999618530273 88.49999237060547 Z" stroke="none"/>
                            <path d="M 44.99999618530273 2.999992370605469 C 39.32870864868164 2.999992370605469 33.82865142822266 4.11004638671875 28.65262603759766 6.299331665039062 C 23.65165710449219 8.414566040039062 19.15968322753906 11.44333648681641 15.301513671875 15.30150604248047 C 11.44333648681641 19.15967559814453 8.414566040039062 23.65164947509766 6.299339294433594 28.65262222290039 C 4.110054016113281 33.82864761352539 2.999992370605469 39.32870483398438 2.999992370605469 44.99999237060547 C 2.999992370605469 50.67127990722656 4.110054016113281 56.17132186889648 6.299339294433594 61.34736633300781 C 8.414566040039062 66.34833526611328 11.44333648681641 70.84029388427734 15.301513671875 74.69846343994141 C 19.15968322753906 78.55663299560547 23.65165710449219 81.58540344238281 28.65262603759766 83.70063781738281 C 33.82865142822266 85.88992309570312 39.32870864868164 86.99997711181641 44.99999618530273 86.99997711181641 C 50.67128372192383 86.99997711181641 56.17134094238281 85.88992309570312 61.34736633300781 83.70063781738281 C 66.34834289550781 81.58540344238281 70.84030914306641 78.55663299560547 74.69847869873047 74.69846343994141 C 78.55665588378906 70.84029388427734 81.58542633056641 66.34833526611328 83.70065307617188 61.34736633300781 C 85.88993835449219 56.17132186889648 87 50.67127990722656 87 44.99999237060547 C 87 39.32870483398438 85.88993835449219 33.82864761352539 83.70065307617188 28.65262222290039 C 81.58542633056641 23.65164947509766 78.55665588378906 19.15967559814453 74.69847869873047 15.30150604248047 C 70.84030914306641 11.44333648681641 66.34834289550781 8.414566040039062 61.34736633300781 6.299331665039062 C 56.17134094238281 4.11004638671875 50.67128372192383 2.999992370605469 44.99999618530273 2.999992370605469 M 44.99999618530273 -7.62939453125e-06 C 69.85281372070312 -7.62939453125e-06 90 20.14717864990234 90 44.99999237060547 C 90 69.85279083251953 69.85281372070312 89.99997711181641 44.99999618530273 89.99997711181641 C 20.14717864990234 89.99997711181641 -7.62939453125e-06 69.85279083251953 -7.62939453125e-06 44.99999237060547 C -7.62939453125e-06 20.14717864990234 20.14717864990234 -7.62939453125e-06 44.99999618530273 -7.62939453125e-06 Z" stroke="none" fill="#6ae2f6"/>
                          </g>
                        </g>
                      </g>
                    </g>
                  </g>
                </g>
              </g>
            </g>
          </g>
        </g>
      </g>
    </g>
    <g id="biology_10089720" transform="translate(186.187 803.212)">
      <g id="Grupo_1231574" data-name="Grupo 1231574" transform="translate(7.5 7.499)">
        <g id="Grupo_1231570" data-name="Grupo 1231570" transform="translate(3.828 0)">
          <path id="Trazado_1235575" data-name="Trazado 1235575" d="M341.523,109.959a2.189,2.189,0,0,0-1.437-2.488,10.894,10.894,0,0,0-14.322,9.928,10.894,10.894,0,0,0,15.759-7.439Z" transform="translate(-294.642 -95.988)" fill="#73da8c"/>
          <path id="Trazado_1235576" data-name="Trazado 1235576" d="M42.4,109.959a2.189,2.189,0,0,1,1.437-2.488A10.894,10.894,0,0,1,58.158,117.4,10.894,10.894,0,0,1,42.4,109.959Z" transform="translate(-42.358 -95.988)" fill="#73da8c"/>
          <path id="Trazado_1235577" data-name="Trazado 1235577" d="M199.274,7.815a2.2,2.2,0,0,0-2.272,0,11.6,11.6,0,0,0-6,9.815c0,4.459,2.872,8.349,7.138,10.432,4.266-2.083,7.138-5.974,7.138-10.432A11.6,11.6,0,0,0,199.274,7.815Z" transform="translate(-174.677 -7.499)" fill="#73da8c"/>
        </g>
        <g id="Grupo_1231571" data-name="Grupo 1231571" transform="translate(13.013 28.606)">
          <path id="Trazado_1235578" data-name="Trazado 1235578" d="M234.727,282.276a11.651,11.651,0,0,1-3.551-14.167A14.569,14.569,0,0,1,232.95,268a14.275,14.275,0,0,1,14.276,14.276Z" transform="translate(-218.674 -268)" fill="#eaaa83"/>
          <path id="Trazado_1235579" data-name="Trazado 1235579" d="M145.834,281.871l-3.782,1.287H126c0-.083,0-.167,0-.25a14.278,14.278,0,0,1,12.5-13.917C137.584,274.976,140.078,279.334,145.834,281.871Z" transform="translate(-126 -268.882)" fill="#e4996d"/>
        </g>
        <g id="Grupo_1231573" data-name="Grupo 1231573" transform="translate(0 38.674)">
          <g id="Grupo_1231572" data-name="Grupo 1231572" transform="translate(2.032)">
            <path id="Trazado_1235580" data-name="Trazado 1235580" d="M219.528,362.141v7.422H190.552c-4.107-1.837-4.974-4.562-2.565-8.153a42.253,42.253,0,0,1,5.82,2.174,1.116,1.116,0,0,0,.929,0,42.945,42.945,0,0,1,17.926-3.9,43.581,43.581,0,0,1,4.915.278A2.2,2.2,0,0,1,219.528,362.141Z" transform="translate(-169.014 -359.68)" fill="#fff8e6"/>
            <path id="Trazado_1235581" data-name="Trazado 1235581" d="M47.538,369.563H26v-7.422a2.2,2.2,0,0,1,1.951-2.183,43.322,43.322,0,0,1,17.021,1.453A13.033,13.033,0,0,0,47.538,369.563Z" transform="translate(-26 -359.68)" fill="#ffeab7"/>
          </g>
          <path id="Trazado_1235582" data-name="Trazado 1235582" d="M238.55,402.484v2.855a1.646,1.646,0,0,1-1.989,1.611,32.169,32.169,0,0,0-21.473,2.748c-6.2-.588-9.629-3.075-9.328-7.818a37.566,37.566,0,0,1,4.738,2.051,1.653,1.653,0,0,0,1.524,0,38.676,38.676,0,0,1,24.726-3.608A2.2,2.2,0,0,1,238.55,402.484Z" transform="translate(-183.973 -395.285)" fill="#99b2e9"/>
          <path id="Trazado_1235583" data-name="Trazado 1235583" d="M38.616,409.694q-.81.415-1.592.879a4.386,4.386,0,0,1-4.469,0,32.068,32.068,0,0,0-23.065-3.626A1.646,1.646,0,0,1,7.5,405.335V402.48a2.2,2.2,0,0,1,1.8-2.161,38.9,38.9,0,0,1,19.987,1.557C30.652,405.813,33.786,408.443,38.616,409.694Z" transform="translate(-7.5 -395.281)" fill="#85a4e4"/>
        </g>
      </g>
      <g id="Grupo_1231587" data-name="Grupo 1231587" transform="translate(7.5 7.499)">
        <g id="Grupo_1231576" data-name="Grupo 1231576" transform="translate(27.608 10.916)">
          <path id="Trazado_1235584" data-name="Trazado 1235584" d="M341.523,109.959a2.189,2.189,0,0,0-1.437-2.488,10.894,10.894,0,0,0-14.322,9.928,10.894,10.894,0,0,0,15.759-7.439Z" transform="translate(-318.423 -106.903)" fill="none" stroke="#000" stroke-linecap="round" stroke-linejoin="round" stroke-miterlimit="10" stroke-width="2"/>
          <g id="Grupo_1231575" data-name="Grupo 1231575" transform="translate(0 5.554)">
            <path id="Trazado_1235585" data-name="Trazado 1235585" d="M258.91,169.62a36.189,36.189,0,0,1,7.343-7.283,41.813,41.813,0,0,1,8.307-4.857" transform="translate(-258.91 -157.48)" fill="none" stroke="#000" stroke-linecap="round" stroke-linejoin="round" stroke-miterlimit="10" stroke-width="2"/>
          </g>
        </g>
        <g id="Grupo_1231578" data-name="Grupo 1231578" transform="translate(3.828 10.916)">
          <path id="Trazado_1235586" data-name="Trazado 1235586" d="M42.4,109.959a2.189,2.189,0,0,1,1.437-2.488A10.894,10.894,0,0,1,58.158,117.4,10.894,10.894,0,0,1,42.4,109.959Z" transform="translate(-42.358 -106.903)" fill="none" stroke="#000" stroke-linecap="round" stroke-linejoin="round" stroke-miterlimit="10" stroke-width="2"/>
          <g id="Grupo_1231577" data-name="Grupo 1231577" transform="translate(7.491 5.554)">
            <path id="Trazado_1235587" data-name="Trazado 1235587" d="M110.57,157.48a41.813,41.813,0,0,1,8.307,4.857,36.189,36.189,0,0,1,7.343,7.283" transform="translate(-110.57 -157.48)" fill="none" stroke="#000" stroke-linecap="round" stroke-linejoin="round" stroke-miterlimit="10" stroke-width="2"/>
          </g>
        </g>
        <line id="Línea_834" data-name="Línea 834" y1="9.205" transform="translate(27.289 19.402)" fill="none" stroke="#000" stroke-linecap="round" stroke-linejoin="round" stroke-miterlimit="10" stroke-width="2"/>
        <g id="Grupo_1231585" data-name="Grupo 1231585" transform="translate(20.151 0)">
          <path id="Trazado_1235588" data-name="Trazado 1235588" d="M203.059,24.079a13.619,13.619,0,0,1-4.921,3.984C193.872,25.98,191,22.089,191,17.631a11.6,11.6,0,0,1,6-9.815,2.205,2.205,0,0,1,2.273,0,11.6,11.6,0,0,1,6,9.815,10.258,10.258,0,0,1-.457,3.031" transform="translate(-191 -7.501)" fill="none" stroke="#000" stroke-linecap="round" stroke-linejoin="round" stroke-miterlimit="10" stroke-width="2"/>
          <g id="Grupo_1231584" data-name="Grupo 1231584" transform="translate(3.981 4.767)">
            <g id="Grupo_1231583" data-name="Grupo 1231583">
              <g id="Grupo_1231579" data-name="Grupo 1231579" transform="translate(0 7.951)">
                <path id="Trazado_1235589" data-name="Trazado 1235589" d="M230.412,126.677a7.515,7.515,0,0,0-3.156-3.355" transform="translate(-227.256 -123.322)" fill="none" stroke="#000" stroke-linecap="round" stroke-linejoin="round" stroke-miterlimit="10" stroke-width="2"/>
              </g>
              <g id="Grupo_1231580" data-name="Grupo 1231580" transform="translate(3.156 7.951)">
                <path id="Trazado_1235590" data-name="Trazado 1235590" d="M256,126.677a7.515,7.515,0,0,1,3.156-3.355" transform="translate(-256 -123.322)" fill="none" stroke="#000" stroke-linecap="round" stroke-linejoin="round" stroke-miterlimit="10" stroke-width="2"/>
              </g>
              <line id="Línea_835" data-name="Línea 835" y2="16.784" transform="translate(3.156)" fill="none" stroke="#000" stroke-linecap="round" stroke-linejoin="round" stroke-miterlimit="10" stroke-width="2"/>
              <g id="Grupo_1231581" data-name="Grupo 1231581" transform="translate(3.156 2.737)">
                <path id="Trazado_1235591" data-name="Trazado 1235591" d="M256,78.96a7.818,7.818,0,0,1,2.749-3.126" transform="translate(-256 -75.834)" fill="none" stroke="#000" stroke-linecap="round" stroke-linejoin="round" stroke-miterlimit="10" stroke-width="2"/>
              </g>
              <g id="Grupo_1231582" data-name="Grupo 1231582" transform="translate(0.408 2.737)">
                <path id="Trazado_1235592" data-name="Trazado 1235592" d="M233.72,78.96a7.818,7.818,0,0,0-2.749-3.126" transform="translate(-230.971 -75.834)" fill="none" stroke="#000" stroke-linecap="round" stroke-linejoin="round" stroke-miterlimit="10" stroke-width="2"/>
              </g>
            </g>
          </g>
        </g>
        <path id="Trazado_1235593" data-name="Trazado 1235593" d="M188.68,270.062a14.281,14.281,0,0,1,21.114,8.259" transform="translate(-168.784 -239.394)" fill="none" stroke="#000" stroke-linecap="round" stroke-linejoin="round" stroke-miterlimit="10" stroke-width="2"/>
        <path id="Trazado_1235594" data-name="Trazado 1235594" d="M131.05,314.623h0a14.226,14.226,0,0,1,3.338-5.842" transform="translate(-117.483 -275.696)" fill="none" stroke="#000" stroke-linecap="round" stroke-linejoin="round" stroke-miterlimit="10" stroke-width="2"/>
        <g id="Grupo_1231586" data-name="Grupo 1231586" transform="translate(20.431 34.905)">
          <line id="Línea_836" data-name="Línea 836" y2="1.318" fill="none" stroke="#000" stroke-linecap="round" stroke-linejoin="round" stroke-miterlimit="10" stroke-width="2"/>
          <line id="Línea_837" data-name="Línea 837" y2="1.318" transform="translate(13.715)" fill="none" stroke="#000" stroke-linecap="round" stroke-linejoin="round" stroke-miterlimit="10" stroke-width="2"/>
          <path id="Trazado_1235595" data-name="Trazado 1235595" d="M239.536,337a2.4,2.4,0,0,0,3.616,0" transform="translate(-234.486 -335.721)" fill="none" stroke="#000" stroke-linecap="round" stroke-linejoin="round" stroke-miterlimit="10" stroke-width="2"/>
        </g>
        <path id="Trazado_1235596" data-name="Trazado 1235596" d="M76.514,364.678v-2.537a2.2,2.2,0,0,0-1.951-2.183,43.58,43.58,0,0,0-4.915-.278,42.945,42.945,0,0,0-17.926,3.9,1.116,1.116,0,0,1-.929,0,42.945,42.945,0,0,0-17.926-3.9,43.58,43.58,0,0,0-4.915.278A2.2,2.2,0,0,0,26,362.141v2.537" transform="translate(-23.968 -321.006)" fill="none" stroke="#000" stroke-linecap="round" stroke-linejoin="round" stroke-miterlimit="10" stroke-width="2"/>
        <path id="Trazado_1235597" data-name="Trazado 1235597" d="M50.63,399.76a39.244,39.244,0,0,1,9.646.561,2.2,2.2,0,0,1,1.8,2.161v2.855a1.646,1.646,0,0,1-1.989,1.611,32.068,32.068,0,0,0-23.065,3.626,4.387,4.387,0,0,1-4.469,0,32.068,32.068,0,0,0-23.065-3.626A1.646,1.646,0,0,1,7.5,405.337v-2.855a2.2,2.2,0,0,1,1.8-2.161,38.676,38.676,0,0,1,24.726,3.608,1.653,1.653,0,0,0,1.524,0,38.028,38.028,0,0,1,11.26-3.73" transform="translate(-7.5 -356.609)" fill="none" stroke="#000" stroke-linecap="round" stroke-linejoin="round" stroke-miterlimit="10" stroke-width="2"/>
      </g>
    </g>
  </g>
</svg>
