<svg xmlns="http://www.w3.org/2000/svg" xmlns:xlink="http://www.w3.org/1999/xlink" width="98" height="98" viewBox="0 0 98 98">
  <defs>
    <filter id="Trazado_982547" x="0" y="0" width="98" height="98" filterUnits="userSpaceOnUse">
      <feOffset dy="3" input="SourceAlpha"/>
      <feGaussianBlur stdDeviation="3" result="blur"/>
      <feFlood flood-opacity="0.161"/>
      <feComposite operator="in" in2="blur"/>
      <feComposite in="SourceGraphic"/>
    </filter>
    <clipPath id="clip-path">
      <path id="path8121" d="M0-682.665H48.414v48.414H0Z" transform="translate(0 682.665)"/>
    </clipPath>
  </defs>
  <g id="Grupo_1231282" data-name="Grupo 1231282" transform="translate(-195.151 -778)">
    <g id="Grupo_1230081" data-name="Grupo 1230081" transform="translate(0 -1514)">
      <g id="Grupo_1229590" data-name="Grupo 1229590" transform="translate(204.151 2298)">
        <g id="Grupo_1208936" data-name="Grupo 1208936" transform="translate(0)">
          <g id="Grupo_1208171" data-name="Grupo 1208171">
            <g id="Grupo_1207739" data-name="Grupo 1207739">
              <g id="Grupo_1207712" data-name="Grupo 1207712">
                <g id="Grupo_1207285" data-name="Grupo 1207285">
                  <g id="Grupo_1206883" data-name="Grupo 1206883">
                    <g id="Grupo_1204569" data-name="Grupo 1204569">
                      <g id="Grupo_1203962" data-name="Grupo 1203962">
                        <g id="Grupo_1203498" data-name="Grupo 1203498">
                          <g id="Grupo_1202589" data-name="Grupo 1202589">
                            <g id="Grupo_1172010" data-name="Grupo 1172010">
                              <g id="Grupo_1171046" data-name="Grupo 1171046">
                                <g id="Grupo_1148525" data-name="Grupo 1148525">
                                  <g transform="matrix(1, 0, 0, 1, -9, -6)" filter="url(#Trazado_982547)">
                                    <g id="Trazado_982547-2" data-name="Trazado 982547" transform="translate(9 6)" fill="#fdfbec">
                                      <path d="M 39.99999237060547 78.49998474121094 C 34.8018684387207 78.49998474121094 29.76002502441406 77.48226165771484 25.0145263671875 75.47508239746094 C 20.43014717102051 73.53604888916016 16.31264877319336 70.75984954833984 12.77639198303223 67.22359466552734 C 9.240137100219727 63.68733596801758 6.463936805725098 59.5698356628418 4.524903297424316 54.98546981811523 C 2.517725706100464 50.23995971679688 1.500003457069397 45.19811630249023 1.500003457069397 39.99999237060547 C 1.500003457069397 34.8018684387207 2.517725706100464 29.76002502441406 4.524903297424316 25.0145263671875 C 6.463936805725098 20.43014717102051 9.240137100219727 16.31264877319336 12.77639198303223 12.77639198303223 C 16.31264877319336 9.240137100219727 20.43014717102051 6.463936805725098 25.0145263671875 4.524903297424316 C 29.76002502441406 2.517725706100464 34.8018684387207 1.500003457069397 39.99999237060547 1.500003457069397 C 45.19811630249023 1.500003457069397 50.23995971679688 2.517725706100464 54.98546981811523 4.524903297424316 C 59.5698356628418 6.463936805725098 63.68733596801758 9.240137100219727 67.22359466552734 12.77639198303223 C 70.75984954833984 16.31264877319336 73.53604888916016 20.43014717102051 75.47508239746094 25.0145263671875 C 77.48226165771484 29.76002502441406 78.49998474121094 34.8018684387207 78.49998474121094 39.99999237060547 C 78.49998474121094 45.19812393188477 77.48226165771484 50.23995971679688 75.47508239746094 54.98546981811523 C 73.53604888916016 59.5698356628418 70.75984954833984 63.68733596801758 67.22359466552734 67.22359466552734 C 63.68733596801758 70.75984954833984 59.5698356628418 73.53604888916016 54.98546981811523 75.47508239746094 C 50.23995971679688 77.48226165771484 45.19812393188477 78.49998474121094 39.99999237060547 78.49998474121094 Z" stroke="none"/>
                                      <path d="M 39.99999237060547 2.999992370605469 C 35.00370025634766 2.999992370605469 30.1584587097168 3.97784423828125 25.59884643554688 5.906402587890625 C 21.19327163696289 7.769805908203125 17.23603057861328 10.43805694580078 13.83704376220703 13.83704376220703 C 10.43805694580078 17.23603057861328 7.769805908203125 21.19327163696289 5.906402587890625 25.59884643554688 C 3.97784423828125 30.1584587097168 2.999992370605469 35.00370025634766 2.999992370605469 39.99999237060547 C 2.999992370605469 44.99628448486328 3.97784423828125 49.84152603149414 5.906402587890625 54.40113830566406 C 7.769805908203125 58.80671310424805 10.43805694580078 62.76395416259766 13.83704376220703 66.16294097900391 C 17.23603057861328 69.56191253662109 21.19327163696289 72.23016357421875 25.59884643554688 74.09356689453125 C 30.1584587097168 76.02212524414062 35.00370025634766 76.99997711181641 39.99999237060547 76.99997711181641 C 44.99628448486328 76.99997711181641 49.84152603149414 76.02212524414062 54.40113830566406 74.09356689453125 C 58.80671310424805 72.23016357421875 62.76395416259766 69.56191253662109 66.16294097900391 66.16294097900391 C 69.56191253662109 62.76395416259766 72.23016357421875 58.80671310424805 74.09356689453125 54.40113830566406 C 76.02212524414062 49.84152603149414 76.99997711181641 44.99628448486328 76.99997711181641 39.99999237060547 C 76.99997711181641 35.00370025634766 76.02212524414062 30.1584587097168 74.09356689453125 25.59884643554688 C 72.23016357421875 21.19327163696289 69.56191253662109 17.23603057861328 66.16294097900391 13.83704376220703 C 62.76395416259766 10.43805694580078 58.80671310424805 7.769805908203125 54.40113830566406 5.906402587890625 C 49.84152603149414 3.97784423828125 44.99628448486328 2.999992370605469 39.99999237060547 2.999992370605469 M 39.99999237060547 -7.62939453125e-06 C 62.09137725830078 -7.62939453125e-06 79.99997711181641 17.90860748291016 79.99997711181641 39.99999237060547 C 79.99997711181641 62.09137725830078 62.09137725830078 79.99997711181641 39.99999237060547 79.99997711181641 C 17.90860748291016 79.99997711181641 -7.62939453125e-06 62.09137725830078 -7.62939453125e-06 39.99999237060547 C -7.62939453125e-06 17.90860748291016 17.90860748291016 -7.62939453125e-06 39.99999237060547 -7.62939453125e-06 Z" stroke="none" fill="#83793c"/>
                                    </g>
                                  </g>
                                </g>
                              </g>
                            </g>
                          </g>
                        </g>
                      </g>
                    </g>
                  </g>
                </g>
                <g id="g8115" transform="translate(15.793 15.793)">
                  <g id="g8117">
                    <g id="g8119" clip-path="url(#clip-path)">
                      <g id="g8125" transform="translate(-33.259 0.709)">
                        <path id="path8127" d="M-338.457-377.826h-25.835v-25.108c5.31-7.679,37.755-5.416,25.835,25.108" transform="translate(364.292 406.667)" fill="#fbdf63"/>
                      </g>
                      <g id="g8129" transform="translate(-33.259 0.709)">
                        <path id="path8131" d="M-338.457-377.826h-.619c6.164-24.728-15.887-30.6-25.216-24.374v-.734c5.31-7.679,37.755-5.416,25.835,25.108" transform="translate(364.292 406.667)" fill="#f9d11f"/>
                      </g>
                    </g>
                  </g>
                  <g id="g8265">
                    <g id="g8267" clip-path="url(#clip-path)">
                      <g id="g8273" transform="translate(-33.259 51.036)">
                        <path id="path8275" d="M-338.457-377.654h-25.835v-25.1c5.31-7.676,37.755-5.413,25.835,25.1" transform="translate(364.292 406.481)" fill="#003343"/>
                      </g>
                      <g id="g8277" transform="translate(-33.259 51.036)">
                        <path id="path8279" d="M-338.457-377.654h-.619c6.164-24.717-15.887-30.585-25.216-24.362v-.734c5.31-7.676,37.755-5.413,25.835,25.1" transform="translate(364.292 406.481)" fill="#002439"/>
                      </g>
                    </g>
                  </g>
                  <g id="g8281">
                    <g id="g8283" clip-path="url(#clip-path)">
                      <g id="g8289" transform="translate(17.066 51.014)">
                        <path id="path8291" d="M-338.457-377.826h-25.835v-25.108c5.31-7.679,37.755-5.416,25.835,25.108" transform="translate(364.292 406.667)" fill="#ff7e50"/>
                      </g>
                      <g id="g8293" transform="translate(17.066 51.014)">
                        <path id="path8295" d="M-338.457-377.826h-.619c6.164-24.728-15.887-30.6-25.216-24.374v-.734c5.31-7.679,37.755-5.416,25.835,25.108" transform="translate(364.292 406.667)" fill="#ff6247"/>
                      </g>
                      <g id="g8297" transform="translate(2.941 54.225)">
                        <path id="path8299" d="M-233.028-131.751v15.573h-14.6c-12.2-25.649,14.6-34.273,14.6-15.573" transform="translate(250.816 141.808)" fill="#ffa68a"/>
                      </g>
                      <g id="g8301" transform="translate(2.941 54.225)">
                        <path id="path8303" d="M-233.028-131.751c-.9-16.1-20.23-9.82-14.176,15.573h-.427c-12.2-25.649,14.6-34.273,14.6-15.573" transform="translate(250.816 141.808)" fill="#ff7e50"/>
                      </g>
                    </g>
                  </g>
                </g>
              </g>
            </g>
          </g>
        </g>
      </g>
    </g>
    <g id="innovacion" transform="translate(132.54 795.479)">
      <g id="Grupo_1231280" data-name="Grupo 1231280" transform="translate(94.34 0.835)">
        <path id="Trazado_1232256" data-name="Trazado 1232256" d="M135.544,24.769A17.27,17.27,0,1,0,110.7,40.292a5.211,5.211,0,0,1,2.946,4.673v.093H122.9v-.093a5.216,5.216,0,0,1,2.951-4.676,17.27,17.27,0,0,0,9.69-15.521Z" transform="translate(-101.005 -7.499)" fill="#ffea76"/>
        <path id="Trazado_1232257" data-name="Trazado 1232257" d="M215.387,7.5c-.507,0-1.008.031-1.5.077a17.273,17.273,0,0,1,5.929,32.713,5.317,5.317,0,0,0-1.624,1.226,3.946,3.946,0,0,1-2.931,1.343h-4.827a5.133,5.133,0,0,1,.452,2.107v.093h9.258v-.093a5.216,5.216,0,0,1,2.951-4.676,17.272,17.272,0,0,0-7.7-32.79Z" transform="translate(-198.242 -7.5)" fill="#ffe54c"/>
        <path id="Trazado_1232258" data-name="Trazado 1232258" d="M225.516,458.97h-1.689a2.291,2.291,0,0,1-2.239-1.805l-.849-3.913H228.6l-.849,3.913A2.291,2.291,0,0,1,225.516,458.97Z" transform="translate(-207.402 -403.6)" fill="#6c5e69"/>
        <g id="Grupo_1231279" data-name="Grupo 1231279" transform="translate(7.831 8.805)">
          <circle id="Elipse_11570" data-name="Elipse 11570" cx="6.452" cy="6.452" r="6.452" transform="translate(2.987 2.987)" fill="#a18f9b"/>
          <circle id="Elipse_11571" data-name="Elipse 11571" cx="3.056" cy="3.056" r="3.056" transform="translate(6.383 6.383)" fill="#90818b"/>
          <path id="Trazado_1232259" data-name="Trazado 1232259" d="M187.806,100.088l.326,1.287a.827.827,0,0,1-.217.787l-1,1a.827.827,0,0,1-.787.217l-1.287-.326a.826.826,0,0,0-.519.038l-1.1.454a.827.827,0,0,0-.394.341l-.679,1.14a.826.826,0,0,1-.71.4h-1.408a.826.826,0,0,1-.71-.4l-.679-1.14a.826.826,0,0,0-.394-.341l-1.1-.454a.827.827,0,0,0-.519-.038l-1.287.326a.827.827,0,0,1-.787-.217l-1-1a.826.826,0,0,1-.217-.787l.326-1.287a.827.827,0,0,0-.038-.519l-.454-1.1a.827.827,0,0,0-.34-.394l-1.14-.679a.827.827,0,0,1-.4-.71V95.281a.826.826,0,0,1,.4-.71l1.14-.679a.826.826,0,0,0,.34-.394l.454-1.1a.827.827,0,0,0,.038-.519l-.326-1.287a.827.827,0,0,1,.217-.787l1-1a.827.827,0,0,1,.787-.217l1.287.326a.827.827,0,0,0,.519-.038l1.1-.454a.827.827,0,0,0,.394-.341l.679-1.14a.827.827,0,0,1,.71-.4h1.408a.826.826,0,0,1,.71.4l.679,1.14a.826.826,0,0,0,.394.341l1.1.454a.827.827,0,0,0,.519.038l1.287-.326a.827.827,0,0,1,.787.217l1,1a.827.827,0,0,1,.217.787l-.326,1.287a.826.826,0,0,0,.038.519l.454,1.1a.827.827,0,0,0,.341.394l1.14.679a.827.827,0,0,1,.4.71v1.408a.826.826,0,0,1-.4.71l-1.14.679a.826.826,0,0,0-.341.394l-.454,1.1A.826.826,0,0,0,187.806,100.088Zm-3.656-7.51a4.819,4.819,0,1,0,0,6.815A4.819,4.819,0,0,0,184.151,92.578Z" transform="translate(-171.304 -86.546)" fill="#b09fab"/>
        </g>
        <path id="Trazado_1232260" data-name="Trazado 1232260" d="M203.29,349.052H193.163a2.184,2.184,0,0,1,0-4.368H203.29a2.184,2.184,0,0,1,0,4.368Z" transform="translate(-180.957 -307.125)" fill="#b09fab"/>
        <path id="Trazado_1232261" data-name="Trazado 1232261" d="M203.291,356.083H193.164a2.184,2.184,0,0,1-1.92-1.143,2.185,2.185,0,0,0,1.92,3.226h10.127a2.185,2.185,0,0,0,1.92-3.226A2.184,2.184,0,0,1,203.291,356.083Z" transform="translate(-180.958 -316.239)" fill="#a18f9b"/>
        <path id="Trazado_1232262" data-name="Trazado 1232262" d="M203.29,388.268H193.163a2.184,2.184,0,0,1,0-4.368H203.29a2.184,2.184,0,0,1,0,4.368Z" transform="translate(-180.957 -341.973)" fill="#b09fab"/>
        <path id="Trazado_1232263" data-name="Trazado 1232263" d="M203.291,395.3H193.164a2.184,2.184,0,0,1-1.92-1.143,2.185,2.185,0,0,0,1.92,3.226h10.127a2.185,2.185,0,0,0,1.92-3.226A2.184,2.184,0,0,1,203.291,395.3Z" transform="translate(-180.958 -351.086)" fill="#a18f9b"/>
        <path id="Trazado_1232264" data-name="Trazado 1232264" d="M203.29,427.483H193.163a2.184,2.184,0,0,1,0-4.368H203.29a2.184,2.184,0,0,1,0,4.368Z" transform="translate(-180.957 -376.82)" fill="#b09fab"/>
        <path id="Trazado_1232265" data-name="Trazado 1232265" d="M203.291,434.515H193.164a2.183,2.183,0,0,1-1.92-1.143,2.185,2.185,0,0,0,1.92,3.226h10.127a2.185,2.185,0,0,0,1.92-3.226A2.183,2.183,0,0,1,203.291,434.515Z" transform="translate(-180.958 -385.934)" fill="#a18f9b"/>
      </g>
      <g id="Grupo_1231281" data-name="Grupo 1231281" transform="translate(93.505)">
        <path id="Trazado_1232266" data-name="Trazado 1232266" d="M214.933,130.177a5.674,5.674,0,0,0,1.652-4.2.835.835,0,0,0-1.67.058,3.982,3.982,0,1,1-1.163-2.677c.049.049.1.1.159.169a.835.835,0,1,0,1.247-1.112c-.08-.09-.154-.168-.225-.239a5.655,5.655,0,1,0,0,8Z" transform="translate(-192.829 -107.099)"/>
        <path id="Trazado_1232267" data-name="Trazado 1232267" d="M124.367,5.257A17.981,17.981,0,0,0,111.611,0h-.132A18.17,18.17,0,0,0,93.887,14.4a.835.835,0,1,0,1.635.343A16.533,16.533,0,0,1,111.491,1.671h.12a16.436,16.436,0,0,1,7.212,31.2,6.027,6.027,0,0,0-3.374,4.684h-3v-8.21a1.671,1.671,0,0,0,1.3-.806l.675-1.137,1.091-.454,1.287.326a1.67,1.67,0,0,0,1.583-.436l1-1a1.67,1.67,0,0,0,.436-1.583l-.326-1.281.451-1.092,1.14-.679a1.669,1.669,0,0,0,.811-1.428V18.376a1.669,1.669,0,0,0-.811-1.428l-1.137-.675-.454-1.091.326-1.287a1.67,1.67,0,0,0-.436-1.583l-1-1a1.67,1.67,0,0,0-1.583-.436l-1.281.326-1.092-.451-.679-1.14a1.669,1.669,0,0,0-1.428-.811h-1.408a1.669,1.669,0,0,0-1.428.811l-.675,1.137-1.091.454-1.287-.326a1.67,1.67,0,0,0-1.583.436l-1,1a1.67,1.67,0,0,0-.436,1.583l.326,1.281-.451,1.092-1.14.679a1.669,1.669,0,0,0-.811,1.428v1.408a1.669,1.669,0,0,0,.811,1.428l1.137.675.454,1.091-.326,1.287a1.67,1.67,0,0,0,.436,1.583l1,1a1.67,1.67,0,0,0,1.583.436l1.281-.326,1.092.451.679,1.14a1.67,1.67,0,0,0,1.3.806v8.21h-3a6.018,6.018,0,0,0-3.369-4.681,16.53,16.53,0,0,1-9.226-14.921c0-.028,0-.056,0-.084l0-.072a.836.836,0,0,0-.82-.85h-.015a.836.836,0,0,0-.835.82v.059c0,.038,0,.076,0,.113a18.1,18.1,0,0,0,10.163,16.436,4.365,4.365,0,0,1,2.42,3.215,3.018,3.018,0,0,0-1.624,5.169,3.015,3.015,0,0,0,0,4.368,3.018,3.018,0,0,0,2.083,5.2h.677l.333,1.533a.835.835,0,0,0,1.633-.354l-.256-1.179h5.354l-.41,1.889a1.464,1.464,0,0,1-1.423,1.147h-1.689a1.454,1.454,0,0,1-.147-.008.835.835,0,1,0-.17,1.662,3.08,3.08,0,0,0,.317.017h1.689a3.144,3.144,0,0,0,3.056-2.464L116,52.334h.677a3.018,3.018,0,0,0,2.083-5.2,3.015,3.015,0,0,0,0-4.368,3.018,3.018,0,0,0-1.624-5.169,4.374,4.374,0,0,1,2.425-3.217,18.108,18.108,0,0,0,4.81-29.119ZM109.443,25.863l-1.1-.454a1.672,1.672,0,0,0-.637-.126,1.652,1.652,0,0,0-.406.05l-1.278.328-.993-.987.326-1.287a1.672,1.672,0,0,0-.076-1.044l-.454-1.1a1.674,1.674,0,0,0-.685-.792l-1.136-.672,0-1.4,1.14-.68a1.673,1.673,0,0,0,.685-.792l.454-1.1a1.673,1.673,0,0,0,.076-1.044l-.328-1.278.987-.993,1.287.326a1.674,1.674,0,0,0,1.044-.076l1.1-.454a1.674,1.674,0,0,0,.791-.685l.672-1.136,1.4,0,.68,1.14a1.673,1.673,0,0,0,.792.685l1.1.454a1.673,1.673,0,0,0,1.044.076L117.2,12.5l.993.987-.326,1.287a1.672,1.672,0,0,0,.076,1.044l.454,1.1a1.674,1.674,0,0,0,.685.792l1.136.677,0,1.395-1.14.68a1.673,1.673,0,0,0-.685.792l-.454,1.1a1.673,1.673,0,0,0-.076,1.044l.328,1.278-.987.993-1.287-.326a1.673,1.673,0,0,0-1.044.076l-1.1.454a1.673,1.673,0,0,0-.791.685l-.672,1.136-1.4,0-.68-1.14a1.673,1.673,0,0,0-.792-.685Zm8.579,23.452a1.35,1.35,0,0,1-1.349,1.349H106.547a1.349,1.349,0,0,1,0-2.7h10.127a1.35,1.35,0,0,1,1.349,1.349Zm0-4.368a1.35,1.35,0,0,1-1.349,1.349H106.547a1.349,1.349,0,0,1,0-2.7h10.127a1.35,1.35,0,0,1,1.349,1.349Zm0-4.368a1.35,1.35,0,0,1-1.349,1.349H106.547a1.349,1.349,0,0,1,0-2.7h10.127a1.35,1.35,0,0,1,1.349,1.349Z" transform="translate(-93.505)"/>
      </g>
    </g>
  </g>
</svg>
