<svg xmlns="http://www.w3.org/2000/svg" xmlns:xlink="http://www.w3.org/1999/xlink" width="98" height="98" viewBox="0 0 98 98">
  <defs>
    <filter id="Trazado_982547" x="0" y="0" width="98" height="98" filterUnits="userSpaceOnUse">
      <feOffset dy="3" input="SourceAlpha"/>
      <feGaussianBlur stdDeviation="3" result="blur"/>
      <feFlood flood-opacity="0.161"/>
      <feComposite operator="in" in2="blur"/>
      <feComposite in="SourceGraphic"/>
    </filter>
    <clipPath id="clip-path">
      <path id="path8121" d="M0-682.665H48.414v48.414H0Z" transform="translate(0 682.665)"/>
    </clipPath>
  </defs>
  <g id="Grupo_1231489" data-name="Grupo 1231489" transform="translate(-195.15 -1819.539)">
    <g id="Grupo_1230839" data-name="Grupo 1230839" transform="translate(0.75 -1345.461)">
      <g id="Grupo_1229882" data-name="Grupo 1229882" transform="translate(203.4 3171)">
        <g id="Grupo_1208936" data-name="Grupo 1208936" transform="translate(0)">
          <g id="Grupo_1208171" data-name="Grupo 1208171">
            <g id="Grupo_1207739" data-name="Grupo 1207739">
              <g id="Grupo_1207712" data-name="Grupo 1207712">
                <g id="Grupo_1207285" data-name="Grupo 1207285">
                  <g id="Grupo_1206883" data-name="Grupo 1206883">
                    <g id="Grupo_1204569" data-name="Grupo 1204569">
                      <g id="Grupo_1203962" data-name="Grupo 1203962">
                        <g id="Grupo_1203498" data-name="Grupo 1203498">
                          <g id="Grupo_1202589" data-name="Grupo 1202589">
                            <g id="Grupo_1172010" data-name="Grupo 1172010">
                              <g id="Grupo_1171046" data-name="Grupo 1171046">
                                <g id="Grupo_1148525" data-name="Grupo 1148525">
                                  <g transform="matrix(1, 0, 0, 1, -9, -6)" filter="url(#Trazado_982547)">
                                    <g id="Trazado_982547-2" data-name="Trazado 982547" transform="translate(9 6)" fill="#fdfbec">
                                      <path d="M 39.99999237060547 78.49998474121094 C 34.8018684387207 78.49998474121094 29.76002502441406 77.48226165771484 25.0145263671875 75.47508239746094 C 20.43014717102051 73.53604888916016 16.31264877319336 70.75984954833984 12.77639198303223 67.22359466552734 C 9.240137100219727 63.68733596801758 6.463936805725098 59.5698356628418 4.524903297424316 54.98546981811523 C 2.517725706100464 50.23995971679688 1.500003457069397 45.19811630249023 1.500003457069397 39.99999237060547 C 1.500003457069397 34.8018684387207 2.517725706100464 29.76002502441406 4.524903297424316 25.0145263671875 C 6.463936805725098 20.43014717102051 9.240137100219727 16.31264877319336 12.77639198303223 12.77639198303223 C 16.31264877319336 9.240137100219727 20.43014717102051 6.463936805725098 25.0145263671875 4.524903297424316 C 29.76002502441406 2.517725706100464 34.8018684387207 1.500003457069397 39.99999237060547 1.500003457069397 C 45.19811630249023 1.500003457069397 50.23995971679688 2.517725706100464 54.98546981811523 4.524903297424316 C 59.5698356628418 6.463936805725098 63.68733596801758 9.240137100219727 67.22359466552734 12.77639198303223 C 70.75984954833984 16.31264877319336 73.53604888916016 20.43014717102051 75.47508239746094 25.0145263671875 C 77.48226165771484 29.76002502441406 78.49998474121094 34.8018684387207 78.49998474121094 39.99999237060547 C 78.49998474121094 45.19812393188477 77.48226165771484 50.23995971679688 75.47508239746094 54.98546981811523 C 73.53604888916016 59.5698356628418 70.75984954833984 63.68733596801758 67.22359466552734 67.22359466552734 C 63.68733596801758 70.75984954833984 59.5698356628418 73.53604888916016 54.98546981811523 75.47508239746094 C 50.23995971679688 77.48226165771484 45.19812393188477 78.49998474121094 39.99999237060547 78.49998474121094 Z" stroke="none"/>
                                      <path d="M 39.99999237060547 2.999992370605469 C 35.00370025634766 2.999992370605469 30.1584587097168 3.97784423828125 25.59884643554688 5.906402587890625 C 21.19327163696289 7.769805908203125 17.23603057861328 10.43805694580078 13.83704376220703 13.83704376220703 C 10.43805694580078 17.23603057861328 7.769805908203125 21.19327163696289 5.906402587890625 25.59884643554688 C 3.97784423828125 30.1584587097168 2.999992370605469 35.00370025634766 2.999992370605469 39.99999237060547 C 2.999992370605469 44.99628448486328 3.97784423828125 49.84152603149414 5.906402587890625 54.40113830566406 C 7.769805908203125 58.80671310424805 10.43805694580078 62.76395416259766 13.83704376220703 66.16294097900391 C 17.23603057861328 69.56191253662109 21.19327163696289 72.23016357421875 25.59884643554688 74.09356689453125 C 30.1584587097168 76.02212524414062 35.00370025634766 76.99997711181641 39.99999237060547 76.99997711181641 C 44.99628448486328 76.99997711181641 49.84152603149414 76.02212524414062 54.40113830566406 74.09356689453125 C 58.80671310424805 72.23016357421875 62.76395416259766 69.56191253662109 66.16294097900391 66.16294097900391 C 69.56191253662109 62.76395416259766 72.23016357421875 58.80671310424805 74.09356689453125 54.40113830566406 C 76.02212524414062 49.84152603149414 76.99997711181641 44.99628448486328 76.99997711181641 39.99999237060547 C 76.99997711181641 35.00370025634766 76.02212524414062 30.1584587097168 74.09356689453125 25.59884643554688 C 72.23016357421875 21.19327163696289 69.56191253662109 17.23603057861328 66.16294097900391 13.83704376220703 C 62.76395416259766 10.43805694580078 58.80671310424805 7.769805908203125 54.40113830566406 5.906402587890625 C 49.84152603149414 3.97784423828125 44.99628448486328 2.999992370605469 39.99999237060547 2.999992370605469 M 39.99999237060547 -7.62939453125e-06 C 62.09137725830078 -7.62939453125e-06 79.99997711181641 17.90860748291016 79.99997711181641 39.99999237060547 C 79.99997711181641 62.09137725830078 62.09137725830078 79.99997711181641 39.99999237060547 79.99997711181641 C 17.90860748291016 79.99997711181641 -7.62939453125e-06 62.09137725830078 -7.62939453125e-06 39.99999237060547 C -7.62939453125e-06 17.90860748291016 17.90860748291016 -7.62939453125e-06 39.99999237060547 -7.62939453125e-06 Z" stroke="none" fill="#83793c"/>
                                    </g>
                                  </g>
                                </g>
                              </g>
                            </g>
                          </g>
                        </g>
                      </g>
                    </g>
                  </g>
                </g>
                <g id="g8115" transform="translate(15.793 15.793)">
                  <g id="g8117">
                    <g id="g8119" clip-path="url(#clip-path)">
                      <g id="g8125" transform="translate(-33.259 0.709)">
                        <path id="path8127" d="M-338.457-377.826h-25.835v-25.108c5.31-7.679,37.755-5.416,25.835,25.108" transform="translate(364.292 406.667)" fill="#fbdf63"/>
                      </g>
                      <g id="g8129" transform="translate(-33.259 0.709)">
                        <path id="path8131" d="M-338.457-377.826h-.619c6.164-24.728-15.887-30.6-25.216-24.374v-.734c5.31-7.679,37.755-5.416,25.835,25.108" transform="translate(364.292 406.667)" fill="#f9d11f"/>
                      </g>
                    </g>
                  </g>
                  <g id="g8265">
                    <g id="g8267" clip-path="url(#clip-path)">
                      <g id="g8273" transform="translate(-33.259 51.036)">
                        <path id="path8275" d="M-338.457-377.654h-25.835v-25.1c5.31-7.676,37.755-5.413,25.835,25.1" transform="translate(364.292 406.481)" fill="#003343"/>
                      </g>
                      <g id="g8277" transform="translate(-33.259 51.036)">
                        <path id="path8279" d="M-338.457-377.654h-.619c6.164-24.717-15.887-30.585-25.216-24.362v-.734c5.31-7.676,37.755-5.413,25.835,25.1" transform="translate(364.292 406.481)" fill="#002439"/>
                      </g>
                    </g>
                  </g>
                  <g id="g8281">
                    <g id="g8283" clip-path="url(#clip-path)">
                      <g id="g8289" transform="translate(17.066 51.014)">
                        <path id="path8291" d="M-338.457-377.826h-25.835v-25.108c5.31-7.679,37.755-5.416,25.835,25.108" transform="translate(364.292 406.667)" fill="#ff7e50"/>
                      </g>
                      <g id="g8293" transform="translate(17.066 51.014)">
                        <path id="path8295" d="M-338.457-377.826h-.619c6.164-24.728-15.887-30.6-25.216-24.374v-.734c5.31-7.679,37.755-5.416,25.835,25.108" transform="translate(364.292 406.667)" fill="#ff6247"/>
                      </g>
                      <g id="g8297" transform="translate(2.941 54.225)">
                        <path id="path8299" d="M-233.028-131.751v15.573h-14.6c-12.2-25.649,14.6-34.273,14.6-15.573" transform="translate(250.816 141.808)" fill="#ffa68a"/>
                      </g>
                      <g id="g8301" transform="translate(2.941 54.225)">
                        <path id="path8303" d="M-233.028-131.751c-.9-16.1-20.23-9.82-14.176,15.573h-.427c-12.2-25.649,14.6-34.273,14.6-15.573" transform="translate(250.816 141.808)" fill="#ff7e50"/>
                      </g>
                    </g>
                  </g>
                </g>
              </g>
            </g>
          </g>
        </g>
      </g>
    </g>
    <g id="international-literacy-day_2_" data-name="international-literacy-day (2)" transform="translate(217.398 1836.266)">
      <g id="Grupo_1231487" data-name="Grupo 1231487" transform="translate(1.045 1.048)">
        <path id="Trazado_1235290" data-name="Trazado 1235290" d="M36,384.153c7.593-2.552,16.143-5.135,22.99.148,6.848-5.283,15.4-2.7,22.99-.148v-4.924c-7.245-1.941-16.677-6.314-22.99,0-6.314-6.314-15.745-1.941-22.99,0Z" transform="translate(-33.285 -337.698)" fill="#e8eaf0" fill-rule="evenodd"/>
        <path id="Trazado_1235291" data-name="Trazado 1235291" d="M35.709,429.563c-6.848-5.283-15.4-2.7-22.99-.148-.921.31-1.829.619-2.717.913l1.081,4.047c7-1.875,17.158-6.526,23.143-.541h2.966c5.985-5.985,16.145-1.334,23.143.541l1.081-4.047c-.888-.295-1.8-.6-2.717-.913C51.106,426.863,42.557,424.28,35.709,429.563Z" transform="translate(-10.002 -382.96)" fill="#b278d3" fill-rule="evenodd"/>
        <path id="Trazado_1235292" data-name="Trazado 1235292" d="M274.034,28.583a17.243,17.243,0,0,0-16.412-18.408V10.2c.724,1.66-2.416,4.178.748,6.041,1.627.959,1.558,1.986-.033,2.413a1.613,1.613,0,0,0,.028,3.2c3.968,0,2.25,3.722,3.811,5.813.847,1.135,2.9,1.514,3.147-.088.408-2.624,1.523-1.578,2.733-2.082,1.761-.734,1.192,2.184,2.881,3.159a3.314,3.314,0,0,0,2.943-.034Z" transform="translate(-231.124 -10.157)" fill="#cbe558" fill-rule="evenodd"/>
        <path id="Trazado_1235293" data-name="Trazado 1235293" d="M110.154,21.7a1.613,1.613,0,0,1-.028-3.2c1.591-.426,1.66-1.454.033-2.413-3.163-1.863-.024-4.381-.748-6.041V10.02A17.243,17.243,0,0,0,91.422,26.014H91.7c1.949-.5,2.556.682,3.588-.769.551-.775,1.453-1.82,2.444-1.558a1.457,1.457,0,0,1,.94,1.9c-.25,1.229-.234,2.591.979,2.823,1.321.253,1.935-1.386,3.079-2.53a1.752,1.752,0,0,1,3.037,1.464c-.082,1.338-.782,2.141-2.137,3.308a7.983,7.983,0,0,0-2.556,3.071c-.809,2.061-2.73,5.021-4.119,5.823l-.205.205a17.243,17.243,0,0,0,29.079-11.317l-.155.041a3.313,3.313,0,0,1-2.943.034c-1.689-.975-1.12-3.893-2.881-3.159-1.209.5-2.325-.542-2.732,2.082-.249,1.6-2.3,1.223-3.147.088-1.561-2.091.157-5.813-3.811-5.813Z" transform="translate(-82.914 -10.002)" fill="#66e0f7" fill-rule="evenodd"/>
        <path id="Trazado_1235294" data-name="Trazado 1235294" d="M105.384,144.251a1.752,1.752,0,0,0-3.037-1.464c-1.144,1.144-1.758,2.783-3.079,2.53-1.213-.232-1.229-1.594-.979-2.823a1.457,1.457,0,0,0-.94-1.9c-.991-.262-1.893.783-2.444,1.558-1.032,1.452-1.639.274-3.588.769h-.274a17.2,17.2,0,0,0,5.007,13.423q.156.156.316.308l.205-.205c1.389-.8,3.31-3.762,4.119-5.823a7.983,7.983,0,0,1,2.556-3.071C104.6,146.392,105.3,145.589,105.384,144.251Z" transform="translate(-82.536 -126.914)" fill="#cbe558" fill-rule="evenodd"/>
      </g>
      <g id="Grupo_1231488" data-name="Grupo 1231488" transform="translate(-0.001 0.003)">
        <path id="Trazado_1235295" data-name="Trazado 1235295" d="M52.788,375.12c-.582-.193-1.172-.392-1.768-.594l-.233-.079v-4.174a1.045,1.045,0,0,0-.775-1.009c-1.094-.293-2.231-.64-3.434-1.008a44.629,44.629,0,0,0-10.485-2.3,12.77,12.77,0,0,0-9.342,2.889,12.768,12.768,0,0,0-9.342-2.889,44.634,44.634,0,0,0-10.485,2.3c-1.2.367-2.34.714-3.434,1.008a1.045,1.045,0,0,0-.775,1.009v4.174l-.237.08c-.595.2-1.183.4-1.763.592a1.045,1.045,0,0,0-.681,1.262l1.081,4.047a1.045,1.045,0,0,0,1.28.74c1.148-.308,2.359-.682,3.642-1.079a47.241,47.241,0,0,1,10.114-2.336c3.63-.256,6.371.6,8.378,2.6a1.045,1.045,0,0,0,.739.306h2.966a1.045,1.045,0,0,0,.739-.306c2.008-2.008,4.749-2.859,8.378-2.6a47.237,47.237,0,0,1,10.114,2.336c1.282.4,2.493.771,3.642,1.079a1.045,1.045,0,0,0,1.28-.74l1.081-4.047a1.045,1.045,0,0,0-.681-1.262Zm-6.82-4.864c.944.288,1.847.564,2.729.814v2.679a47.656,47.656,0,0,0-10.136-2.412A17.353,17.353,0,0,0,27.8,373.383V370.72h0C32.689,366.2,39.736,368.354,45.968,370.257Zm4.673,8.612c-.815-.236-1.669-.5-2.558-.775-6.608-2.044-14.8-4.579-20.27.481H25.69c-5.469-5.059-13.662-2.525-20.27-.481-.889.275-1.743.539-2.558.775l-.555-2.076.84-.283c2.114-.714,4.3-1.452,6.5-2.039a1.045,1.045,0,0,0-.539-2.019c-1.457.389-2.894.837-4.3,1.3v-2.68c.882-.25,1.786-.526,2.729-.814,6.232-1.9,13.279-4.054,18.171.463h0v2.661a15.807,15.807,0,0,0-6.944-2.1,1.045,1.045,0,0,0-.158,2.084,13.577,13.577,0,0,1,7.509,2.812,1.045,1.045,0,0,0,1.277,0c6.69-5.162,15.334-2.243,22.961.332l.845.285Z" transform="translate(0.001 -327.7)"/>
        <path id="Trazado_1235296" data-name="Trazado 1235296" d="M124.878,418.733h0a1.045,1.045,0,1,0,1.046,1.045A1.045,1.045,0,0,0,124.878,418.733Z" transform="translate(-110.892 -374.975)"/>
        <path id="Trazado_1235297" data-name="Trazado 1235297" d="M99.29,36.578A18.288,18.288,0,0,0,112.221,5.359,18.288,18.288,0,0,0,86.358,31.222,18.169,18.169,0,0,0,99.29,36.578Zm16.2-18.288q0,.209-.005.417a1.815,1.815,0,0,1-1.566-.063,2.665,2.665,0,0,1-.863-1.43,2.83,2.83,0,0,0-1.338-1.843,1.99,1.99,0,0,0-1.6.054,2,2,0,0,1-.669.1c-1.1.044-2.307.3-2.694,2.79-.025.158-.056.166-.1.176a1.4,1.4,0,0,1-1.18-.553,4.816,4.816,0,0,1-.633-2.171c-.228-1.617-.572-4.062-4.015-4.062-.142,0-.341-.219-.377-.492-.015-.117-.062-.472.62-.655,1.569-.42,1.915-1.311,1.983-1.8.088-.643-.134-1.6-1.69-2.519-1.19-.7-1.073-1.235-.561-2.675a8.007,8.007,0,0,0,.394-1.356,16.2,16.2,0,0,1,14.3,16.088ZM87.836,6.837A16.088,16.088,0,0,1,99.077,2.094c-.064.243-.162.518-.249.763-.475,1.333-1.269,3.564,1.469,5.176a2.954,2.954,0,0,1,.544.4,2.25,2.25,0,0,1-.317.108,2.677,2.677,0,0,0-2.151,2.946,2.564,2.564,0,0,0,2.449,2.309c1.558,0,1.7.507,1.946,2.263a6.5,6.5,0,0,0,1.028,3.13,3.445,3.445,0,0,0,3.359,1.331,2.208,2.208,0,0,0,1.658-1.884,2.165,2.165,0,0,1,.3-.985,2.336,2.336,0,0,1,.415-.038,3.9,3.9,0,0,0,1.343-.236c.074.157.16.391.224.563a4.374,4.374,0,0,0,1.78,2.518,3.591,3.591,0,0,0,1.823.493,4.009,4.009,0,0,0,.585-.044A16.2,16.2,0,0,1,89.022,30.82a17.839,17.839,0,0,0,3.688-5.675,6.446,6.446,0,0,1,2.027-2.459l.238-.2c1.3-1.12,2.385-2.2,2.5-4.036a2.883,2.883,0,0,0-1.621-2.916,2.851,2.851,0,0,0-3.2.648,11.642,11.642,0,0,0-1,1.191c-.6.782-.889,1.1-1.143,1.052-.114-.022-.135-.053-.149-.074a2.437,2.437,0,0,1,0-1.515,2.5,2.5,0,0,0-1.7-3.114c-1.211-.32-2.409.34-3.562,1.963-.195.274-.29.311-.291.312a2.168,2.168,0,0,1-.471-.036,6.557,6.557,0,0,0-1.07-.077,16.075,16.075,0,0,1,4.568-9.047ZM83.095,17.988a3.924,3.924,0,0,1,.967.045A2.475,2.475,0,0,0,86.8,16.9c.71-1,1.167-1.194,1.325-1.153.251.066.238.4.183.677a4.012,4.012,0,0,0,.315,3.095,2.258,2.258,0,0,0,1.492.962c1.564.3,2.468-.885,3.2-1.836a9.886,9.886,0,0,1,.819-.982.767.767,0,0,1,.861-.221.835.835,0,0,1,.394.882c-.054.871-.435,1.426-1.777,2.58l-.221.188a8.311,8.311,0,0,0-2.625,3.293,15.33,15.33,0,0,1-3.272,5.008,16.084,16.084,0,0,1-4.4-11.1q0-.152,0-.3Z" transform="translate(-72.537 -0.003)"/>
      </g>
    </g>
  </g>
</svg>
