<svg xmlns="http://www.w3.org/2000/svg" xmlns:xlink="http://www.w3.org/1999/xlink" width="98" height="98" viewBox="0 0 98 98">
  <defs>
    <filter id="Trazado_982547" x="0" y="0" width="98" height="98" filterUnits="userSpaceOnUse">
      <feOffset dy="3" input="SourceAlpha"/>
      <feGaussianBlur stdDeviation="3" result="blur"/>
      <feFlood flood-opacity="0.161"/>
      <feComposite operator="in" in2="blur"/>
      <feComposite in="SourceGraphic"/>
    </filter>
    <clipPath id="clip-path">
      <path id="path8121" d="M0-682.665H48.414v48.414H0Z" transform="translate(0 682.665)"/>
    </clipPath>
  </defs>
  <g id="Grupo_1231253" data-name="Grupo 1231253" transform="translate(-1036.016 -1250.105)">
    <g id="Grupo_1230061" data-name="Grupo 1230061" transform="translate(0 83.105)">
      <g id="Grupo_1230051" data-name="Grupo 1230051" transform="translate(840 2.058)">
        <g id="Grupo_1229405" data-name="Grupo 1229405" transform="translate(0.016 -5854.171)">
          <g id="Grupo_1208936" data-name="Grupo 1208936" transform="translate(5 5098.279)">
            <g id="Grupo_1208171" data-name="Grupo 1208171" transform="translate(0 -2047.18)">
              <g id="Grupo_1207739" data-name="Grupo 1207739" transform="translate(0 1882.462)">
                <g id="Grupo_1207712" data-name="Grupo 1207712">
                  <g id="Grupo_1207285" data-name="Grupo 1207285" transform="translate(0 344.552)">
                    <g id="Grupo_1206883" data-name="Grupo 1206883" transform="translate(0 -209)">
                      <g id="Grupo_1204569" data-name="Grupo 1204569" transform="translate(-81 -1890.336)">
                        <g id="Grupo_1203962" data-name="Grupo 1203962" transform="translate(281 3846.336)">
                          <g id="Grupo_1203498" data-name="Grupo 1203498" transform="translate(0)">
                            <g id="Grupo_1202589" data-name="Grupo 1202589">
                              <g id="Grupo_1172010" data-name="Grupo 1172010">
                                <g id="Grupo_1171046" data-name="Grupo 1171046">
                                  <g id="Grupo_1148525" data-name="Grupo 1148525">
                                    <g transform="matrix(1, 0, 0, 1, -9, -6)" filter="url(#Trazado_982547)">
                                      <g id="Trazado_982547-2" data-name="Trazado 982547" transform="translate(9 6)" fill="#fdfbec">
                                        <path d="M 39.99999237060547 78.49998474121094 C 34.8018684387207 78.49998474121094 29.76002502441406 77.48226165771484 25.0145263671875 75.47508239746094 C 20.43014717102051 73.53604888916016 16.31264877319336 70.75984954833984 12.77639198303223 67.22359466552734 C 9.240137100219727 63.68733596801758 6.463936805725098 59.5698356628418 4.524903297424316 54.98546981811523 C 2.517725706100464 50.23995971679688 1.500003457069397 45.19811630249023 1.500003457069397 39.99999237060547 C 1.500003457069397 34.8018684387207 2.517725706100464 29.76002502441406 4.524903297424316 25.0145263671875 C 6.463936805725098 20.43014717102051 9.240137100219727 16.31264877319336 12.77639198303223 12.77639198303223 C 16.31264877319336 9.240137100219727 20.43014717102051 6.463936805725098 25.0145263671875 4.524903297424316 C 29.76002502441406 2.517725706100464 34.8018684387207 1.500003457069397 39.99999237060547 1.500003457069397 C 45.19811630249023 1.500003457069397 50.23995971679688 2.517725706100464 54.98546981811523 4.524903297424316 C 59.5698356628418 6.463936805725098 63.68733596801758 9.240137100219727 67.22359466552734 12.77639198303223 C 70.75984954833984 16.31264877319336 73.53604888916016 20.43014717102051 75.47508239746094 25.0145263671875 C 77.48226165771484 29.76002502441406 78.49998474121094 34.8018684387207 78.49998474121094 39.99999237060547 C 78.49998474121094 45.19812393188477 77.48226165771484 50.23995971679688 75.47508239746094 54.98546981811523 C 73.53604888916016 59.5698356628418 70.75984954833984 63.68733596801758 67.22359466552734 67.22359466552734 C 63.68733596801758 70.75984954833984 59.5698356628418 73.53604888916016 54.98546981811523 75.47508239746094 C 50.23995971679688 77.48226165771484 45.19812393188477 78.49998474121094 39.99999237060547 78.49998474121094 Z" stroke="none"/>
                                        <path d="M 39.99999237060547 2.999992370605469 C 35.00370025634766 2.999992370605469 30.1584587097168 3.97784423828125 25.59884643554688 5.906402587890625 C 21.19327163696289 7.769805908203125 17.23603057861328 10.43805694580078 13.83704376220703 13.83704376220703 C 10.43805694580078 17.23603057861328 7.769805908203125 21.19327163696289 5.906402587890625 25.59884643554688 C 3.97784423828125 30.1584587097168 2.999992370605469 35.00370025634766 2.999992370605469 39.99999237060547 C 2.999992370605469 44.99628448486328 3.97784423828125 49.84152603149414 5.906402587890625 54.40113830566406 C 7.769805908203125 58.80671310424805 10.43805694580078 62.76395416259766 13.83704376220703 66.16294097900391 C 17.23603057861328 69.56191253662109 21.19327163696289 72.23016357421875 25.59884643554688 74.09356689453125 C 30.1584587097168 76.02212524414062 35.00370025634766 76.99997711181641 39.99999237060547 76.99997711181641 C 44.99628448486328 76.99997711181641 49.84152603149414 76.02212524414062 54.40113830566406 74.09356689453125 C 58.80671310424805 72.23016357421875 62.76395416259766 69.56191253662109 66.16294097900391 66.16294097900391 C 69.56191253662109 62.76395416259766 72.23016357421875 58.80671310424805 74.09356689453125 54.40113830566406 C 76.02212524414062 49.84152603149414 76.99997711181641 44.99628448486328 76.99997711181641 39.99999237060547 C 76.99997711181641 35.00370025634766 76.02212524414062 30.1584587097168 74.09356689453125 25.59884643554688 C 72.23016357421875 21.19327163696289 69.56191253662109 17.23603057861328 66.16294097900391 13.83704376220703 C 62.76395416259766 10.43805694580078 58.80671310424805 7.769805908203125 54.40113830566406 5.906402587890625 C 49.84152603149414 3.97784423828125 44.99628448486328 2.999992370605469 39.99999237060547 2.999992370605469 M 39.99999237060547 -7.62939453125e-06 C 62.09137725830078 -7.62939453125e-06 79.99997711181641 17.90860748291016 79.99997711181641 39.99999237060547 C 79.99997711181641 62.09137725830078 62.09137725830078 79.99997711181641 39.99999237060547 79.99997711181641 C 17.90860748291016 79.99997711181641 -7.62939453125e-06 62.09137725830078 -7.62939453125e-06 39.99999237060547 C -7.62939453125e-06 17.90860748291016 17.90860748291016 -7.62939453125e-06 39.99999237060547 -7.62939453125e-06 Z" stroke="none" fill="#83793c"/>
                                      </g>
                                    </g>
                                  </g>
                                </g>
                              </g>
                            </g>
                          </g>
                        </g>
                      </g>
                    </g>
                  </g>
                  <g id="g8115" transform="translate(215.793 2790.01)">
                    <g id="g8117" transform="translate(0 -682.665)">
                      <g id="g8119" clip-path="url(#clip-path)">
                        <g id="g8125" transform="translate(-33.259 0.709)">
                          <path id="path8127" d="M-338.457-377.826h-25.835v-25.108c5.31-7.679,37.755-5.416,25.835,25.108" transform="translate(364.292 406.667)" fill="#fbdf63"/>
                        </g>
                        <g id="g8129" transform="translate(-33.259 0.709)">
                          <path id="path8131" d="M-338.457-377.826h-.619c6.164-24.728-15.887-30.6-25.216-24.374v-.734c5.31-7.679,37.755-5.416,25.835,25.108" transform="translate(364.292 406.667)" fill="#f9d11f"/>
                        </g>
                      </g>
                    </g>
                    <g id="g8265" transform="translate(0 -682.665)">
                      <g id="g8267" clip-path="url(#clip-path)">
                        <g id="g8273" transform="translate(-33.259 51.036)">
                          <path id="path8275" d="M-338.457-377.654h-25.835v-25.1c5.31-7.676,37.755-5.413,25.835,25.1" transform="translate(364.292 406.481)" fill="#003343"/>
                        </g>
                        <g id="g8277" transform="translate(-33.259 51.036)">
                          <path id="path8279" d="M-338.457-377.654h-.619c6.164-24.717-15.887-30.585-25.216-24.362v-.734c5.31-7.676,37.755-5.413,25.835,25.1" transform="translate(364.292 406.481)" fill="#002439"/>
                        </g>
                      </g>
                    </g>
                    <g id="g8281" transform="translate(0 -682.665)">
                      <g id="g8283" clip-path="url(#clip-path)">
                        <g id="g8289" transform="translate(17.066 51.014)">
                          <path id="path8291" d="M-338.457-377.826h-25.835v-25.108c5.31-7.679,37.755-5.416,25.835,25.108" transform="translate(364.292 406.667)" fill="#ff7e50"/>
                        </g>
                        <g id="g8293" transform="translate(17.066 51.014)">
                          <path id="path8295" d="M-338.457-377.826h-.619c6.164-24.728-15.887-30.6-25.216-24.374v-.734c5.31-7.679,37.755-5.416,25.835,25.108" transform="translate(364.292 406.667)" fill="#ff6247"/>
                        </g>
                        <g id="g8297" transform="translate(2.941 54.225)">
                          <path id="path8299" d="M-233.028-131.751v15.573h-14.6c-12.2-25.649,14.6-34.273,14.6-15.573" transform="translate(250.816 141.808)" fill="#ffa68a"/>
                        </g>
                        <g id="g8301" transform="translate(2.941 54.225)">
                          <path id="path8303" d="M-233.028-131.751c-.9-16.1-20.23-9.82-14.176,15.573h-.427c-12.2-25.649,14.6-34.273,14.6-15.573" transform="translate(250.816 141.808)" fill="#ff7e50"/>
                        </g>
                      </g>
                    </g>
                  </g>
                </g>
              </g>
            </g>
          </g>
        </g>
      </g>
    </g>
    <g id="international-literacy-day_12054773" transform="translate(1051.991 1263.081)">
      <rect id="Rectángulo_424061" data-name="Rectángulo 424061" width="5.615" height="8.78" transform="translate(43.508 13.744)" fill="#8aa8bd"/>
      <rect id="Rectángulo_424062" data-name="Rectángulo 424062" width="41.58" height="29.945" transform="translate(12.234 26.104)" fill="#ffda8f"/>
      <path id="Trazado_1232187" data-name="Trazado 1232187" d="M10,26.1,33.024,10,56.049,26.1Z" transform="translate(0 0)" fill="#ff7d97"/>
      <path id="Trazado_1232188" data-name="Trazado 1232188" d="M124.483,222.007H114v18.718h9.547a3.744,3.744,0,0,1,3.744,3.744V224.815A2.808,2.808,0,0,0,124.483,222.007Z" transform="translate(-94.266 -192.164)" fill="#fff"/>
      <path id="Trazado_1232189" data-name="Trazado 1232189" d="M258.808,222.007h10.483v18.718h-9.547A3.744,3.744,0,0,0,256,244.469V224.815A2.808,2.808,0,0,1,258.808,222.007Z" transform="translate(-222.976 -192.164)" fill="#fff"/>
      <path id="Trazado_1232190" data-name="Trazado 1232190" d="M77.748,276.976V262H74V280.72H91.039a3.743,3.743,0,0,0-3.743-3.743Z" transform="translate(-58.014 -228.415)" fill="#ff7d97"/>
      <path id="Trazado_1232191" data-name="Trazado 1232191" d="M269.291,276.976V262h3.743V280.72H256a3.743,3.743,0,0,1,3.743-3.743Z" transform="translate(-222.976 -228.415)" fill="#ff7d97"/>
      <path id="Trazado_1232192" data-name="Trazado 1232192" d="M368,53.495V50h5.615v7.394" transform="translate(-324.496 -36.256)" fill="none" stroke="#000" stroke-linecap="round" stroke-linejoin="round" stroke-miterlimit="10" stroke-width="1.5"/>
      <line id="Línea_625" data-name="Línea 625" transform="translate(33.06 26.104)" fill="none" stroke="#000" stroke-linecap="round" stroke-linejoin="round" stroke-miterlimit="10" stroke-width="1.5"/>
      <g id="XMLID_496_" transform="translate(19.734 29.843)">
        <path id="XMLID_498_" d="M127.291,242.9V224.814a2.808,2.808,0,0,0-2.808-2.808H114v3.743" transform="translate(-114 -222.006)" fill="none" stroke="#000" stroke-linecap="round" stroke-linejoin="round" stroke-miterlimit="10" stroke-width="1.5"/>
        <path id="XMLID_497_" d="M256,242.9V224.814a2.808,2.808,0,0,1,2.808-2.808h10.483v3.743" transform="translate(-242.709 -222.006)" fill="none" stroke="#000" stroke-linecap="round" stroke-linejoin="round" stroke-miterlimit="10" stroke-width="1.5"/>
      </g>
      <g id="Grupo_1231251" data-name="Grupo 1231251" transform="translate(23.502 34.304)">
        <line id="Línea_626" data-name="Línea 626" x2="5.401" transform="translate(0 0)" fill="none" stroke="#000" stroke-linecap="round" stroke-linejoin="round" stroke-miterlimit="10" stroke-width="1.5"/>
        <line id="Línea_627" data-name="Línea 627" x2="5.401" transform="translate(0 5.401)" fill="none" stroke="#000" stroke-linecap="round" stroke-linejoin="round" stroke-miterlimit="10" stroke-width="1.5"/>
        <line id="Línea_628" data-name="Línea 628" x2="5.401" transform="translate(0 9.451)" fill="none" stroke="#000" stroke-linecap="round" stroke-linejoin="round" stroke-miterlimit="10" stroke-width="1.5"/>
      </g>
      <g id="Grupo_1231252" data-name="Grupo 1231252" transform="translate(37.004 34.304)">
        <line id="Línea_629" data-name="Línea 629" x1="5.401" transform="translate(0 0)" fill="none" stroke="#000" stroke-linecap="round" stroke-linejoin="round" stroke-miterlimit="10" stroke-width="1.5"/>
        <line id="Línea_630" data-name="Línea 630" x1="5.401" transform="translate(0 5.401)" fill="none" stroke="#000" stroke-linecap="round" stroke-linejoin="round" stroke-miterlimit="10" stroke-width="1.5"/>
        <line id="Línea_631" data-name="Línea 631" x1="5.401" transform="translate(0 9.451)" fill="none" stroke="#000" stroke-linecap="round" stroke-linejoin="round" stroke-miterlimit="10" stroke-width="1.5"/>
      </g>
      <path id="Trazado_1232193" data-name="Trazado 1232193" d="M77.748,276.976V262H74V280.72H91.039a3.743,3.743,0,0,0-3.743-3.743Z" transform="translate(-58.014 -228.415)" fill="none" stroke="#000" stroke-linecap="round" stroke-linejoin="round" stroke-miterlimit="10" stroke-width="1.5"/>
      <path id="Trazado_1232194" data-name="Trazado 1232194" d="M269.291,276.976V262h3.743V280.72H256a3.743,3.743,0,0,1,3.743-3.743Z" transform="translate(-222.976 -228.415)" fill="none" stroke="#000" stroke-linecap="round" stroke-linejoin="round" stroke-miterlimit="10" stroke-width="1.5"/>
      <path id="Trazado_1232195" data-name="Trazado 1232195" d="M75.454,183.055v29.852H33.874V183.055" transform="translate(-21.639 -156.858)" fill="none" stroke="#000" stroke-linecap="round" stroke-linejoin="round" stroke-miterlimit="10" stroke-width="1.5"/>
      <path id="Trazado_1232196" data-name="Trazado 1232196" d="M28.848,26.1H10L33.024,10,56.049,26.1H37.272" transform="translate(0 0)" fill="none" stroke="#000" stroke-linecap="round" stroke-linejoin="round" stroke-miterlimit="10" stroke-width="1.5"/>
    </g>
  </g>
</svg>
