<svg xmlns="http://www.w3.org/2000/svg" xmlns:xlink="http://www.w3.org/1999/xlink" width="400" height="297" viewBox="0 0 400 297">
  <defs>
    <clipPath id="clip-path">
      <rect id="Rect치ngulo_424079" data-name="Rect치ngulo 424079" width="400" height="297" transform="translate(1020.098 2564)" fill="#fff" stroke="#707070" stroke-width="1"/>
    </clipPath>
  </defs>
  <g id="Grupo_1231463" data-name="Grupo 1231463" transform="translate(-1020.098 -2564)">
    <rect id="Rect치ngulo_424080" data-name="Rect치ngulo 424080" width="400" height="185" rx="15" transform="translate(1020.098 2655)" fill="#f3de50"/>
    <g id="Enmascarar_grupo_1098765" data-name="Enmascarar grupo 1098765" clip-path="url(#clip-path)">
      <g id="Grupo_1231462" data-name="Grupo 1231462" transform="translate(946.661 2213.88)">
        <g id="Grupo_1231447" data-name="Grupo 1231447" transform="translate(120.437 452.975)">
          <path id="Trazado_1235051" data-name="Trazado 1235051" d="M277.655,805.194c5.45-1.2,4.437,7.658,4.073,10.031a34.574,34.574,0,0,1,4.753,3.136c-.652-2.847-2.869-4.48-2.755-6.393.127-2.145,1.607-4.29,4-1.251,1.893,2.408.111,6.481-.712,8.07a31.425,31.425,0,0,1,5.144,5.32c-.3-3.4-2.655-5.588-2.3-7.748.387-2.363,2.254-4.528,4.516-.8,1.87,3.08-.845,7.584-1.844,9.055a18.76,18.76,0,0,1,1.531,2.449,61.227,61.227,0,0,1,2.528,5.675c-.2-3-1.843-5.3-1.281-7.212.674-2.3,2.775-4.167,4.531-.088,1.389,3.228-1.506,7.1-2.776,8.571a60.552,60.552,0,0,1,2.871,11.255c.725-2.721,0-7.085,1.44-9.351a2.412,2.412,0,0,1,2.87-1.3,2.252,2.252,0,0,1,1.463,1.461c1.459,4.109-3.982,8.581-5.673,9.849a61.106,61.106,0,0,1,.558,11.582c.386-1.4.959-3.526,1.214-4.641.4-1.757,1.75-3.945,3.22-4.507.061-.023.122-.044.181-.062a2.192,2.192,0,0,1,2.67,1.53c1.652,4.628-5.742,8.208-7.356,8.926,0,.023,0,.046,0,.069A50.346,50.346,0,0,1,297.8,872.6l-.7-.31a49.823,49.823,0,0,0,2.59-12.814c-6.5-3.234-6.921-8.36-5.459-9.7,1.511-1.385,4.352-1.089,4.5,2.559a24.735,24.735,0,0,0,1.051,5.735,60.079,60.079,0,0,0-.5-11.818c-9.627-.74-8.3-7.442-6.007-8.311,2.324-.879,3.49.566,4.138,3.509a12.739,12.739,0,0,0,1.784,4.217,59.726,59.726,0,0,0-2.78-11.06c-1.529,1.018-5.592,3.324-7.992.94-3-2.981-.889-4.836,1.223-5,1.942-.151,3.6,2.8,6.567,3.5a60.3,60.3,0,0,0-2.84-6.522,23.26,23.26,0,0,0-3.154-4.43c-1.431,1.23-5.211,4.042-7.865,2.047-3.334-2.5-1.433-4.632.661-5.1,1.868-.413,3.794,2.083,6.692,2.477a32.874,32.874,0,0,0-8.252-6.451c-1.493,1.264-5.177,3.928-7.779,1.973-3.334-2.5-1.433-4.632.661-5.1,1.894-.419,3.847,2.155,6.815,2.494l.039-.084c-.805-.811-2.519-2.526-3.379-3.3a5.653,5.653,0,0,1-1.783-4.757A2.9,2.9,0,0,1,277.655,805.194Z" transform="translate(-245.796 -805.083)" fill="#07085b"/>
          <path id="Trazado_1235052" data-name="Trazado 1235052" d="M193.356,960.722l-10.87-4.164c-1.3-8.262-1.921-15.258-1.921-15.258,13.39,1.631,23.4,6.58,30.875,13.07l.573,13.367,4.271-8.584c17.323,19.425,17.28,47.241,17.28,47.241s-36.589-17.847-43.3-24.523c-2.59-2.578-4.626-9.214-6.15-16.389C188.039,963.761,193.356,960.722,193.356,960.722Z" transform="translate(-170.213 -917.848)" fill="#06bfad"/>
          <path id="Trazado_1235053" data-name="Trazado 1235053" d="M180.565,941.3s41.409,38.271,53,65.093c0,0-36.589-17.847-43.3-24.523-2.59-2.578-4.626-9.214-6.15-16.389,3.923-1.72,9.24-4.759,9.24-4.759l-10.87-4.164C181.183,948.3,180.565,941.3,180.565,941.3Z" transform="translate(-170.213 -917.851)" fill="#02ccc0"/>
          <path id="Trazado_1235054" data-name="Trazado 1235054" d="M135.244,1007.189c3.348-2.7,5.686,3.76,6.248,5.522a26.6,26.6,0,0,1,4.353.533c-1.426-1.74-3.515-2.107-4.092-3.465-.648-1.523-.363-3.51,2.327-2.233,2.131,1.012,2.3,4.432,2.276,5.81a24.208,24.208,0,0,1,5.372,1.906c-1.369-2.24-3.747-2.944-4.243-4.555-.543-1.763,0-3.9,2.84-2.1,2.346,1.483,2.017,5.521,1.833,6.877a14.487,14.487,0,0,1,1.9,1.164,47.211,47.211,0,0,1,3.689,3.047c-1.163-2-3.087-3.021-3.356-4.536-.324-1.817.485-3.826,3.1-1.614,2.065,1.75,1.394,5.41,1.024,6.864a46.63,46.63,0,0,1,5.839,6.779c-.433-2.125-2.427-4.887-2.213-6.943a1.857,1.857,0,0,1,1.536-1.877,1.735,1.735,0,0,1,1.51.506c2.415,2.333.2,7.284-.536,8.738a47.033,47.033,0,0,1,4.356,7.8c-.215-1.1-.547-2.761-.754-3.617-.326-1.35-.145-3.321.676-4.212.034-.037.069-.072.1-.1a1.688,1.688,0,0,1,2.366.14c2.726,2.626-1.147,7.63-2.013,8.678l.02.049a38.761,38.761,0,0,1,2.856,10.431l-.592.027a38.4,38.4,0,0,0-2.606-9.726c-5.592,0-7.64-3.393-7.091-4.819.567-1.473,2.628-2.243,3.985.221a19.034,19.034,0,0,0,2.691,3.6,46.272,46.272,0,0,0-4.4-7.979c-6.894,2.79-8.278-2.286-6.992-3.673,1.3-1.4,2.6-.806,4.057,1a9.811,9.811,0,0,0,2.676,2.3,45.992,45.992,0,0,0-5.709-6.675c-.706,1.226-2.717,4.21-5.19,3.388-3.09-1.028-2.272-3.031-.871-3.868,1.287-.77,3.439.695,5.729.163a46.469,46.469,0,0,0-4.195-3.524,17.913,17.913,0,0,0-3.694-1.974c-.566,1.338-2.208,4.574-4.723,4.108-3.158-.585-2.576-2.7-1.291-3.741,1.147-.926,3.331.136,5.465-.586a25.3,25.3,0,0,0-7.9-1.62c-.6,1.384-2.224,4.484-4.689,4.028-3.158-.585-2.576-2.7-1.291-3.741,1.163-.938,3.392.168,5.555-.616l0-.071c-.834-.283-2.6-.879-3.461-1.115a4.355,4.355,0,0,1-2.861-2.669A2.227,2.227,0,0,1,135.244,1007.189Z" transform="translate(-132.149 -971.855)" fill="#feb546"/>
          <path id="Trazado_1235055" data-name="Trazado 1235055" d="M120.438,1130.141a53.367,53.367,0,0,1,22.179.113c1.034,3.023,2.348,6.614,2.348,6.614l2.233-5.4c25.052,7.81,39.489,31.724,39.489,31.724-17.535,3.823-30.611,1.891-40.294-2.528.105-2.134.306-5.3.306-5.3l-3.36,3.77a45.758,45.758,0,0,1-11.172-8.645c1.762-1.948,3.693-4.206,3.693-4.206l-6.406,1.092A49.539,49.539,0,0,1,120.438,1130.141Z" transform="translate(-120.438 -1073.259)" fill="#55769f"/>
          <path id="Trazado_1235056" data-name="Trazado 1235056" d="M146.393,1165.991c.105-2.134.306-5.3.306-5.3l-3.36,3.77a45.756,45.756,0,0,1-11.172-8.645c1.762-1.948,3.693-4.206,3.693-4.206l-6.406,1.092a49.536,49.536,0,0,1-9.017-17.234c29.918,7.09,66.249,33.052,66.249,33.052C169.151,1172.343,156.076,1170.411,146.393,1165.991Z" transform="translate(-120.437 -1078.585)" fill="#07085b"/>
        </g>
        <g id="Grupo_1231448" data-name="Grupo 1231448" transform="translate(382.779 482.426)">
          <path id="Trazado_1235057" data-name="Trazado 1235057" d="M1679.169,990.524l7.157-3.722c.248-5.791.123-10.657.123-10.657-9.091,2.176-13.223,4.019-17.862,9.075l-.816,7.709-3.088-4.457c-10.4,14.737-9.606,36.659-9.606,36.659s23.789-15.165,27.883-20.29c1.581-1.978,2.461-6.707,2.946-11.768C1683.069,992.2,1679.169,990.524,1679.169,990.524Z" transform="translate(-1653.19 -976.145)" fill="#06bfad"/>
          <path id="Trazado_1235058" data-name="Trazado 1235058" d="M1686.515,976.149s-25.5,29.607-31.372,48.986c0,0,23.789-15.165,27.883-20.29,1.581-1.979,2.461-6.708,2.946-11.768-2.836-.875-6.736-2.55-6.736-2.55l7.157-3.722C1686.639,981.015,1686.515,976.149,1686.515,976.149Z" transform="translate(-1653.256 -976.148)" fill="#02ccc0"/>
          <path id="Trazado_1235059" data-name="Trazado 1235059" d="M1687.2,1104.412a36.979,36.979,0,0,0-15.262,1.822c-.474,2.163-1.1,4.738-1.1,4.738l-1.962-3.542c-16.635,7.348-24.7,24.949-24.7,24.949,12.374,1.254,21.225-1.105,27.545-4.909-.24-1.461-.628-3.626-.628-3.626l2.61,2.332a31.714,31.714,0,0,0,7.013-6.831c-1.367-1.2-2.873-2.606-2.873-2.606l4.5.248A34.329,34.329,0,0,0,1687.2,1104.412Z" transform="translate(-1644.184 -1082.209)" fill="#ff5b7e"/>
          <path id="Trazado_1235060" data-name="Trazado 1235060" d="M1671.728,1128.162c-.24-1.461-.628-3.626-.628-3.626l2.61,2.332a31.71,31.71,0,0,0,7.013-6.831c-1.367-1.2-2.873-2.606-2.873-2.606l4.5.248a34.327,34.327,0,0,0,4.853-12.575c-20.042,7.234-43.016,27.967-43.016,27.967C1656.556,1134.326,1665.408,1131.967,1671.728,1128.162Z" transform="translate(-1644.183 -1082.901)" fill="#e03268"/>
        </g>
        <g id="Grupo_1231451" data-name="Grupo 1231451" transform="translate(176.487 423.603)">
          <path id="Trazado_1235061" data-name="Trazado 1235061" d="M1181.586,663.74,1075.9,640.333V805.962l105.686,22.308Z" transform="translate(-967.449 -639.326)" fill="#1c2072"/>
          <path id="Trazado_1235062" data-name="Trazado 1235062" d="M1692.515,935.239l-2.765.041V769.64l2.765-.041Z" transform="translate(-1475.613 -746.336)" fill="#07085b"/>
          <path id="Trazado_1235063" data-name="Trazado 1235063" d="M1075.9,635.926l1.212-.917,107.239,23.172-2.765,1.152Z" transform="translate(-967.449 -634.919)" fill="#4d5296"/>
          <path id="Trazado_1235064" data-name="Trazado 1235064" d="M462.051,663.74l105.686-23.407V805.962L462.051,828.27Z" transform="translate(-459.285 -639.326)" fill="#1c2072"/>
          <path id="Trazado_1235065" data-name="Trazado 1235065" d="M487.8,673.227l93.93-23.326s4.933,2.073,7.323,1.785L544.41,689s-30.932,4.008-31.719,2.674S487.8,673.227,487.8,673.227Z" transform="translate(-480.6 -647.247)" fill="#eaf5f9"/>
          <path id="Trazado_1235066" data-name="Trazado 1235066" d="M487.8,947.571l11.969,5.354V790.74L487.8,785.385Z" transform="translate(-480.6 -759.405)" fill="#daeef7"/>
          <g id="Grupo_1231449" data-name="Grupo 1231449" transform="translate(19.168 4.44)">
            <path id="Trazado_1235067" data-name="Trazado 1235067" d="M646.6,822.468,557.32,849.352v-162.2L646.6,660.271Z" transform="translate(-557.32 -660.271)" fill="#cae2ea"/>
            <path id="Trazado_1235068" data-name="Trazado 1235068" d="M680.673,758.059l-71.391,21.5V767.874l71.391-21.5Z" transform="translate(-600.336 -731.552)" fill="#cae2ea" opacity="0.5"/>
            <path id="Trazado_1235069" data-name="Trazado 1235069" d="M808.014,833.722l-44.907,13.522v-2.1l44.907-13.522Z" transform="translate(-727.677 -802.123)" fill="#cae2ea" opacity="0.5"/>
            <path id="Trazado_1235070" data-name="Trazado 1235070" d="M808.014,864.168,763.107,877.69v-2.1l44.907-13.522Z" transform="translate(-727.677 -827.327)" fill="#cae2ea" opacity="0.5"/>
            <path id="Trazado_1235071" data-name="Trazado 1235071" d="M808.014,894.614l-44.907,13.522v-2.1l44.907-13.522Z" transform="translate(-727.677 -852.531)" fill="#cae2ea" opacity="0.5"/>
            <path id="Trazado_1235072" data-name="Trazado 1235072" d="M808.014,925.059l-44.907,13.522v-2.1l44.907-13.522Z" transform="translate(-727.677 -877.735)" fill="#cae2ea" opacity="0.5"/>
            <path id="Trazado_1235073" data-name="Trazado 1235073" d="M808.014,955.5l-44.907,13.523v-2.1l44.907-13.522Z" transform="translate(-727.677 -902.939)" fill="#cae2ea" opacity="0.5"/>
            <path id="Trazado_1235074" data-name="Trazado 1235074" d="M808.014,985.951l-44.907,13.522v-2.1l44.907-13.523Z" transform="translate(-727.677 -928.143)" fill="#cae2ea" opacity="0.5"/>
            <path id="Trazado_1235075" data-name="Trazado 1235075" d="M808.014,1016.4l-44.907,13.522v-2.1l44.907-13.522Z" transform="translate(-727.677 -953.347)" fill="#cae2ea" opacity="0.5"/>
            <path id="Trazado_1235076" data-name="Trazado 1235076" d="M808.014,1046.845l-44.907,13.522v-2.1l44.907-13.522Z" transform="translate(-727.677 -978.555)" fill="#cae2ea" opacity="0.5"/>
            <path id="Trazado_1235077" data-name="Trazado 1235077" d="M808.014,1077.287l-44.907,13.522v-2.1l44.907-13.522Z" transform="translate(-727.677 -1003.754)" fill="#cae2ea" opacity="0.5"/>
            <path id="Trazado_1235078" data-name="Trazado 1235078" d="M808.014,1107.735l-44.907,13.522v-2.1l44.907-13.522Z" transform="translate(-727.677 -1028.961)" fill="#cae2ea" opacity="0.5"/>
            <path id="Trazado_1235079" data-name="Trazado 1235079" d="M680.673,1138.177l-71.391,21.5v-2.1l71.391-21.5Z" transform="translate(-600.336 -1054.16)" fill="#cae2ea" opacity="0.5"/>
            <path id="Trazado_1235080" data-name="Trazado 1235080" d="M644.978,1231.057l-35.7,10.749v-2.1l35.7-10.748Z" transform="translate(-600.336 -1131.049)" fill="#cae2ea" opacity="0.5"/>
            <path id="Trazado_1235081" data-name="Trazado 1235081" d="M644.978,1261.5l-35.7,10.748v-2.1l35.7-10.749Z" transform="translate(-600.336 -1156.249)" fill="#cae2ea" opacity="0.5"/>
            <path id="Trazado_1235082" data-name="Trazado 1235082" d="M644.978,1291.947l-35.7,10.749v-2.1l35.7-10.748Z" transform="translate(-600.336 -1181.456)" fill="#cae2ea" opacity="0.5"/>
            <path id="Trazado_1235083" data-name="Trazado 1235083" d="M644.978,1322.4l-35.7,10.749v-2.1l35.7-10.748Z" transform="translate(-600.336 -1206.664)" fill="#cae2ea" opacity="0.5"/>
            <path id="Trazado_1235084" data-name="Trazado 1235084" d="M644.978,1352.837l-35.7,10.748v-2.1l35.7-10.749Z" transform="translate(-600.336 -1231.863)" fill="#cae2ea" opacity="0.5"/>
            <path id="Trazado_1235085" data-name="Trazado 1235085" d="M644.978,1383.285l-35.7,10.75v-2.1l35.7-10.748Z" transform="translate(-600.336 -1257.07)" fill="#cae2ea" opacity="0.5"/>
            <path id="Trazado_1235086" data-name="Trazado 1235086" d="M644.978,1413.727l-35.7,10.748v-2.1l35.7-10.749Z" transform="translate(-600.336 -1282.269)" fill="#cae2ea" opacity="0.5"/>
            <path id="Trazado_1235087" data-name="Trazado 1235087" d="M644.978,1444.177l-35.7,10.749v-2.1l35.7-10.749Z" transform="translate(-600.336 -1307.477)" fill="#cae2ea" opacity="0.5"/>
            <path id="Trazado_1235088" data-name="Trazado 1235088" d="M644.978,1474.617l-35.7,10.749v-2.1l35.7-10.748Z" transform="translate(-600.336 -1332.676)" fill="#cae2ea" opacity="0.5"/>
            <path id="Trazado_1235089" data-name="Trazado 1235089" d="M680.673,1442.637l-71.391,21.5v-2.1l71.391-21.5Z" transform="translate(-600.336 -1306.202)" fill="#cae2ea" opacity="0.5"/>
            <path id="Trazado_1235090" data-name="Trazado 1235090" d="M680.673,1473.077l-71.391,21.5v-2.1l71.391-21.5Z" transform="translate(-600.336 -1331.401)" fill="#cae2ea" opacity="0.5"/>
            <path id="Trazado_1235091" data-name="Trazado 1235091" d="M680.673,1503.527l-71.391,21.5v-2.1l71.391-21.5Z" transform="translate(-600.336 -1356.609)" fill="#cae2ea" opacity="0.5"/>
            <path id="Trazado_1235092" data-name="Trazado 1235092" d="M609.282,971.69l23.531-7.086V915.33l-23.531,7.086Z" transform="translate(-600.336 -871.417)" fill="#cae2ea" opacity="0.5"/>
            <path id="Trazado_1235093" data-name="Trazado 1235093" d="M831.245,1220.552l33.176-9.991v-44.03l-33.176,9.989Z" transform="translate(-784.084 -1079.368)" fill="#cae2ea" opacity="0.5"/>
          </g>
          <path id="Trazado_1235094" data-name="Trazado 1235094" d="M1177.151,673.227l-93.93-23.326s-4.933,2.073-7.323,1.785L1120.54,689s30.932,4.008,31.719,2.674S1177.151,673.227,1177.151,673.227Z" transform="translate(-967.447 -647.247)" fill="#f3fcff"/>
          <path id="Trazado_1235095" data-name="Trazado 1235095" d="M1606.449,947.571l-11.969,5.354V790.74l11.969-5.355Z" transform="translate(-1396.745 -759.405)" fill="#b6d5e0"/>
          <path id="Trazado_1235096" data-name="Trazado 1235096" d="M1075.9,822.468l89.283,26.884v-162.2L1075.9,660.271Z" transform="translate(-967.449 -655.831)" fill="#daeef7"/>
          <g id="Grupo_1231450" data-name="Grupo 1231450" transform="translate(108.505 4.44)">
            <path id="Trazado_1235097" data-name="Trazado 1235097" d="M1076.21,822.468l89.283,26.884v-162.2l-89.283-26.884Z" transform="translate(-1076.21 -660.271)" fill="#dfeef2"/>
            <path id="Trazado_1235098" data-name="Trazado 1235098" d="M1128.17,758.059l71.391,21.5V767.874l-71.391-21.5Z" transform="translate(-1119.224 -731.552)" fill="#cae2ea" opacity="0.5"/>
            <path id="Trazado_1235099" data-name="Trazado 1235099" d="M1128.17,833.722l44.908,13.522v-2.1l-44.908-13.522Z" transform="translate(-1119.224 -802.123)" fill="#cae2ea" opacity="0.5"/>
            <path id="Trazado_1235100" data-name="Trazado 1235100" d="M1128.17,864.168l44.908,13.522v-2.1l-44.908-13.522Z" transform="translate(-1119.224 -827.327)" fill="#cae2ea" opacity="0.5"/>
            <path id="Trazado_1235101" data-name="Trazado 1235101" d="M1128.17,894.614l44.908,13.522v-2.1l-44.908-13.522Z" transform="translate(-1119.224 -852.531)" fill="#cae2ea" opacity="0.5"/>
            <path id="Trazado_1235102" data-name="Trazado 1235102" d="M1128.17,925.059l44.908,13.522v-2.1l-44.908-13.522Z" transform="translate(-1119.224 -877.735)" fill="#cae2ea" opacity="0.5"/>
            <path id="Trazado_1235103" data-name="Trazado 1235103" d="M1128.17,955.5l44.908,13.523v-2.1l-44.908-13.522Z" transform="translate(-1119.224 -902.939)" fill="#cae2ea" opacity="0.5"/>
            <path id="Trazado_1235104" data-name="Trazado 1235104" d="M1128.17,985.951l44.908,13.522v-2.1l-44.908-13.523Z" transform="translate(-1119.224 -928.143)" fill="#cae2ea" opacity="0.5"/>
            <path id="Trazado_1235105" data-name="Trazado 1235105" d="M1128.17,1016.4l44.908,13.522v-2.1L1128.17,1014.3Z" transform="translate(-1119.224 -953.347)" fill="#cae2ea" opacity="0.5"/>
            <path id="Trazado_1235106" data-name="Trazado 1235106" d="M1128.17,1046.845l44.908,13.522v-2.1l-44.908-13.522Z" transform="translate(-1119.224 -978.555)" fill="#cae2ea" opacity="0.5"/>
            <path id="Trazado_1235107" data-name="Trazado 1235107" d="M1128.17,1077.287l44.908,13.522v-2.1l-44.908-13.522Z" transform="translate(-1119.224 -1003.754)" fill="#cae2ea" opacity="0.5"/>
            <path id="Trazado_1235108" data-name="Trazado 1235108" d="M1128.17,1107.735l44.908,13.522v-2.1l-44.908-13.522Z" transform="translate(-1119.224 -1028.961)" fill="#cae2ea" opacity="0.5"/>
            <path id="Trazado_1235109" data-name="Trazado 1235109" d="M1128.17,1138.177l71.391,21.5v-2.1l-71.391-21.5Z" transform="translate(-1119.224 -1054.16)" fill="#cae2ea" opacity="0.5"/>
            <path id="Trazado_1235110" data-name="Trazado 1235110" d="M1335.5,1231.057l35.7,10.749v-2.1l-35.7-10.748Z" transform="translate(-1290.858 -1131.049)" fill="#cae2ea" opacity="0.5"/>
            <path id="Trazado_1235111" data-name="Trazado 1235111" d="M1335.5,1261.5l35.7,10.748v-2.1l-35.7-10.749Z" transform="translate(-1290.858 -1156.249)" fill="#cae2ea" opacity="0.5"/>
            <path id="Trazado_1235112" data-name="Trazado 1235112" d="M1335.5,1291.947l35.7,10.749v-2.1l-35.7-10.748Z" transform="translate(-1290.858 -1181.456)" fill="#cae2ea" opacity="0.5"/>
            <path id="Trazado_1235113" data-name="Trazado 1235113" d="M1335.5,1322.4l35.7,10.749v-2.1l-35.7-10.748Z" transform="translate(-1290.858 -1206.664)" fill="#cae2ea" opacity="0.5"/>
            <path id="Trazado_1235114" data-name="Trazado 1235114" d="M1335.5,1352.837l35.7,10.748v-2.1l-35.7-10.749Z" transform="translate(-1290.858 -1231.863)" fill="#cae2ea" opacity="0.5"/>
            <path id="Trazado_1235115" data-name="Trazado 1235115" d="M1335.5,1383.285l35.7,10.75v-2.1l-35.7-10.748Z" transform="translate(-1290.858 -1257.07)" fill="#cae2ea" opacity="0.5"/>
            <path id="Trazado_1235116" data-name="Trazado 1235116" d="M1335.5,1413.727l35.7,10.748v-2.1l-35.7-10.749Z" transform="translate(-1290.858 -1282.269)" fill="#cae2ea" opacity="0.5"/>
            <path id="Trazado_1235117" data-name="Trazado 1235117" d="M1335.5,1444.177l35.7,10.749v-2.1l-35.7-10.749Z" transform="translate(-1290.858 -1307.477)" fill="#cae2ea" opacity="0.5"/>
            <path id="Trazado_1235118" data-name="Trazado 1235118" d="M1335.5,1474.617l35.7,10.749v-2.1l-35.7-10.748Z" transform="translate(-1290.858 -1332.676)" fill="#cae2ea" opacity="0.5"/>
            <path id="Trazado_1235119" data-name="Trazado 1235119" d="M1128.17,1442.637l71.391,21.5v-2.1l-71.391-21.5Z" transform="translate(-1119.224 -1306.202)" fill="#cae2ea" opacity="0.5"/>
            <path id="Trazado_1235120" data-name="Trazado 1235120" d="M1128.17,1473.077l71.391,21.5v-2.1l-71.391-21.5Z" transform="translate(-1119.224 -1331.401)" fill="#cae2ea" opacity="0.5"/>
            <path id="Trazado_1235121" data-name="Trazado 1235121" d="M1128.17,1503.527l71.391,21.5v-2.1l-71.391-21.5Z" transform="translate(-1119.224 -1356.609)" fill="#cae2ea" opacity="0.5"/>
            <path id="Trazado_1235122" data-name="Trazado 1235122" d="M1429.682,971.69,1406.15,964.6V915.33l23.532,7.086Z" transform="translate(-1349.345 -871.417)" fill="#cae2ea" opacity="0.5"/>
            <path id="Trazado_1235123" data-name="Trazado 1235123" d="M1161.347,1220.552l-33.177-9.991v-44.03l33.177,9.989Z" transform="translate(-1119.224 -1079.368)" fill="#cae2ea" opacity="0.5"/>
          </g>
          <path id="Trazado_1235124" data-name="Trazado 1235124" d="M445.987,935.239l2.766.041V769.64l-2.766-.041Z" transform="translate(-445.987 -746.336)" fill="#07085b"/>
          <path id="Trazado_1235125" data-name="Trazado 1235125" d="M554.438,635.926l-1.212-.917L445.987,658.181l2.766,1.152Z" transform="translate(-445.987 -634.919)" fill="#4d5296"/>
          <path id="Trazado_1235126" data-name="Trazado 1235126" d="M1043.389,636.2a27.894,27.894,0,0,0-7.842-1.672,22.811,22.811,0,0,0-9.4,1.614,6.033,6.033,0,0,0,.922.745h0a11.209,11.209,0,0,0,4.641,1.749A15.019,15.019,0,0,0,1043.389,636.2Z" transform="translate(-926.263 -634.485)" fill="#07085b"/>
          <path id="Trazado_1235127" data-name="Trazado 1235127" d="M1106.37,654.406l91.635,24.506,1.388,161.564-3,2.372V679.634Z" transform="translate(-992.673 -650.976)" fill="#b6d5e0"/>
        </g>
        <g id="Grupo_1231456" data-name="Grupo 1231456" transform="translate(285.448 516.816)">
          <g id="Grupo_1231455" data-name="Grupo 1231455" transform="translate(0 0)">
            <g id="Grupo_1231452" data-name="Grupo 1231452" transform="translate(0.407 48.379)">
              <path id="Trazado_1235128" data-name="Trazado 1235128" d="M1152.444,1621.328l-71.216-24.966,56.4-31.117,72.844,26.044-54.761,29.775A4.043,4.043,0,0,1,1152.444,1621.328Z" transform="translate(-1081.228 -1546.59)" fill="#e03268"/>
              <path id="Trazado_1235129" data-name="Trazado 1235129" d="M1105.341,1588.95s10.713,12.389-1.676,25.944l67.1,25.214a4.584,4.584,0,0,0,4.8-1l2.433-2.355s8.454-23.174,8.454-23.757-16.907-14.283-16.907-14.283-27.838-3.352-28.567-3.352S1105.341,1588.95,1105.341,1588.95Z" transform="translate(-1099.802 -1566.213)" fill="#daeef7"/>
              <path id="Trazado_1235130" data-name="Trazado 1235130" d="M1297.427,1763.581c-.437,0-49.846-16.324-49.846-16.324s49.263,17.909,49.409,17.472S1297.427,1763.581,1297.427,1763.581Z" transform="translate(-1218.94 -1697.265)" fill="#daeef7"/>
              <path id="Trazado_1235131" data-name="Trazado 1235131" d="M1091.39,1585.14v1.53l70.834,24.267a20.55,20.55,0,0,1,3.935,12.9c-.437,7.433-2.047,13.306-4.378,13.387a4.607,4.607,0,0,0,2.215-.339,29.256,29.256,0,0,0,2.473-2.009s2.933-13.227,3.079-13.555-1.531-11.114-2.66-11.915-.182-2.077-5.538-3.061-47.55-19.931-48.571-19.676-9.765-.146-10.239,0S1091.39,1585.14,1091.39,1585.14Z" transform="translate(-1089.64 -1563.06)" fill="#e03268"/>
              <path id="Trazado_1235132" data-name="Trazado 1235132" d="M1509.16,1593.815s9.018,15.306,0,27.585l60.048-32.541s7.069-14.5-2.04-23.611Z" transform="translate(-1435.483 -1546.592)" fill="#e03268"/>
              <path id="Trazado_1235133" data-name="Trazado 1235133" d="M1163.317,1504.113l-71.927-25.142,64.932-22.081,65,18.656Z" transform="translate(-1089.64 -1456.89)" fill="#ff5b7e"/>
              <path id="Trazado_1235134" data-name="Trazado 1235134" d="M1190.6,1672.382l-52.343-18.212q.027.575.016,1.17Z" transform="translate(-1128.44 -1620.204)" fill="#daeef7"/>
              <path id="Trazado_1235135" data-name="Trazado 1235135" d="M1132.3,1685.72q-.217.8-.523,1.625l38.411,12.54Z" transform="translate(-1123.072 -1646.323)" fill="#daeef7"/>
            </g>
            <g id="Grupo_1231453" data-name="Grupo 1231453" transform="translate(0 23.083)">
              <path id="Trazado_1235136" data-name="Trazado 1235136" d="M1171.873,1452.054l72.652-21.573-54.615-26.889-74.342,22.505,53.048,25.729A4.556,4.556,0,0,0,1171.873,1452.054Z" transform="translate(-1109.249 -1387.472)" fill="#06bfad"/>
              <path id="Trazado_1235137" data-name="Trazado 1235137" d="M1444.8,1424.08s-11.425,10.705.184,22.417l-68.548,21.788a4.961,4.961,0,0,1-4.744-.862l-2.3-2.035s-7.12-20.025-7.087-20.528,17.729-12.342,17.729-12.342,28.031-2.9,28.759-2.9S1444.8,1424.08,1444.8,1424.08Z" transform="translate(-1313.51 -1404.432)" fill="#daeef7"/>
              <path id="Trazado_1235138" data-name="Trazado 1235138" d="M1403.19,1574.977c.437,0,50.785-14.106,50.785-14.106s-50.293,15.475-50.414,15.1S1403.19,1574.977,1403.19,1574.977Z" transform="translate(-1347.351 -1517.672)" fill="#daeef7"/>
              <path id="Trazado_1235139" data-name="Trazado 1235139" d="M1477.846,1420.79l-.088,1.323-72.23,20.969s-4.687,4.723-4.677,11.146,1.282,11.5,3.608,11.568a5.159,5.159,0,0,1-2.2-.293,26.223,26.223,0,0,1-2.357-1.735s-2.172-11.429-2.3-11.713,2.17-9.6,3.345-10.3.3-1.795,5.714-2.645,48.7-17.223,49.7-17,9.774-.126,10.239,0S1477.846,1420.79,1477.846,1420.79Z" transform="translate(-1342.725 -1401.708)" fill="#06bfad"/>
              <path id="Trazado_1235140" data-name="Trazado 1235140" d="M1140.611,1428.281s-9.9,13.226-1.587,23.836L1080.848,1424s-6.235-12.531,3.4-20.4Z" transform="translate(-1078.864 -1387.475)" fill="#06bfad"/>
              <path id="Trazado_1235141" data-name="Trazado 1235141" d="M1166.495,1350.766l73.373-21.724-63.661-19.081-66.077,16.122Z" transform="translate(-1104.747 -1309.96)" fill="#02ccc0"/>
              <path id="Trazado_1235142" data-name="Trazado 1235142" d="M1502.73,1496.172l53.39-15.737q-.06.5-.083,1.01Z" transform="translate(-1429.753 -1451.085)" fill="#daeef7"/>
              <path id="Trazado_1235143" data-name="Trazado 1235143" d="M1628.373,1507.69a13.67,13.67,0,0,0,.429,1.4l-39.133,10.836Z" transform="translate(-1501.724 -1473.647)" fill="#daeef7"/>
            </g>
            <path id="Trazado_1235144" data-name="Trazado 1235144" d="M1142.574,1428.47s-9.794,10.216-2.139,21.474l4.333,2.076s-5.572-13.466,2.707-21.4Z" transform="translate(-1127.414 -1384.984)" fill="#06bfad" opacity="0.3"/>
            <g id="Grupo_1231454" data-name="Grupo 1231454" transform="translate(18.17)">
              <path id="Trazado_1235145" data-name="Trazado 1235145" d="M1248.791,1310.755l-60.517-20.535,44.062-25.483,61.939,21.422-42.811,24.383A3.279,3.279,0,0,1,1248.791,1310.755Z" transform="translate(-1187.607 -1249.44)" fill="#f4a640"/>
              <path id="Trazado_1235146" data-name="Trazado 1235146" d="M1202.81,1283.95s9.759,10.171.592,21.281l57.146,20.736a3.6,3.6,0,0,0,3.876-.814l1.824-1.93s5.2-19,5.152-19.482-15-11.73-15-11.73-23.168-2.772-23.768-2.772S1202.81,1283.95,1202.81,1283.95Z" transform="translate(-1199.64 -1265.345)" fill="#daeef7"/>
              <path id="Trazado_1235147" data-name="Trazado 1235147" d="M1367.556,1427.338c-.36,0-42.27-13.429-42.27-13.429s41.91,14.729,42,14.371S1367.556,1427.338,1367.556,1427.338Z" transform="translate(-1301.03 -1372.929)" fill="#daeef7"/>
              <path id="Trazado_1235148" data-name="Trazado 1235148" d="M1184.4,1280.81l.116,1.255,60.149,19.962a18.461,18.461,0,0,1,4.22,10.584c.2,6.1-.674,10.914-2.586,10.979a3.671,3.671,0,0,0,1.8-.276,20.949,20.949,0,0,0,1.883-1.646s1.409-10.848,1.5-11.117-2.1-9.118-3.1-9.776-.308-1.7-4.792-2.515-40.655-16.387-41.475-16.178-8.049-.127-8.428-.008S1184.4,1280.81,1184.4,1280.81Z" transform="translate(-1184.4 -1262.746)" fill="#f4a640"/>
              <path id="Trazado_1235149" data-name="Trazado 1235149" d="M1539.38,1288.46s8.587,12.563,2.1,22.629l46.953-26.647s4.716-11.891-3.474-19.37Z" transform="translate(-1478.264 -1249.717)" fill="#f4a640"/>
              <path id="Trazado_1235150" data-name="Trazado 1235150" d="M1245.517,1214.633l-61.117-20.679,51.768-18.064,54.924,15.354Z" transform="translate(-1184.4 -1175.89)" fill="#feb546"/>
              <path id="Trazado_1235151" data-name="Trazado 1235151" d="M1272.7,1352.45l-44.469-14.98q.066.471.1.959Z" transform="translate(-1220.689 -1309.651)" fill="#daeef7"/>
              <path id="Trazado_1235152" data-name="Trazado 1235152" d="M1226.317,1363.34q-.118.658-.307,1.333l32.57,10.317Z" transform="translate(-1218.846 -1331.067)" fill="#daeef7"/>
            </g>
          </g>
          <path id="Trazado_1235153" data-name="Trazado 1235153" d="M1338.854,1290.882l-35.374-12.408,6.992-3.044,37.476,11.108Z" transform="translate(-1264.808 -1258.292)" fill="#f4a640"/>
          <path id="Trazado_1235154" data-name="Trazado 1235154" d="M1255.809,1377.66a8.979,8.979,0,0,0-1.984,8.691s1.109-2.588,2.218-3.327c0,0-.185,3.143,1.109,4.437,0,0,1.143-6.963,4.638-7.641Z" transform="translate(-1223.342 -1342.922)" fill="#ff5b7e"/>
          <path id="Trazado_1235155" data-name="Trazado 1235155" d="M1509.16,1606.273a9.378,9.378,0,0,1,2.058,5.954,11.1,11.1,0,0,0,1.54-2.977,4.675,4.675,0,0,1,1.972,2.053s1.382-3.524-.048-6.568Z" transform="translate(-1435.076 -1530.901)" fill="#feb546"/>
          <path id="Trazado_1235156" data-name="Trazado 1235156" d="M1294.7,1713.22s-3.787,5.081-2.493,13.215a11.879,11.879,0,0,1,4.252-5.176s1.294,5.361,2.034,7.209c0,0,2.955-10.786,6.469-11.678Z" transform="translate(-1255.25 -1620.709)" fill="#02ccc0"/>
        </g>
        <g id="Grupo_1231458" data-name="Grupo 1231458" transform="translate(203.102 379.745)">
          <path id="Trazado_1235157" data-name="Trazado 1235157" d="M766.074,494.149c4.66,1.328,21.058-2.447,26.434-3.751l.189-.091,1.9-1.327a29.084,29.084,0,0,1,3.345-2.176c.23.1.237.311-1.04,2.12a.182.182,0,0,0,.14.287c1.114.041,4.616.193,4.671.48.065.341-3.068.281-3.18.582s2.945.282,2.956.657-2.777.3-2.828.459,2.615.519,2.753.736-2.751.181-2.867.357,1.872.866,1.834,1.044.467.125-4.45-.144c0,0-1.23-.1-1.7-.167l-1.221.561c-9.905,5.743-28.638,6.275-28.638,6.275Z" transform="translate(-736.17 -468.369)" fill="#ffc0bb"/>
          <g id="Grupo_1231457" data-name="Grupo 1231457" transform="translate(0 0)">
            <path id="Trazado_1235158" data-name="Trazado 1235158" d="M655.667,401.964s-2.276,2.157-3.7.662c0,0-4.1.888-3.759-2.723a4.284,4.284,0,0,1-1.764-4.938,3.205,3.205,0,0,1,.235-4.918s-1.806-3.081,1.661-4.121c0,0,.448-5.276,5.376-3.865,0,0,3.715-4,6.914-1.486,0,0,3.343-1.1,4.738,2.74,0,0,3.545,1.189,2.249,5.544,0,0,3.444,3.8,1.162,7.651,0,0,1.208,5.152-4.588,4.491S655.667,401.964,655.667,401.964Z" transform="translate(-637.675 -379.745)" fill="#feb546"/>
            <path id="Trazado_1235159" data-name="Trazado 1235159" d="M734.449,531.273s-6.059,2.132-11.14.764a2.146,2.146,0,0,1-1.6-2.079c.011-1.026-1.848-5.287.263-5.866,4.527-1.241,11.214-.938,11.214-.938A11.483,11.483,0,0,1,734.449,531.273Z" transform="translate(-700.232 -498.437)" fill="#ff5b7e"/>
            <path id="Trazado_1235160" data-name="Trazado 1235160" d="M645.09,520.97s-5.045.9-6.806,2.923-6.265,24.45-5.186,28.461l21.313-3.053s2.3-17.918,1.834-23.086-6.1-4.954-6.1-4.954Z" transform="translate(-627.362 -496.655)" fill="#ff5b7e"/>
            <path id="Trazado_1235161" data-name="Trazado 1235161" d="M768.232,554.928c.08-2.714,0-4.585,0-4.585A21.255,21.255,0,0,1,768.232,554.928Z" transform="translate(-739.366 -520.971)" fill="#fff"/>
            <path id="Trazado_1235162" data-name="Trazado 1235162" d="M660.116,579.057a5.07,5.07,0,0,0,2.009.438,18.012,18.012,0,0,0,2.17-8.6A90.432,90.432,0,0,0,660.116,579.057Z" transform="translate(-649.865 -537.984)" fill="#fff"/>
            <path id="Trazado_1235163" data-name="Trazado 1235163" d="M840.608,809.059l-.9,3.11a.483.483,0,0,0,.332.6l7.3,2.084a.549.549,0,0,0,.564-.89l-3.674-4.192S842.618,810.9,840.608,809.059Z" transform="translate(-798.525 -735.144)" fill="#4188e4"/>
            <path id="Trazado_1235164" data-name="Trazado 1235164" d="M757.891,669.458s14.637-4.115,16.347-3.93c1.9.205,7.137,3.422,1.209,26.3,0,0-2.849.911-4.586-1.062l.119-13.032s-10.586,5.8-13.854,4.389S757.891,669.458,757.891,669.458Z" transform="translate(-729.115 -616.32)" fill="#282828"/>
            <path id="Trazado_1235165" data-name="Trazado 1235165" d="M698.615,808.591l-1.955,2.582a.484.484,0,0,0,.094.678l6.053,4.568a.549.549,0,0,0,.846-.629l-1.916-5.235S699.826,811.033,698.615,808.591Z" transform="translate(-680.036 -734.757)" fill="#4188e4"/>
            <path id="Trazado_1235166" data-name="Trazado 1235166" d="M636.977,680.155s-.285,15,14.913,9.339l-3.037,9.427s2.175,2.229,3.691,1.964c1.4-.245,15.839-17.833,7.445-24.06a7.213,7.213,0,0,0-4.187-1.376C652.006,675.386,642.134,675.684,636.977,680.155Z" transform="translate(-630.709 -624.532)" fill="#333"/>
            <path id="Trazado_1235167" data-name="Trazado 1235167" d="M703.25,509.844h0l-.133-4.932,4.889-.054.991,4.305S706.24,512.314,703.25,509.844Z" transform="translate(-685.462 -483.317)" fill="#ffc0bb"/>
            <path id="Trazado_1235168" data-name="Trazado 1235168" d="M708.667,507.734,708,504.857l-4.889.054.065,2.421A4.9,4.9,0,0,0,708.667,507.734Z" transform="translate(-685.461 -483.317)" fill="#f99893"/>
            <path id="Trazado_1235169" data-name="Trazado 1235169" d="M757.857,461.6a1.263,1.263,0,1,0,1.494-1.291A1.405,1.405,0,0,0,757.857,461.6Z" transform="translate(-730.751 -446.421)" fill="#f99893"/>
            <path id="Trazado_1235170" data-name="Trazado 1235170" d="M691.894,440.428a6.374,6.374,0,0,0,.266-1.154,12.123,12.123,0,0,0,.032-3.092c-.022-.2-.032-.4-.038-.6a6.588,6.588,0,1,0-13.036,1.562,1.428,1.428,0,0,0-1.276.165,1.978,1.978,0,0,0,2.265,3.13,1.265,1.265,0,0,0,.251-.242,6.161,6.161,0,0,0,7.161,4.27,5.932,5.932,0,0,0,3.589-2.449,2.854,2.854,0,0,0,.176-.25A5.693,5.693,0,0,0,691.894,440.428Z" transform="translate(-664.075 -420.706)" fill="#ffc0bb"/>
            <path id="Trazado_1235171" data-name="Trazado 1235171" d="M733.63,465.259c.112.359.212.713.326,1.054a2.436,2.436,0,0,0,.455.886l.038.031a.548.548,0,0,0,.047.038.9.9,0,0,1,.133.11.739.739,0,0,1,.186.306.775.775,0,0,1-.116.662,1.276,1.276,0,0,1-1.035.514,1.574,1.574,0,0,0,.78-.662.5.5,0,0,0,.031-.4.412.412,0,0,0-.109-.155.577.577,0,0,0-.081-.064l-.062-.047-.07-.056a1.46,1.46,0,0,1-.331-.531,3.048,3.048,0,0,1-.151-.559A3.921,3.921,0,0,1,733.63,465.259Z" transform="translate(-710.702 -450.536)" fill="#f99893"/>
            <path id="Trazado_1235172" data-name="Trazado 1235172" d="M716.8,469.269a.575.575,0,1,1-.687-.432A.575.575,0,0,1,716.8,469.269Z" transform="translate(-695.851 -453.486)" fill="#333"/>
            <path id="Trazado_1235173" data-name="Trazado 1235173" d="M745.2,464.772a.575.575,0,1,1-.687-.432A.574.574,0,0,1,745.2,464.772Z" transform="translate(-719.361 -449.764)" fill="#333"/>
            <path id="Trazado_1235174" data-name="Trazado 1235174" d="M710.019,461.44a5.956,5.956,0,0,0-.864.03,2.935,2.935,0,0,0-.775.2,2.711,2.711,0,0,0-.687.4c-.117.075-.208.181-.322.271s-.2.207-.325.307a2.409,2.409,0,0,1,.145-.436,1.969,1.969,0,0,1,.253-.393,1.863,1.863,0,0,1,.769-.566,1.949,1.949,0,0,1,.945-.131A1.769,1.769,0,0,1,710.019,461.44Z" transform="translate(-688.714 -447.096)" fill="#07085b"/>
            <path id="Trazado_1235175" data-name="Trazado 1235175" d="M738.947,456.925a1.773,1.773,0,0,1,.7-.6,1.948,1.948,0,0,1,.933-.2,1.856,1.856,0,0,1,.913.275,1.949,1.949,0,0,1,.369.286,2.389,2.389,0,0,1,.282.362c-.149-.053-.275-.125-.408-.18s-.259-.115-.394-.147a2.7,2.7,0,0,0-.781-.146,2.927,2.927,0,0,0-.8.077A5.993,5.993,0,0,0,738.947,456.925Z" transform="translate(-715.123 -442.981)" fill="#07085b"/>
            <path id="Trazado_1235176" data-name="Trazado 1235176" d="M612.581,577.974c-2.933,3.865-5.407,20.544-6.155,26.036l.016.209.541,2.254a29.188,29.188,0,0,1,.8,3.915c-.173.18-.375.108-1.591-1.743a.181.181,0,0,0-.318.026c-.444,1.024-1.863,4.238-2.149,4.185-.34-.063.858-2.965.619-3.18s-1.336,2.646-1.688,2.52.735-2.7.6-2.806-1.435,2.251-1.688,2.3.836-2.634.714-2.806-1.488,1.432-1.639,1.331-.287.39,1.756-4.1c0,0,.541-1.112.775-1.525l-.076-1.344c-1.724-11.337,4.614-29.012,4.614-29.012Z" transform="translate(-600.574 -540.749)" fill="#ffc0bb"/>
            <path id="Trazado_1235177" data-name="Trazado 1235177" d="M625.55,540.843s1.578-8.716,6.5-11.843c2.084-1.323,3.277-1.821,4.212-1.279.981.569-1.157,2.686-.729,5.076.849,4.732-2.2,10.675-2.2,10.675A22.005,22.005,0,0,1,625.55,540.843Z" transform="translate(-621.25 -502.065)" fill="#ff5b7e"/>
            <path id="Trazado_1235178" data-name="Trazado 1235178" d="M689.62,415.721l-.074,4.258,9.9-2.674a7.124,7.124,0,0,0,1.279.914c.164-.025,1.416-.6,1.362-.776s-3.629-4.665-3.629-4.665-3.282.837-3.575.925S689.62,415.721,689.62,415.721Z" transform="translate(-674.227 -407.091)" fill="#feb546"/>
            <path id="Trazado_1235179" data-name="Trazado 1235179" d="M685.474,441.12a14.04,14.04,0,0,1,12.76-2.1,9.7,9.7,0,0,0-.387-2.011s-5.238-3.388-12.609,1.981C685.238,438.99,684.846,439.543,685.474,441.12Z" transform="translate(-670.561 -426.277)" fill="#ff5b7e"/>
            <path id="Trazado_1235180" data-name="Trazado 1235180" d="M727.606,489.457a2.346,2.346,0,0,1-4.5.4Z" transform="translate(-702.013 -470.568)" fill="#fff"/>
          </g>
        </g>
        <g id="Grupo_1231459" data-name="Grupo 1231459" transform="translate(183.773 518.18)">
          <path id="Trazado_1235181" data-name="Trazado 1235181" d="M503.909,1781.31v3.364a.5.5,0,0,1-.5.5h-7.89a.57.57,0,0,1-.307-1.051l4.322-2.817A4.43,4.43,0,0,0,503.909,1781.31Z" transform="translate(-493.801 -1678.44)" fill="#07085b"/>
          <path id="Trazado_1235182" data-name="Trazado 1235182" d="M648.06,1781.31v3.364a.5.5,0,0,0,.5.5h7.89a.57.57,0,0,0,.307-1.051l-4.322-2.817A4.43,4.43,0,0,1,648.06,1781.31Z" transform="translate(-620.555 -1678.44)" fill="#07085b"/>
          <path id="Trazado_1235183" data-name="Trazado 1235183" d="M594.646,1280.508l-.023,5.5,5.352-.825-.893-6.184Z" transform="translate(-576.319 -1262.612)" fill="#ffc0bb"/>
          <path id="Trazado_1235184" data-name="Trazado 1235184" d="M636.287,1311.28a21.707,21.707,0,0,1,6.955,3.311c3.157,2.377,9.517,6.954,9.213,11.619s-5.337,11.956-5.337,11.956l-1.683-3.494s1.526-8.206,1.183-8.509-6.874-6.205-6.874-6.205Z" transform="translate(-610.809 -1289.334)" fill="#07085b"/>
          <path id="Trazado_1235185" data-name="Trazado 1235185" d="M542.107,1477.314c-.013-.613,1.585,1.195,1.555.705-.627-10.177-20.543-1.644-20.543-1.644l-4.861,3.562-6.36,47.139a11.683,11.683,0,0,0,6.066.37l11.9-40.6,1.495-.574A84.469,84.469,0,0,0,542.107,1477.314Z" transform="translate(-507.835 -1423.233)" fill="#55769f"/>
          <path id="Trazado_1235186" data-name="Trazado 1235186" d="M637.227,1488.59c-4.1,4.324-12.3,10.561-12.3,10.561h0l3.987,40.884s3.927.578,5.809-.439C634.72,1539.6,637.494,1500.724,637.227,1488.59Z" transform="translate(-601.403 -1436.117)" fill="#3c5e8c"/>
          <path id="Trazado_1235187" data-name="Trazado 1235187" d="M545.071,1485.323l-.783,6.732c2.073.8,7.125,1.657,10.932-6.657,1.2-2.622,1.509-4.509,1.288-5.864a54.04,54.04,0,0,0-6.575,2.228Z" transform="translate(-534.65 -1428.619)" fill="#3c5e8c"/>
          <path id="Trazado_1235188" data-name="Trazado 1235188" d="M573.975,1318.686c-.168,0-2.044-4.143-3.05-6.393a1.452,1.452,0,0,0-1.849-.764,9.217,9.217,0,0,1-5.737-.018s-9.039,31.558-5.308,34.037c9.777,6.5,21-.995,21-.995s1.44-5.9,1.44-6.129S574.2,1318.686,573.975,1318.686Z" transform="translate(-545.279 -1289.459)" fill="#ffcc68"/>
          <path id="Trazado_1235189" data-name="Trazado 1235189" d="M548.47,1311.9a21.115,21.115,0,0,1-1.89,2.51c-1.17-.212-4.4-3.081-4.951,6.425.307,2.908-2.462,26.431-2.462,26.431,7.512,3.52,9.629,1.465,9.629,1.465C550.329,1341.613,548.47,1311.9,548.47,1311.9Z" transform="translate(-530.41 -1289.847)" fill="#07085b"/>
          <path id="Trazado_1235190" data-name="Trazado 1235190" d="M506.366,1311.9a33.146,33.146,0,0,0-8.421,2.3c-3.559,1.684-9.884,5.068-9.631,9.783s9.327,14.693,9.327,14.693l1.37-1.372,1.216-1.854-6.242-11.007,8-3.344Z" transform="translate(-488.306 -1289.847)" fill="#07085b"/>
          <path id="Trazado_1235191" data-name="Trazado 1235191" d="M628.837,1311.387c2.288,2.5,6.849,10.282,10.479,33.96a21.069,21.069,0,0,1-8.635,2.695s-1.195-31.324-4.587-37.133h0A2.283,2.283,0,0,1,628.837,1311.387Z" transform="translate(-602.371 -1288.811)" fill="#07085b"/>
          <path id="Trazado_1235192" data-name="Trazado 1235192" d="M673.337,1440.549a6.452,6.452,0,0,1,2.28,3.526c.016.063.031.126.046.189.241,1.019-.283,1.221-.546,1.261a.2.2,0,0,1-.2-.109c-.073-.141-.171-.32-.317-.556-.849-1.374-1.835.873-2.13.32-.372-.7,1.262-1.3,1.045-1.656-.408-.665-1.348.869-1.662.452-.344-.456,1.516-.892,1.059-1.662-.245-.413-1.48.9-1.628.345-.156-.583,1.4-.823,1.13-1.3-.4-.7-1.269.869-1.614.375C670.593,1441.444,672.478,1439.97,673.337,1440.549Z" transform="translate(-639.367 -1396.236)" fill="#ffc0bb"/>
          <path id="Trazado_1235193" data-name="Trazado 1235193" d="M599.567,1281.849l-.411-2.848-4.442,2.03,0,1.086A8.1,8.1,0,0,0,599.567,1281.849Z" transform="translate(-576.392 -1262.613)" fill="#fc8d84" opacity="0.6"/>
          <path id="Trazado_1235194" data-name="Trazado 1235194" d="M632.723,1220.408l.323,3.776-.6.375-1.1-4.6Z" transform="translate(-606.718 -1213.737)" fill="#07085b"/>
          <path id="Trazado_1235195" data-name="Trazado 1235195" d="M634.512,1235.831a1.294,1.294,0,1,0,1.538-1.311A1.446,1.446,0,0,0,634.512,1235.831Z" transform="translate(-609.31 -1225.775)" fill="#f99893"/>
          <path id="Trazado_1235196" data-name="Trazado 1235196" d="M566.863,1213.823a6.554,6.554,0,0,0,.281-1.181,12.445,12.445,0,0,0,.053-3.171c-.021-.206-.03-.413-.035-.62a6.745,6.745,0,1,0-13.36,1.482,1.459,1.459,0,0,0-1.308.157,2.032,2.032,0,0,0,2.3,3.231,1.284,1.284,0,0,0,.259-.246,6.326,6.326,0,0,0,7.3,4.445,6.054,6.054,0,0,0,3.691-2.479,2.962,2.962,0,0,0,.182-.254A5.818,5.818,0,0,0,566.863,1213.823Z" transform="translate(-540.961 -1199.097)" fill="#ffc0bb"/>
          <path id="Trazado_1235197" data-name="Trazado 1235197" d="M592.453,1243.294a.589.589,0,1,1-.7-.449A.588.588,0,0,1,592.453,1243.294Z" transform="translate(-573.558 -1232.67)" fill="#333"/>
          <path id="Trazado_1235198" data-name="Trazado 1235198" d="M621.565,1238.944a.589.589,0,1,1-.7-.449A.588.588,0,0,1,621.565,1238.944Z" transform="translate(-597.658 -1229.068)" fill="#333"/>
          <path id="Trazado_1235199" data-name="Trazado 1235199" d="M585.395,1235.727a5.539,5.539,0,0,0-.88-.094,2.9,2.9,0,0,0-.818.1,2.688,2.688,0,0,0-.752.326,8.339,8.339,0,0,0-.721.517,1.951,1.951,0,0,1,.516-.783,1.92,1.92,0,0,1,.848-.473,2,2,0,0,1,.969-.016A1.876,1.876,0,0,1,585.395,1235.727Z" transform="translate(-566.053 -1226.394)" fill="#f50"/>
          <path id="Trazado_1235200" data-name="Trazado 1235200" d="M614.244,1231.129a1.855,1.855,0,0,1,.657-.671,2.009,2.009,0,0,1,.924-.295,1.919,1.919,0,0,1,.955.176,1.964,1.964,0,0,1,.741.576,8.206,8.206,0,0,0-.849-.259,2.691,2.691,0,0,0-.817-.068,2.912,2.912,0,0,0-.806.17A5.588,5.588,0,0,0,614.244,1231.129Z" transform="translate(-592.561 -1222.18)" fill="#f50"/>
          <path id="Trazado_1235201" data-name="Trazado 1235201" d="M562.965,1186.453s1.986-.382-.46-1.579-8.444-1.895-11.58.787c0,0-1.054-1.351-2-.758s.987,1.25.987,1.25-1.324.255-1.579.989c-.189.543.621.382,1.056.261-.719.3-2.836,2.292-.087,7.742.486-.228,3.631-4.707,3.631-4.707s6.322,2.074,5.17.354c0,0,7.368,1.85,5.582-1.484C563.682,1189.308,566.4,1188.9,562.965,1186.453Z" transform="translate(-537.664 -1183.812)" fill="#f50"/>
          <path id="Trazado_1235202" data-name="Trazado 1235202" d="M559.45,1222.3c.1.368-1.642,4.3-2.426,4.612a9.893,9.893,0,0,0-1.205.094c-.195-1.119,1.7-4.246,1.7-4.246Z" transform="translate(-544.183 -1215.674)" fill="#f50"/>
          <path id="Trazado_1235203" data-name="Trazado 1235203" d="M608.83,1236.34a4.521,4.521,0,0,0,.069,1.266,3.5,3.5,0,0,0,.178.625,1.645,1.645,0,0,0,.377.591c.21.164.306.211.369.365a.569.569,0,0,1-.033.458,1.752,1.752,0,0,1-.876.749,1.434,1.434,0,0,0,1.149-.593.864.864,0,0,0,.12-.739,1.071,1.071,0,0,0-.458-.537,1.561,1.561,0,0,1-.3-.446,5.291,5.291,0,0,1-.224-.553C609.07,1237.141,608.956,1236.745,608.83,1236.34Z" transform="translate(-588.065 -1227.296)" fill="#f99893"/>
          <path id="Trazado_1235204" data-name="Trazado 1235204" d="M515.735,1374.664c-.688-1.184-1.378-2.366-2.083-3.54-.057-.1-.116-.192-.174-.288l.555-.2c.719-.266,1.432-.548,2.143-.833s1.418-.583,2.12-.891,1.4-.622,2.09-.964c-.733.233-1.455.492-2.173.76s-1.432.548-2.144.833-1.418.583-2.12.891-1.4.622-2.09.965c.478-.151.95-.315,1.421-.484.06.109.12.219.18.327.665,1.2,1.345,2.385,2.028,3.572s1.378,2.366,2.083,3.54,1.419,2.343,2.152,3.5q-.956-1.82-1.959-3.612C517.1,1377.04,516.418,1375.852,515.735,1374.664Z" transform="translate(-507.804 -1336.241)" fill="#07085b"/>
          <path id="Trazado_1235205" data-name="Trazado 1235205" d="M548.507,1450.041a.13.13,0,0,1,.066-.22c1.563-.33,1.665-.447,1.589-.61a17.072,17.072,0,0,0-2.686-.559l.013.009-.8,1.268s-1.255,1.41-1.286,1.442l0,0c.077.1.125.171.125.171,2.477,2.541,2.536,2.473,2.644,2.4s-.61-1.409-.462-1.445,1.664,1.394,1.7,1.211-1.206-1.672-1.1-1.731,1.547,1.341,1.725,1.138-1.454-1.685-1.247-1.789,1.84,1.457,1.972,1.245C550.862,1452.4,549.077,1450.608,548.507,1450.041Z" transform="translate(-535.57 -1403.055)" fill="#ffc0bb"/>
          <path id="Trazado_1235206" data-name="Trazado 1235206" d="M542.519,1451.929l.681-.782c.224-.263.451-.521.67-.788s.435-.533.644-.807c.1-.138.208-.274.3-.418s.191-.286.288-.431a5.675,5.675,0,0,1-.5.912,9.9,9.9,0,0,1-.624.834c-.223.266-.455.525-.7.771A9.955,9.955,0,0,1,542.519,1451.929Z" transform="translate(-533.185 -1403.097)" fill="#07085b"/>
          <path id="Trazado_1235207" data-name="Trazado 1235207" d="M604.994,1265.87a2.024,2.024,0,0,1-3.694.691Z" transform="translate(-581.846 -1251.742)" fill="#fff"/>
        </g>
        <g id="Grupo_1231461" data-name="Grupo 1231461" transform="translate(295.943 412.554)">
          <path id="Trazado_1235208" data-name="Trazado 1235208" d="M1161.728,570.6s-4.584-.437-7.622,1.754-6.584,5.891-14.287,3.59c0,0,3.642,4.38,8.483,4.853s3.535-3.426,14.551-1.128l-.54-4.664Z" transform="translate(-1139.819 -570.522)" fill="#ff5b7e"/>
          <path id="Trazado_1235209" data-name="Trazado 1235209" d="M1412.8,990.2l.684,45.032,1.147,3.25,3.452-3.249,3.3-46.182Z" transform="translate(-1365.801 -916.957)" fill="#ffc0bb"/>
          <path id="Trazado_1235210" data-name="Trazado 1235210" d="M1490.948,1004.619l-8.633,0s4.041,43.24,4.011,43.509a13.524,13.524,0,0,0,1.455,2.212l3.144-2.21Z" transform="translate(-1423.348 -929.84)" fill="#ffc0bb"/>
          <path id="Trazado_1235211" data-name="Trazado 1235211" d="M1412.8,990.2l.684,45.032,1.147,3.25,3.452-3.249,3.3-46.182Z" transform="translate(-1365.801 -916.957)" fill="#ffc0bb"/>
          <path id="Trazado_1235212" data-name="Trazado 1235212" d="M1490.948,1004.619l-8.633,0s4.041,43.24,4.011,43.509a13.524,13.524,0,0,0,1.455,2.212l3.144-2.21Z" transform="translate(-1423.348 -929.84)" fill="#ffc0bb"/>
          <path id="Trazado_1235213" data-name="Trazado 1235213" d="M1415.71,1187.133l.182,11.988,1.147,3.25,3.452-3.247.864-12.1A7.351,7.351,0,0,1,1415.71,1187.133Z" transform="translate(-1368.21 -1080.847)" fill="#fbf9eb"/>
          <path id="Trazado_1235214" data-name="Trazado 1235214" d="M1499.33,1187.64c.622,6.74,1.092,11.9,1.082,12a13.533,13.533,0,0,0,1.455,2.212l3.144-2.21.006-11.944A9.353,9.353,0,0,1,1499.33,1187.64Z" transform="translate(-1437.433 -1081.355)" fill="#fbf9eb"/>
          <path id="Trazado_1235215" data-name="Trazado 1235215" d="M1405.222,904.814a18.192,18.192,0,0,0,10.47,1.073h0l.586-6.331c.44.385.7.568.7.568l.561,5.558h0a21.692,21.692,0,0,0,10.366.655c.02-2.471.026-4.661.011-6.412-.1-12.648-4.014-14.5-4.014-14.5l-6.655-1.689-1.462.251c-2.326-.766-6.536-1.64-8.271,1.264-2.457,4.114-2.32,16.8-2.32,16.8S1405.2,903.073,1405.222,904.814Z" transform="translate(-1359.506 -829.363)" fill="#02ccc0"/>
          <path id="Trazado_1235216" data-name="Trazado 1235216" d="M1326.772,781.588l-6.241-2.893.564,6.611s-11.817-5.372-12.413-5.913a3.822,3.822,0,0,1-.643-1.206,12.16,12.16,0,0,1-.52-1.794,4.028,4.028,0,0,0-1.256-1.893,3.761,3.761,0,0,1-.526-1.016.191.191,0,0,0-.372.02l-.064.413a2.1,2.1,0,0,0,.17,1.048l-.164-.063-.274,2.78.332,2.431,1.869,1.409s16.462,11.863,17.969,10.315C1326.824,790.176,1326.772,781.588,1326.772,781.588Z" transform="translate(-1276.588 -738.391)" fill="#ffc0bb"/>
          <path id="Trazado_1235217" data-name="Trazado 1235217" d="M1398.183,1257.279l0,3.429a.521.521,0,0,1-.53.513l-8.289,0a.578.578,0,0,1-.322-1.071l4.543-2.869A4.77,4.77,0,0,0,1398.183,1257.279Z" transform="translate(-1345.902 -1139.002)" fill="#07085b"/>
          <path id="Trazado_1235218" data-name="Trazado 1235218" d="M1487.033,1257.329l0,3.429a.521.521,0,0,1-.53.512l-8.288,0a.578.578,0,0,1-.322-1.071l4.542-2.869A4.776,4.776,0,0,0,1487.033,1257.329Z" transform="translate(-1419.455 -1139.044)" fill="#07085b"/>
          <path id="Trazado_1235219" data-name="Trazado 1235219" d="M1391.216,739.983s-1.279.3-3.13,2.591-3.5,8.618-3.5,8.618l5.9,3.228,3.846-7.645Z" transform="translate(-1342.444 -710.771)" fill="#f2b955"/>
          <path id="Trazado_1235220" data-name="Trazado 1235220" d="M1483.726,952.048c-.623.229-1.237.477-1.845.74s-1.208.542-1.8.829-1.188.582-1.774.887-1.17.614-1.745.937l-.046-.11a12.349,12.349,0,0,1,1.311-.2c.44-.044.881-.062,1.323-.062a10.636,10.636,0,0,1,1.321.077l.328.043.325.058.162.029.16.039.32.078-.323-.063-.161-.031-.163-.024-.326-.046-.328-.031c-.109-.012-.219-.018-.328-.023s-.219-.015-.328-.017l-.329-.006c-.11,0-.219,0-.329,0-.438.008-.876.039-1.311.087a12.247,12.247,0,0,0-1.294.208l-.393.087.347-.2c.576-.327,1.157-.643,1.748-.944s1.184-.594,1.784-.877,1.211-.542,1.824-.795c.309-.122.618-.244.931-.354S1483.411,952.151,1483.726,952.048Z" transform="translate(-1418.243 -886.325)" fill="#fff"/>
          <path id="Trazado_1235221" data-name="Trazado 1235221" d="M1418.65,950.539c.315.1.633.2.943.321s.622.233.93.355c.613.253,1.223.516,1.824.8s1.194.576,1.783.879,1.171.618,1.747.946l.346.2-.392-.087a12.189,12.189,0,0,0-1.294-.208c-.435-.048-.873-.08-1.311-.089-.109,0-.219-.006-.329,0l-.329.006c-.109,0-.219.012-.328.016s-.219.01-.328.023l-.328.031-.326.046-.163.023-.162.032-.324.062.32-.078.161-.038.162-.029.325-.058.328-.042a10.716,10.716,0,0,1,1.321-.076c.442,0,.883.019,1.323.063a12.4,12.4,0,0,1,1.311.2l-.047.11c-.575-.323-1.16-.631-1.744-.939s-1.177-.6-1.773-.889-1.2-.566-1.8-.831S1419.273,950.769,1418.65,950.539Z" transform="translate(-1370.644 -885.075)" fill="#fff"/>
          <path id="Trazado_1235222" data-name="Trazado 1235222" d="M1426.39,908.116c.541.1,1.084.173,1.628.243s1.089.133,1.635.186c1.092.106,2.188.177,3.285.2.549.012,1.1.013,1.646,0s1.1-.045,1.643-.088,1.091-.109,1.633-.2,1.079-.2,1.609-.337c-.527.15-1.063.27-1.6.369s-1.087.161-1.634.215-1.1.079-1.646.1-1.1.016-1.649.006c-1.1-.029-2.2-.1-3.289-.215q-.819-.088-1.634-.2C1427.469,908.31,1426.927,908.222,1426.39,908.116Z" transform="translate(-1377.051 -849.956)" fill="#daeef7" opacity="0.5"/>
          <path id="Trazado_1235223" data-name="Trazado 1235223" d="M1440.3,625.728s1.166-6.033-2.232-8.157a8.712,8.712,0,0,0-9.242-.323c-2.342,1.427-4.422,5.96-1.581,10.308l7-4.346Z" transform="translate(-1376.62 -608.198)" fill="#07085b"/>
          <path id="Trazado_1235224" data-name="Trazado 1235224" d="M1498.18,920a1.623,1.623,0,0,0,.088.183l.095.181.192.36.32.6.912,1.585c.125.24,1.323,2.326,1.606,2.792a12.114,12.114,0,0,1-1.064-1.3c-.145-.232-.28-.469-.416-.7s-.263-.477-.392-.717c-.253-.482-.5-.969-.723-1.463-.115-.247-.224-.5-.33-.746-.052-.126-.1-.251-.153-.378A3.112,3.112,0,0,1,1498.18,920Z" transform="translate(-1436.481 -859.795)" fill="#ea9734"/>
          <path id="Trazado_1235225" data-name="Trazado 1235225" d="M1437.515,735.859c-2.683-3.24-5.542-6.239-8.117-7.852a15.33,15.33,0,0,0-6.568-1.708c-2.1-.264-3.617-.375-4.743.2-3.352.466-6.873,2.344-6.919,3.521-.23,5.879-.3,10.386-.269,13.842,0,.011-.1,12.529-.015,15.2,0,0,13.608,2.941,20.57,1.181,0,0,1.158-16.373-.491-20.8l.7.9S1434.468,739.712,1437.515,735.859Z" transform="translate(-1364.185 -699.264)" fill="#ffcc68"/>
          <path id="Trazado_1235226" data-name="Trazado 1235226" d="M1513.419,785.817a12.823,12.823,0,0,1-4.916,3.81l6.577,7.887-12.046,12.973,2.117,3.692c1.675-.811,2.054-3.891,2.054-3.891s14.905-9.955,14.906-12.338C1522.114,794.758,1513.419,785.817,1513.419,785.817Z" transform="translate(-1440.5 -748.713)" fill="#ffc0bb"/>
          <path id="Trazado_1235227" data-name="Trazado 1235227" d="M1506.006,767.659c-.1.116-.2.24-.3.351l-.319.338-.158.17-.168.161-.334.322c-.112.106-.232.2-.347.307-.227.21-.48.389-.718.585a12.868,12.868,0,0,1-1.558,1l-.2.109c-.068.035-.139.067-.208.1-.138.069-.279.129-.421.189-.07.032-.142.057-.213.086s-.142.057-.215.081c-.1.035-.2.069-.3.1l-.72-.862-.818-.962c-.543-.644-1.1-1.276-1.65-1.914s-1.114-1.264-1.681-1.889-1.135-1.248-1.721-1.857c.5.678,1.016,1.343,1.535,2s1.047,1.318,1.575,1.973,1.063,1.3,1.606,1.948l.81.969.818.962.09.1.129-.034a4.982,4.982,0,0,0,.475-.153q.229-.084.449-.184c.147-.067.293-.134.434-.21.071-.037.143-.072.213-.111l.209-.119a11.359,11.359,0,0,0,1.563-1.091l.355-.314c.12-.1.231-.215.342-.326s.225-.22.332-.335l.312-.352.155-.176.145-.184.287-.369c.186-.25.352-.513.526-.769Z" transform="translate(-1432.98 -730.711)" fill="#fbf9eb"/>
          <path id="Trazado_1235228" data-name="Trazado 1235228" d="M1452.86,707.042s2.7,1.6,4.808,0h0l-.495-3.91-4.188-.865-.125,4.773Z" transform="translate(-1398.964 -679.551)" fill="#ffc0bb"/>
          <g id="Grupo_1231460" data-name="Grupo 1231460" transform="translate(53.953 22.719)" opacity="0.6">
            <path id="Trazado_1235229" data-name="Trazado 1235229" d="M1453.19,704.819l.067-2.55,4.249,1.324.119.956A7.6,7.6,0,0,1,1453.19,704.819Z" transform="translate(-1453.19 -702.269)" fill="#fc8d84"/>
          </g>
          <path id="Trazado_1235230" data-name="Trazado 1235230" d="M1432,643.365a5.71,5.71,0,0,1-.382-1.01,10.73,10.73,0,0,1-.389-2.787c0-.184-.017-.367-.035-.549a5.8,5.8,0,0,1,.237-2.29,6.164,6.164,0,0,1,5.917-4.244,6.049,6.049,0,0,1,6.128,6.446,1.37,1.37,0,0,1,1.2,0,1.579,1.579,0,0,1,.4,2.215,1.684,1.684,0,0,1-2.142.869,1.185,1.185,0,0,1-.262-.19,5.748,5.748,0,0,1-6.15,4.676,5.588,5.588,0,0,1-3.616-1.8,2.746,2.746,0,0,1-.193-.2A5.13,5.13,0,0,1,1432,643.365Z" transform="translate(-1381.009 -621.78)" fill="#ffc0bb"/>
          <path id="Trazado_1235231" data-name="Trazado 1235231" d="M1470.358,668.185a.526.526,0,0,0,.484.569.534.534,0,0,0,.587-.469.525.525,0,0,0-.484-.569A.534.534,0,0,0,1470.358,668.185Z" transform="translate(-1413.447 -650.944)" fill="#333"/>
          <path id="Trazado_1235232" data-name="Trazado 1235232" d="M1443.478,667.391a.525.525,0,0,0,.484.569.534.534,0,0,0,.587-.469.526.526,0,0,0-.484-.569A.533.533,0,0,0,1443.478,667.391Z" transform="translate(-1391.195 -650.286)" fill="#333"/>
          <path id="Trazado_1235233" data-name="Trazado 1235233" d="M1467.21,661.4a5.245,5.245,0,0,1,.789-.175,2.754,2.754,0,0,1,.753,0,2.526,2.526,0,0,1,.718.209l.09.037c.03.013.056.031.086.045l.176.092c.118.064.227.143.358.206a2.291,2.291,0,0,0-.234-.348,1.932,1.932,0,0,0-.318-.287,1.786,1.786,0,0,0-.821-.328,1.892,1.892,0,0,0-.882.087A1.71,1.71,0,0,0,1467.21,661.4Z" transform="translate(-1410.843 -645.245)" fill="#07085b"/>
          <path id="Trazado_1235234" data-name="Trazado 1235234" d="M1440.226,660.266a1.688,1.688,0,0,0-.668-.522,1.884,1.884,0,0,0-.87-.163,1.794,1.794,0,0,0-.848.255,1.959,1.959,0,0,0-.344.258,2.326,2.326,0,0,0-.266.326c.136-.052.252-.121.376-.174l.184-.076c.031-.012.059-.028.09-.038l.093-.029a2.531,2.531,0,0,1,.734-.146,2.737,2.737,0,0,1,.75.066A5.081,5.081,0,0,1,1440.226,660.266Z" transform="translate(-1386.025 -644.208)" fill="#07085b"/>
          <path id="Trazado_1235235" data-name="Trazado 1235235" d="M1454.964,663.5a3.9,3.9,0,0,1,.073,1.122,2.974,2.974,0,0,1-.095.569,1.443,1.443,0,0,1-.279.56l-.065.063-.058.054a.565.565,0,0,0-.077.074.425.425,0,0,0-.1.17.491.491,0,0,0,.079.4,1.606,1.606,0,0,0,.875.568,1.334,1.334,0,0,1-1.106-.4.751.751,0,0,1-.188-.638.591.591,0,0,1,.059-.17.684.684,0,0,1,.1-.15.883.883,0,0,1,.123-.122.5.5,0,0,0,.044-.043l.036-.035a1.376,1.376,0,0,0,.224-.424,4.566,4.566,0,0,0,.144-.511C1454.832,664.232,1454.894,663.871,1454.964,663.5Z" transform="translate(-1399.92 -647.457)" fill="#f99893"/>
          <path id="Trazado_1235236" data-name="Trazado 1235236" d="M1449.86,688.19a2.136,2.136,0,0,0,3.766-.063Z" transform="translate(-1396.48 -667.843)" fill="#fff"/>
          <path id="Trazado_1235237" data-name="Trazado 1235237" d="M1447.931,634.576a.966.966,0,0,1,.633-.317l-.24-1.928-.646-1.142s-2.475-3.045-2.561-3.119-1.922-1.019-2.034-1.067-2.615.429-2.615.429-4.462-.734-3.626,1.552,4.116,3.375,4.278,3.266a3.854,3.854,0,0,1-.656-1.97C1442.849,632.673,1447.248,634.328,1447.931,634.576Z" transform="translate(-1385.618 -617.239)" fill="#07085b"/>
          <path id="Trazado_1235238" data-name="Trazado 1235238" d="M1266.95,570.371l14.374,121.117.7-.077-14.371-121.1Z" transform="translate(-1245.062 -570.31)" fill="#8a452b"/>
          <path id="Trazado_1235239" data-name="Trazado 1235239" d="M1297.183,791.244a4.519,4.519,0,0,1,.048-.649.716.716,0,0,1,.5-.533l.289-.087.025.649h0c-.024.5-.034.461.653.76.979.426.569.939.569.939s-.272.365-1.471-.235A1.188,1.188,0,0,1,1297.183,791.244Z" transform="translate(-1270.089 -752.156)" fill="#ffc0bb"/>
          <path id="Trazado_1235240" data-name="Trazado 1235240" d="M1296.594,794.768a4.291,4.291,0,0,1,.047-.617.681.681,0,0,1,.475-.508l.275-.083.024.618h0c-.023.472-.033.439.622.723.932.406.542.894.542.894s-.259.347-1.4-.224A1.128,1.128,0,0,1,1296.594,794.768Z" transform="translate(-1269.601 -755.123)" fill="#ffc0bb"/>
          <path id="Trazado_1235241" data-name="Trazado 1235241" d="M1297.465,799.965a3.657,3.657,0,0,1,.039-.522.577.577,0,0,1,.4-.43l.233-.07.021.523h0c-.02.4-.028.371.526.612.789.343.459.756.459.756s-.219.294-1.185-.189A.954.954,0,0,1,1297.465,799.965Z" transform="translate(-1270.322 -759.579)" fill="#ffc0bb"/>
          <path id="Trazado_1235242" data-name="Trazado 1235242" d="M1298.423,786.611a4.463,4.463,0,0,1,.049-.648.715.715,0,0,1,.5-.533l.289-.087.026.649h0c-.024.5-.034.461.653.76.98.426.569.939.569.939s-.272.364-1.471-.235A1.19,1.19,0,0,1,1298.423,786.611Z" transform="translate(-1271.116 -748.32)" fill="#ffc0bb"/>
          <path id="Trazado_1235243" data-name="Trazado 1235243" d="M1299.241,789.112a1.934,1.934,0,0,0,.016.325.321.321,0,0,0,.213.215c.2.1.412.166.618.268.05.029.1.055.149.086a1.117,1.117,0,0,1,.137.107.663.663,0,0,1,.2.289.49.49,0,0,1-.02.355.459.459,0,0,1-.046.081.268.268,0,0,1-.081.067.561.561,0,0,1-.177.059,1.1,1.1,0,0,1-.354-.01,2.354,2.354,0,0,1-.334-.085,3.92,3.92,0,0,1-.624-.276,1.38,1.38,0,0,1-.47-.486.874.874,0,0,1-.1-.32.755.755,0,0,1,0-.165l.014-.164,0,.164a.745.745,0,0,0,.01.162.842.842,0,0,0,.115.3,1.326,1.326,0,0,0,.467.441,4.909,4.909,0,0,0,.611.253,1.492,1.492,0,0,0,.638.082.445.445,0,0,0,.141-.044.179.179,0,0,0,.048-.036.373.373,0,0,0,.036-.062.392.392,0,0,0,.02-.285.568.568,0,0,0-.17-.25,1.222,1.222,0,0,0-.124-.1c-.044-.031-.092-.058-.137-.087-.191-.106-.4-.186-.6-.294a.619.619,0,0,1-.14-.1.269.269,0,0,1-.076-.155A1.474,1.474,0,0,1,1299.241,789.112Z" transform="translate(-1271.071 -751.441)" fill="#f99893"/>
          <path id="Trazado_1235244" data-name="Trazado 1235244" d="M1298.976,794.613a.589.589,0,0,1,.265.43.491.491,0,0,1-.065.257.178.178,0,0,1-.048.058.312.312,0,0,1-.06.039.538.538,0,0,1-.132.047,1.254,1.254,0,0,1-.534-.028,3.267,3.267,0,0,1-.5-.17c-.081-.033-.158-.074-.236-.111a1.155,1.155,0,0,1-.224-.145,1.243,1.243,0,0,1-.336-.4.935.935,0,0,1-.083-.249.976.976,0,0,1-.01-.13l.005-.128a4.016,4.016,0,0,1,.074-.5c-.013.167-.021.335-.02.5l0,.123a.891.891,0,0,0,.017.12.867.867,0,0,0,.09.224,1.265,1.265,0,0,0,.326.362,1.132,1.132,0,0,0,.208.131c.077.035.153.075.231.106a3.3,3.3,0,0,0,.478.17,1.267,1.267,0,0,0,.491.046.29.29,0,0,0,.2-.1.442.442,0,0,0,.071-.222.456.456,0,0,0-.056-.232A.958.958,0,0,0,1298.976,794.613Z" transform="translate(-1269.95 -755.14)" fill="#f99893"/>
          <path id="Trazado_1235245" data-name="Trazado 1235245" d="M1298.636,801.2a.424.424,0,0,1,.006.362.224.224,0,0,1-.057.085.352.352,0,0,1-.086.054.642.642,0,0,1-.192.048,1.763,1.763,0,0,1-.746-.141c-.116-.047-.231-.1-.342-.154a1.143,1.143,0,0,1-.309-.221,1.188,1.188,0,0,1-.226-.3.771.771,0,0,1-.083-.356,1,1,0,0,0,.367.594,1.232,1.232,0,0,0,.3.191c.11.053.222.1.336.145a2.9,2.9,0,0,0,.346.111,1.352,1.352,0,0,0,.354.047.57.57,0,0,0,.17-.028.286.286,0,0,0,.073-.038.194.194,0,0,0,.049-.062A.437.437,0,0,0,1298.636,801.2Z" transform="translate(-1269.608 -760.934)" fill="#f99893"/>
          <path id="Trazado_1235246" data-name="Trazado 1235246" d="M1299.1,805.261a.411.411,0,0,1,.145.3.393.393,0,0,1-.04.171.258.258,0,0,1-.023.04.192.192,0,0,1-.039.037.324.324,0,0,1-.084.044.766.766,0,0,1-.356.023,1.792,1.792,0,0,1-.335-.084,2.919,2.919,0,0,1-.315-.133,1.57,1.57,0,0,1-.153-.082,1.033,1.033,0,0,1-.136-.106.783.783,0,0,1-.291-.589.874.874,0,0,0,.347.526,1.326,1.326,0,0,0,.133.09,1.574,1.574,0,0,0,.146.069,3.143,3.143,0,0,0,.306.123,1.8,1.8,0,0,0,.314.085.736.736,0,0,0,.312,0,.258.258,0,0,0,.066-.028.134.134,0,0,0,.023-.018.3.3,0,0,0,.021-.029.344.344,0,0,0,.05-.141.336.336,0,0,0-.014-.153A.632.632,0,0,0,1299.1,805.261Z" transform="translate(-1270.327 -764.495)" fill="#f99893"/>
        </g>
      </g>
    </g>
  </g>
</svg>
