<svg xmlns="http://www.w3.org/2000/svg" xmlns:xlink="http://www.w3.org/1999/xlink" width="113" height="113" viewBox="0 0 113 113">
  <defs>
    <filter id="Trazado_982547" x="0" y="0" width="113" height="113" filterUnits="userSpaceOnUse">
      <feOffset dy="3" input="SourceAlpha"/>
      <feGaussianBlur stdDeviation="3" result="blur"/>
      <feFlood flood-opacity="0.161"/>
      <feComposite operator="in" in2="blur"/>
      <feComposite in="SourceGraphic"/>
    </filter>
  </defs>
  <g id="Grupo_1231322" data-name="Grupo 1231322" transform="translate(-587 -2608.215)">
    <g id="Grupo_1230630" data-name="Grupo 1230630" transform="translate(-525 1377.999)">
      <g id="Grupo_1209049" data-name="Grupo 1209049">
        <g id="Grupo_1208493" data-name="Grupo 1208493" transform="translate(0 -4397.209)">
          <g id="Grupo_1202104" data-name="Grupo 1202104" transform="translate(0 -1149.226)">
            <g id="Grupo_1201923" data-name="Grupo 1201923" transform="translate(-4174.49 4856.378)">
              <g id="Grupo_1176928" data-name="Grupo 1176928" transform="translate(5295.49 1926.273)">
                <g id="Grupo_1172322" data-name="Grupo 1172322" transform="translate(0 0)">
                  <g id="Grupo_1164700" data-name="Grupo 1164700">
                    <g id="Grupo_1160931" data-name="Grupo 1160931">
                      <g id="Grupo_1160749" data-name="Grupo 1160749">
                        <g id="Grupo_1158891" data-name="Grupo 1158891">
                          <g id="Grupo_1157406" data-name="Grupo 1157406">
                            <g id="Grupo_1155793" data-name="Grupo 1155793">
                              <g id="Grupo_1154704" data-name="Grupo 1154704">
                                <g id="Grupo_1150790" data-name="Grupo 1150790">
                                  <g id="Grupo_1154214" data-name="Grupo 1154214">
                                    <g id="Grupo_1152583" data-name="Grupo 1152583">
                                      <g id="Grupo_1146973" data-name="Grupo 1146973">
                                        <g id="Grupo_1146954" data-name="Grupo 1146954">
                                          <g transform="matrix(1, 0, 0, 1, -9, -6)" filter="url(#Trazado_982547)">
                                            <g id="Trazado_982547-2" data-name="Trazado 982547" transform="translate(9 6)" fill="#dce8fa">
                                              <path d="M 47.5000114440918 93.49987030029297 C 41.28938293457031 93.49987030029297 35.26534652709961 92.28384399414062 29.5951976776123 89.88558959960938 C 24.11773109436035 87.56881713867188 19.19814491271973 84.25183868408203 14.97310447692871 80.02680206298828 C 10.74805164337158 75.80176544189453 7.43107795715332 70.88218688964844 5.114304542541504 65.40472412109375 C 2.716038227081299 59.73458862304688 1.500011444091797 53.71054840087891 1.500011444091797 47.49993515014648 C 1.500011444091797 41.28932189941406 2.716038227081299 35.26528167724609 5.114304542541504 29.59514808654785 C 7.43107795715332 24.1176815032959 10.74805164337158 19.1981086730957 14.97310447692871 14.97306823730469 C 19.19814491271973 10.74802875518799 24.11773109436035 7.431055068969727 29.5951976776123 5.11428165435791 C 35.26534652709961 2.716028451919556 41.28938293457031 1.500001788139343 47.5000114440918 1.500001788139343 C 53.71063995361328 1.500001788139343 59.73467636108398 2.716028451919556 65.40482330322266 5.11428165435791 C 70.88229370117188 7.431055068969727 75.8018798828125 10.74802875518799 80.02691650390625 14.97306823730469 C 84.25196838378906 19.1981086730957 87.56894683837891 24.1176815032959 89.88571929931641 29.59514808654785 C 92.28398132324219 35.26528167724609 93.50001525878906 41.28932189941406 93.50001525878906 47.49993515014648 C 93.50001525878906 53.71054840087891 92.28398132324219 59.73458862304688 89.88571929931641 65.40472412109375 C 87.56894683837891 70.88218688964844 84.25196838378906 75.80176544189453 80.02691650390625 80.02680206298828 C 75.8018798828125 84.25183868408203 70.88229370117188 87.56881713867188 65.40482330322266 89.88558959960938 C 59.73467636108398 92.28384399414062 53.71063995361328 93.49987030029297 47.5000114440918 93.49987030029297 Z" stroke="none"/>
                                              <path d="M 47.5000114440918 3 C 41.49122619628906 3 35.66378021240234 4.1761474609375 30.17951965332031 6.495796203613281 C 24.880859375 8.7369384765625 20.12153625488281 11.94596862792969 16.03376770019531 16.03373718261719 C 11.94598388671875 20.12149047851562 8.736968994140625 24.88081359863281 6.495811462402344 30.17947387695312 C 4.176162719726562 35.66371917724609 3.000007629394531 41.49116516113281 3.000007629394531 47.49993515014648 C 3.000007629394531 53.50870513916016 4.176162719726562 59.33615112304688 6.495811462402344 64.82039642333984 C 8.736968994140625 70.11905670166016 11.94598388671875 74.87837982177734 16.03376770019531 78.96613311767578 C 20.12153625488281 83.05390167236328 24.880859375 86.26293182373047 30.17951965332031 88.50407409667969 C 35.66378021240234 90.82372283935547 41.49122619628906 91.99987030029297 47.5000114440918 91.99987030029297 C 53.50879669189453 91.99987030029297 59.33624267578125 90.82372283935547 64.82050323486328 88.50407409667969 C 70.11916351318359 86.26293182373047 74.87848663330078 83.05390167236328 78.96625518798828 78.96613311767578 C 83.05403900146484 74.87837982177734 86.2630615234375 70.11905670166016 88.50421142578125 64.82039642333984 C 90.82386016845703 59.33615112304688 92.00001525878906 53.50870513916016 92.00001525878906 47.49993515014648 C 92.00001525878906 41.49116516113281 90.82386016845703 35.66371917724609 88.50421142578125 30.17947387695312 C 86.2630615234375 24.88081359863281 83.05403900146484 20.12149047851562 78.96625518798828 16.03373718261719 C 74.87848663330078 11.94596862792969 70.11916351318359 8.7369384765625 64.82050323486328 6.495796203613281 C 59.33624267578125 4.1761474609375 53.50879669189453 3 47.5000114440918 3 M 47.5000114440918 0 C 73.73353576660156 0 95.00001525878906 21.26644134521484 95.00001525878906 47.49993515014648 C 95.00001525878906 73.73342895507812 73.73353576660156 94.99987030029297 47.5000114440918 94.99987030029297 C 21.26648712158203 94.99987030029297 7.62939453125e-06 73.73342895507812 7.62939453125e-06 47.49993515014648 C 7.62939453125e-06 21.26644134521484 21.26648712158203 0 47.5000114440918 0 Z" stroke="none" fill="#5692e8"/>
                                            </g>
                                          </g>
                                        </g>
                                      </g>
                                    </g>
                                  </g>
                                </g>
                              </g>
                            </g>
                          </g>
                        </g>
                      </g>
                    </g>
                  </g>
                </g>
              </g>
            </g>
          </g>
        </g>
      </g>
    </g>
    <g id="international-childrens-day_3_" data-name="international-childrens-day (3)" transform="translate(611.651 2627.303)">
      <g id="Grupo_1231320" data-name="Grupo 1231320" transform="translate(0.933 0.933)">
        <g id="Grupo_1231309" data-name="Grupo 1231309" transform="translate(12.13 13.872)">
          <path id="Trazado_1232334" data-name="Trazado 1232334" d="M185.005,135.087l-9.945-11.828a18.591,18.591,0,0,0-4.547-1.509l-.012,0L154.269,127.7v26.324l16.234,4.615a18.641,18.641,0,0,0,4.443-1.454l10.722-18.264A18.7,18.7,0,0,0,185.005,135.087Z" transform="translate(-148.14 -121.406)" fill="#b9f0ff"/>
          <path id="Trazado_1232335" data-name="Trazado 1232335" d="M123.787,272.811a18.886,18.886,0,0,0,3.578-.342,20.8,20.8,0,0,1-11.049-20.714l-11.309,1.822a19.045,19.045,0,0,0,.065,2.052A18.788,18.788,0,0,0,123.787,272.811Z" transform="translate(-105.001 -235.239)" fill="#7ce3ff"/>
          <path id="Trazado_1232336" data-name="Trazado 1232336" d="M321.394,133.891s0,2.428.011,2.759a2.548,2.548,0,0,0,.762,2.107l1.052.885a1.96,1.96,0,0,1-.25,3.238,1.5,1.5,0,0,0,.688,2.839h7.681A18.82,18.82,0,0,0,321.394,133.891Z" transform="translate(-294.473 -132.038)" fill="#70dcba"/>
          <path id="Trazado_1232337" data-name="Trazado 1232337" d="M198.1,137.535l1.214.531a2.038,2.038,0,0,1,1.013,1.015,1.483,1.483,0,0,0,1.414.848,1.539,1.539,0,0,0,1.412-1.523v-3.685a9.846,9.846,0,0,1,1.929-5.854,9.847,9.847,0,0,0,1.929-5.854V121.75l-.012,0L195.947,125.8v12.125a1.962,1.962,0,0,1,2.15-.387Z" transform="translate(-184.632 -121.406)" fill="#70dcba"/>
          <path id="Trazado_1232338" data-name="Trazado 1232338" d="M123.786,119c-.09,0-.179,0-.269,0a18.783,18.783,0,0,0-13.1,31.982l3.414-4.788a2.765,2.765,0,0,0-.426-4.269l-.028-.018c-1.215-.787-.97-2.492.042-3.5l2.866-2.866.021-.019,0,0a20.814,20.814,0,0,1,11.048-16.174A18.871,18.871,0,0,0,123.786,119Z" transform="translate(-105.001 -119)" fill="#18c08b"/>
          <path id="Trazado_1232339" data-name="Trazado 1232339" d="M299.448,259.756H289.089a4.878,4.878,0,0,0-4.882,4.875v1.912a6.212,6.212,0,0,0,1.82,4.393,6.224,6.224,0,0,1,1.821,4.448,4.575,4.575,0,0,0,.87,2.636,18.784,18.784,0,0,0,10.765-16.989C299.483,260.6,299.469,260.177,299.448,259.756Z" transform="translate(-261.912 -242.245)" fill="#70dcba"/>
        </g>
        <g id="Grupo_1231312" data-name="Grupo 1231312" transform="translate(0 37.945)">
          <g id="Grupo_1231310" data-name="Grupo 1231310" transform="translate(0)">
            <path id="Trazado_1232340" data-name="Trazado 1232340" d="M19.443,312.5,7.5,324.442l5.353,7.319a10.822,10.822,0,0,0,8.734,4.433,11.933,11.933,0,0,0,9.8-11.751Z" transform="translate(-7.5 -312.5)" fill="#ffddcf"/>
            <path id="Trazado_1232341" data-name="Trazado 1232341" d="M11.459,397.652l-1.977-1.541L7.5,397.651A11.951,11.951,0,0,0,21.587,409.4a12.062,12.062,0,0,1-10.128-11.751Z" transform="translate(-7.5 -385.709)" fill="#ffcbbe"/>
          </g>
          <g id="Grupo_1231311" data-name="Grupo 1231311">
            <path id="Trazado_1232342" data-name="Trazado 1232342" d="M155.641,355.821l-3.054,1.543-.943,2.745a9.086,9.086,0,0,0,5.954,2.265A11.887,11.887,0,0,0,155.641,355.821Z" transform="translate(-133.711 -350.431)" fill="#ffb357"/>
            <path id="Trazado_1232343" data-name="Trazado 1232343" d="M63.115,320.41a15.834,15.834,0,0,1-2.436,1.3,11.962,11.962,0,0,0-1.634-1.05H51.413a5.091,5.091,0,0,0-5.09,5.09v4.165l1.69,1.291h4.318a13.2,13.2,0,0,0,12.4-9.614A1.068,1.068,0,0,0,63.115,320.41Z" transform="translate(-41.493 -319.269)" fill="#ffce71"/>
            <path id="Trazado_1232344" data-name="Trazado 1232344" d="M21.423,312.663a12.03,12.03,0,0,0-1.98-.163A11.943,11.943,0,0,0,7.5,324.442h6.52a3.259,3.259,0,0,1-.4-2.657,10.08,10.08,0,0,1,8.1-7.332l3.33-.557A11.847,11.847,0,0,0,21.423,312.663Z" transform="translate(-7.5 -312.5)" fill="#ffb357"/>
          </g>
        </g>
        <g id="Grupo_1231315" data-name="Grupo 1231315" transform="translate(34.999 30.056)">
          <g id="Grupo_1231313" data-name="Grupo 1231313" transform="translate(0 8.062)">
            <path id="Trazado_1232345" data-name="Trazado 1232345" d="M302.753,313.9h-3.977l-9.951,11.773,9.951,11.773h3.977a11.94,11.94,0,0,0,0-23.547Z" transform="translate(-288.825 -313.898)" fill="#ffd4bd"/>
            <path id="Trazado_1232346" data-name="Trazado 1232346" d="M292.785,379.06a11.981,11.981,0,0,1,.351-2.885l-2.168-1.322-1.8,1.322a11.945,11.945,0,0,0,13.58,14.641A11.921,11.921,0,0,1,292.785,379.06Z" transform="translate(-288.825 -367.27)" fill="#ffbf9d"/>
          </g>
          <path id="Trazado_1232347" data-name="Trazado 1232347" d="M435.06,253.388l-1.978-3.451a1.689,1.689,0,0,0-1.474-.842,1.646,1.646,0,0,0-.861.247,11.24,11.24,0,0,0-5.293,9.983h2.787a10.76,10.76,0,0,1,5.755-3.44,1.7,1.7,0,0,0,1.064-2.5Z" transform="translate(-408.457 -249.095)" fill="#d6948c"/>
          <path id="Trazado_1232348" data-name="Trazado 1232348" d="M402.687,282.129A2.938,2.938,0,1,0,402.48,288c.069,0,.138,0,.207-.007a2.938,2.938,0,0,0,0-5.862Z" transform="translate(-385.768 -278.013)" fill="#ffb5c0"/>
          <circle id="Elipse_11572" data-name="Elipse 11572" cx="2.938" cy="2.938" r="2.938" transform="matrix(0.987, -0.16, 0.16, 0.987, 18.031, 7.562)" fill="#ffdbe0"/>
          <g id="Grupo_1231314" data-name="Grupo 1231314" transform="translate(0.007 7.302)">
            <path id="Trazado_1232349" data-name="Trazado 1232349" d="M342.909,320.04a12.512,12.512,0,0,0-3.53-5.314,1.559,1.559,0,0,0-1.053-.388h-.4a1.576,1.576,0,0,0-.806-1.213,12.5,12.5,0,0,0-2.443-1.031h-6.028l-5.247,6.273v2.857h.823a16.453,16.453,0,0,0,11.634-4.819l3.745,3.745a3.666,3.666,0,0,0,2.592,1.074h.435A1.151,1.151,0,0,0,342.909,320.04Z" transform="translate(-319.106 -311.558)" fill="#d6948c"/>
            <path id="Trazado_1232350" data-name="Trazado 1232350" d="M298.728,307.961a12.521,12.521,0,0,0-9.783,8.308,1.152,1.152,0,0,0,.279,1.184h3.954a11.722,11.722,0,0,1,9.617-8.908c.459-.065,1.022-.14,1.659-.222A12.632,12.632,0,0,0,298.728,307.961Z" transform="translate(-288.885 -307.787)" fill="#bd7669"/>
          </g>
        </g>
        <g id="Grupo_1231319" data-name="Grupo 1231319" transform="translate(17.939)">
          <g id="Grupo_1231316" data-name="Grupo 1231316">
            <path id="Trazado_1232351" data-name="Trazado 1232351" d="M212.643,21.934a2.75,2.75,0,0,0-2.323-1.689,2.752,2.752,0,0,0-3.465-3.465,2.752,2.752,0,0,0-4.527-1.875l-10.424,2.8v8.029h18.2A2.753,2.753,0,0,0,212.643,21.934Z" transform="translate(-186.901 -13.405)" fill="#676fb2"/>
            <path id="Trazado_1232352" data-name="Trazado 1232352" d="M164.67,7.5A2.75,2.75,0,0,0,162.22,9a2.752,2.752,0,0,0-4.527,1.875,2.752,2.752,0,0,0-3.465,3.465,2.751,2.751,0,0,0,.217,5.494h12.131v-10A3.06,3.06,0,0,0,167.12,9a2.75,2.75,0,0,0-2.45-1.5Z" transform="translate(-151.693 -7.5)" fill="#4c5699"/>
          </g>
          <g id="Grupo_1231317" data-name="Grupo 1231317" transform="translate(1.911 7.383)">
            <path id="Trazado_1232353" data-name="Trazado 1232353" d="M209.005,71.745l-4.9-4.9h-14.3V79.464l7.017,4.729h3.052a11.077,11.077,0,0,0,9.126-12.448Z" transform="translate(-186.98 -66.847)" fill="#db9e82"/>
            <path id="Trazado_1232354" data-name="Trazado 1232354" d="M170.725,102.713a11.108,11.108,0,0,1,.229-2.251l-3.791.716a11.073,11.073,0,0,0,12.793,12.448,11.069,11.069,0,0,1-9.231-10.914Z" transform="translate(-167.057 -96.28)" fill="#c8866a"/>
          </g>
          <g id="Grupo_1231318" data-name="Grupo 1231318" transform="translate(1.786 2.179)">
            <path id="Trazado_1232355" data-name="Trazado 1232355" d="M216.74,34.58a11.635,11.635,0,0,0-9.26-8.285h-2.8l-6.293,5.133v4.094a7.127,7.127,0,0,0,1.924-1.37,7.634,7.634,0,0,1,10.489,0,7.123,7.123,0,0,0,5.037,2.086h.678a11.019,11.019,0,0,0-.234-1.2Z" transform="translate(-194.361 -26.136)" fill="#676fb2"/>
            <path id="Trazado_1232356" data-name="Trazado 1232356" d="M177.242,25.016a11.657,11.657,0,0,0-11.19,8.442l.465.465a11.019,11.019,0,0,0-.234,1.2h.678a7.118,7.118,0,0,0,3.114-.716,11.086,11.086,0,0,1,7.682-8.358,3.07,3.07,0,0,0,1.393-.872,11.764,11.764,0,0,0-1.907-.156Z" transform="translate(-166.052 -25.016)" fill="#4c5699"/>
          </g>
        </g>
      </g>
      <g id="Grupo_1231321" data-name="Grupo 1231321" transform="translate(0 0)">
        <path id="Trazado_1232357" data-name="Trazado 1232357" d="M325.726,413.734a.933.933,0,0,0-.933.933v1.493a.933.933,0,1,0,1.866,0v-1.493A.933.933,0,0,0,325.726,413.734Z" transform="translate(-284.386 -362.262)"/>
        <path id="Trazado_1232358" data-name="Trazado 1232358" d="M430.726,413.734a.933.933,0,0,0-.933.933v1.493a.933.933,0,1,0,1.866,0v-1.493A.933.933,0,0,0,430.726,413.734Z" transform="translate(-376.323 -362.262)"/>
        <path id="Trazado_1232359" data-name="Trazado 1232359" d="M366.471,425.588a.933.933,0,0,0-1.316.09,1.782,1.782,0,0,1-2.69,0,.933.933,0,1,0-1.407,1.226,3.648,3.648,0,0,0,5.5,0,.933.933,0,0,0-.09-1.316Z" transform="translate(-315.938 -372.44)"/>
        <path id="Trazado_1232360" data-name="Trazado 1232360" d="M196.933,119.856a.933.933,0,0,0-.933.933v1.493a.933.933,0,1,0,1.866,0v-1.493A.933.933,0,0,0,196.933,119.856Z" transform="translate(-171.616 -104.945)"/>
        <path id="Trazado_1232361" data-name="Trazado 1232361" d="M301.933,119.856a.933.933,0,0,0-.933.933v1.493a.933.933,0,1,0,1.866,0v-1.493A.933.933,0,0,0,301.933,119.856Z" transform="translate(-263.553 -104.945)"/>
        <path id="Trazado_1232362" data-name="Trazado 1232362" d="M237.678,131.71a.933.933,0,0,0-1.316.09,1.781,1.781,0,0,1-2.69,0,.933.933,0,1,0-1.407,1.226,3.648,3.648,0,0,0,5.5,0A.933.933,0,0,0,237.678,131.71Z" transform="translate(-203.168 -115.123)"/>
        <path id="Trazado_1232363" data-name="Trazado 1232363" d="M45.366,426.16v-1.493a.933.933,0,0,0-1.866,0v1.493a.933.933,0,1,0,1.866,0Z" transform="translate(-38.088 -371.018)"/>
        <path id="Trazado_1232364" data-name="Trazado 1232364" d="M150.366,426.16v-1.493a.933.933,0,0,0-1.866,0v1.493a.933.933,0,1,0,1.866,0Z" transform="translate(-130.025 -371.018)"/>
        <path id="Trazado_1232365" data-name="Trazado 1232365" d="M82.515,438.158a3.65,3.65,0,0,0,2.752-1.253.933.933,0,0,0-1.407-1.226,1.782,1.782,0,0,1-2.69,0,.933.933,0,0,0-1.407,1.226A3.65,3.65,0,0,0,82.515,438.158Z" transform="translate(-69.639 -381.196)"/>
        <path id="Trazado_1232366" data-name="Trazado 1232366" d="M63.345,34.819l-1.979-3.453a2.622,2.622,0,0,0-3.63-.924,11.807,11.807,0,0,0-3.918,3.917,3.81,3.81,0,0,0-2.266-.039,19.676,19.676,0,0,0-2.693-10.7.933.933,0,0,0-1.609.945,17.793,17.793,0,0,1,1.4,2.991h-6.4a.567.567,0,0,1-.253-1.08,2.893,2.893,0,0,0,.415-4.778l-.5-.418a11.906,11.906,0,0,0,.937-1.741A17.927,17.927,0,0,1,45.163,21.7a.933.933,0,1,0,1.391-1.244,19.8,19.8,0,0,0-3.07-2.782,11.91,11.91,0,0,0,.322-3.908,3.69,3.69,0,0,0-.45-6.706,3.689,3.689,0,0,0-3.818-3.818,3.69,3.69,0,0,0-4.989-2.066,3.687,3.687,0,0,0-5.4,0A3.69,3.69,0,0,0,24.16,3.243a3.69,3.69,0,0,0-3.818,3.818,3.692,3.692,0,0,0-.45,6.706,11.941,11.941,0,0,0,.319,3.906,19.74,19.74,0,0,0-7.6,20.275A12.89,12.89,0,0,0,0,50.819a12.737,12.737,0,0,0,1.421,5.886.933.933,0,0,0,1.659-.854,10.852,10.852,0,0,1-1.175-4.1h9.884a13.917,13.917,0,0,0,7.022-2.041A10,10,0,0,0,23.844,51.7,11,11,0,0,1,5.1,58.617a.933.933,0,0,0-1.317,1.322,12.87,12.87,0,0,0,21.872-7.626,19.74,19.74,0,0,0,9.529.712,12.872,12.872,0,1,0,25.277-4.861,2.094,2.094,0,0,0,.161-1.692A13.427,13.427,0,0,0,59.57,44.14a3.872,3.872,0,0,0,1.094-5.163,9.715,9.715,0,0,1,1.012-.287,2.628,2.628,0,0,0,1.669-3.871Zm-7.753,7.337a11.616,11.616,0,0,1,3.247,4.859,2.721,2.721,0,0,1-1.743-.791L54.01,43.138,55.145,42A.638.638,0,0,1,55.592,42.156Zm-2.031-5.888a1.935,1.935,0,0,1,1.079,1.941,3.888,3.888,0,0,0-.545.667,13.306,13.306,0,0,0-3.418-1.223,1.975,1.975,0,0,1,2.884-1.386Zm-1.53,6.21a15.418,15.418,0,0,1-10.975,4.546H36.9a11.624,11.624,0,0,1,16.6-6.349.642.642,0,0,1,.18.155Zm-2.456-6.8a3.856,3.856,0,0,0-.746,1.713A13.488,13.488,0,0,0,37.4,42.343a5.239,5.239,0,0,1-1.112-3.24V37.191a3.943,3.943,0,0,1,3.949-3.942h9.455a17.424,17.424,0,0,1-.12,2.431Zm-17.721-10.8h-.014A10.112,10.112,0,0,1,21.734,14.146a8.069,8.069,0,0,0,5.53-2.358,6.241,6.241,0,0,1,4.585-1.813,6.241,6.241,0,0,1,4.585,1.813,8.027,8.027,0,0,0,5.53,2.358A10.134,10.134,0,0,1,31.854,24.882ZM21.482,8.7A.934.934,0,0,0,22.3,7.486a1.817,1.817,0,0,1,2.29-2.29A.933.933,0,0,0,25.8,4.383a1.817,1.817,0,0,1,2.992-1.239.934.934,0,0,0,1.435-.286,1.818,1.818,0,0,1,3.238,0,.933.933,0,0,0,1.435.286A1.817,1.817,0,0,1,37.9,4.383a.933.933,0,0,0,1.217.813,1.818,1.818,0,0,1,2.29,2.29A.933.933,0,0,0,42.215,8.7a1.82,1.82,0,0,1,.3,3.579H42.13a6.15,6.15,0,0,1-4.377-1.813,8.045,8.045,0,0,0-5.9-2.36,8.045,8.045,0,0,0-5.9,2.36,6.193,6.193,0,0,1-4.378,1.813h-.383a1.82,1.82,0,0,1,.3-3.579Zm-.636,10.831a11.99,11.99,0,0,0,9.9,7.162,10.772,10.772,0,0,0-.1,1.423V31.8a.61.61,0,0,1-.523.592.555.555,0,0,1-.526-.315,2.978,2.978,0,0,0-1.482-1.471L26.9,30.079a2.884,2.884,0,0,0-3.161.56l0,0-.046.043L20.826,33.55C19.38,35,19.235,37.4,20.95,38.506a1.8,1.8,0,0,1,.733.96,14.944,14.944,0,0,1-1.452.785,12.712,12.712,0,0,0-5.669-2.2,17.869,17.869,0,0,1,6.284-18.522ZM11.763,49.886H1.906a11.024,11.024,0,0,1,10.97-10.076A10.912,10.912,0,0,1,18.1,41.128a21.143,21.143,0,0,1-3.343.893.933.933,0,0,0,.328,1.837,22.806,22.806,0,0,0,8.054-3.086.136.136,0,0,1,.13.177A12.384,12.384,0,0,1,22.053,43.8a12.147,12.147,0,0,1-10.29,6.09ZM22.8,46.049a10.83,10.83,0,0,1,1.049,3.776,8.108,8.108,0,0,1-3.429-1.262A14.224,14.224,0,0,0,22.8,46.049Zm12.478,2.113a12.7,12.7,0,0,0-.27,3,17.89,17.89,0,0,1-9.259-.792,12.708,12.708,0,0,0-1.806-6.13,14.193,14.193,0,0,0,1.124-2.778,2,2,0,0,0-1.594-2.526,3.662,3.662,0,0,0-1.507-2c-.687-.445-.4-1.493.18-2.07l2.88-2.878a1.026,1.026,0,0,1,1.128-.2l1.214.532a1.115,1.115,0,0,1,.543.559,2.408,2.408,0,0,0,2.3,1.381,2.464,2.464,0,0,0,2.3-2.455V28.119a8.912,8.912,0,0,1,.112-1.4,11.918,11.918,0,0,0,8.152-3.962l.437.367a1.029,1.029,0,0,1-.088,1.695,2.435,2.435,0,0,0,1.123,4.6h6.958a17.825,17.825,0,0,1,.356,1.965H40.24a5.808,5.808,0,0,0-5.815,5.808V39.1A7.094,7.094,0,0,0,36.3,43.925a13.442,13.442,0,0,0-1.181,2.547A2.092,2.092,0,0,0,35.277,48.162ZM49.706,61.678A11.009,11.009,0,0,1,37.035,48.89h4.021a17.259,17.259,0,0,0,11.617-4.45l3.1,3.1A4.584,4.584,0,0,0,58.7,48.879a11.006,11.006,0,0,1-9,12.8Zm8.829-19.091a13.431,13.431,0,0,0-1.7-1.825,2.445,2.445,0,0,0-1.319-.6,2,2,0,1,1,3.022,2.424Zm2.733-5.718a11.62,11.62,0,0,0-2.108.693,3.847,3.847,0,0,0-2.732-.35,3.785,3.785,0,0,0-1.022-1.877,9.787,9.787,0,0,1,3.3-3.3.751.751,0,0,1,1.038.263l1.98,3.454a.751.751,0,0,1-.46,1.12Z" transform="translate(0 0)"/>
      </g>
    </g>
  </g>
</svg>
