<svg xmlns="http://www.w3.org/2000/svg" xmlns:xlink="http://www.w3.org/1999/xlink" width="113" height="113" viewBox="0 0 113 113">
  <defs>
    <filter id="Trazado_982547" x="0" y="0" width="113" height="113" filterUnits="userSpaceOnUse">
      <feOffset dy="3" input="SourceAlpha"/>
      <feGaussianBlur stdDeviation="3" result="blur"/>
      <feFlood flood-opacity="0.161"/>
      <feComposite operator="in" in2="blur"/>
      <feComposite in="SourceGraphic"/>
    </filter>
  </defs>
  <g id="Grupo_1231466" data-name="Grupo 1231466" transform="translate(-273.727 -4005.116)">
    <g id="Grupo_1230648" data-name="Grupo 1230648" transform="translate(-838.273 2774.9)">
      <g id="Grupo_1209049" data-name="Grupo 1209049">
        <g id="Grupo_1208493" data-name="Grupo 1208493" transform="translate(0 -4397.209)">
          <g id="Grupo_1202104" data-name="Grupo 1202104" transform="translate(0 -1149.226)">
            <g id="Grupo_1201923" data-name="Grupo 1201923" transform="translate(-4174.49 4856.378)">
              <g id="Grupo_1176928" data-name="Grupo 1176928" transform="translate(5295.49 1926.273)">
                <g id="Grupo_1172322" data-name="Grupo 1172322" transform="translate(0 0)">
                  <g id="Grupo_1164700" data-name="Grupo 1164700">
                    <g id="Grupo_1160931" data-name="Grupo 1160931">
                      <g id="Grupo_1160749" data-name="Grupo 1160749">
                        <g id="Grupo_1158891" data-name="Grupo 1158891">
                          <g id="Grupo_1157406" data-name="Grupo 1157406">
                            <g id="Grupo_1155793" data-name="Grupo 1155793">
                              <g id="Grupo_1154704" data-name="Grupo 1154704">
                                <g id="Grupo_1150790" data-name="Grupo 1150790">
                                  <g id="Grupo_1154214" data-name="Grupo 1154214">
                                    <g id="Grupo_1152583" data-name="Grupo 1152583">
                                      <g id="Grupo_1146973" data-name="Grupo 1146973">
                                        <g id="Grupo_1146954" data-name="Grupo 1146954">
                                          <g transform="matrix(1, 0, 0, 1, -9, -6)" filter="url(#Trazado_982547)">
                                            <g id="Trazado_982547-2" data-name="Trazado 982547" transform="translate(9 6)" fill="#dce8fa">
                                              <path d="M 47.5000114440918 93.49987030029297 C 41.28938293457031 93.49987030029297 35.26534652709961 92.28384399414062 29.5951976776123 89.88558959960938 C 24.11773109436035 87.56881713867188 19.19814491271973 84.25183868408203 14.97310447692871 80.02680206298828 C 10.74805164337158 75.80176544189453 7.43107795715332 70.88218688964844 5.114304542541504 65.40472412109375 C 2.716038227081299 59.73458862304688 1.500011444091797 53.71054840087891 1.500011444091797 47.49993515014648 C 1.500011444091797 41.28932189941406 2.716038227081299 35.26528167724609 5.114304542541504 29.59514808654785 C 7.43107795715332 24.1176815032959 10.74805164337158 19.1981086730957 14.97310447692871 14.97306823730469 C 19.19814491271973 10.74802875518799 24.11773109436035 7.431055068969727 29.5951976776123 5.11428165435791 C 35.26534652709961 2.716028451919556 41.28938293457031 1.500001788139343 47.5000114440918 1.500001788139343 C 53.71063995361328 1.500001788139343 59.73467636108398 2.716028451919556 65.40482330322266 5.11428165435791 C 70.88229370117188 7.431055068969727 75.8018798828125 10.74802875518799 80.02691650390625 14.97306823730469 C 84.25196838378906 19.1981086730957 87.56894683837891 24.1176815032959 89.88571929931641 29.59514808654785 C 92.28398132324219 35.26528167724609 93.50001525878906 41.28932189941406 93.50001525878906 47.49993515014648 C 93.50001525878906 53.71054840087891 92.28398132324219 59.73458862304688 89.88571929931641 65.40472412109375 C 87.56894683837891 70.88218688964844 84.25196838378906 75.80176544189453 80.02691650390625 80.02680206298828 C 75.8018798828125 84.25183868408203 70.88229370117188 87.56881713867188 65.40482330322266 89.88558959960938 C 59.73467636108398 92.28384399414062 53.71063995361328 93.49987030029297 47.5000114440918 93.49987030029297 Z" stroke="none"/>
                                              <path d="M 47.5000114440918 3 C 41.49122619628906 3 35.66378021240234 4.1761474609375 30.17951965332031 6.495796203613281 C 24.880859375 8.7369384765625 20.12153625488281 11.94596862792969 16.03376770019531 16.03373718261719 C 11.94598388671875 20.12149047851562 8.736968994140625 24.88081359863281 6.495811462402344 30.17947387695312 C 4.176162719726562 35.66371917724609 3.000007629394531 41.49116516113281 3.000007629394531 47.49993515014648 C 3.000007629394531 53.50870513916016 4.176162719726562 59.33615112304688 6.495811462402344 64.82039642333984 C 8.736968994140625 70.11905670166016 11.94598388671875 74.87837982177734 16.03376770019531 78.96613311767578 C 20.12153625488281 83.05390167236328 24.880859375 86.26293182373047 30.17951965332031 88.50407409667969 C 35.66378021240234 90.82372283935547 41.49122619628906 91.99987030029297 47.5000114440918 91.99987030029297 C 53.50879669189453 91.99987030029297 59.33624267578125 90.82372283935547 64.82050323486328 88.50407409667969 C 70.11916351318359 86.26293182373047 74.87848663330078 83.05390167236328 78.96625518798828 78.96613311767578 C 83.05403900146484 74.87837982177734 86.2630615234375 70.11905670166016 88.50421142578125 64.82039642333984 C 90.82386016845703 59.33615112304688 92.00001525878906 53.50870513916016 92.00001525878906 47.49993515014648 C 92.00001525878906 41.49116516113281 90.82386016845703 35.66371917724609 88.50421142578125 30.17947387695312 C 86.2630615234375 24.88081359863281 83.05403900146484 20.12149047851562 78.96625518798828 16.03373718261719 C 74.87848663330078 11.94596862792969 70.11916351318359 8.7369384765625 64.82050323486328 6.495796203613281 C 59.33624267578125 4.1761474609375 53.50879669189453 3 47.5000114440918 3 M 47.5000114440918 0 C 73.73353576660156 0 95.00001525878906 21.26644134521484 95.00001525878906 47.49993515014648 C 95.00001525878906 73.73342895507812 73.73353576660156 94.99987030029297 47.5000114440918 94.99987030029297 C 21.26648712158203 94.99987030029297 7.62939453125e-06 73.73342895507812 7.62939453125e-06 47.49993515014648 C 7.62939453125e-06 21.26644134521484 21.26648712158203 0 47.5000114440918 0 Z" stroke="none" fill="#5692e8"/>
                                            </g>
                                          </g>
                                        </g>
                                      </g>
                                    </g>
                                  </g>
                                </g>
                              </g>
                            </g>
                          </g>
                        </g>
                      </g>
                    </g>
                  </g>
                </g>
              </g>
            </g>
          </g>
        </g>
      </g>
    </g>
    <g id="mexico" transform="translate(295.773 4000.708)">
      <path id="Trazado_1235247" data-name="Trazado 1235247" d="M68.94,167.137a16.023,16.023,0,0,0-6.8-.725.7.7,0,0,0-.607.532c-1.2,5.347-8.752,7.55-11.73,2.4-2.71-5.008,3.088-8.579-2.327-12.4-3.036-2.238-5.685-5.243-8.975-7.039-1.993.121-3.183,0-4.425-1.8-2.507-4.908-6.057-3.893-10.906-3.94-4.374.279-14.5-7.394-15.6-.132-.452,2.28,1.276,4.521,3.1,5.967.8.44.749,1.228.549,2.011-.273,3.249,5.348,5.521,6.6,12.7.135,1.255.571,2.064,3.22,1.211s-4.182-9.3-4.77-14.577a11.661,11.661,0,0,1,6.459,3.118,18.494,18.494,0,0,1,1.855,3.762c1.469,3.174,5.112,4.84,6.644,7.971.395,1.041.32,2.207.659,3.268.595,1.863,2.333,3.088,3.986,4.136,4.139,2.33,8.295,5.855,13.207,5.982,1.749-.042,3.854-.548,4.977.792.579.691.755,1.775,1.582,2.134a2.494,2.494,0,0,0,1.791-.165,18.644,18.644,0,0,0,3.322-1.318c.363-.409.214-1.036.163-1.58a3.829,3.829,0,0,1,4.013-3.982c.877.087,1.829.475,2.587.025,1.888-1.866,2.391-5.27,1.871-7.839A.679.679,0,0,0,68.94,167.137Z" transform="translate(-6.565 -97.369)" fill="#96d200"/>
      <g id="Grupo_1231464" data-name="Grupo 1231464" transform="translate(2.813 43.532)">
        <path id="Trazado_1235248" data-name="Trazado 1235248" d="M149.985,170.584c1.242,1.807,2.432,1.924,4.425,1.8,3.291,1.8,5.939,4.8,8.975,7.039,5.415,3.819-.383,7.39,2.327,12.4a5.773,5.773,0,0,0,6.909,2.633,5.654,5.654,0,0,1-3.162-2.633c-2.71-5.008,3.088-8.579-2.327-12.4-3.036-2.238-5.685-5.243-8.975-7.039-1.993.121-3.183,0-4.425-1.8-2.258-4.42-5.362-4.036-9.5-3.95a6.346,6.346,0,0,1,5.752,3.95Z" transform="translate(-129.031 -163.38)" fill="#68ca44"/>
        <path id="Trazado_1235249" data-name="Trazado 1235249" d="M32.573,144.174c.987.01,1.919-.025,2.8-.044-3.65-.489-9.764-4.3-12.848-2.921C25.965,142.045,30.15,144.329,32.573,144.174Z" transform="translate(-22.525 -140.91)" fill="#68ca44"/>
        <path id="Trazado_1235250" data-name="Trazado 1235250" d="M401.856,345.724a.679.679,0,0,0-.448-.51,16.021,16.021,0,0,0-6.8-.725.708.708,0,0,0-.107.02,15.957,15.957,0,0,1,3.157.7.679.679,0,0,1,.448.51c.52,2.57.017,5.973-1.871,7.839-.758.45-1.71.062-2.587-.025a3.829,3.829,0,0,0-4.013,3.982c.051.545.2,1.171-.163,1.58a7.471,7.471,0,0,1-2.05.871,1.607,1.607,0,0,0,.684.611,2.493,2.493,0,0,0,1.791-.165,18.643,18.643,0,0,0,3.322-1.318c.363-.409.214-1.036.163-1.58a3.829,3.829,0,0,1,4.013-3.982c.877.087,1.829.475,2.587.025C401.873,351.7,402.376,348.293,401.856,345.724Z" transform="translate(-341.846 -318.977)" fill="#68ca44"/>
      </g>
      <path id="Trazado_1235251" data-name="Trazado 1235251" d="M189.734,47.854c0,6.582-7.944,13.263-10.248,15.062a1,1,0,0,1-1.238,0c-2.3-1.8-10.248-8.479-10.248-15.062a10.867,10.867,0,1,1,21.734,0Z" transform="translate(-147.016 -6.359)" fill="#e94444"/>
      <path id="Trazado_1235252" data-name="Trazado 1235252" d="M241.874,36.9a10.846,10.846,0,0,0-1.874.163,10.933,10.933,0,0,1,8.993,10.793c0,5.666-5.885,11.4-8.993,14.039.5.426.934.772,1.254,1.023a1,1,0,0,0,1.238,0c2.3-1.8,10.248-8.479,10.248-15.062A10.912,10.912,0,0,0,241.874,36.9Z" transform="translate(-210.022 -6.359)" fill="#d83131"/>
      <circle id="Elipse_11584" data-name="Elipse 11584" cx="5.055" cy="5.055" r="5.055" transform="translate(26.843 36.706)" fill="#fff0ad"/>
      <g id="Grupo_1231465" data-name="Grupo 1231465" transform="translate(0 29.632)">
        <path id="Trazado_1235253" data-name="Trazado 1235253" d="M63.747,70.092a1.618,1.618,0,0,0-1.069-1.213,17.011,17.011,0,0,0-7.2-.768,1.631,1.631,0,0,0-1.418,1.258,6.022,6.022,0,0,1-4.978,4.523,4.727,4.727,0,0,1-5.021-2.375c-1.014-1.884-.629-3.516-.222-5.244.547-2.322,1.167-4.954-2.374-7.456-1.793-1.326-3.436-2.906-5.164-4.344,3.756-3.576,8.364-9.3,7.183-15.018a.937.937,0,0,0-1.847.317c1.075,5.915-4.457,11.765-9.742,16.045a.067.067,0,0,1-.085,0c-4.78-3.733-9.888-9.455-9.888-14.323.033-9.906,12.884-13.772,18.266-5.448a.937.937,0,0,0,1.576-1.014c-6.394-9.886-21.676-5.3-21.716,6.462a11.289,11.289,0,0,0,.939,4.315c-.713-.018-1.452,0-2.217.02-.692.018-1.408.036-2.152.029l-.069,0c-1.259.081-3.347-.708-5.365-1.47-3.352-1.266-6.819-2.575-9.112-1.233A4.4,4.4,0,0,0,.089,46.5c-.627,3.231,2.194,5.874,3.438,6.862a.933.933,0,0,0,.13.086c.139.077.3.164.094.96-.245,1.7.8,3.121,1.938,4.522A.937.937,0,0,0,7.14,57.748c-1.033-1.264-1.592-2.12-1.552-2.961a2.413,2.413,0,0,0-.949-2.932c-.817-.659-3.152-2.768-2.708-5.008,0-.014.005-.028.007-.042a2.629,2.629,0,0,1,1.083-2.03c1.522-.89,4.7.31,7.5,1.368,2.289.864,4.452,1.683,6.11,1.59.764.006,1.487-.012,2.186-.03a25.891,25.891,0,0,1,3.123.04c2.556,4.482,6.989,8.2,8.715,9.553a1.94,1.94,0,0,0,2.392,0c.457-.357,1.106-.882,1.858-1.543.677.559,1.35,1.147,2,1.721,1.107.971,2.251,1.975,3.45,2.859l.016.011c4.765,3.2-.863,6.789,2.043,12.078l.013.023a6.6,6.6,0,0,0,6.933,3.3,7.9,7.9,0,0,0,6.48-5.788,15.134,15.134,0,0,1,6.09.652c.4,2.176,0,5.116-1.54,6.74a2.616,2.616,0,0,1-1.155-.068c-.251-.046-.511-.095-.781-.122a4.763,4.763,0,0,0-5.039,5c.008.092.02.186.031.281a3.355,3.355,0,0,1,.036.551,7.878,7.878,0,0,1-1.636.642,13.939,13.939,0,0,0-1.326.465,1.947,1.947,0,0,1-1.076.179c-.212-.092-.4-.449-.589-.827a5.463,5.463,0,0,0-.648-1.049c-1.208-1.442-3.14-1.3-4.692-1.186-.361.027-.7.052-1.025.059a.937.937,0,1,0,.045,1.873c.37-.009.75-.037,1.118-.064,1.526-.112,2.568-.137,3.118.521a3.969,3.969,0,0,1,.417.7A3.231,3.231,0,0,0,48.708,86a3.372,3.372,0,0,0,2.478-.141l.059-.023a12.1,12.1,0,0,1,1.172-.41,8.253,8.253,0,0,0,2.311-1,.932.932,0,0,0,.168-.149,2.476,2.476,0,0,0,.421-2.055c-.009-.079-.019-.157-.026-.234a2.9,2.9,0,0,1,2.987-2.963c.192.019.4.058.625.1a3.489,3.489,0,0,0,2.533-.2.95.95,0,0,0,.181-.139c2.227-2.2,2.666-6.048,2.13-8.692Z" transform="translate(0 -29.632)"/>
        <path id="Trazado_1235254" data-name="Trazado 1235254" d="M95.655,244.4a35.741,35.741,0,0,1-5.876-3.214c-.962-.606-1.957-1.233-2.94-1.787-2.089-1.315-3.7-2.555-3.832-4.989a8.4,8.4,0,0,0-.417-1.944c-.01-.027-.022-.054-.035-.08a14.94,14.94,0,0,0-3.49-4.188,12.926,12.926,0,0,1-3.146-3.765l-.013-.027c-.2-.4-.367-.817-.546-1.263a9.51,9.51,0,0,0-1.426-2.678l-.038-.043a12.68,12.68,0,0,0-6.977-3.4.937.937,0,0,0-1.1,1.026c.284,2.55,1.867,5.666,3.264,8.415.778,1.6,2.1,3.916,2.1,5.18-1.421.451-1.76.247-1.774.238s-.121-.106-.182-.672q0-.031-.009-.062a15.7,15.7,0,0,0-2.318-5.879.937.937,0,1,0-1.576,1.013,13.859,13.859,0,0,1,2.044,5.16,2.573,2.573,0,0,0,1.021,2.011c.754.49,1.807.477,3.414-.04,2.526-1.032.794-4.08-1.054-7.8a37.8,37.8,0,0,1-2.806-6.443,9.844,9.844,0,0,1,4.56,2.512,8.111,8.111,0,0,1,1.108,2.152c.183.458.373.932.6,1.4a14.55,14.55,0,0,0,3.559,4.332,13.489,13.489,0,0,1,3.068,3.6c.34.988.279,2.136.628,3.182.69,2.16,2.621,3.529,4.376,4.642l.042.025c.95.534,1.889,1.126,2.882,1.752a37.135,37.135,0,0,0,6.2,3.375.937.937,0,1,0,.678-1.746Z" transform="translate(-57.043 -193.607)"/>
        <path id="Trazado_1235255" data-name="Trazado 1235255" d="M207.436,84.757a5.992,5.992,0,1,0,5.992-5.992A6,6,0,0,0,207.436,84.757Zm10.11,0a4.118,4.118,0,1,1-4.118-4.118A4.123,4.123,0,0,1,217.546,84.757Z" transform="translate(-181.525 -72.628)"/>
      </g>
    </g>
  </g>
</svg>
