<svg xmlns="http://www.w3.org/2000/svg" xmlns:xlink="http://www.w3.org/1999/xlink" width="399.135" height="148" viewBox="0 0 399.135 148">
  <defs>
    <clipPath id="clip-path">
      <rect id="Rect치ngulo_423375" data-name="Rect치ngulo 423375" width="185" height="148" transform="translate(1178 2702)" fill="#fff" stroke="#707070" stroke-width="1" opacity="0.31"/>
    </clipPath>
  </defs>
  <g id="Grupo_1241583" data-name="Grupo 1241583" transform="translate(-1021 -1388.105)">
    <rect id="Rect치ngulo_423770" data-name="Rect치ngulo 423770" width="399.135" height="140" transform="translate(1021 1396.105)" fill="#f3de50"/>
    <g id="Enmascarar_grupo_1211556" data-name="Enmascarar grupo 1211556" transform="translate(-50 -1313.895)" clip-path="url(#clip-path)">
      <g id="Grupo_1241582" data-name="Grupo 1241582" transform="translate(68.198 2574.518)">
        <path id="Trazado_1297543" data-name="Trazado 1297543" d="M1259.762,891.381c-2.911-2.988-4.017-6.631-2.47-8.137s5.157-.3,8.067,2.689,4.015,6.633,2.47,8.138S1262.671,894.372,1259.762,891.381Z" transform="translate(-115.645 -625.569)" fill="#be745f"/>
        <path id="Trazado_1297544" data-name="Trazado 1297544" d="M1483.6,319.7h-5.437v-1.5C1482.236,318.149,1483.6,319.7,1483.6,319.7Z" transform="translate(-299.741 -156.624)" fill="#ef4651"/>
        <path id="Trazado_1297545" data-name="Trazado 1297545" d="M1483.6,327.09a5.816,5.816,0,0,1-5.437,3.654v-1.685S1482.175,329.5,1483.6,327.09Z" transform="translate(-299.741 -164.013)" fill="#ef4651"/>
        <path id="Trazado_1297546" data-name="Trazado 1297546" d="M1478.16,329.059V327.09h5.437C1482.173,329.5,1478.16,329.059,1478.16,329.059Z" transform="translate(-299.739 -164.013)" fill="#e8e4f2"/>
        <g id="Grupo_1241578" data-name="Grupo 1241578" transform="translate(1175.085 145.357)">
          <path id="Trazado_1297547" data-name="Trazado 1297547" d="M1458.44,236.6h2.116s.135,15.043.135,15.334c0,0,19.7-2.746,21.612-23.508-1.475-1.854-3.886.062-3.886.062l-3.535,10.041v-8.51c-3.087-.33-8.919-4.267-13.09-7.706a9.745,9.745,0,0,0-.724,1.483C1459.39,228.1,1458.44,236.6,1458.44,236.6Zm19.049-5.1c.536-1.348,1.314-1.482,1.314-1.482l.924.517c.194,1.817-1.875,7.377-1.875,7.377h-.727C1476.981,236.749,1477.489,231.505,1477.489,231.505Zm-14.354,1.655s.778.013,2.627,0a2.732,2.732,0,0,1-3.6.34,5.245,5.245,0,0,0,.985-2Zm4.629-3.539h-5.072l.336-1.058C1466.482,228.161,1467.764,229.621,1467.764,229.621Zm-5.989,8.913c4.076-.048,5.437,1.5,5.437,1.5a5.816,5.816,0,0,1-5.437,3.654v-5.157Z" transform="translate(-1458.44 -222.317)" fill="#e09c83"/>
          <path id="Trazado_1297548" data-name="Trazado 1297548" d="M1542.2,395.59c5.159,2.534,7.654,8.075,8.8,11.877a42.009,42.009,0,0,0-8.34,5.539l-3.2-14.277A8.49,8.49,0,0,0,1542.2,395.59Z" transform="translate(-1525.754 -366.285)" fill="#e09c83"/>
          <path id="Trazado_1297549" data-name="Trazado 1297549" d="M1761.119,571.555l-17.347-53.87-36.61-22.995-.138-.086-13.717-8.615-.207-.131s-14.147,9.911-8.262,25.721a34.317,34.317,0,0,0,6.09,10.026c5.042,5.994,15.525,10.537,23.653,13.346,6.2,2.143,11.032,3.28,11.032,3.28l20.378,44.844h11.478ZM1744.576,526.5c-1.546,1.5-5.158.3-8.067-2.689s-4.016-6.632-2.47-8.137,5.156-.3,8.067,2.69S1746.122,525,1744.576,526.5Z" transform="translate(-1645.357 -441.287)" fill="#e09c83"/>
        </g>
        <path id="Trazado_1297550" data-name="Trazado 1297550" d="M1987.425,661.675c2.91,2.99,4.015,6.632,2.47,8.137s-5.158.3-8.067-2.689-4.016-6.632-2.469-8.137S1984.514,658.685,1987.425,661.675Z" transform="translate(-715.59 -439.238)" fill="#ce846c"/>
        <g id="Grupo_1241579" data-name="Grupo 1241579" transform="translate(1176.095 137.947)">
          <path id="Trazado_1297551" data-name="Trazado 1297551" d="M1464.41,487.748l.151,23.145.2,30.957h88.769L1542.5,516.458c-27.628-11.756-39.545-45.891-39.619-46.1-5.885-15.81,8.262-25.721,8.262-25.721l.207.131-3.7-8.522a41.758,41.758,0,0,0-9.232,1.364,47.458,47.458,0,0,0-9.768,3.638,41.342,41.342,0,0,0-20.29,22.744C1465.912,470.341,1464.41,478.149,1464.41,487.748Zm5.5-21.985c6.405-12.573,15.7-18.879,23.392-22.025a40.164,40.164,0,0,1,13.8-3.151.313.313,0,1,1,0,.627h-.064a40.471,40.471,0,0,0-14.209,3.405c-7.436,3.2-16.219,9.392-22.355,21.428a.314.314,0,1,1-.56-.284Z" transform="translate(-1464.41 -392.651)" fill="#e761e1"/>
          <path id="Trazado_1297552" data-name="Trazado 1297552" d="M1633.564,183.641h0l-2.684-4.1h0l1.92-1.037.186.266,1.872,2.688-.889,1.5Z" transform="translate(-1602.725 -178.504)" fill="#00dcfd"/>
        </g>
        <g id="Grupo_1241580" data-name="Grupo 1241580" transform="translate(1117.408 151.47)">
          <path id="Trazado_1297553" data-name="Trazado 1297553" d="M1117.9,357.8c-.693,3.37.2,13.311,1.592,15.393,1.351,2.027,8.3,4.176,12.83,4.611a14.567,14.567,0,0,1-2.191-7.126,7.343,7.343,0,0,1,1.788-5.063,10.977,10.977,0,0,1-2.067-6.731c0-.243.006-.476.017-.7a22.321,22.321,0,0,0-2.444.614,7.3,7.3,0,0,0-1.358.567,1.784,1.784,0,0,0-.405.3.426.426,0,0,0-.134.213,12.783,12.783,0,0,1-.531,1.739c-.68,1.915-1.8,4.688-2.154,5.55l2.873,1.412.013.008a10.1,10.1,0,0,1,4,4.239,7.924,7.924,0,0,1,.786,3.372,4.882,4.882,0,0,1-.043.694.314.314,0,0,1-.62-.1h0v-.005a3.972,3.972,0,0,0,.036-.585,7.308,7.308,0,0,0-.725-3.1,9.471,9.471,0,0,0-3.756-3.967l-3.371-1.656.111-.273s.161-.39.406-1c.366-.91.921-2.3,1.4-3.582.24-.639.462-1.248.631-1.752a8.792,8.792,0,0,0,.318-1.091,1.1,1.1,0,0,1,.367-.617,4.226,4.226,0,0,1,1.278-.719,20.236,20.236,0,0,1,3.359-.907,13.646,13.646,0,0,1,.386-2.315l.073-.255.263.03c1.688.194,3.394,1.37,5.045,2.984a47.222,47.222,0,0,1,6.566,8.739c1.74,2.855,2.866,5.107,2.869,5.113a.315.315,0,0,1-.563.281v0l-.088-.173a78.008,78.008,0,0,0-5.189-8.621,34.64,34.64,0,0,0-4.334-5.176,8.857,8.857,0,0,0-4.105-2.471,14.732,14.732,0,0,0-.355,3.219,10.261,10.261,0,0,0,2.1,6.562l.195.238-.234.2h0a6.468,6.468,0,0,0-1.78,4.794,14.087,14.087,0,0,0,2.208,7,.087.087,0,0,1,.008.023.313.313,0,0,1-.122.406.308.308,0,0,1-.157.038c.025,4.662.632,62.237,15.956,62.224,7.277-.007,18.321-7.516,27.595-15.072l-.151-23.145c0-9.6,1.5-17.407,3.946-23.761l-18.5,24.543a30.73,30.73,0,0,1,2.919,13.526,39.3,39.3,0,0,1-1.268,9.755.315.315,0,0,1-.61-.155,38.615,38.615,0,0,0,1.249-9.6,31.824,31.824,0,0,0-1.748-10.611,23.566,23.566,0,0,0-1.2-2.818c-.162-.32-.3-.561-.391-.722-.047-.08-.083-.139-.108-.18l-.028-.044-.007-.012a.312.312,0,0,1,.091-.435.289.289,0,0,1,.07-.028l-16.73-48.263s-6.282-21.161-25.853-20.085c0,0-2.778,4.12,4.512,8.627,5.415,3.346,6.684,3.287,7.725,6.48C1130.165,348.368,1118.592,354.429,1117.9,357.8Zm31.818,71.674c2.91,2.99,4.015,6.633,2.47,8.138s-5.158.3-8.067-2.69-4.017-6.631-2.47-8.137S1146.8,426.484,1149.715,429.473Z" transform="translate(-1117.407 -320.579)" fill="#d38972"/>
          <path id="Trazado_1297554" data-name="Trazado 1297554" d="M1474.144,282.09l-.145.007c-.061,0-.121,0-.181.007s-.094,0-.141,0l-.165.005-.135,0h-.147c-.048,0-.093,0-.136,0h-.255l-.123,0c-.038,0-.075,0-.111,0l-.109,0-.1-.006c-.033,0-.065,0-.1-.006l-.084-.006c-.029,0-.056-.005-.083-.009s-.049-.005-.07-.009l-.067-.008-.058-.01-.05-.011-.042-.011a.161.161,0,0,1-.035-.012l-.027-.011a.167.167,0,0,1-.017-.014s-.008,0-.009-.006l0-.012s19.7-2.746,21.612-23.508a3.3,3.3,0,0,1,.39.627c1.389,2.862-4.276,12.98-4.276,12.98l12.053,6.648,0-.015,2.981,11.191a47.454,47.454,0,0,0-9.768,3.638c-1.144-3.8-3.639-9.343-8.8-11.877a41.72,41.72,0,0,0,2.534-5.079,54.013,54.013,0,0,1-6.247,3.9c-.132.055-.267.109-.4.16-.081.032-.164.06-.247.09-.055.02-.109.041-.166.06-.091.032-.183.062-.275.093-.05.017-.1.034-.147.049-.092.03-.184.058-.277.085l-.152.047-.289.082-.142.039c-.1.027-.2.054-.3.079l-.135.034-.3.073-.137.033c-.1.023-.2.046-.307.067l-.13.029-.306.061c-.045.008-.089.018-.134.027l-.3.055c-.046.007-.091.017-.137.025l-.29.049c-.049.008-.1.017-.146.023-.094.016-.188.03-.282.044-.048.006-.1.015-.147.022l-.279.038-.141.018c-.09.013-.18.023-.269.034l-.147.017-.257.03-.149.015c-.083.009-.164.018-.246.025l-.15.014-.233.02c-.049.006-.1.009-.151.014-.073,0-.145.011-.217.015l-.153.012-.2.011-.155.009Z" transform="translate(-1411.825 -258.465)" fill="#d38972"/>
          <path id="Trazado_1297555" data-name="Trazado 1297555" d="M1568.786,275.776c-.142-1.168.364-6.412.364-6.412.536-1.348,1.314-1.482,1.314-1.482l.924.517c.194,1.817-1.875,7.377-1.875,7.377Z" transform="translate(-1492.425 -266.29)" fill="#d38972"/>
        </g>
        <g id="Grupo_1241581" data-name="Grupo 1241581" transform="translate(1122.038 129.691)">
          <path id="Trazado_1297556" data-name="Trazado 1297556" d="M1673.323,198.674c.153-7.8-8.6-18.72-8.6-18.72a108.274,108.274,0,0,1-20.817-37.555l.889-1.5-1.872-2.688c-.825-6.874,4.708-8.387,7.48-8.511a9.563,9.563,0,0,1,7.463,3.038s15.017,47.475,16.579,55.2c1.344,6.648-.458,10.01-.987,10.82Z" transform="translate(-1558.608 -129.691)" fill="#20163a"/>
          <path id="Trazado_1297557" data-name="Trazado 1297557" d="M1481.419,278.3s.778.013,2.627,0a2.731,2.731,0,0,1-3.6.34,5.242,5.242,0,0,0,.985-2Z" transform="translate(-1423.676 -251.791)" fill="#20163a"/>
          <path id="Trazado_1297558" data-name="Trazado 1297558" d="M1483.918,258.905c3.453-.4,4.736,1.058,4.736,1.058h-5.072Z" transform="translate(-1426.282 -236.993)" fill="#20163a"/>
          <path id="Trazado_1297559" data-name="Trazado 1297559" d="M1721.62,661.314l9.875,22.731c-27.628-11.756-39.545-45.891-39.619-46.1a34.313,34.313,0,0,0,6.09,10.026C1703.008,653.961,1713.492,658.5,1721.62,661.314Z" transform="translate(-1599.348 -551.982)" fill="#20163a"/>
          <path id="Trazado_1297560" data-name="Trazado 1297560" d="M1454.672,166.566c9.933-2.318,20.236-2.98,25.441,1.558h0l2.684,4.1c2.758,8.46.258,28.062.185,28.627l0,.015-12.053-6.648s5.665-10.118,4.276-12.98a3.285,3.285,0,0,0-.391-.627c-1.475-1.854-3.886.062-3.886.062l-3.535,10.041V182.2c-3.087-.33-8.919-4.267-13.09-7.706a24.563,24.563,0,0,1-4.693-4.632C1448.269,167.434,1454.672,166.566,1454.672,166.566Z" transform="translate(-1397.902 -158.831)" fill="#20163a"/>
          <path id="Trazado_1297561" data-name="Trazado 1297561" d="M1533.74,369.461a54.03,54.03,0,0,0,6.247-3.9,41.727,41.727,0,0,1-2.534,5.079,8.5,8.5,0,0,1-2.745,3.139h0Z" transform="translate(-1467.957 -325.667)" fill="#20163a"/>
          <path id="Trazado_1297562" data-name="Trazado 1297562" d="M1144.894,474.005s.16-.39.406-1c.366-.91.921-2.3,1.4-3.582.241-.639.462-1.248.632-1.752a8.776,8.776,0,0,0,.318-1.091,1.1,1.1,0,0,1,.367-.617,4.227,4.227,0,0,1,1.278-.719,20.227,20.227,0,0,1,3.359-.907,13.615,13.615,0,0,1,.386-2.316l.073-.255.263.03c1.688.194,3.394,1.37,5.046,2.984a47.228,47.228,0,0,1,6.566,8.739c1.74,2.855,2.866,5.107,2.869,5.113a.314.314,0,0,1-.563.281v0l-.089-.172a78,78,0,0,0-5.189-8.621,34.641,34.641,0,0,0-4.334-5.176,8.857,8.857,0,0,0-4.105-2.471,14.727,14.727,0,0,0-.355,3.219,10.26,10.26,0,0,0,2.1,6.562l.195.238-.234.2h0a6.466,6.466,0,0,0-1.78,4.794,14.086,14.086,0,0,0,2.209,7,.083.083,0,0,1,.008.023.313.313,0,0,1-.122.406.328.328,0,0,1-.43-.114c-.037-.065-.068-.127-.1-.19a14.567,14.567,0,0,1-2.191-7.126,7.343,7.343,0,0,1,1.788-5.063,10.977,10.977,0,0,1-2.067-6.731c0-.243.007-.476.017-.7a22.349,22.349,0,0,0-2.444.614,7.308,7.308,0,0,0-1.358.567,1.789,1.789,0,0,0-.405.3.428.428,0,0,0-.134.213,12.745,12.745,0,0,1-.531,1.739c-.68,1.915-1.8,4.688-2.154,5.55l2.873,1.412.013.008a10.1,10.1,0,0,1,4,4.239,7.926,7.926,0,0,1,.786,3.372,4.883,4.883,0,0,1-.043.694.315.315,0,0,1-.62-.1h0v-.005a3.942,3.942,0,0,0,.036-.585,7.308,7.308,0,0,0-.725-3.1,9.472,9.472,0,0,0-3.756-3.967l-3.371-1.656Z" transform="translate(-1144.783 -405.606)" fill="#20163a"/>
          <path id="Trazado_1297563" data-name="Trazado 1297563" d="M1371.15,737.513a.284.284,0,0,1,.07-.028.311.311,0,0,1,.365.119,13.673,13.673,0,0,1,.663,1.206,30.727,30.727,0,0,1,2.919,13.526,39.3,39.3,0,0,1-1.268,9.755.315.315,0,0,1-.61-.155,38.619,38.619,0,0,0,1.249-9.6,31.835,31.835,0,0,0-1.748-10.611,23.549,23.549,0,0,0-1.2-2.818c-.162-.32-.3-.561-.391-.722-.047-.08-.083-.139-.108-.18l-.028-.044-.007-.012A.314.314,0,0,1,1371.15,737.513Z" transform="translate(-1332.747 -634.676)" fill="#20163a"/>
          <path id="Trazado_1297564" data-name="Trazado 1297564" d="M1520.142,465.088a40.165,40.165,0,0,1,13.8-3.151.313.313,0,1,1,0,.627h-.064a40.471,40.471,0,0,0-14.209,3.405c-7.436,3.2-16.219,9.392-22.355,21.428a.314.314,0,1,1-.56-.284C1503.155,474.54,1512.454,468.234,1520.142,465.088Z" transform="translate(-1437.195 -405.745)" fill="#20163a"/>
        </g>
      </g>
    </g>
  </g>
</svg>
